<svg width="87" height="17" viewBox="0 0 87 17" fill="none" xmlns="http://www.w3.org/2000/svg">
<path d="M62.2003 12.0523V10.9333C61.6787 11.3776 60.5928 11.3994 59.6365 11.5661C58.6803 11.7564 57.8135 12.0735 57.8135 13.1726C57.8135 14.2908 58.7014 14.5665 59.7011 14.5665C62.1134 14.5663 62.2003 12.7072 62.2003 12.0523ZM22.2802 9.64442H27.2977C27.0152 8.12228 26.342 7.31996 24.8429 7.31996C22.8877 7.31996 22.3236 8.79825 22.2802 9.64442ZM33.3417 9.64442H38.3601C38.0766 8.12228 37.4044 7.31996 35.9044 7.31996C33.9489 7.31996 33.3851 8.79825 33.3417 9.64442ZM55.2065 9.20127H52.1877C51.9937 7.97481 51.1879 7.32018 49.9073 7.32018C47.932 7.32018 47.2775 9.26551 47.2775 10.8702C47.2775 12.4326 47.9093 14.3131 49.8405 14.3131C51.2754 14.3131 52.0992 13.4256 52.2969 12.0957H54.9191C55.4456 10.6158 57 10.1889 58.5506 9.98182C60.4414 9.70793 62.2003 9.77033 62.2003 8.54476C62.2003 7.25806 61.288 7.06646 60.2004 7.06646C59.0293 7.06646 58.2684 8.01632 58.161 9.19872L55.2065 9.20127ZM86.5016 11.5441H78.4008C78.4859 13.4472 79.4427 14.3128 81.1576 14.3128C82.3949 14.3128 83.3946 13.5738 83.5905 12.8988H86.3068C85.4362 15.4734 83.5905 16.5742 81.0502 16.5742C78.3122 16.5742 76.3763 15.1573 75.6428 12.9501C75.5366 15.6821 73.0282 16.5742 70.521 16.5742C68.0584 16.5742 65.654 15.7281 65.285 13.1956V13.8486C65.285 14.8413 65.3941 15.8342 65.6763 16.2774H62.547C62.4385 15.9402 62.3528 15.5813 62.3305 15.2223C61.3548 16.215 59.9199 16.5742 58.5506 16.5742C56.6037 16.5742 55.0201 15.706 54.7639 13.8449C53.9089 15.6216 52.152 16.5742 49.8632 16.5742C46.9791 16.5742 44.9002 14.8908 44.3438 12.3703V16.2774H41.2593V11.5441H33.3417C33.4272 13.4472 34.384 14.3128 36.1014 14.3128C37.3386 14.3128 38.3374 13.5738 38.5325 12.8988H41.248C40.379 15.4734 38.5325 16.5742 35.9912 16.5742C32.707 16.5742 30.5828 14.5391 30.2911 11.5443H22.2802C22.3658 13.4474 23.3235 14.3131 25.0389 14.3131C26.2762 14.3131 27.276 13.574 27.472 12.899H30.1875C29.3185 15.4737 27.472 16.5744 24.93 16.5744C21.3899 16.5744 19.1959 14.2078 19.1959 10.8264C19.1959 7.55301 21.5198 5.05901 24.93 5.05901C28.1191 5.05901 29.9334 7.23411 30.3203 9.90491C30.7139 7.09675 32.9095 5.05901 35.9912 5.05901C38.9213 5.05901 40.6885 6.89438 41.2591 9.26295V1.19458H44.3436V9.46388C44.8785 6.85548 46.8444 5.05854 49.9289 5.05854C52.376 5.05854 54.6357 6.21257 55.1216 8.58371C55.5029 5.70331 57.9942 5.05854 60.3557 5.05854C62.5916 5.05854 65.285 5.54482 65.285 8.16613V12.729H68.1726C68.1949 14.0378 69.3248 14.5663 70.5422 14.5663C71.4305 14.5663 72.561 14.2291 72.561 13.1724C72.561 12.2629 71.2796 11.9459 69.0638 11.4826C67.2826 11.1025 65.5021 10.4899 65.5021 8.56637C65.5021 5.77835 67.9784 5.05854 70.3879 5.05854C72.8454 5.05854 75.1024 5.86181 75.3418 8.54431H72.4096C72.3239 7.38397 71.4087 7.06602 70.3045 7.06602C69.6076 7.06602 68.5868 7.19521 68.5868 8.08078C68.5868 9.15882 70.3234 9.30446 72.0851 9.70748C73.4367 10.0078 74.7677 10.4392 75.3463 11.4972C75.3235 11.2772 75.3161 11.0547 75.3161 10.8259C75.3161 7.55251 77.6399 5.05854 81.0502 5.05854C84.873 5.05854 86.7181 8.18535 86.5016 11.5441ZM78.4008 9.64442H83.4163C83.1335 8.12228 82.4623 7.31996 80.9634 7.31996C79.008 7.31996 78.4442 8.79825 78.4008 9.64442ZM17.4455 2.07921V5.35537H19.7033V7.09464H17.4455V12.7703C17.4455 13.7832 17.7053 14.0378 18.7476 14.0378C19.0735 14.0378 19.3774 14.0158 19.7033 13.9543V16.2989C19.1817 16.3841 18.5094 16.4033 17.9004 16.4033C16.0106 16.4033 14.3609 15.9801 14.3609 13.805V7.09464H10.0657L10.0647 5.6923C9.95525 3.87708 8.62957 3.41284 7.0018 3.41284C5.91522 3.41284 4.65556 3.85527 4.65556 5.12278C4.65556 6.28314 5.39458 6.43345 9.28227 7.40598C10.4113 7.68081 13.8873 8.37689 13.8873 11.7985C13.8873 14.5663 11.6503 16.6352 7.43567 16.6352C4.00379 16.6352 0.789315 14.9867 0.832461 11.269H4.13347C4.13347 13.2765 5.74071 14.0587 7.56631 14.0587C8.76021 14.0587 10.5848 13.7215 10.5848 12.1782C10.5848 10.5509 8.261 10.2751 5.98054 9.68615C3.67743 9.09459 1.35286 8.22803 1.35286 5.39804C1.35334 2.31368 4.35113 0.83374 7.15318 0.83374C10.2828 0.83374 13.1688 2.1179 13.356 5.35537H14.3607V2.07921H17.4455Z" fill="#D8D6D6"/>
</svg>
