<svg width="106" height="17" viewBox="0 0 106 17" fill="none" xmlns="http://www.w3.org/2000/svg">
<path d="M11.2109 8.05317L12.8183 10.5328L16.0516 5.52018V16.6241H18.8367V0.472196H15.9945L11.2109 8.05317Z" fill="#D8D6D6"/>
<path d="M3.39901 0.471464H0.582031V16.6234H3.37419V5.51944L9.71331 15.3791L11.3303 12.863L3.39901 0.471464Z" fill="#D8D6D6"/>
<path d="M35.5856 11.6166L38.1626 16.6232H41.5214L33.0949 0.471584H30.0668L30.0642 0.476627L34.2834 9.0422H28.6768L30.1401 6.24981L28.6139 3.21533L21.5137 16.6232H24.6551L27.3091 11.6177L35.5856 11.6166Z" fill="#D8D6D6"/>
<path d="M60.1191 0.47123H57.3262V8.31483L60.1191 11.0431V0.47123Z" fill="#D8D6D6"/>
<path d="M46.6383 0.471708H43.7969V16.6237H46.5909V4.55455L58.038 16.6237H60.1176V14.661L46.6383 0.471708Z" fill="#D8D6D6"/>
<path d="M79.6326 4.95419C78.3026 3.61109 76.2519 2.75098 73.9512 2.75098C70.2795 2.75098 67.2447 4.94303 66.7607 7.78772H63.6855C64.0874 3.37229 68.7332 0.117712 73.989 0.117712C77.1149 0.117712 79.9233 1.24975 81.814 3.07118L79.6326 4.95419Z" fill="#D8D6D6"/>
<path d="M73.6955 14.3676C70.63 14.3676 68.0204 12.7518 67.0471 10.4915H63.9102C64.9475 14.3874 69.0263 16.986 73.8692 16.986C74.9936 16.986 76.2877 16.8779 77.3621 16.6185C79.7868 16.0349 82.4349 14.502 82.4349 12.0821V7.78777H73.6633L73.657 10.4915H79.6317V11.7189C79.6317 13.0742 77.5499 13.8582 76.2758 14.1334C75.5903 14.2815 74.7103 14.3676 73.9999 14.3676H73.6955Z" fill="#D8D6D6"/>
<path d="M105.521 8.56304C105.521 3.74599 101.025 0.00900489 95.5041 0.00900489C90.1579 0.00900489 85.4609 3.57343 85.4609 8.30366C85.4609 12.7637 89.1497 16.3371 94.1189 16.9038V14.2055C90.8679 13.6845 88.4109 11.3219 88.4109 8.48054C88.4109 5.25729 91.5704 2.64251 95.4663 2.64251C99.364 2.64251 102.522 5.25729 102.522 8.48054C102.522 11.2999 100.104 13.6467 96.8907 14.1925V16.8966C101.659 16.3328 105.521 12.8927 105.521 8.56304Z" fill="#D8D6D6"/>
</svg>
