<svg width="141" height="30" viewBox="0 0 141 30" fill="none" xmlns="http://www.w3.org/2000/svg">
<path d="M81.4812 8.51191C81.3184 8.50977 81.1585 8.55465 81.0218 8.64087C80.8852 8.7271 80.7779 8.8508 80.7135 8.99633C80.6492 9.14186 80.6306 9.30269 80.6602 9.45847C80.6898 9.61426 80.7662 9.75802 80.8798 9.87156C80.9934 9.9851 81.1391 10.0633 81.2984 10.0964C81.4577 10.1294 81.6235 10.1157 81.7748 10.0571C81.9262 9.99847 82.0562 9.89752 82.1486 9.76701C82.2409 9.6365 82.2914 9.48229 82.2936 9.32388C82.2963 9.21839 82.2772 9.11344 82.2376 9.0152C82.198 8.91696 82.1386 8.8274 82.0629 8.75178C81.9873 8.67615 81.8968 8.61598 81.797 8.57479C81.6971 8.5336 81.5897 8.51222 81.4812 8.51191Z" fill="#D8D6D6"/>
<path d="M49.6555 18.6276C49.6555 15.9616 46.9497 15.1283 44.5587 14.3946C42.0193 13.6133 40.3555 12.9823 40.3555 11.4057C40.3555 9.87081 41.8932 8.83792 44.1832 8.83792C45.4238 8.82484 46.647 9.12192 47.7357 9.70069L47.8221 9.75012L48.3804 9.02344L48.2709 8.95925C47.0198 8.308 45.6213 7.97126 44.2023 7.97964C41.3646 7.97964 39.3848 9.39192 39.3848 11.4192C39.3848 13.526 41.457 14.3651 43.9601 15.1713L44.273 15.2721C46.5267 15.9943 48.6556 16.676 48.6556 18.6462C48.6556 20.6542 46.7821 21.9522 43.8823 21.9522C42.3016 21.9292 40.7573 21.4871 39.4158 20.6734L39.3155 20.6092L38.8535 21.4046L38.9426 21.4605C40.4309 22.3633 42.1468 22.8481 43.9008 22.8612C47.2889 22.865 49.6555 21.1228 49.6555 18.6276Z" fill="#D8D6D6"/>
<path d="M56.1695 22.6153L56.2684 22.5954L56.1741 21.7088L56.0467 21.7422C55.6449 21.8445 55.2313 21.8967 54.8159 21.8976C53.7303 21.8976 53.2024 21.3615 53.2024 20.2593V13.8341H56.4447V12.9579H53.2043V9.90479L52.2336 10.584V12.9592L50.5078 12.9688V13.8579H52.2336V20.2593C52.2336 21.9284 53.1034 22.7738 54.8179 22.7738C55.273 22.7696 55.7263 22.7164 56.1695 22.6153Z" fill="#D8D6D6"/>
<path d="M65.3391 20.9688V22.5923H66.2868V12.958H65.316V19.8782C64.6119 20.6485 63.224 21.8977 61.6494 21.8977C60.0451 21.8977 59.2657 21.0356 59.2657 19.2612V12.958H58.2949V19.3293C58.2949 21.5183 59.5006 22.774 61.6026 22.774C63.327 22.774 64.7373 21.5748 65.3391 20.9688Z" fill="#D8D6D6"/>
<path d="M73.5475 22.7742C74.8341 22.769 76.0703 22.2869 77.0042 21.4261V22.5919H77.975V8.09229H77.0042V14.0341C76.0679 13.2175 74.8526 12.7692 73.595 12.7765C70.8186 12.7765 68.7246 14.9303 68.7246 17.7869C68.7239 20.6301 70.7975 22.7742 73.5475 22.7742ZM69.7198 17.7869C69.7198 15.3912 71.3406 13.6528 73.5725 13.6528C74.2225 13.6556 74.8644 13.7925 75.456 14.0545C76.0475 14.3164 76.5752 14.6974 77.0042 15.1723V20.2436C76.5938 20.7492 76.073 21.1598 75.4796 21.4458C74.8861 21.7318 74.2347 21.886 73.5725 21.8973C71.3386 21.8979 69.7178 20.1692 69.7178 17.7869H69.7198Z" fill="#D8D6D6"/>
<path d="M81.9864 12.958H81.0156V22.5923H81.9864V12.958Z" fill="#D8D6D6"/>
<path d="M89.318 12.7771C86.5548 12.7771 84.4707 14.9308 84.4707 17.7875C84.4707 20.6306 86.5343 22.7747 89.2711 22.7747C89.9327 22.7618 90.585 22.6205 91.1898 22.3593C91.7946 22.0981 92.3398 21.7222 92.7934 21.2535C93.247 20.7848 93.5999 20.2329 93.8315 19.6299C94.0631 19.0269 94.1687 18.3851 94.1422 17.7419C94.1422 14.9128 92.068 12.7771 89.318 12.7771ZM93.1456 17.7644C93.1456 20.1601 91.5248 21.8985 89.2922 21.8985C87.0735 21.8985 85.4646 20.1601 85.4646 17.7644C85.4646 15.3827 87.0755 13.6559 89.2922 13.6559C91.5268 13.6534 93.1476 15.3827 93.1476 17.7644H93.1456Z" fill="#D8D6D6"/>
<path d="M101.788 9.94172L110.74 22.5424L110.774 22.5893H111.616V8.09229H110.622V20.7418L101.674 8.13915L101.64 8.09229H100.84V22.5925H101.788V9.94172Z" fill="#D8D6D6"/>
<path d="M118.968 12.7771C116.294 12.7771 114.354 14.8846 114.354 17.7875C114.354 20.8174 116.393 22.7747 119.551 22.7747C120.609 22.767 121.653 22.5417 122.615 22.1135L122.693 22.1026V21.833L122.646 21.8561C122.605 21.7335 122.539 21.5281 122.478 21.3425L122.44 21.2225L122.324 21.2758C121.457 21.6765 120.511 21.8898 119.552 21.901C116.982 21.901 115.419 20.3989 115.351 17.8767H123.233V17.4723C123.232 14.6195 121.558 12.7771 118.968 12.7771ZM115.384 17.0203C115.64 14.9398 116.987 13.6534 118.921 13.6534C120.855 13.6534 122.089 14.909 122.232 17.0203H115.384Z" fill="#D8D6D6"/>
<path d="M128.862 12.7771C127.895 12.8042 126.94 12.9999 126.044 13.3548L125.948 13.3934L126.228 14.2394L126.342 14.19C127.125 13.8624 127.964 13.6809 128.816 13.6553C130.923 13.6553 131.786 14.4718 131.786 16.4728V17.4485C130.902 16.9855 129.916 16.7373 128.912 16.7251C126.635 16.7251 125.045 17.9833 125.045 19.7839C125.045 21.573 126.563 22.7747 128.819 22.7747C129.909 22.7658 130.963 22.3925 131.804 21.7174V22.5943H132.751V16.3803C132.753 13.9557 131.481 12.7771 128.862 12.7771ZM131.782 18.3485V20.6736C131.418 21.0751 130.968 21.3947 130.463 21.61C129.959 21.8254 129.413 21.9315 128.862 21.9209C127.063 21.9209 125.989 21.1217 125.989 19.7839C125.989 18.2432 127.468 17.5564 128.933 17.5564C129.941 17.5508 130.929 17.8256 131.782 18.3485Z" fill="#D8D6D6"/>
<path d="M140.521 13.8341V12.9579H137.281V9.90479L136.31 10.584V12.9592L134.584 12.9688V13.8579H136.31V20.2593C136.31 21.9284 137.179 22.7738 138.894 22.7738C139.35 22.7684 139.804 22.7143 140.248 22.6127L140.346 22.5921L140.252 21.7088L140.125 21.7422C139.723 21.8445 139.309 21.8967 138.894 21.8976C137.808 21.8976 137.281 21.3615 137.281 20.2593V13.8341H140.521Z" fill="#D8D6D6"/>
<path d="M15.4307 0.919678C12.4939 0.919678 9.6231 1.76679 7.18124 3.35388C4.73939 4.94098 2.83619 7.19678 1.71233 9.83603C0.588465 12.4753 0.294411 15.3794 0.867352 18.1812C1.44029 20.983 2.85449 23.5567 4.93112 25.5767C7.00775 27.5966 9.65353 28.9723 12.5339 29.5296C15.4143 30.0869 18.3998 29.8009 21.1131 28.7077C23.8263 27.6144 26.1454 25.7632 27.777 23.3879C29.4086 21.0126 30.2794 18.2201 30.2794 15.3634C30.2751 11.534 28.7093 7.86264 25.9255 5.15484C23.1418 2.44703 19.3675 0.923926 15.4307 0.919678V0.919678Z" fill="#D8D6D6"/>
<path d="M17.5209 24.5284V19.0687H16.8682V23.3264L13.7335 19.0674L13.1738 19.0571V24.531H13.8265V20.2066L16.9467 24.5252L17.5209 24.5284Z" fill="#090909"/>
<path d="M23.4708 15.0237H7.38672V15.6086H23.4708V15.0237Z" fill="#090909"/>
<path d="M13.4507 10.8149L13.0977 11.3123C13.7468 11.8358 14.5683 12.114 15.4114 12.0959C16.757 12.0959 17.6968 11.3489 17.6968 10.279C17.7027 10.0076 17.6244 9.74078 17.4722 9.51323C17.3201 9.28567 17.101 9.10792 16.8435 9.00311C16.4103 8.80996 15.9593 8.65717 15.4965 8.5468L15.4266 8.52819C14.6043 8.30356 14.0222 8.10332 14.0222 7.5764C14.0222 7.06617 14.6241 6.66633 15.3929 6.66633C15.9504 6.66646 16.4892 6.8617 16.9108 7.21635L17.2718 6.6965C16.7607 6.28922 16.1169 6.07258 15.4563 6.08551C14.238 6.08551 13.3544 6.7273 13.3544 7.6117C13.3544 8.58081 14.4703 8.8831 15.3672 9.1257C16.1387 9.33492 17.0091 9.5711 17.0091 10.3188C17.0091 11.0331 16.3789 11.4946 15.4035 11.4946C14.6926 11.4875 14.0048 11.2481 13.4507 10.8149Z" fill="#090909"/>
</svg>
