<svg width="159" height="41" viewBox="0 0 159 41" fill="none" xmlns="http://www.w3.org/2000/svg">
<path d="M46.4453 27.9645V12.5316H49.6031L54.2126 22.5395H54.2635L58.8729 12.5316H62.0562V27.9645H59.0766V18.4769H58.9748L54.4672 27.9645H53.9579L49.4503 18.4769H49.3994V27.9645H46.4453ZM73.4397 26.6763C72.3701 27.7663 71.0458 28.3113 69.416 28.3113C67.7861 28.3113 66.4364 27.7663 65.3923 26.6763C64.3227 25.5864 63.8134 24.0753 63.8134 22.1431C63.8134 20.2357 64.3482 18.7246 65.4432 17.6346C66.5383 16.5447 67.8625 15.9749 69.4415 15.9749C71.0204 15.9749 72.3446 16.5199 73.4397 17.6346C74.5347 18.7246 75.0695 20.2357 75.0695 22.1431C75.0186 24.0753 74.5093 25.5864 73.4397 26.6763ZM67.4041 24.7937C67.888 25.413 68.5501 25.7102 69.3905 25.7102C70.2309 25.7102 70.893 25.3882 71.3769 24.7689C71.8608 24.1496 72.09 23.2578 72.09 22.1183C72.09 20.9788 71.8353 20.087 71.3514 19.4678C70.8676 18.8485 70.2054 18.5264 69.365 18.5264C68.5247 18.5264 67.8625 18.8237 67.3787 19.443C66.8948 20.0623 66.6402 20.9541 66.6402 22.1183C66.6911 23.3074 66.9203 24.1744 67.4041 24.7937ZM79.8317 27.9645L75.0186 16.297H78.0746L81.0541 23.8028H81.1051L84.0846 16.297H87.0897L82.2765 27.9893H79.8317V27.9645ZM95.7228 23.9514L97.7855 25.7102C96.5631 27.4443 94.9078 28.3113 92.8196 28.3113C91.1388 28.3113 89.7636 27.7415 88.7195 26.6268C87.6499 25.5121 87.1406 24.001 87.1406 22.1431C87.1406 20.2852 87.6754 18.7741 88.7195 17.6594C89.7636 16.5447 91.0879 15.9749 92.6923 15.9749C94.2966 15.9749 95.6209 16.5447 96.6395 17.6594C97.6837 18.7741 98.193 20.2852 98.193 22.1431V23.0101H90.1201C90.1711 23.9019 90.4257 24.5955 90.8841 25.0662C91.3425 25.5368 91.9792 25.7846 92.7687 25.7846C93.4563 25.7846 94.0165 25.6112 94.4494 25.2891C94.9078 24.9423 95.3153 24.4964 95.7228 23.9514ZM90.1201 20.855H95.3408C95.2644 20.1118 95.0097 19.5173 94.5513 19.0962C94.0929 18.6751 93.4817 18.4769 92.6923 18.4769C91.9792 18.4769 91.368 18.6998 90.9096 19.1705C90.4512 19.6164 90.1711 20.1861 90.1201 20.855ZM101.529 27.9645L98.8806 16.2722H101.758L103.337 24.0753H103.414L106.088 16.2722H108.762L111.232 24.0505H111.283L113.091 16.2722H115.918L113.04 27.9645H110.137L107.386 19.5668H107.335L104.356 27.9645H101.529ZM125.9 26.6763C124.831 27.7663 123.507 28.3113 121.877 28.3113C120.247 28.3113 118.897 27.7663 117.853 26.6763C116.783 25.5864 116.274 24.0753 116.274 22.1431C116.274 20.2357 116.809 18.7246 117.904 17.6346C118.999 16.5447 120.323 15.9749 121.902 15.9749C123.481 15.9749 124.805 16.5199 125.9 17.6346C126.995 18.7246 127.53 20.2357 127.53 22.1431C127.479 24.0753 126.97 25.5864 125.9 26.6763ZM119.865 24.7937C120.349 25.413 121.011 25.7102 121.851 25.7102C122.692 25.7102 123.354 25.3882 123.838 24.7689C124.322 24.1496 124.551 23.2578 124.551 22.1183C124.551 20.9788 124.296 20.087 123.812 19.4678C123.328 18.8485 122.666 18.5264 121.826 18.5264C120.985 18.5264 120.323 18.8237 119.839 19.443C119.356 20.0623 119.101 20.9541 119.101 22.1183C119.152 23.3074 119.406 24.1744 119.865 24.7937ZM129.287 27.9645V16.2722H132.063V17.5108H132.114C132.343 17.0649 132.674 16.7181 133.133 16.4456C133.566 16.1731 134.075 16.0492 134.584 16.0492C134.966 16.0492 135.323 16.1236 135.68 16.2722L135.221 19.0466C134.89 18.9228 134.584 18.8732 134.304 18.8732C132.929 18.8732 132.242 19.765 132.242 21.5486V27.9645H129.287ZM148.082 24.1248L150.73 23.456C150.934 25.091 151.851 25.9084 153.43 25.9084C154.143 25.9084 154.728 25.7846 155.161 25.5616C155.594 25.3387 155.798 25.0166 155.798 24.5955C155.798 24.2487 155.62 24.001 155.289 23.8276C154.958 23.6542 154.27 23.4312 153.2 23.134C152.92 23.0597 152.691 23.0101 152.538 22.9606C151.138 22.589 150.119 22.1183 149.482 21.5981C148.82 21.0779 148.515 20.3843 148.515 19.5173C148.515 18.5512 148.922 17.7089 149.737 17.0153C150.552 16.3217 151.647 15.9501 153.048 15.9501C155.747 15.9501 157.428 17.0897 158.09 19.3934L155.645 20.1118C155.441 19.5421 155.136 19.1209 154.754 18.7989C154.372 18.4769 153.812 18.3035 153.073 18.3035C152.487 18.3035 152.054 18.4026 151.698 18.6255C151.367 18.8485 151.189 19.0962 151.189 19.3934C151.189 19.7155 151.392 19.9632 151.8 20.1614C152.207 20.3348 153.2 20.6568 154.805 21.1027C156.205 21.4743 157.173 21.9449 157.682 22.4899C158.192 23.0597 158.446 23.778 158.446 24.6698C158.446 25.6112 158.039 26.4534 157.199 27.1966C156.358 27.9397 155.136 28.3113 153.557 28.3113C151.902 28.3113 150.603 27.9149 149.711 27.0975C148.82 26.28 148.26 25.2891 148.082 24.1248ZM143.319 21.8706L148.133 27.9893H144.465L140.238 22.4404V27.9893H137.258V11.8876H140.238V21.2513L144.465 16.297H148.133L143.319 21.8706Z" fill="#D8D6D6"/>
<path d="M18.9178 18.7741H0.582031V0.938354L18.9178 18.7741ZM18.9178 0.938354V18.7988H37.2791L18.9178 0.938354Z" fill="#D8D6D6"/>
<path d="M0.582031 39.5825V21.722H18.9433L0.582031 39.5825ZM37.2791 21.7468H18.9178V39.6073L37.2791 21.7468Z" fill="#D8D6D6"/>
<path d="M46.4453 32.3246H47.2093V38.739H46.4453V32.3246Z" fill="#D8D6D6"/>
<path d="M48.6583 33.8853H49.3713V34.3311H49.3968C49.7024 33.9844 50.2627 33.7367 50.7975 33.7367C51.9689 33.7367 52.682 34.4549 52.682 35.5942V38.7395H51.9434V35.6685C51.9434 34.8759 51.4596 34.4054 50.6956 34.4054C49.9061 34.4054 49.3713 34.9255 49.3713 35.6685V38.7147H48.6328V33.8853H48.6583Z" fill="#D8D6D6"/>
<path d="M53.6035 37.0799L54.3166 36.9561C54.4694 37.8476 54.9023 38.2191 55.8191 38.2191C56.5067 38.2191 56.9141 37.9467 56.9141 37.5257C56.9141 37.0551 56.6085 36.857 55.539 36.535C54.2656 36.1883 53.8327 35.8168 53.8327 35.1481C53.8327 34.3308 54.5458 33.7612 55.5644 33.7612C56.5576 33.7612 57.2961 34.3309 57.4999 35.1977L56.7868 35.3463C56.6085 34.7271 56.2011 34.4051 55.5644 34.4051C54.9532 34.4051 54.5458 34.6776 54.5458 35.0986C54.5458 35.4453 54.8259 35.6187 55.7682 35.8911C57.1433 36.2874 57.6527 36.7084 57.6527 37.4762C57.6527 38.3182 56.9141 38.8631 55.7936 38.8631C54.5458 38.8631 53.7308 38.2191 53.6035 37.0799Z" fill="#D8D6D6"/>
<path d="M59.4831 34.5293V37.6251C59.4831 37.947 59.6104 38.0708 60.0179 38.0708H60.4253V38.7395H59.9415C59.0247 38.7395 58.7191 38.4423 58.7191 37.6251V34.5293H57.9551V33.8854H58.7191V32.7957H59.4576V33.8854H60.68V34.5293H59.4831Z" fill="#D8D6D6"/>
<path d="M61.1406 37.5011C61.1406 36.6839 61.65 36.2628 62.8978 35.9656C63.8655 35.7428 64.1711 35.5446 64.1711 35.1484C64.1711 34.7026 63.7637 34.4054 63.1525 34.4054C62.4903 34.4054 62.0319 34.8016 61.9046 35.4456L61.1661 35.297C61.3444 34.3558 62.1083 33.7367 63.1525 33.7367C64.273 33.7367 64.9606 34.3311 64.9606 35.3217V38.7395H64.273V38.2194H64.2475C63.9674 38.6156 63.4326 38.8633 62.7959 38.8633C61.7773 38.8633 61.1406 38.3432 61.1406 37.5011ZM64.2221 37.0801V35.9904H64.1966C64.0947 36.2381 63.7637 36.3867 63.1015 36.56C62.2357 36.7829 61.8791 37.0306 61.8791 37.4516C61.8791 37.9469 62.2102 38.1946 62.8469 38.1946C63.6363 38.1946 64.2221 37.724 64.2221 37.0801Z" fill="#D8D6D6"/>
<path d="M66.1329 33.8853H66.8459V34.3311H66.8714C67.177 33.9844 67.7373 33.7367 68.2721 33.7367C69.4435 33.7367 70.1566 34.4549 70.1566 35.5942V38.7395H69.4181V35.6685C69.4181 34.8759 68.9342 34.4054 68.1702 34.4054C67.3807 34.4054 66.8459 34.9255 66.8459 35.6685V38.7147H66.1074V33.8853H66.1329Z" fill="#D8D6D6"/>
<path d="M72.319 34.5293V37.6251C72.319 37.947 72.4463 38.0708 72.8538 38.0708H73.2613V38.7395H72.7774C71.8606 38.7395 71.555 38.4423 71.555 37.6251V34.5293H70.791V33.8854H71.555V32.7957H72.2935V33.8854H73.5159V34.5293H72.319Z" fill="#D8D6D6"/>
<path d="M77.004 32.0524H77.7425V34.3309H77.768C78.0481 33.9841 78.6084 33.7365 79.1432 33.7365C80.2891 33.7365 81.0277 34.4547 81.0277 35.5692V38.7145H80.2891V35.6682C80.2891 34.8757 79.8053 34.4052 79.0413 34.4052C78.2518 34.4052 77.717 34.9252 77.717 35.6682V38.7145H76.9785V32.0524H77.004Z" fill="#D8D6D6"/>
<path d="M82.0469 36.3124C82.0469 34.7769 82.9891 33.7367 84.3643 33.7367C85.714 33.7367 86.6054 34.7026 86.6054 36.139V36.5105H82.8109C82.8363 37.4269 83.4221 38.2194 84.3643 38.2194C85.0774 38.2194 85.4594 37.9717 85.8923 37.2535L86.5035 37.6002C86.0706 38.4423 85.332 38.8633 84.3898 38.8633C82.9637 38.8633 82.0469 37.8231 82.0469 36.3124ZM85.8414 35.9409C85.8159 35.0741 85.2302 34.3806 84.3643 34.3806C83.4985 34.3806 82.8363 35.1236 82.8109 35.9409H85.8414Z" fill="#D8D6D6"/>
<path d="M87.623 32.0524H88.3616V38.7392H87.623V32.0524Z" fill="#D8D6D6"/>
<path d="M89.6134 33.8852H90.3519V34.4053H90.3773C90.7084 34.009 91.2177 33.7614 91.8289 33.7614C93.1532 33.7614 94.07 34.8015 94.07 36.337C94.07 37.8725 93.1277 38.9127 91.8289 38.9127C91.2177 38.9127 90.6575 38.6651 90.3519 38.2936H90.3264V40.8445H89.5879L89.6134 33.8852ZM93.3314 36.3123C93.3314 35.173 92.7203 34.4053 91.8035 34.4053C90.9631 34.4053 90.3264 35.0492 90.3264 35.8169V36.7581C90.3264 37.5506 90.9885 38.1945 91.778 38.1945C92.7202 38.1945 93.3314 37.4515 93.3314 36.3123Z" fill="#D8D6D6"/>
<path d="M97.1992 37.5011C97.1992 36.6839 97.7085 36.2628 98.9564 35.9656C99.9241 35.7428 100.23 35.5446 100.23 35.1484C100.23 34.7026 99.8223 34.4054 99.2111 34.4054C98.5489 34.4054 98.0905 34.8016 97.9632 35.4456L97.2247 35.297C97.403 34.3558 98.1669 33.7367 99.2111 33.7367C100.332 33.7367 101.019 34.3311 101.019 35.3217V38.7395H100.332V38.2194H100.306C100.026 38.6156 99.4912 38.8633 98.8545 38.8633C97.8359 38.8633 97.1992 38.3432 97.1992 37.5011ZM100.255 37.0801V35.9904H100.23C100.128 36.2381 99.7968 36.3867 99.1347 36.56C98.2688 36.7829 97.9123 37.0306 97.9123 37.4516C97.9123 37.9469 98.2433 38.1946 98.88 38.1946C99.6949 38.1946 100.255 37.724 100.255 37.0801Z" fill="#D8D6D6"/>
<path d="M103.157 34.5293V37.6251C103.157 37.947 103.284 38.0708 103.692 38.0708H104.099V38.7395H103.615C102.698 38.7395 102.393 38.4423 102.393 37.6251V34.5293H101.629V33.8854H102.393V32.7957H103.131V33.8854H104.354V34.5293H103.157Z" fill="#D8D6D6"/>
<path d="M107.26 33.8849H107.973L108.89 37.6493H108.915L110.265 33.8849H110.927L112.277 37.6493H112.302L113.219 33.8849H113.932L112.735 38.7391H112.047L110.621 34.7765H110.596L109.17 38.7391H108.482L107.26 33.8849Z" fill="#D8D6D6"/>
<path d="M114.365 36.3119C114.365 34.7764 115.307 33.7362 116.708 33.7362C118.134 33.7362 119.077 34.7764 119.077 36.3119C119.077 37.8474 118.134 38.8876 116.708 38.8876C115.307 38.8628 114.365 37.8226 114.365 36.3119ZM118.338 36.3119C118.338 35.1479 117.701 34.4049 116.708 34.4049C115.715 34.4049 115.104 35.1479 115.104 36.3119C115.104 37.4759 115.715 38.2189 116.708 38.2189C117.701 38.1941 118.338 37.4511 118.338 36.3119Z" fill="#D8D6D6"/>
<path d="M120.121 33.8847H120.809V34.281H120.834C121.012 33.9838 121.394 33.7856 121.878 33.7856C122.057 33.7856 122.209 33.8104 122.388 33.8599L122.235 34.6029C122.057 34.5534 121.904 34.5286 121.751 34.5286C121.165 34.5286 120.885 34.9001 120.885 35.8165V38.7389H120.147L120.121 33.8847Z" fill="#D8D6D6"/>
<path d="M123.178 32.0524H123.916V36.0397H123.942L126.03 33.8851H127.074L125.215 35.7673L127.201 38.7392H126.336L124.706 36.2626H124.68L123.916 37.0304V38.7145H123.178V32.0524Z" fill="#D8D6D6"/>
<path d="M128.244 37.6754H129.365V38.7384H128.244V37.6754Z" fill="#D8D6D6"/>
<path d="M129.722 32.3248H129.289V32.0771H130.435V32.3248H130.002V33.5385H129.747V32.3248H129.722ZM130.639 32.0771H130.995L131.454 33.167L131.912 32.0771H132.269V33.5138H132.014V32.4487L131.556 33.5385H131.352L130.893 32.4487V33.5385H130.639V32.0771Z" fill="#D8D6D6"/>
</svg>
