<svg width="39" height="27" viewBox="0 0 39 27" fill="none" xmlns="http://www.w3.org/2000/svg">
<path d="M3.00012 13.513C3.00012 13.3467 3.06616 13.1873 3.18371 13.0698C3.30126 12.9522 3.46069 12.8862 3.62694 12.8862L33.0332 13.0524L26.5874 6.59621C26.5298 6.53859 26.4841 6.47018 26.4529 6.3949C26.4217 6.31962 26.4057 6.23893 26.4057 6.15744C26.4057 6.07595 26.4217 5.99526 26.4529 5.91998C26.4841 5.84469 26.5298 5.77629 26.5874 5.71867C26.645 5.66105 26.7135 5.61534 26.7887 5.58416C26.864 5.55297 26.9447 5.53692 27.0262 5.53692C27.1077 5.53692 27.1884 5.55297 27.2637 5.58416C27.3389 5.61534 27.4073 5.66105 27.465 5.71867L34.9868 13.2405C35.0462 13.297 35.0935 13.3651 35.1258 13.4405C35.1581 13.516 35.1748 13.5972 35.1748 13.6792C35.1748 13.7613 35.1581 13.8425 35.1258 13.9179C35.0935 13.9933 35.0462 14.0614 34.9868 14.118L27.465 21.6398C27.3486 21.7562 27.1908 21.8215 27.0262 21.8215C26.8616 21.8215 26.7038 21.7562 26.5874 21.6398C26.4711 21.5234 26.4057 21.3656 26.4057 21.201C26.4057 21.0364 26.4711 20.8786 26.5874 20.7622L33.0332 14.306L3.62694 14.1398C3.46069 14.1398 3.30126 14.0738 3.18371 13.9562C3.06616 13.8387 3.00012 13.6792 3.00012 13.513Z" fill="#848484"/>
</svg>
