<svg width="19" height="19" viewBox="0 0 19 19" fill="none" xmlns="http://www.w3.org/2000/svg">
<path d="M9.08409 18.6774C8.9276 18.6774 8.78089 18.6528 8.64396 18.6035C8.50703 18.5549 8.37989 18.472 8.26252 18.3546L0.516286 10.6084C0.281551 10.3737 0.164185 10.0947 0.164185 9.77158C0.164185 9.44921 0.281551 9.17066 0.516286 8.93592C0.75102 8.70119 1.02488 8.58382 1.33786 8.58382C1.65084 8.58382 1.92469 8.70119 2.15943 8.93592L7.91042 14.6869V1.54179C7.91042 1.20925 8.02309 0.935394 8.24844 0.720221C8.473 0.505048 8.75155 0.397461 9.08409 0.397461C9.41663 0.397461 9.69557 0.509742 9.92092 0.734305C10.1455 0.95965 10.2578 1.23859 10.2578 1.57113V14.6869L16.0088 8.93592C16.2435 8.70119 16.5173 8.58382 16.8303 8.58382C17.1433 8.58382 17.4172 8.70119 17.6519 8.93592C17.8866 9.17066 18.004 9.44921 18.004 9.77158C18.004 10.0947 17.8866 10.3737 17.6519 10.6084L9.90566 18.3546C9.78829 18.472 9.66115 18.5549 9.52422 18.6035C9.38729 18.6528 9.24058 18.6774 9.08409 18.6774Z" fill="#D8D6D6"/>
</svg>
