<svg width="26" height="16" viewBox="0 0 26 16" fill="none" xmlns="http://www.w3.org/2000/svg">
<path d="M14.5528 7.9C14.5528 11.9071 11.2956 15.1562 7.2756 15.1562C6.32142 15.1575 5.37634 14.9708 4.49431 14.6069C3.61228 14.2429 2.81058 13.7088 2.13498 13.035C1.45938 12.3611 0.923107 11.5609 0.556786 10.6798C0.190466 9.79875 0.00126969 8.85417 0 7.9C0 3.89132 3.25725 0.643747 7.2756 0.643747C8.22991 0.642263 9.17517 0.828787 10.0574 1.19266C10.9396 1.55654 11.7415 2.09065 12.4173 2.76447C13.093 3.4383 13.6294 4.23865 13.9959 5.11981C14.3623 6.00097 14.5515 6.94569 14.5528 7.9ZM22.5347 7.9C22.5347 11.6732 20.9061 14.7305 18.8969 14.7305C16.8877 14.7305 15.2591 11.6716 15.2591 7.9C15.2591 4.12675 16.8877 1.06945 18.8969 1.06945C20.9061 1.06945 22.5347 4.12836 22.5347 7.9ZM25.8 7.9C25.8 11.2798 25.2276 14.0194 24.5197 14.0194C23.8134 14.0194 23.241 11.2782 23.241 7.9C23.241 4.5202 23.8134 1.78056 24.5213 1.78056C25.2276 1.78056 25.8 4.5202 25.8 7.9Z" fill="#F3F3F3"/>
</svg>
