<svg width="761" height="606" viewBox="0 0 761 606" fill="none" xmlns="http://www.w3.org/2000/svg">
<circle cx="380.371" cy="303.295" r="127.759" stroke="#848484" stroke-width="0.619895"/>
<circle cx="380.371" cy="303.295" r="178.895" stroke="#848484" stroke-width="0.619895"/>
<circle cx="380.371" cy="303.296" r="212.602" stroke="#848484" stroke-width="0.525004"/>
<g filter="url(#filter0_d_308_668)">
<path d="M380.715 150.093L501.212 275.41L462.653 391.775L322.188 456.499L231.988 287.115L380.715 150.093Z" fill="url(#paint0_radial_308_668)" shape-rendering="crispEdges"/>
</g>
<path d="M306.74 58.6426H307.955V52.0035H310.862C313.878 52.0035 316.134 50.7668 316.134 47.5775V47.4907C316.134 44.3447 313.856 43.1297 310.841 43.1297H306.74V58.6426ZM307.955 51.0272V44.1277H310.906C313.336 44.1277 314.919 44.9739 314.919 47.4907V47.5775C314.919 49.964 313.444 51.0272 310.949 51.0272H307.955ZM318.203 58.6426H319.353V52.3506C319.353 49.3349 321.002 48.3151 323.194 48.2283V47.1435C321.111 47.2086 319.983 48.2934 319.353 49.682V47.2954H318.203V58.6426ZM329.315 57.8398C326.841 57.8398 325.019 55.9739 325.019 53.0666V52.8931C325.019 49.9424 326.885 48.0982 329.315 48.0982C331.723 48.0982 333.589 49.899 333.589 52.8931V53.0666C333.589 55.9956 331.745 57.8398 329.315 57.8398ZM329.293 58.8161C332.352 58.8161 334.782 56.4729 334.782 53.0449V52.8714C334.782 49.4216 332.374 47.1218 329.315 47.1218C326.277 47.1218 323.825 49.4867 323.825 52.8931V53.0666C323.825 56.4079 326.212 58.8161 329.293 58.8161ZM342.307 58.8161C345.236 58.8161 347.405 56.5814 347.405 53.0232V52.8497C347.405 49.3132 345.171 47.1218 342.307 47.1218C340.311 47.1218 338.64 48.467 337.989 49.9424V41.8713H336.839V58.6426H337.989V56.0607C338.597 57.4493 340.072 58.8161 342.307 58.8161ZM342.22 57.8398C339.855 57.8398 337.968 56.1692 337.968 53.0666V52.8931C337.968 49.7688 339.985 48.0982 342.198 48.0982C344.368 48.0982 346.212 49.7688 346.212 52.8931V53.0666C346.212 56.1041 344.607 57.8398 342.22 57.8398ZM349.517 58.6426H350.688V41.8713H349.517V58.6426ZM358.167 58.8161C360.597 58.8161 362.397 57.6445 362.875 55.4749H361.725C361.334 57.0587 360.054 57.8398 358.167 57.8398C355.476 57.8398 354.023 56.1041 353.979 53.0666H362.961V52.6544C362.961 48.9009 360.727 47.1218 357.993 47.1218C354.955 47.1218 352.786 49.4867 352.786 52.9147V53.0883C352.786 56.4946 354.89 58.8161 358.167 58.8161ZM354.023 52.1337C354.239 49.6603 355.802 48.0982 357.993 48.0982C360.206 48.0982 361.66 49.3782 361.768 52.1337H354.023ZM364.995 58.6426H366.144V51.7215C366.144 49.3566 367.924 48.1199 369.659 48.1199C371.482 48.1199 372.502 49.0745 372.502 51.4828V58.6426H373.651V51.7215C373.651 49.3566 375.431 48.1199 377.166 48.1199C378.989 48.1199 380.008 49.0745 380.008 51.4828V58.6426H381.158V51.5479C381.158 48.3151 379.553 47.1218 377.361 47.1218C375.647 47.1218 374.042 48.0548 373.326 49.6603C372.849 47.8378 371.547 47.1218 369.855 47.1218C368.01 47.1218 366.665 48.2066 366.144 49.4433V47.2954H364.995V58.6426ZM393.577 58.8161C396.701 58.8161 398.762 56.8635 398.762 54.4118C398.762 51.5045 397.091 50.5282 393.62 50.0074C390.387 49.5301 389.541 48.6189 389.541 46.9266C389.541 45.0607 390.908 43.9542 393.295 43.9542C395.594 43.9542 396.809 44.9305 397.178 46.8615H398.285C397.938 44.3881 396.18 42.9561 393.295 42.9561C390.387 42.9561 388.413 44.6051 388.413 47.0133C388.413 49.465 390.04 50.5932 393.425 51.0923C396.549 51.5696 397.59 52.3289 397.59 54.4986C397.59 56.4079 396.007 57.8181 393.577 57.8181C390.344 57.8181 389.259 56.1475 388.999 54.1948H387.805C388.131 56.7333 389.736 58.8161 393.577 58.8161ZM405.717 57.8398C403.244 57.8398 401.421 55.9739 401.421 53.0666V52.8931C401.421 49.9424 403.287 48.0982 405.717 48.0982C408.125 48.0982 409.991 49.899 409.991 52.8931V53.0666C409.991 55.9956 408.147 57.8398 405.717 57.8398ZM405.695 58.8161C408.755 58.8161 411.185 56.4729 411.185 53.0449V52.8714C411.185 49.4216 408.776 47.1218 405.717 47.1218C402.68 47.1218 400.228 49.4867 400.228 52.8931V53.0666C400.228 56.4079 402.614 58.8161 405.695 58.8161ZM413.285 58.6426H414.457V41.8713H413.285V58.6426ZM420.525 58.6426H422.022L426.296 47.2954H425.124L421.284 57.4927L417.422 47.2954H416.164L420.525 58.6426ZM428.023 58.6426H429.172V47.2954H428.023V58.6426ZM428.587 44.8654C429.042 44.8654 429.389 44.4966 429.389 44.041C429.389 43.607 429.042 43.2382 428.587 43.2382C428.131 43.2382 427.762 43.607 427.762 44.041C427.762 44.4966 428.131 44.8654 428.587 44.8654ZM432.117 58.6426H433.267V51.7648C433.267 49.3782 435.133 48.1199 437.02 48.1199C439.038 48.1199 440.166 49.183 440.166 51.5913V58.6426H441.316V51.6564C441.316 48.4236 439.689 47.1218 437.28 47.1218C435.263 47.1218 433.787 48.2717 433.267 49.5084V47.2954H432.117V58.6426ZM448.584 62.7215C451.622 62.7215 453.813 61.2244 453.835 57.8832V47.2954H452.685V49.7471C452.034 48.3585 450.776 47.1218 448.541 47.1218C445.547 47.1218 443.269 49.465 443.269 52.6978V52.8497C443.269 56.1475 445.504 58.2737 448.389 58.2737C450.494 58.2737 452.078 56.8852 452.685 55.5183V57.8398C452.685 60.6386 450.993 61.7452 448.563 61.7452C446.198 61.7452 444.983 60.7471 444.679 59.2935H443.507C443.79 61.116 445.308 62.7215 448.584 62.7215ZM448.498 57.2974C446.241 57.2974 444.462 55.6485 444.462 52.828V52.6544C444.462 49.8339 446.22 48.0982 448.65 48.0982C451.014 48.0982 452.707 49.7471 452.707 52.611V52.7846C452.707 55.6268 450.797 57.2974 448.498 57.2974Z" fill="white"/>
<path d="M611.246 280.764H612.461V274.125H615.368C618.384 274.125 620.641 272.888 620.641 269.699V269.612C620.641 266.466 618.362 265.251 615.347 265.251H611.246V280.764ZM612.461 273.149V266.249H615.412C617.842 266.249 619.426 267.095 619.426 269.612V269.699C619.426 272.086 617.95 273.149 615.455 273.149H612.461ZM622.71 280.764H623.859V274.472C623.859 271.456 625.508 270.437 627.7 270.35V269.265C625.617 269.33 624.489 270.415 623.859 271.804V269.417H622.71V280.764ZM633.821 279.961C631.347 279.961 629.525 278.096 629.525 275.188V275.015C629.525 272.064 631.391 270.22 633.821 270.22C636.229 270.22 638.095 272.021 638.095 275.015V275.188C638.095 278.117 636.251 279.961 633.821 279.961ZM633.799 280.938C636.858 280.938 639.288 278.595 639.288 275.167V274.993C639.288 271.543 636.88 269.243 633.821 269.243C630.783 269.243 628.332 271.608 628.332 275.015V275.188C628.332 278.529 630.718 280.938 633.799 280.938ZM646.813 280.938C649.742 280.938 651.912 278.703 651.912 275.145V274.971C651.912 271.435 649.677 269.243 646.813 269.243C644.817 269.243 643.146 270.589 642.495 272.064V263.993H641.345V280.764H642.495V278.182C643.103 279.571 644.578 280.938 646.813 280.938ZM646.726 279.961C644.361 279.961 642.474 278.291 642.474 275.188V275.015C642.474 271.89 644.491 270.22 646.704 270.22C648.874 270.22 650.718 271.89 650.718 275.015V275.188C650.718 278.226 649.113 279.961 646.726 279.961ZM654.023 280.764H655.194V263.993H654.023V280.764ZM662.673 280.938C665.103 280.938 666.903 279.766 667.381 277.596H666.231C665.84 279.18 664.56 279.961 662.673 279.961C659.982 279.961 658.529 278.226 658.485 275.188H667.468V274.776C667.468 271.023 665.233 269.243 662.499 269.243C659.462 269.243 657.292 271.608 657.292 275.036V275.21C657.292 278.616 659.396 280.938 662.673 280.938ZM658.529 274.255C658.746 271.782 660.308 270.22 662.499 270.22C664.712 270.22 666.166 271.5 666.274 274.255H658.529ZM669.501 280.764H670.651V273.843C670.651 271.478 672.43 270.241 674.165 270.241C675.988 270.241 677.008 271.196 677.008 273.604V280.764H678.158V273.843C678.158 271.478 679.937 270.241 681.672 270.241C683.495 270.241 684.515 271.196 684.515 273.604V280.764H685.664V273.669C685.664 270.437 684.059 269.243 681.868 269.243C680.154 269.243 678.548 270.176 677.832 271.782C677.355 269.959 676.053 269.243 674.361 269.243C672.516 269.243 671.171 270.328 670.651 271.565V269.417H669.501V280.764ZM698.083 280.938C701.207 280.938 703.268 278.985 703.268 276.533C703.268 273.626 701.598 272.65 698.126 272.129C694.893 271.652 694.047 270.74 694.047 269.048C694.047 267.182 695.414 266.076 697.801 266.076C700.1 266.076 701.315 267.052 701.684 268.983H702.791C702.444 266.51 700.686 265.078 697.801 265.078C694.893 265.078 692.919 266.727 692.919 269.135C692.919 271.587 694.546 272.715 697.931 273.214C701.055 273.691 702.097 274.451 702.097 276.62C702.097 278.529 700.513 279.94 698.083 279.94C694.85 279.94 693.765 278.269 693.505 276.316H692.311C692.637 278.855 694.242 280.938 698.083 280.938ZM710.223 279.961C707.75 279.961 705.927 278.096 705.927 275.188V275.015C705.927 272.064 707.793 270.22 710.223 270.22C712.631 270.22 714.497 272.021 714.497 275.015V275.188C714.497 278.117 712.653 279.961 710.223 279.961ZM710.201 280.938C713.261 280.938 715.691 278.595 715.691 275.167V274.993C715.691 271.543 713.282 269.243 710.223 269.243C707.186 269.243 704.734 271.608 704.734 275.015V275.188C704.734 278.529 707.121 280.938 710.201 280.938ZM717.791 280.764H718.963V263.993H717.791V280.764ZM725.031 280.764H726.528L730.802 269.417H729.631L725.79 279.614L721.928 269.417H720.67L725.031 280.764ZM732.529 280.764H733.679V269.417H732.529V280.764ZM733.093 266.987C733.548 266.987 733.896 266.618 733.896 266.163C733.896 265.729 733.548 265.36 733.093 265.36C732.637 265.36 732.268 265.729 732.268 266.163C732.268 266.618 732.637 266.987 733.093 266.987ZM736.623 280.764H737.773V273.886C737.773 271.5 739.639 270.241 741.526 270.241C743.544 270.241 744.672 271.305 744.672 273.713V280.764H745.822V273.778C745.822 270.545 744.195 269.243 741.787 269.243C739.769 269.243 738.293 270.393 737.773 271.63V269.417H736.623V280.764ZM753.091 284.843C756.128 284.843 758.319 283.346 758.341 280.005V269.417H757.191V271.869C756.54 270.48 755.282 269.243 753.047 269.243C750.053 269.243 747.775 271.587 747.775 274.819V274.971C747.775 278.269 750.01 280.395 752.895 280.395C755 280.395 756.584 279.007 757.191 277.64V279.961C757.191 282.76 755.499 283.867 753.069 283.867C750.704 283.867 749.489 282.869 749.185 281.415H748.014C748.296 283.238 749.814 284.843 753.091 284.843ZM753.004 279.419C750.747 279.419 748.968 277.77 748.968 274.95V274.776C748.968 271.955 750.726 270.22 753.156 270.22C755.521 270.22 757.213 271.869 757.213 274.733V274.906C757.213 277.748 755.304 279.419 753.004 279.419Z" fill="white"/>
<path d="M544.17 483.092H545.385V476.453H548.292C551.308 476.453 553.564 475.216 553.564 472.027V471.94C553.564 468.794 551.286 467.579 548.27 467.579H544.17V483.092ZM545.385 475.476V468.577H548.335C550.765 468.577 552.349 469.423 552.349 471.94V472.027C552.349 474.413 550.874 475.476 548.379 475.476H545.385ZM555.633 483.092H556.783V476.8C556.783 473.784 558.432 472.764 560.623 472.678V471.593C558.54 471.658 557.412 472.743 556.783 474.131V471.745H555.633V483.092ZM566.744 482.289C564.271 482.289 562.448 480.423 562.448 477.516V477.342C562.448 474.392 564.314 472.547 566.744 472.547C569.153 472.547 571.019 474.348 571.019 477.342V477.516C571.019 480.445 569.174 482.289 566.744 482.289ZM566.723 483.265C569.782 483.265 572.212 480.922 572.212 477.494V477.321C572.212 473.871 569.804 471.571 566.744 471.571C563.707 471.571 561.255 473.936 561.255 477.342V477.516C561.255 480.857 563.642 483.265 566.723 483.265ZM579.737 483.265C582.666 483.265 584.835 481.031 584.835 477.472V477.299C584.835 473.762 582.6 471.571 579.737 471.571C577.74 471.571 576.07 472.916 575.419 474.392V466.321H574.269V483.092H575.419V480.51C576.026 481.898 577.502 483.265 579.737 483.265ZM579.65 482.289C577.285 482.289 575.397 480.618 575.397 477.516V477.342C575.397 474.218 577.415 472.547 579.628 472.547C581.798 472.547 583.642 474.218 583.642 477.342V477.516C583.642 480.553 582.036 482.289 579.65 482.289ZM586.946 483.092H588.118V466.321H586.946V483.092ZM595.596 483.265C598.026 483.265 599.827 482.094 600.304 479.924H599.154C598.764 481.508 597.484 482.289 595.596 482.289C592.906 482.289 591.452 480.553 591.409 477.516H600.391V477.104C600.391 473.35 598.156 471.571 595.423 471.571C592.385 471.571 590.216 473.936 590.216 477.364V477.538C590.216 480.944 592.32 483.265 595.596 483.265ZM591.452 476.583C591.669 474.11 593.231 472.547 595.423 472.547C597.636 472.547 599.089 473.827 599.198 476.583H591.452ZM602.424 483.092H603.574V476.171C603.574 473.806 605.353 472.569 607.089 472.569C608.911 472.569 609.931 473.524 609.931 475.932V483.092H611.081V476.171C611.081 473.806 612.86 472.569 614.596 472.569C616.418 472.569 617.438 473.524 617.438 475.932V483.092H618.588V475.997C618.588 472.764 616.983 471.571 614.791 471.571C613.077 471.571 611.472 472.504 610.756 474.11C610.278 472.287 608.977 471.571 607.284 471.571C605.44 471.571 604.095 472.656 603.574 473.893V471.745H602.424V483.092ZM631.006 483.265C634.131 483.265 636.192 481.313 636.192 478.861C636.192 475.954 634.521 474.977 631.05 474.457C627.817 473.979 626.971 473.068 626.971 471.376C626.971 469.51 628.338 468.403 630.724 468.403C633.024 468.403 634.239 469.38 634.608 471.311H635.714C635.367 468.837 633.61 467.405 630.724 467.405C627.817 467.405 625.843 469.054 625.843 471.463C625.843 473.914 627.47 475.042 630.854 475.541C633.979 476.019 635.02 476.778 635.02 478.948C635.02 480.857 633.436 482.267 631.006 482.267C627.774 482.267 626.689 480.597 626.428 478.644H625.235C625.561 481.183 627.166 483.265 631.006 483.265ZM643.147 482.289C640.673 482.289 638.851 480.423 638.851 477.516V477.342C638.851 474.392 640.717 472.547 643.147 472.547C645.555 472.547 647.421 474.348 647.421 477.342V477.516C647.421 480.445 645.577 482.289 643.147 482.289ZM643.125 483.265C646.184 483.265 648.614 480.922 648.614 477.494V477.321C648.614 473.871 646.206 471.571 643.147 471.571C640.109 471.571 637.658 473.936 637.658 477.342V477.516C637.658 480.857 640.044 483.265 643.125 483.265ZM650.715 483.092H651.886V466.321H650.715V483.092ZM657.954 483.092H659.452L663.726 471.745H662.554L658.714 481.942L654.852 471.745H653.594L657.954 483.092ZM665.452 483.092H666.602V471.745H665.452V483.092ZM666.016 469.315C666.472 469.315 666.819 468.946 666.819 468.49C666.819 468.056 666.472 467.687 666.016 467.687C665.561 467.687 665.192 468.056 665.192 468.49C665.192 468.946 665.561 469.315 666.016 469.315ZM669.546 483.092H670.696V476.214C670.696 473.827 672.562 472.569 674.45 472.569C676.468 472.569 677.596 473.632 677.596 476.04V483.092H678.746V476.106C678.746 472.873 677.118 471.571 674.71 471.571C672.692 471.571 671.217 472.721 670.696 473.958V471.745H669.546V483.092ZM686.014 487.171C689.052 487.171 691.243 485.674 691.265 482.332V471.745H690.115V474.196C689.464 472.808 688.205 471.571 685.971 471.571C682.977 471.571 680.699 473.914 680.699 477.147V477.299C680.699 480.597 682.933 482.723 685.819 482.723C687.923 482.723 689.507 481.334 690.115 479.968V482.289C690.115 485.088 688.422 486.194 685.992 486.194C683.628 486.194 682.413 485.196 682.109 483.743H680.937C681.219 485.565 682.738 487.171 686.014 487.171ZM685.927 481.747C683.671 481.747 681.892 480.098 681.892 477.277V477.104C681.892 474.283 683.649 472.547 686.079 472.547C688.444 472.547 690.136 474.196 690.136 477.06V477.234C690.136 480.076 688.227 481.747 685.927 481.747Z" fill="white"/>
<path d="M278.322 547.616H279.537V540.261H285.525V539.263H279.537V533.101H287.153V532.103H278.322V547.616ZM292.398 547.79C294.394 547.79 295.848 546.683 296.368 545.447V547.616H297.518V536.269H296.368V543.168C296.368 545.555 294.503 546.792 292.658 546.792C290.684 546.792 289.556 545.794 289.556 543.385V536.269H288.406V543.451C288.406 546.575 290.055 547.79 292.398 547.79ZM300.428 547.616H301.578V540.738C301.578 538.352 303.444 537.093 305.331 537.093C307.349 537.093 308.477 538.157 308.477 540.565V547.616H309.627V540.63C309.627 537.397 308 536.095 305.592 536.095C303.574 536.095 302.099 537.245 301.578 538.482V536.269H300.428V547.616Z" fill="white"/>
<path d="M8.59088 295.195C11.9321 295.195 14.4706 293.372 15.0347 290.031H13.9065C13.4075 292.699 11.4114 294.175 8.61257 294.175C4.9242 294.175 2.62439 291.528 2.62439 287.34V287.167C2.62439 283.066 5.14116 280.289 8.61257 280.289C11.4765 280.289 13.1688 281.678 13.6461 284.173H14.8611C14.3838 280.983 11.8019 279.313 8.59088 279.313C4.53367 279.313 1.3877 282.611 1.3877 287.189V287.362C1.3877 292.049 4.16483 295.195 8.59088 295.195ZM17.0874 295.021H18.2373V288.729C18.2373 285.713 19.8862 284.694 22.0775 284.607V283.522C19.9947 283.587 18.8665 284.672 18.2373 286.06V283.674H17.0874V295.021ZM24.0227 295.021H25.1726V283.674H24.0227V295.021ZM24.5868 281.244C25.0425 281.244 25.3896 280.875 25.3896 280.419C25.3896 279.985 25.0425 279.617 24.5868 279.617C24.1312 279.617 23.7624 279.985 23.7624 280.419C23.7624 280.875 24.1312 281.244 24.5868 281.244ZM31.3279 295.173C32.0222 295.173 32.4562 295.064 32.825 294.934V293.958C32.4345 294.088 31.9788 294.197 31.393 294.197C30.3516 294.197 29.7007 293.567 29.7007 292.2V284.65H32.6731V283.674H29.7007V281.092H28.5508V283.674H26.8802V284.65H28.5508V292.287C28.5508 294.11 29.5272 295.173 31.3279 295.173ZM34.8404 295.021H35.9903V283.674H34.8404V295.021ZM35.4045 281.244C35.8601 281.244 36.2072 280.875 36.2072 280.419C36.2072 279.985 35.8601 279.617 35.4045 279.617C34.9489 279.617 34.58 279.985 34.58 280.419C34.58 280.875 34.9489 281.244 35.4045 281.244ZM43.5125 295.195C46.0943 295.195 48.047 293.524 48.3507 291.094H47.2876C47.0056 293.133 45.4 294.218 43.5125 294.218C41.1259 294.218 39.2817 292.461 39.2817 289.467V289.293C39.2817 286.299 41.1476 284.477 43.5125 284.477C45.2916 284.477 46.832 285.366 47.1141 287.275H48.2423C47.9385 284.715 45.8123 283.5 43.5125 283.5C40.5184 283.5 38.0884 285.822 38.0884 289.293V289.467C38.0884 292.916 40.4533 295.195 43.5125 295.195ZM53.3553 295.195C55.2646 295.195 56.4796 294.392 57.1956 293.285V295.021H58.3455V287.514C58.3455 284.628 56.7399 283.5 54.375 283.5C52.2271 283.5 50.2744 284.498 50.0141 286.885H51.1423C51.4026 285.214 52.6176 284.477 54.3316 284.477C56.3277 284.477 57.1956 285.388 57.1956 287.514V288.534H54.8307C52.0318 288.534 49.5151 289.337 49.5151 291.962C49.5151 294.11 51.1206 295.195 53.3553 295.195ZM53.4421 294.262C51.5762 294.262 50.665 293.415 50.665 291.962C50.665 289.922 52.5092 289.423 54.8741 289.423H57.1956V291.354C57.1956 293.047 55.5249 294.262 53.4421 294.262ZM61.2158 295.021H62.3874V278.25H61.2158V295.021ZM73.7292 295.021H74.9225V280.506H79.7391V279.508H68.9126V280.506H73.7292V295.021ZM81.5093 295.021H82.6592V288.143C82.6592 285.757 84.5251 284.498 86.4127 284.498C88.4305 284.498 89.5587 285.561 89.5587 287.97V295.021H90.7086V288.035C90.7086 284.802 89.0814 283.5 86.6731 283.5C84.6553 283.5 83.18 284.65 82.6592 285.887V278.25H81.5093V295.021ZM93.551 295.021H94.7009V283.674H93.551V295.021ZM94.1151 281.244C94.5707 281.244 94.9178 280.875 94.9178 280.419C94.9178 279.985 94.5707 279.617 94.1151 279.617C93.6595 279.617 93.2906 279.985 93.2906 280.419C93.2906 280.875 93.6595 281.244 94.1151 281.244ZM97.6451 295.021H98.795V288.143C98.795 285.757 100.661 284.498 102.549 284.498C104.566 284.498 105.694 285.561 105.694 287.97V295.021H106.844V288.035C106.844 284.802 105.217 283.5 102.809 283.5C100.791 283.5 99.3158 284.65 98.795 285.887V283.674H97.6451V295.021ZM109.643 295.021H110.793V289.011L116.63 295.021H118.062L112.16 288.968L117.693 283.674H116.326L110.793 289.011V278.25H109.643V295.021ZM119.609 295.021H120.758V283.674H119.609V295.021ZM120.173 281.244C120.628 281.244 120.975 280.875 120.975 280.419C120.975 279.985 120.628 279.617 120.173 279.617C119.717 279.617 119.348 279.985 119.348 280.419C119.348 280.875 119.717 281.244 120.173 281.244ZM123.703 295.021H124.853V288.143C124.853 285.757 126.719 284.498 128.606 284.498C130.624 284.498 131.752 285.561 131.752 287.97V295.021H132.902V288.035C132.902 284.802 131.275 283.5 128.866 283.5C126.849 283.5 125.373 284.65 124.853 285.887V283.674H123.703V295.021ZM140.17 299.1C143.208 299.1 145.399 297.603 145.421 294.262V283.674H144.271V286.126C143.62 284.737 142.362 283.5 140.127 283.5C137.133 283.5 134.855 285.843 134.855 289.076V289.228C134.855 292.526 137.09 294.652 139.975 294.652C142.08 294.652 143.664 293.264 144.271 291.897V294.218C144.271 297.017 142.579 298.124 140.149 298.124C137.784 298.124 136.569 297.126 136.265 295.672H135.093C135.376 297.494 136.894 299.1 140.17 299.1ZM140.084 293.676C137.827 293.676 136.048 292.027 136.048 289.206V289.033C136.048 286.212 137.806 284.477 140.236 284.477C142.6 284.477 144.293 286.126 144.293 288.989V289.163C144.293 292.005 142.383 293.676 140.084 293.676Z" fill="white"/>
<line x1="380.597" y1="150.093" x2="380.597" y2="90.432" stroke="#848484" stroke-width="0.619895"/>
<line x1="231.988" y1="287.301" x2="168.723" y2="287.301" stroke="#848484" stroke-width="0.619895"/>
<line x1="501.212" y1="275.549" x2="590.871" y2="275.549" stroke="#848484" stroke-width="0.619895"/>
<line x1="322.129" y1="456.605" x2="305.561" y2="502.007" stroke="#848484" stroke-width="0.619895"/>
<line x1="462.701" y1="391.4" x2="531.812" y2="452.727" stroke="#848484" stroke-width="0.619895"/>
<defs>
<filter id="filter0_d_308_668" x="82.5935" y="0.698578" width="568.013" height="605.195" filterUnits="userSpaceOnUse" color-interpolation-filters="sRGB">
<feFlood flood-opacity="0" result="BackgroundImageFix"/>
<feColorMatrix in="SourceAlpha" type="matrix" values="0 0 0 0 0 0 0 0 0 0 0 0 0 0 0 0 0 0 127 0" result="hardAlpha"/>
<feOffset/>
<feGaussianBlur stdDeviation="74.6973"/>
<feComposite in2="hardAlpha" operator="out"/>
<feColorMatrix type="matrix" values="0 0 0 0 1 0 0 0 0 0.803922 0 0 0 0 0.0196078 0 0 0 0.3 0"/>
<feBlend mode="normal" in2="BackgroundImageFix" result="effect1_dropShadow_308_668"/>
<feBlend mode="normal" in="SourceGraphic" in2="effect1_dropShadow_308_668" result="shape"/>
</filter>
<radialGradient id="paint0_radial_308_668" cx="0" cy="0" r="1" gradientUnits="userSpaceOnUse" gradientTransform="translate(366.6 307.772) rotate(90) scale(152.806 152.806)">
<stop stop-color="#FFCD05" stop-opacity="0.09"/>
<stop offset="1" stop-color="#FFCD05" stop-opacity="0.93"/>
</radialGradient>
</defs>
</svg>
