<svg width="72" height="74" viewBox="0 0 72 74" fill="none" xmlns="http://www.w3.org/2000/svg">
<path d="M70.6498 36.6857L70.6269 36.9799L70.5586 37.2724L70.4447 37.5616L70.2857 37.8458L70.0818 38.1234L69.8334 38.3928L69.5411 38.6523L69.2056 38.9005L68.8274 39.1358L68.4073 39.3566L67.9464 39.5616L67.4454 39.7492L66.9055 39.9182L66.3278 40.0671L65.7134 40.1948L65.0637 40.3001L64.3799 40.3817L63.6636 40.4386L62.916 40.4698L62.1389 40.4743L61.3338 40.4513L60.5023 40.4L59.6461 40.3197L58.767 40.2097L57.8667 40.0695L56.947 39.8986L56.0098 39.6967L55.057 39.4633L54.0905 39.1984L53.1122 38.9018L52.1239 38.5735L51.1277 38.2136L50.1255 37.8221L49.1192 37.3994L48.1108 36.9457L47.1022 36.4615L46.0953 35.9473L45.092 35.4037L44.0942 34.8314L43.1038 34.2311L42.1225 33.6036L41.1522 32.95L40.1945 32.2712L39.2513 31.5682L38.324 30.8424L37.4144 30.0948L36.5239 29.3268L35.6541 28.5397L34.8064 27.7351L33.982 26.9143L33.1824 26.0789L32.4087 25.2305L31.6621 24.3708L30.9436 23.5014L30.2542 22.6241L29.5948 21.7406L28.9662 20.8527L28.3692 19.9623L27.8044 19.0712L27.2723 18.1812L26.7735 17.2943L26.3082 16.4123L25.8769 15.5371L25.4797 14.6706L25.1166 13.8148L24.7878 12.9714L24.4932 12.1424L24.2325 11.3296L24.0055 10.5349L23.8119 9.75999L23.6513 9.00669L23.5231 8.27675L23.4268 7.57185L23.3616 6.89363L23.3269 6.24372L23.3217 5.62364L23.3452 5.0349L23.3963 4.47893L23.4741 3.9571L23.5773 3.47071L23.7049 3.021L23.8555 2.60913L24.0279 2.23618L24.2207 1.90316L24.4325 1.61098L24.6618 1.36051L24.9072 1.15247L25.1672 0.987555L25.4401 0.866329L25.7244 0.789282L26.0185 0.756803L26.3206 0.769202L26.6293 0.826676L26.9428 0.929346L27.2594 1.07722L27.5775 1.27023L27.8954 1.50819L28.2114 1.79084L28.524 2.11781L28.8313 2.48865L29.1319 2.9028L29.4242 3.35964L29.7066 3.85842L29.9774 4.39832L30.2354 4.97844L30.479 5.5978L30.7068 6.25532L30.9175 6.94984L31.1097 7.68014L31.2822 8.44492L31.4338 9.2428L31.5634 10.0723L31.67 10.932L31.7525 11.8203L31.8101 12.7356L31.8419 13.6761L31.8471 14.6402L31.825 15.6262L31.7751 16.632L31.6968 17.656L31.5896 18.6963L31.4534 19.7509L31.2876 20.8179L31.0923 21.8954L30.8673 22.9813L30.6125 24.0737L30.3282 25.1707L30.0144 26.2702L29.6714 27.3703L29.2997 28.469L28.8995 29.5643L28.4716 30.6543L28.0164 31.7371L27.5347 32.8108L27.0273 33.8735L26.4949 34.9234L25.9387 35.9588L25.3595 36.9778L24.7585 37.9789L24.1369 38.9603L23.4959 39.9206L22.8367 40.858L22.1608 41.7713L21.4695 42.659L20.7644 43.5197L20.047 44.3523L19.3188 45.1556L18.5815 45.9284L17.8367 46.6697L17.0863 47.3786L16.3318 48.0542L15.575 48.6958L14.8178 49.3026L14.062 49.8742L13.3093 50.4099L12.5616 50.9094L11.8208 51.3724L11.0886 51.7985L10.367 52.1878L9.65775 52.5401L8.96266 52.8554L8.28354 53.134L7.62217 53.376L6.98031 53.5818L6.35967 53.7517L5.76195 53.8863L5.1888 53.9861L4.64182 54.0519L4.12257 54.0842L3.63256 54.0841L3.17324 54.0523L2.74601 53.9898L2.35219 53.8977L1.99307 53.7771L1.66981 53.6292L1.38357 53.4552L1.13537 53.2564L0.926205 53.0341L0.756952 52.7899L0.628426 52.525L0.541347 52.2411L0.496354 51.9397L0.493992 51.6223L0.534715 51.2905L0.618897 50.946L0.746805 50.5904L0.918621 50.2255L1.13443 49.8528L1.39422 49.474L1.69789 49.0909L2.04524 48.7052L2.43597 48.3186L2.8697 47.9326L3.34596 47.5491L3.86415 47.1697L4.42362 46.7959L5.02363 46.4294L5.66331 46.0717L6.34175 45.7245L7.05794 45.3891L7.81077 45.067L8.59908 44.7597L9.42162 44.4685L10.277 44.1947L11.164 43.9395L12.081 43.7041L13.0265 43.4896L13.9989 43.2971L14.9966 43.1275L16.0178 42.9818L17.0609 42.8608L18.124 42.7652L19.2054 42.6956L20.303 42.6528L21.4151 42.6371L22.5397 42.649L23.6748 42.6889L24.8184 42.7569L25.9686 42.8533L27.1234 42.9781L28.2807 43.1313L29.4385 43.3127L30.5949 43.5223L31.7479 43.7596L32.8954 44.0244L34.0355 44.3162L35.1662 44.6344L36.2858 44.9784L37.3921 45.3475L38.4835 45.741L39.5581 46.1578L40.6141 46.5972L41.6499 47.058L42.6637 47.5392L43.654 48.0396L44.6192 48.5579L45.5578 49.093L46.4684 49.6434L47.3497 50.2077L48.2004 50.7845L49.0192 51.3723L49.8051 51.9694L50.557 52.5743L51.2739 53.1853L51.955 53.8008L52.5995 54.4191L53.2066 55.0385L53.7759 55.6571L54.3067 56.2732L54.7986 56.8851L55.2512 57.491L55.6644 58.0891L56.038 58.6776L56.3719 59.2546L56.6662 59.8186L56.921 60.3676L57.1364 60.9001L57.3129 61.4141L57.4508 61.9082L57.5505 62.3806L57.6128 62.8298L57.6381 63.2541L57.6274 63.652L57.5813 64.0222L57.5008 64.3631L57.3869 64.6734L57.2407 64.9519L57.0632 65.1972L56.8556 65.4082L56.6192 65.5838L56.3553 65.7231L56.0653 65.825L55.7506 65.8886L55.4126 65.9133L55.0529 65.8983L54.6731 65.843L54.2748 65.7469L53.8595 65.6095L53.4289 65.4304L52.9847 65.2095L52.5287 64.9466L52.0625 64.6416L51.5879 64.2945L51.1065 63.9055L50.6202 63.4748L50.1307 63.0026L49.6397 62.4893L49.1489 61.9356L48.66 61.3419L48.1746 60.7089L47.6945 60.0375L47.2213 59.3283L46.7565 58.5825L46.3018 57.801L45.8585 56.9849L45.4282 56.1353L45.0123 55.2537L44.6122 54.3412L44.2291 53.3993L43.8642 52.4295L43.5189 51.4333L43.1941 50.4123L42.891 49.3681L42.6105 48.3026L42.3535 47.2173L42.1208 46.1141L41.9131 44.995L41.7312 43.8616L41.5756 42.7161L41.4468 41.5602L41.3452 40.396L41.2711 39.2254L41.2247 38.0505L41.2063 36.8733L41.2158 35.6958L41.2533 34.5199L41.3186 33.3478L41.4115 32.1813L41.5317 31.0226L41.6788 29.8735L41.8524 28.7361L42.0519 27.6122L42.2767 26.5037L42.526 25.4126L42.7992 24.3405L43.0952 23.2893L43.4132 22.2608L43.7521 21.2565L44.1108 20.2781L44.4882 19.3272L44.8831 18.4052L45.2941 17.5136L45.72 16.6537L46.1593 15.8268L46.6105 15.0341L47.0723 14.2768L47.543 13.5559L48.0211 12.8723L48.5049 12.227L48.9928 11.6207L49.4832 11.0541L49.9744 10.528L50.4646 10.0427L50.9521 9.59866L51.4352 9.19631L51.9122 8.83585L52.3812 8.51743L52.8407 8.24111L53.2888 8.00685L53.7239 7.81451L54.1442 7.66388L54.5482 7.55464L54.9341 7.48637L55.3003 7.45859L55.6454 7.47071L55.9676 7.52204L56.2657 7.61185L56.5381 7.73929L56.7833 7.90345L57.0002 8.10331L57.1875 8.33782L57.3438 8.60583L57.4681 8.90614L57.5594 9.23745L57.6165 9.59844L57.6386 9.98771L57.6248 10.4038L57.5744 10.8452L57.4867 11.3104L57.361 11.7977L57.1968 12.3056L56.9938 12.8324L56.7516 13.3763L56.47 13.9357L56.1487 14.5088L55.7877 15.0938L55.3871 15.689L54.947 16.2926L54.4676 16.9028L53.9491 17.5178L53.3921 18.1358L52.797 18.7551L52.1643 19.3739L51.4948 19.9905L50.7892 20.6032L50.0483 21.2102L49.2731 21.81L48.4647 22.4008L47.6241 22.9813L46.7524 23.5497L45.851 24.1047L44.9211 24.6448L43.9642 25.1687L42.9818 25.6749L41.9753 26.1624L40.9463 26.6298L39.8966 27.0761L38.8277 27.5002L37.7415 27.9012L36.6397 28.2782L35.5242 28.6303L34.3968 28.9568L33.2594 29.257L32.1141 29.5305L30.9626 29.7766L29.8071 29.9951L28.6495 30.1855L27.4918 30.3477L26.336 30.4815L25.1842 30.587L24.0382 30.664L22.9002 30.7128L21.7721 30.7336L20.6558 30.7267L19.5533 30.6924L18.4666 30.6313L17.3975 30.5439L16.3478 30.4309L15.3194 30.293L14.314 30.1309L13.3333 29.9456L12.3791 29.738L11.4529 29.5092L10.5562 29.2602L9.69059 28.9921L8.85743 28.7063L8.05808 28.404L7.29382 28.0865L6.56583 27.7552L5.87526 27.4116L5.22312 27.0571L4.61038 26.6932L4.03791 26.3216L3.50649 25.9438L3.01681 25.5613L2.56948 25.176L2.165 24.7894L1.8038 24.4032L1.48619 24.0191L1.21241 23.6388L0.982585 23.264L0.796763 22.8963L0.654883 22.5376L0.5568 22.1894L0.502267 21.8534L0.490949 21.5312L0.522422 21.2245L0.596159 20.9349L0.711559 20.6638L0.867921 20.4128L1.06447 20.1834L1.30033 19.977L1.57457 19.795L1.88615 19.6386L2.23398 19.5092L2.61688 19.4079L3.03361 19.3358L3.48285 19.2941L3.96324 19.2838L4.47334 19.3057L5.01165 19.3607L5.57664 19.4496L6.16671 19.5731L6.78023 19.7317L7.41551 19.926L8.07086 20.1565L8.74452 20.4234L9.43472 20.727L10.1397 21.0675L10.8575 21.445L11.5865 21.8594L12.3248 22.3106L13.0705 22.7985L13.8218 23.3227L14.5768 23.8829L15.3338 24.4786L16.0909 25.1092L16.8463 25.7741L17.5982 26.4724L18.345 27.2035L19.0848 27.9664L19.8161 28.76L20.5371 29.5834L21.2463 30.4353L21.9422 31.3146L22.6231 32.2198L23.2878 33.1498L23.9348 34.1029L24.5627 35.0777L25.1704 36.0727L25.7566 37.0862L26.3203 38.1166L26.8603 39.1621L27.3758 40.2209L27.8658 41.2913L28.3295 42.3714L28.7662 43.4593L29.1753 44.5532L29.5561 45.651L29.9083 46.7508L30.2314 47.8507L30.5251 48.9487L30.7893 50.0428L31.0238 51.131L31.2286 52.2114L31.4038 53.282L31.5494 54.3407L31.6658 55.3858L31.7532 56.4151L31.8121 57.427L31.843 58.4195L31.8464 59.3907L31.8231 60.339L31.7736 61.2625L31.699 62.1595L31.5999 63.0285L31.4775 63.8678L31.3328 64.6759L31.1668 65.4514L30.9807 66.1928L30.7758 66.8989L30.5533 67.5683L30.3146 68.2L30.0611 68.7927L29.7942 69.3455L29.5153 69.8575L29.226 70.3278L28.9279 70.7556L28.6225 71.1403L28.3114 71.4813L27.9963 71.7781L27.6789 72.0303L27.3606 72.2377L27.0434 72.3999L26.7287 72.517L26.4183 72.5889L26.1139 72.6156L25.8171 72.5974L25.5295 72.5345L25.2528 72.4273L24.9885 72.2762L24.7383 72.0819L24.5037 71.8448L24.2861 71.5659L24.0871 71.2458L23.9081 70.8854L23.7504 70.4858L23.6154 70.048L23.5042 69.5732L23.4182 69.0625L23.3585 68.5173L23.3261 67.9388L23.3221 67.3286L23.3473 66.688L23.4027 66.0186L23.489 65.3221L23.607 64.5999L23.7572 63.8539L23.9402 63.0857L24.1565 62.297L24.4064 61.4898L24.6903 60.6658L25.0082 59.8268L25.3603 58.9747L25.7467 58.1114L26.1672 57.2388L26.6216 56.3588L27.1098 55.4732L27.6313 54.584L28.1858 53.693L28.7726 52.8022L29.3912 51.9133L30.0409 51.0282L30.7208 50.1487L31.4301 49.2766L32.1679 48.4136L32.9331 47.5615L33.7246 46.7218L34.5412 45.8962L35.3816 45.0862L36.2445 44.2934L37.1286 43.5192L38.0323 42.7649L38.9541 42.032L39.8924 41.3217L40.8457 40.635L41.8122 39.9733L42.7901 39.3374L43.7779 38.7283L44.7735 38.147L45.7752 37.5941L46.7812 37.0705L47.7894 36.5767L48.7981 36.1133L49.8053 35.6806L50.809 35.2792L51.8073 34.9092L52.7983 34.5708L53.7801 34.2641L54.7506 33.9891L55.708 33.7457L56.6503 33.5338L57.5757 33.353L58.4824 33.2031L59.3685 33.0835L60.2322 32.9938L61.0717 32.9334L61.8854 32.9014L62.6716 32.8973L63.4288 32.9201L64.1552 32.9689L64.8495 33.0428L65.5102 33.1406L66.136 33.2613L66.7255 33.4036L67.2776 33.5664L67.7911 33.7482L68.2649 33.9478L68.6981 34.1637L69.0897 34.3945L69.4389 34.6388L69.7451 34.8949L70.0075 35.1613L70.2256 35.4365L70.3989 35.7188L70.5272 36.0065L70.6101 36.2981L70.6474 36.592L70.6392 36.8863L70.5853 37.1795L70.4859 37.4699L70.3412 37.7559L70.1516 38.0358L69.9173 38.308L69.639 38.5708L69.3171 38.8228L68.9524 39.0623L68.5456 39.2879L68.0976 39.4981L67.6093 39.6914L67.0817 39.8665L66.5158 40.0219L65.913 40.1565L65.2744 40.2691L64.6013 40.3583L63.8952 40.4232L63.1574 40.4627L62.3896 40.4758L61.5932 40.4617L60.7699 40.4195L59.9214 40.3485L59.0494 40.248L58.1556 40.1175L57.2419 39.9564L56.3102 39.7644L55.3621 39.5411L54.3998 39.2862L53.425 38.9998L52.4396 38.6816L51.4458 38.3317L50.4452 37.9502L49.44 37.5374L48.4321 37.0936L47.4233 36.619L46.4157 36.1144L45.4111 35.58L44.4113 35.0168L43.4184 34.4253L42.434 33.8064L41.46 33.161L40.4981 32.49L39.5501 31.7947L38.6175 31.076L37.7021 30.3352L36.8054 29.5736L35.9288 28.7924L35.0739 27.9932L34.242 27.1774L33.4344 26.3465L32.6523 25.5021L31.8969 24.6458L31.1694 23.7793L30.4706 22.9043L29.8015 22.0226L29.163 21.1359L28.5559 20.2461L27.9808 19.355L27.4382 18.4644L26.9287 17.5763L26.4528 16.6926L26.0106 15.815L25.6025 14.9456L25.2286 14.0861L24.8889 13.2386L24.5833 12.4048L24.3118 11.5867L24.0742 10.786L23.87 10.0046L23.6989 9.24419L23.5605 8.50662L23.4541 7.79356L23.3791 7.10667L23.3347 6.44757L23.3202 5.81782L23.3346 5.21894L23.3771 4.65238L23.4465 4.11953L23.5417 3.62172L23.6617 3.16019L23.8051 2.73615L23.9707 2.35069L24.1571 2.00484L24.363 1.69956L24.587 1.43572L24.8274 1.21409L25.0829 1.03537L25.3519 0.900169L25.6327 0.809001L25.9238 0.762291L26.2236 0.760368L26.5304 0.80347L26.8425 0.891736L27.1583 1.02522L27.4761 1.20386L27.7943 1.42752L28.1111 1.69598L28.4249 2.00887L28.7341 2.36579L29.037 2.76622L29.3321 3.20953L29.6178 3.69503L29.8925 4.22193L30.1547 4.78935L30.4031 5.39632L30.636 6.0418L30.8523 6.72467L31.0505 7.44371L31.2294 8.19765L31.3878 8.98514L31.5246 9.80476L31.6386 10.655L31.7289 11.5344L31.7945 12.4412L31.8346 13.3739L31.8483 14.3307L31.835 15.3099L31.794 16.3096L31.7248 17.328L31.6269 18.3633L31.5 19.4135L31.3436 20.4768L31.1577 21.5511L30.9422 22.6346L30.6969 23.7252L30.4219 24.8209L30.1175 25.9198L29.7838 27.0199L29.4212 28.1193L29.03 29.2159L28.6109 30.3078L28.1643 31.3931L27.691 32.4699L27.1916 33.5363L26.6671 34.5905L26.1184 35.6307L25.5464 36.6551L24.9523 37.6621L24.3371 38.65L23.7021 39.6171L23.0485 40.562L22.3778 41.4831L21.6913 42.3791L20.9904 43.2486L20.2767 44.0903L19.5518 44.903L18.8172 45.6856L18.0747 46.437L17.3258 47.1563L16.5724 47.8426L15.8162 48.4951L15.0589 49.1131L14.3025 49.696L13.5486 50.2432L12.7991 50.7543L12.0559 51.2289L11.3208 51.6668L10.5956 52.0678L9.88222 52.4319L9.18242 52.759L8.49801 53.0492L7.8308 53.3029L7.18254 53.5201L6.55495 53.7014L5.94975 53.8472L5.3686 53.9581L4.81311 54.0346L4.28487 54.0775L3.78538 54.0876L3.31613 54.0658L2.87853 54.013L2.47393 53.9302L2.10362 53.8185L1.76881 53.6792L1.47066 53.5133L1.21024 53.3223L0.988541 53.1074L0.806481 52.87L0.6649 52.6115L0.564545 52.3335L0.506084 52.0375L0.490088 51.725L0.517044 51.3977L0.587349 51.057L0.701302 50.7048L0.859119 50.3426L1.06091 49.9722L1.3067 49.5952L1.59641 49.2133L1.92987 48.8283L2.30682 48.4417L2.72691 48.0554L3.18967 47.6709L3.69458 47.29L4.24098 46.9142L4.82816 46.5452L5.4553 46.1846L6.1215 45.8338L6.82578 45.4945L7.56706 45.1681L8.34421 44.8559L9.15598 44.5594L10.0011 44.2799L10.8781 44.0187L11.7857 43.7768L12.7223 43.5556L13.6863 43.356L14.6761 43.179L15.6901 43.0256L16.7264 42.8966L17.7833 42.7928L18.8591 42.7149L19.9517 42.6635L21.0594 42.6391L22.1802 42.6422L23.3122 42.6731L24.4533 42.7322L25.6016 42.8195L26.7552 42.9352L27.9119 43.0794L29.0698 43.2519L30.2268 43.4525L31.3811 43.681L32.5306 43.9371L33.6732 44.2204L34.8072 44.5302L35.9305 44.8661L37.0412 45.2273L38.1376 45.613L39.2177 46.0225L40.2799 46.4548L41.3223 46.9089L42.3433 47.3838L43.3412 47.8782L44.3146 48.391L45.2618 48.9208L46.1815 49.4665L47.0723 50.0266L47.9328 50.5995L48.7619 51.184L49.5584 51.7783L50.3212 52.3808L51.0494 52.9901L51.742 53.6044L52.3982 54.222L53.0173 54.8412L53.5987 55.4602L54.1418 56.0773L54.6461 56.6908L55.1113 57.2988L55.5371 57.8996L55.9233 58.4913L56.2699 59.0722L56.5768 59.6405L56.8441 60.1945L57.072 60.7324L57.2609 61.2525L57.411 61.7531L57.5228 62.2326L57.597 62.6893L57.634 63.1217L57.6347 63.5282L57.5998 63.9074L57.5302 64.2578L57.4268 64.578L57.2907 64.8667L57.123 65.1227L56.9249 65.3448L56.6975 65.5318L56.4423 65.6827L56.1604 65.7966L55.8534 65.8726L55.5227 65.9097L55.1698 65.9074L54.7962 65.865L54.4036 65.782L53.9935 65.6577L53.5676 65.492L53.1276 65.2845L52.6751 65.0349L52.212 64.7433L51.7399 64.4097L51.2605 64.034L50.7756 63.6165L50.2869 63.1574L49.7962 62.6572L49.3051 62.1163L48.8154 61.5353L48.3287 60.9148L47.8468 60.2555L47.3712 59.5582L46.9036 58.824L46.4455 58.0537L45.9984 57.2485L45.5638 56.4095L45.1432 55.5379L44.7378 54.6351L44.3492 53.7024L43.9784 52.7414L43.6267 51.7534L43.2953 50.7401L42.9852 49.7032L42.6973 48.6442L42.4328 47.565L42.1922 46.4674L41.9765 45.3531L41.7863 44.224L41.6223 43.0822L41.4849 41.9294L41.3746 40.7676L41.2917 39.5989L41.2365 38.4251L41.2091 37.2484L41.2098 36.0708L41.2383 34.8941L41.2948 33.7206L41.3789 32.5521L41.4904 31.3907L41.629 30.2384L41.7942 29.097L41.9856 27.9686L42.2024 26.855L42.444 25.7581L42.7096 24.6798L42.9985 23.6218L43.3096 22.5859L43.6419 21.5737L43.9945 20.5868L44.3661 19.627L44.7555 18.6956L45.1615 17.7942L45.5828 16.924L46.018 16.0865L46.4656 15.2828L46.9242 14.5141L47.3922 13.7815L47.8681 13.0859L48.3503 12.4283L48.8371 11.8095L49.3269 11.2303L49.818 10.6912L50.3087 10.1928L50.7972 9.73558L51.2819 9.31993L51.761 8.94611L52.2328 8.61429L52.6955 8.32456L53.1474 8.07691L53.5868 7.87124L54.012 7.70735L54.4214 7.58497L54.8132 7.5037L55.1859 7.46308L55.5379 7.46255L55.8675 7.50148L56.1735 7.57912L56.4542 7.69467L56.7082 7.84723L56.9343 8.03584L57.1311 8.25943L57.2974 8.5169L57.4321 8.80705L57.534 9.12863L57.6021 9.48032L57.6354 9.86073L57.6331 10.2684L57.5945 10.7019L57.5187 11.1597L57.4052 11.6402L57.2533 12.1417L57.0628 12.6626L56.8331 13.2013L56.564 13.7559L56.2553 14.3248L55.907 14.9063L55.519 15.4984L55.0915 16.0995L54.6245 16.7078L54.1185 17.3215L53.5737 17.9387L52.9906 18.5578L52.3698 19.177L51.712 19.7944L51.0178 20.4085L50.2881 21.0175L49.5237 21.6198L48.7258 22.2137L47.8952 22.7976L47.0333 23.3701L46.1413 23.9295L45.2203 24.4745L44.2719 25.0037L43.2974 25.5157L42.2984 26.0092L41.2764 26.4832L40.2331 26.9363L39.1701 27.3676L38.0893 27.7761L36.9922 28.1608L35.8809 28.5209L34.757 28.8556L33.6227 29.1643L32.4796 29.4463L31.3299 29.7012L30.1755 29.9285L29.0184 30.1279L27.8605 30.2991L26.7039 30.442L25.5505 30.5565L24.4025 30.6425L23.2617 30.7003L22.1302 30.73L21.0099 30.7319L19.9029 30.7063L18.8109 30.6537L17.736 30.5746L16.6799 30.4697L15.6445 30.3396L14.6316 30.1851L13.6429 30.0071L12.6801 29.8065L11.7448 29.5843L10.8385 29.3416L9.96286 29.0795L9.11921 28.7992L8.30895 28.502L7.53337 28.1892L6.79371 27.8621L6.0911 27.5223L5.42662 27.1711L4.80123 26.81L4.21584 26.4407L3.67127 26.0647L3.16822 25.6835L2.70734 25.299L2.28917 24.9126L1.91414 24.5261L1.58261 24.1411L1.29485 23.7594L1.05102 23.3827L0.851178 23.0126L0.695315 22.6508L0.5833 22.2991L0.514929 21.959L0.489888 21.6323L0.507782 21.3205L0.568118 21.0252L0.670317 20.748L0.813714 20.4905L0.997551 20.2541L1.22099 20.0402L1.48311 19.8502L1.78291 19.6855L2.11932 19.5474L2.49118 19.437L2.89728 19.3555L3.33631 19.3041L3.80693 19.2836L4.30772 19.2952L4.83721 19.3396L5.39388 19.4176L5.97613 19.53L6.58236 19.6773L7.2109 19.8602L7.86004 20.0791L8.52806 20.3344L9.21318 20.6263L9.91363 20.955L10.6276 21.3207L11.3532 21.7234L12.0887 22.1629L12.8323 22.6391L13.582 23.1518L14.336 23.7006L15.0926 24.285L15.8498 24.9046L16.606 25.5586L17.3592 26.2464L18.1078 26.9672L18.85 27.72L19.5842 28.504L20.3087 29.318L21.0218 30.1609L21.7221 31.0316L22.4079 31.9287L23.0779 32.851L23.7307 33.7969L24.3648 34.765L24.9791 35.7537L25.5723 36.7615L26.1433 37.7867L26.6909 38.8275L27.2143 39.8823L27.7125 40.9492L28.1847 42.0264L28.6301 43.1121L29.048 44.2042L29.4379 45.301L29.7992 46.4004L30.1317 47.5005L30.4348 48.5993L30.7084 49.6949L30.9524 50.7852L31.1666 51.8682L31.3512 52.9421L31.5062 54.0049L31.6319 55.0545L31.7285 56.0891L31.7964 57.1067L31.8362 58.1055L31.8483 59.0838L31.8334 60.0395L31.7922 60.9711L31.7254 61.8767L31.6341 62.7548L31.519 63.6038L31.3813 64.422L31.2219 65.208L31.0421 65.9604L30.8431 66.6779L30.626 67.3591L30.3924 68.0029L30.1434 68.6082L29.8805 69.1738L29.6053 69.6989L29.3192 70.1825L29.0237 70.624L28.7205 71.0225L28.411 71.3774L28.0971 71.6884L27.7802 71.9548L27.462 72.1765L27.1442 72.3531L26.8286 72.4846L26.5166 72.5709L26.2101 72.612L25.9107 72.6081L25.62 72.5594L25.3397 72.4662L25.0713 72.3291L24.8164 72.1485L24.5767 71.9249L24.3535 71.6592L24.1484 71.3521L23.9629 71.0045L23.7982 70.6173L23.6558 70.1916L23.537 69.7284L23.4428 69.229L23.3746 68.6946L23.3334 68.1266L23.3202 67.5263L23.336 66.8952L23.3817 66.2349L23.4581 65.5468L23.5659 64.8326L23.7058 64.094L23.8783 63.3327L24.084 62.5503L24.3232 61.7488L24.5962 60.93L24.9032 60.0955L25.2444 59.2474L25.6199 58.3875L26.0295 57.5177L26.4732 56.6398L26.9507 55.7558L27.4616 54.8675L28.0056 53.9769L28.5822 53.0858L29.1907 52.1961L29.8306 51.3096L30.501 50.4281L31.2011 49.5535L31.9299 48.6874L32.6865 47.8316L33.4697 46.9878L34.2784 46.1575L35.1114 45.3424L35.9673 44.544L36.8448 43.7637L37.7424 43.0029L38.6586 42.2631L39.5918 41.5454L40.5405 40.8511L41.503 40.1813L42.4775 39.5371L43.4623 38.9194L44.4556 38.3291L45.4556 37.7671L46.4604 37.2341L47.4681 36.7307L48.4769 36.2576L49.4848 35.8151L50.4898 35.4036L51.49 35.0236L52.4836 34.6751L53.4685 34.3583L54.4428 34.0732L55.4045 33.8198L56.3519 33.5979L57.2829 33.4073L58.1958 33.2475L59.0886 33.1184L59.9596 33.0192L60.807 32.9495L61.6291 32.9086L62.4243 32.8957L63.1909 32.91L63.9272 32.9506L64.6319 33.0166L65.3035 33.1069L65.9405 33.2205L66.5418 33.356L67.1059 33.5124L67.6318 33.6883L68.1184 33.8824L68.5646 34.0933L68.9695 34.3195L69.3323 34.5596L69.6523 34.8121L69.9287 35.0754L70.1609 35.348L70.3486 35.6282L70.4913 35.9144L70.5886 36.2049L70.6405 36.4982L70.6468 36.7926L70.6074 37.0863L70.5225 37.3778L70.3922 37.6654L70.2168 37.9474L69.9967 38.2222L69.7324 38.4882L69.4243 38.7438L69.0732 38.9875L68.6797 39.2177L68.2447 39.4329L67.7691 39.6317L67.2539 39.8128L66.7002 39.9746L66.109 40.116L65.4816 40.2357L64.8194 40.3325L64.1236 40.4052L63.3958 40.4529L62.6373 40.4746L61.8499 40.4692L61.035 40.436L60.1943 40.3743L59.3296 40.2833L58.4426 40.1624L57.535 40.0111L56.6088 39.8289L55.6657 39.6156L54.7077 39.3708L53.7367 39.0945L52.7545 38.7864L51.7632 38.4466L50.7645 38.0751L49.7606 37.6723L48.7533 37.2383L47.7446 36.7735L46.7364 36.2784L45.7306 35.7534L44.7291 35.1993L43.7338 34.6167L42.7465 34.0064L41.769 33.3694L40.8031 32.7065L39.8504 32.0188L38.9128 31.3074L37.9918 30.5735L37.0889 29.8183L36.2058 29.0433L35.3438 28.2497L34.5044 27.439L33.6889 26.6127L32.8986 25.7724L32.1346 24.9197L31.398 24.0563L30.69 23.1838L30.0114 22.3041L29.3631 21.4188L28.7459 20.5298L28.1604 19.6389L27.6075 18.7479L27.0874 17.8588L26.6007 16.9735L26.1478 16.0937L25.7288 15.2215L25.344 14.3587L24.9933 13.5071L24.6769 12.6688L24.3946 11.8455L24.1462 11.039L23.9314 10.2513L23.7498 9.484L23.6011 8.73898L23.4845 8.01793L23.3996 7.32253L23.3455 6.6544L23.3216 6.01514L23.3269 5.40626L23.3606 4.82925L23.4215 4.28552L23.5086 3.7764L23.6209 3.30319L23.7569 2.86708L23.9156 2.46921L24.0956 2.11064L24.2954 1.79234L24.5138 1.51521L24.7491 1.28006L25 1.0876L25.2648 0.938478L25.5421 0.833237L25.8301 0.772323L26.1273 0.756103L26.432 0.784844L26.7426 0.858711L27.0574 0.97779L27.3748 1.14206L27.693 1.35141L28.0104 1.60562L28.3253 1.90441L28.6362 2.24735L28.9413 2.63399L29.2391 3.06371L29.5279 3.53586L29.8063 4.04966L30.0727 4.60427L30.3256 5.19875L30.5636 5.83209L30.7853 6.50317L30.9894 7.21082L31.1746 7.95379L31.3397 8.73075L31.4835 9.54029L31.6048 10.381L31.7028 11.2512L31.7764 12.1495L31.8247 13.0741L31.8469 14.0234L31.8422 14.9956L31.8101 15.989L31.75 17.0017L31.6612 18.0318L31.5436 19.0775L31.3966 20.1368L31.2202 21.2078L31.0141 22.2886L30.7782 23.3771L30.5127 24.4715L30.2177 25.5696L29.8933 26.6695L29.5398 27.7693L29.1577 28.867L28.7474 29.9606L28.3095 31.0482L27.8446 32.1279L27.3535 33.1978L26.8369 34.2561L26.2958 35.301L25.7311 36.3306L25.1439 37.3433L24.5352 38.3375L23.9064 39.3114L23.2586 40.2635L22.5932 41.1924L21.9116 42.0965L21.2151 42.9746L20.5053 43.8252L19.7838 44.6473L19.0522 45.4396L18.312 46.2011L17.5649 46.9307L16.8128 47.6277L16.0573 48.291L15.3002 48.9201L14.5432 49.5142L13.7883 50.0728L13.0372 50.5954L12.2918 51.0817L11.554 51.5313L10.8254 51.9441L10.1081 52.3199L9.40374 52.6588L8.71424 52.9608L8.04136 53.226L7.38686 53.4548L6.75251 53.6476L6.14 53.8046L5.55101 53.9265L4.98717 54.0139L4.45008 54.0674L3.94127 54.0879L3.46223 54.0761L3.0144 54.0331L2.59915 53.9597L2.21778 53.8572L1.87153 53.7265L1.56159 53.569L1.28904 53.3858L1.0549 53.1783L0.860118 52.9479L0.70556 52.696L0.591996 52.4241L0.520122 52.1337L0.49054 51.8263L0.503769 51.5035L0.560228 51.1669L0.660253 50.8182L0.804083 50.459L0.991859 50.091L1.22363 49.7159L1.49937 49.3354L1.81892 48.9512L2.18205 48.5649L2.58844 48.1783L3.03767 47.7931L3.52921 47.4108L4.06247 47.0332L4.63674 46.6619L5.25125 46.2985L5.90511 45.9444L6.59738 45.6013L7.327 45.2706L8.09284 44.9537L8.89372 44.6521L9.72835 44.3671L10.5954 44.0998L11.4934 43.8517L12.4209 43.6238L13.3763 43.4171L14.3581 43.2329L15.3646 43.0719L16.394 42.935L17.4445 42.8231L18.5145 42.7369L19.602 42.677L20.7051 42.6439L21.8219 42.6382L22.9505 42.6602L24.0889 42.7103L25.2352 42.7886L26.3873 42.8953L27.5432 43.0304L28.7009 43.1939L29.8585 43.3855L31.0139 43.6052L32.1651 43.8526L33.3101 44.1272L34.4471 44.4287L35.574 44.7563L36.6889 45.1095L37.7901 45.4876L38.8756 45.8896L39.9436 46.3147L40.9925 46.762L42.0205 47.2303L43.0259 47.7186L44.0073 48.2257L44.963 48.7503L45.8916 49.2911L46.7917 49.8467L47.662 50.4157L48.5013 50.9967L49.3083 51.588L50.0819 52.1881L50.8212 52.7954L51.5253 53.4083L52.1932 54.025L52.8242 54.6439L53.4177 55.2632L53.973 55.8811L54.4897 56.4959L54.9674 57.1058L55.4058 57.7091L55.8046 58.3039L56.1638 58.8884L56.4833 59.4609L56.7632 60.0197L57.0037 60.5629L57.205 61.0888L57.3674 61.5958L57.4913 62.0822L57.5774 62.5464L57.6262 62.9867L57.6384 63.4016L57.6147 63.7897L57.556 64.1494L57.4633 64.4793L57.3375 64.7782L57.1798 65.0448L56.9912 65.2778L56.773 65.4761L56.5265 65.6386L56.253 65.7644L55.9538 65.8525L55.6305 65.9021L55.2845 65.9125L54.9173 65.8829L54.5306 65.8129L54.1259 65.7018L53.7049 65.5493L53.2692 65.3551L52.8205 65.119L52.3606 64.8408L51.8911 64.5205L51.4139 64.1582L50.9305 63.754L50.4429 63.3081L49.9526 62.821L49.4614 62.293L48.9711 61.7247L48.4833 61.1167L47.9997 60.4696L47.5219 59.7844L47.0516 59.0618L46.5903 58.3029L46.1395 57.5087L45.7008 56.6803L45.2755 55.819L44.8652 54.926L44.4711 54.0027L44.0945 53.0505L43.7366 52.0709L43.3986 51.0655L43.0816 50.0359L42.7866 48.9838L42.5145 47.9109L42.2662 46.8189L42.0425 45.7097L41.8441 44.5852L41.6717 43.4472L41.5257 42.2976L41.4067 41.1385L41.3151 39.9718L41.251 38.7994L41.2148 37.6234L41.2065 36.4459L41.2262 35.2687L41.2738 34.094L41.3491 32.9236L41.4519 31.7598L41.582 30.6043L41.7388 29.4592L41.9218 28.3265L42.1306 27.208L42.3644 26.1056L42.6225 25.0212L42.904 23.9565L43.2081 22.9133L43.5338 21.8934L43.88 20.8983L44.2457 19.9297L44.6296 18.9891L45.0305 18.078L45.447 17.1977L45.8779 16.3497L46.3217 15.5351L46.777 14.7551L47.2422 14.0109L47.7157 13.3034L48.1961 12.6336L48.6816 12.0024L49.1706 11.4104L49.6615 10.8585L50.1525 10.3471L50.6419 9.87672L51.128 9.4478L51.6091 9.06063L52.0834 8.71542L52.5492 8.41228L53.0047 8.15123L53.4483 7.9322L53.8782 7.75504L54.2928 7.61947L54.6904 7.52515L55.0694 7.47164L55.4281 7.45841L55.765 7.48484L56.0787 7.55023L56.3676 7.6538L56.6303 7.79468L56.8654 7.97191L57.0717 8.18448L57.2479 8.43128L57.3927 8.71116L57.5051 9.02287L57.5841 9.36511L57.6286 9.73652L57.6378 10.1357L57.6108 10.5611L57.5469 11.0114L57.4454 11.4848L57.3059 11.9798L57.1277 12.4947L56.9105 13.0279L56.654 13.5776L56.358 14.1422L56.0223 14.7198L55.6469 15.3087L55.232 15.9072L54.7775 16.5134L54.2839 17.1255L53.7514 17.7418L53.1805 18.3605L52.5716 18.9798L51.9255 19.598L51.2428 20.2134L50.5243 20.8242L49.7709 21.4288L48.9835 22.0255L48.1633 22.6128L47.3112 23.1891L46.4286 23.7528L45.5167 24.3026L44.5769 24.8369L43.6106 25.3545L42.6192 25.8541L41.6044 26.3344L40.5677 26.7943L39.5108 27.2327L38.4354 27.6485L37.3433 28.0409L36.2363 28.4089L35.1163 28.7518L33.985 29.0688L32.8446 29.3594L31.6968 29.623L30.5436 29.8591L29.3871 30.0674L28.2292 30.2476L27.072 30.3995L25.9174 30.5231L24.7675 30.6182L23.6242 30.685L22.4895 30.7236L21.3654 30.7343L20.254 30.7174L19.157 30.6733L18.0764 30.6026L17.0142 30.5059L15.972 30.3837L14.9517 30.2369L13.9551 30.0663L12.9839 29.8728L12.0396 29.6574L11.1239 29.4211L10.2384 29.165L9.38438 28.8904L8.56334 28.5984L7.77658 28.2904L7.02535 27.9678L6.31082 27.6318L5.63408 27.2841L4.99613 26.926L4.39791 26.5592L3.84026 26.1851L3.32391 25.8054L2.84953 25.4217L2.4177 25.0357L2.02889 24.6491L1.68347 24.2634L1.38175 23.8805L1.12391 23.502L0.910055 23.1296L0.740193 22.765L0.614231 22.4099L0.531987 22.0659L0.493182 21.7348L0.497451 21.4181L0.544327 21.1174L0.633261 20.8343L0.763611 20.5703L0.934653 20.327L1.14557 20.1058L1.39548 19.9081L1.68339 19.7352L2.00826 19.5884L2.36896 19.4691L2.76428 19.3783L3.19297 19.3171L3.65368 19.2867L4.14502 19.288L4.66553 19.3218L5.21371 19.389L5.78798 19.4904L6.38676 19.6266L7.00837 19.7981L7.65114 20.0055L8.31333 20.2491L8.9932 20.5293L9.68896 20.8463L10.3988 21.2002L11.1209 21.5911L11.8535 22.0189L12.5947 22.4835L13.3426 22.9846L14.0955 23.5219L14.8514 24.0951L15.6086 24.7035L16.3653 25.3466L17.1197 26.0237L17.87 26.734L18.6144 27.4768L19.3513 28.2509L20.0791 29.0555L20.796 29.8894L21.5005 30.7513L22.1911 31.6402L22.8663 32.5546L23.5247 33.4931L24.1649 34.4543L24.7857 35.4366L25.3857 36.4385L25.9639 37.4583L26.5191 38.4944L27.0503 39.5449L27.5566 40.6082L28.0372 41.6823L28.4912 42.7655L28.9179 43.8557L29.3168 44.9512L29.6873 46.05L30.0289 47.1501L30.3414 48.2495L30.6245 49.3464L30.8779 50.4386L31.1016 51.5242L31.2956 52.6012L31.46 53.6677L31.595 54.7217L31.7009 55.7613L31.7779 56.7845L31.8266 57.7895L31.8474 58.7745L31.841 59.7376L31.8081 60.6771L31.7494 61.5912L31.6658 62.4782L31.5582 63.3366L31.4275 64.1648L31.2749 64.9612L31.1015 65.7245L30.9085 66.4532L30.697 67.1462L30.4685 67.802L30.2243 68.4196L29.9657 68.998L29.6942 69.5361L29.4114 70.033L29.1188 70.488L28.8178 70.9002L28.5102 71.2691L28.1975 71.5941L27.8813 71.8748L27.5634 72.1108L27.2453 72.3018L26.9288 72.4477L26.6155 72.5483L26.3071 72.6038L26.0052 72.6142L25.7116 72.5797L25.4277 72.5007L25.1554 72.3775L24.896 72.2107L24.6513 72.0007L24.4227 71.7484L24.2117 71.4544L24.0198 71.1196L23.8483 70.7449L23.6987 70.3313L23.5722 69.8799L23.47 69.392L23.3934 68.8686L23.3435 68.3111L23.3213 67.721L23.3278 67.0995L23.3639 66.4483L23.4304 65.7689L23.5281 65.0628L23.6577 64.3318L23.8198 63.5775L24.0149 62.8017L24.2433 62.0061L24.5055 61.1926L24.8017 60.3629L25.132 59.5189L25.4966 58.6626L25.8953 57.7957L26.3282 56.9202L26.7949 56.0379L27.2952 55.1508L27.8288 54.2607L28.395 53.3696L28.9935 52.4792L29.6234 51.5915L30.2842 50.7083L30.9749 49.8313L31.6947 48.9623L32.4425 48.103L33.2174 47.2552L34.0181 46.4204L34.8435 45.6003L35.6923 44.7964L36.563 44.0102L37.4544 43.2431L38.3648 42.4964L39.2928 41.7715L40.2368 41.0697L41.195 40.3919L42.1659 39.7394L43.1476 39.1132L44.1384 38.5141L45.1365 37.943L46.1399 37.4007L47.1469 36.8878L48.1556 36.405L49.1639 35.9527L50.1701 35.5313L51.1721 35.1412L52.168 34.7827L53.1558 34.4558L54.1337 34.1606L55.0997 33.8971L56.0518 33.6652L56.9882 33.4646L57.9071 33.2951L58.8065 33.1562L59.6846 33.0476L60.5398 32.9685L61.3701 32.9185L62.174 32.8968L62.9499 32.9025L63.696 32.9349L64.411 32.9929L65.0933 33.0756L65.7415 33.1819L66.3542 33.3105L66.9303 33.4604L67.4685 33.6302L67.9677 33.8187L68.4269 34.0243L68.8451 34.2459L69.2214 34.4817L69.555 34.7304L69.8454 34.9905L70.0918 35.2603L70.2937 35.5382L70.4507 35.8226L70.5625 36.112L70.6289 36.4046L70.6497 36.6988L70.6249 36.9929L70.5544 37.2853L70.4386 37.5743L70.2776 37.8583L70.0717 38.1355L69.8214 38.4045L69.5272 38.6636L69.1897 38.9112L68.8096 39.1459L68.3877 39.3661L67.925 39.5703L67.4223 39.7571L66.8807 39.9252L66.3013 40.0733L65.6853 40.2L65.034 40.3042L64.3488 40.3847L63.631 40.4405L62.8822 40.4706L62.1038 40.4739L61.2974 40.4497L60.4648 40.3971L59.6075 40.3155L58.7274 40.2041L57.8262 40.0626L56.9058 39.8903L55.9679 39.687L55.0144 39.4522L54.0473 39.1859L53.0685 38.8879L52.0798 38.5582L51.0833 38.1969L50.0809 37.804L49.0744 37.3799L48.066 36.9249L47.0574 36.4393L46.0506 35.9238L45.0476 35.3789L44.0501 34.8053L43.06 34.2038L42.0792 33.5751L41.1094 32.9204L40.1523 32.2404L39.2097 31.5365L38.2832 30.8096L37.3744 30.0611L36.4848 29.2922L35.616 28.5044L34.7693 27.699L33.946 26.8775L33.1475 26.0415L32.375 25.1926L31.6296 24.3324L30.9124 23.4626L30.2243 22.585L29.5662 21.7013L28.939 20.8132L28.3434 19.9227L27.78 19.0316L27.2495 18.1417L26.7521 17.255L26.2884 16.3732L25.8586 15.4984L25.4628 14.6324L25.1013 13.777L24.774 12.9343L24.4809 12.106L24.2217 11.2939L23.9962 10.5L23.8041 9.72606L23.6449 8.97377L23.5182 8.2449L23.4232 7.54115L23.3595 6.86416L23.326 6.21553L23.3221 5.59682L23.3468 5.0095L23.3992 4.45502L23.4781 3.93474L23.5825 3.44995L23.7111 3.0019L23.8627 2.59173L24.036 2.22054L24.2297 1.88931L24.4423 1.59897L24.6724 1.35036L24.9185 1.14423L25.1791 0.981241L25.4525 0.861966L25.7373 0.786892L26.0317 0.756402L26.3342 0.770794L26.6431 0.830277L26.9568 0.934952L27.2735 1.08484L27.5916 1.27984L27.9095 1.51979L28.2254 1.80442L28.5377 2.13335L28.8448 2.50612L29.1451 2.92219L29.437 3.3809L29.7188 3.88152L29.9892 4.42324L30.2466 5.00512L30.4895 5.6262L30.7165 6.28538L30.9264 6.98152L31.1177 7.71338L31.2894 8.47966L31.44 9.27898L31.5687 10.1099L31.6742 10.9709L31.7556 11.8604L31.8121 12.7768L31.8427 13.7185L31.8467 14.6836L31.8234 15.6704L31.7722 16.6771L31.6926 17.7019L31.5842 18.7428L31.4466 19.798L31.2796 20.8655L31.0829 21.9434L30.8566 23.0297L30.6005 24.1224L30.3148 25.2195L29.9998 26.3191L29.6555 27.4191L29.2825 28.5177L28.8811 29.6128L28.4519 30.7025L27.9956 31.785L27.5127 32.8582L27.0041 33.9204L26.4707 34.9697L25.9134 36.0044L25.3333 37.0227L24.7314 38.0229L24.1088 39.0034L23.467 39.9627L22.807 40.8991L22.1304 41.8113L21.4385 42.6978L20.7328 43.5573L20.0148 44.3886L19.2862 45.1905L18.5486 45.962L17.8035 46.7018L17.0528 47.4093L16.2982 48.0834L15.5414 48.7235L14.7842 49.3288L14.0285 49.8987L13.276 50.4329L12.5285 50.9307L11.7881 51.3921L11.0563 51.8166L10.3352 52.2042L9.62657 52.5548L8.93214 52.8686L8.25378 53.1455L7.59324 53.3859L6.95228 53.5901L6.33263 53.7584L5.73596 53.8915L5.16394 53.9898L4.61816 54.054L4.10018 54.0849L3.6115 54.0833L3.15358 54.0501L2.7278 53.9863L2.3355 53.8929L1.97794 53.7711L1.65631 53.622L1.37173 53.4468L1.12525 53.247L0.917835 53.0237L0.750375 52.7785L0.623677 52.5128L0.538453 52.2281L0.49534 51.9259L0.49488 51.6078L0.53753 51.2755L0.623646 50.9305L0.753504 50.5744L0.92727 50.2091L1.14503 49.8361L1.40677 49.4571L1.71239 49.0739L2.06167 48.6881L2.45432 48.3014L2.88996 47.9155L3.36808 47.5322L3.88812 47.1529L4.44942 46.7794L5.0512 46.4133L5.69263 46.0561L6.37277 45.7093L7.0906 45.3745L7.84504 45.0531L8.63489 44.7464L9.45891 44.456L10.3158 44.1829L11.2041 43.9286L12.1224 43.6941L13.0691 43.4806L14.0426 43.2891L15.0414 43.1206L16.0637 42.9759L17.1077 42.856L18.1717 42.7615L19.2538 42.6931L20.3521 42.6515L21.4648 42.637L22.5899 42.6502L23.7254 42.6913L24.8694 42.7606L26.0198 42.8582L27.1747 42.9843L28.3321 43.1387L29.4899 43.3214L30.6462 43.5322L31.7989 43.7708L32.9462 44.0368L34.0859 44.3298L35.2162 44.6491L36.3352 44.9943L37.4409 45.3645L38.5316 45.759L39.6054 46.1768L40.6606 46.6172L41.6954 47.0789L42.7082 47.561L43.6974 48.0622L44.6615 48.5814L45.5989 49.1172L46.5082 49.6682L47.3881 50.2331L48.2374 50.8104L49.0548 51.3986L49.8392 51.9961L50.5895 52.6013L51.3049 53.2126L51.9844 53.8282L52.6272 54.4466L53.2327 55.066L53.8003 55.6845L54.3293 56.3005L54.8195 56.9122L55.2704 57.5178L55.6819 58.1154L56.0537 58.7034L56.3858 59.28L56.6784 59.8433L56.9314 60.3916L57.1451 60.9233L57.3198 61.4365L57.456 61.9296L57.5541 62.4011L57.6147 62.8491L57.6384 63.2723L57.6261 63.6691L57.5785 64.038L57.4965 64.3776L57.3811 64.6865L57.2335 64.9635L57.0546 65.2073L56.8457 65.4168L56.6081 65.5908L56.343 65.7284L56.0518 65.8286L55.736 65.8906L55.3971 65.9135L55.0365 65.8967L54.6558 65.8396L54.2567 65.7416L53.8406 65.6024L53.4094 65.4215L52.9647 65.1988L52.5082 64.934L52.0416 64.6271L51.5666 64.2782L51.085 63.8873L50.5986 63.4547L50.1089 62.9806L49.6179 62.4656L49.1271 61.9101L48.6383 61.3146L48.1532 60.6799L47.6734 60.0068L47.2005 59.296L46.7361 58.5485L46.2818 57.7654L45.8391 56.9478L45.4094 56.0969L44.9942 55.2138L44.5948 54.3L44.2125 53.3568L43.8485 52.3858L43.504 51.3885L43.1802 50.3664L42.8781 49.3213L42.5986 48.2548L42.3426 47.1687L42.111 46.0648L41.9045 44.9449L41.7238 43.811L41.5693 42.6649L41.4417 41.5087L41.3413 40.3441L41.2684 39.1733L41.2233 37.9983L41.2061 36.821L41.2169 35.6435L41.2556 34.4678L41.3221 33.2958L41.4162 32.1297L41.5376 30.9713L41.6859 29.8227L41.8607 28.6859L42.0613 27.5626L42.2872 26.4549L42.5377 25.3645L42.8118 24.2934L43.1089 23.2432L43.4278 22.2157L43.7676 21.2125L44.1272 20.2353L44.5054 19.2856L44.901 18.3649L45.3127 17.4747L45.7392 16.6162L46.1791 15.7908L46.6308 14.9997L47.093 14.244L47.5641 13.5247L48.0424 12.8428L48.5265 12.1992L49.0146 11.5947L49.505 11.0299L49.9962 10.5055L50.4863 10.0221L50.9737 9.57991L51.4565 9.17941L51.9332 8.82082L52.4018 8.50427L52.8608 8.22982L53.3084 7.99742L53.7429 7.80694L54.1625 7.65816L54.5657 7.55074L54.9508 7.48428L55.3161 7.45829L55.6602 7.47216L55.9814 7.52522L56.2783 7.61672L56.5495 7.74581L56.7936 7.91157L57.0092 8.113L57.1951 8.34902L57.35 8.61849L57.4729 8.9202L57.5626 9.25286L57.6182 9.61514L57.6387 10.0056L57.6234 10.4229L57.5713 10.8654L57.4819 11.3316L57.3545 11.8199L57.1887 12.3286L56.9839 12.8562L56.74 13.4008L56.4566 13.9609L56.1335 14.5345L55.7708 15.12L55.3684 15.7156L54.9266 16.3196L54.4454 16.93L53.9252 17.5452L53.3665 18.1633L52.7697 18.7826L52.1353 19.4014L51.4642 20.0178L50.757 20.6302L50.0146 21.237L49.2379 21.8364L48.428 22.4269L47.586 23.0068L46.713 23.5747L45.8103 24.129L44.8792 24.6685L43.9212 25.1915L42.9376 25.697L41.9301 26.1836L40.9002 26.6501L39.8495 27.0954L38.7798 27.5185L37.6929 27.9185L36.5904 28.2943L35.4743 28.6453L34.3465 28.9707L33.2087 29.2697L32.063 29.542L30.9114 29.7869L29.7557 30.0041L28.5981 30.1933L27.4404 30.3542L26.2848 30.4868L25.1331 30.591L23.9875 30.6668L22.8499 30.7143L21.7222 30.7339L20.6065 30.7257L19.5047 30.6903L18.4187 30.628L17.3504 30.5395L16.3017 30.4253L15.2742 30.2863L14.2699 30.1232L13.2904 29.9369L12.3374 29.7283L11.4124 29.4985L10.5171 29.2487L9.65289 28.9798L8.82121 28.6932L8.02339 28.3902L7.26071 28.0721L6.53436 27.7402L5.84547 27.3961L5.19507 27.0411L4.5841 26.6769L4.01344 26.3049L3.48386 25.9268L2.99605 25.5443L2.55061 25.1588L2.14804 24.7722L1.78877 24.3861L1.4731 24.0021L1.20127 23.622L0.973398 23.2475L0.78953 22.8802L0.649599 22.5219L0.553455 22.1742L0.500852 21.8388L0.491444 21.5173L0.5248 21.2113L0.600405 20.9224L0.717636 20.6522L0.875803 20.4022L1.07411 20.1738L1.3117 19.9684L1.58762 19.7875L1.90084 19.6323L2.25025 19.504L2.63468 19.404L3.05288 19.3333L3.50354 19.293L3.98527 19.2841L4.49666 19.3074L5.03619 19.364L5.60232 19.4544L6.19347 19.5794L6.80799 19.7396L7.4442 19.9355L8.1004 20.1675L8.77483 20.4361L9.46572 20.7413L10.1713 21.0835L10.8897 21.4626L11.6191 21.8786L12.3578 22.3315L13.1038 22.821L13.8552 23.3469L14.6104 23.9086L15.3674 24.5059L16.1245 25.138L16.8798 25.8044L17.6315 26.5042L18.378 27.2367L19.1175 28.001L19.8483 28.796L20.5689 29.6206L21.2775 30.4738L21.9727 31.3542L22.653 32.2606L23.3169 33.1916L23.9631 34.1457L24.5901 35.1215L25.1969 36.1174L25.7822 37.1317L26.3448 38.1627L26.8838 39.2088L27.3981 40.2682L27.887 41.3391L28.3495 42.4196L28.785 43.5078L29.1928 44.6018L29.5724 45.6998L29.9233 46.7997L30.2451 47.8995L30.5375 48.9974L30.8004 50.0913L31.0336 51.1792L31.237 52.2592L31.4109 53.3292L31.5552 54.3874L31.6703 55.4318L31.7564 56.4605L31.8141 57.4715L31.8437 58.4631L31.846 59.4333L31.8214 60.3805L31.7708 61.3029L31.6951 62.1987L31.595 63.0664L31.4716 63.9044L31.3259 64.7111L31.159 65.4851L30.972 66.225L30.7663 66.9294L30.5431 67.5972L30.3037 68.2271L30.0495 68.8181L29.782 69.3691L29.5027 69.8793L29.213 70.3477L28.9145 70.7736L28.6088 71.1564L28.2975 71.4954L27.9823 71.7902L27.6647 72.0405L27.3465 72.2458L27.0293 72.4061L26.7148 72.5212L26.4047 72.591L26.1006 72.6158L25.8041 72.5955L25.517 72.5307L25.2408 72.4215L24.9771 72.2685L24.7276 72.0722L24.4937 71.8333L24.2769 71.5525L24.0788 71.2306L23.9006 70.8685L23.7439 70.4672L23.6099 70.0277L23.4999 69.5513L23.415 69.039L23.3565 68.4923L23.3253 67.9124L23.3225 67.3008L23.3491 66.6589L23.4059 65.9883L23.4936 65.2905L23.613 64.5673L23.7646 63.8202L23.9491 63.0511L24.1669 62.2616L24.4183 61.4536L24.7037 60.6288L25.0231 59.7892L25.3768 58.9366L25.7646 58.0729L26.1866 57.1999L26.6426 56.3196L27.1322 55.4338L27.6552 54.5445L28.2111 53.6535L28.7994 52.7627L29.4194 51.8739L30.0704 50.989L30.7517 50.1098L31.4623 49.2381L32.2013 48.3755L32.9677 47.5239L33.7603 46.6848L34.578 45.8598L35.4195 45.0506L36.2834 44.2586L37.1683 43.4852L38.0728 42.7319L38.9954 42L39.9345 41.2907L40.8883 40.6051L41.8554 39.9445L42.8338 39.3098L43.8219 38.7019L44.8179 38.1218L45.8198 37.5703L46.8259 37.0479L47.8342 36.5555L48.8429 36.0934L49.8499 35.6621L50.8535 35.2621L51.8515 34.8935L52.8422 34.5565L53.8234 34.2512L54.7934 33.9776L55.7501 33.7357L56.6918 33.5251L57.6164 33.3457L58.5222 33.1972L59.4073 33.0789L60.27 32.9905L61.1084 32.9313L61.9209 32.9007L62.7059 32.8978L63.4617 32.9217L64.1867 32.9717L64.8796 33.0467L65.5388 33.1455L66.163 33.2672L66.7509 33.4104L67.3013 33.574L67.813 33.7567L68.285 33.957L68.7164 34.1737L69.1061 34.4051L69.4534 34.6499L69.7576 34.9065L70.0181 35.1734L70.2342 35.4489L70.4056 35.7314L70.5318 36.0194L70.6127 36.3112L70.648 36.605L70.6377 36.8994L70.5818 37.1925L70.4804 37.4827L70.3338 37.7685L70.1421 38.048L69.9059 38.3198L69.6256 38.5823L69.3018 38.8337L68.9352 39.0727L68.5266 39.2976L68.0768 39.507L67.5867 39.6996L67.0573 39.8738L66.4899 40.0284L65.8854 40.162L65.2452 40.2735L64.5707 40.3617L63.8631 40.4255L63.124 40.4638L62.3548 40.4758L61.5572 40.4604L60.7328 40.417L59.8832 40.3447L59.0101 40.2429L58.1155 40.111L57.2009 39.9485L56.2684 39.7551L55.3197 39.5304L54.3567 39.2742L53.3814 38.9863L52.3957 38.6667L51.4015 38.3154L50.4007 37.9326L49.3953 37.5184L48.3873 37.0731L47.3786 36.5973L46.371 36.0912L45.3666 35.5556L44.3671 34.9911L43.3745 34.3984L42.3905 33.7783L41.417 33.1317L40.4557 32.4597L39.5083 31.7632L38.5765 31.0436L37.6619 30.3018L36.766 29.5393L35.8904 28.7573L35.0365 27.9573L34.2056 27.1408L33.3991 26.3093L32.6182 25.4643L31.864 24.6075L31.1377 23.7406L30.4402 22.8653L29.7725 21.9833L29.1354 21.0965L28.5297 20.2065L27.956 19.3154L27.4149 18.4249L26.9069 17.537L26.4324 16.6534L25.9918 15.7762L25.5852 14.9072L25.2128 14.0482L24.8746 13.2012L24.5705 12.3681L24.3006 11.5507L24.0644 10.7508L23.8617 9.97033L23.6921 9.21094L23.5551 8.47443L23.4501 7.76249L23.3764 7.0768L23.3334 6.41897L23.3202 5.79056L23.3359 5.19309L23.3796 4.62799L23.4502 4.09667L23.5465 3.60044L23.6675 3.14056L23.812 2.7182L23.9785 2.33448L24.1659 1.99042L24.3726 1.68696L24.5973 1.42497L24.8385 1.20524L25.0946 1.02844L25.3641 0.895184L25.6454 0.805982L25.937 0.761253L26.2371 0.761324L26.5442 0.80643L26.8565 0.896702L27.1724 1.03219L27.4902 1.21284L27.8084 1.4385L28.1251 1.70893L28.4387 2.02379L28.7477 2.38266L29.0503 2.785L29.345 3.2302L29.6302 3.71756L29.9044 4.24628L30.1661 4.81547L30.4137 5.42418L30.646 6.07135L30.8615 6.75584L31.0589 7.47646L31.2369 8.23192L31.3944 9.02087L31.5302 9.84188L31.6431 10.6935L31.7324 11.5741L31.7969 12.4821L31.8358 13.4159L31.8483 14.3737L31.8338 15.3538L31.7916 16.3544L31.7211 17.3736L31.6219 18.4096L31.4936 19.4605L31.336 20.5243L31.1488 21.5991L30.9319 22.6829L30.6853 23.7737L30.409 24.8697L30.1033 25.9687L29.7683 27.0688L29.4044 28.168L29.012 29.2645L28.5916 30.3561L28.1438 31.4411L27.6693 32.5174L27.1689 33.5834L26.6433 34.637L26.0935 35.6765L25.5205 36.7002L24.9254 37.7064L24.3093 38.6934L23.6734 39.6595L23.0191 40.6034L22.3476 41.5234L21.6604 42.4183L20.959 43.2865L20.2448 44.127L19.5194 44.9384L18.7844 45.7196L18.0415 46.4696L17.2925 47.1875L16.5389 47.8723L15.7826 48.5233L15.0253 49.1398L14.2689 49.721L13.5152 50.2666L12.766 50.7761L12.0231 51.2491L11.2884 51.6854L10.5637 52.0847L9.85084 52.4472L9.15169 52.7726L8.46801 53.0613L7.8016 53.3133L7.15421 53.5289L6.52759 53.7087L5.92343 53.8529L5.34338 53.9622L4.78907 54.0372L4.26206 54.0786L3.76389 54.0873L3.29602 54.0641L2.85985 54.0099L2.45675 53.9258L2.08799 53.8129L1.75479 53.6724L1.45829 53.5054L1.19957 53.3132L0.979606 53.0973L0.79933 52.8589L0.659565 52.5996L0.561058 52.3208L0.504468 52.024L0.490367 51.7108L0.519242 51.3828L0.591481 51.0416L0.70738 50.6889L0.867147 50.3264L1.07089 49.9556L1.31863 49.5783L1.61029 49.1963L1.94569 48.8111L2.32457 48.4246L2.74655 48.0383L3.2112 47.6539L3.71796 47.2732L4.26619 46.8977L4.85517 46.529L5.48406 46.1688L6.15198 45.8185L6.85792 45.4797L7.60082 45.1539L8.37953 44.8424L9.19281 44.5467L10.0394 44.2679L10.9178 44.0075L11.8267 43.7666L12.7645 43.5463L13.7297 43.3476L14.7206 43.1717L15.7356 43.0193L16.7729 42.8915L17.8307 42.7888L18.9073 42.712L20.0006 42.6618L21.1089 42.6387L22.2303 42.643L23.3627 42.6752L24.5042 42.7354L25.6528 42.824L26.8065 42.941L27.9633 43.0864L29.1212 43.2602L30.2782 43.462L31.4323 43.6918L32.5815 43.9491L33.7238 44.2336L34.8573 44.5446L35.9801 44.8816L37.0903 45.2439L38.1859 45.6307L39.2653 46.0413L40.3266 46.4745L41.3681 46.9296L42.3881 47.4053L43.385 47.9006L44.3572 48.4141L45.3032 48.9448L46.2217 49.4911L47.1111 50.0517L47.9703 50.6253L48.798 51.2101L49.593 51.8048L50.3543 52.4078L51.0809 53.0173L51.7719 53.6318L52.4265 54.2495L53.044 54.8687L53.6236 55.4877L54.165 56.1047L54.6676 56.7179L55.1311 57.3256L55.5551 57.926L55.9396 58.5173L56.2844 59.0977L56.5895 59.6654L56.8551 60.2187L57.0812 60.7559L57.2684 61.2751L57.4168 61.7748L57.5269 62.2534L57.5994 62.709L57.6348 63.1403L57.6339 63.5457L57.5974 63.9236L57.5263 64.2726L57.4214 64.5915L57.2839 64.8788L57.1149 65.1333L56.9154 65.3538L56.6868 65.5393L56.4303 65.6886L56.1473 65.8008L55.8392 65.875L55.5075 65.9105L55.1536 65.9064L54.7792 65.8622L54.3857 65.7773L53.9749 65.6513L53.5483 65.4837L53.1077 65.2743L52.6548 65.0229L52.1912 64.7294L51.7187 64.3939L51.2391 64.0163L50.7539 63.597L50.2651 63.1361L49.7743 62.6341L49.2833 62.0914L48.7937 61.5086L48.3072 60.8863L47.8255 60.2253L47.3503 59.5264L46.883 58.7905L46.4254 58.0187L45.9788 57.2119L45.5448 56.3715L45.1248 55.4985L44.7202 54.5943L44.3323 53.6604L43.9624 52.6981L43.6116 51.7089L43.2811 50.6946L42.9719 49.6566L42.6851 48.5967L42.4216 47.5166L42.1821 46.4182L41.9675 45.3032L41.7785 44.1736L41.6156 43.0312L41.4794 41.8779L41.3703 40.7158L41.2886 39.5468L41.2347 38.3729L41.2086 37.1961L41.2104 36.0185L41.2402 34.8419L41.2979 33.6686L41.3833 32.5004L41.496 31.3393L41.6358 30.1874L41.8022 29.0466L41.9947 27.9188L42.2126 26.8059L42.4553 25.7098L42.722 24.6324L43.0118 23.5753L43.3239 22.5404L43.6572 21.5293L44.0106 20.5436L44.383 19.585L44.7732 18.655L45.1799 17.7549L45.6018 16.8861L46.0376 16.0501L46.4857 15.2479L46.9448 14.4808L47.4132 13.7498L47.8894 13.0559L48.3718 12.4L48.8588 11.783L49.3487 11.2055L49.8398 10.6682L50.3304 10.1716L50.8188 9.71624L51.3033 9.30244L51.7821 8.93048L52.2535 8.60053L52.7158 8.31267L53.1672 8.06688L53.606 7.86308L54.0306 7.70104L54.4392 7.58049L54.8302 7.50104L55.202 7.46221L55.553 7.46345L55.8817 7.50411L56.1865 7.58345L56.466 7.70067L56.7189 7.85485L56.9437 8.04503L57.1392 8.27015L57.3041 8.5291L57.4373 8.82067L57.5377 9.14362L57.6043 9.49661L57.6361 9.87827L57.6322 10.2871L57.5919 10.7218L57.5145 11.1806L57.3992 11.662L57.2457 12.1644L57.0534 12.6862L56.822 13.2256L56.5511 13.7809L56.2407 14.3504L55.8906 14.9324L55.5009 15.5249L55.0716 16.1264L54.6029 16.735L54.0951 17.3488L53.5486 17.9662L52.9639 18.5853L52.3414 19.2044L51.6819 19.8218L50.9861 20.4357L50.2548 21.0444L49.489 21.6464L48.6896 22.2398L47.8576 22.8233L46.9943 23.3952L46.101 23.954L45.1788 24.4983L44.2292 25.0268L43.2536 25.538L42.2535 26.0307L41.2305 26.5037L40.1863 26.9559L39.1225 27.3862L38.0409 27.7937L36.9431 28.1773L35.8312 28.5363L34.7069 28.8698L33.5721 29.1774L32.4287 29.4582L31.2788 29.7119L30.1242 29.9379L28.9669 30.1361L27.8091 30.306L26.6525 30.4477L25.4994 30.5609L24.3516 30.6457L23.2112 30.7022L22.0802 30.7307L20.9605 30.7313L19.8541 30.7045L18.7628 30.6507L17.6887 30.5705L16.6335 30.4644L15.5991 30.3332L14.5872 30.1777L13.5996 29.9987L12.638 29.7971L11.7039 29.574L10.799 29.3304L9.92471 29.0674L9.08251 28.7864L8.27376 28.4884L7.49976 28.175L6.76172 27.8473L6.06078 27.5069L5.398 27.1552L4.77438 26.7938L4.19079 26.4241L3.64804 26.0478L3.14686 25.6665L2.68786 25.2818L2.27159 24.8954L1.89849 24.5089L1.5689 24.1241L1.28309 23.7426L1.04121 23.3661L0.843324 22.9963L0.68941 22.635L0.579341 22.2837L0.512901 21.9442L0.489774 21.6181L0.509563 21.307L0.571774 21.0125L0.675816 20.7362L0.821026 20.4796L1.00664 20.2441L1.23181 20.0312L1.49563 19.8424L1.79709 19.6788L2.13509 19.5419L2.5085 19.4328L2.91608 19.3526L3.35655 19.3025L3.82854 19.2835L4.33064 19.2964L4.86137 19.3423L5.4192 19.4218L6.00256 19.5358L6.60981 19.6847L7.2393 19.8692L7.88932 20.0897L8.55813 20.3465L9.24397 20.6401L9.94506 20.9705L10.6596 21.3378L11.3857 21.7421L12.1216 22.1833L12.8654 22.6611L13.6154 23.1754L14.3696 23.7258L15.1262 24.3118L15.8834 24.9329L16.6395 25.5884L17.3925 26.2777L18.1409 26.9999L18.8828 27.7542L19.6166 28.5395L20.3406 29.3548L21.0532 30.199L21.7528 31.0709L22.438 31.9692L23.1073 32.8925L23.7592 33.8394L24.3925 34.8084L25.0059 35.7981L25.5981 36.8067L26.1681 37.8326L26.7147 38.8741L27.237 39.9295L27.7341 40.9969L28.2051 42.0745L28.6492 43.1604L29.0659 44.2528L29.4546 45.3498L29.8146 46.4492L30.1457 47.5493L30.4476 48.648L30.7199 49.7434L30.9625 50.8334L31.1754 51.9162L31.3587 52.9896L31.5124 54.0518L31.6368 55.1008L31.7321 56.1346L31.7988 57.1515L31.8373 58.1494L31.8482 59.1267L31.8321 60.0814L31.7897 61.0119L31.7219 61.9163L31.6295 62.7932L31.5134 63.6408L31.3746 64.4576L31.2144 65.2422L31.0337 65.9931L30.8338 66.7089L30.616 67.3885L30.3816 68.0306L30.132 68.6341L29.8686 69.198L29.5928 69.7212L29.3063 70.203L29.0104 70.6426L28.7068 71.0392L28.3972 71.3922L28.083 71.7011L27.766 71.9656L27.4479 72.1853L27.1302 72.3599L26.8146 72.4894L26.5029 72.5737L26.1967 72.6128L25.8976 72.6068L25.6073 72.5562L25.3275 72.4611L25.0596 72.322L24.8054 72.1394L24.5664 71.914L24.344 71.6465L24.1398 71.3375L23.9551 70.9881L23.7914 70.5992L23.65 70.1718L23.5322 69.707L23.4392 69.206L23.3722 68.6701L23.3322 68.1006L23.3203 67.4989L23.3374 66.8665L23.3845 66.2049L23.4622 65.5156L23.5715 64.8003L23.7128 64.0607L23.8868 63.2983L24.0939 62.5152L24.3346 61.7128L24.6091 60.8932L24.9176 60.0581L25.2604 59.2095L25.6374 58.3491L26.0485 57.4788L26.4937 56.6006L26.9726 55.7164L27.4851 54.828L28.0305 53.9373L28.6085 53.0463L29.2185 52.1567L29.8597 51.2703L30.5315 50.3892L31.2328 49.5148L31.9629 48.6492L32.7207 47.7939L33.5051 46.9506L34.3149 46.121L35.1489 45.3066L36.0058 44.5089L36.8842 43.7295L37.7827 42.9696L38.6997 42.2307L39.6337 41.5141L40.583 40.8208L41.546 40.1521L42.521 39.5091L43.5062 38.8926L44.4999 38.3035L45.5001 37.7428L46.5051 37.2111L47.5129 36.7091L48.5217 36.2372L49.5295 35.7961L50.5343 35.3861L51.5343 35.0074L52.5275 34.6604L53.512 34.345L54.4858 34.0613L55.4469 33.8093L56.3936 33.5888L57.3239 33.3995L58.2358 33.2412L59.1277 33.1133L59.9977 33.0155L60.8441 32.9471L61.665 32.9074L62.459 32.8957L63.2242 32.9112L63.9592 32.953L64.6625 33.0201L65.3325 33.1115L65.968 33.226L66.5676 33.3625L67.1301 33.5198L67.6542 33.6965L68.139 33.8914L68.5834 34.103L68.9865 34.3299L69.3475 34.5706L69.6655 34.8236L69.9399 35.0873L70.1702 35.3603L70.3559 35.6408L70.4965 35.9272L70.5919 36.2179L70.6418 36.5113L70.646 36.8057L70.6046 37.0993L70.5177 37.3907L70.3854 37.678L70.208 37.9598L69.9859 38.2342L69.7196 38.4998L69.4096 38.7549L69.0566 38.998L68.6613 39.2276L68.2245 39.4421L67.7471 39.6402L67.2301 39.8204L66.6747 39.9813L66.0819 40.1218L65.4529 40.2405L64.7892 40.3362L64.092 40.4079L63.3627 40.4545L62.603 40.4749L61.8143 40.4683L60.9982 40.4339L60.1564 40.3709L59.2907 40.2785L58.4027 40.1563L57.4943 40.0036L56.5673 39.8201L55.6235 39.6054L54.6649 39.3592L53.6933 39.0815L52.7107 38.7719L51.7189 38.4307L50.7201 38.0579L49.7159 37.6537L48.7086 37.2183L47.6998 36.7521L46.6917 36.2557L45.6861 35.7294L44.6848 35.174L43.6898 34.5902L42.7029 33.9787L41.7258 33.3405L40.7605 32.6764L39.8085 31.9877L38.8715 31.2752L37.9513 30.5404L37.0493 29.7843L36.167 29.0084L35.306 28.214L34.4677 27.4026L33.6533 26.5757L32.8641 25.7348L32.1013 24.8816L31.366 24.0177L30.6592 23.1449L29.9819 22.2649L29.335 21.3794L28.7192 20.4902L28.1352 19.5993L27.5837 18.7084L27.0651 17.8194L26.5799 16.9343L26.1284 16.0548L25.711 15.183L25.3277 14.3206L24.9786 13.4696L24.6637 12.6319L24.3829 11.8093L24.136 11.0036L23.9226 10.2167L23.7425 9.45043L23.5952 8.70644L23.4801 7.98649L23.3965 7.29227L23.3438 6.62539L23.3212 5.98744L23.3278 5.37995L23.3627 4.80439L23.4248 4.26216L23.5131 3.75462L23.6264 3.28303L23.7635 2.8486L23.9232 2.45245L24.104 2.09565L24.3047 1.77916L24.5239 1.50388L24.7599 1.2706L25.0115 1.08006L25.2769 0.932872L25.5546 0.829589L25.8431 0.770652L26.1407 0.756425L26.4457 0.787163L26.7565 0.863039L27.0715 0.984127L27.3889 1.1504L27.7071 1.36175L28.0244 1.61795L28.3393 1.9187L28.6499 2.2636L28.9547 2.65216L29.2521 3.08378L29.5405 3.55779L29.8184 4.07343L30.0842 4.62983L30.3365 5.22606L30.5738 5.86109L30.7948 6.53383L30.998 7.24308L31.1824 7.98758L31.3465 8.76602L31.4893 9.57697L31.6097 10.419L31.7066 11.2905L31.7791 12.19L31.8262 13.1158L31.8472 14.0661L31.8414 15.0393L31.8081 16.0336L31.7466 17.0471L31.6566 18.0779L31.5377 19.1243L31.3894 20.1842L31.2116 21.2557L31.0042 22.3368L30.7671 23.4256L30.5002 24.5202L30.2039 25.6184L29.8782 26.7184L29.5234 27.8181L29.1401 28.9157L28.7285 30.009L28.2894 31.0963L27.8233 32.1756L27.331 33.2451L26.8134 34.3028L26.2712 35.347L25.7055 36.376L25.1173 37.3879L24.5077 38.3812L23.878 39.3541L23.2295 40.3053L22.5633 41.2331L21.8809 42.1361L21.1839 43.0129L20.4735 43.8624L19.7515 44.6831L19.0195 45.4741L18.2789 46.2342L17.5316 46.9624L16.7793 47.6578L16.0237 48.3197L15.2665 48.9472L14.5097 49.5397L13.7549 50.0968L13.004 50.6178L12.2589 51.1024L11.5214 51.5504L10.7933 51.9615L10.0765 52.3357L9.37279 52.673L8.68399 52.9733L8.01189 53.237L7.35825 53.4642L6.72483 53.6553L6.11333 53.8108L5.52542 53.9311L4.96274 54.017L4.42687 54.069L3.91935 54.0881L3.44167 54.0749L2.99526 54.0305L2.58148 53.9558L2.20165 53.852L1.85699 53.7201L1.54868 53.5614L1.27782 53.3771L1.04541 53.1686L0.852397 52.9372L0.699639 52.6844L0.587915 52.4116L0.517905 52.1204L0.490218 51.8122L0.505357 51.4888L0.563743 51.1516L0.665709 50.8024L0.811485 50.4428L1.00122 50.0745L1.23495 49.6991L1.51263 49.3184L1.83412 48.9341L2.19918 48.5477L2.60748 48.1612L3.0586 47.776L3.55201 47.394L4.08711 47.0166L4.66319 46.6456L5.27946 46.2825L5.93505 45.9289L6.62899 45.5863L7.36025 45.2562L8.12767 44.94L8.93008 44.6391L9.76618 44.3548L10.6346 44.0884L11.534 43.8411L12.4628 43.6141L13.4194 43.4085L14.4023 43.2252L15.4098 43.0653L16.4402 42.9295L17.4917 42.8187L18.5624 42.7336L19.6506 42.6749L20.7544 42.6431L21.8718 42.6386L23.0009 42.6619L24.1397 42.7132L25.2862 42.7927L26.4386 42.9007L27.5946 43.037L28.7524 43.2018L29.9099 43.3947L31.0651 43.6156L32.2161 43.8642L33.3608 44.14L34.4973 44.4427L35.6237 44.7715L36.7381 45.1258L37.8386 45.5049L38.9234 45.908L39.9906 46.3341L41.0386 46.7823L42.0656 47.2516L43.07 47.7407L44.0503 48.2486L45.0048 48.774L45.9322 49.3155L46.831 49.8717L47.7 50.4413L48.5378 51.0227L49.3434 51.6145L50.1155 52.2149L50.8533 52.8225L51.5557 53.4356L52.222 54.0525L52.8513 54.6714L53.4431 55.2906L53.9968 55.9085L54.5118 56.5231L54.9877 57.1328L55.4243 57.7357L55.8214 58.3301L56.1788 58.9141L56.4966 59.4861L56.7747 60.0441L57.0135 60.5866L57.213 61.1118L57.3737 61.6179L57.496 62.1033L57.5804 62.5665L57.6275 63.0057L57.6381 63.4195L57.6128 63.8063L57.5526 64.1647L57.4584 64.4933L57.3312 64.7908L57.1721 65.0559L56.9822 65.2873L56.7627 65.4841L56.5149 65.645L56.2402 65.7691L55.94 65.8556L55.6156 65.9034L55.2686 65.912L54.9006 65.8807L54.513 65.8088L54.1075 65.6959L53.6858 65.5416L53.2495 65.3455L52.8003 65.1075L52.3399 64.8275L51.8701 64.5053L51.3925 64.1411L50.9089 63.7351L50.4211 63.2874L49.9308 62.7984L49.4396 62.2686L48.9494 61.6985L48.4617 61.0888L47.9783 60.44L47.5009 59.7531L47.0309 59.0289L46.57 58.2684L46.1197 57.4726L45.6816 56.6428L45.257 55.78L44.8473 54.8856L44.454 53.961L44.0782 53.0076L43.7212 52.0268L43.3841 51.0203L43.068 49.9897L42.774 48.9366L42.5029 47.8628L42.2557 46.77L42.0331 45.6601L41.8359 44.5349L41.6646 43.3964L41.5199 42.2464L41.4021 41.0868L41.3116 39.9198L41.2488 38.7473L41.2138 37.5712L41.2068 36.3936L41.2277 35.2165L41.2765 34.0419L41.3531 32.8718L41.4571 31.7083L41.5884 30.5532L41.7463 29.4087L41.9306 28.2765L42.1405 27.1587L42.3753 26.057L42.6345 24.9734L42.917 23.9097L43.2221 22.8675L43.5488 21.8487L43.8959 20.8547L44.2624 19.8873L44.647 18.948L45.0486 18.0382L45.4659 17.1594L45.8974 16.3128L46.3417 15.4997L46.7974 14.7213L47.263 13.9787L47.7369 13.2728L48.2175 12.6048L48.7033 11.9753L49.1924 11.3851L49.6833 10.8349L50.1743 10.3253L50.6636 9.85679L51.1495 9.42972L51.6303 9.04441L52.1043 8.70106L52.5696 8.39979L53.0247 8.14061L53.4677 7.92345L53.897 7.74814L54.3108 7.61441L54.7076 7.52191L55.0857 7.4702L55.4435 7.45874L55.7795 7.48692L56.0921 7.55403L56.3798 7.65927L56.6413 7.80178L56.8752 7.98061L57.0802 8.19472L57.255 8.44302L57.3984 8.72433L57.5094 9.03743L57.5868 9.381L57.6298 9.75368L57.6374 10.154L57.6087 10.5806L57.5432 11.0319L57.4401 11.5063L57.2988 12.0022L57.1189 12.518L56.8999 13.052L56.6417 13.6024L56.3439 14.1676L56.0065 14.7457L55.6293 15.3351L55.2126 15.934L54.7564 16.5405L54.2611 17.1528L53.7269 17.7693L53.1542 18.388L52.5437 19.0073L51.896 19.6254L51.2117 20.2406L50.4916 20.8512L49.7366 21.4555L48.9478 22.0518L48.1261 22.6386L47.2727 23.2144L46.3887 23.7775L45.4756 24.3266L44.5345 24.8603L43.5671 25.3771L42.5746 25.8758L41.5588 26.3553L40.5211 26.8142L39.4634 27.2516L38.3872 27.6664L37.2944 28.0577L36.1868 28.4246L35.0662 28.7664L33.9346 29.0823L32.7937 29.3717L31.6457 29.634L30.4923 29.8689L29.3357 30.076L28.1778 30.255L27.0207 30.4056L25.8662 30.5279L24.7165 30.6218L23.5736 30.6873L22.4393 30.7247L21.3158 30.7341L20.2049 30.716L19.1087 30.6708L18.0289 30.5989L16.9674 30.501L15.9262 30.3777L14.907 30.2298L13.9115 30.0582L12.9414 29.8637L11.9983 29.6473L11.084 29.4101L10.1998 29.1532L9.34721 28.8778L8.52766 28.5851L7.74245 28.2764L6.99283 27.9531L6.27996 27.6166L5.60491 27.2684L4.96872 26.9099L4.37228 26.5427L3.81645 26.1683L3.30195 25.7884L2.82945 25.4046L2.39952 25.0186L2.01262 24.6319L1.66915 24.2464L1.36937 23.8636L1.11348 23.4853L0.90158 23.1133L0.733671 22.749L0.609655 22.3944L0.529345 22.051L0.492463 21.7204L0.498631 21.4043L0.547389 21.1044L0.638175 20.8221L0.770349 20.5591L0.943179 20.3167L1.15585 20.0965L1.40746 19.8998L1.69704 19.7281L2.02352 19.5825L2.38579 19.4644L2.78262 19.3749L3.21276 19.3151L3.67486 19.2861L4.16752 19.2888L4.6893 19.3241L5.23867 19.3928L5.81407 19.4957L6.41389 19.6334L7.03648 19.8065L7.68014 20.0155L8.34316 20.2608L9.02377 20.5426L9.7202 20.8612L10.4306 21.2168L11.1533 21.6093L11.8862 22.0387L12.6278 22.505L13.376 23.0077L14.129 23.5466L14.885 24.1213L15.6423 24.7313L16.3989 25.3759L17.1531 26.0545L17.9031 26.7664L18.6473 27.5105L19.3838 28.286L20.1111 29.0919L20.8275 29.9271L21.5315 30.7903L22.2214 31.6803L22.8959 32.5958L23.5535 33.5353L24.1929 34.4975L24.8128 35.4807L25.4119 36.4834L25.989 37.504L26.5432 38.5408L27.0733 39.5919L27.5785 40.6557L28.0579 41.7302L28.5107 42.8137L28.9362 43.9043L29.3338 45L29.7031 46.0989L30.0434 47.199L30.3546 48.2983L30.6363 49.395L30.8884 50.4869L31.1108 51.5722L31.3035 52.6488L31.4666 53.7148L31.6003 54.7682L31.7049 55.8071L31.7806 56.8295L31.8281 57.8337L31.8477 58.8178L31.8401 59.7799L31.806 60.7182L31.7462 61.6312L31.6615 62.517L31.5528 63.3741L31.4212 64.2008L31.2677 64.9958L31.0934 65.7576L30.8995 66.4848L30.6872 67.1761L30.458 67.8302L30.2131 68.4462L29.9539 69.0228L29.6819 69.559L29.3986 70.0541L29.1056 70.5072L28.8043 70.9175L28.4964 71.2845L28.1835 71.6075L27.8672 71.8862L27.5492 72.1202L27.2312 72.3092L26.9148 72.4531L26.6017 72.5517L26.2935 72.6052L25.992 72.6136L25.6987 72.5772L25.4154 72.4962L25.1436 72.371L24.8848 72.2023L24.6408 71.9904L24.4129 71.7362L24.2028 71.4404L24.0117 71.1038L23.8412 70.7273L23.6926 70.3121L23.5671 69.859L23.4661 69.3695L23.3907 68.8445L23.3419 68.2856L23.321 67.694L23.3287 67.0712L23.3662 66.4187L23.4341 65.7381L23.5332 65.0309L23.6643 64.2988L23.8278 63.5435L24.0243 62.7668L24.2542 61.9704L24.518 61.1561L24.8157 60.3257L25.1475 59.4812L25.5136 58.6243L25.9138 57.757L26.3482 56.8811L26.8164 55.9986L27.3182 55.1113L27.8532 54.2212L28.4209 53.33L29.0208 52.4398L29.6521 51.5522L30.3142 50.6692L31.0063 49.7925L31.7273 48.9239L32.4764 48.0651L33.2524 47.2178L34.0543 46.3837L34.8807 45.5642L35.7305 44.7611L36.6022 43.9757L37.4944 43.2094L38.4057 42.4638L39.3344 41.7399L40.279 41.039L41.2379 40.3624L42.2093 39.7111L43.1914 39.086L44.1826 38.4881L45.1809 37.9183L46.1846 37.3773L47.1917 36.8657L48.2004 36.3842L49.2087 35.9333L50.2147 35.5133L51.2164 35.1246L52.212 34.7675L53.1995 34.442L54.1769 34.1482L55.1423 33.8862L56.0937 33.6556L57.0294 33.4564L57.9474 33.2883L58.8459 33.1508L59.7231 33.0434L60.5772 32.9657L61.4064 32.917L62.2091 32.8965L62.9837 32.9034L63.7285 32.9369L64.442 32.9961L65.1228 33.0798L65.7694 33.1871L66.3806 33.3167L66.955 33.4675L67.4915 33.6382L67.989 33.8274L68.4463 34.0339L68.8627 34.256L69.2371 34.4925L69.5689 34.7418L69.8573 35.0023L70.1017 35.2724L70.3016 35.5507L70.4567 35.8354L70.5665 36.1249L70.6308 36.4177L70.6496 36.7119L70.6227 37.006L70.5503 37.2982L70.4324 37.587L70.2694 37.8707L70.0615 38.1477L69.8092 38.4162L69.5131 38.6749L69.1737 38.922L68.7917 39.156L68.3681 39.3755L67.9035 39.5789L67.399 39.765L66.8557 39.9322L66.2747 40.0793L65.6571 40.2051L65.0043 40.3083L64.3176 40.3877L63.5984 40.4424L62.8482 40.4713L62.0685 40.4734L61.261 40.448L60.4272 40.3941L59.5689 40.3112L58.6878 40.1985L57.7858 40.0556L56.8645 39.8819L55.9258 39.6772L54.9717 39.4411L54.0041 39.1734L53.0247 38.874L52.0357 38.5429L51.0389 38.1801L50.0362 37.7858L49.0297 37.3603L48.0212 36.9039L47.0126 36.4171L46.006 35.9002L45.0031 35.354L44.0059 34.7792L43.0162 34.1764L42.0359 33.5466L41.0666 32.8907L40.1101 32.2097L39.1682 31.5047L38.2425 30.7768L37.3345 30.0274L36.4458 29.2576L35.5779 28.469L34.7322 27.6628L33.91 26.8407L33.1127 26.0041L32.3413 25.1546L31.5971 24.294L30.8812 23.4238L30.1944 22.5459L29.5377 21.6619L28.9119 20.7737L28.3177 19.8832L27.7558 18.9921L27.2267 18.1023L26.7308 17.2157L26.2686 16.3342L25.8403 15.4597L25.4461 14.5942L25.0861 13.7393L24.7603 12.8972L24.4686 12.0695L24.211 11.2583L23.987 10.4652L23.7963 9.69218L23.6386 8.94089L23.5133 8.2131L23.4198 7.51051L23.3573 6.83474L23.3252 6.18741L23.3226 5.57006L23.3486 4.98417L23.4021 4.43118L23.4822 3.91245L23.5877 3.42927L23.7173 2.98287L23.8699 2.57441L24.0442 2.20497L24.2387 1.87554L24.4522 1.58704L24.683 1.3403L24.9298 1.13607L25.1909 0.975014L25.4649 0.857693L25.7501 0.784588L26.045 0.756087L26.3478 0.77248L26.657 0.833968L26.9708 0.940652L27.2876 1.09254L27.6058 1.28955L27.9236 1.53149L28.2394 1.81809L28.5515 2.14898L28.8583 2.52369L29.1583 2.94166L29.4497 3.40225L29.7311 3.90471L30.0009 4.44823L30.2577 5.03188L30.4999 5.65467L30.7262 6.31552L30.9353 7.01327L31.1258 7.74669L31.2965 8.51446L31.4462 9.31522L31.5739 10.1475L31.6783 11.0098L31.7587 11.9006L31.814 12.8181L31.8434 13.7608L31.8462 14.727L31.8217 15.7147L31.7693 16.7223L31.6884 17.7478L31.5787 18.7894L31.4398 19.8452L31.2715 20.9132L31.0735 21.9915L30.8458 23.0781L30.5885 24.171L30.3015 25.2683L29.9851 26.3679L29.6396 27.468L29.2653 28.5664L28.8627 29.6613L28.4322 30.7508L27.9747 31.8328L27.4907 32.9056L26.981 33.9673L26.4465 35.016L25.8882 36.05L25.307 37.0675L24.7041 38.0669L24.0807 39.0465L23.438 40.0048L22.7773 40.9401L22.1 41.8512L21.4074 42.7365L20.7011 43.5949L19.9827 44.4249L19.2536 45.2255L18.5156 45.9955L17.7703 46.7339L17.0194 47.4399L16.2646 48.1126L15.5078 48.7511L14.7506 49.3548L13.995 49.9232L13.2426 50.4557L12.4955 50.952L11.7554 51.4117L11.0241 51.8346L10.3035 52.2206L9.59542 52.5696L8.90167 52.8816L8.22405 53.157L7.56434 53.3957L6.9243 53.5983L6.30563 53.7651L5.71003 53.8966L5.13914 53.9934L4.59456 54.0561L4.07785 54.0855L3.5905 54.0825L3.13398 54.0479L2.70966 53.9828L2.31888 53.8881L1.96289 53.765L1.64288 53.6147L1.35997 53.4385L1.1152 53.2375L0.909544 53.0133L0.743881 52.7672L0.619007 52.5006L0.535639 52.215L0.494412 51.9121L0.495859 51.5934L0.540431 51.2604L0.628485 50.9149L0.760285 50.5584L0.936005 50.1927L1.15572 49.8193L1.41942 49.4401L1.72697 49.0568L2.07819 48.6709L2.47276 48.2842L2.91029 47.8985L3.39029 47.5152L3.91218 47.1362L4.47529 46.763L5.07885 46.3972L5.72202 46.0404L6.40385 45.6942L7.12334 45.3599L7.87937 45.0391L8.67077 44.7332L9.49628 44.4435L10.3546 44.1712L11.2442 43.9178L12.1638 43.6842L13.1117 43.4716L14.0865 43.2811L15.0863 43.1136L16.1096 42.9701L17.1546 42.8512L18.2194 42.7579L19.3022 42.6907L20.4012 42.6503L21.5145 42.637L22.6401 42.6514L23.776 42.6938L24.9203 42.7643L26.071 42.8632L27.2261 42.9905L28.3835 43.1462L29.5413 43.3302L30.6975 43.5422L31.85 43.782L32.997 44.0493L34.1363 44.3434L35.2662 44.6639L36.3846 45.0102L37.4897 45.3815L38.5797 45.777L39.6527 46.1959L40.707 46.6372L41.7409 47.0999L42.7527 47.5829L43.7408 48.0849L44.7037 48.6048L45.6398 49.1413L46.5479 49.693L47.4265 50.2585L48.2744 50.8363L49.0903 51.4249L49.8732 52.0228L50.622 52.6283L51.3358 53.2398L52.0137 53.8557L52.6549 54.4741L53.2587 55.0935L53.8246 55.7119L54.3519 56.3278L54.8403 56.9392L55.2895 57.5445L55.6992 58.1418L56.0693 58.7293L56.3997 59.3053L56.6904 59.868L56.9417 60.4156L57.1537 60.9465L57.3267 61.4588L57.4612 61.9511L57.5576 62.4215L57.6165 62.8685L57.6386 63.2905L57.6247 63.6861L57.5755 64.0537L57.4921 64.3919L57.3753 64.6995L57.2262 64.975L57.0459 65.2173L56.8357 65.4252L56.5968 65.5977L56.3306 65.7336L56.0383 65.8322L55.7215 65.8924L55.3815 65.9136L55.02 65.895L54.6385 65.8361L54.2385 65.7363L53.8218 65.5952L53.39 65.4125L52.9447 65.1879L52.4877 64.9212L52.0207 64.6125L51.5454 64.2617L51.0635 63.8689L50.5769 63.4345L50.0871 62.9586L49.5961 62.4418L49.1053 61.8845L48.6167 61.2873L48.1318 60.6508L47.6522 59.976L47.1797 59.2636L46.7157 58.5145L46.2619 57.7299L45.8198 56.9107L45.3907 56.0583L44.9761 55.1739L44.5774 54.2587L44.1959 53.3143L43.8328 52.3421L43.4892 51.3436L43.1663 50.3205L42.8652 49.2743L42.5867 48.2069L42.3318 47.12L42.1013 46.0154L41.8959 44.8948L41.7163 43.7604L41.5631 42.6138L41.4367 41.4571L41.3375 40.2923L41.2658 39.1212L41.222 37.946L41.206 36.7687L41.218 35.5912L41.258 34.4156L41.3257 33.2439L41.421 32.0781L41.5436 30.9201L41.6931 29.772L41.8691 28.6357L42.0708 27.5131L42.2978 26.4061L42.5494 25.3165L42.8246 24.2463L43.1226 23.197L43.4424 22.1706L43.7831 21.1685L44.1436 20.1925L44.5226 19.2441L44.919 18.3247L45.3314 17.4359L45.7585 16.5789L46.1989 15.755L46.6511 14.9654L47.1138 14.2113L47.5852 13.4936L48.0638 12.8134L48.5481 12.1715L49.0363 11.5688L49.5269 11.0058L50.018 10.4832L50.508 10.0015L50.9952 9.56123L51.4778 9.1626L51.9542 8.80587L52.4224 8.49118L52.881 8.2186L53.328 7.98807L53.7618 7.79945L54.1808 7.65251L54.5832 7.54692L54.9674 7.48228L55.3319 7.45806L55.6749 7.47369L55.9951 7.52847L56.2909 7.62166L56.561 7.7524L56.8038 7.91976L57.0181 8.12275L57.2026 8.36029L57.3562 8.63122L57.4776 8.93433L57.5658 9.26833L57.6199 9.63189L57.6388 10.0236L57.6218 10.442L57.5681 10.8856L57.477 11.3528L57.348 11.842L57.1804 12.3517L56.9739 12.88L56.7282 13.4254L56.443 13.9861L56.1183 14.5603L55.7538 15.1463L55.3496 15.7423L54.906 16.3465L54.4231 16.9572L53.9012 17.5726L53.3408 18.1908L52.7423 18.8101L52.1063 19.4288L51.4335 20.0451L50.7248 20.6573L49.9808 21.2638L49.2027 21.8628L48.3913 22.4529L47.5479 23.0323L46.6735 23.5996L45.7695 24.1533L44.8372 24.692L43.878 25.2144L42.8934 25.719L41.8848 26.2047L40.8539 26.6703L39.8024 27.1147L38.7319 27.5368L37.6442 27.9357L36.5411 28.3105L35.4245 28.6603L34.2961 28.9845L33.158 29.2824L32.012 29.5534L30.8601 29.7971L29.7044 30.0131L28.5467 30.201L27.3891 30.3607L26.2335 30.492L25.0821 30.5949L23.9368 30.6695L22.7996 30.7158L21.6724 30.7341L20.5573 30.7247L19.4562 30.6881L18.3709 30.6246L17.3034 30.5349L16.2556 30.4197L15.2291 30.2795L14.2259 30.1154L13.2475 29.9281L12.2957 29.7186L11.372 29.4879L10.4781 29.2371L9.61526 28.9675L8.78505 28.6801L7.98877 28.3764L7.22767 28.0576L6.50297 27.7252L5.81577 27.3805L5.16709 27.0251L4.5579 26.6605L3.98904 26.2882L3.4613 25.9099L2.97536 25.5272L2.53182 25.1417L2.13117 24.755L1.77382 24.369L1.4601 23.9851L1.19022 23.6052L0.964302 23.231L0.782383 22.8641L0.644402 22.5062L0.550196 22.159L0.499519 21.8242L0.492022 21.5033L0.527269 21.1981L0.604733 20.91L0.723796 20.6407L0.883764 20.3916L1.08384 20.1642L1.32315 19.9598L1.60074 19.78L1.91559 19.626L2.26659 19.499L2.65254 19.4003L3.07221 19.3309L3.52428 19.2919L4.00737 19.2844L4.52003 19.3092L5.06078 19.3672L5.62806 19.4592L6.22028 19.5857L6.8358 19.7475L7.47293 19.945L8.12998 20.1787L8.80518 20.4488L9.49676 20.7557L10.2029 21.0995L10.9219 21.4803L11.6518 21.898L12.3908 22.3525L13.137 22.8436L13.8887 23.371L14.644 23.9344L15.4011 24.5332L16.1581 25.1669L16.9132 25.8347L17.6648 26.5361L18.411 27.27L19.1502 28.0357L19.8806 28.832L20.6006 29.6579L21.3087 30.5123L22.0033 31.3939L22.6828 32.3015L23.346 33.2335L23.9913 34.1886L24.6175 35.1653L25.2234 36.162L25.8076 37.1771L26.3692 38.2089L26.9071 39.2556L27.4204 40.3156L27.9081 41.3869L28.3694 42.4678L28.8037 43.5563L29.2102 44.6505L29.5886 45.7486L29.9382 46.8485L30.2587 47.9484L30.5498 49.0461L30.8114 50.1397L31.0432 51.2273L31.2454 52.3069L31.4179 53.3765L31.5609 54.4341L31.6747 55.4778L31.7596 56.5058L31.816 57.516L31.8444 58.5066L31.8454 59.4759L31.8197 60.422L31.768 61.3432L31.6911 62.2379L31.59 63.1043L31.4656 63.9409L31.3189 64.7462L31.1511 65.5187L30.9633 66.257L30.7568 66.9598L30.5328 67.626L30.2927 68.2542L30.0379 68.8434L29.7698 69.3926L29.49 69.9009L29.1999 70.3675L28.901 70.7915L28.5951 71.1723L28.2836 71.5094L27.9682 71.8023L27.6506 72.0506L27.3324 72.2539L27.0153 72.4122L26.701 72.5252L26.391 72.5931L26.0872 72.6158L25.7912 72.5936L25.5045 72.5268L25.2288 72.4157L24.9657 72.2607L24.7168 72.0625L24.4837 71.8217L24.2677 71.5391L24.0704 71.2154L23.8932 70.8515L23.7375 70.4485L23.6045 70.0074L23.4956 69.5293L23.4118 69.0155L23.3545 68.4672L23.3246 67.8859L23.3231 67.2729L23.351 66.6297L23.4091 65.9578L23.4982 65.2589L23.619 64.5346L23.7721 63.7865L23.9581 63.0164L24.1774 62.2261L24.4303 61.4173L24.7171 60.5918L25.0381 59.7516L25.3933 58.8985L25.7826 58.0343L26.2062 57.1609L26.6636 56.2803L27.1548 55.3944L27.6792 54.5049L28.2366 53.6139L28.8263 52.7231L29.4476 51.8345L30.1 50.9498L30.7826 50.0709L31.4945 49.1996L32.2348 48.3375L33.0024 47.4863L33.7961 46.6478L34.6149 45.8236L35.4574 45.0151L36.3222 44.2239L37.2081 43.4514L38.1134 42.699L39.0368 41.968L39.9765 41.2597L40.931 40.5752L41.8986 39.9157L42.8775 39.2822L43.866 38.6756L44.8622 38.0967L45.8644 37.5464L46.8706 37.0254L47.879 36.5343L48.8877 36.0736L49.8946 35.6437L50.8979 35.245L51.8957 34.8778L52.8859 34.5422L53.8667 34.2384L54.8362 33.9662L55.7923 33.7256L56.7332 33.5165L57.6571 33.3385L58.562 33.1913L59.4461 33.0744L60.3077 32.9873L61.1451 32.9294L61.9564 32.9L62.7401 32.8983L63.4945 32.9234L64.2182 32.9745L64.9096 33.0505L65.5672 33.1504L66.1898 33.2731L66.7761 33.4173L67.3248 33.5818L67.8348 33.7652L68.305 33.9663L68.7346 34.1836L69.1224 34.4157L69.4679 34.6611L69.7701 34.9182L70.0286 35.1854L70.2428 35.4613L70.4122 35.7441L70.5364 36.0323L70.6153 36.3242L70.6486 36.6181L70.6362 36.9124L70.5783 37.2054L70.4749 37.4955L70.3262 37.781L70.1326 38.0603L69.8944 38.3317L69.6121 38.5937L69.2865 38.8446L68.918 39.083L68.5075 39.3072L68.0559 39.516L67.564 39.7077L67.0329 39.8811L66.4638 40.0347L65.8577 40.1674L65.216 40.2779L64.5399 40.3651L63.8309 40.4277L63.0904 40.4649L62.32 40.4757L61.5211 40.4591L60.6955 40.4144L59.8449 40.3408L58.9709 40.2376L58.0753 40.1044L57.1599 39.9406L56.2266 39.7458L55.2772 39.5197L54.3137 39.2621L53.3378 38.9728L52.3517 38.6518L51.3571 38.2991L50.3561 37.9148L49.3506 37.4992L48.3425 37.0527L47.3338 36.5754L46.3263 36.0681L45.322 35.5312L44.3228 34.9654L43.3306 34.3714L42.347 33.7501L41.374 33.1024L40.4133 32.4293L39.4666 31.7318L38.5355 31.0111L37.6217 30.2684L36.7267 29.5049L35.852 28.7222L34.9991 27.9214L34.1693 27.1042L33.3639 26.272L32.5841 25.4265L31.8312 24.5692L31.1061 23.7019L30.4099 22.8262L29.7436 21.944L29.1078 21.057L28.5035 20.167L27.9312 19.2758L27.3916 18.3854L26.8851 17.4976L26.4121 16.6143L25.973 15.7374L25.5679 14.8688L25.197 14.0103L24.8603 13.1639L24.5578 12.3315L24.2894 11.5148L24.0547 10.7158L23.8535 9.93614L23.6853 9.17773L23.5497 8.44228L23.4461 7.73147L23.3739 7.04698L23.3322 6.39043L23.3203 5.76336L23.3373 5.16729L23.3822 4.60367L23.4539 4.07388L23.5514 3.57924L23.6735 3.121L23.8189 2.70034L23.9864 2.31835L24.1747 1.97607L24.3822 1.67444L24.6077 1.41432L24.8495 1.19647L25.1063 1.02159L25.3763 0.890286L25.6582 0.803049L25.9501 0.760306L26.2506 0.762369L26.5579 0.809477L26.8704 0.901761L27.1865 1.03925L27.5044 1.2219L27.8225 1.44956L28.1391 1.72197L28.4526 2.0388L28.7613 2.39961L29.0636 2.80387L29.3579 3.25096L29.6426 3.74017L29.9163 4.2707L30.1774 4.84167L30.4244 5.45211L30.6559 6.10096L30.8707 6.78709L31.0672 7.50928L31.2443 8.26626L31.4009 9.05666L31.5357 9.87906L31.6476 10.732L31.7358 11.6138L31.7991 12.523L31.8369 13.4579L31.8483 14.4168L31.8325 15.3978L31.789 16.3993L31.7173 17.4193L31.6168 18.456L31.4873 19.5075L31.3283 20.5718L31.1398 21.647L30.9216 22.7312L30.6737 23.8223L30.3961 24.9184L30.089 26.0175L29.7528 27.1176L29.3876 28.2168L28.9939 29.3131L28.5723 30.4045L28.1233 31.4891L27.6477 32.565L27.1461 33.6304L26.6194 34.6835L26.0685 35.7223L25.4945 36.7453L24.8985 37.7506L24.2815 38.7367L23.6448 39.7019L22.9896 40.6448L22.3174 41.5637L21.6296 42.4574L20.9275 43.3245L20.2128 44.1636L19.4869 44.9737L18.7516 45.7536L18.0084 46.5022L17.2591 47.2186L16.5053 47.902L15.749 48.5514L14.9917 49.1663L14.2354 49.746L13.4818 50.29L12.7328 50.7979L11.9903 51.2693L11.256 51.7039L10.5318 52.1016L9.81949 52.4624L9.12098 52.7862L8.43804 53.0732L7.77243 53.3236L7.12593 53.5377L6.50027 53.7158L5.89714 53.8585L5.3182 53.9663L4.76507 54.0398L4.23931 54.0797L3.74246 54.0869L3.27596 54.0623L2.84124 54.0068L2.43964 53.9214L2.07243 53.8073L1.74083 53.6655L1.44599 53.4974L1.18897 53.3041L0.970753 53.0872L0.792258 52.8478L0.654309 52.5876L0.557649 52.3079L0.502935 52.0104L0.490737 51.6965L0.52153 51.3679L0.595699 51.0262L0.713544 50.673L0.875261 50.3101L1.08096 49.939L1.33065 49.5615L1.62426 49.1792L1.96159 48.794L2.34239 48.4074L2.76629 48.0211L3.23282 47.6369L3.74144 47.2564L4.29149 46.8811L4.88225 46.5128L5.5129 46.153L6.18253 45.8032L6.89014 45.465L7.63465 45.1398L8.41492 44.8289L9.22971 44.5339L10.0777 44.256L10.9575 43.9964L11.8677 43.7563L12.8068 43.537L13.7732 43.3393L14.7652 43.1644L15.7812 43.0131L16.8195 42.8864L17.8782 42.7848L18.9555 42.7093L20.0495 42.6602L21.1585 42.6383L22.2803 42.6438L23.4132 42.6772L24.555 42.7388L25.7039 42.8286L26.8578 42.9469L28.0147 43.0936L29.1726 43.2685L30.3295 43.4717L31.4834 43.7027L32.6323 43.9612L33.7743 44.2468L34.9074 44.559L36.0297 44.8971L37.1392 45.2606L38.2342 45.6485L39.3128 46.06L40.3733 46.4943L41.4139 46.9503L42.4329 47.4269L43.4287 47.923L44.3998 48.4373L45.3446 48.9687L46.2618 49.5157L47.1499 50.077L48.0077 50.651L48.834 51.2364L49.6275 51.8315L50.3873 52.4347L51.1123 53.0445L51.8017 53.6591L52.4547 54.2769L53.0705 54.8962L53.6485 55.5151L54.1882 56.132L54.689 56.7451L55.1507 57.3525L55.573 57.9525L55.9557 58.5433L56.2988 59.1232L56.6021 59.6903L56.8659 60.2429L57.0904 60.7793L57.2758 61.2978L57.4225 61.7966L57.5309 62.2741L57.6018 62.7287L57.6355 63.1589L57.633 63.563L57.595 63.9397L57.5223 64.2875L57.416 64.6049L57.2771 64.8908L57.1066 65.1438L56.9059 65.3628L56.676 65.5467L56.4183 65.6944L56.1341 65.8049L55.825 65.8774L55.4922 65.9111L55.1374 65.9053L54.7621 65.8593L54.3678 65.7726L53.9563 65.6447L53.5291 65.4753L53.0879 65.264L52.6344 65.0108L52.1704 64.7154L51.6976 64.378L51.2176 63.9986L50.7323 63.5774L50.2434 63.1147L49.7525 62.6108L49.2615 62.0664L48.772 61.4818L48.2857 60.8578L47.8043 60.1951L47.3293 59.4945L46.8625 58.757L46.4053 57.9836L45.9592 57.1753L45.5258 56.3334L45.1065 55.459L44.7026 54.5535L44.3155 53.6182L43.9464 52.6547L43.5964 51.6644L43.2669 50.6489L42.9587 49.61L42.6729 48.5492L42.4104 47.4682L42.1721 46.369L41.9586 45.2534L41.7707 44.1231L41.609 42.9802L41.474 41.8265L41.3661 40.6641L41.2856 39.4948L41.2329 38.3207L41.2081 37.1438L41.2112 35.9662L41.2422 34.7898L41.3011 33.6166L41.3877 32.4487L41.5016 31.288L41.6426 30.1365L41.8102 28.9962L42.0038 27.869L42.2228 26.7569L42.4666 25.6616L42.7344 24.585L43.0252 23.5289L43.3382 22.495L43.6724 21.485L44.0267 20.5005L44.3999 19.5431L44.7909 18.6143L45.1983 17.7156L45.6209 16.8483L46.0572 16.0137L46.5059 15.2131L46.9654 14.4476L47.4342 13.7182L47.9107 13.026L48.3933 12.3718L48.8805 11.7565L49.3705 11.1807L49.8616 10.6452L50.3522 10.1505L50.8404 9.69698L51.3247 9.28503L51.8032 8.91494L52.2743 8.58685L52.7361 8.30086L53.187 8.05695L53.6252 7.85499L54.0491 7.69481L54.4569 7.57609L54.8471 7.49845L55.218 7.46142L55.5681 7.46442L55.8957 7.50682L56.1995 7.58786L56.4778 7.70673L56.7295 7.86254L56.953 8.05429L57.1472 8.28094L57.3107 8.54136L57.4425 8.83436L57.5414 9.15867L57.6064 9.51296L57.6367 9.89586L57.6312 10.3059L57.5893 10.7416L57.5101 11.2015L57.3932 11.6839L57.238 12.1872L57.0439 12.7098L56.8108 13.2499L56.5382 13.8059L56.226 14.376L55.8742 14.9585L55.4827 15.5515L55.0516 16.1533L54.5812 16.7621L54.0717 17.3762L53.5235 17.9937L52.937 18.6128L52.3129 19.2319L51.6518 19.8491L50.9544 20.4629L50.2215 21.0713L49.4542 21.6729L48.6533 22.266L47.8199 22.849L46.9553 23.4203L46.0606 23.9785L45.1372 24.5222L44.1864 25.0499L43.2097 25.5603L42.2085 26.0521L41.1846 26.5243L40.1395 26.9755L39.0748 27.4048L37.9924 27.8112L36.8941 28.1937L35.7815 28.5516L34.6567 28.8841L33.5215 29.1904L32.3778 29.47L31.2276 29.7225L30.0728 29.9473L28.9155 30.1442L27.7577 30.3129L26.6013 30.4533L25.4483 30.5652L24.3008 30.6488L23.1608 30.7041L22.0302 30.7313L20.9111 30.7307L19.8053 30.7027L18.7147 30.6477L17.6414 30.5663L16.5871 30.4591L15.5536 30.3268L14.5428 30.1702L13.5563 29.9902L12.5959 29.7876L11.6631 29.5636L10.7595 29.3191L9.88661 29.0553L9.04588 28.7735L8.23865 28.4748L7.46621 28.1607L6.72979 27.8325L6.03053 27.4915L5.36948 27.1394L4.74761 26.7775L4.16581 26.4076L3.6249 26.031L3.12557 25.6495L2.66847 25.2647L2.2541 24.8782L1.88293 24.4918L1.55528 24.107L1.27141 23.7257L1.03149 23.3495L0.835556 22.9801L0.683592 22.6191L0.575465 22.2684L0.510955 21.9294L0.489746 21.6039L0.51143 21.2935L0.575512 20.9998L0.681399 20.7244L0.828417 20.4686L1.0158 20.2342L1.24272 20.0223L1.50823 19.8346L1.81133 19.6722L2.15093 19.5364L2.52588 19.4286L2.93496 19.3497L3.37685 19.301L3.85021 19.2834L4.35361 19.2978L4.88558 19.3451L5.44458 19.4262L6.02903 19.5416L6.63731 19.6921L7.26774 19.8782L7.91863 20.1003L8.58824 20.3588L9.2748 20.654L9.97652 20.986L10.6916 21.355L11.4182 21.7609L12.1545 22.2037L12.8986 22.6832L13.6488 23.1991L14.4031 23.7511L15.1598 24.3387L15.917 24.9613L16.673 25.6183L17.4259 26.3091L18.174 27.0327L18.9156 27.7884L19.649 28.5751L20.3725 29.3917L21.0845 30.2372L21.7836 31.1102L22.4681 32.0097L23.1366 32.934L23.7878 33.882L24.4202 34.852L25.0327 35.8425L25.6239 36.8519L26.1929 37.8785L26.7384 38.9207L27.2596 39.9766L27.7555 41.0445L28.2254 42.1225L28.6683 43.2088L29.0838 44.3015L29.4712 45.3985L29.83 46.4981L30.1598 47.5982L30.4603 48.6968L30.7313 49.7919L30.9726 50.8817L31.1842 51.964L31.3662 53.037L31.5186 54.0986L31.6416 55.147L31.7357 56.1802L31.8011 57.1962L31.8384 58.1933L31.848 59.1696L31.8308 60.1233L31.7873 61.0526L31.7183 61.9559L31.6248 62.8314L31.5077 63.6777L31.368 64.4931L31.2068 65.2762L31.0252 66.0256L30.8245 66.7399L30.6059 67.4179L30.3708 68.0583L30.1206 68.66L29.8566 69.2221L29.5803 69.7435L29.2933 70.2235L28.9971 70.6611L28.6932 71.0558L28.3833 71.4068L28.069 71.7138L27.7519 71.9763L27.4337 72.194L27.1161 72.3667L26.8007 72.4941L26.4892 72.5764L26.1832 72.6134L25.8845 72.6055L25.5947 72.5529L25.3153 72.4558L25.0481 72.3148L24.7945 72.1303L24.5561 71.903L24.3345 71.6336L24.1311 71.3229L23.9474 70.9717L23.7847 70.581L23.6443 70.1519L23.5276 69.6855L23.4357 69.183L23.3698 68.6455L23.3311 68.0746L23.3204 67.4715L23.3389 66.8378L23.3873 66.1749L23.4664 65.4844L23.5771 64.768L23.7198 64.0273L23.8953 63.264L24.1039 62.4799L24.346 61.6768L24.6221 60.8565L24.9321 60.0207L25.2764 59.1715L25.6549 58.3106L26.0676 57.44L26.5142 56.5615L26.9947 55.677L27.5086 54.7885L28.0555 53.8978L28.635 53.0067L29.2463 52.1172L29.8889 51.2311L30.562 50.3502L31.2646 49.4762L31.996 48.611L32.755 47.7562L33.5405 46.9135L34.3515 46.0845L35.1865 45.2708L36.0444 44.4739L36.9237 43.6953L37.823 42.9364L38.7408 42.1984L39.6755 41.4828L40.6255 40.7906L41.5891 40.123L42.5646 39.4811L43.5502 38.8658L44.5442 38.278L45.5447 37.7186L46.5498 37.1882L47.5577 36.6875L48.5665 36.217L49.5742 35.7773L50.5788 35.3686L51.5786 34.9914L52.5714 34.6457L53.5555 34.3317L54.5287 34.0495L55.4893 33.7988L56.4353 33.5797L57.3648 33.3918L58.2759 33.2348L59.1669 33.1083L60.0358 33.0118L60.8811 32.9447L61.7009 32.9063L62.4936 32.8958L63.2575 32.9125L63.9911 32.9555L64.6929 33.0237L65.3615 33.1161L65.9954 33.2316L66.5934 33.3691L67.1542 33.5272L67.6766 33.7048L68.1596 33.9004L68.6022 34.1127L69.0035 34.3403L69.3625 34.5816L69.6786 34.8351L69.9511 35.0993L70.1794 35.3726L70.3631 35.6534L70.5018 35.94L70.5951 36.2309L70.6429 36.5244L70.6451 36.8187L70.6017 37.1123L70.5127 37.4035L70.3784 37.6907L70.1991 37.9721L69.9751 38.2462L69.7068 38.5113L69.3949 38.766L69.04 39.0085L68.6427 39.2374L68.2041 39.4512L67.725 39.6486L67.2063 39.8279L66.6491 39.988L66.0547 40.1275L65.4242 40.2452L64.7589 40.3399L64.0602 40.4105L63.3296 40.4559L62.5686 40.4752L61.7786 40.4674L60.9613 40.4317L60.1185 40.3674L59.2517 40.2737L58.3628 40.1502L57.4535 39.9961L56.5257 39.8113L55.5812 39.5951L54.622 39.3476L53.6499 39.0684L52.6668 38.7575L51.6747 38.4148L50.6756 38.0406L49.6713 37.635L48.6638 37.1982L47.655 36.7307L46.647 36.2329L45.6415 35.7054L44.6405 35.1487L43.6458 34.5636L42.6593 33.9509L41.6827 33.3115L40.7179 32.6464L39.7665 31.9565L38.8303 31.2431L37.9108 30.5073L37.0096 29.7503L36.1283 28.9735L35.2683 28.1783L34.431 27.3662L33.6177 26.5386L32.8296 25.6972L32.068 24.8435L31.334 23.9792L30.6285 23.106L29.9525 22.2256L29.307 21.3399L28.6926 20.4507L28.11 19.5597L27.5599 18.6689L27.0428 17.78L26.5591 16.8951L26.1092 16.0159L25.6932 15.1445L25.3114 14.2826L24.9639 13.4321L24.6505 12.595L24.3712 11.7731L24.1258 10.9683L23.9139 10.1823L23.7353 9.4169L23.5894 8.67394L23.4757 7.95511L23.3935 7.26206L23.3422 6.59643L23.3209 5.95981L23.3288 5.35371L23.3649 4.77959L23.4282 4.23888L23.5176 3.73291L23.632 3.26294L23.7701 2.83018L23.9308 2.43576L24.1125 2.08073L24.3141 1.76605L24.534 1.49262L24.7708 1.26123L25.023 1.07259L25.289 0.927349L25.5672 0.826027L25.8561 0.769068L26.1541 0.756834L26.4594 0.789573L26.7704 0.867458L27.0855 0.990554L27.403 1.15883L27.7212 1.37217L28.0385 1.63036L28.3531 1.93308L28.6635 2.27994L28.9681 2.67042L29.2651 3.10394L29.5531 3.57981L29.8304 4.09728L30.0957 4.65547L30.3473 5.25345L30.584 5.89018L30.8042 6.56456L31.0066 7.2754L31.1901 8.02144L31.3533 8.80135L31.4952 9.61372L31.6145 10.4571L31.7103 11.3299L31.7817 12.2306L31.8277 13.1575L31.8475 14.1089L31.8405 15.083L31.8059 16.0782L31.7432 17.0925L31.652 18.1241L31.5317 19.1711L31.3821 20.2315L31.2031 21.3035L30.9943 22.385L30.7558 23.4741L30.4877 24.5689L30.19 25.6672L29.863 26.7672L29.507 27.8669L29.1224 28.9643L28.7096 30.0575L28.2693 31.1444L27.802 32.2234L27.3086 33.2923L26.7898 34.3495L26.2465 35.393L25.6798 36.4213L25.0907 37.4324L24.4802 38.4248L23.8496 39.3968L23.2002 40.347L22.5333 41.2737L21.8503 42.1756L21.1526 43.0513L20.4417 43.8994L19.7192 44.7189L18.9867 45.5085L18.2459 46.2672L17.4983 46.994L16.7458 47.6879L15.9901 48.3483L15.2329 48.9743L14.4761 49.5652L13.7214 50.1207L12.9708 50.6401L12.226 51.1231L11.4888 51.5694L10.7612 51.979L10.045 52.3515L9.34188 52.6871L8.65377 52.9858L7.98246 53.2478L7.32968 53.4734L6.6972 53.663L6.08671 53.8169L5.49989 53.9357L4.93836 54.02L4.40372 54.0706L3.8975 54.0881L3.42117 54.0736L2.97618 54.0278L2.56389 53.9518L2.18559 53.8467L1.84252 53.7136L1.53585 53.5537L1.26667 53.3683L1.03599 53.1588L0.844751 52.9264L0.693802 52.6727L0.583917 52.399L0.515774 52.107L0.489978 51.7982L0.507028 51.4741L0.567344 51.1364L0.671252 50.7867L0.818978 50.4266L1.01066 50.058L1.24635 49.6823L1.52598 49.3014L1.84941 48.9169L2.2164 48.5306L2.62661 48.144L3.07962 47.759L3.5749 47.3771L4.11183 47L4.68971 46.6293L5.30774 46.2666L5.96506 45.9135L6.66068 45.5714L7.39357 45.2419L8.16257 44.9263L8.9665 44.6261L9.80407 44.3426L10.6739 44.077L11.5746 43.8306L12.5047 43.6045L13.4625 43.3999L14.4465 43.2176L15.4551 43.0587L16.4864 42.924L17.5388 42.8144L18.6104 42.7305L19.6993 42.6729L20.8037 42.6423L21.9217 42.639L23.0513 42.6635L24.1905 42.7161L25.3373 42.7969L26.4898 42.9061L27.646 43.0438L28.8038 43.2097L29.9612 43.4039L31.1163 43.6261L32.267 43.8759L33.4115 44.1529L34.5476 44.4567L35.6735 44.7867L36.7873 45.1421L37.8871 45.5223L38.9711 45.9264L40.0376 46.3536L41.0847 46.8027L42.1107 47.2729L43.1141 47.7629L44.0932 48.2716L45.0466 48.7977L45.9727 49.3398L46.8703 49.8967L47.7379 50.4669L48.5743 51.0488L49.3784 51.6409L50.149 52.2418L50.8852 52.8497L51.5861 53.4629L52.2507 54.0799L52.8784 54.6989L53.4685 55.3181L54.0204 55.9358L54.5337 56.5503L55.0079 57.1597L55.4428 57.7623L55.8381 58.3562L56.1938 58.9398L56.5098 59.5111L56.7862 60.0686L57.0231 60.6103L57.2209 61.1347L57.3799 61.6399L57.5005 62.1244L57.5833 62.5865L57.6287 63.0246L57.6377 63.4372L57.6109 63.8228L57.5492 64.1799L57.4535 64.5072L57.3248 64.8032L57.1643 65.0669L56.973 65.2968L56.7523 65.492L56.5033 65.6513L56.2274 65.7738L55.9261 65.8585L55.6007 65.9047L55.2527 65.9115L54.8838 65.8784L54.4954 65.8047L54.0891 65.6899L53.6667 65.5338L53.2298 65.3358L52.7801 65.096L52.3192 64.8141L51.849 64.49L51.3712 64.124L50.8874 63.7161L50.3994 63.2665L49.909 62.7758L49.4178 62.2442L48.9277 61.6723L48.4402 61.0608L47.957 60.4103L47.4798 59.7217L47.0102 58.9959L46.5498 58.2338L46.1 57.4365L45.6624 56.6051L45.2385 55.7409L44.8295 54.8452L44.4369 53.9193L44.0619 52.9646L43.7058 51.9826L43.3696 50.975L43.0545 49.9434L42.7614 48.8893L42.4914 47.8146L42.2453 46.721L42.0238 45.6104L41.8277 44.4846L41.6576 43.3455L41.5141 42.195L41.3975 41.0352L41.3083 39.8678L41.2467 38.6951L41.2129 37.5189L41.2071 36.3413L41.2293 35.1642L41.2793 33.9898L41.3571 32.82L41.4624 31.6568L41.5948 30.5022L41.754 29.3581L41.9393 28.2266L42.1504 27.1094L42.3863 26.0085L42.6465 24.9258L42.9301 23.8629L43.2362 22.8218L43.5637 21.804L43.9117 20.8112L44.2791 19.845L44.6645 18.907L45.0668 17.9985L45.4847 17.1211L45.9169 16.2759L46.3617 15.4644L46.8179 14.6875L47.2839 13.9465L47.7581 13.2424L48.239 12.576L48.7249 11.9482L49.2142 11.3598L49.7051 10.8114L50.1961 10.3036L50.6853 9.83694L51.171 9.41172L51.6515 9.02827L52.1251 8.68679L52.5901 8.38739L53.0446 8.13008L53.4871 7.91478L53.9157 7.74132L54.3288 7.60942L54.7248 7.51875L55.1021 7.46884L55.4589 7.45916L55.7939 7.48908L56.1054 7.5579L56.392 7.66482L56.6523 7.80896L56.8849 7.98937L57.0886 8.20503L57.262 8.45482L57.404 8.73757L57.5135 9.05205L57.5894 9.39694L57.6309 9.77088L57.6369 10.1724L57.6066 10.6002L57.5394 11.0525L57.4346 11.5279L57.2916 12.0247L57.11 12.5413L56.8893 13.0761L56.6293 13.6272L56.3298 14.193L55.9905 14.7717L55.6117 15.3615L55.1932 15.9608L54.7353 16.5675L54.2382 17.1801L53.7022 17.7967L53.1279 18.4155L52.5158 19.0348L51.8663 19.6528L51.1804 20.2679L50.4588 20.8782L49.7023 21.4821L48.912 22.0781L48.0888 22.6645L47.234 23.2397L46.3488 23.8022L45.4344 24.3507L44.4921 24.8836L43.5235 25.3996L42.53 25.8976L41.5131 26.3761L40.4746 26.8341L39.416 27.2705L38.339 27.6843L37.2456 28.0745L36.1373 28.4404L35.0162 28.781L33.8841 29.0957L32.7429 29.3839L31.5945 29.6451L30.441 29.8787L29.2843 30.0846L28.1264 30.2623L26.9693 30.4117L25.8151 30.5327L24.6656 30.6253L23.523 30.6895L22.3892 30.7257L21.2662 30.7339L20.1559 30.7146L19.0603 30.6681L17.9813 30.5951L16.9208 30.496L15.8805 30.3716L14.8622 30.2227L13.8678 30.05L12.8989 29.8545L11.9571 29.6372L11.0441 29.3991L10.1612 29.1414L9.3101 28.8651L8.49206 28.5717L7.7084 28.2624L6.96039 27.9385L6.24917 27.6014L5.57583 27.2527L4.94138 26.8938L4.34673 26.5262L3.79271 26.1516L3.28007 25.7715L2.80945 25.3875L2.38142 25.0014L1.99645 24.6148L1.6549 24.2293L1.35707 23.8467L1.10313 23.4687L0.893191 23.0969L0.727232 22.7331L0.605161 22.3789L0.52679 22.036L0.491826 21.706L0.499896 21.3907L0.550534 21.0915L0.643172 20.81L0.777166 20.5479L0.951785 20.3064L1.16621 20.0873L1.41953 19.8917L1.71076 19.7211L2.03886 19.5767L2.40269 19.4598L2.80103 19.3716L3.23261 19.3132L3.6961 19.2855L4.19009 19.2896L4.71312 19.3264L5.26368 19.3966L5.8402 19.5011L6.44107 19.6404L7.06463 19.815L7.70919 20.0256L8.37303 20.2725L9.05438 20.556L9.75146 20.8762L10.4625 21.2334L11.1856 21.6276L11.919 22.0587L12.6609 22.5265L13.4093 23.0309L14.1625 23.5714L14.9187 24.1477L15.6759 24.7592L16.4324 25.4054L17.1865 26.0855L17.9363 26.7987L18.6802 27.5443L19.4163 28.3212L20.1432 29.1284L20.8591 29.9648L21.5624 30.8292L22.2517 31.7204L22.9255 32.637L23.5823 33.5776L24.2209 34.5407L24.8398 35.5248L25.438 36.5284L26.0141 37.5497L26.5672 38.5871L27.0963 39.6389L27.6004 40.7032L28.0786 41.7782L28.5302 42.862L28.9545 43.9529L29.3508 45.0487L29.7188 46.1477L30.0579 47.2478L30.3677 48.3471L30.6482 49.4436L30.8989 50.5353L31.12 51.6202L31.3114 52.6964L31.4732 53.7618L31.6056 54.8146L31.7089 55.8528L31.7834 56.8745L31.8295 57.8779L31.8479 58.861L31.8392 59.822L31.8039 60.7593L31.743 61.6711L31.6572 62.5556L31.5475 63.4114L31.4149 64.2368L31.2604 65.0304L31.0852 65.7906L30.8904 66.5163L30.6774 67.2059L30.4474 67.8584L30.2019 68.4726L29.9421 69.0474L29.6696 69.5819L29.3858 70.0751L29.0923 70.5263L28.7907 70.9347L28.4826 71.2998L28.1695 71.6209L27.8531 71.8976L27.5351 72.1296L27.2171 72.3166L26.9008 72.4584L26.5879 72.5551L26.28 72.6065L25.9788 72.6129L25.6859 72.5745L25.4031 72.4915L25.1318 72.3645L24.8737 72.1938L24.6303 71.98L24.4032 71.724L24.1939 71.4263L24.0037 71.0879L23.8341 70.7097L23.6865 70.2927L23.5621 69.8381L23.4622 69.3469L23.3879 68.8204L23.3404 68.26L23.3207 67.667L23.3298 67.0429L23.3685 66.3891L23.4378 65.7072L23.5384 64.9989L23.6708 64.2657L23.8358 63.5095L24.0338 62.7318L24.2652 61.9346L24.5304 61.1195L24.8297 60.2885L25.163 59.4434L25.5306 58.586L25.9324 57.7183L26.3683 56.8421L26.838 55.9593L27.3413 55.0718L27.8777 54.1816L28.4469 53.2905L29.0482 52.4003L29.6809 51.5129L30.3443 50.6301L31.0377 49.7537L31.76 48.8855L32.5103 48.0272L33.2875 47.1805L34.0905 46.347L34.918 45.5282L35.7688 44.7258L36.6414 43.9412L37.5345 43.1759L38.4466 42.4311L39.376 41.7083L40.3213 41.0085L41.2808 40.3329L42.2527 39.6827L43.2353 39.0589L44.2268 38.4622L45.2254 37.8937L46.2292 37.3539L47.2365 36.8437L48.2452 36.3635L49.2534 35.914L50.2593 35.4954L51.2608 35.1081L52.2561 34.7524L53.2431 34.4283L54.22 34.1359L55.1848 33.8752L56.1356 33.6461L57.0706 33.4483L57.9878 33.2815L58.8854 33.1454L59.7615 33.0394L60.6145 32.9629L61.4426 32.9155L62.2441 32.8962L63.0174 32.9043L63.7608 32.939L64.4729 32.9993L65.1522 33.0841L65.7973 33.1924L66.4069 33.323L66.9797 33.4747L67.5144 33.6462L68.0101 33.8363L68.4657 34.0434L68.8802 34.2662L69.2528 34.5033L69.5826 34.7531L69.8691 35.0141L70.1115 35.2846L70.3095 35.5632L70.4625 35.8482L70.5703 36.1379L70.6326 36.4307L70.6493 36.725L70.6205 37.019L70.546 37.3111L70.4261 37.5998L70.2611 37.8832L70.0512 38.1598L69.797 38.428L69.4989 38.6861L69.1576 38.9326L68.7738 39.1661L68.3483 39.3849L67.8819 39.5876L67.3757 39.7728L66.8307 39.9392L66.248 40.0854L65.6289 40.2102L64.9745 40.3123L64.2863 40.3907L63.5657 40.4442L62.8142 40.4719L62.0333 40.4729L61.2245 40.4462L60.3896 40.391L59.5303 40.3068L58.6482 40.1928L57.7452 40.0485L56.8231 39.8735L55.8838 39.6674L54.929 39.4299L53.9608 39.1607L52.981 38.8599L51.9916 38.5274L50.9945 38.1632L49.9916 37.7676L48.9849 37.3407L47.9764 36.883L46.9679 36.3948L45.9614 35.8766L44.9587 35.3291L43.9618 34.753L42.9725 34.149L41.9926 33.518L41.0238 32.861L40.068 32.1789L39.1268 31.4728L38.2018 30.744L37.2946 29.9936L36.4068 29.223L35.5399 28.4335L34.6952 27.6266L33.8741 26.8038L33.0778 25.9666L32.3077 25.1166L31.5647 24.2555L30.8501 23.385L30.1646 22.5067L29.5093 21.6225L28.8848 20.7342L28.2921 19.8436L27.7316 18.9525L27.2039 18.0628L26.7096 17.1764L26.2488 16.2952L25.822 15.4211L25.4293 14.556L25.0709 13.7017L24.7466 12.8601L24.4565 12.0332L24.2003 11.2227L23.9778 10.4305L23.7886 9.65834L23.6324 8.90806L23.5085 8.18136L23.4163 7.47992L23.3553 6.80538L23.3245 6.15935L23.3232 5.54337L23.3504 4.95891L23.4051 4.40741L23.4864 3.89022L23.5929 3.40865L23.7236 2.96392L23.8772 2.55717L24.0524 2.18948L24.2478 1.86185L24.4621 1.57519L24.6936 1.33033L24.9411 1.128L25.2028 0.96887L25.4774 0.853506L25.7631 0.782375L26.0583 0.755859L26.3614 0.774253L26.6708 0.837746L26.9848 0.946435L27.3017 1.10033L27.6199 1.29934L27.9376 1.54327L28.2533 1.83185L28.5652 2.16469L28.8718 2.54134L29.1714 2.96122L29.4624 3.42368L29.7433 3.92799L30.0126 4.4733L30.2687 5.05871L30.5103 5.68322L30.7359 6.34573L30.9442 7.04509L31.1338 7.78007L31.3036 8.54933L31.4524 9.35152L31.579 10.1852L31.6824 11.0488L31.7617 11.9407L31.8158 12.8595L31.8441 13.8033L31.8457 14.7704L31.82 15.759L31.7663 16.7674L31.6842 17.7937L31.5732 18.836L31.433 19.8924L31.2633 20.9609L31.064 22.0396L30.835 23.1265L30.5763 24.2197L30.2881 25.3171L29.9704 26.4168L29.6236 27.5168L29.248 28.6151L28.8441 29.7098L28.4125 30.799L27.9537 31.8807L27.4686 32.953L26.9577 34.0141L26.4222 35.0622L25.8628 36.0955L25.2807 37.1123L24.6769 38.1108L24.0526 39.0895L23.4091 40.0468L22.7476 40.9811L22.0695 41.8911L21.3763 42.7752L20.6695 43.6323L19.9505 44.4611L19.221 45.2603L18.4827 46.029L17.7371 46.766L16.9859 47.4705L16.231 48.1416L15.4741 48.7786L14.717 49.3808L13.9615 49.9476L13.2093 50.4786L12.4625 50.9732L11.7227 51.4313L10.9919 51.8525L10.2718 52.2368L9.56429 52.5842L8.87122 52.8946L8.19436 53.1683L7.53549 53.4055L6.89636 53.6065L6.27868 53.7717L5.68414 53.9016L5.11438 53.9969L4.57101 54.0581L4.05557 54.0861L3.56956 54.0816L3.11444 54.0457L2.69159 53.9792L2.30232 53.8833L1.9479 53.7589L1.62952 53.6075L1.34828 53.4301L1.10523 53.2281L0.901332 53.0028L0.737461 52.7557L0.614419 52.4883L0.53291 52.2019L0.493567 51.8983L0.49692 51.5789L0.543414 51.2453L0.633407 50.8993L0.767157 50.5423L0.94483 50.1762L1.1665 49.8026L1.43214 49.4232L1.74164 49.0397L2.09479 48.6537L2.49128 48.2671L2.93071 47.8814L3.41258 47.4983L3.93632 47.1195L4.50124 46.7466L5.10657 46.3812L5.75148 46.0248L6.43501 45.6791L7.15614 45.3454L7.91377 45.0252L8.70672 44.72L9.53371 44.431L10.3934 44.1596L11.2844 43.907L12.2053 43.6743L13.1545 43.4627L14.1304 43.2732L15.1313 43.1067L16.1556 42.9643L17.2014 42.8466L18.2671 42.7544L19.3507 42.6884L20.4504 42.6491L21.5642 42.6371L22.6903 42.6527L23.8267 42.6963L24.9713 42.7681L26.1222 42.8683L27.2774 42.9968L28.4349 43.1538L29.5927 43.339L30.7488 43.5523L31.9011 43.7933L33.0477 44.0617L34.1867 44.3571L35.3161 44.6788L36.4339 45.0262L37.5384 45.3986L38.6277 45.7952L39.6999 46.2151L40.7533 46.6573L41.7863 47.1209L42.797 47.6047L43.7841 48.1076L44.7458 48.6283L45.6808 49.1655L46.5876 49.7178L47.4648 50.2839L48.3113 50.8622L49.1258 51.4513L49.9072 52.0495L50.6545 52.6554L51.3667 53.2671L52.043 53.8831L52.6825 54.5016L53.2847 55.1209L53.8488 55.7394L54.3744 56.355L54.8611 56.9663L55.3086 57.5712L55.7165 58.1681L56.0848 58.7551L56.4134 59.3306L56.7024 59.8926L56.9519 60.4396L57.1622 60.9696L57.3335 61.4811L57.4662 61.9724L57.561 62.4418L57.6183 62.8878L57.6388 63.3087L57.6233 63.703L57.5726 64.0693L57.4876 64.4062L57.3693 64.7124L57.2188 64.9865L57.0372 65.2273L56.8257 65.4337L56.5856 65.6045L56.3181 65.7388L56.0247 65.8357L55.7068 65.8942L55.3659 65.9136L55.0035 65.8933L54.6211 65.8326L54.2204 65.731L53.8029 65.588L53.3705 65.4034L52.9246 65.1769L52.4671 64.9084L51.9997 64.5978L51.5241 64.2451L51.042 63.8505L50.5552 63.4142L50.0653 62.9365L49.5742 62.4179L49.0836 61.8588L48.5951 61.2598L48.1103 60.6217L47.6311 59.9451L47.1589 59.2311L46.6954 58.4804L46.242 57.6942L45.8004 56.8736L45.372 56.0197L44.9581 55.1339L44.5601 54.2174L44.1794 53.2717L43.8171 52.2983L43.4744 51.2987L43.1525 50.2745L42.8523 49.2274L42.5749 48.1591L42.3211 47.0713L42.0917 45.9659L41.8874 44.8447L41.709 43.7097L41.5569 42.5626L41.4317 41.4055L41.3337 40.2404L41.2633 39.0691L41.2207 37.8938L41.206 36.7164L41.2192 35.539L41.2604 34.3635L41.3294 33.192L41.4259 32.0265L41.5497 30.8689L41.7004 29.7213L41.8775 28.5855L42.0804 27.4636L42.3085 26.3573L42.5611 25.2686L42.8373 24.1992L43.1363 23.151L43.4571 22.1255L43.7987 21.1246L44.16 20.1498L44.5398 19.2026L44.9369 18.2846L45.35 17.3971L45.7778 16.5416L46.2187 15.7192L46.6715 14.9311L47.1345 14.1786L47.6063 13.4626L48.0852 12.7841L48.5697 12.1439L49.0581 11.5429L49.5487 10.9817L50.0398 10.4609L50.5297 9.98111L51.0168 9.54265L51.4991 9.14586L51.9751 8.791L52.443 8.47819L52.9011 8.20747L53.3476 7.97881L53.7808 7.79204L54.199 7.64694L54.6007 7.54319L54.984 7.48035L55.3476 7.45791L55.6896 7.47529L56.0088 7.5318L56.3035 7.62668L56.5723 7.75906L56.8139 7.92803L57.0269 8.13258L57.2101 8.37162L57.3623 8.644L57.4822 8.94851L57.569 9.28386L57.6215 9.6487L57.6388 10.0416L57.6202 10.4612L57.5649 10.9058L57.4721 11.3741L57.3413 11.8642L57.1721 12.3747L56.9639 12.9039L56.7164 13.45L56.4295 14.0113L56.1029 14.5861L55.7367 15.1726L55.3308 15.769L54.8854 16.3735L54.4008 16.9845L53.8771 17.6L53.315 18.2183L52.7148 18.8376L52.0772 19.4562L51.4028 20.0724L50.6925 20.6844L49.947 21.2905L49.1673 21.8892L48.3545 22.4788L47.5097 23.0577L46.634 23.6245L45.7287 24.1776L44.7952 24.7156L43.8348 25.2372L42.8491 25.741L41.8395 26.2258L40.8076 26.6905L39.7552 27.1339L38.684 27.555L37.5956 27.9528L36.4918 28.3265L35.3746 28.6753L34.2458 28.9983L33.1073 29.295L31.961 29.5648L30.8089 29.8073L29.653 30.022L28.4952 30.2087L27.3377 30.3672L26.1823 30.4972L25.0311 30.5989L23.8861 30.6721L22.7493 30.7172L21.6226 30.7343L20.5081 30.7237L19.4076 30.6858L18.3231 30.6212L17.2565 30.5304L16.2095 30.414L15.1841 30.2728L14.1819 30.1075L13.2047 29.9192L12.2541 29.7087L11.3317 29.4772L10.4391 29.2255L9.57769 28.9551L8.74896 28.667L7.95421 28.3625L7.19471 28.0431L6.47165 27.7101L5.78614 27.3649L5.1392 27.0091L4.53177 26.6441L3.96473 26.2716L3.43883 25.893L2.95476 25.5101L2.51311 25.1245L2.11438 24.7379L1.75896 24.3519L1.44718 23.9682L1.17925 23.5885L0.955287 23.2145L0.775326 22.848L0.639292 22.4906L0.547027 22.1439L0.498273 21.8096L0.492683 21.4895L0.529817 21.1849L0.60914 20.8977L0.730039 20.6292L0.891803 20.381L1.09364 20.1546L1.33467 19.9513L1.61394 19.7726L1.93042 19.6198L2.28299 19.494L2.67047 19.3965L3.09161 19.3285L3.54509 19.2909L4.02952 19.2848L4.54346 19.3111L5.08542 19.3706L5.65384 19.4641L6.24713 19.5922L6.86364 19.7555L7.5017 19.9546L8.15959 20.1899L8.83555 20.4617L9.52782 20.7702L10.2346 21.1156L10.9541 21.498L11.6844 21.9174L12.4238 22.3735L13.1703 22.8663L13.9222 23.3953L14.6776 23.9603L15.4347 24.5606L16.1916 25.1958L16.9467 25.8652L17.6981 26.568L18.444 27.3033L19.1828 28.0704L19.9128 28.868L20.6323 29.6953L21.3398 30.5509L22.0338 31.4337L22.7126 32.3423L23.375 33.2754L24.0195 34.2316L24.6449 35.2092L25.2498 36.2067L25.8331 37.2226L26.3936 38.2551L26.9305 39.3024L27.4426 40.3629L27.9291 41.4347L28.3893 42.5159L28.8223 43.6048L29.2276 44.6992L29.6047 45.7974L29.953 46.8974L30.2722 47.9972L30.5621 49.0947L30.8223 50.1882L31.0528 51.2755L31.2537 52.3546L31.4249 53.4237L31.5666 54.4808L31.6791 55.5238L31.7627 56.551L31.8179 57.5604L31.845 58.5501L31.8449 59.5184L31.818 60.4635L31.7651 61.3835L31.6872 62.2769L31.585 63.1421L31.4595 63.9773L31.3119 64.7812L31.1432 65.5522L30.9545 66.289L30.7472 66.9902L30.5225 67.6547L30.2817 68.2812L30.0263 68.8687L29.7577 69.4161L29.4773 69.9226L29.1868 70.3872L28.8876 70.8093L28.5813 71.1882L28.2697 71.5234L27.9541 71.8143L27.6365 72.0605L27.3183 72.2619L27.0013 72.4181L26.6871 72.5292L26.3774 72.595L26.0739 72.6158L25.7782 72.5916L25.492 72.5228L25.2168 72.4097L24.9544 72.2528L24.7061 72.0527L24.4737 71.8101L24.2585 71.5256L24.0621 71.2001L23.8858 70.8344L23.7311 70.4297L23.5991 69.9869L23.4913 69.5072L23.4087 68.9919L23.3526 68.4421L23.3239 67.8593L23.3237 67.245L23.3529 66.6005L23.4124 65.9274L23.5029 65.2273L23.6251 64.5019L23.7797 63.7528L23.9671 62.9817L24.1879 62.1905L24.4423 61.3809L24.7307 60.5548L25.0531 59.714L25.4098 58.8603L25.8007 57.9957L26.2258 57.122L26.6847 56.2411L27.1774 55.3549L27.7033 54.4654L28.2621 53.5743L28.8532 52.6836L29.476 51.7951L30.1297 50.9107L30.8136 50.0321L31.5268 49.1611L32.2683 48.2994L33.0371 47.4488L33.832 46.6109L34.6518 45.7873L35.4953 44.9795L36.3611 44.1891L37.2479 43.4175L38.1541 42.666L39.0782 41.9361L40.0186 41.2288L40.9737 40.5454L41.9418 39.887L42.9212 39.2547L43.9101 38.6493L44.9066 38.0717L45.909 37.5227L46.9154 37.003L47.9238 36.5132L48.9324 36.0538L49.9392 35.6253L50.9424 35.2281L51.9398 34.8622L52.9297 34.5281L53.91 34.2256L54.8789 33.9548L55.8344 33.7157L56.7746 33.5079L57.6977 33.3313L58.6017 33.1854L59.4849 33.0699L60.3454 32.9841L61.1817 32.9275L61.9918 32.8993L62.7742 32.8988L63.5273 32.9251L64.2496 32.9774L64.9395 33.0545L65.5956 33.1554L66.2167 33.279L66.8013 33.4242L67.3483 33.5895L67.8565 33.7738L68.325 33.9756L68.7527 34.1936L69.1387 34.4263L69.4822 34.6722L69.7826 34.9298L70.0391 35.1975L70.2513 35.4737L70.4187 35.7568L70.5409 36.0452L70.6177 36.3372L70.649 36.6312" stroke="#FFC700" stroke-width="0.8"/>
</svg>
