<svg width="72" height="74" viewBox="0 0 72 74" fill="none" xmlns="http://www.w3.org/2000/svg">
<path d="M70.6498 36.955L70.6489 37.0629L70.6463 37.1709L70.642 37.2788L70.6359 37.3868L70.6282 37.4947L70.6187 37.6027L70.6074 37.7106L70.5945 37.8185L70.5798 37.9265L70.5634 38.0344L70.5453 38.1423L70.5255 38.2502L70.5039 38.3581L70.4806 38.466L70.4556 38.5739L70.4289 38.6818L70.4005 38.7896L70.3703 38.8975L70.3385 39.0053L70.3049 39.1131L70.2696 39.221L70.2327 39.3288L70.194 39.4365L70.1536 39.5443L70.1115 39.6521L70.0677 39.7598L70.0222 39.8675L69.975 39.9752L69.9261 40.0829L69.8756 40.1906L69.8233 40.2982L69.7694 40.4058L69.7138 40.5134L69.6565 40.621L69.5975 40.7286L69.5369 40.8361L69.4746 40.9436L69.4106 41.0511L69.345 41.1585L69.2777 41.2659L69.2087 41.3733L69.1381 41.4807L69.0659 41.588L68.992 41.6953L68.9165 41.8026L68.8393 41.9099L68.7605 42.0171L68.6801 42.1242L68.598 42.2314L68.5144 42.3385L68.4291 42.4455L68.3422 42.5526L68.2537 42.6595L68.1636 42.7665L68.0719 42.8734L67.9786 42.9803L67.8838 43.0871L67.7873 43.1938L67.6893 43.3006L67.5897 43.4073L67.4885 43.5139L67.3858 43.6205L67.2815 43.727L67.1757 43.8335L67.0683 43.9399L66.9594 44.0463L66.8489 44.1527L66.737 44.2589L66.6235 44.3652L66.5085 44.4713L66.392 44.5774L66.2739 44.6835L66.1544 44.7894L66.0334 44.8954L65.9109 45.0012L65.787 45.107L65.6615 45.2127L65.5346 45.3184L65.4062 45.424L65.2764 45.5295L65.1452 45.6349L65.0125 45.7403L64.8783 45.8456L64.7428 45.9508L64.6058 46.056L64.4674 46.161L64.3277 46.266L64.1865 46.3709L64.0439 46.4758L63.9 46.5805L63.7547 46.6852L63.608 46.7897L63.46 46.8942L63.3106 46.9986L63.1598 47.1029L63.0078 47.2071L62.8544 47.3112L62.6997 47.4152L62.5437 47.5191L62.3864 47.6229L62.2277 47.7266L62.0678 47.8302L61.9067 47.9337L61.7442 48.0371L61.5805 48.1404L61.4156 48.2436L61.2494 48.3466L61.0819 48.4496L60.9133 48.5524L60.7434 48.6551L60.5723 48.7577L60.4001 48.8602L60.2266 48.9625L60.0519 49.0647L59.8761 49.1668L59.6991 49.2688L59.521 49.3706L59.3417 49.4723L59.1613 49.5738L58.9797 49.6752L58.797 49.7765L58.6133 49.8776L58.4284 49.9786L58.2424 50.0795L58.0554 50.1802L57.8673 50.2807L57.6781 50.3811L57.4879 50.4813L57.2966 50.5814L57.1044 50.6813L56.9111 50.781L56.7167 50.8806L56.5214 50.98L56.3251 51.0793L56.1278 51.1784L55.9296 51.2773L55.7303 51.376L55.5302 51.4745L55.3291 51.5729L55.127 51.6711L54.9241 51.769L54.7202 51.8668L54.5155 51.9644L54.3098 52.0619L54.1033 52.1591L53.8959 52.2561L53.6876 52.3529L53.4786 52.4495L53.2686 52.5459L53.0579 52.6421L52.8463 52.738L52.634 52.8338L52.4208 52.9293L52.2069 53.0247L51.9922 53.1197L51.7767 53.2146L51.5605 53.3092L51.3435 53.4036L51.1259 53.4978L50.9075 53.5917L50.6884 53.6854L50.4686 53.7788L50.2481 53.872L50.027 53.965L49.8052 54.0576L49.5827 54.1501L49.3597 54.2422L49.136 54.3341L48.9116 54.4258L48.6867 54.5171L48.4612 54.6082L48.2351 54.699L48.0084 54.7896L47.7812 54.8798L47.5535 54.9698L47.3252 55.0595L47.0963 55.1489L46.867 55.238L46.6372 55.3268L46.4068 55.4152L46.176 55.5034L45.9448 55.5913L45.7131 55.6789L45.4809 55.7661L45.2483 55.8531L45.0153 55.9397L44.7819 56.026L44.5481 56.1119L44.3139 56.1976L44.0793 56.2828L43.8444 56.3678L43.6091 56.4524L43.3735 56.5367L43.1375 56.6206L42.9013 56.7041L42.6647 56.7873L42.4278 56.8702L42.1907 56.9526L41.9533 57.0347L41.7157 57.1165L41.4778 57.1978L41.2396 57.2788L41.0013 57.3594L40.7627 57.4396L40.524 57.5194L40.285 57.5989L40.0459 57.6779L39.8066 57.7565L39.5672 57.8347L39.3276 57.9126L39.0879 57.99L38.8481 58.0669L38.6082 58.1435L38.3682 58.2196L38.1281 58.2954L37.888 58.3706L37.6477 58.4455L37.4075 58.5199L37.1672 58.5938L36.9269 58.6674L36.6866 58.7404L36.4462 58.813L36.2059 58.8852L35.9657 58.9568L35.7254 59.0281L35.4852 59.0988L35.2451 59.1691L35.005 59.2389L34.765 59.3082L34.5251 59.377L34.2853 59.4453L34.0457 59.5131L33.8061 59.5805L33.5667 59.6473L33.3275 59.7136L33.0884 59.7794L32.8495 59.8447L32.6107 59.9095L32.3722 59.9738L32.1339 60.0375L31.8958 60.1007L31.6579 60.1633L31.4203 60.2254L31.1829 60.287L30.9458 60.348L30.7089 60.4085L30.4724 60.4684L30.2361 60.5278L30.0002 60.5866L29.7645 60.6448L29.5292 60.7024L29.2943 60.7595L29.0597 60.816L28.8254 60.8719L28.5916 60.9272L28.3581 60.982L28.125 61.0361L27.8923 61.0896L27.6601 61.1425L27.4282 61.1948L27.1968 61.2465L26.9659 61.2976L26.7354 61.348L26.5054 61.3979L26.2759 61.4471L26.0468 61.4956L25.8183 61.5435L25.5902 61.5908L25.3627 61.6375L25.1358 61.6834L24.9093 61.7288L24.6835 61.7734L24.4582 61.8174L24.2334 61.8608L24.0093 61.9034L23.7857 61.9454L23.5628 61.9867L23.3404 62.0274L23.1187 62.0673L22.8976 62.1065L22.6772 62.1451L22.4574 62.1829L22.2383 62.2201L22.0199 62.2565L21.8021 62.2923L21.585 62.3273L21.3687 62.3615L21.153 62.3951L20.9381 62.4279L20.7239 62.4601L20.5104 62.4914L20.2977 62.522L20.0858 62.5519L19.8746 62.5811L19.6642 62.6095L19.4545 62.6371L19.2457 62.664L19.0377 62.6901L18.8305 62.7154L18.6241 62.74L18.4185 62.7638L18.2138 62.7868L18.01 62.8091L17.807 62.8305L17.6048 62.8512L17.4035 62.871L17.2031 62.8901L17.0036 62.9084L16.8051 62.9258L16.6074 62.9425L16.4106 62.9584L16.2147 62.9734L16.0198 62.9876L15.8258 63.001L15.6328 63.0136L15.4407 63.0253L15.2496 63.0362L15.0595 63.0463L14.8703 63.0555L14.6822 63.0639L14.495 63.0714L14.3088 63.0781L14.1236 63.0839L13.9395 63.0889L13.7564 63.093L13.5743 63.0963L13.3933 63.0987L13.2132 63.1002L13.0343 63.1008L12.8564 63.1006L12.6796 63.0995L12.5038 63.0975L12.3292 63.0946L12.1556 63.0908L11.9831 63.0861L11.8118 63.0806L11.6415 63.0741L11.4723 63.0668L11.3043 63.0585L11.1374 63.0493L10.9716 63.0392L10.807 63.0282L10.6435 63.0163L10.4811 63.0035L10.32 62.9897L10.16 62.9751L10.0011 62.9595L9.84345 62.9429L9.68696 62.9255L9.53166 62.9071L9.37755 62.8877L9.22464 62.8675L9.07294 62.8463L8.92244 62.8241L8.77316 62.801L8.6251 62.7769L8.47826 62.7519L8.33266 62.7259L8.18828 62.699L8.04515 62.6711L7.90326 62.6423L7.76262 62.6125L7.62323 62.5817L7.48511 62.55L7.34824 62.5173L7.21264 62.4836L7.07832 62.4489L6.94527 62.4133L6.81351 62.3767L6.68302 62.3391L6.55383 62.3005L6.42592 62.261L6.29932 62.2205L6.17402 62.1789L6.05002 62.1364L5.92733 62.0929L5.80595 62.0484L5.68589 62.0029L5.56714 61.9565L5.44972 61.909L5.33362 61.8605L5.21886 61.8111L5.10542 61.7606L4.99332 61.7091L4.88256 61.6566L4.77314 61.6032L4.66507 61.5487L4.55834 61.4932L4.45296 61.4367L4.34893 61.3792L4.24626 61.3207L4.14495 61.2612L4.045 61.2006L3.94641 61.1391L3.84918 61.0765L3.75332 61.013L3.65883 60.9484L3.56571 60.8828L3.47397 60.8162L3.3836 60.7485L3.29461 60.6799L3.20699 60.6102L3.12076 60.5396L3.0359 60.4679L2.95243 60.3952L2.87035 60.3214L2.78965 60.2467L2.71034 60.1709L2.63242 60.0942L2.55589 60.0164L2.48074 59.9375L2.407 59.8577L2.33464 59.7769L2.26368 59.695L2.19411 59.6121L2.12594 59.5282L2.05917 59.4433L1.99379 59.3573L1.9298 59.2704L1.86722 59.1824L1.80603 59.0935L1.74624 59.0035L1.68785 58.9124L1.63086 58.8204L1.57527 58.7274L1.52107 58.6334L1.46827 58.5383L1.41687 58.4422L1.36687 58.3452L1.31826 58.2471L1.27106 58.148L1.22525 58.0479L1.18083 57.9468L1.13781 57.8447L1.09619 57.7416L1.05596 57.6375L1.01712 57.5324L0.979672 57.4264L0.94362 57.3193L0.908956 57.2112L0.87568 57.1021L0.843796 56.9921L0.813295 56.881L0.784179 56.769L0.756451 56.656L0.730103 56.5419L0.705136 56.427L0.681548 56.311L0.659341 56.1941L0.638507 56.0761L0.619049 55.9573L0.60096 55.8374L0.584244 55.7166L0.568897 55.5948L0.554918 55.472L0.542301 55.3483L0.531045 55.2237L0.52115 55.098L0.512617 54.9715L0.505433 54.8439L0.499603 54.7155L0.495126 54.586L0.491992 54.4557L0.490207 54.3244L0.489761 54.1922L0.490657 54.059L0.492892 53.9249L0.496457 53.7899L0.501353 53.654L0.507576 53.5171L0.515126 53.3794L0.523995 53.2407L0.534183 53.1011L0.545687 52.9606L0.558502 52.8192L0.572626 52.6769L0.588053 52.5337L0.604785 52.3897L0.622813 52.2447L0.642133 52.0989L0.662746 51.9521L0.684644 51.8045L0.707828 51.6561L0.732288 51.5068L0.758022 51.3566L0.78503 51.2055L0.813307 51.0536L0.842843 50.9009L0.87364 50.7473L0.905692 50.5929L0.938991 50.4376L0.973541 50.2815L1.00933 50.1246L1.04636 49.9669L1.08462 49.8083L1.12411 49.649L1.16482 49.4888L1.20675 49.3278L1.2499 49.1661L1.29426 49.0035L1.33982 48.8402L1.38659 48.676L1.43454 48.5111L1.48369 48.3455L1.53403 48.179L1.58554 48.0119L1.63823 47.8439L1.6921 47.6752L1.74713 47.5058L1.80331 47.3356L1.86065 47.1647L1.91915 46.9931L1.97878 46.8207L2.03956 46.6477L2.10147 46.4739L2.16451 46.2995L2.22867 46.1243L2.29394 45.9484L2.36033 45.7719L2.42783 45.5947L2.49642 45.4168L2.56611 45.2383L2.63689 45.0591L2.70875 44.8792L2.78169 44.6987L2.8557 44.5176L2.93077 44.3358L3.00691 44.1534L3.0841 43.9704L3.16233 43.7867L3.24161 43.6025L3.32192 43.4177L3.40327 43.2323L3.48563 43.0463L3.56901 42.8597L3.6534 42.6725L3.7388 42.4848L3.82519 42.2965L3.91258 42.1077L4.00095 41.9183L4.0903 41.7284L4.18063 41.538L4.27192 41.347L4.36416 41.1556L4.45737 40.9636L4.55152 40.7712L4.6466 40.5782L4.74263 40.3848L4.83958 40.1909L4.93745 39.9965L5.03623 39.8016L5.13592 39.6064L5.23651 39.4106L5.338 39.2145L5.44037 39.0179L5.54362 38.8208L5.64774 38.6234L5.75273 38.4256L5.85858 38.2274L5.96528 38.0287L6.07282 37.8298L6.18121 37.6304L6.29043 37.4307L6.40047 37.2306L6.51133 37.0302L6.623 36.8294L6.73547 36.6283L6.84874 36.4269L6.9628 36.2252L7.07764 36.0231L7.19325 35.8208L7.30964 35.6182L7.42678 35.4153L7.54468 35.2121L7.66333 35.0087L7.78272 34.805L7.90283 34.6011L8.02368 34.397L8.14524 34.1926L8.26751 33.988L8.39048 33.7832L8.51415 33.5782L8.63852 33.373L8.76356 33.1676L8.88927 32.9621L9.01566 32.7564L9.1427 32.5505L9.27039 32.3445L9.39874 32.1384L9.52771 31.9321L9.65732 31.7257L9.78756 31.5192L9.9184 31.3127L10.0499 31.106L10.1819 30.8992L10.3146 30.6924L10.4478 30.4855L10.5816 30.2786L10.716 30.0716L10.851 29.8646L10.9865 29.6576L11.1225 29.4505L11.2591 29.2435L11.3963 29.0364L11.5339 28.8294L11.6721 28.6224L11.8108 28.4154L11.95 28.2085L12.0897 28.0016L12.2299 27.7948L12.3706 27.5881L12.5117 27.3814L12.6534 27.1749L12.7954 26.9684L12.938 26.7621L13.081 26.5558L13.2244 26.3498L13.3682 26.1438L13.5125 25.938L13.6572 25.7324L13.8023 25.5269L13.9478 25.3216L14.0937 25.1165L14.24 24.9117L14.3867 24.707L14.5337 24.5025L14.6811 24.2983L14.8289 24.0943L14.977 23.8906L15.1255 23.6871L15.2743 23.4839L15.4234 23.281L15.5729 23.0783L15.7226 22.876L15.8727 22.674L16.0231 22.4723L16.1738 22.2709L16.3247 22.0699L16.476 21.8692L16.6275 21.6689L16.7792 21.4689L16.9313 21.2693L17.0836 21.0702L17.2361 20.8714L17.3889 20.673L17.5419 20.4751L17.6951 20.2776L17.8485 20.0805L18.0022 19.8839L18.156 19.6877L18.3101 19.492L18.4643 19.2968L18.6188 19.1021L18.7734 18.9078L18.9281 18.7141L19.083 18.5209L19.2381 18.3283L19.3934 18.1362L19.5487 17.9446L19.7042 17.7536L19.8599 17.5631L20.0156 17.3733L20.1715 17.184L20.3274 16.9953L20.4835 16.8073L20.6397 16.6198L20.796 16.433L20.9523 16.2469L21.1087 16.0613L21.2652 15.8765L21.4217 15.6923L21.5783 15.5087L21.735 15.3259L21.8917 15.1438L22.0484 14.9624L22.2052 14.7817L22.362 14.6017L22.5188 14.4224L22.6756 14.2439L22.8324 14.0662L22.9892 13.8892L23.146 13.713L23.3028 13.5376L23.4596 13.363L23.6164 13.1892L23.7731 13.0162L23.9298 12.844L24.0864 12.6726L24.243 12.5021L24.3995 12.3325L24.556 12.1637L24.7124 11.9958L24.8687 11.8287L25.025 11.6626L25.1812 11.4973L25.3372 11.3329L25.4932 11.1695L25.6491 11.007L25.8049 10.8454L25.9605 10.6847L26.1161 10.5251L26.2715 10.3663L26.4268 10.2086L26.582 10.0518L26.737 9.896L26.8918 9.7412L27.0466 9.58741L27.2011 9.43464L27.3555 9.28288L27.5098 9.13216L27.6638 8.98247L27.8177 8.83384L27.9714 8.68626L28.1249 8.53975L28.2782 8.39432L28.4314 8.24996L28.5843 8.1067L28.737 7.96453L28.8895 7.82348L29.0418 7.68354L29.1939 7.54472L29.3457 7.40703L29.4973 7.27049L29.6487 7.13509L29.7998 7.00086L29.9507 6.86778L30.1013 6.73588L30.2517 6.60516L30.4018 6.47563L30.5516 6.34729L30.7012 6.22015L30.8505 6.09423L30.9995 5.96953L31.1483 5.84605L31.2967 5.72381L31.4449 5.60281L31.5928 5.48305L31.7403 5.36456L31.8876 5.24733L32.0346 5.13136L32.1812 5.01668L32.3275 4.90328L32.4736 4.79118L32.6192 4.68037L32.7646 4.57087L32.9096 4.46268L33.0543 4.35582L33.1987 4.25028L33.3427 4.14607L33.4864 4.0432L33.6297 3.94168L33.7726 3.84151L33.9152 3.74271L34.0575 3.64526L34.1993 3.54919L34.3408 3.45451L34.482 3.3612L34.6227 3.26929L34.7631 3.17877L34.9031 3.08966L35.0427 3.00196L35.1819 2.91567L35.3207 2.8308L35.4592 2.74736L35.5972 2.66535L35.7348 2.58478L35.8721 2.50566L36.0089 2.42798L36.1453 2.35176L36.2813 2.277L36.4168 2.2037L36.552 2.13187L36.6867 2.06152L36.821 1.99266L36.9549 1.92527L37.0883 1.85938L37.2214 1.79498L37.3539 1.73208L37.4861 1.67069L37.6177 1.6108L37.749 1.55244L37.8798 1.49558L38.0101 1.44026L38.14 1.38645L38.2695 1.33419L38.3985 1.28345L38.527 1.23426L38.6551 1.18661L38.7827 1.14051L38.9098 1.09596L39.0364 1.05297L39.1626 1.01154L39.2884 0.971667L39.4136 0.933365L39.5384 0.89663L39.6627 0.86147L39.7865 0.827885L39.9098 0.795883L40.0327 0.765462L40.155 0.736632L40.2769 0.709388L40.3983 0.683734L40.5191 0.659678L40.6395 0.637219L40.7594 0.616362L40.8788 0.59711L40.9977 0.57946L41.1161 0.563422L41.234 0.54899L41.3514 0.536174L41.4683 0.524975L41.5847 0.51539L41.7006 0.507424L41.8159 0.501083L41.9308 0.496363L42.0451 0.493266L42.1589 0.491798L42.2723 0.491959L42.3851 0.493747L42.4973 0.497171L42.6091 0.502223L42.7203 0.508911L42.8311 0.517235L42.9413 0.527191L43.051 0.53879L43.1601 0.552021L43.2687 0.566896L43.3768 0.58341L43.4844 0.601564L43.5915 0.621357L43.698 0.642794L43.804 0.665874L43.9095 0.690594L44.0144 0.716957L44.1188 0.744964L44.2227 0.774614L44.326 0.805907L44.4288 0.838844L44.5311 0.87342L44.6328 0.90964L44.734 0.947504L44.8347 0.987006L44.9348 1.02815L45.0344 1.07094L45.1335 1.11536L45.232 1.16143L45.33 1.20913L45.4274 1.25847L45.5243 1.30944L45.6207 1.36205L45.7165 1.4163L45.8118 1.47217L45.9066 1.52968L46.0008 1.58882L46.0944 1.64958L46.1876 1.71198L46.2802 1.77599L46.3722 1.84163L46.4637 1.90889L46.5547 1.97777L46.6451 2.04826L46.735 2.12037L46.8243 2.19409L46.9131 2.26942L47.0014 2.34636L47.0891 2.42491L47.1763 2.50505L47.2629 2.5868L47.349 2.67014L47.4346 2.75508L47.5196 2.8416L47.6041 2.92972L47.688 3.01942L47.7714 3.1107L47.8543 3.20356L47.9366 3.29799L48.0184 3.394L48.0996 3.49157L48.1803 3.59071L48.2605 3.69141L48.3401 3.79366L48.4192 3.89747L48.4977 4.00282L48.5757 4.10972L48.6532 4.21816L48.7302 4.32814L48.8066 4.43965L48.8825 4.55269L48.9578 4.66724L49.0326 4.78332L49.1069 4.90091L49.1806 5.02001L49.2538 5.14061L49.3265 5.26272L49.3986 5.38631L49.4703 5.5114L49.5413 5.63797L49.6119 5.76602L49.6819 5.89554L49.7514 6.02653L49.8204 6.15898L49.8888 6.29289L49.9568 6.42825L50.0241 6.56506L50.091 6.7033L50.1574 6.84298L50.2232 6.98409L50.2885 7.12662L50.3533 7.27056L50.4175 7.41592L50.4812 7.56267L50.5445 7.71083L50.6072 7.86037L50.6693 8.0113L50.731 8.1636L50.7921 8.31727L50.8528 8.47232L50.9129 8.62871L50.9725 8.78646L51.0316 8.94555L51.0901 9.10597L51.1482 9.26773L51.2058 9.4308L51.2628 9.59519L51.3193 9.76089L51.3754 9.92789L51.4309 10.0962L51.4859 10.2657L51.5404 10.4366L51.5944 10.6087L51.6479 10.7821L51.7009 10.9567L51.7534 11.1326L51.8054 11.3097L51.8569 11.4881L51.9079 11.6677L51.9583 11.8484L52.0083 12.0304L52.0578 12.2136L52.1068 12.398L52.1553 12.5835L52.2034 12.7703L52.2509 12.9581L52.2979 13.1472L52.3444 13.3374L52.3905 13.5287L52.436 13.7211L52.4811 13.9147L52.5257 14.1094L52.5698 14.3052L52.6134 14.502L52.6565 14.7L52.6992 14.899L52.7413 15.0991L52.783 15.3002L52.8242 15.5024L52.8649 15.7057L52.9051 15.9099L52.9449 16.1152L52.9842 16.3214L53.023 16.5287L53.0613 16.737L53.0991 16.9462L53.1365 17.1564L53.1734 17.3676L53.2098 17.5797L53.2458 17.7927L53.2813 18.0067L53.3163 18.2216L53.3509 18.4374L53.3849 18.6541L53.4185 18.8717L53.4517 19.0901L53.4844 19.3095L53.5166 19.5296L53.5483 19.7507L53.5796 19.9725L53.6104 20.1952L53.6408 20.4187L53.6707 20.643L53.7002 20.8681L53.7291 21.094L53.7577 21.3206L53.7857 21.548L53.8133 21.7762L53.8405 22.005L53.8672 22.2347L53.8934 22.465L53.9192 22.696L53.9445 22.9278L53.9694 23.1602L53.9939 23.3932L54.0178 23.627L54.0414 23.8614L54.0644 24.0964L54.0871 24.3321L54.1092 24.5683L54.131 24.8052L54.1523 25.0427L54.1731 25.2807L54.1935 25.5193L54.2134 25.7585L54.2329 25.9982L54.252 26.2384L54.2706 26.4792L54.2888 26.7205L54.3065 26.9622L54.3238 27.2045L54.3406 27.4473L54.357 27.6905L54.373 27.9341L54.3885 28.1782L54.4036 28.4227L54.4182 28.6677L54.4324 28.913L54.4462 29.1587L54.4595 29.4049L54.4724 29.6513L54.4848 29.8982L54.4968 30.1454L54.5084 30.3929L54.5195 30.6407L54.5302 30.8889L54.5405 31.1373L54.5503 31.386L54.5597 31.635L54.5686 31.8843L54.5772 32.1338L54.5853 32.3836L54.5929 32.6335L54.6001 32.8837L54.6069 33.1341L54.6133 33.3846L54.6192 33.6354L54.6247 33.8863L54.6297 34.1373L54.6344 34.3885L54.6385 34.6398L54.6423 34.8912L54.6456 35.1427L54.6485 35.3944L54.651 35.646L54.653 35.8978L54.6546 36.1496L54.6558 36.4014L54.6565 36.6533L54.6568 36.9052L54.6567 37.1571L54.6561 37.409L54.6551 37.6608L54.6537 37.9126L54.6518 38.1644L54.6496 38.4161L54.6468 38.6678L54.6437 38.9193L54.6401 39.1708L54.6361 39.4222L54.6316 39.6734L54.6267 39.9245L54.6214 40.1755L54.6157 40.4263L54.6095 40.6769L54.6029 40.9273L54.5958 41.1776L54.5883 41.4276L54.5804 41.6775L54.5721 41.9271L54.5633 42.1764L54.5541 42.4255L54.5444 42.6744L54.5343 42.9229L54.5238 43.1712L54.5128 43.4192L54.5014 43.6668L54.4896 43.9141L54.4773 44.1611L54.4646 44.4077L54.4515 44.654L54.4379 44.8999L54.4239 45.1454L54.4094 45.3905L54.3945 45.6352L54.3791 45.8794L54.3634 46.1233L54.3471 46.3666L54.3305 46.6096L54.3134 46.852L54.2958 47.094L54.2778 47.3355L54.2594 47.5764L54.2405 47.8169L54.2212 48.0568L54.2014 48.2962L54.1812 48.535L54.1606 48.7733L54.1394 49.011L54.1179 49.2481L54.0959 49.4846L54.0734 49.7205L54.0505 49.9558L54.0272 50.1904L54.0034 50.4244L53.9791 50.6577L53.9544 50.8904L53.9293 51.1224L53.9037 51.3537L53.8776 51.5843L53.8511 51.8142L53.8241 52.0434L53.7967 52.2719L53.7688 52.4996L53.7405 52.7265L53.7117 52.9527L53.6824 53.1781L53.6527 53.4027L53.6225 53.6265L53.5919 53.8495L53.5607 54.0717L53.5292 54.2931L53.4971 54.5136L53.4647 54.7332L53.4317 54.952L53.3983 55.17L53.3644 55.387L53.33 55.6032L53.2952 55.8184L53.2599 56.0328L53.2241 56.2462L53.1879 56.4587L53.1511 56.6702L53.114 56.8808L53.0763 57.0904L53.0382 57.299L52.9995 57.5067L52.9605 57.7134L52.9209 57.919L52.8808 58.1237L52.8403 58.3273L52.7993 58.5299L52.7578 58.7315L52.7159 58.932L52.6734 59.1314L52.6305 59.3298L52.5871 59.5271L52.5432 59.7233L52.4988 59.9184L52.4539 60.1124L52.4085 60.3053L52.3627 60.4971L52.3163 60.6877L52.2695 60.8772L52.2222 61.0656L52.1744 61.2528L52.1261 61.4388L52.0773 61.6236L52.028 61.8073L51.9782 61.9897L51.9279 62.171L51.8771 62.351L51.8258 62.5299L51.774 62.7075L51.7217 62.8838L51.6689 63.059L51.6156 63.2329L51.5618 63.4055L51.5075 63.5768L51.4527 63.7469L51.3974 63.9157L51.3415 64.0832L51.2852 64.2494L51.2284 64.4143L51.171 64.5779L51.1132 64.7402L51.0548 64.9012L50.9959 65.0608L50.9365 65.2191L50.8766 65.376L50.8162 65.5316L50.7552 65.6858L50.6938 65.8386L50.6318 65.9901L50.5693 66.1402L50.5063 66.2889L50.4428 66.4362L50.3787 66.5821L50.3141 66.7266L50.249 66.8697L50.1834 67.0114L50.1173 67.1516L50.0506 67.2904L49.9834 67.4278L49.9157 67.5637L49.8475 67.6982L49.7787 67.8312L49.7094 67.9628L49.6396 68.0929L49.5693 68.2215L49.4984 68.3487L49.427 68.4744L49.3551 68.5986L49.2826 68.7213L49.2096 68.8424L49.1361 68.9621L49.062 69.0803L48.9874 69.197L48.9123 69.3122L48.8366 69.4258L48.7604 69.5379L48.6837 69.6485L48.6064 69.7575L48.5286 69.8651L48.4503 69.971L48.3714 70.0754L48.292 70.1783L48.212 70.2796L48.1315 70.3794L48.0505 70.4776L47.9689 70.5742L47.8868 70.6692L47.8042 70.7627L47.721 70.8546L47.6373 70.945L47.553 71.0337L47.4682 71.1209L47.3829 71.2064L47.297 71.2904L47.2106 71.3728L47.1236 71.4535L47.0361 71.5327L46.9481 71.6103L46.8595 71.6863L46.7703 71.7606L46.6807 71.8334L46.5905 71.9045L46.4997 71.974L46.4084 72.0419L46.3166 72.1082L46.2242 72.1729L46.1313 72.2359L46.0378 72.2973L45.9439 72.3571L45.8493 72.4152L45.7542 72.4718L45.6586 72.5266L45.5625 72.5799L45.4658 72.6315L45.3686 72.6815L45.2708 72.7298L45.1725 72.7766L45.0736 72.8216L44.9742 72.8651L44.8743 72.9069L44.7739 72.947L44.6729 72.9855L44.5714 73.0224L44.4693 73.0576L44.3667 73.0912L44.2636 73.1231L44.1599 73.1534L44.0557 73.1821L43.951 73.2091L43.8457 73.2345L43.7399 73.2582L43.6336 73.2803L43.5268 73.3007L43.4194 73.3195L43.3115 73.3367L43.2031 73.3522L43.0941 73.3661L42.9847 73.3784L42.8747 73.389L42.7642 73.3979L42.6531 73.4053L42.5416 73.411L42.4295 73.415L42.3169 73.4175L42.2038 73.4183L42.0902 73.4174L41.976 73.415L41.8614 73.4109L41.7462 73.4052L41.6305 73.3979L41.5143 73.3889L41.3976 73.3784L41.2805 73.3662L41.1628 73.3524L41.0446 73.337L40.9259 73.32L40.8067 73.3014L40.687 73.2811L40.5668 73.2593L40.4461 73.2359L40.3249 73.2109L40.2032 73.1843L40.0811 73.1561L39.9584 73.1263L39.8353 73.0949L39.7116 73.0619L39.5876 73.0274L39.463 72.9913L39.3379 72.9536L39.2124 72.9143L39.0864 72.8735L38.9599 72.8311L38.8329 72.7872L38.7055 72.7417L38.5776 72.6947L38.4493 72.6461L38.3205 72.596L38.1912 72.5443L38.0615 72.4911L37.9313 72.4364L37.8007 72.3801L37.6697 72.3224L37.5381 72.2631L37.4062 72.2023L37.2738 72.14L37.141 72.0762L37.0077 72.0109L36.874 71.9441L36.7398 71.8758L36.6053 71.806L36.4703 71.7348L36.3349 71.6621L36.1991 71.5879L36.0628 71.5122L35.9262 71.4351L35.7891 71.3566L35.6516 71.2766L35.5138 71.1951L35.3755 71.1123L35.2368 71.028L35.0978 70.9422L34.9583 70.8551L34.8185 70.7665L34.6782 70.6766L34.5376 70.5852L34.3966 70.4924L34.2553 70.3983L34.1136 70.3028L33.9715 70.2059L33.829 70.1076L33.6862 70.008L33.543 69.907L33.3995 69.8047L33.2556 69.701L33.1114 69.596L32.9668 69.4896L32.8219 69.382L32.6767 69.273L32.5312 69.1627L32.3853 69.0511L32.2391 68.9382L32.0925 68.824L31.9457 68.7086L31.7986 68.5918L31.6511 68.4738L31.5033 68.3546L31.3553 68.2341L31.2069 68.1123L31.0583 67.9893L30.9094 67.8651L30.7602 67.7397L30.6107 67.613L30.461 67.4851L30.311 67.3561L30.1607 67.2258L30.0102 67.0944L29.8594 66.9618L29.7084 66.828L29.5571 66.6931L29.4056 66.557L29.2539 66.4197L29.1019 66.2814L28.9497 66.1419L28.7973 66.0013L28.6446 65.8595L28.4918 65.7167L28.3388 65.5728L28.1855 65.4278L28.0321 65.2817L27.8785 65.1345L27.7246 64.9863L27.5707 64.837L27.4165 64.6867L27.2621 64.5354L27.1076 64.383L26.953 64.2296L26.7982 64.0752L26.6432 63.9198L26.4881 63.7634L26.3329 63.606L26.1775 63.4477L26.022 63.2884L25.8664 63.1281L25.7107 62.9669L25.5548 62.8048L25.3989 62.6417L25.2428 62.4777L25.0867 62.3128L24.9305 62.147L24.7742 61.9803L24.6178 61.8127L24.4614 61.6442L24.3048 61.4749L24.1483 61.3047L23.9917 61.1337L23.835 60.9619L23.6783 60.7892L23.5215 60.6157L23.3648 60.4414L23.208 60.2663L23.0512 60.0904L22.8944 59.9137L22.7375 59.7363L22.5807 59.5581L22.4239 59.3791L22.2671 59.1995L22.1104 59.019L21.9536 58.8379L21.7969 58.656L21.6402 58.4735L21.4836 58.2903L21.327 58.1063L21.1705 57.9217L21.0141 57.7365L20.8577 57.5505L20.7014 57.364L20.5452 57.1768L20.3891 56.989L20.2331 56.8005L20.0772 56.6115L19.9214 56.4219L19.7657 56.2317L19.6101 56.0409L19.4547 55.8495L19.2994 55.6576L19.1443 55.4652L18.9893 55.2722L18.8345 55.0787L18.6798 54.8847L18.5253 54.6901L18.371 54.4951L18.2169 54.2996L18.063 54.1036L17.9092 53.9072L17.7557 53.7103L17.6024 53.5129L17.4493 53.3152L17.2964 53.117L17.1438 52.9183L16.9914 52.7193L16.8393 52.5199L16.6874 52.3201L16.5358 52.1199L16.3844 51.9194L16.2334 51.7185L16.0826 51.5173L15.9321 51.3157L15.7819 51.1138L15.632 50.9116L15.4824 50.7091L15.3331 50.5062L15.1842 50.3031L15.0356 50.0998L14.8874 49.8962L14.7395 49.6923L14.5919 49.4881L14.4447 49.2838L14.2979 49.0792L14.1515 48.8744L14.0054 48.6693L13.8597 48.4641L13.7145 48.2587L13.5696 48.0532L13.4252 47.8474L13.2812 47.6416L13.1376 47.4355L12.9944 47.2294L12.8517 47.0231L12.7094 46.8167L12.5676 46.6101L12.4263 46.4035L12.2854 46.1968L12.1451 45.99L12.0052 45.7832L11.8658 45.5763L11.7269 45.3693L11.5885 45.1623L11.4506 44.9553L11.3133 44.7483L11.1764 44.5412L11.0402 44.3342L10.9044 44.1271L10.7693 43.9201L10.6347 43.7131L10.5006 43.5062L10.3671 43.2993L10.2343 43.0924L10.102 42.8856L9.97027 42.6789L9.83918 42.4723L9.7087 42.2658L9.57885 42.0593L9.44962 41.853L9.32103 41.6469L9.19307 41.4408L9.06577 41.2349L8.93913 41.0291L8.81315 40.8235L8.68784 40.6181L8.56321 40.4128L8.43926 40.2077L8.31601 40.0028L8.19346 39.7982L8.07162 39.5937L7.95049 39.3895L7.83008 39.1854L7.71041 38.9817L7.59147 38.7782L7.47327 38.5749L7.35583 38.3719L7.23915 38.1692L7.12322 37.9667L7.00808 37.7646L6.89371 37.5627L6.78013 37.3612L6.66734 37.16L6.55535 36.9591L6.44417 36.7585L6.33381 36.5583L6.22426 36.3584L6.11555 36.1589L6.00767 35.9598L5.90064 35.761L5.79445 35.5626L5.68912 35.3646L5.58465 35.167L5.48106 34.9699L5.37834 34.7731L5.2765 34.5768L5.17556 34.3809L5.07551 34.1854L4.97637 33.9904L4.87814 33.7958L4.78082 33.6017L4.68443 33.4081L4.58897 33.215L4.49445 33.0223L4.40087 32.8301L4.30825 32.6385L4.21658 32.4473L4.12587 32.2567L4.03614 32.0666L3.94738 31.877L3.8596 31.688L3.77281 31.4995L3.68702 31.3115L3.60223 31.1241L3.51845 30.9373L3.43568 30.7511L3.35394 30.5654L3.27322 30.3804L3.19353 30.1959L3.11488 30.012L3.03728 29.8288L2.96073 29.6461L2.88523 29.4641L2.8108 29.2827L2.73744 29.102L2.66515 28.9219L2.59395 28.7424L2.52382 28.5636L2.4548 28.3854L2.38687 28.208L2.32004 28.0312L2.25432 27.855L2.18972 27.6796L2.12624 27.5049L2.06388 27.3308L2.00266 27.1575L1.94257 26.9848L1.88363 26.8129L1.82583 26.6417L1.76918 26.4713L1.7137 26.3016L1.65938 26.1326L1.60622 25.9643L1.55424 25.7969L1.50344 25.6301L1.45382 25.4642L1.40539 25.2989L1.35816 25.1345L1.31212 24.9709L1.26728 24.808L1.22366 24.6459L1.18124 24.4846L1.14005 24.3242L1.10008 24.1645L1.06133 24.0056L1.02381 23.8475L0.987535 23.6903L0.952493 23.5339L0.918699 23.3783L0.886154 23.2235L0.854861 23.0696L0.824826 22.9165L0.796049 22.7643L0.768542 22.6129L0.742305 22.4624L0.717337 22.3127L0.693651 22.1639L0.671245 22.016L0.650125 21.8689L0.63029 21.7227L0.611751 21.5774L0.594509 21.433L0.578566 21.2895L0.563928 21.1468L0.550594 21.0051L0.538572 20.8642L0.527865 20.7243L0.518473 20.5853L0.510401 20.4471L0.503652 20.3099L0.49823 20.1736L0.494139 20.0382L0.491382 19.9038L0.489956 19.7703L0.489872 19.6377L0.491126 19.506L0.493727 19.3753L0.497673 19.2455L0.50297 19.1166L0.509616 18.9887L0.517615 18.8618L0.526976 18.7358L0.537691 18.6107L0.549771 18.4867L0.563211 18.3635L0.578017 18.2414L0.594192 18.1201L0.61174 17.9999L0.630656 17.8806L0.650945 17.7623L0.672611 17.645L0.695653 17.5287L0.720075 17.4133L0.745874 17.2989L0.773061 17.1855L0.801628 17.0731L0.831579 16.9616L0.862918 16.8512L0.895641 16.7417L0.929756 16.6332L0.965263 16.5258L1.00216 16.4193L1.04044 16.3138L1.08013 16.2093L1.1212 16.1058L1.16367 16.0033L1.20753 15.9018L1.25279 15.8013L1.29945 15.7019L1.3475 15.6034L1.39695 15.5059L1.4478 15.4095L1.50004 15.314L1.55368 15.2196L1.60873 15.1261L1.66517 15.0337L1.723 14.9423L1.78224 14.8519L1.84288 14.7625L1.90491 14.6742L1.96834 14.5868L2.03317 14.5005L2.09939 14.4152L2.16701 14.3309L2.23603 14.2476L2.30644 14.1653L2.37824 14.084L2.45144 14.0038L2.52603 13.9246L2.60201 13.8464L2.67939 13.7692L2.75815 13.693L2.8383 13.6179L2.91984 13.5438L3.00276 13.4707L3.08706 13.3986L3.17275 13.3275L3.25982 13.2574L3.34827 13.1884L3.4381 13.1204L3.5293 13.0533L3.62188 12.9873L3.71583 12.9224L3.81114 12.8584L3.90783 12.7954L4.00588 12.7335L4.10529 12.6726L4.20607 12.6126L4.30821 12.5537L4.4117 12.4958L4.51654 12.4389L4.62274 12.3831L4.73028 12.3282L4.83917 12.2743L4.9494 12.2214L5.06097 12.1696L5.17388 12.1187L5.28812 12.0688L5.40369 12.02L5.52059 11.9721L5.63881 11.9252L5.75835 11.8793L5.87921 11.8345L6.00139 11.7906L6.12487 11.7477L6.24966 11.7058L6.37575 11.6648L6.50314 11.6249L6.63182 11.5859L6.7618 11.548L6.89306 11.511L7.0256 11.475L7.15942 11.4399L7.29451 11.4059L7.43088 11.3728L7.56851 11.3406L7.7074 11.3095L7.84754 11.2793L7.98894 11.2501L8.13158 11.2218L8.27546 11.1945L8.42058 11.1682L8.56694 11.1428L8.71452 11.1183L8.86332 11.0949L9.01333 11.0723L9.16456 11.0507L9.317 11.0301L9.47063 11.0104L9.62546 10.9916L9.78148 10.9738L9.93868 10.9569L10.0971 10.9409L10.2566 10.9259L10.4173 10.9118L10.5792 10.8986L10.7422 10.8863L10.9064 10.8749L11.0717 10.8645L11.2382 10.855L11.4058 10.8463L11.5745 10.8386L11.7443 10.8318L11.9153 10.8259L12.0873 10.8209L12.2605 10.8167L12.4347 10.8135L12.61 10.8112L12.7864 10.8097L12.9639 10.8091L13.1424 10.8094L13.322 10.8106L13.5026 10.8126L13.6843 10.8155L13.867 10.8193L14.0508 10.8239L14.2355 10.8294L14.4213 10.8358L14.6081 10.843L14.7959 10.851L14.9846 10.8599L15.1744 10.8696L15.3651 10.8802L15.5568 10.8916L15.7495 10.9039L15.9431 10.9169L16.1376 10.9308L16.3331 10.9455L16.5295 10.9611L16.7268 10.9774L16.9251 10.9945L17.1242 11.0125L17.3243 11.0313L17.5252 11.0508L17.727 11.0712L17.9296 11.0923L18.1332 11.1142L18.3376 11.1369L18.5428 11.1604L18.7488 11.1847L18.9557 11.2097L19.1634 11.2355L19.3719 11.2621L19.5813 11.2894L19.7914 11.3175L20.0022 11.3464L20.2139 11.376L20.4263 11.4063L20.6395 11.4374L20.8534 11.4692L21.068 11.5018L21.2834 11.535L21.4995 11.569L21.7163 11.6038L21.9337 11.6392L22.1519 11.6754L22.3708 11.7122L22.5903 11.7498L22.8105 11.7881L23.0313 11.827L23.2528 11.8667L23.4748 11.9071L23.6976 11.9481L23.9209 11.9898L24.1448 12.0322L24.3693 12.0753L24.5944 12.119L24.82 12.1634L25.0462 12.2085L25.273 12.2542L25.5003 12.3006L25.7281 12.3476L25.9565 12.3953L26.1853 12.4436L26.4146 12.4925L26.6445 12.5421L26.8748 12.5923L27.1055 12.6432L27.3368 12.6946L27.5684 12.7467L27.8005 12.7993L28.033 12.8526L28.266 12.9065L28.4993 12.961L28.733 13.0161L28.9671 13.0718L29.2016 13.128L29.4364 13.1849L29.6715 13.2423L29.907 13.3003L30.1429 13.3588L30.379 13.418L30.6154 13.4777L30.8522 13.5379L31.0892 13.5987L31.3265 13.6601L31.564 13.722L31.8018 13.7844L32.0398 13.8474L32.278 13.9109L32.5165 13.975L32.7551 14.0395L32.994 14.1046L33.233 14.1702L33.4722 14.2364L33.7115 14.303L33.951 14.3701L34.1906 14.4378L34.4304 14.5059L34.6702 14.5745L34.9102 14.6436L35.1502 14.7132L35.3903 14.7833L35.6305 14.8539L35.8707 14.9249L36.111 14.9964L36.3513 15.0683L36.5916 15.1408L36.8319 15.2137L37.0723 15.287L37.3126 15.3608L37.5528 15.435L37.793 15.5097L38.0332 15.5848L38.2733 15.6603L38.5134 15.7363L38.7533 15.8127L38.9932 15.8895L39.2329 15.9667L39.4725 16.0444L39.712 16.1224L39.9514 16.2009L40.1906 16.2798L40.4296 16.3591L40.6684 16.4387L40.907 16.5188L41.1455 16.5992L41.3837 16.6801L41.6217 16.7613L41.8594 16.8428L42.0969 16.9248L42.3342 17.0071L42.5712 17.0898L42.8078 17.1729L43.0442 17.2563L43.2803 17.3401L43.516 17.4242L43.7514 17.5087L43.9865 17.5935L44.2212 17.6786L44.4556 17.7641L44.6895 17.85L44.9231 17.9361L45.1563 18.0226L45.3891 18.1094L45.6214 18.1965L45.8533 18.284L46.0847 18.3717L46.3157 18.4598L46.5462 18.5482L46.7763 18.6368L47.0058 18.7258L47.2348 18.8151L47.4633 18.9047L47.6913 18.9945L47.9187 19.0847L48.1456 19.1751L48.3719 19.2658L48.5977 19.3568L48.8228 19.448L49.0474 19.5396L49.2714 19.6314L49.4947 19.7234L49.7174 19.8157L49.9394 19.9083L50.1608 20.0012L50.3816 20.0942L50.6016 20.1876L50.821 20.2812L51.0397 20.375L51.2576 20.4691L51.4748 20.5634L51.6914 20.6579L51.9071 20.7527L52.1221 20.8477L52.3364 20.9429L52.5498 21.0384L52.7625 21.134L52.9744 21.2299L53.1855 21.326L53.3957 21.4223L53.6051 21.5188L53.8137 21.6156L54.0214 21.7125L54.2283 21.8096L54.4343 21.907L54.6394 22.0045L54.8436 22.1022L55.047 22.2001L55.2494 22.2982L55.4508 22.3965L55.6514 22.495L55.851 22.5936L56.0496 22.6925L56.2473 22.7915L56.444 22.8907L56.6397 22.99L56.8344 23.0895L57.0281 23.1892L57.2208 23.289L57.4125 23.3891L57.6031 23.4892L57.7927 23.5895L57.9812 23.69L58.1687 23.7907L58.3551 23.8914L58.5404 23.9924L58.7246 24.0934L58.9077 24.1947L59.0897 24.296L59.2705 24.3975L59.4503 24.4992L59.6289 24.6009L59.8063 24.7028L59.9826 24.8049L60.1577 24.907L60.3317 25.0093L60.5044 25.1117L60.676 25.2143L60.8463 25.3169L61.0155 25.4197L61.1834 25.5226L61.3501 25.6256L61.5155 25.7287L61.6797 25.832L61.8426 25.9353L62.0043 26.0388L62.1647 26.1423L62.3238 26.246L62.4817 26.3498L62.6382 26.4537L62.7934 26.5576L62.9473 26.6617L63.0999 26.7659L63.2512 26.8701L63.4011 26.9745L63.5497 27.0789L63.6969 27.1834L63.8427 27.2881L63.9872 27.3928L64.1303 27.4976L64.272 27.6024L64.4124 27.7074L64.5513 27.8124L64.6888 27.9175L64.8249 28.0227L64.9596 28.128L65.0929 28.2334L65.2247 28.3388L65.3551 28.4443L65.4841 28.5498L65.6115 28.6554L65.7376 28.7611L65.8621 28.8669L65.9852 28.9727L66.1068 29.0786L66.2269 29.1846L66.3455 29.2906L66.4626 29.3967L66.5782 29.5028L66.6923 29.609L66.8049 29.7153L66.9159 29.8216L67.0255 29.9279L67.1334 30.0344L67.2399 30.1408L67.3448 30.2473L67.4481 30.3539L67.5499 30.4605L67.6501 30.5672L67.7488 30.6739L67.8458 30.7807L67.9413 30.8875L68.0352 30.9943L68.1276 31.1012L68.2183 31.2081L68.3074 31.3151L68.395 31.4221L68.4809 31.5291L68.5652 31.6362L68.6479 31.7434L68.7289 31.8505L68.8084 31.9577L68.8862 32.0649L68.9624 32.1722L69.0369 32.2795L69.1098 32.3868L69.181 32.4942L69.2506 32.6015L69.3186 32.709L69.3849 32.8164L69.4495 32.9239L69.5125 33.0314L69.5738 33.1389L69.6334 33.2464L69.6913 33.354L69.7476 33.4616L69.8022 33.5692L69.8551 33.6768L69.9064 33.7845L69.9559 33.8921L70.0038 33.9998L70.0499 34.1076L70.0944 34.2153L70.1371 34.323L70.1782 34.4308L70.2176 34.5386L70.2552 34.6464L70.2912 34.7542L70.3254 34.862L70.358 34.9698L70.3888 35.0777L70.4179 35.1855L70.4453 35.2934L70.471 35.4013L70.4949 35.5092L70.5172 35.6171L70.5377 35.725L70.5565 35.8329L70.5736 35.9408L70.5889 36.0488L70.6025 36.1567L70.6144 36.2646L70.6246 36.3726L70.6331 36.4805L70.6398 36.5885L70.6448 36.6964L70.6481 36.8044L70.6496 36.9123L70.6494 37.0203L70.6475 37.1282L70.6439 37.2362L70.6385 37.3441L70.6314 37.4521L70.6226 37.56L70.6121 37.6679L70.5998 37.7759L70.5858 37.8838L70.5701 37.9917L70.5527 38.0997L70.5335 38.2076L70.5126 38.3155L70.49 38.4234L70.4657 38.5313L70.4397 38.6391L70.4119 38.747L70.3825 38.8549L70.3513 38.9627L70.3184 39.0705L70.2838 39.1784L70.2475 39.2862L70.2094 39.394L70.1697 39.5017L70.1283 39.6095L70.0852 39.7172L70.0404 39.825L69.9939 39.9327L69.9456 40.0404L69.8958 40.148L69.8442 40.2557L69.7909 40.3633L69.736 40.4709L69.6793 40.5785L69.621 40.6861L69.561 40.7936L69.4994 40.9011L69.4361 41.0086L69.3711 41.1161L69.3045 41.2235L69.2362 41.3309L69.1662 41.4383L69.0946 41.5456L69.0214 41.653L68.9465 41.7602L68.87 41.8675L68.7918 41.9747L68.712 42.0819L68.6306 42.189L68.5476 42.2962L68.463 42.4032L68.3767 42.5103L68.2889 42.6173L68.1994 42.7242L68.1083 42.8312L68.0157 42.938L67.9214 43.0449L67.8256 43.1517L67.7282 43.2584L67.6292 43.3651L67.5287 43.4718L67.4266 43.5784L67.3229 43.6849L67.2177 43.7914L67.1109 43.8979L67.0026 44.0043L66.8928 44.1107L66.7814 44.2169L66.6685 44.3232L66.5541 44.4294L66.4382 44.5355L66.3207 44.6416L66.2018 44.7476L66.0814 44.8535L65.9595 44.9594L65.8361 45.0652L65.7112 45.171L65.5849 45.2766L65.4571 45.3823L65.3279 45.4878L65.1972 45.5933L65.0651 45.6987L64.9315 45.804L64.7965 45.9093L64.6601 46.0144L64.5223 46.1195L64.3831 46.2246L64.2424 46.3295L64.1004 46.4344L63.957 46.5391L63.8122 46.6438L63.6661 46.7484L63.5186 46.8529L63.3698 46.9574L63.2196 47.0617L63.068 47.1659L62.9151 47.2701L62.761 47.3741L62.6055 47.4781L62.4487 47.5819L62.2906 47.6857L62.1312 47.7893L61.9705 47.8929L61.8086 47.9963L61.6454 48.0996L61.4809 48.2028L61.3152 48.3059L61.1482 48.4089L60.9801 48.5118L60.8107 48.6145L60.6401 48.7172L60.4683 48.8197L60.2953 48.9221L60.1211 49.0243L59.9457 49.1265L59.7692 49.2285L59.5915 49.3304L59.4127 49.4321L59.2327 49.5337L59.0516 49.6352L58.8693 49.7365L58.686 49.8377L58.5016 49.9388L58.316 50.0396L58.1294 50.1404L57.9417 50.241L57.753 50.3414L57.5632 50.4417L57.3723 50.5419L57.1805 50.6418L56.9875 50.7417L56.7936 50.8413L56.5987 50.9408L56.4028 51.0401L56.2059 51.1392L56.008 51.2382L55.8092 51.337L55.6094 51.4356L55.4086 51.534L55.207 51.6323L55.0044 51.7303L54.8009 51.8282L54.5965 51.9259L54.3912 52.0234L54.185 52.1207L53.9779 52.2178L53.77 52.3147L53.5613 52.4114L53.3517 52.5078L53.1412 52.6041L52.93 52.7002L52.718 52.796L52.5051 52.8916L52.2915 52.987L52.0771 53.0822L51.8619 53.1772L51.646 53.2719L51.4293 53.3664L51.2119 53.4606L50.9938 53.5546L50.775 53.6484L50.5555 53.7419L50.3353 53.8352L50.1144 53.9283L49.8929 54.0211L49.6707 54.1136L49.4479 54.2058L49.2244 54.2979L49.0003 54.3896L48.7757 54.4811L48.5504 54.5723L48.3245 54.6632L48.0981 54.7538L47.8711 54.8442L47.6435 54.9343L47.4154 55.0241L47.1868 55.1136L46.9577 55.2028L46.728 55.2917L46.4979 55.3803L46.2673 55.4686L46.0362 55.5566L45.8047 55.6443L45.5727 55.7317L45.3403 55.8188L45.1074 55.9055L44.8741 55.9919L44.6405 56.078L44.4064 56.1638L44.172 56.2492L43.9372 56.3343L43.7021 56.419L43.4666 56.5034L43.2308 56.5875L42.9946 56.6712L42.7582 56.7545L42.5215 56.8375L42.2844 56.9201L42.0471 57.0023L41.8096 57.0842L41.5718 57.1657L41.3337 57.2469L41.0955 57.3276L40.857 57.408L40.6183 57.488L40.3794 57.5675L40.1404 57.6467L39.9012 57.7255L39.6618 57.8039L39.4223 57.8819L39.1826 57.9594L38.9429 58.0366L38.703 58.1133L38.463 58.1896L38.223 58.2655L37.9828 58.3409L37.7427 58.416L37.5024 58.4905L37.2621 58.5647L37.0218 58.6384L36.7815 58.7116L36.5412 58.7844L36.3009 58.8567L36.0606 58.9286L35.8203 59L35.5801 59.0709L35.3399 59.1414L35.0999 59.2113L34.8598 59.2808L34.6199 59.3499L34.3801 59.4184L34.1404 59.4864L33.9008 59.5539L33.6613 59.621L33.422 59.6875L33.1828 59.7535L32.9439 59.819L32.705 59.884L32.4664 59.9484L32.228 60.0124L31.9898 60.0758L31.7519 60.1386L31.5141 60.201L31.2767 60.2628L31.0394 60.324L30.8025 60.3847L30.5658 60.4448L30.3294 60.5044L30.0934 60.5634L29.8576 60.6219L29.6222 60.6797L29.3871 60.737L29.1523 60.7938L28.9179 60.8499L28.6839 60.9054L28.4503 60.9604L28.217 61.0148L27.9842 61.0685L27.7518 61.1217L27.5198 61.1742L27.2882 61.2262L27.0571 61.2775L26.8264 61.3282L26.5962 61.3783L26.3665 61.4277L26.1372 61.4765L25.9085 61.5247L25.6803 61.5722L25.4526 61.6191L25.2254 61.6654L24.9987 61.7109L24.7726 61.7559L24.5471 61.8001L24.3222 61.8437L24.0978 61.8867L23.874 61.9289L23.6508 61.9705L23.4282 62.0114L23.2062 62.0516L22.9849 62.0911L22.7642 62.1299L22.5442 62.1681L22.3248 62.2055L22.1061 62.2422L21.8881 62.2782L21.6707 62.3135L21.4541 62.3481L21.2381 62.3819L21.0229 62.4151L20.8084 62.4475L20.5947 62.4791L20.3817 62.51L20.1694 62.5402L19.9579 62.5697L19.7472 62.5983L19.5373 62.6263L19.3281 62.6535L19.1198 62.6799L18.9123 62.7055L18.7056 62.7304L18.4997 62.7545L18.2946 62.7778L18.0904 62.8004L17.8871 62.8221L17.6846 62.8431L17.483 62.8633L17.2822 62.8827L17.0824 62.9013L16.8834 62.919L16.6854 62.936L16.4882 62.9522L16.292 62.9675L16.0967 62.9821L15.9024 62.9958L15.709 63.0087L15.5165 63.0208L15.325 63.032L15.1345 63.0424L14.9449 63.0519L14.7564 63.0607L14.5688 63.0685L14.3823 63.0756L14.1967 63.0817L14.0121 63.087L13.8286 63.0915L13.6461 63.0951L13.4647 63.0978L13.2842 63.0997L13.1049 63.1007L12.9266 63.1008L12.7493 63.1L12.5732 63.0984L12.3981 63.0958L12.2241 63.0924L12.0511 63.0881L11.8793 63.0829L11.7086 63.0768L11.539 63.0698L11.3705 63.0619L11.2032 63.053L11.037 63.0433L10.8719 63.0327L10.7079 63.0211L10.5452 63.0087L10.3835 62.9953L10.223 62.981L10.0637 62.9657L9.9056 62.9496L9.74865 62.9325L9.59288 62.9145L9.4383 62.8955L9.28492 62.8756L9.13274 62.8547L8.98176 62.833L8.832 62.8102L8.68345 62.7865L8.53613 62.7619L8.39004 62.7363L8.24518 62.7098L8.10155 62.6823L7.95917 62.6538L7.81804 62.6244L7.67816 62.594L7.53953 62.5626L7.40217 62.5303L7.26607 62.497L7.13124 62.4627L6.99769 62.4275L6.86541 62.3913L6.73442 62.3541L6.60472 62.3159L6.4763 62.2767L6.34919 62.2366L6.22337 62.1954L6.09886 62.1533L5.97565 62.1102L5.85375 62.0661L5.73316 62.021L5.6139 61.975L5.49595 61.9279L5.37934 61.8798L5.26404 61.8307L5.15008 61.7806L5.03745 61.7296L4.92616 61.6775L4.81621 61.6244L4.70761 61.5703L4.60035 61.5152L4.49443 61.4591L4.38987 61.402L4.28667 61.3439L4.18482 61.2848L4.08433 61.2247L3.9852 61.1635L3.88743 61.1014L3.79103 61.0382L3.696 60.974L3.60234 60.9088L3.51005 60.8426L3.41914 60.7754L3.3296 60.7071L3.24144 60.6379L3.15466 60.5676L3.06926 60.4963L2.98525 60.424L2.90262 60.3507L2.82137 60.2764L2.74151 60.201L2.66304 60.1246L2.58596 60.0472L2.51027 59.9688L2.43597 59.8894L2.36306 59.8089L2.29155 59.7275L2.22143 59.645L2.15271 59.5615L2.08538 59.477L2.01945 59.3914L1.95492 59.3049L1.89178 59.2173L1.83004 59.1287L1.7697 59.0391L1.71076 58.9485L1.65321 58.8569L1.59706 58.7643L1.54231 58.6706L1.48897 58.576L1.43701 58.4803L1.38646 58.3836L1.3373 58.286L1.28954 58.1873L1.24318 58.0876L1.19821 57.9869L1.15464 57.8852L1.11246 57.7825L1.07168 57.6788L1.0323 57.5741L0.994303 57.4684L0.957698 57.3617L0.922485 57.254L0.888663 57.1453L0.856226 57.0357L0.825181 56.925L0.795519 56.8134L0.767242 56.7007L0.740349 56.5871L0.714836 56.4725L0.690703 56.3569L0.667951 56.2404L0.646575 56.1228L0.626572 56.0043L0.607942 55.8849L0.590688 55.7644L0.574799 55.643L0.560279 55.5206L0.547124 55.3973L0.535331 55.273L0.524898 55.1478L0.515827 55.0216L0.50811 54.8944L0.501746 54.7663L0.496732 54.6373L0.493071 54.5073L0.490753 54.3764L0.489777 54.2445L0.490146 54.1117L0.491847 53.978L0.494886 53.8434L0.49926 53.7078L0.50496 53.5713L0.511984 53.4339L0.520334 53.2956L0.53 53.1563L0.540985 53.0162L0.553282 52.8752L0.566891 52.7332L0.581804 52.5904L0.59802 52.4467L0.615534 52.3021L0.634347 52.1566L0.654449 52.0102L0.67584 51.863L0.698516 51.7149L0.722469 51.5659L0.747704 51.416L0.774208 51.2653L0.801982 51.1138L0.831022 50.9613L0.86132 50.8081L0.892877 50.654L0.925688 50.4991L0.959742 50.3433L0.995043 50.1867L1.03158 50.0293L1.06935 49.8711L1.10836 49.712L1.14859 49.5522L1.19004 49.3915L1.23271 49.2301L1.27659 49.0678L1.32168 48.9048L1.36797 48.741L1.41545 48.5764L1.46413 48.411L1.514 48.2449L1.56505 48.078L1.61728 47.9104L1.67067 47.742L1.72524 47.5728L1.78097 47.4029L1.83786 47.2323L1.8959 47.061L1.95508 46.8889L2.01541 46.7161L2.07687 46.5427L2.13947 46.3685L2.20318 46.1936L2.26802 46.018L2.33397 45.8417L2.40103 45.6648L2.46919 45.4872L2.53845 45.3089L2.60879 45.1299L2.68023 44.9503L2.75274 44.7701L2.82633 44.5892L2.90098 44.4077L2.9767 44.2255L3.05347 44.0428L3.13129 43.8594L3.21016 43.6754L3.29007 43.4908L3.371 43.3056L3.45296 43.1198L3.53594 42.9335L3.61994 42.7465L3.70494 42.559L3.79094 42.371L3.87794 42.1824L3.96592 41.9932L4.05488 41.8035L4.14482 41.6133L4.23573 41.4225L4.3276 41.2313L4.42043 41.0395L4.51421 40.8473L4.60892 40.6545L4.70458 40.4612L4.80117 40.2675L4.89867 40.0733L4.99709 39.8787L5.09643 39.6836L5.19666 39.488L5.29779 39.292L5.39982 39.0956L5.50272 38.8987L5.6065 38.7015L5.71114 38.5038L5.81665 38.3057L5.92302 38.1073L6.03023 37.9084L6.13829 37.7092L6.24718 37.5096L6.35689 37.3097L6.46743 37.1094L6.57878 36.9088L6.69094 36.7078L6.80389 36.5065L6.91764 36.3049L7.03217 36.103L7.14748 35.9008L7.26356 35.6983L7.38041 35.4955L7.49801 35.2924L7.61636 35.0891L7.73546 34.8855L7.85528 34.6817L7.97585 34.4776L8.09712 34.2734L8.21912 34.0688L8.34181 33.8641L8.46521 33.6592L8.5893 33.4541L8.71407 33.2488L8.83952 33.0433L8.96564 32.8377L9.09242 32.6319L9.21986 32.4259L9.34795 32.2198L9.47668 32.0136L9.60604 31.8073L9.73603 31.6008L9.86663 31.3943L9.99785 31.1876L10.1297 30.9809L10.2621 30.7741L10.3951 30.5673L10.5287 30.3603L10.6628 30.1534L10.7976 29.9464L10.9329 29.7394L11.0687 29.5323L11.2051 29.3253L11.342 29.1182L11.4795 28.9112L11.6175 28.7042L11.756 28.4972L11.895 28.2902L12.0345 28.0833L12.1745 27.8765L12.315 27.6697L12.4559 27.4631L12.5974 27.2565L12.7393 27.05L12.8816 26.8436L13.0244 26.6373L13.1677 26.4312L13.3113 26.2252L13.4554 26.0193L13.6 25.8136L13.7449 25.6081L13.8903 25.4027L14.036 25.1976L14.1821 24.9926L14.3287 24.7878L14.4756 24.5833L14.6228 24.3789L14.7705 24.1749L14.9184 23.971L15.0668 23.7675L15.2154 23.5641L15.3644 23.3611L15.5138 23.1584L15.6634 22.9559L15.8134 22.7538L15.9636 22.5519L16.1142 22.3504L16.265 22.1493L16.4162 21.9484L16.5676 21.748L16.7192 21.5479L16.8712 21.3482L17.0234 21.1488L17.1758 20.9499L17.3285 20.7513L17.4814 20.5532L17.6345 20.3555L17.7879 20.1583L17.9415 19.9615L18.0952 19.7651L18.2492 19.5693L18.4034 19.3739L18.5577 19.1789L18.7122 18.9845L18.8669 18.7906L19.0218 18.5972L19.1768 18.4043L19.332 18.212L19.4873 18.0202L19.6428 17.829L19.7983 17.6383L19.9541 17.4482L20.1099 17.2587L20.2658 17.0698L20.4218 16.8815L20.578 16.6938L20.7342 16.5068L20.8905 16.3203L21.0469 16.1345L21.2034 15.9494L21.3599 15.765L21.5165 15.5812L21.6731 15.3981L21.8298 15.2157L21.9865 15.034L22.1432 14.853L22.3 14.6727L22.4568 14.4932L22.6136 14.3144L22.7704 14.1363L22.9273 13.9591L23.0841 13.7826L23.2409 13.6068L23.3977 13.4319L23.5544 13.2578L23.7112 13.0844L23.8679 12.9119L24.0245 12.7403L24.1811 12.5694L24.3377 12.3994L24.4942 12.2303L24.6506 12.062L24.807 11.8946L24.9633 11.7281L25.1195 11.5625L25.2756 11.3978L25.4316 11.234L25.5875 11.0711L25.7434 10.9091L25.8991 10.7481L26.0546 10.588L26.2101 10.4289L26.3655 10.2708L26.5207 10.1136L26.6757 9.95743L26.8307 9.80224L26.9854 9.64806L27.1401 9.49488L27.2945 9.34272L27.4488 9.19158L27.603 9.04149L27.7569 8.89244L27.9107 8.74445L28.0643 8.59751L28.2177 8.45165L28.3709 8.30687L28.5239 8.16317L28.6767 8.02057L28.8293 7.87907L28.9816 7.73869L29.1338 7.59943L29.2857 7.4613L29.4374 7.3243L29.5889 7.18845L29.7401 7.05375L29.8911 6.92022L30.0418 6.78785L30.1923 6.65667L30.3425 6.52666L30.4924 6.39785L30.6421 6.27024L30.7915 6.14384L30.9407 6.01865L31.0895 5.89469L31.2381 5.77196L31.3864 5.65046L31.5344 5.53022L31.6821 5.41122L31.8294 5.29349L31.9765 5.17703L32.1233 5.06184L32.2698 4.94793L32.4159 4.83531L32.5617 4.72399L32.7072 4.61398L32.8524 4.50527L32.9972 4.39788L33.1417 4.29181L33.2858 4.18708L33.4296 4.08368L33.5731 3.98163L33.7162 3.88093L33.8589 3.78158L34.0013 3.6836L34.1433 3.58699L34.285 3.49176L34.4263 3.3979L34.5672 3.30544L34.7077 3.21437L34.8478 3.1247L34.9876 3.03644L35.127 2.94959L35.2659 2.86416L35.4045 2.78016L35.5427 2.69758L35.6805 2.61645L35.8179 2.53675L35.9549 2.4585L36.0914 2.3817L36.2276 2.30636L36.3633 2.23249L36.4986 2.16008L36.6335 2.08914L36.768 2.01969L36.9021 1.95172L37.0357 1.88523L37.1689 1.82024L37.3016 1.75675L37.4339 1.69476L37.5658 1.63428L37.6972 1.57531L37.8282 1.51786L37.9587 1.46193L38.0888 1.40753L38.2184 1.35465L38.3476 1.30332L38.4763 1.25351L38.6045 1.20526L38.7323 1.15854L38.8596 1.11338L38.9865 1.06977L39.1128 1.02772L39.2388 0.987235L39.3642 0.948312L39.4891 0.910956L39.6136 0.875174L39.7376 0.840968L39.8611 0.80834L39.9842 0.777294L40.1067 0.747835L40.2288 0.719962L40.3504 0.693679L40.4714 0.668993L40.592 0.645901L40.7121 0.624411L40.8317 0.604526L40.9508 0.586243L41.0694 0.569565L41.1875 0.5545L41.3051 0.541047L41.4222 0.529208L41.5388 0.518981L41.6548 0.510379L41.7704 0.503394L41.8855 0.498033L42 0.494296L42.114 0.492183L42.2275 0.491699L42.3406 0.492847L42.453 0.495623L42.565 0.500031L42.6765 0.506074L42.7874 0.51375L42.8978 0.523061L43.0077 0.534012L43.117 0.546599L43.2259 0.560825L43.3342 0.576688L43.442 0.594193L43.5492 0.613342L43.656 0.634131L43.7622 0.656559L43.8679 0.68063L43.973 0.706345L44.0776 0.733704L44.1817 0.762706L44.2853 0.793347L44.3883 0.825632L44.4907 0.859564L44.5927 0.895132L44.6941 0.932347L44.795 0.971202L44.8953 1.0117L44.9951 1.05384L45.0944 1.09761L45.1931 1.14303L45.2913 1.19008L45.389 1.23878L45.4861 1.28911L45.5827 1.34107L45.6787 1.39467L45.7742 1.4499L45.8692 1.50677L45.9636 1.56526L46.0575 1.62538L46.1508 1.68713L46.2436 1.7505L46.3359 1.8155L46.4276 1.88212L46.5188 1.95036L46.6094 2.02022L46.6995 2.09169L46.7891 2.16477L46.8781 2.23947L46.9666 2.31577L47.0545 2.39368L47.1419 2.4732L47.2288 2.55431L47.3151 2.63702L47.4008 2.72133L47.4861 2.80723L47.5708 2.89471L47.6549 2.98379L47.7385 3.07444L47.8216 3.16668L47.9041 3.26049L47.9861 3.35588L48.0676 3.45283L48.1485 3.55135L48.2289 3.65143L48.3087 3.75307L48.388 3.85627L48.4668 3.96101L48.545 4.0673L48.6227 4.17514L48.6998 4.2845L48.7765 4.39541L48.8525 4.50784L48.9281 4.6218L49.0031 4.73728L49.0776 4.85427L49.1515 4.97277L49.225 5.09278L49.2978 5.21429L49.3702 5.3373L49.442 5.4618L49.5133 5.58778L49.5841 5.71525L49.6543 5.84419L49.724 5.9746L49.7932 6.10648L49.8619 6.23981L49.93 6.3746L49.9976 6.51083L50.0647 6.64851L50.1312 6.78762L50.1972 6.92817L50.2627 7.07014L50.3277 7.21352L50.3922 7.35832L50.4561 7.50452L50.5196 7.65212L50.5825 7.80112L50.6448 7.9515L50.7067 8.10326L50.768 8.2564L50.8289 8.4109L50.8892 8.56676L50.949 8.72397L51.0083 8.88253L51.0671 9.04243L51.1253 9.20366L51.1831 9.36621L51.2403 9.53009L51.2971 9.69527L51.3533 9.86175L51.409 10.0295L51.4642 10.1986L51.5189 10.3689L51.5731 10.5406L51.6268 10.7134L51.68 10.8876L51.7327 11.063L51.7849 11.2396L51.8366 11.4175L51.8878 11.5966L51.9384 11.7769L51.9886 11.9584L52.0383 12.1411L52.0875 12.325L52.1362 12.5101L52.1844 12.6963L52.2322 12.8838L52.2794 13.0724L52.3261 13.2621L52.3724 13.453L52.4181 13.645L52.4634 13.8381L52.5081 14.0323L52.5524 14.2277L52.5962 14.4241L52.6395 14.6216L52.6824 14.8202L52.7247 15.0199L52.7666 15.2206L52.808 15.4224L52.8489 15.6252L52.8893 15.8291L52.9292 16.034L52.9687 16.2398L53.0077 16.4467L53.0462 16.6546L53.0842 16.8634L53.1218 17.0732L53.1589 17.284L53.1955 17.4958L53.2316 17.7084L53.2673 17.9221L53.3025 18.1366L53.3373 18.352L53.3715 18.5684L53.4053 18.7856L53.4386 19.0037L53.4715 19.2227L53.5039 19.4425L53.5358 19.6632L53.5673 19.8848L53.5983 20.1071L53.6289 20.3303L53.6589 20.5543L53.6886 20.7791L53.7177 21.0046L53.7464 21.231L53.7747 21.4581L53.8025 21.6859L53.8298 21.9145L53.8567 22.1439L53.8831 22.3739L53.9091 22.6047L53.9346 22.8361L53.9597 23.0683L53.9843 23.3011L54.0084 23.5346L54.0321 23.7687L54.0554 24.0035L54.0782 24.2389L54.1005 24.4749L54.1224 24.7115L54.1439 24.9488L54.1649 25.1866L54.1855 25.425L54.2056 25.6639L54.2253 25.9034L54.2445 26.1434L54.2633 26.384L54.2816 26.6251L54.2995 26.8667L54.317 27.1087L54.334 27.3513L54.3506 27.5943L54.3667 27.8378L54.3824 28.0817L54.3977 28.3261L54.4125 28.5708L54.4268 28.816L54.4408 29.0616L54.4543 29.3076L54.4673 29.5539L54.4799 29.8006L54.4921 30.0477L54.5039 30.2951L54.5152 30.5428L54.526 30.7908L54.5365 31.0391L54.5465 31.2877L54.556 31.5366L54.5652 31.7858L54.5739 32.0352L54.5821 32.2848L54.5899 32.5347L54.5973 32.7848L54.6043 33.0351L54.6108 33.2856L54.6169 33.5363L54.6226 33.7871L54.6278 34.0381L54.6326 34.2892L54.6369 34.5405L54.6409 34.7919L54.6444 35.0434L54.6474 35.2949L54.6501 35.5466L54.6523 35.7983L54.654 36.0501L54.6554 36.3019L54.6563 36.5538L54.6567 36.8057L54.6568 37.0576L54.6564 37.3095L54.6556 37.5613L54.6543 37.8132L54.6526 38.0649L54.6505 38.3167L54.648 38.5684L54.645 38.82L54.6416 39.0715L54.6377 39.3229L54.6334 39.5741L54.6287 39.8253L54.6236 40.0763L54.618 40.3272L54.612 40.5779L54.6055 40.8284L54.5987 41.0787L54.5913 41.3289L54.5836 41.5788L54.5754 41.8285L54.5668 42.0779L54.5578 42.3271L54.5483 42.5761L54.5384 42.8248L54.528 43.0731L54.5172 43.3212L54.506 43.569L54.4943 43.8164L54.4822 44.0635L54.4697 44.3103L54.4567 44.5567L54.4433 44.8028L54.4295 45.0484L54.4152 45.2937L54.4004 45.5385L54.3853 45.783L54.3697 46.027L54.3536 46.2705L54.3371 46.5136L54.3202 46.7563L54.3028 46.9984L54.285 47.2401L54.2667 47.4813L54.248 47.7219L54.2289 47.9621L54.2093 48.2017L54.1893 48.4407L54.1688 48.6792L54.1478 48.9171L54.1265 49.1545L54.1046 49.3912L54.0824 49.6274L54.0596 49.8629L54.0365 50.0978L54.0128 50.332L53.9888 50.5656L53.9642 50.7986L53.9393 51.0308L53.9138 51.2624L53.888 51.4933L53.8616 51.7235L53.8348 51.953L53.8076 52.1817L53.7799 52.4097L53.7517 52.6369L53.7231 52.8634L53.694 53.0891L53.6645 53.314L53.6345 53.5382L53.604 53.7615L53.5731 53.984L53.5417 54.2057L53.5099 54.4265L53.4775 54.6466L53.4448 54.8657L53.4115 55.084L53.3778 55.3014L53.3436 55.5179L53.309 55.7335L53.2739 55.9482L53.2383 56.162L53.2022 56.3748L53.1657 56.5867L53.1287 56.7977L53.0912 57.0077L53.0533 57.2167L53.0149 57.4248L52.976 57.6318L52.9366 57.8379L52.8967 58.043L52.8564 58.247L52.8156 58.45L52.7743 58.652L52.7325 58.8529L52.6903 59.0528L52.6475 59.2516L52.6043 59.4493L52.5606 59.6459L52.5164 59.8415L52.4717 60.0359L52.4265 60.2293L52.3809 60.4215L52.3347 60.6126L52.2881 60.8025L52.241 60.9913L52.1933 61.1789L52.1452 61.3654L52.0966 61.5507L52.0475 61.7349L51.9979 61.9178L51.9478 62.0995L51.8972 62.28L51.8461 62.4594L51.7945 62.6375L51.7424 62.8143L51.6898 62.9899L51.6367 63.1643L51.5831 63.3374L51.529 63.5093L51.4744 63.6799L51.4193 63.8492L51.3637 64.0172L51.3075 64.1839L51.2509 64.3493L51.1937 64.5134L51.1361 64.6763L51.0779 64.8377L51.0192 64.9979L50.96 65.1567L50.9003 65.3141L50.8401 65.4702L50.7794 65.625L50.7181 65.7784L50.6563 65.9304L50.594 66.081L50.5312 66.2303L50.4679 66.3782L50.4041 66.5246L50.3397 66.6697L50.2748 66.8133L50.2094 66.9556L50.1435 67.0964L50.077 67.2357L50.0101 67.3737L49.9426 67.5102L49.8745 67.6453L49.806 67.7789L49.7369 67.911L49.6673 68.0417L49.5971 68.1709L49.5265 68.2986L49.4553 68.4249L49.3835 68.5497L49.3113 68.6729L49.2385 68.7947L49.1652 68.915L49.0913 69.0338L49.0169 69.1511L48.942 69.2669L48.8666 69.3811L48.7906 69.4938L48.7141 69.605L48.637 69.7146L48.5594 69.8228L48.4813 69.9293L48.4026 70.0344L48.3234 70.1379L48.2437 70.2398L48.1634 70.3402L48.0826 70.439L48.0012 70.5362L47.9193 70.6319L47.8369 70.726L47.7539 70.8185L47.6704 70.9095L47.5864 70.9988L47.5018 71.0866L47.4167 71.1728L47.331 71.2574L47.2448 71.3404L47.158 71.4218L47.0708 71.5016L46.9829 71.5798L46.8945 71.6564L46.8056 71.7314L46.7162 71.8048L46.6262 71.8766L46.5356 71.9467L46.4446 72.0153L46.3529 72.0822L46.2608 72.1475L46.1681 72.2112L46.0748 72.2732L45.9811 72.3336L45.8867 72.3924L45.7919 72.4496L45.6965 72.5051L45.6005 72.559L45.504 72.6113L45.407 72.6619L45.3095 72.7109L45.2114 72.7583L45.1128 72.804L45.0136 72.8481L44.9139 72.8905L44.8136 72.9313L44.7128 72.9705L44.6115 73.008L44.5097 73.0439L44.4073 73.0781L44.3044 73.1107L44.2009 73.1417L44.0969 73.171L43.9924 73.1986L43.8874 73.2247L43.7818 73.249L43.6757 73.2718L43.5691 73.2929L43.4619 73.3123L43.3542 73.3301L43.246 73.3463L43.1373 73.3608L43.028 73.3737L42.9182 73.385L42.8079 73.3946L42.697 73.4026L42.5857 73.4089L42.4738 73.4136L42.3614 73.4167L42.2485 73.4181L42.1351 73.418L42.0212 73.4161L41.9067 73.4127L41.7918 73.4076L41.6763 73.401L41.5603 73.3927L41.4438 73.3827L41.3268 73.3712L41.2093 73.358L41.0913 73.3433L40.9728 73.3269L40.8538 73.3089L40.7343 73.2893L40.6143 73.2681L40.4938 73.2453L40.3728 73.2209L40.2514 73.195L40.1294 73.1674L40.0069 73.1382L39.884 73.1075L39.7605 73.0751L39.6366 73.0412L39.5122 73.0057L39.3874 72.9687L39.262 72.93L39.1362 72.8898L39.0099 72.8481L38.8832 72.8048L38.7559 72.7599L38.6282 72.7134L38.5001 72.6655L38.3714 72.616L38.2424 72.5649L38.1128 72.5123L37.9828 72.4582L37.8524 72.4025L37.7215 72.3454L37.5902 72.2867L37.4584 72.2265L37.3262 72.1648L37.1935 72.1016L37.0604 72.0369L36.9269 71.9706L36.7929 71.9029L36.6585 71.8338L36.5237 71.7631L36.3884 71.691L36.2528 71.6174L36.1167 71.5423L35.9802 71.4658L35.8433 71.3878L35.706 71.3084L35.5683 71.2275L35.4302 71.1452L35.2917 71.0614L35.1527 70.9763L35.0134 70.8897L34.8738 70.8017L34.7337 70.7123L34.5932 70.6215L34.4524 70.5293L34.3112 70.4357L34.1696 70.3407L34.0277 70.2443L33.8853 70.1466L33.7427 70.0475L33.5996 69.9471L33.4562 69.8453L33.3125 69.7421L33.1684 69.6376L33.024 69.5318L32.8792 69.4247L32.7341 69.3162L32.5887 69.2064L32.4429 69.0953L32.2969 68.983L32.1505 68.8693L32.0038 68.7543L31.8567 68.6381L31.7094 68.5206L31.5618 68.4019L31.4138 68.2818L31.2656 68.1606L31.1171 68.0381L30.9683 67.9143L30.8192 67.7894L30.6698 67.6632L30.5202 67.5358L30.3703 67.4072L30.2201 67.2774L30.0697 67.1465L29.919 67.0143L29.7681 66.881L29.6169 66.7465L29.4655 66.6109L29.3138 66.4741L29.162 66.3362L29.0099 66.1971L28.8575 66.0569L28.705 65.9157L28.5522 65.7733L28.3993 65.6298L28.2461 65.4852L28.0927 65.3395L27.9392 65.1928L27.7854 65.045L27.6315 64.8961L27.4774 64.7462L27.3231 64.5953L27.1687 64.4433L27.0141 64.2903L26.8594 64.1363L26.7045 63.9813L26.5494 63.8253L26.3942 63.6683L26.2389 63.5104L26.0835 63.3514L25.9279 63.1916L25.7722 63.0307L25.6164 62.8689L25.4605 62.7062L25.3045 62.5426L25.1484 62.378L24.9922 62.2126L24.8359 62.0462L24.6796 61.879L24.5232 61.7109L24.3667 61.5419L24.2101 61.3721L24.0535 61.2014L23.8969 61.0299L23.7402 60.8575L23.5835 60.6843L23.4267 60.5104L23.2699 60.3356L23.1131 60.16L22.9563 59.9836L22.7995 59.8065L22.6427 59.6286L22.4859 59.4499L22.3291 59.2705L22.1723 59.0904L22.0155 58.9096L21.8588 58.728L21.7021 58.5457L21.5455 58.3627L21.3889 58.1791L21.2324 57.9947L21.0759 57.8097L20.9195 57.6241L20.7632 57.4378L20.6069 57.2508L20.4508 57.0632L20.2947 56.8751L20.1388 56.6863L19.9829 56.4969L19.8272 56.3069L19.6716 56.1163L19.5161 55.9252L19.3608 55.7335L19.2056 55.5413L19.0505 55.3485L18.8956 55.1552L18.7409 54.9614L18.5863 54.767L18.432 54.5722L18.2778 54.3769L18.1238 54.1811L17.9699 53.9849L17.8163 53.7881L17.6629 53.591L17.5098 53.3934L17.3568 53.1953L17.2041 52.9969L17.0516 52.798L16.8994 52.5987L16.7474 52.3991L16.5957 52.1991L16.4442 51.9987L16.293 51.7979L16.1421 51.5968L15.9915 51.3954L15.8412 51.1936L15.6912 50.9915L15.5415 50.7891L15.3921 50.5864L15.243 50.3834L15.0943 50.1802L14.9459 49.9766L14.7978 49.7728L14.6502 49.5688L14.5028 49.3645L14.3559 49.16L14.2093 48.9553L14.0631 48.7504L13.9172 48.5452L13.7718 48.3399L13.6268 48.1344L13.4822 47.9288L13.338 47.7229L13.1943 47.5169L13.0509 47.3108L12.908 47.1046L12.7656 46.8982L12.6236 46.6917L12.4821 46.4852L12.341 46.2785L12.2005 46.0717L12.0604 45.8649L11.9208 45.658L11.7817 45.4511L11.6431 45.2441L11.505 45.0371L11.3675 44.8301L11.2304 44.623L11.0939 44.416L10.958 44.2089L10.8226 44.0019L10.6878 43.7949L10.5535 43.5879L10.4198 43.381L10.2867 43.1741L10.1542 42.9673L10.0222 42.7606L9.8909 42.5539L9.76018 42.3474L9.63008 42.1409L9.5006 41.9345L9.37176 41.7283L9.24355 41.5222L9.11599 41.3162L8.98909 41.1104L8.86284 40.9047L8.73727 40.6992L8.61237 40.4939L8.48815 40.2887L8.36463 40.0838L8.2418 39.879L8.11968 39.6745L7.99826 39.4701L7.87757 39.266L7.75761 39.0622L7.63838 38.8585L7.51988 38.6552L7.40214 38.4521L7.28516 38.2492L7.16894 38.0467L7.05348 37.8444L6.9388 37.6424L6.82491 37.4408L6.7118 37.2394L6.5995 37.0384L6.488 36.8377L6.37731 36.6373L6.26744 36.4373L6.1584 36.2377L6.05019 36.0384L5.94282 35.8395L5.8363 35.6409L5.73063 35.4428L5.62582 35.2451L5.52188 35.0477L5.41882 34.8508L5.31663 34.6543L5.21533 34.4582L5.11493 34.2626L5.01543 34.0674L4.91684 33.8726L4.81916 33.6784L4.72241 33.4845L4.62658 33.2912L4.53169 33.0984L4.43774 32.906L4.34473 32.7141L4.25268 32.5228L4.1616 32.3319L4.07148 32.1416L3.98233 31.9518L3.89416 31.7626L3.80699 31.5739L3.7208 31.3857L3.63561 31.1981L3.55143 31.0111L3.46827 30.8246L3.38611 30.6387L3.30499 30.4534L3.22489 30.2687L3.14583 30.0846L3.06782 29.9011L2.99085 29.7182L2.91494 29.536L2.84008 29.3543L2.7663 29.1733L2.69358 28.9929L2.62195 28.8132L2.5514 28.6341L2.48194 28.4557L2.41357 28.278L2.34631 28.1009L2.28015 27.9245L2.21511 27.7488L2.15119 27.5738L2.08839 27.3995L2.02671 27.2259L1.96617 27.053L1.90678 26.8808L1.84853 26.7093L1.79143 26.5386L1.73548 26.3685L1.6807 26.1993L1.62708 26.0307L1.57464 25.8629L1.52337 25.6959L1.47328 25.5296L1.42438 25.3641L1.37668 25.1994L1.33016 25.0354L1.28485 24.8723L1.24075 24.7099L1.19786 24.5483L1.15618 24.3875L1.11572 24.2275L1.07649 24.0683L1.03849 23.9099L1.00172 23.7523L0.96619 23.5956L0.931903 23.4397L0.898863 23.2846L0.867074 23.1303L0.836543 22.9769L0.807267 22.8243L0.77926 22.6726L0.75252 22.5218L0.727049 22.3718L0.702855 22.2226L0.679943 22.0743L0.658316 21.9269L0.637973 21.7804L0.618923 21.6347L0.601166 21.49L0.584709 21.3461L0.569556 21.2031L0.555704 21.061L0.543166 20.9198L0.531937 20.7795L0.522023 20.6401L0.513433 20.5016L0.506161 20.364L0.500217 20.2274L0.495599 20.0916L0.492312 19.9568L0.49036 19.8229L0.489746 19.6899L0.490471 19.5579L0.492537 19.4268L0.495954 19.2967L0.500716 19.1674L0.506828 19.0392L0.514294 18.9118L0.523114 18.7855L0.533295 18.66L0.544836 18.5356L0.557736 18.4121L0.572004 18.2895L0.587638 18.1679L0.604644 18.0473L0.623015 17.9276L0.642762 17.809L0.663886 17.6913L0.686383 17.5745L0.71026 17.4588L0.735514 17.344L0.762152 17.2302L0.790173 17.1174L0.819579 17.0055L0.850369 16.8947L0.882547 16.7848L0.916113 16.676L0.951067 16.5681L0.987413 16.4612L1.02515 16.3554L1.06428 16.2505L1.1048 16.1466L1.14672 16.0437L1.19003 15.9418L1.23474 15.8409L1.28084 15.741L1.32835 15.6422L1.37724 15.5443L1.42754 15.4475L1.47923 15.3516L1.53232 15.2568L1.58681 15.1629L1.6427 15.0701L1.69998 14.9783L1.75867 14.8875L1.81875 14.7977L1.88023 14.709L1.94311 14.6212L2.00739 14.5345L2.07306 14.4487L2.14013 14.364L2.20859 14.2803L2.27845 14.1977L2.34971 14.116L2.42236 14.0354L2.49639 13.9558L2.57183 13.8772L2.64865 13.7996L2.72686 13.723L2.80647 13.6475L2.88746 13.5729L2.96983 13.4994L3.05359 13.4269L3.13873 13.3554L3.22526 13.285L3.31316 13.2155L3.40244 13.1471L3.4931 13.0797L3.58513 13.0133L3.67854 12.9479L3.77332 12.8835L3.86947 12.8202L3.96698 12.7578L4.06585 12.6965L4.16609 12.6362L4.26769 12.5769L4.37065 12.5186L4.47495 12.4613L4.58062 12.405L4.68763 12.3497L4.79599 12.2955L4.90569 12.2422L5.01673 12.1899L5.12911 12.1387L5.24282 12.0884L5.35787 12.0392L5.47425 11.9909L5.59194 11.9436L5.71097 11.8974L5.8313 11.8521L5.95296 11.8078L6.07592 11.7645L6.2002 11.7222L6.32577 11.6809L6.45265 11.6406L6.58082 11.6012L6.71029 11.5629L6.84104 11.5255L6.97308 11.4891L7.10639 11.4536L7.24099 11.4192L7.37685 11.3857L7.51398 11.3532L7.65237 11.3217L7.79202 11.2911L7.93292 11.2615L8.07507 11.2329L8.21847 11.2052L8.3631 11.1785L8.50896 11.1527L8.65606 11.1279L8.80438 11.104L8.95392 11.0811L9.10467 11.0592L9.25662 11.0381L9.40979 11.0181L9.56414 10.9989L9.71969 10.9807L9.87643 10.9634L10.0343 10.9471L10.1934 10.9317L10.3537 10.9172L10.5151 10.9037L10.6777 10.891L10.8414 10.8793L11.0063 10.8685L11.1723 10.8586L11.3394 10.8496L11.5077 10.8416L11.6771 10.8344L11.8476 10.8281L12.0192 10.8227L12.1919 10.8183L12.3657 10.8147L12.5406 10.812L12.7166 10.8102L12.8936 10.8092L13.0718 10.8092L13.2509 10.81L13.4311 10.8117L13.6124 10.8143L13.7947 10.8177L13.9781 10.822L14.1624 10.8271L14.3478 10.8332L14.5342 10.84L14.7216 10.8477L14.9099 10.8563L15.0993 10.8657L15.2896 10.8759L15.481 10.887L15.6732 10.8989L15.8665 10.9117L16.0606 10.9252L16.2557 10.9396L16.4518 10.9548L16.6488 10.9708L16.8466 10.9877L17.0454 11.0053L17.2451 11.0238L17.4457 11.043L17.6471 11.063L17.8495 11.0839L18.0527 11.1055L18.2567 11.1279L18.4616 11.1511L18.6673 11.175L18.8739 11.1998L19.0813 11.2253L19.2895 11.2515L19.4985 11.2786L19.7082 11.3064L19.9188 11.3349L20.1302 11.3642L20.3423 11.3942L20.5551 11.425L20.7688 11.4565L20.9831 11.4888L21.1982 11.5218L21.414 11.5555L21.6305 11.59L21.8477 11.6251L22.0656 11.661L22.2842 11.6976L22.5035 11.7349L22.7234 11.7729L22.944 11.8116L23.1652 11.851L23.387 11.891L23.6095 11.9318L23.8326 11.9733L24.0563 12.0154L24.2805 12.0582L24.5054 12.1017L24.7308 12.1458L24.9568 12.1906L25.1833 12.2361L25.4104 12.2822L25.638 12.329L25.8662 12.3764L26.0948 12.4244L26.324 12.4731L26.5536 12.5225L26.7837 12.5724L27.0143 12.623L27.2453 12.6742L27.4768 12.726L27.7088 12.7785L27.9411 12.8315L28.1739 12.8852L28.407 12.9394L28.6406 12.9943L28.8746 13.0497L29.1089 13.1057L29.3435 13.1623L29.5786 13.2195L29.814 13.2773L30.0497 13.3356L30.2857 13.3945L30.522 13.454L30.7586 13.5141L30.9955 13.5746L31.2327 13.6358L31.4701 13.6975L31.7078 13.7597L31.9457 13.8225L32.1839 13.8858L32.4222 13.9496L32.6608 14.014L32.8996 14.0789L33.1385 14.1443L33.3777 14.2102L33.6169 14.2766L33.8564 14.3435L34.0959 14.411L34.3356 14.4789L34.5754 14.5473L34.8154 14.6163L35.0554 14.6857L35.2954 14.7556L35.5356 14.8259L35.7758 14.8968L36.0161 14.9681L36.2564 15.0399L36.4967 15.1121L36.737 15.1848L36.9773 15.258L37.2176 15.3316L37.4579 15.4056L37.6981 15.4801L37.9383 15.5551L38.1785 15.6304L38.4186 15.7062L38.6585 15.7824L38.8984 15.8591L39.1382 15.9362L39.3779 16.0137L39.6174 16.0916L39.8568 16.1699L40.0961 16.2486L40.3352 16.3277L40.5741 16.4072L40.8128 16.4871L41.0513 16.5674L41.2896 16.6481L41.5277 16.7291L41.7655 16.8106L42.0031 16.8924L42.2405 16.9746L42.4776 17.0571L42.7144 17.14L42.9508 17.2233L43.187 17.3069L43.4229 17.3909L43.6585 17.4752L43.8937 17.5599L44.1285 17.645L44.363 17.7303L44.5971 17.816L44.8309 17.902L45.0642 17.9884L45.2971 18.0751L45.5296 18.1621L45.7617 18.2494L45.9933 18.337L46.2245 18.425L46.4552 18.5132L46.6854 18.6018L46.9152 18.6906L47.1444 18.7798L47.3731 18.8692L47.6013 18.959L47.8289 19.049L48.056 19.1393L48.2826 19.2299L48.5086 19.3208L48.734 19.4119L48.9588 19.5034L49.1829 19.5951L49.4065 19.687L49.6295 19.7792L49.8518 19.8717L50.0734 19.9644L50.2944 20.0574L50.5148 20.1507L50.7344 20.2442L50.9533 20.3379L51.1716 20.4319L51.3891 20.5261L51.6059 20.6205L51.822 20.7152L52.0373 20.8101L52.2518 20.9053L52.4656 21.0006L52.6786 21.0962L52.8908 21.192L53.1022 21.288L53.3127 21.3842L53.5225 21.4807L53.7314 21.5773L53.9395 21.6742L54.1467 21.7712L54.353 21.8685L54.5585 21.9659L54.7631 22.0636L54.9667 22.1614L55.1695 22.2595L55.3713 22.3577L55.5723 22.4561L55.7722 22.5546L55.9712 22.6534L56.1693 22.7523L56.3664 22.8514L56.5625 22.9507L56.7576 23.0502L56.9517 23.1498L57.1448 23.2496L57.3369 23.3495L57.5279 23.4496L57.7179 23.5499L57.9068 23.6503L58.0947 23.7509L58.2815 23.8516L58.4673 23.9525L58.6519 24.0535L58.8355 24.1546L59.0179 24.256L59.1992 24.3574L59.3794 24.459L59.5584 24.5607L59.7363 24.6625L59.9131 24.7645L60.0887 24.8666L60.2631 24.9689L60.4363 25.0712L60.6083 25.1737L60.7792 25.2764L60.9488 25.3791L61.1172 25.4819L61.2843 25.5849L61.4503 25.688L61.615 25.7912L61.7784 25.8945L61.9406 25.9979L62.1015 26.1014L62.2611 26.205L62.4195 26.3088L62.5765 26.4126L62.7323 26.5165L62.8867 26.6206L63.0398 26.7247L63.1916 26.8289L63.342 26.9332L63.4911 27.0376L63.6389 27.1421L63.7853 27.2467L63.9303 27.3514L64.0739 27.4561L64.2162 27.561L64.3571 27.6659L64.4966 27.7709L64.6347 27.876L64.7713 27.9812L64.9066 28.0864L65.0404 28.1917L65.1728 28.2971L65.3038 28.4026L65.4333 28.5081L65.5613 28.6137L65.6879 28.7194L65.8131 28.8251L65.9367 28.9309L66.0589 29.0368L66.1796 29.1427L66.2988 29.2487L66.4165 29.3548L66.5327 29.4609L66.6474 29.5671L66.7606 29.6733L66.8722 29.7796L66.9824 29.8859L67.091 29.9923L67.198 30.0988L67.3035 30.2053L67.4075 30.3118L67.5099 30.4184L67.6107 30.525L67.71 30.6317L67.8077 30.7385L67.9038 30.8453L67.9983 30.9521L68.0913 31.059L68.1826 31.1659L68.2724 31.2728L68.3606 31.3798L68.4471 31.4869L68.5321 31.5939L68.6154 31.701L68.6971 31.8082L68.7772 31.9154L68.8556 32.0226L68.9324 32.1298L69.0076 32.2371L69.0812 32.3444L69.1531 32.4517L69.2233 32.5591L69.2919 32.6665L69.3589 32.7739L69.4242 32.8814L69.4878 32.9889L69.5497 33.0964L69.61 33.2039L69.6686 33.3115L69.7256 33.4191L69.7808 33.5267L69.8344 33.6343L69.8863 33.7419L69.9365 33.8496L69.9851 33.9573L70.0319 34.065L70.077 34.1727L70.1204 34.2805L70.1622 34.3882L70.2022 34.496L70.2406 34.6038L70.2772 34.7116L70.3121 34.8194L70.3453 34.9272L70.3768 35.0351L70.4066 35.1429L70.4347 35.2508L70.461 35.3587L70.4857 35.4666L70.5086 35.5745L70.5298 35.6824L70.5493 35.7903L70.567 35.8982L70.5831 36.0061L70.5974 36.114L70.6099 36.222L70.6208 36.3299L70.6299 36.4379L70.6373 36.5458L70.643 36.6538L70.647 36.7617L70.6492 36.8697L70.6497 36.9776L70.6485 37.0856L70.6455 37.1935L70.6409 37.3015L70.6344 37.4094L70.6263 37.5174L70.6165 37.6253L70.6049 37.7332L70.5916 37.8412L70.5765 37.9491L70.5598 38.057L70.5413 38.1649L70.5211 38.2728L70.4992 38.3807L70.4755 38.4886L70.4502 38.5965L70.4231 38.7044L70.3943 38.8122L70.3638 38.9201L70.3316 39.0279L70.2977 39.1358L70.262 39.2436L70.2247 39.3514L70.1856 39.4592L70.1449 39.5669L70.1024 39.6747L70.0583 39.7824L70.0124 39.8901L69.9649 39.9978L69.9157 40.1055L69.8648 40.2132L69.8122 40.3208L69.7579 40.4284L69.7019 40.536L69.6443 40.6436L69.5849 40.7511L69.5239 40.8586L69.4613 40.9662L69.397 41.0736L69.331 41.1811L69.2633 41.2885L69.1941 41.3959L69.1231 41.5032L69.0505 41.6106L68.9763 41.7179L68.9004 41.8251L68.8229 41.9324L68.7438 42.0396L68.663 42.1467L68.5806 42.2538L68.4966 42.3609L68.411 42.468L68.3238 42.575L68.2349 42.682L68.1445 42.7889L68.0525 42.8958L67.9589 43.0027L67.8637 43.1095L67.7669 43.2162L67.6685 43.323L67.5686 43.4296L67.4671 43.5363L67.364 43.6428L67.2594 43.7494L67.1533 43.8558L67.0456 43.9623L66.9363 44.0686L66.8256 44.175L66.7133 44.2812L66.5995 44.3874L66.4842 44.4936L66.3673 44.5997L66.249 44.7057L66.1292 44.8117L66.0078 44.9176L65.885 45.0234L65.7608 45.1292L65.635 45.2349L65.5078 45.3405L65.3791 45.4461L65.249 45.5516L65.1174 45.657L64.9844 45.7624L64.85 45.8677L64.7142 45.9729L64.5769 46.078L64.4382 46.1831L64.2982 46.2881L64.1567 46.3929L64.0138 46.4977L63.8696 46.6025L63.724 46.7071L63.577 46.8117L63.4287 46.9161L63.2791 47.0205L63.1281 47.1248L62.9757 47.2289L62.822 47.333L62.6671 47.437L62.5108 47.5409L62.3532 47.6447L62.1943 47.7484L62.0341 47.852L61.8727 47.9554L61.71 48.0588L61.546 48.1621L61.3808 48.2652L61.2144 48.3682L61.0467 48.4712L60.8778 48.574L60.7076 48.6766L60.5363 48.7792L60.3638 48.8816L60.19 48.984L60.0151 49.0861L59.8391 49.1882L59.6618 49.2901L59.4835 49.3919L59.3039 49.4936L59.1233 49.5951L58.9415 49.6965L58.7586 49.7977L58.5746 49.8988L58.3895 49.9998L58.2033 50.1006L58.016 50.2013L57.8277 50.3018L57.6383 50.4021L57.4479 50.5023L57.2564 50.6024L57.0639 50.7022L56.8704 50.8019L56.6758 50.9015L56.4803 51.0009L56.2838 51.1001L56.0863 51.1991L55.8878 51.298L55.6884 51.3967L55.4881 51.4952L55.2868 51.5935L55.0845 51.6916L54.8814 51.7896L54.6773 51.8873L54.4724 51.9849L54.2666 52.0823L54.0598 52.1794L53.8523 52.2764L53.6438 52.3732L53.4346 52.4697L53.2245 52.5661L53.0136 52.6622L52.8018 52.7582L52.5893 52.8539L52.376 52.9494L52.1619 53.0446L51.947 53.1397L51.7314 53.2345L51.515 53.3291L51.2979 53.4234L51.0801 53.5175L50.8616 53.6114L50.6423 53.705L50.4224 53.7984L50.2018 53.8915L49.9805 53.9844L49.7586 54.077L49.536 54.1694L49.3128 54.2615L49.0889 54.3534L48.8645 54.445L48.6395 54.5363L48.4138 54.6273L48.1876 54.7181L47.9608 54.8085L47.7335 54.8987L47.5056 54.9886L47.2772 55.0783L47.0483 55.1676L46.8188 55.2566L46.5889 55.3453L46.3585 55.4338L46.1276 55.5219L45.8962 55.6097L45.6644 55.6972L45.4321 55.7844L45.1995 55.8713L44.9664 55.9578L44.7329 56.044L44.499 56.1299L44.2647 56.2155L44.03 56.3007L43.795 56.3856L43.5597 56.4701L43.324 56.5543L43.088 56.6381L42.8517 56.7216L42.615 56.8047L42.3781 56.8875L42.1409 56.9699L41.9035 57.0519L41.6658 57.1336L41.4278 57.2149L41.1896 57.2958L40.9512 57.3763L40.7126 57.4564L40.4738 57.5361L40.2349 57.6155L39.9957 57.6944L39.7564 57.773L39.5169 57.8511L39.2773 57.9288L39.0376 58.0062L38.7978 58.083L38.5579 58.1595L38.3178 58.2356L38.0777 58.3112L37.8376 58.3864L37.5973 58.4611L37.3571 58.5354L37.1168 58.6093L36.8765 58.6827L36.6362 58.7557L36.3958 58.8282L36.1555 58.9002L35.9153 58.9718L35.675 59.0429L35.4348 59.1136L35.1947 59.1838L34.9546 59.2534L34.7147 59.3226L34.4748 59.3914L34.2351 59.4596L33.9954 59.5273L33.7559 59.5945L33.5165 59.6613L33.2773 59.7275L33.0383 59.7932L32.7994 59.8584L32.5607 59.923L32.3222 59.9872L32.0839 60.0508L31.8459 60.1139L31.608 60.1764L31.3705 60.2384L31.1331 60.2999L30.8961 60.3608L30.6593 60.4211L30.4228 60.4809L30.1866 60.5402L29.9507 60.5988L29.7152 60.6569L29.4799 60.7145L29.245 60.7714L29.0105 60.8278L28.7764 60.8836L28.5426 60.9388L28.3092 60.9934L28.0762 61.0474L27.8436 61.1008L27.6114 61.1535L27.3796 61.2057L27.1483 61.2573L26.9175 61.3082L26.6871 61.3585L26.4572 61.4082L26.2278 61.4573L25.9988 61.5057L25.7704 61.5535L25.5425 61.6007L25.3151 61.6472L25.0882 61.693L24.8619 61.7382L24.6362 61.7827L24.411 61.8266L24.1863 61.8698L23.9623 61.9123L23.7389 61.9541L23.5161 61.9953L23.2939 62.0358L23.0723 62.0756L22.8513 62.1147L22.631 62.1531L22.4114 62.1908L22.1924 62.2278L21.9741 62.2641L21.7565 62.2997L21.5396 62.3345L21.3234 62.3686L21.1079 62.4021L20.8931 62.4347L20.679 62.4667L20.4657 62.4979L20.2532 62.5284L20.0414 62.5581L19.8304 62.5871L19.6201 62.6153L19.4107 62.6428L19.202 62.6695L18.9942 62.6955L18.7871 62.7206L18.5809 62.7451L18.3755 62.7687L18.171 62.7915L17.9673 62.8136L17.7645 62.8349L17.5625 62.8554L17.3614 62.8751L17.1612 62.894L16.9619 62.9121L16.7635 62.9294L16.566 62.9459L16.3694 62.9616L16.1738 62.9764L15.979 62.9905L15.7853 63.0037L15.5924 63.0161L15.4006 63.0277L15.2097 63.0384L15.0197 63.0483L14.8308 63.0573L14.6428 63.0655L14.4558 63.0729L14.2699 63.0794L14.0849 63.085L13.901 63.0898L13.7181 63.0938L13.5362 63.0968L13.3554 63.099L13.1756 63.1004L12.9969 63.1008L12.8192 63.1004L12.6426 63.0991L12.4671 63.0969L12.2927 63.0939L12.1193 63.0899L11.9471 63.085L11.7759 63.0793L11.6059 63.0726L11.437 63.0651L11.2692 63.0566L11.1025 63.0473L10.937 63.037L10.7726 63.0258L10.6093 63.0137L10.4472 63.0007L10.2863 62.9867L10.1265 62.9719L9.96794 62.9561L9.81052 62.9393L9.65428 62.9217L9.49923 62.9031L9.34538 62.8836L9.19272 62.8631L9.04127 62.8417L8.89102 62.8193L8.742 62.796L8.59419 62.7717L8.44761 62.7465L8.30226 62.7204L8.15815 62.6932L8.01528 62.6652L7.87365 62.6361L7.73327 62.6061L7.59415 62.5751L7.45629 62.5432L7.31969 62.5103L7.18436 62.4764L7.0503 62.4415L6.91752 62.4057L6.78602 62.3689L6.65581 62.3311L6.52689 62.2923L6.39926 62.2526L6.27293 62.2118L6.14789 62.1701L6.02417 62.1274L5.90175 62.0837L5.78065 62.039L5.66087 61.9933L5.5424 61.9466L5.42525 61.8989L5.30944 61.8502L5.19495 61.8005L5.08179 61.7499L4.96997 61.6982L4.85949 61.6455L4.75036 61.5918L4.64256 61.5371L4.53612 61.4814L4.43102 61.4247L4.32728 61.367L4.2249 61.3083L4.12387 61.2485L4.0242 61.1878L3.9259 61.126L3.82896 61.0633L3.73338 60.9995L3.63918 60.9347L3.54635 60.8689L3.4549 60.8021L3.36481 60.7342L3.27611 60.6654L3.18878 60.5955L3.10284 60.5246L3.01828 60.4527L2.9351 60.3798L2.8533 60.3058L2.7729 60.2309L2.69388 60.1549L2.61625 60.0779L2.54001 59.9999L2.46516 59.9209L2.3917 59.8408L2.31964 59.7598L2.24897 59.6777L2.1797 59.5946L2.11182 59.5105L2.04533 59.4253L1.98025 59.3392L1.91656 59.252L1.85427 59.1638L1.79337 59.0747L1.73387 58.9844L1.67578 58.8932L1.61908 58.801L1.56378 58.7078L1.50988 58.6135L1.45737 58.5182L1.40626 58.422L1.35655 58.3247L1.30824 58.2264L1.26133 58.1271L1.21581 58.0268L1.17169 57.9255L1.12896 57.8232L1.08763 57.7199L1.04769 57.6156L1.00915 57.5103L0.971993 57.404L0.936231 57.2967L0.90186 57.1884L0.868878 57.0791L0.837279 56.9688L0.807073 56.8576L0.778246 56.7453L0.750808 56.6321L0.72475 56.5179L0.700072 56.4027L0.676774 56.2865L0.654853 56.1694L0.634309 56.0513L0.615141 55.9322L0.597342 55.8121L0.580911 55.6911L0.565854 55.5691L0.552157 55.4462L0.539826 55.3223L0.528856 55.1974L0.519247 55.0716L0.510996 54.9448L0.504098 54.8171L0.498554 54.6884L0.494356 54.5588L0.491508 54.4282L0.490002 54.2967L0.489841 54.1643L0.491016 54.031L0.493529 53.8967L0.497372 53.7615L0.502546 53.6253L0.509051 53.4883L0.516876 53.3503L0.526023 53.2115L0.53649 53.0717L0.548268 52.931L0.561358 52.7894L0.575756 52.647L0.591458 52.5036L0.60846 52.3593L0.626759 52.2142L0.64635 52.0681L0.667234 51.9213L0.689403 51.7735L0.712853 51.6248L0.73758 51.4753L0.763585 51.325L0.79086 51.1737L0.819396 51.0217L0.849199 50.8687L0.88026 50.715L0.912575 50.5604L0.946137 50.4049L0.980946 50.2487L1.017 50.0916L1.05429 49.9337L1.0928 49.775L1.13255 49.6154L1.17352 49.4551L1.21571 49.294L1.25911 49.132L1.30372 48.9693L1.34953 48.8058L1.39655 48.6415L1.44476 48.4764L1.49415 48.3106L1.54474 48.144L1.5965 47.9767L1.64944 47.8086L1.70354 47.6397L1.75882 47.4701L1.81524 47.2998L1.87283 47.1288L1.93156 46.957L1.99144 46.7845L2.05245 46.6113L2.1146 46.4374L2.17787 46.2628L2.24227 46.0875L2.30778 45.9115L2.3744 45.7348L2.44213 45.5574L2.51095 45.3794L2.58087 45.2007L2.65188 45.0214L2.72396 44.8414L2.79713 44.6608L2.87136 44.4795L2.94666 44.2976L3.02302 44.115L3.10042 43.9319L3.17888 43.7481L3.25837 43.5638L3.3389 43.3788L3.42046 43.1933L3.50304 43.0072L3.58663 42.8204L3.67124 42.6332L3.75684 42.4453L3.84344 42.2569L3.93104 42.068L4.01962 41.8785L4.10917 41.6885L4.1997 41.498L4.29119 41.3069L4.38364 41.1154L4.47704 40.9233L4.57139 40.7307L4.66667 40.5377L4.76289 40.3441L4.86003 40.1501L4.9581 39.9556L5.05707 39.7607L5.15695 39.5653L5.25773 39.3695L5.3594 39.1732L5.46196 38.9766L5.56539 38.7795L5.6697 38.5819L5.77486 38.384L5.88089 38.1857L5.98777 37.987L6.0955 37.788L6.20406 37.5885L6.31344 37.3887L6.42366 37.1886L6.53469 36.9881L6.64653 36.7872L6.75917 36.5861L6.8726 36.3846L6.98683 36.1828L7.10183 35.9807L7.21761 35.7783L7.33415 35.5756L7.45146 35.3727L7.56951 35.1695L7.68831 34.966L7.80785 34.7623L7.92812 34.5583L8.04912 34.3541L8.17083 34.1497L8.29325 33.945L8.41637 33.7402L8.54019 33.5351L8.66469 33.3299L8.78988 33.1245L8.91573 32.9189L9.04225 32.7132L9.16944 32.5073L9.29727 32.3013L9.42574 32.0951L9.55486 31.8888L9.68459 31.6824L9.81496 31.4759L9.94593 31.2693L10.0775 31.0626L10.2097 30.8558L10.3425 30.649L10.4758 30.4421L10.6098 30.2352L10.7443 30.0282L10.8794 29.8212L11.015 29.6141L11.1511 29.4071L11.2879 29.2L11.4251 28.993L11.5629 28.786L11.7012 28.579L11.84 28.372L11.9793 28.1651L12.1191 27.9582L12.2594 27.7514L12.4002 27.5447L12.5414 27.3381L12.6831 27.1315L12.8253 26.9251L12.9679 26.7188L13.111 26.5126L13.2545 26.3065L13.3985 26.1006L13.5428 25.8949L13.6876 25.6893L13.8328 25.4838L13.9784 25.2786L14.1244 25.0735L14.2707 24.8687L14.4175 24.6641L14.5646 24.4596L14.7121 24.2555L14.8599 24.0515L15.0081 23.8479L15.1567 23.6444L15.3055 23.4413L15.4547 23.2384L15.6042 23.0359L15.7541 22.8336L15.9042 22.6316L16.0547 22.43L16.2054 22.2287L16.3564 22.0277L16.5077 21.8271L16.6593 21.6269L16.8111 21.427L16.9632 21.2275L17.1156 21.0284L17.2681 20.8297L17.421 20.6315L17.574 20.4336L17.7273 20.2362L17.8808 20.0392L18.0345 19.8427L18.1884 19.6466L18.3424 19.451L18.4967 19.2559L18.6512 19.0613L18.8058 18.8672L18.9606 18.6736L19.1156 18.4805L19.2707 18.2879L19.4259 18.0959L19.5813 17.9045L19.7369 17.7136L19.8925 17.5233L20.0483 17.3335L20.2042 17.1444L20.3602 16.9558L20.5163 16.7679L20.6725 16.5806L20.8288 16.3939L20.9851 16.2079L21.1415 16.0225L21.298 15.8378L21.4546 15.6537L21.6112 15.4703L21.7679 15.2877L21.9246 15.1057L22.0813 14.9244L22.2381 14.7438L22.3949 14.564L22.5517 14.3849L22.7085 14.2066L22.8653 14.029L23.0221 13.8522L23.1789 13.6762L23.3357 13.5009L23.4925 13.3265L23.6492 13.1528L23.806 12.98L23.9626 12.808L24.1193 12.6368L24.2758 12.4665L24.4324 12.297L24.5888 12.1284L24.7452 11.9606L24.9015 11.7938L25.0578 11.6278L25.2139 11.4627L25.37 11.2986L25.5259 11.1353L25.6818 10.973L25.8375 10.8116L25.9932 10.6512L26.1487 10.4917L26.3041 10.3332L26.4594 10.1756L26.6145 10.019L26.7695 9.86344L26.9243 9.70885L27.079 9.55528L27.2335 9.40272L27.3879 9.25117L27.5421 9.10067L27.6961 8.95121L27.85 8.80279L28.0036 8.65544L28.1571 8.50915L28.3104 8.36394L28.4635 8.21981L28.6163 8.07678L28.769 7.93485L28.9215 7.79403L29.0737 7.65432L29.2257 7.51574L29.3775 7.37829L29.5291 7.24199L29.6804 7.10684L29.8314 6.97284L29.9823 6.84001L30.1328 6.70836L30.2832 6.57789L30.4332 6.4486L30.583 6.32052L30.7325 6.19364L30.8818 6.06797L31.0307 5.94352L31.1794 5.8203L31.3278 5.69832L31.4759 5.57758L31.6237 5.45809L31.7713 5.33986L31.9185 5.22289L32.0653 5.1072L32.2119 4.99278L32.3582 4.87966L32.5041 4.76782L32.6498 4.65729L32.7951 4.54806L32.94 4.44015L33.0846 4.33356L33.2289 4.2283L33.3729 4.12437L33.5165 4.02179L33.6597 3.92055L33.8026 3.82067L33.9451 3.72215L34.0873 3.625L34.2291 3.52921L34.3705 3.43482L34.5115 3.3418L34.6522 3.25018L34.7925 3.15996L34.9324 3.07115L35.0719 2.98374L35.2111 2.89775L35.3498 2.81318L35.4882 2.73004L35.6261 2.64833L35.7637 2.56806L35.9008 2.48924L36.0375 2.41187L36.1738 2.33595L36.3097 2.2615L36.4452 2.18851L36.5803 2.11699L36.7149 2.04695L36.8492 1.9784L36.9829 1.91132L37.1163 1.84574L37.2492 1.78166L37.3817 1.71908L37.5137 1.658L37.6453 1.59843L37.7765 1.54038L37.9072 1.48385L38.0374 1.42884L38.1672 1.37536L38.2966 1.32342L38.4255 1.27301L38.5539 1.22414L38.6819 1.17681L38.8094 1.13104L38.9364 1.08682L39.063 1.04415L39.1891 1.00304L39.3147 0.963503L39.4398 0.925529L39.5645 0.889122L39.6887 0.854294L39.8124 0.821041L39.9356 0.78937L40.0584 0.759282L40.1806 0.730783L40.3024 0.703875L40.4237 0.678556L40.5444 0.654835L40.6647 0.632712L40.7845 0.612191L40.9038 0.593274L41.0226 0.575963L41.1409 0.560261L41.2587 0.546168L41.376 0.533692L41.4928 0.522829L41.609 0.513586L41.7248 0.50596L41.8401 0.499958L41.9548 0.495577L42.069 0.492824L42.1828 0.491699L42.296 0.492199L42.4087 0.49433L42.5208 0.498094L42.6325 0.503489L42.7436 0.51052L42.8542 0.519187L42.9643 0.52949L43.0739 0.541429L43.1829 0.555007L43.2915 0.570225L43.3995 0.587082L43.5069 0.605579L43.6139 0.625719L43.7203 0.647499L43.8262 0.670923L43.9315 0.695989L44.0363 0.722699L44.1406 0.751049L44.2444 0.781042L44.3476 0.812679L44.4503 0.845959L44.5525 0.880883L44.6541 0.917449L44.7552 0.955656L44.8558 0.995502L44.9558 1.03699L45.0553 1.08012L45.1542 1.12489L45.2526 1.1713L45.3505 1.21935L45.4478 1.26902L45.5446 1.32034L45.6409 1.3733L45.7366 1.42789L45.8317 1.48411L45.9264 1.54195L46.0205 1.60143L46.114 1.66254L46.207 1.72527L46.2995 1.78963L46.3914 1.8556L46.4828 1.92321L46.5737 1.99242L46.664 2.06326L46.7538 2.1357L46.843 2.20976L46.9317 2.28543L47.0198 2.36271L47.1074 2.44159L47.1945 2.52207L47.281 2.60415L47.367 2.68783L47.4525 2.7731L47.5374 2.85996L47.6217 2.9484L47.7055 3.03844L47.7888 3.13005L47.8716 3.22324L47.9538 3.318L48.0354 3.41434L48.1166 3.51224L48.1972 3.61171L48.2772 3.71273L48.3567 3.81531L48.4357 3.91944L48.5141 4.02512L48.592 4.13235L48.6694 4.24111L48.7462 4.35141L48.8225 4.46324L48.8983 4.57659L48.9735 4.69147L49.0482 4.80786L49.1224 4.92577L49.196 5.04519L49.2691 5.1661L49.3417 5.28852L49.4137 5.41243L49.4852 5.53783L49.5562 5.66471L49.6266 5.79307L49.6965 5.9229L49.7659 6.0542L49.8348 6.18695L49.9031 6.32117L49.9709 6.45683L50.0382 6.59394L50.105 6.73249L50.1712 6.87247L50.2369 7.01387L50.3021 7.1567L50.3668 7.30094L50.4309 7.44659L50.4946 7.59364L50.5577 7.74208L50.6202 7.89192L50.6823 8.04313L50.7439 8.19573L50.8049 8.34969L50.8654 8.50502L50.9254 8.66169L50.9849 8.81972L51.0439 8.97909L51.1024 9.1398L51.1603 9.30183L51.2178 9.46518L51.2747 9.62985L51.3311 9.79582L51.3871 9.96308L51.4425 10.1316L51.4974 10.3015L51.5518 10.4726L51.6057 10.645L51.6591 10.8186L51.7119 10.9935L51.7643 11.1697L51.8162 11.347L51.8676 11.5257L51.9185 11.7055L51.9689 11.8865L52.0188 12.0688L52.0681 12.2522L52.117 12.4368L52.1655 12.6226L52.2134 12.8096L52.2608 12.9977L52.3077 13.187L52.3541 13.3774L52.4001 13.569L52.4455 13.7617L52.4905 13.9555L52.535 14.1504L52.579 14.3464L52.6225 14.5435L52.6655 14.7417L52.708 14.9409L52.7501 15.1412L52.7917 15.3426L52.8328 15.545L52.8734 15.7484L52.9135 15.9529L52.9532 16.1584L52.9923 16.3649L53.031 16.5723L53.0693 16.7808L53.107 16.9902L53.1443 17.2006L53.1811 17.412L53.2174 17.6243L53.2533 17.8375L53.2887 18.0517L53.3236 18.2668L53.358 18.4828L53.392 18.6997L53.4255 18.9174L53.4586 19.1361L53.4912 19.3556L53.5233 19.5759L53.5549 19.7971L53.5861 20.0192L53.6169 20.242L53.6471 20.4657L53.6769 20.6902L53.7063 20.9154L53.7352 21.1415L53.7636 21.3683L53.7915 21.5958L53.8191 21.8241L53.8461 22.0532L53.8727 22.2829L53.8989 22.5134L53.9246 22.7446L53.9498 22.9765L53.9746 23.209L53.9989 23.4422L54.0228 23.6761L54.0462 23.9106L54.0692 24.1458L54.0918 24.3816L54.1138 24.618L54.1355 24.855L54.1567 25.0925L54.1774 25.3307L54.1977 25.5694L54.2176 25.8087L54.237 26.0485L54.2559 26.2889L54.2744 26.5298L54.2925 26.7712L54.3101 27.013L54.3273 27.2554L54.3441 27.4982L54.3604 27.7415L54.3763 27.9853L54.3917 28.2295L54.4067 28.4741L54.4212 28.7191L54.4353 28.9645L54.449 29.2103L54.4622 29.4565L54.475 29.7031L54.4874 29.95L54.4993 30.1973L54.5108 30.4449L54.5218 30.6928L54.5324 30.941L54.5426 31.1895L54.5523 31.4383L54.5616 31.6873L54.5705 31.9366L54.5789 32.1862L54.5869 32.436L54.5945 32.686L54.6016 32.9362L54.6083 33.1866L54.6146 33.4372L54.6204 33.688L54.6258 33.9389L54.6307 34.19L54.6353 34.4412L54.6394 34.6925L54.643 34.944L54.6463 35.1955L54.6491 35.4472L54.6515 35.6989L54.6534 35.9506L54.6549 36.2024L54.656 36.4543L54.6566 36.7062L54.6568 36.958L54.6566 37.2099L54.6559 37.4618L54.6549 37.7137L54.6533 37.9655L54.6514 38.2172L54.649 38.4689L54.6462 38.7206L54.643 38.9721L54.6393 39.2235L54.6352 39.4749L54.6306 39.7261L54.6257 39.9772L54.6202 40.2281L54.6144 40.4789L54.6081 40.7294L54.6014 40.9799L54.5943 41.2301L54.5867 41.4801L54.5787 41.7299L54.5703 41.9794L54.5614 42.2287L54.5521 42.4778L54.5423 42.7265L54.5321 42.975L54.5215 43.2232L54.5105 43.4711L54.499 43.7187L54.4871 43.966L54.4747 44.2129L54.4619 44.4594L54.4487 44.7056L54.435 44.9514L54.4209 45.1968L54.4063 45.4418L54.3913 45.6864L54.3759 45.9306L54.36 46.1744L54.3437 46.4176L54.3269 46.6605L54.3097 46.9028L54.2921 47.1447L54.274 47.3861L54.2555 47.6269L54.2365 47.8673L54.2171 48.1071L54.1972 48.3464L54.1769 48.5851L54.1562 48.8232L54.135 49.0608L54.1133 49.2978L54.0912 49.5341L54.0687 49.7699L54.0457 50.005L54.0222 50.2396L53.9983 50.4734L53.974 50.7066L53.9492 50.9392L53.9239 51.171L53.8982 51.4022L53.8721 51.6326L53.8455 51.8624L53.8184 52.0914L53.7909 52.3197L53.7629 52.5472L53.7345 52.774L53.7056 53L53.6762 53.2253L53.6464 53.4497L53.6161 53.6734L53.5854 53.8962L53.5542 54.1182L53.5225 54.3394L53.4904 54.5597L53.4578 54.7792L53.4247 54.9978L53.3912 55.2156L53.3572 55.4324L53.3227 55.6484L53.2878 55.8635L53.2524 56.0776L53.2165 56.2908L53.1802 56.5031L53.1434 56.7144L53.1061 56.9248L53.0683 57.1342L53.0301 57.3427L52.9914 57.5501L52.9522 57.7566L52.9125 57.9621L52.8724 58.1665L52.8318 58.3699L52.7907 58.5723L52.7491 58.7736L52.707 58.9739L52.6645 59.1731L52.6214 59.3713L52.5779 59.5684L52.5339 59.7643L52.4894 59.9592L52.4444 60.153L52.399 60.3457L52.353 60.5372L52.3066 60.7276L52.2596 60.9168L52.2122 61.1049L52.1643 61.2919L52.1159 61.4777L52.067 61.6622L52.0175 61.8457L51.9676 62.0279L51.9172 62.2089L51.8663 62.3887L51.8149 62.5672L51.763 62.7446L51.7107 62.9207L51.6578 63.0956L51.6043 63.2692L51.5504 63.4415L51.496 63.6126L51.4411 63.7824L51.3857 63.9509L51.3298 64.1182L51.2733 64.2841L51.2164 64.4488L51.1589 64.6121L51.1009 64.7741L51.0425 64.9348L50.9835 65.0941L50.924 65.2521L50.8639 65.4087L50.8034 65.564L50.7424 65.718L50.6808 65.8705L50.6187 66.0217L50.5561 66.1715L50.493 66.3199L50.4294 66.4669L50.3652 66.6125L50.3005 66.7567L50.2353 66.8995L50.1696 67.0409L50.1034 67.1809L50.0366 67.3194L49.9693 67.4564L49.9015 67.5921L49.8331 67.7262L49.7642 67.859L49.6948 67.9902L49.6249 68.12L49.5545 68.2483L49.4835 68.3752L49.412 68.5005L49.3399 68.6244L49.2673 68.7468L49.1942 68.8677L49.1206 68.9871L49.0464 69.1049L48.9717 69.2213L48.8964 69.3361L48.8207 69.4495L48.7444 69.5612L48.6675 69.6715L48.5901 69.7802L48.5122 69.8874L48.4338 69.993L48.3548 70.0971L48.2753 70.1997L48.1952 70.3007L48.1146 70.4001L48.0335 70.498L47.9518 70.5943L47.8696 70.689L47.7868 70.7821L47.7035 70.8737L47.6197 70.9637L47.5353 71.0521L47.4504 71.1389L47.3649 71.2242L47.2789 71.3078L47.1924 71.3898L47.1053 71.4703L47.0177 71.5491L46.9295 71.6264L46.8408 71.702L46.7516 71.776L46.6618 71.8484L46.5715 71.9192L46.4806 71.9884L46.3892 72.056L46.2973 72.1219L46.2048 72.1862L46.1117 72.2489L46.0182 72.31L45.9241 72.3694L45.8294 72.4272L45.7342 72.4834L45.6385 72.5379L45.5422 72.5909L45.4454 72.6421L45.3481 72.6918L45.2502 72.7398L45.1518 72.7862L45.0528 72.8309L44.9533 72.874L44.8533 72.9154L44.7527 72.9552L44.6516 72.9934L44.55 73.0299L44.4478 73.0648L44.3451 73.098L44.2419 73.1296L44.1381 73.1596L44.0338 73.1879L43.9289 73.2146L43.8236 73.2396L43.7177 73.263L43.6113 73.2847L43.5043 73.3048L43.3968 73.3233L43.2888 73.3401L43.1803 73.3553L43.0712 73.3688L42.9616 73.3807L42.8515 73.391L42.7409 73.3996L42.6298 73.4066L42.5181 73.412L42.4059 73.4157L42.2932 73.4178L42.18 73.4182L42.0662 73.4171L41.952 73.4143L41.8372 73.4098L41.722 73.4038L41.6062 73.3961L41.4899 73.3868L41.3731 73.376L41.2558 73.3634L41.138 73.3493L41.0197 73.3336L40.9009 73.3162L40.7816 73.2973L40.6618 73.2767L40.5415 73.2545L40.4207 73.2308L40.2994 73.2054L40.1776 73.1785L40.0554 73.1499L39.9326 73.1198L39.8094 73.0881L39.6857 73.0548L39.5615 73.0199L39.4368 72.9835L39.3116 72.9455L39.186 72.9059L39.0599 72.8648L38.9333 72.822L38.8062 72.7778L38.6787 72.732L38.5508 72.6846L38.4223 72.6357L38.2934 72.5853L38.1641 72.5333L38.0342 72.4798L37.904 72.4247L37.7733 72.3681L37.6421 72.31L37.5105 72.2504L37.3784 72.1893L37.246 72.1267L37.113 72.0626L36.9797 71.997L36.8459 71.9299L36.7116 71.8613L36.577 71.7912L36.4419 71.7196L36.3064 71.6466L36.1705 71.5721L36.0342 71.4962L35.8974 71.4188L35.7603 71.3399L35.6227 71.2596L35.4848 71.1779L35.3464 71.0947L35.2077 71.0101L35.0685 70.9241L34.929 70.8366L34.7891 70.7478L34.6488 70.6575L34.5081 70.5659L34.367 70.4728L34.2256 70.3784L34.0838 70.2826L33.9416 70.1854L33.7991 70.0868L33.6562 69.9869L33.5129 69.8856L33.3693 69.783L33.2254 69.6791L33.0811 69.5738L32.9365 69.4672L32.7915 69.3592L32.6462 69.25L32.5006 69.1394L32.3546 69.0275L32.2083 68.9144L32.0618 68.7999L31.9148 68.6842L31.7676 68.5672L31.6201 68.4489L31.4723 68.3294L31.3242 68.2086L31.1758 68.0866L31.0271 67.9634L30.8781 67.8389L30.7289 67.7132L30.5793 67.5863L30.4295 67.4582L30.2795 67.3289L30.1292 67.1984L29.9786 67.0667L29.8278 66.9338L29.6767 66.7998L29.5253 66.6646L29.3738 66.5283L29.222 66.3908L29.07 66.2522L28.9177 66.1125L28.7653 65.9716L28.6126 65.8297L28.4597 65.6866L28.3066 65.5424L28.1533 65.3972L27.9999 65.2509L27.8462 65.1035L27.6923 64.9551L27.5383 64.8056L27.3841 64.6551L27.2297 64.5035L27.0752 64.3509L26.9205 64.1973L26.7657 64.0427L26.6107 63.8871L26.4556 63.7305L26.3003 63.5729L26.1449 63.4144L25.9894 63.2548L25.8337 63.0944L25.678 62.933L25.5221 62.7706L25.3662 62.6074L25.2101 62.4432L25.0539 62.2781L24.8977 62.1121L24.7414 61.9452L24.585 61.7774L24.4285 61.6088L24.272 61.4393L24.1154 61.2689L23.9588 61.0977L23.8021 60.9257L23.6454 60.7529L23.4886 60.5792L23.3319 60.4047L23.1751 60.2295L23.0183 60.0534L22.8615 59.8766L22.7046 59.699L22.5478 59.5206L22.391 59.3415L22.2342 59.1617L22.0775 58.9811L21.9207 58.7998L21.764 58.6178L21.6074 58.4351L21.4508 58.2517L21.2942 58.0676L21.1377 57.8829L20.9813 57.6975L20.8249 57.5115L20.6686 57.3248L20.5125 57.1374L20.3564 56.9495L20.2004 56.7609L20.0445 56.5718L19.8887 56.382L19.7331 56.1917L19.5775 56.0008L19.4221 55.8093L19.2669 55.6173L19.1118 55.4247L18.9568 55.2316L18.802 55.038L18.6474 54.8439L18.4929 54.6493L18.3387 54.4541L18.1846 54.2585L18.0307 54.0625L17.877 53.8659L17.7235 53.6689L17.5703 53.4715L17.4172 53.2736L17.2644 53.0753L17.1118 52.8766L16.9595 52.6775L16.8074 52.478L16.6556 52.2781L16.504 52.0779L16.3527 51.8773L16.2017 51.6763L16.051 51.475L15.9005 51.2734L15.7504 51.0714L15.6006 50.8691L15.4511 50.6665L15.3019 50.4637L15.153 50.2605L15.0045 50.0571L14.8563 49.8534L14.7085 49.6495L14.561 49.4453L14.4139 49.2409L14.2671 49.0362L14.1208 48.8314L13.9748 48.6263L13.8292 48.4211L13.6841 48.2156L13.5393 48.01L13.3949 47.8043L13.251 47.5983L13.1075 47.3923L12.9644 47.1861L12.8218 46.9798L12.6797 46.7733L12.538 46.5668L12.3967 46.3602L12.2559 46.1534L12.1157 45.9466L11.9759 45.7398L11.8366 45.5329L11.6978 45.3259L11.5595 45.1189L11.4217 44.9119L11.2845 44.7048L11.1478 44.4978L11.0117 44.2907L10.876 44.0837L10.741 43.8767L10.6065 43.6697L10.4726 43.4628L10.3392 43.2559L10.2065 43.049L10.0743 42.8423L9.94272 42.6356L9.81176 42.429L9.68141 42.2225L9.55168 42.0161L9.42259 41.8098L9.29413 41.6036L9.16631 41.3976L9.03915 41.1917L8.91264 40.986L8.7868 40.7804L8.66163 40.575L8.53715 40.3698L8.41335 40.1647L8.29024 39.9599L8.16784 39.7553L8.04615 39.5508L7.92517 39.3466L7.80492 39.1427L7.6854 38.939L7.56661 38.7355L7.44857 38.5323L7.33129 38.3293L7.21476 38.1267L7.099 37.9243L6.98402 37.7222L6.86982 37.5204L6.7564 37.3189L6.64378 37.1178L6.53196 36.9169L6.42095 36.7165L6.31076 36.5163L6.20139 36.3165L6.09285 36.1171L5.98514 35.918L5.87829 35.7193L5.77228 35.521L5.66713 35.3231L5.56284 35.1256L5.45943 34.9285L5.3569 34.7319L5.25525 34.5356L5.15449 34.3398L5.05464 34.1444L4.95568 33.9495L4.85765 33.7551L4.76053 33.5611L4.66433 33.3675L4.56907 33.1745L4.47474 32.9819L4.38136 32.7899L4.28894 32.5983L4.19747 32.4073L4.10697 32.2168L4.01743 32.0268L3.92888 31.8373L3.84131 31.6484L3.75473 31.46L3.66915 31.2722L3.58457 31.0849L3.501 30.8982L3.41845 30.7121L3.33692 30.5266L3.25641 30.3416L3.17694 30.1573L3.09851 29.9735L3.02113 29.7904L2.9448 29.6079L2.86953 29.426L2.79532 29.2447L2.72218 29.0641L2.65012 28.8841L2.57914 28.7048L2.50925 28.5261L2.44045 28.3482L2.37276 28.1708L2.30616 27.9941L2.24068 27.8182L2.17631 27.6429L2.11306 27.4683L2.05095 27.2944L1.98996 27.1212L1.93011 26.9487L1.87141 26.777L1.81385 26.6059L1.75745 26.4356L1.7022 26.2661L1.64813 26.0972L1.59522 25.9291L1.54348 25.7618L1.49293 25.5952L1.44356 25.4294L1.39538 25.2644L1.34839 25.1001L1.30261 24.9366L1.25803 24.7739L1.21466 24.612L1.1725 24.4509L1.13156 24.2906L1.09184 24.1311L1.05336 23.9724L1.0161 23.8145L0.98008 23.6574L0.945302 23.5012L0.911766 23.3458L0.879486 23.1912L0.848455 23.0374L0.818683 22.8845L0.790173 22.7325L0.762933 22.5813L0.736959 22.4309L0.712262 22.2814L0.688843 22.1328L0.666708 21.9851L0.645855 21.8382L0.626294 21.6922L0.608026 21.5471L0.591058 21.4028L0.575386 21.2595L0.561023 21.117L0.547963 20.9755L0.536215 20.8348L0.525783 20.695L0.51667 20.5562L0.508876 20.4183L0.502405 20.2812L0.497262 20.1451L0.493449 20.01L0.49097 19.8757L0.489826 19.7424L0.490024 19.61L0.491561 19.4785L0.494444 19.348L0.498672 19.2184L0.504251 19.0897L0.511183 18.962L0.519469 18.8353L0.529112 18.7095L0.540112 18.5846L0.552478 18.4607L0.566205 18.3378L0.581297 18.2158L0.597761 18.0948L0.615595 17.9748L0.634797 17.8557L0.655376 17.7376L0.677331 17.6205L0.700663 17.5044L0.725371 17.3892L0.751464 17.275L0.778936 17.1618L0.807793 17.0496L0.838038 16.9384L0.869667 16.8281L0.902684 16.7189L0.937089 16.6106L0.972885 16.5033L1.01007 16.3971L1.04865 16.2918L1.08863 16.1875L1.12999 16.0842L1.17275 15.9819L1.21691 15.8807L1.26246 15.7804L1.30941 15.6811L1.35776 15.5829L1.4075 15.4856L1.45864 15.3893L1.51118 15.2941L1.56511 15.1999L1.62045 15.1067L1.67718 15.0145L1.73532 14.9233L1.79484 14.8331L1.85578 14.7439L1.9181 14.6558L1.98182 14.5686L2.04695 14.4825L2.11346 14.3974L2.18137 14.3133L2.25068 14.2302L2.32139 14.1482L2.39348 14.0671L2.46698 13.9871L2.54186 13.9081L2.61813 13.8301L2.69579 13.7531L2.77485 13.6772L2.85529 13.6023L2.93712 13.5283L3.02033 13.4554L3.10493 13.3836L3.19091 13.3127L3.27826 13.2429L3.367 13.174L3.45712 13.1062L3.54861 13.0394L3.64147 12.9736L3.73571 12.9089L3.83131 12.8451L3.92829 12.7824L4.02662 12.7206L4.12633 12.6599L4.22739 12.6002L4.3298 12.5415L4.43358 12.4838L4.53871 12.4271L4.64519 12.3715L4.75301 12.3168L4.86218 12.2631L4.9727 12.2105L5.08455 12.1588L5.19773 12.1082L5.31226 12.0585L5.4281 12.0098L5.54528 11.9622L5.66378 11.9155L5.7836 11.8698L5.90473 11.8252L6.02719 11.7815L6.15094 11.7388L6.276 11.6971L6.40237 11.6564L6.53003 11.6166L6.65898 11.5779L6.78923 11.5401L6.92076 11.5033L7.05357 11.4675L7.18766 11.4327L7.32302 11.3988L7.45965 11.3659L7.59754 11.334L7.73669 11.3031L7.8771 11.2731L8.01876 11.2441L8.16166 11.216L8.30581 11.1889L8.45119 11.1628L8.5978 11.1376L8.74563 11.1133L8.89469 11.0901L9.04496 11.0677L9.19644 11.0463L9.34913 11.0259L9.50301 11.0064L9.65809 10.9878L9.81436 10.9702L9.97181 10.9535L10.1304 10.9377L10.2902 10.9228L10.4512 10.9089L10.6133 10.8959L10.7766 10.8838L10.941 10.8727L11.1066 10.8624L11.2733 10.8531L11.4411 10.8446L11.6101 10.8371L11.7801 10.8305L11.9513 10.8248L12.1236 10.8199L12.2969 10.816L12.4714 10.8129L12.6469 10.8108L12.8236 10.8095L13.0013 10.8091L13.18 10.8096L13.3598 10.8109L13.5407 10.8131L13.7226 10.8162L13.9055 10.8202L14.0895 10.825L14.2744 10.8307L14.4604 10.8372L14.6474 10.8446L14.8354 10.8528L15.0244 10.8619L15.2143 10.8718L15.4052 10.8825L15.5971 10.8941L15.79 10.9065L15.9838 10.9198L16.1785 10.9338L16.3742 10.9487L16.5708 10.9644L16.7683 10.9809L16.9668 10.9982L17.1661 11.0164L17.3663 11.0353L17.5674 11.055L17.7694 11.0755L17.9723 11.0968L18.176 11.1189L18.3805 11.1418L18.5859 11.1655L18.7922 11.1899L18.9992 11.2151L19.2071 11.2411L19.4158 11.2678L19.6253 11.2953L19.8355 11.3235L20.0466 11.3525L20.2584 11.3823L20.471 11.4128L20.6843 11.444L20.8983 11.476L21.1131 11.5087L21.3287 11.5421L21.5449 11.5763L21.7618 11.6111L21.9795 11.6467L22.1978 11.683L22.4168 11.7201L22.6364 11.7578L22.8567 11.7962L23.0777 11.8353L23.2993 11.8751L23.5215 11.9156L23.7444 11.9568L23.9678 11.9987L24.1918 12.0412L24.4165 12.0844L24.6417 12.1283L24.8674 12.1728L25.0938 12.218L25.3206 12.2639L25.548 12.3104L25.776 12.3576L26.0044 12.4054L26.2334 12.4538L26.4628 12.5029L26.6927 12.5526L26.9231 12.6029L27.154 12.6539L27.3853 12.7055L27.6171 12.7577L27.8493 12.8105L28.0819 12.8639L28.3149 12.9179L28.5483 12.9725L28.7821 13.0277L29.0163 13.0835L29.2508 13.1399L29.4857 13.1969L29.7209 13.2544L29.9565 13.3125L30.1924 13.3712L30.4286 13.4305L30.6651 13.4903L30.9019 13.5506L31.1389 13.6116L31.3763 13.673L31.6139 13.735L31.8517 13.7976L32.0898 13.8607L32.328 13.9243L32.5665 13.9885L32.8052 14.0532L33.0441 14.1184L33.2832 14.1841L33.5224 14.2503L33.7618 14.317L34.0013 14.3843L34.2409 14.452L34.4807 14.5202L34.7206 14.589L34.9605 14.6582L35.2006 14.7279L35.4407 14.7981L35.6809 14.8687L35.9211 14.9399L36.1614 15.0114L36.4017 15.0835L36.642 15.156L36.8824 15.229L37.1227 15.3024L37.363 15.3763L37.6032 15.4506L37.8434 15.5254L38.0836 15.6006L38.3237 15.6762L38.5637 15.7523L38.8037 15.8288L39.0435 15.9057L39.2832 15.983L39.5228 16.0607L39.7623 16.1389L40.0016 16.2174L40.2407 16.2964L40.4797 16.3757L40.7185 16.4555L40.9571 16.5356L41.1955 16.6161L41.4336 16.6971L41.6716 16.7783L41.9093 16.86L42.1467 16.942L42.3839 17.0245L42.6208 17.1072L42.8574 17.1904L43.0938 17.2738L43.3298 17.3577L43.5654 17.4419L43.8008 17.5264L44.0358 17.6113L44.2704 17.6965L44.5047 17.7821L44.7386 17.868L44.9721 17.9542L45.2052 18.0408L45.4378 18.1277L45.6701 18.2148L45.9019 18.3024L46.1332 18.3902L46.3641 18.4783L46.5945 18.5667L46.8245 18.6555L47.0539 18.7445L47.2828 18.8339L47.5112 18.9235L47.7391 19.0134L47.9664 19.1036L48.1931 19.1941L48.4193 19.2849L48.645 19.3759L48.87 19.4672L49.0944 19.5588L49.3183 19.6507L49.5415 19.7428L49.764 19.8351L49.9859 19.9278L50.2072 20.0207L50.4278 20.1138L50.6477 20.2072L50.8669 20.3008L51.0854 20.3947L51.3032 20.4888L51.5203 20.5832L51.7367 20.6778L51.9523 20.7726L52.1671 20.8676L52.3812 20.9629L52.5945 21.0584L52.807 21.1541L53.0187 21.25L53.2296 21.3462L53.4397 21.4426L53.649 21.5391L53.8574 21.6359L54.0649 21.7329L54.2716 21.83L54.4774 21.9274L54.6823 22.025L54.8864 22.1227L55.0895 22.2207L55.2917 22.3188L55.493 22.4172L55.6933 22.5157L55.8927 22.6144L56.0912 22.7132L56.2886 22.8123L56.4851 22.9115L56.6806 23.0109L56.8751 23.1104L57.0686 23.2101L57.2611 23.31L57.4525 23.4101L57.643 23.5103L57.8323 23.6106L58.0206 23.7111L58.2079 23.8118L58.394 23.9126L58.5791 24.0136L58.7631 24.1147L58.9459 24.2159L59.1277 24.3173L59.3083 24.4188L59.4878 24.5205L59.6662 24.6223L59.8434 24.7242L60.0194 24.8263L60.1943 24.9285L60.368 25.0308L60.5405 25.1332L60.7118 25.2358L60.8819 25.3385L61.0508 25.4413L61.2184 25.5442L61.3849 25.6472L61.5501 25.7504L61.714 25.8537L61.8767 25.957L62.0381 26.0605L62.1982 26.1641L62.3571 26.2678L62.5146 26.3716L62.6709 26.4755L62.8258 26.5795L62.9795 26.6835L63.1318 26.7877L63.2827 26.892L63.4324 26.9964L63.5807 27.1008L63.7276 27.2054L63.8732 27.31L64.0174 27.4147L64.1602 27.5196L64.3016 27.6244L64.4416 27.7294L64.5803 27.8345L64.7175 27.9396L64.8533 28.0448L64.9877 28.1501L65.1207 28.2555L65.2522 28.3609L65.3823 28.4664L65.5109 28.572L65.6381 28.6776L65.7638 28.7833L65.8881 28.8891L66.0108 28.995L66.1321 29.1009L66.2519 29.2068L66.3702 29.3129L66.487 29.419L66.6023 29.5251L66.7161 29.6313L66.8283 29.7376L66.939 29.8439L67.0482 29.9503L67.1559 30.0567L67.262 30.1632L67.3666 30.2697L67.4696 30.3763L67.5711 30.4829L67.6709 30.5896L67.7693 30.6963L67.866 30.8031L67.9612 30.9099L68.0547 31.0167L68.1467 31.1236L68.2371 31.2306L68.3259 31.3375L68.4131 31.4446L68.4987 31.5516L68.5827 31.6587L68.665 31.7658L68.7457 31.873L68.8248 31.9802L68.9023 32.0874L68.9781 32.1947L69.0523 32.302L69.1249 32.4093L69.1958 32.5167L69.265 32.6241L69.3326 32.7315L69.3986 32.8389L69.4628 32.9464L69.5255 33.0539L69.5864 33.1614L69.6457 33.269L69.7033 33.3766L69.7592 33.4841L69.8135 33.5918L69.866 33.6994L69.9169 33.8071L69.9661 33.9147L70.0136 34.0224L70.0594 34.1302L70.1035 34.2379L70.1459 34.3456L70.1866 34.4534L70.2256 34.5612L70.2629 34.669L70.2985 34.7768L70.3324 34.8846L70.3646 34.9925L70.395 35.1003L70.4238 35.2082L70.4508 35.3161L70.4761 35.4239L70.4997 35.5318L70.5216 35.6397L70.5418 35.7476L70.5602 35.8555L70.5769 35.9635L70.5919 36.0714L70.6052 36.1793L70.6167 36.2873L70.6265 36.3952L70.6346 36.5032L70.641 36.6111L70.6456 36.7191L70.6485 36.827L70.6497 36.935" stroke="#FFC700" stroke-width="0.8"/>
</svg>
