<svg width="72" height="68" viewBox="0 0 72 68" fill="none" xmlns="http://www.w3.org/2000/svg">
<path d="M70.6498 34.0536L70.6225 33.7674L70.541 33.4857L70.4058 33.2133L70.2179 32.9545L69.9789 32.7138L69.6905 32.4954L69.355 32.3034L68.9749 32.1416L68.5532 32.0137L68.0929 31.9228L67.5977 31.8721L67.0714 31.8643L66.5178 31.9016L65.9413 31.9862L65.3461 32.1194L64.7368 32.3026L64.118 32.5366L63.4941 32.8216L62.8701 33.1577L62.2503 33.5444L61.6395 33.9808L61.042 34.4656L60.4623 34.9972L59.9046 35.5734L59.3727 36.1919L58.8705 36.8498L58.4014 37.5441L57.9686 38.2713L57.5751 39.0278L57.2233 39.8097L56.9155 40.6128L56.6533 41.4327L56.4384 42.2652L56.2716 43.1055L56.1535 43.949L56.0844 44.7912L56.0639 45.6272L56.0915 46.4526L56.1661 47.2627L56.2862 48.0531L56.4499 48.8196L56.6551 49.558L56.8991 50.2644L57.179 50.9353L57.4916 51.5673L57.8334 52.1573L58.2006 52.7026L58.5891 53.201L58.9949 53.6502L59.4135 54.0489L59.8404 54.3957L60.2712 54.6898L60.7011 54.9309L61.1256 55.1191L61.5401 55.2547L61.9399 55.3386L62.3207 55.3721L62.6781 55.3569L63.0081 55.2949L63.3066 55.1887L63.5699 55.041L63.7947 54.8548L63.9778 54.6336L64.1163 54.381L64.2079 54.1009L64.2502 53.7974L64.2417 53.4747L64.1809 53.1373L64.067 52.7898L63.8994 52.4366L63.6779 52.0824L63.403 51.7319L63.0752 51.3896L62.6958 51.06L62.2663 50.7474L61.7886 50.4562L61.2649 50.1902L60.698 49.9533L60.0908 49.7491L59.4467 49.5809L58.7691 49.4516L58.0619 49.3638L57.3293 49.3199L56.5753 49.3217L55.8045 49.3708L55.0213 49.4683L54.2304 49.6149L53.4364 49.8109L52.6439 50.0563L51.8577 50.3504L51.0823 50.6923L50.3221 51.0807L49.5815 51.5139L48.8647 51.9896L48.1756 52.5055L47.518 53.0586L46.8952 53.6459L46.3104 54.2639L45.7666 54.9088L45.266 55.5768L44.811 56.2636L44.4032 56.965L44.044 57.6764L43.7344 58.3933L43.4748 59.1111L43.2654 59.8251L43.1058 60.5307L42.9955 61.2232L42.9332 61.8981L42.9174 62.5511L42.9462 63.178L43.0173 63.7746L43.1281 64.3372L43.2756 64.8621L43.4566 65.3462L43.6675 65.7864L43.9044 66.1802L44.1634 66.5251L44.4403 66.8194L44.7306 67.0614L45.0299 67.2502L45.3337 67.3849L45.6372 67.4653L45.936 67.4915L46.2254 67.4641L46.5009 67.3839L46.7581 67.2525L46.9926 67.0715L47.2006 66.843L47.3779 66.5696L47.5211 66.2541L47.6267 65.8996L47.6916 65.5096L47.7132 65.0879L47.6889 64.6383L47.6168 64.165L47.4951 63.6724L47.3228 63.1649L47.0988 62.647L46.8227 62.1234L46.4945 61.5987L46.1147 61.0775L45.6839 60.5644L45.2035 60.064L44.6751 59.5805L44.1006 59.1181L43.4824 58.6809L42.8232 58.2727L42.1262 57.8969L41.3945 57.5569L40.632 57.2554L39.8424 56.9952L39.0299 56.7785L38.1988 56.6071L37.3534 56.4824L36.4984 56.4057L35.6383 56.3774L34.7779 56.3979L33.9217 56.467L33.0745 56.5841L32.2408 56.7481L31.425 56.9578L30.6315 57.2112L29.8644 57.5062L29.1276 57.8403L28.4248 58.2106L27.7594 58.6139L27.1345 59.0467L26.5529 59.5053L26.0169 59.9857L25.5288 60.4838L25.09 60.9951L24.702 61.5153L24.3656 62.0398L24.0812 62.5639L23.8489 63.083L23.6684 63.5924L23.5387 64.0877L23.4588 64.5644L23.4271 65.018L23.4415 65.4445L23.4997 65.8398L23.599 66.2001L23.7364 66.5221L23.9085 66.8024L24.1118 67.0382L24.3424 67.2269L24.5963 67.3664L24.8692 67.4548L25.1566 67.4907L25.4542 67.4731L25.7573 67.4013L26.0614 67.2753L26.3617 67.0951L26.6538 66.8614L26.9331 66.5754L27.1952 66.2384L27.4359 65.8523L27.6512 65.4193L27.8372 64.942L27.9903 64.4234L28.1071 63.8666L28.1848 63.2751L28.2205 62.6528L28.2119 62.0037L28.1571 61.332L28.0545 60.6419L27.9028 59.9382L27.7014 59.2252L27.4498 58.5077L27.1481 57.7903L26.7967 57.0777L26.3966 56.3745L25.949 55.685L25.4556 55.0138L24.9185 54.3649L24.3401 53.7424L23.7231 53.15L23.0708 52.5912L22.3865 52.0692L21.6738 51.5869L20.9367 51.1468L20.1794 50.7511L19.4061 50.4017L18.6213 50.0999L17.8295 49.8467L17.0355 49.6428L16.2437 49.4883L15.459 49.3831L14.6859 49.3263L13.929 49.3171L13.1926 49.3538L12.4811 49.4347L11.7986 49.5576L11.1488 49.7198L10.5355 49.9185L9.96202 50.1504L9.4313 50.412L8.94609 50.6995L8.50874 51.009L8.12124 51.3362L7.78518 51.6767L7.50176 52.0263L7.27176 52.3801L7.09555 52.7338L6.9731 53.0825L6.90393 53.4218L6.88717 53.7472L6.92154 54.054L7.00536 54.3382L7.13656 54.5954L7.31272 54.8219L7.53107 55.0138L7.78852 55.1679L8.08167 55.2809L8.40686 55.3501L8.76019 55.3729L9.13755 55.3473L9.53465 55.2715L9.94706 55.1442L10.3703 54.9645L10.7996 54.7318L11.2306 54.4461L11.6585 54.1076L12.0787 53.7171L12.4868 53.2758L12.8784 52.7852L13.2492 52.2472L13.5953 51.6641L13.9128 51.0386L14.1981 50.3737L14.4481 49.6727L14.6596 48.9391L14.8301 48.1769L14.9573 47.39L15.0392 46.5828L15.0744 45.7595L15.0616 44.9249L15.0003 44.0834L14.89 43.2397L14.7309 42.3986L14.5236 41.5646L14.2689 40.7423L13.9682 39.9363L13.6233 39.1508L13.2362 38.3899L12.8095 37.6578L12.346 36.958L11.8489 36.2941L11.3215 35.6691L10.7675 35.086L10.1911 34.5472L9.59617 34.0548L8.98717 33.6106L8.36854 33.2159L7.74483 32.8717L7.12066 32.5786L6.50069 32.3365L5.88955 32.1452L5.29183 32.0041L4.71204 31.9119L4.15455 31.8672L3.62358 31.8679L3.12318 31.912L2.65714 31.9966L2.22902 32.1189L1.84208 32.2755L1.49928 32.463L1.20324 32.6774L0.95623 32.9149L0.760142 33.171L0.616478 33.4416L0.52634 33.7221L0.49042 34.0079L0.508992 34.2945L0.581916 34.5771L0.70863 34.8514L0.888165 35.1126L1.11914 35.3565L1.39979 35.5787L1.72796 35.7751L2.10115 35.942L2.51649 36.0756L2.97083 36.1726L3.46069 36.2298L3.98234 36.2447L4.53183 36.2147L5.10499 36.1378L5.69748 36.0124L6.30485 35.8372L6.92251 35.6113L7.54584 35.3344L8.1702 35.0064L8.79095 34.6278L9.4035 34.1992L10.0034 33.722L10.5862 33.1978L11.1477 32.6285L11.684 32.0166L12.1912 31.3647L12.6657 30.676L13.1045 29.9538L13.5044 29.2017L13.863 28.4236L14.178 27.6236L14.4475 26.806L14.6701 25.9753L14.8446 25.1359L14.9705 24.2926L15.0474 23.4499L15.0755 22.6125L15.0555 21.7852L14.9883 20.9724L14.8754 20.1785L14.7185 19.408L14.5197 18.6648L14.2817 17.953L14.0073 17.2763L13.6997 16.6379L13.3623 16.041L12.9989 15.4883L12.6135 14.9824L12.2102 14.5252L11.7934 14.1184L11.3674 13.7633L10.937 13.4607L10.5066 13.2111L10.0809 13.0146L9.66457 12.8707L9.2621 12.7786L8.87798 12.7372L8.51655 12.7448L8.18196 12.7994L7.87819 12.8987L7.60899 13.04L7.37784 13.2203L7.18792 13.4362L7.04211 13.684L6.94296 13.96L6.89264 14.2601L6.89296 14.58L6.94532 14.9154L7.05073 15.2616L7.20979 15.6142L7.42267 15.9685L7.68914 16.3199L8.00855 16.6638L8.37982 16.9958L8.80148 17.3113L9.27168 17.6063L9.78818 17.8766L10.3484 18.1183L10.9494 18.3279L11.5879 18.5021L12.2604 18.6378L12.9631 18.7323L13.692 18.7834L14.4428 18.789L15.2113 18.7475L15.9928 18.6577L16.7828 18.519L17.5766 18.3308L18.3696 18.0933L19.1572 17.8069L19.9346 17.4725L20.6975 17.0914L21.4415 16.6652L22.1623 16.1961L22.8561 15.6865L23.519 15.139L24.1476 14.557L24.7386 13.9436L25.2891 13.3027L25.7967 12.6382L26.2591 11.9541L26.6745 11.2547L27.0415 10.5446L27.3591 9.82827L27.6267 9.11031L27.8441 8.3954L28.0115 7.6882L28.1297 6.9933L28.1996 6.31524L28.2226 5.65844L28.2008 5.02716L28.1363 4.42547L28.0316 3.85723L27.8897 3.32605L27.7138 2.83525L27.5074 2.38786L27.2744 1.98657L27.0186 1.63371L26.7443 1.33126L26.4558 1.0808L26.1576 0.883508L25.8543 0.740155L25.5504 0.651102L25.2505 0.616287L24.9594 0.635235L24.6814 0.707051L24.421 0.83044L24.1825 1.00371L23.9701 1.22478L23.7876 1.49122L23.6388 1.80023L23.527 2.14872L23.4554 2.53328L23.4267 2.95023L23.4436 3.39565L23.508 3.86543L23.6216 4.35527L23.7858 4.86073L24.0016 5.37727L24.2693 5.90027L24.5892 6.42511L24.9609 6.94715L25.3836 7.4618L25.8562 7.96457L26.3771 8.45106L26.9444 8.91706L27.5558 9.35851L28.2087 9.77161L28.8999 10.1528L29.6262 10.4987L30.3841 10.8065L31.1696 11.0734L31.9788 11.2972L32.8073 11.476L33.6507 11.6081L34.5045 11.6926L35.364 11.7286L36.2247 11.7158L37.0819 11.6545L37.9308 11.545L38.767 11.3883L39.5859 11.1858L40.3833 10.9393L41.1548 10.6507L41.8967 10.3226L42.6051 9.95792L43.2767 9.55965L43.9083 9.13129L44.497 8.67653L45.0403 8.19931L45.5362 7.70378L45.983 7.19425L46.3791 6.67517L46.7238 6.15109L47.0165 5.62663L47.257 5.10643L47.4458 4.59511L47.5835 4.09724L47.6712 3.61733L47.7105 3.15975L47.7033 2.72869L47.6519 2.32818L47.559 1.96202L47.4274 1.63374L47.2606 1.34659L47.062 1.10351L46.8354 0.907122L46.585 0.759666L46.3149 0.663023L46.0294 0.618679L45.7331 0.627721L45.4306 0.690826L45.1264 0.808254L44.8252 0.979845L44.5315 1.20503L44.2499 1.48281L43.9847 1.8118L43.7403 2.19022L43.5207 2.6159L43.3298 3.08631L43.1712 3.5986L43.0484 4.14956L42.9643 4.73574L42.9218 5.35338L42.9232 5.99851L42.9705 6.66695L43.0654 7.35436L43.2092 8.05626L43.4026 8.76806L43.6462 9.48515L43.94 10.2028L44.2835 10.9165L44.6759 11.6216L45.1161 12.3135L45.6023 12.9879L46.1326 13.6406L46.7046 14.2676L47.3156 14.8651L47.9626 15.4294L48.642 15.9575L49.3504 16.4463L50.0839 16.8933L50.8383 17.2961L51.6093 17.6531L52.3926 17.9625L53.1836 18.2235L53.9776 18.4352L54.77 18.5976L55.5561 18.7107L56.3314 18.7751L57.0912 18.7918L57.8311 18.7623L58.5469 18.6882L59.2343 18.5719L59.8895 18.4157L60.5088 18.2227L61.0889 17.9958L61.6266 17.7387L62.1193 17.4551L62.5644 17.1489L62.9599 16.8242L63.3043 16.4854L63.5961 16.137L63.8347 15.7836L64.0195 15.4296L64.1505 15.0797L64.2281 14.7386L64.2531 14.4108L64.2268 14.1007L64.1507 13.8126L64.0269 13.5508L63.8577 13.3192L63.6459 13.1215L63.3944 12.9612L63.1067 12.8415L62.7864 12.7651L62.4373 12.7348L62.0635 12.7526L61.6692 12.8203L61.2589 12.9393L60.8372 13.1106L60.4085 13.3348L59.9774 13.6121L59.5488 13.9422L59.127 14.3245L58.7167 14.7578L58.3222 15.2406L57.9478 15.7713L57.5975 16.3473L57.2752 16.9662L56.9845 17.6251L56.7287 18.3206L56.5109 19.0492L56.3337 19.8072L56.1995 20.5904L56.1102 21.3947L56.0675 22.2157L56.0726 23.0489L56.1262 23.8896L56.2286 24.7332L56.38 25.575L56.5797 26.4105L56.8269 27.2349L57.1204 28.0438L57.4584 28.8329L57.8389 29.5979L58.2594 30.3349L58.7173 31.0401L59.2093 31.7099L59.7322 32.3413L60.2821 32.9313L60.8553 33.4773L61.4475 33.9772L62.0545 34.4292L62.672 34.8318L63.2952 35.1841L63.9196 35.4854L64.5405 35.7356L65.1534 35.9349L65.7535 36.084L66.3365 36.1839L66.8978 36.2361L67.4333 36.2424L67.9388 36.2051L68.4106 36.1267L68.845 36.0102L69.2387 35.8588L69.5887 35.676L69.8923 35.4656L70.1473 35.2316L70.3516 34.9781L70.5037 34.7095L70.6024 34.4303L70.647 34.145L70.6371 33.8583L70.5728 33.5747L70.4546 33.2988L70.2834 33.0352L70.0605 32.7883L69.7876 32.5623L69.4669 32.3615L69.1007 32.1897L68.6918 32.0505L68.2435 31.9475L67.759 31.8837L67.2422 31.862L66.6969 31.8847L66.1272 31.954L65.5375 32.0716L64.9322 32.2388L64.3158 32.4565L63.6931 32.7253L63.0686 33.0451L62.447 33.4158L61.8328 33.8365L61.2306 34.306L60.6448 34.8229L60.0796 35.3851L59.5391 35.9904L59.027 36.6361L58.547 37.3192L58.1024 38.0363L57.696 38.7839L57.3307 39.5581L57.0086 40.3549L56.7318 41.17L56.5017 41.9989L56.3194 42.8372L56.1858 43.6803L56.1011 44.5234L56.0652 45.3619L56.0776 46.1911L56.1373 47.0066L56.2431 47.8037L56.3932 48.5783L56.5854 49.326L56.8173 50.0431L57.0861 50.7257L57.3887 51.3704L57.7216 51.9741L58.0811 52.5339L58.4633 53.0475L58.864 53.5125L59.279 53.9275L59.7038 54.2909L60.1338 54.6019L60.5646 54.8599L60.9913 55.0649L61.4094 55.2171L61.8144 55.3174L62.2017 55.3668L62.5671 55.3669L62.9062 55.3196L63.2151 55.2272L63.4901 55.0924L63.7275 54.9181L63.9242 54.7077L64.0772 54.4647L64.1839 54.1929L64.2422 53.8963L64.25 53.5793L64.206 53.2461L64.1091 52.9013L63.9586 52.5494L63.7543 52.1951L63.4963 51.8429L63.1853 51.4975L62.8222 51.1633L62.4085 50.8449L61.9458 50.5464L61.4366 50.2719L60.8831 50.0254L60.2884 49.8104L59.6557 49.6304L58.9883 49.4884L58.2902 49.3871L57.5652 49.329L56.8175 49.316L56.0516 49.3499L55.2718 49.4319L54.4829 49.5628L53.6893 49.7431L52.8959 49.9728L52.1072 50.2515L51.3278 50.5783L50.5623 50.9521L49.815 51.3712L49.0902 51.8336L48.3919 52.337L47.7238 52.8786L47.0896 53.4554L46.4924 54.064L45.9352 54.7007L45.4206 55.3618L44.9509 56.0431L44.5279 56.7403L44.1531 57.449L43.8276 58.1646L43.552 58.8827L43.3266 59.5984L43.1513 60.3071L43.0254 61.0043L42.9479 61.6853L42.9174 62.3458L42.9323 62.9814L42.9902 63.5881L43.0887 64.1619L43.2248 64.6992L43.3955 65.1966L43.5973 65.6511L43.8263 66.0599L44.0788 66.4206L44.3504 66.7312L44.6369 66.9901L44.9339 67.1959L45.2367 67.3479L45.5408 67.4456L45.8416 67.489L46.1345 67.4786L46.4149 67.4151L46.6784 67.2998L46.9206 67.1344L47.1375 66.9208L47.325 66.6614L47.4794 66.3589L47.5973 66.0165L47.6755 65.6375L47.7112 65.2254L47.7017 64.7843L47.645 64.3181L47.5393 63.8311L47.3832 63.3279L47.1757 62.8128L46.9163 62.2905L46.6047 61.7656L46.2412 61.2428L45.8266 60.7267L45.3619 60.2218L44.8485 59.7324L44.2884 59.2628L43.6839 58.8172L43.0374 58.3994L42.3521 58.0129L41.6311 57.6611L40.878 57.3471L40.0966 57.0735L39.291 56.8427L38.4653 56.6567L37.624 56.517L36.7715 56.4249L35.9125 56.3811L35.0517 56.3861L34.1937 56.4397L33.3431 56.5416L32.5046 56.6908L31.6826 56.8861L30.8816 57.1258L30.1056 57.4079L29.3588 57.7298L28.6448 58.0889L27.9671 58.482L27.329 58.9059L26.7333 59.3567L26.1826 59.8306L25.679 60.3235L25.2243 60.8311L24.82 61.3489L24.4671 61.8725L24.1661 62.3972L23.9173 62.9184L23.7203 63.4315L23.5746 63.9318L23.479 64.4148L23.4321 64.8763L23.432 65.3118L23.4765 65.7175L23.5631 66.0893L23.6887 66.4239L23.8501 66.7178L24.0439 66.9681L24.2663 67.1721L24.5132 67.3274L24.7805 67.4323L25.0638 67.485L25.3586 67.4846L25.6605 67.4301L25.9647 67.3213L26.2667 67.1583L26.5619 66.9416L26.8457 66.6721L27.1138 66.3512L27.3618 65.9805L27.5856 65.5622L27.7813 65.0987L27.9453 64.5929L28.074 64.0479L28.1645 63.4671L28.2138 62.8542L28.2196 62.2131L28.1797 61.5481L28.0924 60.8634L27.9565 60.1635L27.771 59.453L27.5354 58.7365L27.2496 58.0185L26.914 57.3039L26.5293 56.5972L26.0966 55.9029L25.6176 55.2254L25.0942 54.5689L24.5286 53.9376L23.9236 53.3352L23.2822 52.7653L22.6077 52.2313L21.9036 51.736L21.1739 51.2822L20.4226 50.8722L19.6539 50.5079L18.8723 50.1908L18.0822 49.922L17.2884 49.7024L16.4954 49.5322L15.7079 49.4113L14.9306 49.3392L14.1681 49.3149L13.4247 49.3372L12.7048 49.4043L12.0126 49.5141L11.352 49.6641L10.7267 49.8515L10.1402 50.0731L9.59553 50.3257L9.09555 50.6054L8.64273 50.9083L8.23916 51.2303L7.88656 51.5671L7.58627 51.9142L7.33919 52.2672L7.14584 52.6214L7.00629 52.9723L6.92023 53.3151L6.88689 53.6453L6.90514 53.9585L6.97341 54.2504L7.08976 54.5166L7.25189 54.7533L7.45712 54.9566L7.70247 55.1231L7.98464 55.2495L8.30003 55.3329L8.64484 55.3708L9.015 55.3608L9.40628 55.3011L9.81431 55.1904L10.2346 55.0274L10.6625 54.8117L11.0934 54.5428L11.5228 54.2211L11.9459 53.8471L12.3584 53.4218L12.7557 52.9467L13.1336 52.4236L13.488 51.8546L13.815 51.2423L14.1109 50.5896L14.3725 49.8997L14.5965 49.1761L14.7804 48.4226L14.9216 47.6431L15.0181 46.8418L15.0683 46.0232L15.0709 45.1917L15.0251 44.3519L14.9304 43.5084L14.7869 42.666L14.5948 41.8292L14.3551 41.0027L14.0689 40.191L13.7378 39.3985L13.3639 38.6294L12.9496 37.8877L12.4975 37.1772L12.0107 36.5015L11.4925 35.8638L10.9466 35.2671L10.3769 34.7139L9.7874 34.2065L9.18242 33.7468L8.56636 33.3362L7.94377 32.9759L7.31924 32.6664L6.69743 32.4081L6.08298 32.2007L5.48049 32.0437L4.8945 31.936L4.32944 31.8764L3.78958 31.8629L3.27902 31.8934L2.80164 31.9654L2.36107 32.0761L1.96067 32.2221L1.60351 32.4002L1.29232 32.6064L1.02947 32.837L0.816976 33.0877L0.656474 33.3541L0.549192 33.6319L0.495952 33.9166L0.497162 34.2034L0.552814 34.4878L0.66248 34.7652L0.825321 35.0311L1.04008 35.2809L1.30513 35.5105L1.61842 35.7156L1.97756 35.8923L2.3798 36.0369L2.82208 36.1458L3.30102 36.2161L3.81296 36.2447L4.35403 36.2292L4.92011 36.1675L5.50693 36.0577L6.11004 35.8984L6.72492 35.6888L7.34696 35.4282L7.97149 35.1164L8.59389 34.7538L9.20955 34.3411L9.81394 33.8792L10.4026 33.3697L10.9714 32.8146L11.5161 32.216L12.033 31.5765L12.5183 30.8992L12.9688 30.1873L13.3814 29.4443L13.7534 28.674L14.0825 27.8806L14.3667 27.0681L14.6044 26.2411L14.7943 25.404L14.9357 24.5614L15.0282 23.718L15.0718 22.8784L15.0671 22.0474L15.0148 21.2294L14.9162 20.429L14.7731 19.6506L14.5874 18.8983L14.3616 18.1761L14.0985 17.4878L13.8011 16.8369L13.4728 16.2264L13.1173 15.6594L12.7384 15.1384L12.3403 14.6654L11.9273 14.2424L11.5038 13.8707L11.0743 13.5513L10.6434 13.2849L10.2157 13.0714L9.79589 12.9108L9.38852 12.8024L8.99808 12.745L8.62896 12.7371L8.28538 12.777L7.97137 12.8624L7.69077 12.9907L7.44714 13.1589L7.24376 13.3638L7.08361 13.6018L6.96934 13.8693L6.90326 14.1622L6.88727 14.4762L6.92292 14.8071L7.01135 15.1504L7.15328 15.5015L7.34903 15.8557L7.59848 16.2086L7.90112 16.5554L8.25601 16.8916L8.66181 17.2129L9.11677 17.5148L9.61879 17.7934L10.1654 18.0446L10.7537 18.2648L11.3806 18.4506L12.0427 18.5989L12.7362 18.7068L13.4572 18.772L14.2015 18.7922L14.9649 18.7659L15.7427 18.6916L16.5305 18.5685L17.3236 18.3961L18.1174 18.1743L18.9072 17.9034L19.6883 17.5842L20.4563 17.2178L21.2068 16.8058L21.9355 16.3501L22.6383 15.853L23.3114 15.3173L23.9513 14.7459L24.5546 14.1422L25.1183 13.5097L25.6398 12.8522L26.1168 12.1738L26.5474 11.4789L26.9299 10.7717L27.2634 10.0568L27.5469 9.33889L27.7803 8.62251L27.9636 7.91235L28.0973 7.21303L28.1825 6.52912L28.2203 5.86508L28.2125 5.22522L28.1613 4.61367L28.0691 4.03438L27.9387 3.49101L27.7733 2.98701L27.5763 2.52549L27.3513 2.10924L27.1023 1.74072L26.8334 1.42203L26.549 1.15486L26.2534 0.940526L25.9512 0.779933L25.647 0.67357L25.3453 0.621511L25.0509 0.62341L24.7682 0.678507L24.5017 0.785635L24.2558 0.943222L24.0347 1.14932L23.8422 1.40159L23.6823 1.69736L23.5584 2.03364L23.4736 2.40709L23.431 2.81413L23.4332 3.25093L23.4822 3.71341L23.58 4.19733L23.728 4.6983L23.9272 5.21181L24.1784 5.73326L24.4817 6.25802L24.8369 6.78145L25.2435 7.29895L25.7003 7.80598L26.206 8.29813L26.7588 8.7711L27.3564 9.2208L27.9964 9.64332L28.6757 10.035L29.3913 10.3925L30.1395 10.7128L30.9167 10.993L31.7187 11.2307L32.5415 11.424L33.3807 11.5711L34.2316 11.6709L35.0899 11.7224L35.9508 11.7252L36.8095 11.6793L37.6616 11.585L38.5023 11.4433L39.3272 11.2552L40.1319 11.0225L40.9121 10.747L41.6638 10.4313L42.3833 10.0779L43.067 9.68995L43.7116 9.27078L44.3143 8.82401L44.8723 8.35351L45.3835 7.86335L45.8461 7.3578L46.2585 6.84127L46.6196 6.31829L46.9289 5.79345L47.1861 5.27139L47.3913 4.75673L47.5451 4.25409L47.6486 3.76798L47.7031 3.30282L47.7105 2.86287L47.6729 2.45221L47.5929 2.07471L47.4733 1.73399L47.3173 1.4334L47.1284 1.17599L46.9104 0.964468L46.6671 0.801203L46.4028 0.688193L46.1217 0.627052L45.8284 0.618998L45.5274 0.664833L45.2232 0.764955L44.9205 0.919336L44.6239 1.12754L44.338 1.38869L44.0671 1.70155L43.8156 2.06444L43.5877 2.47533L43.3873 2.93179L43.218 3.43106L43.0835 3.97007L42.9867 4.54543L42.9307 5.15346L42.9178 5.79028L42.9503 6.45176L43.0299 7.13361L43.158 7.83138L43.3356 8.54054L43.5632 9.25644L43.841 9.97445L44.1687 10.6899L44.5457 11.3982L44.9708 12.0948L45.4425 12.7753L45.9591 13.4353L46.5181 14.0709L47.117 14.6782L47.7528 15.2535L48.4223 15.7934L49.1219 16.295L49.8478 16.7556L50.596 17.1727L51.3622 17.5445L52.1421 17.8692L52.9311 18.1457L53.7246 18.3732L54.518 18.5512L55.3067 18.68L56.0859 18.7598L56.8511 18.7916L57.5979 18.7766L58.3218 18.7165L59.0186 18.6134L59.6845 18.4696L60.3157 18.288L60.9086 18.0715L61.4601 17.8237L61.9674 17.5481L62.4279 17.2486L62.8394 16.9294L63.2002 16.5946L63.5089 16.2488L63.7645 15.8964L63.9665 15.5421L64.1146 15.1904L64.2091 14.846L64.2508 14.5135L64.2406 14.1973L64.1802 13.9017L64.0714 13.6311L63.9164 13.3895L63.7178 13.1806L63.4786 13.008L63.2021 12.875L62.8917 12.7846L62.5514 12.7393L62.185 12.7416L61.7968 12.7932L61.3911 12.8957L60.9725 13.0503L60.5455 13.2577L60.1147 13.518L59.6848 13.8314L59.2603 14.1971L58.8459 14.6143L58.4459 15.0816L58.0646 15.5972L57.7062 16.159L57.3746 16.7646L57.0735 17.4111L56.8062 18.0953L56.576 18.8138L56.3856 19.5628L56.2374 20.3384L56.1337 21.1365L56.076 21.9527L56.0657 22.7824L56.1038 23.6212L56.1907 24.4644L56.3265 25.3074L56.5109 26.1453L56.7431 26.9738L57.022 27.7881L57.346 28.584L57.7132 29.3571L58.1213 30.1034L58.5676 30.8191L59.0491 31.5006L59.5625 32.1445L60.1042 32.748L60.6704 33.3083L61.257 33.8231L61.8598 34.2905L62.4744 34.709L63.0963 35.0774L63.7208 35.395L64.3434 35.6615L64.9593 35.8769L65.564 36.0419L66.1529 36.1573L66.7216 36.2245L67.2658 36.2452L67.7813 36.2215L68.2642 36.1559L68.7108 36.0513L69.1179 35.9106L69.4821 35.7374L69.8008 35.5354L70.0715 35.3084L70.2921 35.0607L70.461 34.7964L70.5768 34.5201L70.6387 34.2363L70.6462 33.9495L70.5992 33.6644L70.4981 33.3855L70.3436 33.1176L70.137 32.8648L69.8799 32.6318L69.5741 32.4225L69.2221 32.241L68.8265 32.0911L68.3904 31.9762L67.917 31.8996L67.4101 31.8642L66.8734 31.8725L66.311 31.9268L65.7272 32.0288L65.1264 32.1801L64.5131 32.3816L63.8919 32.6341L63.2674 32.9377L62.6444 33.2923L62.0273 33.6971L61.4209 34.1512L60.8294 34.6532L60.2572 35.2013L59.7083 35.7931L59.1868 36.4263L58.6962 37.0978L58.24 37.8044L57.8211 38.5427L57.4425 39.3089L57.1064 40.0989L56.815 40.9086L56.5698 41.7336L56.3722 42.5695L56.2231 43.4115L56.1227 44.2551L56.0713 45.0956L56.0684 45.9283L56.1132 46.7486L56.2045 47.5521L56.3407 48.3343L56.5197 49.091L56.7393 49.8182L56.9967 50.5122L57.2889 51.1693L57.6125 51.7864L57.9639 52.3605L58.3393 52.889L58.7346 53.3698L59.1455 53.8008L59.5677 54.1808L59.9966 54.5085L60.4276 54.7835L60.8561 55.0053L61.2774 55.1743L61.6871 55.291L62.0805 55.3565L62.4533 55.3721L62.8013 55.3397L63.1202 55.2614L63.4064 55.1397L63.6562 54.9777L63.8662 54.7784L64.0334 54.5454L64.1551 54.2823L64.229 53.9932L64.2531 53.6823L64.2257 53.3537L64.1458 53.0121L64.0124 52.662L63.8252 52.3079L63.5843 51.9546L63.2901 51.6065L62.9434 51.2683L62.5456 50.9444L62.0984 50.639L61.6037 50.3565L61.064 50.1006L60.4821 49.8753L59.8611 49.6837L59.2044 49.5293L58.5157 49.4148L57.7988 49.3427L57.0579 49.3151L56.2973 49.334L55.5214 49.4005L54.7349 49.5158L53.9423 49.6803L53.1483 49.8943L52.3576 50.1574L51.5748 50.469L50.8044 50.828L50.0508 51.2329L49.3184 51.6818L48.6112 52.1724L47.9331 52.7021L47.2877 53.268L46.6784 53.8669L46.1082 54.4951L45.5798 55.1488L45.0955 55.8241L44.6575 56.5167L44.2672 57.2223L43.9259 57.9362L43.6344 58.654L43.393 59.3709L43.2017 60.0824L43.0602 60.7837L42.9674 61.4704L42.9221 62.1379L42.9228 62.7819L42.9672 63.3982L43.0531 63.9829L43.1776 64.5322L43.3376 65.0427L43.5299 65.5112L43.7506 65.9348L43.9961 66.3111L44.2621 66.6378L44.5443 66.9133L44.8384 67.1361L45.1399 67.3053L45.4441 67.4204L45.7465 67.4811L46.0424 67.4877L46.3272 67.441L46.5966 67.3421L46.846 67.1924L47.0714 66.9939L47.2687 66.7488L47.434 66.4598L47.5639 66.1297L47.6551 65.762L47.7046 65.36L47.7098 64.9277L47.6683 64.469L47.5784 63.9882L47.4385 63.4897L47.2475 62.9779L47.0046 62.4574L46.7096 61.9328L46.3626 61.4089L45.9642 60.8901L45.5153 60.3811L45.0172 59.8863L44.4718 59.41L43.8811 58.9563L43.2477 58.5292L42.5744 58.1324L41.8644 57.7692L41.1212 57.4429L40.3484 57.1561L39.55 56.9114L38.7302 56.711L37.8934 56.5564L37.044 56.449L36.1866 56.3898L35.3258 56.3792L34.4664 56.4174L33.6129 56.504L32.7701 56.6382L31.9424 56.819L31.1342 57.0448L30.3498 57.3136L29.5933 57.6231L28.8684 57.9707L28.1788 58.3533L27.5278 58.7677L26.9183 59.2104L26.353 59.6774L25.8341 60.1647L25.3637 60.6681L24.9433 61.1831L24.5739 61.7054L24.2563 62.2303L23.9909 62.7531L23.7774 63.2692L23.6155 63.7741L23.5041 64.2631L23.4418 64.7319L23.4271 65.1762L23.4577 65.5917L23.5311 65.9748L23.6446 66.3216L23.795 66.6288L23.9789 66.8932L24.1926 67.1122L24.4321 67.2833L24.6934 67.4045L24.972 67.474L25.2637 67.4905L25.5638 67.4533L25.8678 67.3619L26.171 67.2161L26.4689 67.0164L26.7568 66.7636L27.0304 66.4589L27.2853 66.1039L27.5172 65.7005L27.7223 65.2511L27.8967 64.7584L28.037 64.2255L28.14 63.6557L28.2027 63.0526L28.2226 62.4201L28.1975 61.7623L28.1255 61.0834L28.0052 60.3879L27.8355 59.6802L27.6159 58.9651L27.3461 58.2471L27.0263 57.5309L26.6571 56.8212L26.2396 56.1224L25.7751 55.4391L25.2656 54.7755L24.7132 54.1357L24.1204 53.5237L23.4903 52.9431L22.8259 52.3973L22.1309 51.8894L21.4089 51.4221L20.664 50.9979L19.9004 50.6189L19.1224 50.2866L18.3345 50.0023L17.5414 49.767L16.7476 49.581L15.9579 49.4445L15.1768 49.3569L14.4091 49.3175L13.6591 49.3252L12.9313 49.3782L12.2299 49.4746L11.5588 49.6121L10.9219 49.7879L10.3226 49.999L9.7643 50.2421L9.2498 50.5136L8.78171 50.8095L8.36225 51.1259L7.99325 51.4584L7.67618 51.8028L7.41208 52.1544L7.20158 52.5088L7.04491 52.8612L6.94187 53.207L6.89185 53.5418L6.89381 53.8609L6.94635 54.16L7.04762 54.4348L7.19543 54.6814L7.38725 54.8957L7.62016 55.0743L7.89098 55.2138L8.19619 55.3112L8.53206 55.3638L8.89459 55.3693L9.27962 55.3256L9.68279 55.2313L10.0996 55.085L10.5256 54.8861L10.9561 54.6342L11.3865 54.3293L11.8121 53.9718L12.2284 53.5628L12.631 53.1034L13.0156 52.5953L13.3779 52.0407L13.714 51.4419L14.0202 50.8017L14.2931 50.1233L14.5294 49.41L14.7263 48.6656L14.8814 47.8939L14.9923 47.0992L15.0574 46.2856L15.0753 45.4577L15.045 44.62L14.9659 43.7772L14.8379 42.9339L14.6612 42.0948L14.4365 41.2646L14.165 40.4477L13.848 39.6486L13.4875 38.8716L13.0858 38.1207L12.6454 37.3999L12.1693 36.7127L11.6607 36.0626L11.1233 35.4525L10.5607 34.8852L9.97706 34.363L9.37654 33.8879L8.76352 33.4616L8.14252 33.0851L7.5181 32.7594L6.89492 32.4848L6.27762 32.2612L5.67082 32.0883L5.0791 31.965L4.5069 31.8903L3.95856 31.8623L3.43823 31.8791L2.94987 31.9382L2.4972 32.0368L2.08366 32.172L1.71241 32.3402L1.3863 32.5379L1.10782 32.7612L0.879088 33.0059L0.701875 33.2678L0.577531 33.5425L0.507011 33.8254L0.490859 34.1121L0.529196 34.3977L0.621729 34.6779L0.767748 34.9479L0.966132 35.2033L1.21536 35.4398L1.51353 35.6532L1.85834 35.8393L2.24718 35.9945L2.67706 36.1152L3.1447 36.1981L3.64654 36.2403L4.17877 36.2391L4.73734 36.1923L5.31803 36.0979L5.91644 35.9546L6.52807 35.7611L7.14832 35.5167L7.77257 35.2213L8.39615 34.8748L9.01445 34.4779L9.62292 34.0316L10.2171 33.5371L10.7927 32.9962L11.3455 32.4112L11.8716 31.7845L12.3673 31.1189L12.8293 30.4176L13.2543 29.6841L13.6395 28.9221L13.9825 28.1356L14.2812 27.3287L14.5338 26.5058L14.739 25.6714L14.8959 24.8301L15.004 23.9864L15.0632 23.1451L15.0738 22.3109L15.0365 21.4883L14.9526 20.6818L14.8234 19.8959L14.6511 19.1349L14.4378 18.4027L14.1862 17.7032L13.8993 17.0399L13.5805 16.4163L13.2332 15.8352L12.8614 15.2992L12.469 14.8107L12.0602 14.3717L11.6396 13.9835L11.2115 13.6474L10.7805 13.364L10.3513 13.1337L9.92848 12.9563L9.51665 12.8313L9.12034 12.7578L8.74396 12.7344L8.39179 12.7593L8.06795 12.8304L7.7763 12.9453L7.52052 13.1011L7.30398 13.2947L7.12976 13.5226L7.00061 13.7812L6.91895 14.0664L6.88682 14.3742L6.90588 14.7002L6.9774 15.04L7.10223 15.3891L7.28083 15.7428L7.51321 16.0966L7.79899 16.4458L8.13737 16.7859L8.52712 17.1124L8.96663 17.421L9.45392 17.7074L9.9866 17.9678L10.562 18.1983L11.177 18.3954L11.8282 18.5559L12.5121 18.677L13.2248 18.756L13.9622 18.7908L14.7199 18.7794L15.4936 18.7205L16.2788 18.6131L17.0707 18.4564L17.8648 18.2503L18.6563 17.995L19.4407 17.691L20.2134 17.3395L20.9699 16.9418L21.706 16.4998L22.4175 16.0157L23.1005 15.492L23.7513 14.9316L24.3666 14.3378L24.9432 13.714L25.4785 13.0641L25.9699 12.3919L26.4154 11.7018L26.8134 10.998L27.1625 10.2851L27.462 9.56764L27.7114 8.85025L27.9106 8.1376L28.0601 7.43433L28.1605 6.74502L28.2133 6.07418L28.2198 5.42616L28.1822 4.80515L28.1028 4.21517L27.9842 3.65998L27.8296 3.14308L27.6422 2.66771L27.4257 2.23676L27.184 1.85279L26.921 1.51802L26.641 1.23428L26.3485 1.003L26.0479 0.825216L25.7438 0.701551L25.4409 0.632213L25.1436 0.616987L24.8567 0.655247L24.5846 0.745952L24.3317 0.88766L24.1022 1.07854L23.9002 1.31638L23.7295 1.59861L23.5937 1.92232L23.4962 2.28431L23.4399 2.68106L23.4275 3.10881L23.4613 3.56356L23.5434 4.04113L23.6753 4.53715L23.8581 5.04716L24.0927 5.56658L24.3794 6.09079L24.7181 6.61514L25.1084 7.13503L25.5494 7.64588L26.0397 8.14325L26.5778 8.62278L27.1614 9.08032L27.7881 9.51191L28.4553 9.91382L29.1596 10.2826L29.8979 10.615L30.6662 10.9082L31.4608 11.1597L32.2775 11.3674L33.1119 11.5294L33.9596 11.6443L34.816 11.7113L35.6765 11.7296L36.5365 11.6992L37.3912 11.6203L38.236 11.4935L39.0664 11.3201L39.878 11.1013L40.6665 10.8393L41.4277 10.5361L42.1579 10.1944L42.8533 9.81707L43.5107 9.40747L44.127 8.96908L44.6995 8.50571L45.2259 8.02135L45.7041 7.52024L46.1326 7.00672L46.5102 6.4853L46.8361 5.96055L47.1098 5.4371L47.3315 4.91958L47.5016 4.41262L47.621 3.92076L47.691 3.44845L47.7132 3.00002L47.6896 2.57959L47.6228 2.19113L47.5155 1.83832L47.3708 1.5246L47.192 1.25313L46.9828 1.02671L46.7471 0.847841L46.489 0.71863L46.2128 0.640816L45.9229 0.615745L45.6238 0.644352L45.3201 0.727164L45.0165 0.86429L44.7175 1.05542L44.4277 1.29983L44.1515 1.59638L43.8934 1.94354L43.6575 2.33938L43.4479 2.7816L43.2683 3.26756L43.1224 3.79427L43.0133 4.35843L42.944 4.95647L42.9171 5.58456L42.9349 6.23864L42.9993 6.91448L43.1119 7.60767L43.2736 8.3137L43.4852 9.02796L43.7471 9.7458L44.0589 10.4626L44.4203 11.1736L44.8302 11.8744L45.2873 12.5605L45.7898 13.2275L46.3355 13.8714L46.922 14.488L47.5465 15.0739L48.2056 15.6254L48.896 16.1396L49.614 16.6135L50.3555 17.0447L51.1164 17.4311L51.8924 17.7709L52.679 18.0629L53.4716 18.306L54.2656 18.4999L55.0563 18.6443L55.839 18.7396L56.6092 18.7866L57.3623 18.7864L58.0939 18.7404L58.7998 18.6508L59.476 18.5197L60.1186 18.3498L60.7241 18.1441L61.2891 17.9058L61.8108 17.6387L62.2864 17.3463L62.7138 17.0329L63.0909 16.7026L63.4163 16.3599L63.6889 16.0091L63.908 15.6549L64.0732 15.3019L64.1848 14.9547L64.2432 14.6178L64.2494 14.2959L64.2048 13.9934L64.1112 13.7144L63.9706 13.4631L63.7856 13.2433L63.559 13.0588L63.294 12.9129L62.9941 12.8086L62.6628 12.7487L62.3042 12.7356L61.9225 12.7713L61.5219 12.8575L61.107 12.9954L60.6821 13.1859L60.252 13.4293L59.8214 13.7258L59.3947 14.075L58.9766 14.4759L58.5715 14.9274L58.1838 15.4278L57.8176 15.9752L57.4771 16.5671L57.1659 17.2009L56.8875 17.8735L56.6451 18.5814L56.4418 19.3211L56.2799 20.0887L56.1618 20.8801L56.0893 21.691L56.0638 22.5169L56.0864 23.3534L56.1577 24.1957L56.2779 25.0392L56.4469 25.8792L56.664 26.7112L56.9282 27.5305L57.238 28.3328L57.5917 29.1136L57.987 29.8689L58.4215 30.5947L58.8921 31.2874L59.3957 31.9437L59.9288 32.5603L60.4876 33.1346L61.0682 33.6642L61.6663 34.1468L62.2777 34.5811L62.8977 34.9655L63.5219 35.2994L64.1456 35.5821L64.7641 35.8138L65.3729 35.9948L65.9673 36.1259L66.5429 36.2082L67.0954 36.2435L67.6204 36.2337L68.1141 36.1812L68.5727 36.0887L68.9927 35.9591L69.3709 35.7959L69.7044 35.6026L69.9906 35.3832L70.2274 35.1416L70.4129 34.8821L70.5457 34.6092L70.6249 34.3272L70.6497 34.0409L70.62 33.7547L70.5361 33.4734L70.3985 33.2015L70.2084 32.9434L69.9671 32.7036L69.6766 32.4863L69.3391 32.2956L68.9571 32.1352L68.5335 32.0088L68.0716 31.9197L67.575 31.8709L67.0473 31.865L66.4927 31.9044L65.9152 31.991L65.3194 32.1265L64.7095 32.3119L64.0903 32.5482L63.4664 32.8355L62.8424 33.1738L62.223 33.5627L61.6126 34.0013L61.0159 34.4882L60.4371 35.0218L59.8804 35.6L59.3497 36.2203L58.8489 36.8799L58.3814 37.5757L57.9503 38.3043L57.5586 39.062L57.2087 39.8449L56.9028 40.6488L56.6428 41.4695L56.4299 42.3023L56.2653 43.1429L56.1494 43.9865L56.0824 44.8285L56.0641 45.6642L56.0938 46.4889L56.1705 47.2982L56.2925 48.0877L56.4582 48.853L56.6651 49.59L56.9108 50.295L57.1922 50.9642L57.5062 51.5944L57.8492 52.1825L58.2174 52.7258L58.6068 53.222L59.0132 53.669L59.4323 54.0654L59.8595 54.4099L60.2903 54.7017L60.7201 54.9404L61.1443 55.1262L61.5582 55.2595L61.9572 55.3411L62.3371 55.3724L62.6934 55.3551L63.022 55.2911L63.319 55.183L63.5808 55.0335L63.8038 54.8457L63.9849 54.6231L64.1214 54.3691L64.2108 54.0879L64.2509 53.7834L64.2401 53.46L64.177 53.1221L64.0607 52.7742L63.8907 52.4209L63.6669 52.0668L63.3895 51.7165L63.0595 51.3747L62.6778 51.0457L62.2461 50.734L61.7663 50.4438L61.2406 50.179L60.6719 49.9435L60.063 49.7409L59.4173 49.5743L58.7383 49.4468L58.0299 49.3609L57.2962 49.319L56.5414 49.3229L55.7699 49.3741L54.9863 49.4737L54.1952 49.6226L53.4011 49.8208L52.6089 50.0683L51.823 50.3646L51.0482 50.7086L50.2888 51.099L49.5492 51.5341L48.8335 52.0117L48.1457 52.5293L47.4895 53.084L46.8684 53.6728L46.2854 54.292L45.7434 54.938L45.2449 55.6069L44.7919 56.2945L44.3862 56.9964L44.0292 57.7082L43.7218 58.4252L43.4644 59.1429L43.2572 59.8566L43.0999 60.5617L42.9917 61.2535L42.9315 61.9276L42.9177 62.5796L42.9484 63.2052L43.0214 63.8003L43.1339 64.3613L43.283 64.8845L43.4654 65.3667L43.6775 65.8049L43.9155 66.1965L44.1754 66.5393L44.4529 66.8312L44.7437 67.071L45.0433 67.2573L45.3472 67.3896L45.6506 67.4676L45.9491 67.4914L46.238 67.4616L46.5127 67.3792L46.769 67.2455L47.0025 67.0623L47.2091 66.8318L47.385 66.5564L47.5266 66.2391L47.6304 65.883L47.6935 65.4915L47.7131 65.0685L47.6867 64.6177L47.6124 64.1435L47.4886 63.6501L47.3139 63.142L47.0876 62.6238L46.8092 62.1001L46.4788 61.5754L46.0966 61.0545L45.6637 60.5419L45.1811 60.0421L44.6505 59.5595L44.074 59.0981L43.4539 58.6622L42.793 58.2553L42.0944 57.881L41.3613 57.5426L40.5975 57.243L39.8068 56.9847L38.9934 56.7699L38.1615 56.6005L37.3156 56.478L36.4603 56.4034L35.6001 56.3773L34.7397 56.4L33.8839 56.4712L33.0372 56.5904L32.2041 56.7565L31.3893 56.9681L30.5969 57.2234L29.831 57.5202L29.0957 57.856L28.3945 58.2278L27.7308 58.6325L27.1077 59.0665L26.5281 59.5262L25.9942 60.0075L25.5082 60.5062L25.0717 61.0181L24.686 61.5385L24.3518 62.0631L24.0698 62.587L23.8398 63.1058L23.6615 63.6148L23.5341 64.1093L23.4564 64.585L23.4267 65.0376L23.4431 65.4627L23.5032 65.8565L23.6043 66.2153L23.7433 66.5354L23.9169 66.8138L24.1215 67.0476L24.3533 67.2342L24.6081 67.3714L24.8817 67.4575L25.1697 67.4911L25.4676 67.4711L25.7708 67.3969L26.0748 67.2684L26.3749 67.0858L26.6665 66.8498L26.9451 66.5615L27.2064 66.2223L27.4461 65.8341L27.6601 65.3991L27.8447 64.9199L27.9962 64.3994L28.1114 63.841L28.1873 63.2481L28.221 62.6246L28.2105 61.9743L28.1536 61.3017L28.0488 60.6109L27.895 59.9066L27.6913 59.1934L27.4375 58.4758L27.1335 57.7586L26.78 57.0463L26.3777 56.3435L25.928 55.6548L25.4327 54.9845L24.8936 54.3367L24.3135 53.7154L23.6949 53.1244L23.0411 52.5672L22.3554 52.0469L21.6416 51.5664L20.9035 51.1283L20.1454 50.7346L19.3715 50.3873L18.5863 50.0876L17.7943 49.8366L17.0002 49.6349L16.2087 49.4826L15.4244 49.3795L14.6519 49.3249L13.8958 49.3177L13.1605 49.3565L12.4502 49.4393L11.769 49.564L11.1208 49.7279L10.5092 49.9281L9.93752 50.1614L9.40876 50.4242L8.92563 50.7128L8.49046 51.0231L8.10522 51.351L7.77147 51.6921L7.4904 52.0419L7.26279 52.3959L7.08898 52.7494L6.9689 53.0979L6.90208 53.4366L6.88762 53.7612L6.92423 54.0672L7.01019 54.3502L7.14345 54.6061L7.32154 54.8312L7.5417 55.0215L7.80081 55.1738L8.09546 55.2849L8.42199 55.3521L8.77647 55.3728L9.1548 55.345L9.55267 55.2669L9.96566 55.1373L10.3892 54.9553L10.8188 54.7202L11.2497 54.4321L11.6773 54.0914L12.0971 53.6986L12.5046 53.2551L12.8953 52.7623L13.2651 52.2223L13.61 51.6372L13.9262 51.0099L14.21 50.3433L14.4583 49.6408L14.6681 48.9059L14.8367 48.1424L14.9619 47.3546L15.0418 46.5465L15.0748 45.7227L15.0599 44.8876L14.9964 44.0459L14.884 43.2023L14.7227 42.3614L14.5133 41.5278L14.2565 40.7062L13.9538 39.9009L13.607 39.1164L13.2181 38.3568L12.7897 37.626L12.3246 36.9278L11.826 36.2655L11.2974 35.6423L10.7424 35.0611L10.165 34.5243L9.56939 34.0341L8.95987 33.592L8.34092 33.1996L7.71708 32.8576L7.09301 32.5667L6.47333 32.3269L5.86269 32.1379L5.26567 31.999L4.68677 31.9089L4.13037 31.8662L3.60068 31.869L3.10173 31.9149L2.6373 32.0013L2.21094 32.1252L1.8259 32.2832L1.48512 32.472L1.19122 32.6875L0.94643 32.9259L0.752641 33.1828L0.611333 33.4539L0.523592 33.7347L0.490088 34.0207L0.511081 34.3071L0.586408 34.5895L0.715491 34.8633L0.897341 35.1238L1.13056 35.3668L1.41337 35.588L1.7436 35.7832L2.11872 35.9487L2.53587 36.0807L2.99185 36.176L3.4832 36.2314L4.00618 36.2443L4.55681 36.2122L5.13092 36.1332L5.72417 36.0056L6.33209 35.8282L6.9501 35.6001L7.57358 35.3209L8.19788 34.9907L8.81836 34.6098L9.43045 34.179L10.0296 33.6997L10.6116 33.1734L11.1721 32.6022L11.7071 31.9885L12.213 31.3349L12.686 30.6446L13.1231 29.921L13.5213 29.1677L13.878 28.3885L14.191 27.5877L14.4584 26.7694L14.6789 25.9382L14.8512 25.0985L14.9749 24.2551L15.0497 23.4126L15.0757 22.5756L15.0535 21.7487L14.9843 20.9367L14.8693 20.1438L14.7105 19.3743L14.51 18.6325L14.2703 17.9222L13.9943 17.2471L13.6853 16.6105L13.3467 16.0155L12.9823 15.4649L12.5959 14.9611L12.1919 14.5061L11.7746 14.1015L11.3484 13.7487L10.9178 13.4485L10.4875 13.2013L10.0622 13.0071L9.64637 12.8655L9.24462 12.7757L8.86142 12.7365L8.50109 12.7462L8.16779 12.8029L7.86548 12.9041L7.5979 13.0472L7.3685 13.2292L7.18049 13.4465L7.0367 13.6957L6.93968 13.9729L6.89157 14.2739L6.89417 14.5946L6.94887 14.9305L7.05665 15.2772L7.2181 15.6299L7.43337 15.9842L7.70221 16.3354L8.02394 16.6789L8.39748 17.0102L8.82135 17.3249L9.29366 17.6188L9.81216 17.8879L10.3742 18.1283L10.977 18.3364L11.6171 18.5089L12.291 18.6429L12.9949 18.7355L13.7249 18.7846L14.4766 18.7881L15.2457 18.7445L16.0277 18.6526L16.818 18.5117L17.6119 18.3213L18.4048 18.0816L19.1919 17.7931L19.9688 17.4566L20.731 17.0734L21.474 16.6453L22.1938 16.1743L22.8862 15.6629L23.5477 15.1139L24.1747 14.5304L24.7639 13.9157L25.3126 13.2737L25.8182 12.6082L26.2786 11.9233L26.6918 11.2234L27.0567 10.5129L27.3721 9.79639L27.6374 9.07846L27.8526 8.3638L28.0178 7.65704L28.1338 6.9628L28.2016 6.28559L28.2226 5.62983L28.1988 4.99978L28.1324 4.3995L28.026 3.83283L27.8826 3.30337L27.7053 2.81444L27.4976 2.36904L27.2635 1.96985L27.0068 1.6192L26.7318 1.31903L26.4428 1.07091L26.1443 0.875993L25.8408 0.735047L25.537 0.648407L25.2374 0.615994L24.9467 0.63731L24.6694 0.711447L24.4099 0.83709L24.1725 1.01253L23.9613 1.23567L23.7802 1.50406L23.633 1.8149L23.5229 2.16506L23.4532 2.55114L23.4265 2.96943L23.4454 3.41603L23.5119 3.88679L23.6278 4.37742L23.7943 4.88347L24.0124 5.40039L24.2824 5.92357L24.6046 6.44839L24.9786 6.97019L25.4035 7.48441L25.8783 7.98655L26.4013 8.47222L26.9707 8.93721L27.584 9.37749L28.2386 9.78924L28.9314 10.1689L29.6593 10.5132L30.4184 10.8192L31.2051 11.0843L32.0152 11.3061L32.8444 11.4828L33.6884 11.6129L34.5425 11.6952L35.4023 11.729L36.2629 11.7141L37.1198 11.6506L37.9683 11.539L38.8038 11.3803L39.6218 11.1758L40.4181 10.9273L41.1884 10.637L41.9289 10.3072L42.6358 9.94092L43.3056 9.54124L43.9353 9.11162L44.5221 8.65578L45.0634 8.17766L45.5571 7.68142L46.0016 7.17137L46.3955 6.65197L46.7379 6.12778L47.0283 5.60341L47.2665 5.0835L47.453 4.57268L47.5884 4.07552L47.6739 3.59651L47.7111 3.14001L47.7019 2.71023L47.6486 2.31117L47.5539 1.94661L47.4207 1.62009L47.2524 1.33484L47.0525 1.09378L46.8248 0.899521L46.5734 0.754284L46.3025 0.659934L46.0165 0.61794L45.7198 0.629373L45.4171 0.694888L45.1129 0.814727L44.8119 0.988713L44.5187 1.21626L44.2377 1.49634L43.9734 1.82757L43.73 2.20814L43.5116 2.63586L43.322 3.1082L43.165 3.62227L43.0438 4.17487L42.9615 4.76253L42.9209 5.38148L42.9243 6.02773L42.9737 6.69711L43.0707 7.38525L43.2167 8.08769L43.4124 8.79983L43.6582 9.51704L43.9542 10.2347L44.2999 10.948L44.6945 11.6526L45.1367 12.3438L45.6249 13.0174L46.1572 13.6691L46.731 14.2948L47.3436 14.8908L47.9921 15.4537L48.6729 15.9801L49.3825 16.4671L50.117 16.9121L50.8722 17.313L51.6439 17.6678L52.4276 17.9751L53.2188 18.2339L54.0128 18.4435L54.8051 18.6037L55.5908 18.7146L56.3655 18.7768L57.1245 18.7915L57.8635 18.7599L58.578 18.684L59.2641 18.5658L59.9178 18.4079L60.5354 18.2133L61.1137 17.985L61.6495 17.7267L62.1401 17.4419L62.583 17.1348L62.9763 16.8094L63.3184 16.4701L63.6079 16.1214L63.844 15.7678L64.0264 15.4139L64.155 15.0643L64.2303 14.7237L64.253 14.3966L64.2244 14.0874L64.1462 13.8004L64.0203 13.5399L63.8492 13.3097L63.6355 13.1136L63.3824 12.955L63.0932 12.8371L62.7715 12.7628L62.4212 12.7345L62.0464 12.7545L61.6513 12.8245L61.2404 12.9458L60.8182 13.1194L60.3893 13.346L59.9583 13.6257L59.5299 13.9581L59.1085 14.3426L58.6988 14.7782L58.3051 15.2632L57.9317 15.7959L57.5826 16.3739L57.2616 16.9947L56.9724 17.6552L56.7182 18.3523L56.5021 19.0823L56.3268 19.8415L56.1946 20.6257L56.1073 21.4309L56.0668 22.2525L56.0739 23.0861L56.1297 23.927L56.2343 24.7706L56.3878 25.6123L56.5897 26.4474L56.839 27.2712L57.1345 28.0793L57.4744 28.8674L57.8567 29.6313L58.279 30.3669L58.7384 31.0706L59.2319 31.7388L59.756 32.3684L60.3071 32.9564L60.8812 33.5005L61.4742 33.9983L62.0818 34.4481L62.6995 34.8485L63.3229 35.1985L63.9473 35.4976L64.5679 35.7455L65.1803 35.9426L65.7798 36.0895L66.3619 36.1872L66.9222 36.2373L67.4564 36.2416L67.9605 36.2024L68.4307 36.1223L68.8633 36.0042L69.2551 35.8513L69.6032 35.6672L69.9047 35.4557L70.1574 35.2207L70.3595 34.9664L70.5092 34.6973L70.6055 34.4177L70.6477 34.1323L70.6354 33.8456L70.5687 33.5622L70.4481 33.2868L70.2746 33.0238L70.0494 32.7778L69.7744 32.5528L69.4515 32.3532L69.0834 32.1828L68.6727 32.0452L68.2227 31.9438L67.7367 31.8819L67.2185 31.862L66.672 31.8868L66.1014 31.9582L65.5109 32.078L64.905 32.2474L64.2883 32.4674L63.6654 32.7384L63.0409 33.0605L62.4195 33.4334L61.8058 33.8563L61.2042 34.328L60.6192 34.8469L60.0551 35.4111L59.5157 36.0183L59.005 36.6657L58.5265 37.3503L58.0835 38.0689L57.6789 38.8178L57.3155 39.5931L56.9954 40.3907L56.7205 41.2065L56.4925 42.036L56.3125 42.8746L56.181 43.7177L56.0985 44.5607L56.0647 45.3989L56.0792 46.2277L56.1411 47.0424L56.2488 47.8386L56.4008 48.6121L56.5949 49.3586L56.8285 50.0741L57.0989 50.7551L57.4029 51.3981L57.737 51.9999L58.0976 52.5577L58.4807 53.0692L58.8822 53.5321L59.2977 53.9447L59.7228 54.3058L60.153 54.6145L60.5836 54.8701L61.0101 55.0728L61.4277 55.2227L61.832 55.3207L62.2184 55.3678L62.5827 55.3658L62.9206 55.3164L63.2281 55.2221L63.5014 55.0855L63.7371 54.9095L63.9319 54.6976L64.0829 54.4532L64.1876 54.1802L64.2436 53.8827L64.2492 53.5648L64.2029 53.231L64.1036 52.8858L63.9507 52.5337L63.744 52.1794L63.4837 51.8274L63.1703 51.4824L62.8049 51.1488L62.3889 50.8312L61.9242 50.5336L61.4129 50.2603L60.8576 50.0151L60.2611 49.8017L59.6267 49.6233L58.9579 49.483L58.2585 49.3836L57.5324 49.3274L56.7839 49.3165L56.0172 49.3526L55.237 49.4367L54.4477 49.5698L53.6541 49.7523L52.8607 49.9841L52.0724 50.265L51.2935 50.5939L50.5287 50.9697L49.7824 51.3908L49.0586 51.8551L48.3615 52.3603L47.6949 52.9035L47.0622 53.4817L46.4668 54.0917L45.9114 54.7296L45.3988 55.3917L44.9311 56.0737L44.5102 56.7715L44.1376 57.4806L43.8143 58.1965L43.5409 58.9145L43.3178 59.63L43.1446 60.3383L43.0209 61.0349L42.9455 61.7151L42.9172 62.3746L42.9339 63.009L42.9937 63.6143L43.0939 64.1866L43.2317 64.7222L43.4039 65.2178L43.6069 65.6703L43.8371 66.077L44.0905 66.4355L44.3628 66.7438L44.6499 67.0003L44.9472 67.2038L45.2502 67.3534L45.5543 67.4487L45.8548 67.4897L46.1473 67.4769L46.427 67.4111L46.6896 67.2935L46.9308 67.1259L47.1465 66.9102L47.3326 66.6488L47.4855 66.3446L47.6017 66.0004L47.678 65.6198L47.7117 65.2064L47.7002 64.7641L47.6414 64.2969L47.5335 63.8091L47.3751 63.3052L47.1653 62.7897L46.9036 62.2672L46.5896 61.7423L46.2239 61.2197L45.807 60.704L45.3401 60.1997L44.8246 59.7111L44.2625 59.2425L43.656 58.7981L43.0078 58.3815L42.3208 57.9965L41.5983 57.6464L40.8439 57.3341L40.0613 57.0623L39.2547 56.8335L38.4282 56.6495L37.5863 56.5119L36.7335 56.4219L35.8743 56.3803L35.0135 56.3874L34.1557 56.4433L33.3056 56.5472L32.4677 56.6985L31.6466 56.8958L30.8466 57.1375L30.0718 57.4213L29.3264 57.745L28.6139 58.1057L27.9379 58.5002L27.3016 58.9253L26.7079 59.3773L26.1592 59.8521L25.6577 60.3457L25.2053 60.8539L24.8033 61.3721L24.4526 61.8958L24.154 62.4205L23.9074 62.9414L23.7128 63.454L23.5693 63.9536L23.4759 64.4358L23.4311 64.8962L23.4331 65.3305L23.4795 65.7347L23.5678 66.105L23.6951 66.4378L23.8581 66.7299L24.0532 66.9781L24.2767 67.18L24.5246 67.3332L24.7927 67.4357L25.0766 67.4862L25.3719 67.4833L25.674 67.4264L25.9782 67.3152L26.28 67.1498L26.5748 66.9308L26.858 66.659L27.1253 66.3358L27.3723 65.9629L27.595 65.5425L27.7893 65.0771L27.9518 64.5695L28.0789 64.0228L28.1675 63.4405L28.215 62.8263L28.2188 62.1841L28.1768 61.5181L28.0875 60.8326L27.9493 60.1322L27.7616 59.4213L27.5238 58.7046L27.2358 57.9867L26.8979 57.2723L26.5111 56.5661L26.0763 55.8724L25.5953 55.1957L25.0699 54.5403L24.5026 53.9102L23.8959 53.3092L23.2529 52.7408L22.577 52.2084L21.8718 51.715L21.141 51.2631L20.3888 50.8551L19.6194 50.4928L18.8373 50.1778L18.047 49.9112L17.2531 49.6938L16.4603 49.5258L15.6732 49.407L14.8964 49.3371L14.1346 49.3149L13.3922 49.3393L12.6735 49.4083L11.9826 49.5199L11.3235 49.6716L10.6998 49.8606L10.1151 50.0837L9.57236 50.3375L9.07443 50.6183L8.62374 50.9222L8.22241 51.2449L7.87211 51.5823L7.57416 51.9298L7.32946 52.283L7.1385 52.6371L7.00134 52.9877L6.91763 53.33L6.88662 53.6596L6.90712 53.972L6.97757 54.2628L7.09601 54.5278L7.26011 54.7631L7.46719 54.9649L7.71425 55.1296L7.99797 55.2542L8.31475 55.3356L8.66077 55.3714L9.03196 55.3592L9.42408 55.2973L9.83274 55.1843L10.2534 55.019L10.6816 54.8008L11.1126 54.5297L11.5417 54.2056L11.9645 53.8293L12.3764 53.4018L12.7729 52.9245L13.1498 52.3993L13.5031 51.8283L13.8288 51.2142L14.1233 50.5597L14.3832 49.8683L14.6056 49.1433L14.7876 48.3885L14.9268 47.6079L15.0213 46.8058L15.0694 45.9865L15.0699 45.1545L15.0219 44.3145L14.9251 43.4709L14.7794 42.6286L14.5852 41.7922L14.3433 40.9663L14.0551 40.1554L13.7221 39.3638L13.3464 38.5958L12.9303 37.8554L12.4766 37.1464L11.9883 36.4723L11.4688 35.8364L10.9218 35.2416L10.3511 34.6904L9.76083 34.1851L9.15526 33.7275L8.53882 33.3191L7.91604 32.961L7.29154 32.6538L6.66996 32.3978L6.05593 32.1926L5.45408 32.0378L4.86893 31.9324L4.3049 31.8748L3.76626 31.8633L3.25709 31.8958L2.78126 31.9695L2.34241 32.0818L1.94387 32.2294L1.5887 32.4088L1.2796 32.6162L1.01895 32.8477L0.808736 33.0992L0.650574 33.3663L0.545677 33.6445L0.494848 33.9293L0.49848 34.2161L0.556543 34.5003L0.668591 34.7773L0.833767 35.0425L1.0508 35.2916L1.31803 35.5202L1.63341 35.7241L1.99453 35.8994L2.39862 36.0425L2.8426 36.1498L3.32308 36.2182L3.8364 36.245L4.37867 36.2275L4.94577 36.1636L5.5334 36.0516L6.13713 35.8902L6.75243 35.6783L7.37467 35.4154L7.99921 35.1014L8.62141 34.7366L9.23666 34.3216L9.84045 33.8576L10.4284 33.346L10.9961 32.7889L11.5397 32.1884L12.0552 31.5472L12.5391 30.8683L12.988 30.1549L13.3988 29.4106L13.769 28.6393L14.0961 27.8449L14.3783 27.0317L14.6138 26.2041L14.8016 25.3666L14.9408 24.5239L15.0312 23.6806L15.0726 22.8413L15.0658 22.0107L15.0114 21.1935L14.9108 20.394L14.7657 19.6166L14.5782 18.8656L14.3507 18.1448L14.086 17.4581L13.7871 16.8089L13.4576 16.2003L13.1009 15.6353L12.7211 15.1163L12.3223 14.6456L11.9087 14.2248L11.4848 13.8554L11.0551 13.5384L10.6243 13.2743L10.1969 13.0632L9.77751 12.9049L9.37079 12.7987L8.9812 12.7436L8.61313 12.7379L8.27078 12.7799L7.95818 12.8672L7.67914 12.9973L7.43723 13.1672L7.2357 13.3736L7.07754 13.6131L6.96537 13.8818L6.90147 14.1757L6.88775 14.4906L6.92572 14.8222L7.01651 15.1659L7.16083 15.5172L7.35896 15.8715L7.6108 16.2241L7.91578 16.5706L8.27296 16.9062L8.68098 17.2267L9.13808 17.5277L9.64214 17.8051L10.1906 18.0551L10.7808 18.2738L11.4093 18.458L12.0729 18.6046L12.7677 18.7107L13.4898 18.7738L14.2351 18.7921L14.9991 18.7636L15.7775 18.6872L16.5657 18.5619L17.3589 18.3873L18.1526 18.1633L18.9421 17.8902L19.7227 17.5689L20.4901 17.2004L21.2397 16.7864L21.9673 16.3289L22.6689 15.83L23.3406 15.2927L23.9789 14.7198L24.5805 14.1147L25.1424 13.481L25.662 12.8225L26.137 12.1433L26.5654 11.4477L26.9458 10.7401L27.277 10.025L27.5584 9.30701L27.7895 8.59081L27.9706 7.88103L28.1021 7.1823L28.1851 6.49918L28.2209 5.83612L28.2111 5.19743L28.1581 4.58724L28.0641 4.00946L27.9321 3.46777L27.7652 2.96559L27.5668 2.50602L27.3407 2.09184L27.0908 1.7255L26.8211 1.40906L26.5361 1.14421L26.2401 0.932249L25.9377 0.774057L25.6335 0.670107L25.3321 0.620455L25.0381 0.624736L24.756 0.682171L24.4904 0.791575L24.2455 0.951361L24.0255 1.15956L23.8344 1.41382L23.676 1.71146L23.5537 2.04946L23.4708 2.42448L23.4302 2.83293L23.4343 3.27095L23.4855 3.73448L23.5855 4.21925L23.7357 4.72088L23.9373 5.23483L24.1907 5.75653L24.4963 6.28132L24.8539 6.80459L25.2627 7.32172L25.7217 7.82818L26.2296 8.31957L26.7844 8.79159L27.384 9.24016L28.0258 9.6614L28.7068 10.0517L29.4239 10.4076L30.1734 10.7261L30.9518 11.0044L31.7549 11.2403L32.5785 11.4315L33.4182 11.5766L34.2696 11.6742L35.1281 11.7235L35.989 11.7242L36.8475 11.6761L37.6992 11.5797L38.5393 11.4359L39.3634 11.2458L40.1671 11.0111L40.9461 10.7338L41.6965 10.4164L42.4145 10.0614L43.0965 9.67197L43.7393 9.2515L44.34 8.80359L44.896 8.33213L45.4051 7.84119L45.8655 7.33506L46.2756 6.81815L46.6345 6.29499L46.9414 5.77017L47.1963 5.24834L47.3992 4.73412L47.5508 4.23212L47.652 3.74685L47.7044 3.28272L47.7098 2.84398L47.6703 2.43471L47.5884 2.05877L47.4671 1.71977L47.3096 1.42103L47.1193 1.1656L46.9001 0.956178L46.6558 0.795104L46.3906 0.684367L46.1089 0.625561L45.8152 0.619884L45.5139 0.668126L45.2097 0.77066L44.9072 0.927445L44.611 1.13802L44.3256 1.4015L44.0555 1.71662L43.805 2.08169L43.5782 2.49465L43.3791 2.95307L43.2113 3.45418L43.0783 3.99488L42.9834 4.57176L42.9292 5.18116L42.9183 5.81916L42.9528 6.48164L43.0346 7.16429L43.1648 7.86267L43.3446 8.57222L43.5745 9.28832L43.8545 10.0063L44.1844 10.7215L44.5636 11.4294L44.9908 12.1254L45.4645 12.805L45.983 13.4641L46.5438 14.0985L47.1444 14.7044L47.7818 15.2782L48.4527 15.8165L49.1536 16.3164L49.8806 16.7751L50.6296 17.1902L51.3966 17.5599L52.1769 17.8825L52.9662 18.1568L53.7599 18.3821L54.5532 18.558L55.3415 18.6846L56.1202 18.7622L56.8847 18.7919L57.6305 18.7749L58.3533 18.7129L59.0489 18.6079L59.7133 18.4623L60.3428 18.2791L60.934 18.0612L61.4836 17.812L61.9889 17.5353L62.4472 17.2348L62.8565 16.9148L63.2151 16.5795L63.5214 16.2333L63.7746 15.8807L63.9742 15.5264L64.1199 15.1749L64.2121 14.831L64.2514 14.4991L64.239 14.1837L64.1764 13.8892L64.0655 13.6198L63.9085 13.3795L63.708 13.1721L63.4671 13.0012L63.189 12.8701L62.8772 12.7816L62.5356 12.7384L62.1682 12.7428L61.7791 12.7967L61.3727 12.9015L60.9537 13.0584L60.5264 13.2681L60.0956 13.5308L59.6658 13.8465L59.2417 14.2145L58.8278 14.634L58.4285 15.1034L58.0482 15.6212L57.6909 16.185L57.3606 16.7925L57.0608 17.4407L56.7952 18.1265L56.5667 18.8464L56.3781 19.5967L56.2319 20.3734L56.1301 21.1724L56.0745 21.9893L56.0664 22.8195L56.1066 23.6586L56.1957 24.5019L56.3336 25.3447L56.5202 26.1824L56.7545 27.0103L57.0354 27.8239L57.3614 28.6188L57.7305 29.3909L58.1403 30.1359L58.5883 30.8501L59.0712 31.53L59.586 32.1722L60.1289 32.7738L60.6961 33.3321L61.2835 33.8448L61.8869 34.3101L62.5019 34.7264L63.124 35.0926L63.7486 35.4079L64.3709 35.6721L64.9864 35.8853L65.5905 36.0481L66.1787 36.1613L66.7463 36.2264L67.2893 36.2451L67.8034 36.2195L68.2848 36.1521L68.7298 36.0457L69.135 35.9036L69.4972 35.729L69.8138 35.5258L70.0823 35.2978L70.3007 35.0492L70.4673 34.7844L70.5807 34.5076L70.6402 34.2236L70.6452 33.9367L70.5958 33.6518L70.4923 33.3734L70.3355 33.106L70.1266 32.854L69.8673 32.6219L69.5594 32.4138L69.2054 32.2337L68.808 32.0852L68.3701 31.972L67.8952 31.8972L67.3869 31.8636L66.8489 31.8739L66.2855 31.9303L65.7009 32.0345L65.0994 32.188L64.4856 32.3918L63.8642 32.6465L63.2397 32.9524L62.6168 33.3092L62.0002 33.7162L61.3942 34.1725L60.8035 34.6766L60.2323 35.2266L59.6846 35.8204L59.1643 36.4553L58.6752 37.1284L58.2205 37.8365L57.8034 38.5762L57.4266 39.3435L57.0925 40.1345L56.8031 40.945L56.56 41.7706L56.3646 42.6068L56.2176 43.449L56.1194 44.2925L56.0702 45.1327L56.0694 45.965L56.1163 46.7847L56.2096 47.5873L56.3477 48.3685L56.5286 49.124L56.7499 49.8498L57.009 50.5422L57.3026 51.1976L57.6275 51.8129L57.9801 52.385L58.3565 52.9114L58.7526 53.39L59.1641 53.8188L59.5866 54.1965L60.0157 54.5219L60.4467 54.7945L60.875 55.014L61.2959 55.1806L61.7049 55.295L62.0976 55.3582L62.4693 55.3717L62.8161 55.3371L63.1337 55.2569L63.4183 55.1334L63.6663 54.9696L63.8745 54.7688L64.0398 54.5343L64.1594 54.27L64.2311 53.9799L64.253 53.668L64.2233 53.3388L64.141 52.9967L64.0052 52.6463L63.8157 52.2922L63.5724 51.939L63.2758 51.5912L62.9269 51.2536L62.5268 50.9304L62.0774 50.626L61.5807 50.3445L61.0391 50.09L60.4554 49.866L59.8327 49.6761L59.1745 49.5234L58.4844 49.4107L57.7663 49.3405L57.0245 49.315L56.2631 49.3359L55.4867 49.4046L54.6998 49.5221L53.9071 49.6888L53.1131 49.905L52.3227 50.1702L51.5403 50.484L50.7705 50.845L50.0178 51.2519L49.2864 51.7027L48.5805 52.1951L47.9037 52.7265L47.2599 53.2939L46.6522 53.8942L46.0838 54.5236L45.5573 55.1784L45.0751 55.8545L44.6391 56.5478L44.251 57.2538L43.9119 57.968L43.6226 58.6859L43.3834 59.4027L43.1944 60.1138L43.055 60.8146L42.9644 61.5005L42.9212 62.167L42.9238 62.8099L42.9702 63.4249L43.0578 64.0081L43.1839 64.5557L43.3455 65.0644L43.5391 65.531L43.7611 65.9526L44.0075 66.3267L44.2743 66.6512L44.5572 66.9244L44.8517 67.1448L45.1534 67.3116L45.4576 67.4242L45.7598 67.4825L46.0553 67.4868L46.3395 67.4377L46.6081 67.3365L46.8566 67.1846L47.0808 66.984L47.2767 66.7369L47.4406 66.446L47.5688 66.1142L47.6582 65.7448L47.7058 65.3414L47.7089 64.9079L47.6654 64.4481L47.5733 63.9664L47.4311 63.4672L47.2378 62.9549L46.9926 62.4341L46.6953 61.9095L46.346 61.3857L45.9453 60.8673L45.4942 60.3588L44.994 59.8647L44.4465 59.3893L43.8539 58.9368L43.2186 58.5109L42.5437 58.1155L41.8321 57.7539L41.0874 57.4293L40.3134 57.1443L39.514 56.9016L38.6934 56.7031L37.8559 56.5506L37.006 56.4453L36.1484 56.3883L35.2876 56.3799L34.4283 56.4202L33.5753 56.5089L32.733 56.6453L31.9061 56.8281L31.0989 57.0558L30.3156 57.3265L29.5604 57.6377L28.837 57.9869L28.1491 58.3711L27.4998 58.7868L26.8922 59.2306L26.3289 59.6986L25.8122 60.1867L25.344 60.6907L24.9258 61.2062L24.5587 61.7287L24.2434 62.2536L23.9803 62.7762L23.7692 63.2919L23.6095 63.7962L23.5003 64.2844L23.4402 64.7522L23.4275 65.1952L23.46 65.6095L23.5353 65.991L23.6505 66.3361L23.8025 66.6414L23.9878 66.904L24.2027 67.1209L24.4433 67.2898L24.7054 67.4087L24.9848 67.4758L25.2769 67.49L25.5773 67.4504L25.8813 67.3565L26.1844 67.2084L26.4819 67.0063L26.7693 66.7512L27.0421 66.4442L27.2961 66.0869L27.5269 65.6815L27.7307 65.2301L27.9037 64.7356L28.0424 64.201L28.1437 63.6296L28.2045 63.0251L28.2224 62.3914L28.1953 61.7326L28.1212 61.0528L27.9987 60.3567L27.8268 59.6486L27.605 58.9332L27.3329 58.2152L27.0109 57.4992L26.6396 56.7899L26.2199 56.0917L25.7534 55.4092L25.242 54.7465L24.6877 54.1079L24.0932 53.4972L23.4615 52.9181L22.7957 52.3739L22.0994 51.8678L21.3763 51.4024L20.6304 50.9801L19.8661 50.6031L19.0876 50.2729L18.2994 49.9908L17.5061 49.7577L16.7124 49.5739L15.923 49.4395L15.1424 49.3541L14.3754 49.3169L13.6263 49.3266L12.8996 49.3816L12.1994 49.4799L11.5297 49.6191L10.8944 49.7966L10.2969 50.0092L9.7405 50.2536L9.22801 50.5262L8.76204 50.8231L8.34478 51.1403L7.97806 51.4735L7.66332 51.8183L7.40159 52.1701L7.19348 52.5245L7.0392 52.8767L6.93853 53.2222L6.89084 53.5563L6.89509 53.8746L6.94982 54.1727L7.05321 54.4464L7.20304 54.6916L7.39674 54.9044L7.63141 55.0814L7.90383 55.2191L8.21049 55.3145L8.54762 55.3651L8.91124 55.3684L9.29717 55.3225L9.70105 55.2259L10.1184 55.0773L10.5447 54.8761L10.9753 54.6218L11.4055 54.3145L11.8308 53.9548L12.2466 53.5434L12.6485 53.0818L13.0322 52.5717L13.3934 52.015L13.7283 51.4143L14.0331 50.7724L14.3044 50.0923L14.539 49.3776L14.7341 48.6319L14.8872 47.8591L14.9962 47.0634L15.0592 46.2491L15.075 45.4206L15.0425 44.5826L14.9613 43.7397L14.8311 42.8965L14.6522 42.0577L14.4255 41.228L14.1519 40.4118L13.8329 39.6136L13.4706 38.8376L13.067 38.088L12.625 37.3686L12.1474 36.6831L11.6375 36.0346L11.0988 35.4264L10.5352 34.861L9.95072 34.3409L9.34955 33.868L8.73608 33.4438L8.11483 33.0696L7.49037 32.7461L6.86735 32.4738L6.25042 32.2525L5.64419 32.0817L5.05324 31.9607L4.48201 31.888L3.93482 31.8621L3.41584 31.8808L2.92898 31.9417L2.47798 32.0421L2.06625 32.1788L1.69695 32.3484L1.37291 32.5473L1.09659 32.7716L0.870115 33.0172L0.695221 33.2798L0.573251 33.5549L0.505139 33.8381L0.491405 34.1248L0.53216 34.4103L0.627085 34.6901L0.775456 34.9596L0.976134 35.2143L1.22758 35.4498L1.52787 35.662L1.8747 35.8469L2.26542 36.0006L2.69705 36.1197L3.16629 36.2008L3.66956 36.2411L4.20305 36.238L4.76269 36.1891L5.34426 36.0926L5.94335 35.9471L6.55547 35.7513L7.176 35.5047L7.80031 35.207L8.42376 34.8583L9.04172 34.4592L9.64964 34.0106L10.2431 33.514L10.8177 32.9712L11.3694 32.3842L11.8943 31.7557L12.3886 31.0885L12.849 30.3857L13.2722 29.6508L13.6556 28.8877L13.9967 28.1001L14.2934 27.2925L14.5439 26.469L14.747 25.6342L14.9018 24.7926L15.0077 23.949L15.0647 23.1079L15.0732 22.2741L15.0338 21.4521L14.9478 20.6464L14.8167 19.8616L14.6424 19.1017L14.4274 18.3709L14.1742 17.6729L13.8858 17.0114L13.5656 16.3896L13.2172 15.8104L12.8444 15.2765L12.4511 14.7902L12.0418 14.3533L11.6207 13.9674L11.1924 13.6337L10.7614 13.3526L10.3324 13.1247L9.90993 12.9496L9.49869 12.827L9.10317 12.7557L8.72778 12.7344L8.37678 12.7615L8.05428 12.8346L7.76416 12.9514L7.51005 13.109L7.29532 13.3041L7.12305 13.5335L6.99596 13.7933L6.91646 14.0796L6.88657 14.3883L6.90794 14.715L6.98181 15.0553L7.10902 15.4047L7.29001 15.7586L7.52478 16.1123L7.81291 16.4612L8.15359 16.8007L8.54559 17.1265L8.98728 17.4342L9.47663 17.7196L10.0113 17.9787L10.5885 18.2077L11.2051 18.4033L11.8579 18.5622L12.5432 18.6814L13.2571 18.7585L13.9954 18.7912L14.754 18.7778L15.5283 18.7168L16.3138 18.6072L17.106 18.4483L17.9 18.24L18.6914 17.9825L19.4753 17.6764L20.2474 17.3228L21.0031 16.9231L21.7381 16.4792L22.4484 15.9933L23.1301 15.4679L23.7794 14.9059L24.393 14.3107L24.9679 13.6857L25.5012 13.0347L25.9906 12.3616L26.4341 11.6708L26.8299 10.9665L27.1769 10.2533L27.4742 9.53574L27.7213 8.81847L27.9183 8.10613L28.0656 7.40339L28.1639 6.71481L28.2145 6.04489L28.2191 5.39797L28.1795 4.77827L28.0983 4.18975L27.9781 3.63619L27.8219 3.12107L27.6332 2.64761L27.4155 2.21869L27.1727 1.83687L26.9089 1.50433L26.6283 1.22289L26.3353 0.993964L26.0344 0.818573L25.7303 0.69732L25.4275 0.630392L25.1306 0.617557L24.8443 0.658171L24.5729 0.751175L24.321 0.895108L24.0926 1.08812L23.8919 1.32799L23.7227 1.61212L23.5886 1.93761L23.4928 2.30122L23.4384 2.69943L23.428 3.12846L23.464 3.58432L23.5482 4.06279L23.6823 4.55954L23.8675 5.07006L24.1044 5.58979L24.3934 6.1141L24.7344 6.63836L25.127 7.15794L25.5701 7.66829L26.0626 8.16495L26.6027 8.64359L27.1883 9.10007L27.8169 9.53042L28.4858 9.93092L29.1917 10.2981L29.9314 10.6289L30.701 10.9203L31.4966 11.1699L32.3142 11.3755L33.1493 11.5355L33.9975 11.6483L34.8542 11.7131L35.7148 11.7293L36.5746 11.6967L37.429 11.6156L38.2732 11.4868L39.1029 11.3113L39.9136 11.0906L40.7009 10.8267L41.4608 10.5217L42.1895 10.1783L42.8833 9.79955L43.539 9.38859L44.1534 8.94901L44.7239 8.48461L45.2482 7.99943L45.7242 7.49766L46.1505 6.9837L46.5258 6.46203L46.8493 5.93724L47.1208 5.41395L47.3401 4.89681L47.508 4.39042L47.6252 3.89934L47.6929 3.428L47.7131 2.98072L47.6876 2.56164L47.6189 2.17468L47.5099 1.82353L47.3635 1.51163L47.1833 1.2421L46.9728 1.01774L46.7361 0.841035L46.4771 0.714073L46.2002 0.638575L45.9098 0.61587L45.6104 0.646877L45.3066 0.732102L45.0031 0.871636L44.7044 1.06515L44.4151 1.3119L44.1396 1.61073L43.8824 1.9601L43.6476 2.35805L43.4393 2.80228L43.2611 3.29011L43.1167 3.81855L43.0093 4.3843L42.9418 4.98375L42.9169 5.61308L42.9368 6.26823L43.0033 6.94493L43.118 7.63878L43.2819 8.34527L43.4958 9.05979L43.7599 9.77769L44.074 10.4943L44.4375 11.205L44.8496 11.9053L45.3087 12.5906L45.8131 13.2567L46.3608 13.8994L46.949 14.5147L47.575 15.0991L48.2356 15.6491L48.9273 16.1615L49.6464 16.6336L50.3889 17.0628L51.1506 17.4472L51.9272 17.7849L52.7141 18.0747L53.5069 18.3157L54.3008 18.5073L55.0912 18.6496L55.8735 18.7427L56.643 18.7876L57.3953 18.7853L58.1258 18.7374L58.8305 18.6458L59.5053 18.5129L60.1463 18.3414L60.75 18.1342L61.3132 17.8946L61.8329 17.6262L62.3064 17.3328L62.7316 17.0186L63.1065 16.6877L63.4296 16.3444L63.6998 15.9934L63.9165 15.6392L64.0793 15.2863L64.1885 14.9394L64.2446 14.6032L64.2485 14.2821L64.2017 13.9804L64.1059 13.7026L63.9633 13.4526L63.7764 13.2344L63.5481 13.0515L63.2814 12.9074L62.98 12.805L62.6474 12.7471L62.2877 12.7361L61.9051 12.774L61.5038 12.8625L61.0883 13.0027L60.6631 13.1955L60.2329 13.4414L59.8023 13.7402L59.3759 14.0917L58.9583 14.4949L58.5538 14.9486L58.167 15.4511L57.802 16.0006L57.4626 16.5944L57.1528 17.23L56.8759 17.9042L56.6353 18.6136L56.4337 19.3547L56.2737 20.1234L56.1576 20.9158L56.0872 21.7274L56.0638 22.5539L56.0885 23.3907L56.162 24.2331L56.2844 25.0766L56.4555 25.9164L56.6747 26.7479L56.941 27.5666L57.2528 28.3679L57.6084 29.1477L58.0055 29.9017L58.4416 30.6262L58.9138 31.3174L59.4188 31.9719L59.9531 32.5868L60.513 33.1591L61.0944 33.6866L61.6932 34.1672L62.3051 34.5992L62.9254 34.9814L63.5496 35.313L64.1732 35.5935L64.7914 35.8229L65.3996 36.0017L65.9933 36.1305L66.568 36.2108L67.1193 36.244L67.643 36.2323L68.1353 36.1779L68.5922 36.0837L69.0104 35.9525L69.3867 35.7879L69.7181 35.5934L70.0022 35.3729L70.2367 35.1304L70.4199 34.8702L70.5504 34.5968L70.6271 34.3146L70.6495 34.0281L70.6174 33.7421L70.5311 33.4611L70.3912 33.1897L70.1987 32.9323L69.9553 32.6935L69.6626 32.4773L69.323 32.2878L68.9391 32.1289L68.5138 32.004L68.0503 31.9166L67.5522 31.8697L67.0233 31.8657L66.4675 31.9072L65.8891 31.996L65.2925 32.1337L64.6822 32.3214L64.0627 32.5598L63.4387 32.8494L62.8148 33.19L62.1956 33.5812L61.5858 34.0219L60.9898 34.511L60.4119 35.0466L59.8562 35.6267L59.3268 36.2487L58.8274 36.91L58.3614 37.6074L57.932 38.3374L57.5421 39.0963L57.1942 39.8802L56.8903 40.685L56.6323 41.5062L56.4216 42.3395L56.2591 43.1803L56.1454 44.024L56.0806 44.8658L56.0644 45.701L56.0963 46.5252L56.175 47.3338L56.299 48.1222L56.4665 48.8863L56.6752 49.6221L56.9225 50.3255L57.2055 50.9931L57.5209 51.6214L57.865 52.2076L58.2343 52.7488L58.6245 53.2429L59.0316 53.6877L59.4511 54.0818L59.8786 54.4239L60.3095 54.7134L60.7391 54.9498L61.1629 55.1332L61.5762 55.2642L61.9745 55.3436L62.3534 55.3727L62.7086 55.3532L63.0359 55.2873L63.3314 55.1772L63.5915 55.026L63.8127 54.8366L63.992 54.6124L64.1264 54.3572L64.2136 54.0748L64.2515 53.7694L64.2384 53.4453L64.173 53.1068L64.0543 52.7586L63.8819 52.4051L63.6557 52.0511L63.376 51.7011L63.0436 51.3598L62.6597 51.0315L62.2258 50.7206L61.7439 50.4314L61.2163 50.1679L60.6457 49.9338L60.0351 49.7327L59.3878 49.5678L58.7074 49.4421L57.9978 49.3581L57.2631 49.3182L56.5075 49.3241L55.7354 49.3775L54.9513 49.4793L54.1599 49.6303L53.3659 49.8307L52.5738 50.0804L51.7883 50.3788L51.0141 50.725L50.2555 51.1174L49.5169 51.5545L48.8023 52.0339L48.1159 52.5532L47.4612 53.1095L46.8417 53.6996L46.2604 54.3202L45.7203 54.9673L45.2238 55.6371L44.7729 56.3254L44.3694 57.0278L44.0145 57.7399L43.7093 58.4571L43.4542 59.1747L43.2492 59.8882L43.0941 60.5928L42.988 61.2839L42.9299 61.9571L42.9181 62.6079L42.9508 63.2323L43.0256 63.826L43.1398 64.3854L43.2904 64.9068L43.4742 65.3871L43.6875 65.8233L43.9266 66.2128L44.1873 66.5533L44.4656 66.843L44.7569 67.0804L45.0568 67.2643L45.3607 67.3942L45.664 67.4698L45.9622 67.4912L46.2505 67.4591L46.5245 67.3743L46.7799 67.2384L47.0123 67.0531L47.2176 66.8205L47.3921 66.5432L47.532 66.2241L47.6341 65.8663L47.6953 65.4734L47.7129 65.049L47.6844 64.5971L47.608 64.122L47.4819 63.6278L47.305 63.1192L47.0763 62.6006L46.7956 62.0767L46.4629 61.5522L46.0785 61.0315L45.6433 60.5194L45.1585 60.0203L44.6259 59.5385L44.0474 59.0782L43.4254 58.6435L42.7628 58.238L42.0625 57.8652L41.328 57.5285L40.5629 57.2306L39.7711 56.9742L38.9568 56.7614L38.1242 56.5941L37.2778 56.4737L36.4221 56.4012L35.5618 56.3773L34.7016 56.4021L33.846 56.4755L32.9998 56.5967L32.1675 56.7649L31.3536 56.9785L30.5623 57.2357L29.7977 57.5343L29.0638 57.8718L28.3642 58.2451L27.7022 58.6512L27.0811 59.0864L26.5034 59.5472L25.9716 60.0293L25.4878 60.5287L25.0535 61.041L24.67 61.5618L24.3382 62.0864L24.0585 62.6102L23.8308 63.1287L23.6548 63.6371L23.5296 64.1309L23.4541 64.6057L23.4265 65.0571L23.4449 65.4809L23.5069 65.8732L23.6097 66.2303L23.7503 66.5487L23.9254 66.8252L24.1313 67.0569L24.3641 67.2413L24.6198 67.3763L24.8942 67.4601L25.1827 67.4913L25.481 67.4689L25.7844 67.3923L26.0883 67.2614L26.388 67.0765L26.6791 66.8382L26.9571 66.5475L27.2175 66.2061L27.4561 65.8157L27.669 65.3787L27.8522 64.8976L28.0022 64.3754L28.1157 63.8154L28.1897 63.2211L28.2215 62.5962L28.2089 61.9449L28.15 61.2713L28.043 60.5799L27.887 59.8751L27.6811 59.1616L27.425 58.4439L27.1189 57.7268L26.7631 57.0148L26.3587 56.3126L25.907 55.6246L25.4096 54.9552L24.8687 54.3085L24.2868 53.6885L23.6666 53.0989L23.0113 52.5433L22.3243 52.0247L21.6093 51.546L20.8702 51.1098L20.1113 50.7182L19.3368 50.3729L18.5512 50.0754L17.759 49.8266L16.965 49.6271L16.1737 49.477L15.3898 49.3761L14.618 49.3236L13.8627 49.3185L13.1284 49.3592L12.4193 49.444L11.7395 49.5705L11.0929 49.7361L10.483 49.9378L9.91311 50.1725L9.38632 50.4365L8.90528 50.7262L8.47228 51.0374L8.08929 51.3659L7.75786 51.7075L7.47916 52.0576L7.25393 52.4116L7.08251 52.765L6.96481 53.1131L6.90034 53.4514L6.88818 53.7752L6.92701 54.0802L7.01513 54.3621L7.15042 54.6168L7.33045 54.8404L7.5524 55.0291L7.81317 55.1796L8.10931 55.2889L8.43716 55.354L8.7928 55.3726L9.17208 55.3426L9.57072 55.2623L9.98428 55.1303L10.4082 54.9459L10.8379 54.7086L11.2688 54.4181L11.6962 54.075L12.1155 53.68L12.5223 53.2342L12.9122 52.7393L13.281 52.1972L13.6247 51.6103L13.9395 50.9811L14.2218 50.3129L14.4684 49.6088L14.6764 48.8725L14.8432 48.1079L14.9664 47.3191L15.0442 46.5102L15.0752 45.6858L15.0581 44.8503L14.9925 44.0085L14.8778 43.1648L14.7144 42.3241L14.5028 41.491L14.244 40.67L13.9393 39.8656L13.5906 39.0821L13.1999 38.3237L12.7698 37.5943L12.3032 36.8976L11.8032 36.237L11.2733 35.6156L10.7172 35.0363L10.1389 34.5016L9.54259 34.0134L8.93255 33.5735L8.31328 33.1833L7.68934 32.8436L7.06536 32.555L6.44599 32.3174L5.83585 32.1307L5.23954 31.9939L4.66156 31.906L4.10625 31.8654L3.57784 31.8701L3.08034 31.9179L2.61753 32.006L2.19294 32.1315L1.8098 32.291L1.47106 32.481L1.17929 32.6977L0.93673 32.9369L0.745243 33.1945L0.606293 33.4662L0.520949 33.7473L0.489863 34.0334L0.513275 34.3198L0.591005 34.6019L0.722456 34.8752L0.906621 35.135L1.14209 35.3771L1.42705 35.5972L1.75933 35.7912L2.13637 35.9553L2.55532 36.0857L3.01295 36.1793L3.50579 36.2329L4.03008 36.2438L4.58184 36.2098L5.1569 36.1286L5.75089 35.9988L6.35935 35.8192L6.97771 35.5888L7.60132 35.3074L8.22555 34.9748L8.84575 34.5917L9.45736 34.1588L10.0559 33.6773L10.637 33.149L11.1964 32.5758L11.7302 31.9603L12.2347 31.305L12.7062 30.6132L13.1416 29.8882L13.538 29.1336L13.8928 28.3534L14.2038 27.5517L14.4692 26.7327L14.6875 25.901L14.8578 25.0611L14.9793 24.2176L15.0518 23.3752L15.0757 22.5386L15.0515 21.7123L14.9801 20.901L14.8632 20.1091L14.7025 19.3408L14.5002 18.6003L14.2588 17.8915L13.9813 17.218L13.6709 16.5831L13.331 15.9901L12.9655 15.4415L12.5783 14.9398L12.1737 14.487L11.7558 14.0848L11.3293 13.7343L10.8987 13.4364L10.4685 13.1915L10.0435 12.9997L9.62819 12.8604L9.22718 12.7729L8.8449 12.7359L8.48568 12.7477L8.15368 12.8065L7.85283 12.9096L7.58687 13.0545L7.35925 13.2381L7.17314 13.4569L7.03139 13.7075L6.93649 13.9858L6.8906 14.2878L6.89548 14.6092L6.95252 14.9457L7.06268 15.2927L7.22652 15.6457L7.44418 15.9999L7.71538 16.3508L8.03944 16.6939L8.41525 17.0245L8.84131 17.3384L9.31572 17.6313L9.83621 17.8992L10.4002 18.1383L11.0046 18.3449L11.6463 18.5157L12.3216 18.6479L13.0268 18.7387L13.7578 18.7857L14.5104 18.7872L15.2802 18.7415L16.0627 18.6474L16.8532 18.5043L17.6472 18.3117L18.4399 18.0698L19.2267 17.7791L20.003 17.4405L20.7644 17.0553L21.5065 16.6253L22.2251 16.1525L22.9163 15.6393L23.5763 15.0887L24.2016 14.5037L24.7892 13.8878L25.336 13.2446L25.8396 12.5781L26.2979 11.8925L26.7091 11.192L27.0717 10.4812L27.3849 9.7645L27.648 9.04663L27.861 8.33221L28.024 7.62591L28.1378 6.93233L28.2035 6.25598L28.2225 5.60128L28.1968 4.97246L28.1285 4.37359L28.0204 3.8085L27.8754 3.28078L27.6967 2.79372L27.4878 2.35032L27.2525 1.95324L26.9949 1.60478L26.7192 1.30689L26.4297 1.06111L26.1308 0.868585L25.8273 0.730047L25.5235 0.64582L25.2243 0.615805L24.9341 0.63949L24.6575 0.715945L24.3989 0.843838L24.1625 1.02144L23.9526 1.24665L23.773 1.51698L23.6273 1.82964L23.5189 2.18147L23.451 2.56906L23.4264 2.9887L23.4473 3.43645L23.516 3.90819L23.6341 4.3996L23.8029 4.90623L24.0232 5.42352L24.2956 5.94688L24.6201 6.47166L24.9964 6.99322L25.4235 7.507L25.9005 8.0085L26.4256 8.49334L26.997 8.95732L27.6122 9.39641L28.2685 9.8068L28.963 10.185L29.6923 10.5276L30.4528 10.8319L31.2406 11.0951L32.0516 11.3149L32.8816 11.4896L33.7261 11.6176L34.5806 11.6977L35.4405 11.7294L36.3011 11.7124L37.1577 11.6467L38.0057 11.533L38.8405 11.3722L39.6577 11.1657L40.4529 10.9153L41.222 10.6231L41.961 10.2917L42.6663 9.92385L43.3345 9.52277L43.9623 9.09191L44.5471 8.63499L45.0863 8.15598L45.5779 7.65902L46.0202 7.14847L46.4118 6.62876L46.7519 6.10446L47.0399 5.58019L47.2759 5.06059L47.4601 4.55028L47.5933 4.05383L47.6766 3.57573L47.7117 3.12033L47.7005 2.69182L47.6453 2.29422L47.5488 1.93128L47.414 1.60652L47.2442 1.32317L47.0429 1.08415L46.8141 0.892016L46.5617 0.749002L46.2901 0.656949L46.0035 0.617309L45.7065 0.631131L45.4036 0.699057L45.0995 0.821307L44.7987 0.997688L44.5059 1.22759L44.2256 1.50998L43.9621 1.84344L43.7197 2.22615L43.5025 2.65591L43.3144 3.13016L43.1588 3.64602L43.0393 4.20025L42.9588 4.78938L42.9201 5.40962L42.9255 6.057L42.977 6.7273L43.0762 7.41618L43.2243 8.11914L43.4222 8.83161L43.6703 9.54893L43.9685 10.2665L44.3164 10.9796L44.7131 11.6836L45.1574 12.3742L45.6477 13.0468L46.1818 13.6974L46.7574 14.3219L47.3717 14.9166L48.0216 15.4779L48.7038 16.0025L49.4146 16.4877L50.1501 16.9309L50.9061 17.3297L51.6785 17.6825L52.4626 17.9877L53.254 18.2443L54.0481 18.4517L54.8401 18.6096L55.6255 18.7184L56.3996 18.7785L57.1578 18.7911L57.8957 18.7575L58.6091 18.6796L59.2938 18.5596L59.946 18.4L60.562 18.2038L61.1384 17.9742L61.6723 17.7146L62.1608 17.4287L62.6015 17.1207L62.9926 16.7946L63.3323 16.4548L63.6195 16.1058L63.8533 15.7521L64.0333 15.3983L64.1595 15.049L64.2324 14.7089L64.2528 14.3824L64.222 14.0741L64.1416 13.7883L64.0137 13.529L63.8406 13.3002L63.6251 13.1057L63.3703 12.9489L63.0796 12.8329L62.7565 12.7606L62.405 12.7344L62.0292 12.7565L61.6334 12.8288L61.2219 12.9524L60.7993 13.1284L60.3702 13.3573L59.9392 13.6393L59.511 13.9741L59.0901 14.3609L58.681 14.7987L58.2881 15.2859L57.9156 15.8206L57.5677 16.4006L57.2481 17.0232L56.9603 17.6854L56.7078 18.384L56.4935 19.1154L56.32 19.8758L56.1897 20.6611L56.1045 21.467L56.066 22.2893L56.0754 23.1233L56.1333 23.9644L56.2401 24.8081L56.3958 25.6496L56.5997 26.4842L56.8511 27.3075L57.1486 28.1148L57.4905 28.9019L57.8747 29.6646L58.2986 30.3989L58.7597 31.101L59.2546 31.7676L59.78 32.3954L60.3321 32.9816L60.9071 33.5236L61.5009 34.0193L62.109 34.4669L62.7271 34.8651L63.3506 35.2129L63.9749 35.5097L64.5953 35.7554L65.2073 35.9502L65.8061 36.0948L66.3873 36.1904L66.9465 36.2384L67.4794 36.2408L67.9821 36.1997L68.4507 36.1178L68.8816 35.9981L69.2716 35.8438L69.6176 35.6584L69.917 35.4457L70.1675 35.2098L70.3672 34.9548L70.5146 34.6851L70.6086 34.4051L70.6483 34.1195L70.6336 33.8329L70.5645 33.5498L70.4415 33.2748L70.2657 33.0125L70.0383 32.7673L69.761 32.5434L69.4361 32.345L69.066 32.1759L68.6536 32.0399L68.2019 31.9402L67.7144 31.8801L67.1948 31.8622L66.6472 31.8889L66.0756 31.9625L65.4843 32.0844L64.8778 32.2561L64.2607 32.4783L63.6376 32.7516L63.0132 33.076L62.392 33.4511L61.7788 33.8762L61.1779 34.35L60.5937 34.871L60.0305 35.4372L59.4924 36.0462L58.983 36.6953L58.506 37.3815L58.0647 38.1015L57.6619 38.8517L57.3003 39.628L56.9822 40.4266L56.7094 41.2431L56.4835 42.0731L56.3056 42.912L56.1763 43.7552L56.0959 44.5981L56.0643 45.436L56.081 46.2642L56.1449 47.0782L56.2547 47.8735L56.4086 48.6458L56.6044 49.391L56.8397 50.1052L57.1117 50.7845L57.4171 51.4257L57.7525 52.0256L58.1142 52.5815L58.4982 53.0908L58.9004 53.5515L59.3164 53.9619L59.7418 54.3206L60.1721 54.6269L60.6027 54.8803L61.0288 55.0805L61.446 55.2281L61.8496 55.3238L62.2351 55.3688L62.5983 55.3646L62.9349 55.3132L63.241 55.2169L63.5127 55.0784L63.7467 54.9008L63.9396 54.6874L64.0886 54.4416L64.1911 54.1675L64.2449 53.8689L64.2482 53.5503L64.1996 53.2159L64.0979 52.8703L63.9427 52.518L63.7336 52.1636L63.4709 51.8119L63.1551 51.4673L62.7875 51.1344L62.3693 50.8175L61.9025 50.521L61.3891 50.2488L60.8319 50.005L60.2337 49.793L59.5977 49.6162L58.9275 49.4777L58.2268 49.3802L57.4996 49.326L56.7502 49.3171L55.9828 49.3553L55.2021 49.4416L54.4125 49.5769L53.6188 49.7615L52.8256 49.9956L52.0375 50.2786L51.2592 50.6096L50.4952 50.9875L49.7497 51.4105L49.0271 51.8767L48.3313 52.3836L47.6661 52.9284L47.035 53.5082L46.4412 54.1194L45.8877 54.7585L45.3771 55.4215L44.9114 56.1044L44.4927 56.8028L44.1222 57.5123L43.8011 58.2284L43.53 58.9464L43.309 59.6617L43.1381 60.3696L43.0165 61.0655L42.9433 61.7449L42.917 62.4033L42.9357 63.0365L42.9973 63.6404L43.0993 64.2111L43.2387 64.745L43.4122 65.2388L43.6166 65.6893L43.8479 66.094L44.1022 66.4503L44.3753 66.7563L44.6629 67.0105L44.9606 67.2116L45.2637 67.3588L45.5678 67.4516L45.868 67.4903L46.16 67.4751L46.4391 67.4069L46.7008 67.2871L46.941 67.1173L47.1554 66.8995L47.3401 66.6362L47.4914 66.3301L47.6059 65.9843L47.6804 65.6021L47.7122 65.1874L47.6986 64.7438L47.6377 64.2756L47.5275 63.787L47.3669 63.2825L47.1548 62.7666L46.8907 62.2439L46.5745 61.7191L46.2065 61.1967L45.7873 60.6813L45.3182 60.1776L44.8006 59.6898L44.2365 59.2222L43.6281 58.7789L42.9781 58.3637L42.2895 57.9802L41.5655 57.6317L40.8097 57.3211L40.026 57.0512L39.2184 56.8243L38.3911 56.6424L37.5486 56.5069L36.6954 56.419L35.8361 56.3796L34.9753 56.3889L34.1178 56.4469L33.2681 56.553L32.4309 56.7063L31.6106 56.9057L30.8116 57.1492L30.0381 57.4349L29.294 57.7602L28.5831 58.1225L27.9088 58.5185L27.2743 58.9449L26.6825 59.3979L26.1359 59.8737L25.6366 60.368L25.1864 60.8767L24.7866 61.3953L24.4383 61.9191L24.1419 62.4437L23.8977 62.9644L23.7053 63.4765L23.5641 63.9754L23.4729 64.4568L23.4302 64.9161L23.4342 65.3491L23.4826 65.7519L23.5727 66.1206L23.7016 66.4517L23.8661 66.7418L24.0626 66.9881L24.2873 67.1879L24.5362 67.3388L24.805 67.4391L25.0895 67.4872L25.3852 67.4819L25.6875 67.4226L25.9917 67.309L26.2933 67.1412L26.5876 66.9198L26.8703 66.6457L27.1367 66.3202L27.3827 65.9452L27.6042 65.5228L27.7972 65.0555L27.9582 64.546L28.0837 63.9977L28.1706 63.4139L28.2161 62.7983L28.2179 62.155L28.1739 61.488L28.0824 60.8018L27.9421 60.1008L27.7521 59.3895L27.512 58.6727L27.2218 57.9549L26.8818 57.2408L26.4928 56.535L26.0559 55.842L25.5729 55.1662L25.0456 54.5118L24.4764 53.8829L23.8681 53.2832L23.2236 52.7164L22.5463 52.1857L21.8398 51.694L21.108 51.244L20.3549 50.838L19.5849 50.4778L18.8024 50.1649L18.0118 49.9005L17.2178 49.6853L16.4252 49.5195L15.6384 49.4029L14.8622 49.3351L14.1012 49.315L13.3597 49.3414L12.6422 49.4124L11.9526 49.5258L11.295 49.6792L10.673 49.8698L10.0901 50.0944L9.54928 50.3495L9.05339 50.6314L8.60486 50.9361L8.20576 51.2596L7.85776 51.5976L7.56216 51.9454L7.31984 52.2987L7.13127 52.6528L6.99649 53.0031L6.91515 53.345L6.88645 53.6739L6.9092 53.9854L6.98183 54.2751L7.10235 54.5389L7.26841 54.7728L7.47734 54.973L7.72609 55.136L8.01136 55.2587L8.32953 55.3382L8.67675 55.3719L9.04896 55.3575L9.44191 55.2934L9.8512 55.178L10.2723 55.0104L10.7007 54.7899L11.1317 54.5164L11.5607 54.19L11.9831 53.8114L12.3943 53.3816L12.7901 52.9022L13.1661 52.3749L13.5182 51.8019L13.8426 51.1859L14.1356 50.5298L14.3939 49.8368L14.6145 49.1103L14.7947 48.3543L14.932 47.5727L15.0245 46.7698L15.0705 45.9498L15.0688 45.1174L15.0187 44.277L14.9197 43.4335L14.7718 42.5913L14.5754 41.7553L14.3315 40.9299L14.0413 40.1198L13.7063 39.3292L13.3287 38.5623L12.9109 37.8232L12.4556 37.1157L11.9659 36.4433L11.4451 35.8091L10.8969 35.2161L10.3253 34.6669L9.73423 34.1637L9.12808 33.7083L8.51127 33.3022L7.88831 32.9463L7.26384 32.6414L6.64249 32.3876L6.02892 32.1847L5.42771 32.0321L4.84341 31.9288L4.28041 31.8733L3.74299 31.8638L3.23522 31.8982L2.76097 31.9737L2.32383 32.0876L1.92716 32.2367L1.57398 32.4174L1.26698 32.626L1.00853 32.8585L0.800597 33.1108L0.644777 33.3784L0.542268 33.657L0.493853 33.942L0.499905 34.2288L0.560379 34.5128L0.674808 34.7894L0.842315 35.054L1.06162 35.3022L1.33103 35.5298L1.6485 35.7325L2.01158 35.9065L2.41751 36.048L2.86319 36.1537L3.34521 36.2203L3.8599 36.2451L4.40336 36.2256L4.97146 36.1597L5.5599 36.0455L6.16425 35.8819L6.77995 35.6677L7.40239 35.4026L8.02693 35.0863L8.64892 34.7192L9.26375 34.302L9.86692 33.8359L10.454 33.3223L11.0208 32.7631L11.5632 32.1608L12.0774 31.5179L12.5598 30.8373L13.007 30.1225L13.4161 29.3769L13.7844 28.6044L14.1096 27.8091L14.3897 26.9952L14.6232 26.1671L14.8088 25.3293L14.9459 24.4864L15.034 23.6432L15.0734 22.8042L15.0643 21.9741L15.0079 21.1576L14.9053 20.359L14.7583 19.5827L14.569 18.8329L14.3397 18.1136L14.0734 17.4284L13.7731 16.7809L13.4423 16.1743L13.0845 15.6112L12.7038 15.0944L12.3042 14.6258L11.8901 14.2073L11.4658 13.8402L11.036 13.5255L10.6052 13.2638L10.178 13.055L9.75914 12.8991L9.35309 12.7952L8.96437 12.7423L8.59735 12.7388L8.25623 12.7828L7.94505 12.8721L7.66759 13.004L7.4274 13.1756L7.22774 13.3836L7.07157 13.6245L6.96149 13.8944L6.89978 14.1893L6.88833 14.505L6.92862 14.8372L7.02178 15.1813L7.16849 15.5329L7.36901 15.8872L7.62322 16.2397L7.93054 16.5857L8.29001 16.9208L8.70025 17.2405L9.15949 17.5406L9.66557 17.8169L10.216 18.0655L10.8079 18.2828L11.4381 18.4654L12.1031 18.6102L12.7992 18.7144L13.5224 18.7756L14.2686 18.7918L15.0334 18.7612L15.8124 18.6827L16.6008 18.5552L17.3942 18.3784L18.1878 18.1522L18.977 17.877L19.7571 17.5535L20.5238 17.183L21.2725 16.767L21.999 16.3076L22.6993 15.807L23.3697 15.268L24.0064 14.6936L24.6063 14.0871L25.1664 13.4522L25.684 12.7927L26.157 12.1127L26.5833 11.4165L26.9616 10.7085L27.2906 9.99314L27.5697 9.27514L27.7986 8.55912L27.9775 7.84973L28.1069 7.1516L28.1877 6.46928L28.2214 5.80721L28.2097 5.1697L28.1547 4.56086L28.059 3.98461L27.9254 3.44461L27.757 2.94426L27.5574 2.48665L27.3301 2.07454L27.0792 1.71037L26.8087 1.39619L26.5231 1.13367L26.2268 0.924078L25.9242 0.768288L25.62 0.666752L25.3188 0.619505L25.0252 0.626165L24.7438 0.685937L24.479 0.797615L24.2351 0.959595L24.0164 1.16989L23.8267 1.42614L23.6698 1.72564L23.5492 2.06535L23.4681 2.44194L23.4294 2.85178L23.4356 3.29102L23.4889 3.75559L23.5911 4.2412L23.7436 4.74347L23.9474 5.25787L24.2032 5.7798L24.5111 6.30463L24.8709 6.82772L25.282 7.34447L25.7433 7.85036L26.2533 8.34097L26.8101 8.81204L27.4116 9.25948L28.0552 9.67941L28.7379 10.0682L29.4565 10.4225L30.2074 10.7393L30.987 11.0158L31.791 11.2497L32.6155 11.439L33.4558 11.5819L34.3076 11.6774L35.1663 11.7246L36.0272 11.7231L36.8856 11.6729L37.7368 11.5744L38.5763 11.4284L39.3996 11.2363L40.2022 10.9997L40.9801 10.7206L41.7291 10.4014L42.4455 10.0448L43.1259 9.65393L43.7669 9.23216L44.3657 8.78312L44.9196 8.31071L45.4266 7.81901L45.8848 7.3123L46.2926 6.79502L46.6492 6.27168L46.9539 5.7469L47.2064 5.22531L47.407 4.71154L47.5563 4.21018L47.6554 3.72576L47.7057 3.26266L47.709 2.82515L47.6675 2.41728L47.5838 2.04291L47.4609 1.70562L47.3018 1.40875L47.1102 1.15531L46.8897 0.947983L46.6444 0.789105L46.3784 0.680643L46.0961 0.624175L45.8019 0.620878L45.5004 0.671527L45.1962 0.776474L44.8939 0.935659L44.5981 1.1486L44.3133 1.41441L44.0439 1.73178L43.7944 2.09903L43.5687 2.51406L43.3709 2.97444L43.2046 3.47738L43.0733 4.01975L42.9801 4.59816L42.9278 5.20892L42.9188 5.84809L42.9554 6.51156L43.0393 7.19501L43.1718 7.89398L43.3538 8.60392L43.5858 9.3202L43.8681 10.0382L44.2002 10.7532L44.5815 11.4606L45.0108 12.1559L45.4866 12.8348L46.007 13.4928L46.5697 14.1261L47.172 14.7306L47.8109 15.3029L48.4832 15.8396L49.1853 16.3376L49.9134 16.7944L50.6634 17.2076L51.431 17.5752L52.2118 17.8957L53.0014 18.1679L53.7952 18.391L54.5884 18.5647L55.3764 18.689L56.1545 18.7646L56.9183 18.7921L57.6632 18.7731L58.3848 18.7091L59.0791 18.6022L59.742 18.455L60.3699 18.2701L60.9593 18.0508L61.507 17.8003L62.0102 17.5224L62.4664 17.221L62.8735 16.9002L63.2298 16.5643L63.5338 16.2177L63.7846 15.865L63.9818 15.5107L64.1251 15.1595L64.2149 14.8159L64.2519 14.4847L64.2373 14.1701L64.1725 13.8766L64.0594 13.6084L63.9005 13.3695L63.6982 13.1637L63.4555 12.9945L63.1759 12.8652L62.8627 12.7787L62.5198 12.7376L62.1513 12.7441L61.7614 12.8002L61.3544 12.9074L60.9348 13.0666L60.5073 13.2786L60.0764 13.5437L59.6468 13.8617L59.2231 14.2321L58.8097 14.6538L58.4112 15.1254L58.0318 15.6453L57.6756 16.2111L57.3466 16.8204L57.0483 17.4704L56.7842 18.1578L56.5574 18.8791L56.3707 19.6307L56.2264 20.4085L56.1267 21.2083L56.0732 22.0259L56.0672 22.8566L56.1095 23.696L56.2008 24.5394L56.3409 25.3821L56.5296 26.2194L56.766 27.0467L57.049 27.8596L57.3769 28.6536L57.7478 29.4245L58.1594 30.1683L58.609 30.8811L59.0935 31.5594L59.6095 32.1998L60.1536 32.7995L60.7217 33.3559L61.31 33.8665L61.914 34.3297L62.5294 34.7437L63.1517 35.1076L63.7763 35.4207L64.3984 35.6827L65.0136 35.8936L65.617 36.0541L66.2043 36.1652L66.771 36.2282L67.3128 36.2449L67.8255 36.2174L68.3054 36.1482L68.7487 36.0402L69.152 35.8965L69.5123 35.7206L69.8268 35.5162L70.0931 35.2872L70.3092 35.0378L70.4734 34.7723L70.5845 34.4951L70.6416 34.2108L70.6442 33.924L70.5924 33.6393L70.4865 33.3612L70.3273 33.0944L70.1162 32.8433L69.8546 32.6122L69.5447 32.4052L69.1887 32.2264L68.7894 32.0794L68.3498 31.9678L67.8733 31.8948L67.3636 31.8631L66.8244 31.8754L66.26 31.9339L65.6745 32.0402L65.0724 32.1959L64.4582 32.402L63.8365 32.659L63.212 32.9672L62.5893 33.3262L61.973 33.7355L61.3677 34.1939L60.7777 34.7001L60.2074 35.2521L59.6608 35.8477L59.1419 36.4844L58.6543 37.1591L58.2012 37.8687L57.7858 38.6097L57.4109 39.3781L57.0787 40.1701L56.7913 40.9814L56.5503 41.8075L56.357 42.6441L56.2122 43.4864L56.1162 44.3299L56.0691 45.1699L56.0705 46.0017L56.1195 46.8207L56.2148 47.6225L56.3549 48.4026L56.5376 49.1568L56.7607 49.8813L57.0213 50.5721L57.3164 51.2258L57.6426 51.8392L57.9964 52.4093L58.3737 52.9337L58.7705 53.4101L59.1826 53.8367L59.6056 54.212L60.0348 54.5351L60.4658 54.8053L60.8939 55.0225L61.3144 55.1868L61.7228 55.2989L62.1145 55.3599L62.4853 55.3711L62.8308 55.3345L63.147 55.2523L63.4301 55.127L63.6765 54.9615L63.8828 54.759L64.0461 54.5232L64.1636 54.2576L64.2332 53.9664L64.2528 53.6537L64.2208 53.3239L64.1361 52.9813L63.998 52.6306L63.806 52.2765L63.5603 51.9234L63.2614 51.576L62.9102 51.2389L62.5079 50.9164L62.0563 50.613L61.5575 50.3326L61.014 50.0793L60.4285 49.8568L59.8042 49.6685L59.1445 49.5175L58.4531 49.4066L57.7339 49.3384L56.991 49.3149L56.2289 49.3379L55.4519 49.4088L54.6647 49.5284L53.8718 49.6973L53.0779 49.9157L52.2877 50.1832L51.5058 50.499L50.7367 50.8621L49.9849 51.271L49.2545 51.7237L48.5498 52.2179L47.8744 52.751L47.2321 53.3199L46.6261 53.9215L46.0595 54.5522L45.5349 55.208L45.0547 55.885L44.6209 56.5789L44.2349 57.2854L43.898 57.9999L43.6109 58.7178L43.374 59.4344L43.1872 60.1452L43.05 60.8454L42.9615 61.5305L42.9204 62.1961L42.925 62.8378L42.9732 63.4515L43.0626 64.0332L43.1904 64.5792L43.3534 65.0861L43.5484 65.5507L43.7715 65.9702L44.0189 66.3422L44.2865 66.6644L44.57 66.9353L44.865 67.1534L45.1669 67.3178L45.4711 67.4279L45.7731 67.4838L46.0682 67.4857L46.3518 67.4343L46.6196 67.3308L46.8671 67.1767L47.0901 66.974L47.2847 66.7249L47.447 66.4321L47.5736 66.0985L47.6612 65.7276L47.7069 65.3228L47.708 64.888L47.6623 64.4272L47.568 63.9446L47.4236 63.4447L47.228 62.9319L46.9805 62.4109L46.6809 61.8862L46.3293 61.3625L45.9263 60.8445L45.473 60.3365L44.9706 59.8432L44.4211 59.3687L43.8265 58.9173L43.1895 58.4927L42.5128 58.0987L41.7997 57.7387L41.0537 57.4157L40.2784 57.1326L39.478 56.8918L38.6565 56.6953L37.8184 56.5449L36.9681 56.4418L36.1102 56.3869L35.2494 56.3806L34.3903 56.4231L33.5376 56.514L32.6959 56.6524L31.8698 56.8373L31.0635 57.0669L30.2815 57.3394L29.5276 57.6525L28.8057 58.0033L28.1194 58.3889L27.4719 58.806L26.8662 59.2509L26.305 59.7199L25.7904 60.2088L25.3243 60.7134L24.9084 61.2293L24.5436 61.752L24.2307 62.2768L23.9698 62.7993L23.761 63.3146L23.6036 63.8182L23.4966 64.3056L23.4386 64.7724L23.428 65.2143L23.4625 65.6271L23.5396 66.0071L23.6565 66.3505L23.81 66.654L23.9967 66.9146L24.2129 67.1294L24.4545 67.2961L24.7175 67.4128L24.9975 67.4776L25.2901 67.4894L25.5907 67.4474L25.8948 67.3511L26.1978 67.2005L26.4949 66.9961L26.7818 66.7386L27.0539 66.4294L27.3068 66.07L27.5366 65.6624L27.7391 65.209L27.9106 64.7127L28.0477 64.1764L28.1472 63.6035L28.2062 62.9976L28.2222 62.3627L28.193 61.7028L28.1167 61.0222L27.9921 60.3254L27.818 59.6169L27.594 58.9013L27.3197 58.1833L26.9955 57.4675L26.6219 56.7586L26.2002 56.061L25.7317 55.3793L25.2182 54.7176L24.6621 54.0802L24.0659 53.4708L23.4326 52.8932L22.7654 52.3506L22.0678 51.8462L21.3436 51.3827L20.5969 50.9624L19.8318 50.5874L19.0527 50.2594L18.2642 49.9794L17.4708 49.7485L16.6772 49.5669L15.8881 49.4347L15.108 49.3515L14.3417 49.3163L13.5935 49.3281L12.8679 49.385L12.169 49.4852L11.5008 49.6262L10.8671 49.8053L10.2713 50.0194L9.71679 50.2651L9.20632 50.5389L8.74246 50.8368L8.32741 51.1548L7.96297 51.4886L7.65057 51.8338L7.39121 52.1859L7.18549 52.5402L7.0336 52.8922L6.9353 53.2373L6.88994 53.5708L6.89646 53.8883L6.9534 54.1854L7.0589 54.4579L7.21073 54.7018L7.40632 54.9131L7.64273 55.0883L7.91674 55.2242L8.22484 55.3177L8.56324 55.3662L8.92794 55.3674L9.31476 55.3193L9.71933 55.2204L10.1372 55.0695L10.5637 54.8659L10.9944 54.6093L11.4245 54.2997L11.8495 53.9376L12.2648 53.524L12.666 53.0602L13.0487 52.5479L13.4089 51.9892L13.7425 51.3866L14.0459 50.743L14.3156 50.0613L14.5485 49.3451L14.7418 48.5981L14.893 47.8242L15 47.0276L15.0609 46.2126L15.0746 45.3836L15.04 44.5453L14.9565 43.7022L14.8242 42.8591L14.6432 42.0207L14.4143 41.1914L14.1386 40.3759L13.8177 39.5786L13.4535 38.8038L13.0482 38.0554L12.6045 37.3374L12.1254 36.6535L11.6141 36.0068L11.0743 35.4004L10.5097 34.837L9.92435 34.3189L9.32253 33.8481L8.70863 33.4261L8.08713 33.0542L7.46264 32.733L6.83979 32.4629L6.22323 32.2438L5.61759 32.0753L5.02742 31.9564L4.45717 31.8859L3.91115 31.862L3.3935 31.8826L2.90817 31.9454L2.45884 32.0474L2.04893 32.1856L1.68159 32.3566L1.35961 32.5568L1.08546 32.7821L0.861242 33.0285L0.688674 33.2917L0.569078 33.5674L0.503373 33.8508L0.49206 34.1375L0.535229 34.4229L0.632547 34.7023L0.783268 34.9713L0.986235 35.2252L1.23989 35.4598L1.5423 35.6709L1.89114 35.8544L2.28374 36.0067L2.71711 36.1241L3.18794 36.2035L3.69264 36.2419L4.22737 36.2368L4.78808 36.1858L5.37052 36.0872L5.97029 35.9394L6.58288 35.7414L7.20368 35.4926L7.82805 35.1926L8.45135 34.8416L9.06896 34.4403L9.67633 33.9896L10.269 33.4909L10.8427 32.946L11.3933 32.3572L11.9169 31.7269L12.4098 31.058L12.8686 30.3537L13.2901 29.6175L13.6717 28.8532L14.0109 28.0647L14.3055 27.2562L14.5539 26.4321L14.7549 25.5969L14.9075 24.7552L15.0113 23.9115L15.0661 23.0707L15.0724 22.2373L15.0309 21.4159L14.9429 20.6111L14.8098 19.8273L14.6337 19.0686L14.4169 18.3392L14.1621 17.6428L13.8723 16.9829L13.5507 16.3629L13.2011 15.7857L12.8273 15.2539L12.4333 14.7697L12.0233 14.3351L11.6018 13.9515L11.1732 13.6201L10.7422 13.3414L10.3134 13.1158L9.8914 12.9431L9.48076 12.8227L9.08604 12.7537L8.71164 12.7346L8.36183 12.7638L8.04069 12.8389L7.75209 12.9575L7.49966 13.1168L7.28675 13.3136L7.11643 13.5444L6.99141 13.8055L6.91406 14.0929L6.88642 14.4024L6.9101 14.7299L6.98632 15.0707L7.11592 15.4204L7.2993 15.7743L7.53644 16.1279L7.82693 16.4765L8.16993 16.8155L8.56417 17.1406L9.00801 17.4474L9.49943 17.7317L10.036 17.9895L10.615 18.2172L11.2334 18.4112L11.8877 18.5683L12.5743 18.6857L13.2894 18.7609L14.0287 18.7916L14.7881 18.7761L15.563 18.713L16.3489 18.6012L17.1412 18.4401L17.9353 18.2296L18.7264 17.9699L19.5099 17.6617L20.2813 17.306L21.0362 16.9043L21.7702 16.4585L22.4793 15.9707L23.1596 15.4437L23.8074 14.8802L24.4194 14.2836L24.9925 13.6573L25.5239 13.0052L26.0113 12.3313L26.4527 11.6398L26.8464 10.935L27.1912 10.2215L27.4862 9.50385L27.7311 8.78669L27.9259 8.07469L28.071 7.37247L28.1671 6.68463L28.2157 6.01564L28.2182 5.36985L28.1768 4.75144L28.0938 4.1644L27.9719 3.61247L27.8142 3.09914L27.6241 2.6276L27.4052 2.20072L27.1614 1.82104L26.8967 1.49073L26.6155 1.2116L26.3221 0.985033L26.021 0.812036L25.7168 0.693194L25.4142 0.628676L25.1177 0.618234L24.8319 0.661199L24.5613 0.756498L24.3103 0.902653L24.0831 1.0978L23.8837 1.33969L23.716 1.62572L23.5835 1.95297L23.4895 2.3182L23.437 2.71786L23.4286 3.14817L23.4667 3.60512L23.5531 4.0845L23.6895 4.58195L23.8769 5.09298L24.1161 5.61301L24.4074 6.13742L24.7507 6.66156L25.1456 7.18083L25.591 7.69067L26.0856 8.18662L26.6278 8.66437L27.2153 9.11976L27.8458 9.54886L28.5164 9.94796L29.2239 10.3136L29.9649 10.6427L30.7358 10.9323L31.5325 11.18L32.3509 11.3836L33.1867 11.5415L34.0354 11.6522L34.8923 11.7149L35.753 11.7289L36.6127 11.6941L37.4667 11.6109L38.3104 11.48L39.1394 11.3024L39.949 11.0798L40.7352 10.814L41.4939 10.5072L42.2211 10.1622L42.9133 9.78195L43.5672 9.36965L44.1797 8.92889L44.7482 8.46348L45.2704 7.97746L45.7442 7.47507L46.1682 6.96066L46.5412 6.43876L46.8625 5.91394L47.1316 5.39082L47.3487 4.87406L47.5143 4.36826L47.6292 3.87795L47.6948 3.4076L47.7129 2.96148L47.6854 2.54374L47.6149 2.1583L47.5041 1.80882L47.3562 1.49874L47.1746 1.23116L46.9628 1.00887L46.725 0.834328L46.4651 0.709617L46.1875 0.636439L45.8966 0.616102L45.597 0.649508L45.2931 0.737147L44.9897 0.879088L44.6913 1.07499L44.4025 1.32408L44.1278 1.62519L43.8715 1.97675L43.6378 2.37681L43.4307 2.82304L43.254 3.31274L43.1111 3.84291L43.0055 4.41023L42.9398 5.0111L42.9168 5.64166L42.9387 6.29785L43.0074 6.97541L43.1242 7.66992L43.2904 8.37687L43.5065 9.09163L43.7728 9.80957L44.0891 10.526L44.4548 11.2364L44.869 11.936L45.3301 12.6206L45.8366 13.2857L46.386 13.9273L46.976 14.5414L47.6036 15.1243L48.2657 15.6727L48.9587 16.1833L49.6789 16.6536L50.4223 17.0809L51.1848 17.4632L51.9619 17.7988L52.7492 18.0865L53.5422 18.3253L54.336 18.5147L55.1262 18.6548L55.908 18.7458L56.6768 18.7885L57.4282 18.7841L58.1577 18.7342L58.8612 18.6408L59.5345 18.5061L60.1739 18.3329L60.7759 18.1242L61.3373 17.8832L61.8549 17.6137L62.3264 17.3193L62.7493 17.0042L63.1219 16.6726L63.4427 16.329L63.7105 15.9777L63.9248 15.6234L64.0853 15.2707L64.1921 14.9243L64.2458 14.5886L64.2475 14.2682L64.1985 13.9676L64.1006 13.6909L63.9559 13.4422L63.7671 13.2255L63.537 13.0443L63.2687 12.9019L62.9658 12.8014L62.632 12.7456L62.2712 12.7368L61.8876 12.7769L61.4856 12.8676L61.0695 13.0102L60.6441 13.2053L60.2138 13.4535L59.7832 13.7547L59.3571 14.1085L58.94 14.514L58.5363 14.9699L58.1503 15.4746L57.7863 16.026L57.4482 16.6218L57.1398 17.2591L56.8644 17.935L56.6255 18.6459L56.4257 19.3882L56.2676 20.1581L56.1535 20.9514L56.0851 21.7638L56.0639 22.5909L56.0908 23.428L56.1664 24.2706L56.291 25.114L56.4643 25.9535L56.6856 26.7846L56.9539 27.6025L57.2677 28.403L57.6252 29.1817L58.0241 29.9346L58.4618 30.6576L58.9355 31.3473L59.4419 32.0001L59.9775 32.6131L60.5384 33.1835L61.1207 33.7089L61.7202 34.1874L62.3325 34.6172L62.9531 34.9972L63.5774 35.3265L64.2008 35.6048L64.8187 35.8319L65.4263 36.0084L66.0193 36.1351L66.593 36.2133L67.1432 36.2445L67.6656 36.2308L68.1563 36.1746L68.6116 36.0786L69.028 35.9459L69.4024 35.7799L69.7317 35.5841L70.0137 35.3625L70.2459 35.1192L70.4268 34.8583L70.5549 34.5844L70.6293 34.3019L70.6493 34.0154L70.6148 33.7295L70.526 33.4488L70.3837 33.1779L70.189 32.9213L69.9433 32.6833L69.6485 32.4682L69.3069 32.28L68.9211 32.1226L68.494 31.9993L68.0289 31.9137L67.5293 31.8686L66.9991 31.8666L66.4423 31.9101L65.863 32.0011L65.2657 32.1409L64.6548 32.3309L64.035 32.5716L63.4109 32.8635L62.7871 33.2063L62.1683 33.5997L61.559 34.0426L60.9637 34.5338L60.3867 35.0714L59.8321 35.6534L59.304 36.2773L58.806 36.9403L58.3416 37.6391L57.9139 38.3705L57.5258 39.1306L57.1797 39.9155L56.8779 40.7211L56.6219 41.543L56.4133 42.3767L56.253 43.2178L56.1415 44.0614L56.0788 44.903L56.0648 45.7379L56.0988 46.5615L56.1795 47.3692L56.3055 48.1567L56.4749 48.9196L56.6854 49.654L56.9344 50.3559L57.2188 51.0218L57.5355 51.6484L57.8809 52.2326L58.2512 52.7718L58.6423 53.2637L59.05 53.7063L59.47 54.0981L59.8977 54.4379L60.3286 54.725L60.7581 54.9591L61.1815 55.1402L61.5943 55.2688L61.9918 55.3459L62.3697 55.3728L62.7238 55.3512L63.0497 55.2833L63.3438 55.1714L63.6022 55.0184L63.8216 54.8273L63.9989 54.6017L64.1313 54.3452L64.2164 54.0617L64.2521 53.7554L64.2366 53.4305L64.1689 53.0915L64.0478 52.7429L63.873 52.3894L63.6444 52.0354L63.3624 51.6858L63.0276 51.3449L62.6415 51.0173L62.2054 50.7073L61.7214 50.4192L61.1918 50.1569L60.6194 49.9242L60.0071 49.7246L59.3583 49.5614L58.6765 49.4374L57.9657 49.3554L57.23 49.3174L56.4735 49.3255L55.7008 49.381L54.9163 49.485L54.1247 49.6382L53.3306 49.8408L52.5387 50.0927L51.7537 50.3932L50.98 50.7414L50.2222 51.1359L49.4846 51.5749L48.7712 52.0561L48.0861 52.5771L47.4329 53.135L46.815 53.7266L46.2356 54.3483L45.6973 54.9966L45.2028 55.6673L44.7539 56.3563L44.3526 57.0593L43.9999 57.7717L43.6969 58.489L43.444 59.2065L43.2412 59.9197L43.0883 60.6238L42.9844 61.3142L42.9284 61.9865L42.9187 62.6363L42.9532 63.2593L43.0298 63.8516L43.1457 64.4094L43.2979 64.9291L43.483 65.4075L43.6976 65.8416L43.9377 66.229L44.1994 66.5673L44.4783 66.8547L44.7701 67.0897L45.0702 67.2713L45.3742 67.3987L45.6774 67.4719L45.9752 67.4909L46.263 67.4564L46.5363 67.3694L46.7907 67.2312L47.022 67.0437L47.226 66.8091L47.3991 66.5299L47.5374 66.209L47.6377 65.8496L47.697 65.4552L47.7126 65.0295L47.6821 64.5765L47.6035 64.1004L47.4751 63.6055L47.2959 63.0964L47.065 62.5775L46.782 62.0534L46.4469 61.5289L46.0602 61.0086L45.6228 60.4969L45.1359 59.9985L44.6012 59.5176L44.0207 59.0583L43.3969 58.6248L42.7325 58.2207L42.0306 57.8495L41.2947 57.5144L40.5283 57.2183L39.7354 56.9638L38.9202 56.753L38.0869 56.5877L37.24 56.4694L36.384 56.3991L35.5236 56.3773L34.6635 56.4043L33.8082 56.4798L32.9625 56.6032L32.131 56.7734L31.3179 56.989L30.5277 57.2481L29.7644 57.5485L29.032 57.8876L28.3339 58.2625L27.6738 58.6699L27.0545 59.1064L26.4788 59.5681L25.9491 60.0512L25.4674 60.5512L25.0354 61.064L24.6542 61.585L24.3247 62.1097L24.0473 62.6334L23.8219 63.1515L23.6482 63.6593L23.5252 64.1524L23.4519 64.6262L23.4264 65.0765L23.4467 65.499L23.5106 65.8899L23.6151 66.2453L23.7574 66.5619L23.9339 66.8364L24.1411 67.0661L24.375 67.2484L24.6317 67.3812L24.9067 67.4626L25.1958 67.4915L25.4944 67.4667L25.7979 67.3877L26.1017 67.2544L26.4012 67.067L26.6918 66.8263L26.9691 66.5334L27.2286 66.1898L27.4662 65.7973L27.6778 65.3582L27.8596 64.8753L28.008 64.3513L28.1198 63.7897L28.192 63.1939L28.2219 62.5678L28.2073 61.9154L28.1462 61.241L28.0371 60.5489L27.8789 59.8436L27.6708 59.1298L27.4125 58.412L27.1041 57.695L26.7462 56.9834L26.3397 56.2817L25.8859 55.5945L25.3865 54.926L24.8437 54.2804L24.26 53.6617L23.6382 53.0735L22.9814 52.5194L22.2931 52.0026L21.5769 51.5258L20.8369 51.0915L20.0772 50.7019L19.3021 50.3587L18.5161 50.0633L17.7238 49.8167L16.9298 49.6194L16.1387 49.4715L15.3552 49.3727L14.584 49.3224L13.8296 49.3193L13.0963 49.3621L12.3884 49.4487L11.71 49.577L11.065 49.7443L10.4568 49.9476L9.88878 50.1836L9.36397 50.4489L8.88501 50.7396L8.4542 51.0516L8.07347 51.3808L7.74436 51.7229L7.46802 52.0733L7.24517 52.4274L7.07614 52.7806L6.96082 53.1284L6.89869 53.4661L6.88883 53.7892L6.92989 54.0933L7.02015 54.3741L7.15749 54.6274L7.33944 54.8495L7.56319 55.0366L7.82559 55.1854L8.12323 55.2927L8.4524 55.3558L8.80917 55.3723L9.18941 55.3401L9.58881 55.2575L10.0029 55.1233L10.4272 54.9365L10.8571 54.6968L11.2879 54.404L11.715 54.0586L12.1339 53.6613L12.54 53.2133L12.9291 52.7162L13.2968 52.1721L13.6393 51.5832L13.9527 50.9523L14.2335 50.2824L14.4785 49.5768L14.6847 48.8392L14.8496 48.0734L14.9708 47.2835L15.0466 46.4739L15.0754 45.6489L15.0563 44.8131L14.9884 43.971L14.8716 43.1274L14.7061 42.287L14.4923 41.4543L14.2314 40.6339L13.9248 39.8303L13.5741 39.0479L13.1816 38.2907L12.7498 37.5626L12.2817 36.8674L11.7803 36.2085L11.2491 35.589L10.692 35.0116L10.1128 34.4789L9.51575 33.9928L8.90521 33.5551L8.28564 33.1672L7.6616 32.8297L7.03772 32.5434L6.41866 32.3081L5.80905 32.1236L5.21346 31.989L4.63638 31.9032L4.08219 31.8647L3.55507 31.8714L3.05903 31.921L2.59784 32.0108L2.17502 32.1379L1.7938 32.2988L1.45709 32.4901L1.16746 32.7078L0.927131 32.948L0.737947 33.2063L0.60136 33.4785L0.518414 33.76L0.489746 34.0461L0.515577 34.3324L0.595708 34.6143L0.729525 34.887L0.916001 35.1462L1.15371 35.3874L1.44082 35.6064L1.77514 35.7992L2.15411 35.9618L2.57484 36.0907L3.03411 36.1825L3.52843 36.2343L4.05403 36.2433L4.60692 36.2072L5.18291 36.1239L5.77764 35.9919L6.38664 35.81L7.00532 35.5774L7.62906 35.2937L8.25321 34.9589L8.87313 34.5735L9.48425 34.1384L10.0821 33.6548L10.6623 33.1245L11.2207 32.5494L11.7533 31.932L12.2563 31.275L12.7263 30.5817L13.1601 29.8552L13.5547 29.0994L13.9076 28.3182L14.2166 27.5156L14.4799 26.696L14.6961 25.8639L14.8642 25.0237L14.9835 24.1802L15.0539 23.3379L15.0756 22.5016L15.0493 21.676L14.9759 20.8654L14.857 20.0744L14.6944 19.3073L14.4902 18.5681L14.2472 17.8608L13.9682 17.1889L13.6564 16.5559L13.3153 15.9647L12.9488 15.4182L12.5607 14.9186L12.1554 14.4681L11.737 14.0681L11.3102 13.7199L10.8795 13.4244L10.4495 13.1819L10.0248 12.9924L9.61005 12.8554L9.20978 12.7702L8.82843 12.7354L8.47033 12.7494L8.13963 12.8101L7.84025 12.9152L7.57593 13.0619L7.35009 13.2471L7.16589 13.4674L7.02616 13.7193L6.9334 13.9987L6.88973 14.3017L6.8969 14.6239L6.95628 14.961L7.06881 15.3083L7.23504 15.6614L7.45509 16.0156L7.72866 16.3663L8.05504 16.7088L8.43312 17.0389L8.86137 17.3519L9.33787 17.6438L9.86036 17.9105L10.4262 18.1481L11.0323 18.3532L11.6756 18.5224L12.3523 18.6528L13.0588 18.7417L13.7908 18.7868L14.5443 18.7862L15.3147 18.7383L16.0977 18.6421L16.8884 18.4968L17.6824 18.302L18.475 18.058L19.2614 17.7651L20.0372 17.4244L20.7978 17.0372L21.5389 16.6052L22.2564 16.1305L22.9463 15.6156L23.6048 15.0634L24.2286 14.477L24.8143 13.8598L25.3593 13.2155L25.861 12.5481L26.3172 11.8617L26.7262 11.1607L27.0867 10.4494L27.3977 9.73261L27.6586 9.01479L27.8693 8.30064L28.0301 7.59481L28.1417 6.9019L28.2053 6.22642L28.2223 5.57278L28.1946 4.9452L28.1246 4.34775L28.0148 3.78425L27.8681 3.25826L27.688 2.77308L27.4779 2.33168L27.2415 1.93672L26.983 1.59047L26.7066 1.29486L26.4166 1.05143L26.1174 0.861283L25.8137 0.725153L25.5101 0.643338L25.2112 0.615723L24.9215 0.641774L24.6456 0.720545L24.3879 0.850684L24.1526 1.03045L23.944 1.25771L23.7657 1.52999L23.6217 1.84445L23.515 2.19795L23.449 2.58704L23.4263 3.00801L23.4494 3.45692L23.5202 3.92963L23.6405 4.42181L23.8116 4.929L24.0342 5.44667L24.3089 5.97019L24.6357 6.49492L25.0143 7.01624L25.4437 7.52957L25.9228 8.03042L26.45 8.51442L27.0234 8.97737L27.6405 9.41526L28.2986 9.8243L28.9947 10.201L29.7255 10.542L30.4873 10.8445L31.2762 11.1058L32.0881 11.3237L32.9189 11.4963L33.7639 11.6221L34.6187 11.7002L35.4787 11.7297L36.3392 11.7105L37.1956 11.6426L38.0431 11.5268L38.8772 11.364L39.6935 11.1555L40.4876 10.9032L41.2555 10.6092L41.9931 10.2761L42.6968 9.90672L43.3632 9.50424L43.9892 9.07214L44.572 8.61416L45.1092 8.13426L45.5986 7.63661L46.0387 7.12555L46.428 6.60554L46.7658 6.08115L47.0515 5.55698L47.2852 5.0377L47.4671 4.5279L47.598 4.03218L47.6792 3.55499L47.7122 3.1007L47.699 2.67348L47.6419 2.27734L47.5436 1.91602L47.4071 1.59304L47.2359 1.3116L47.0333 1.0746L46.8034 0.884608L46.55 0.743821L46.2776 0.654067L45.9905 0.616782L45.6931 0.632996L45.3901 0.703333L45.086 0.827995L44.7855 1.00677L44.4932 1.23902L44.2135 1.52372L43.9509 1.85941L43.7095 2.24425L43.4935 2.67605L43.3067 3.15221L43.1528 3.66984L43.0349 4.2257L42.9562 4.81629L42.9194 5.43783L42.9268 6.08631L42.9803 6.75753L43.0817 7.44713L43.2321 8.15062L43.4322 8.86339L43.6825 9.58083L43.9829 10.2983L44.333 11.011L44.7318 11.7146L45.1782 12.4044L45.6705 13.0762L46.2065 13.7257L46.7839 14.349L47.3998 14.9422L48.0513 15.5019L48.7348 16.0249L49.4468 16.5083L50.1833 16.9495L50.9401 17.3464L51.7131 17.697L52.4976 18.0001L53.2893 18.2545L54.0833 18.4597L54.8752 18.6155L55.6602 18.7221L56.4336 18.78L57.191 18.7905L57.928 18.7549L58.6402 18.6751L59.3235 18.5533L59.9742 18.3921L60.5885 18.1943L61.1631 17.9633L61.6949 17.7024L62.1814 17.4155L62.62 17.1066L63.0088 16.7798L63.3462 16.4395L63.631 16.0901L63.8624 15.7363L64.04 15.3826L64.1639 15.0337L64.2344 14.6941L64.2525 14.3683L64.2195 14.0609L64.1369 13.7762L64.0069 13.5181L63.8319 13.2908L63.6146 13.0979L63.3581 12.9428L63.0659 12.8287L62.7415 12.7584L62.3888 12.7343L62.012 12.7587L61.6154 12.8331L61.2033 12.9591L60.7803 13.1374L60.3511 13.3687L59.9201 13.6531L59.4921 13.9902L59.0716 14.3793L58.6631 14.8193L58.2711 15.3086L57.8996 15.8454L57.5529 16.4274L57.2346 17.0518L56.9483 17.7157L56.6975 18.4158L56.4849 19.1486L56.3133 19.9102L56.185 20.6964L56.1018 21.5032L56.0654 22.3261L56.0769 23.1605L56.137 24.0019L56.246 24.8455L56.4038 25.6868L56.6099 26.521L56.8634 27.3437L57.1629 28.1502L57.5067 28.9363L57.8927 29.6978L58.3184 30.4308L58.7809 31.1314L59.2773 31.7963L59.8039 32.4223L60.3572 33.0066L60.9331 33.5466L61.5276 34.0402L62.1363 34.4857L62.7547 34.8816L63.3784 35.2272L64.0026 35.5217L64.6227 35.7651L65.2342 35.9577L65.8323 36.1001L66.4126 36.1935L66.9707 36.2395L67.5024 36.2399L68.0037 36.1969L68.4707 36.1133L68.8998 35.992L69.2879 35.8362L69.6319 35.6495L69.9291 35.4357L70.1774 35.1988L70.3749 34.9431L70.5199 34.6728L70.6115 34.3925L70.6488 34.1068" stroke="#FFC700" stroke-width="0.8"/>
</svg>
