<svg width="139" height="140" viewBox="0 0 139 140" fill="none" xmlns="http://www.w3.org/2000/svg">
<path d="M80.6767 70.2324L80.6786 71.108L80.6841 71.9835L80.6932 72.8586L80.706 73.7333L80.7225 74.6073L80.7426 75.4805L80.7663 76.3527L80.7936 77.2238L80.8246 78.0936L80.8592 78.962L80.8973 79.8287L80.939 80.6936L80.9843 81.5566L81.0331 82.4176L81.0854 83.2762L81.1412 84.1325L81.2005 84.9862L81.2631 85.8372L81.3293 86.6852L81.3987 87.5303L81.4716 88.3721L81.5478 89.2106L81.6272 90.0456L81.7099 90.877L81.7958 91.7045L81.8849 92.5281L81.9772 93.3475L82.0726 94.1627L82.171 94.9735L82.2724 95.7797L82.3768 96.5812L82.4842 97.3779L82.5944 98.1696L82.7075 98.9561L82.8233 99.7374L82.9419 100.513L83.0632 101.283L83.1871 102.048L83.3136 102.807L83.4426 103.56L83.574 104.306L83.7079 105.047L83.8441 105.781L83.9826 106.508L84.1233 107.229L84.2662 107.943L84.4112 108.65L84.5582 109.35L84.7072 110.043L84.8581 110.729L85.0108 111.407L85.1653 112.078L85.3214 112.741L85.4792 113.397L85.6385 114.044L85.7993 114.684L85.9616 115.316L86.1251 115.939L86.2899 116.554L86.4559 117.161L86.6229 117.759L86.791 118.349L86.96 118.929L87.1299 119.501L87.3006 120.065L87.472 120.619L87.6439 121.164L87.8165 121.7L87.9894 122.226L88.1628 122.743L88.3364 123.251L88.5102 123.749L88.6842 124.238L88.8581 124.717L89.0321 125.186L89.2058 125.646L89.3794 126.095L89.5526 126.535L89.7254 126.964L89.8978 127.383L90.0695 127.792L90.2406 128.191L90.4109 128.58L90.5804 128.958L90.7489 129.326L90.9164 129.683L91.0828 130.03L91.2479 130.367L91.4118 130.692L91.5743 131.007L91.7353 131.312L91.8948 131.605L92.0525 131.888L92.2086 132.16L92.3628 132.421L92.5151 132.672L92.6653 132.911L92.8135 133.14L92.9594 133.357L93.1031 133.564L93.2444 133.76L93.3832 133.944L93.5195 134.118L93.6532 134.28L93.7841 134.432L93.9122 134.572L94.0374 134.702L94.1596 134.82L94.2788 134.927L94.3948 135.024L94.5075 135.109L94.6169 135.183L94.7229 135.246L94.8255 135.298L94.9244 135.339L95.0197 135.369L95.1112 135.388L95.1989 135.396L95.2828 135.394L95.3626 135.38L95.4384 135.355L95.51 135.32L95.5775 135.273L95.6406 135.216L95.6994 135.148L95.7538 135.07L95.8036 134.98L95.8489 134.88L95.8895 134.77L95.9254 134.649L95.9565 134.517L95.9828 134.375L96.0041 134.223L96.0204 134.06L96.0317 133.887L96.0379 133.703L96.0389 133.51L96.0346 133.306L96.025 133.093L96.0101 132.869L95.9898 132.635L95.964 132.392L95.9326 132.139L95.8957 131.876L95.8532 131.603L95.8049 131.321L95.7509 131.029L95.6912 130.729L95.6256 130.418L95.5542 130.099L95.4768 129.77L95.3934 129.433L95.3041 129.086L95.2087 128.731L95.1073 128.366L94.9997 127.993L94.886 127.612L94.7662 127.222L94.6401 126.824L94.5077 126.417L94.3691 126.002L94.2242 125.579L94.073 125.149L93.9154 124.71L93.7515 124.263L93.5812 123.809L93.4045 123.348L93.2213 122.879L93.0317 122.402L92.8357 121.919L92.6332 121.428L92.4243 120.931L92.2088 120.426L91.9869 119.915L91.7585 119.397L91.5236 118.873L91.2822 118.343L91.0344 117.806L90.78 117.263L90.5191 116.714L90.2518 116.159L89.978 115.599L89.6978 115.033L89.4111 114.461L89.1179 113.885L88.8184 113.302L88.5124 112.715L88.2 112.123L87.8813 111.526L87.5563 110.925L87.2249 110.319L86.8873 109.708L86.5434 109.094L86.1932 108.475L85.8369 107.852L85.4744 107.225L85.1057 106.594L84.731 105.96L84.3502 105.323L83.9634 104.682L83.5706 104.038L83.1719 103.391L82.7673 102.741L82.3569 102.088L81.9407 101.433L81.5187 100.775L81.0911 100.115L80.6578 99.4527L80.219 98.7884L79.7747 98.122L79.3249 97.4539L78.8697 96.7842L78.4092 96.113L77.9435 95.4404L77.4725 94.7666L76.9964 94.0917L76.5153 93.4158L76.0292 92.7392L75.5382 92.0619L75.0423 91.384L74.5417 90.7058L74.0364 90.0272L73.5265 89.3486L73.012 88.67L72.4932 87.9915L71.97 87.3134L71.4425 86.6356L70.9108 85.9584L70.3751 85.2819L69.8353 84.6062L69.2917 83.9314L68.7442 83.2577L68.193 82.5853L67.6382 81.9142L67.0798 81.2445L66.518 80.5765L65.9529 79.9101L65.3846 79.2457L64.8131 78.5832L64.2386 77.9228L63.6612 77.2646L63.081 76.6088L62.4981 75.9555L61.9126 75.3047L61.3246 74.6566L60.7342 74.0114L60.1415 73.3691L59.5467 72.7299L58.9499 72.0939L58.3512 71.4611L57.7506 70.8318L57.1483 70.2059L56.5445 69.5837L55.9393 68.9652L55.3326 68.3506L54.7248 67.7399L54.1159 67.1332L53.506 66.5307L52.8953 65.9325L52.2838 65.3386L51.6718 64.7491L51.0593 64.1642L50.4464 63.584L49.8333 63.0085L49.2201 62.4378L48.6069 61.8721L47.9939 61.3114L47.3812 60.7558L46.7689 60.2053L46.1572 59.6602L45.5461 59.1204L44.9358 58.586L44.3265 58.0572L43.7182 57.534L43.1112 57.0164L42.5054 56.5046L41.9012 55.9987L41.2985 55.4986L40.6975 55.0045L40.0984 54.5164L39.5013 54.0345L38.9063 53.5587L38.3136 53.0891L37.7233 52.6258L37.1354 52.1689L36.5503 51.7184L35.9679 51.2744L35.3884 50.8368L34.812 50.4059L34.2388 49.9815L33.6688 49.5639L33.1024 49.1529L32.5395 48.7487L31.9803 48.3513L31.4249 47.9608L30.8735 47.5771L30.3262 47.2004L29.7831 46.8306L29.2444 46.4678L28.7101 46.1121L28.1805 45.7633L27.6556 45.4217L27.1355 45.0872L26.6205 44.7598L26.1105 44.4395L25.6058 44.1264L25.1065 43.8205L24.6126 43.5218L24.1244 43.2304L23.6419 42.9461L23.1652 42.6691L22.6945 42.3994L22.2299 42.1369L21.7715 41.8817L21.3194 41.6337L20.8738 41.3931L20.4347 41.1596L20.0023 40.9335L19.5767 40.7146L19.1579 40.503L18.7462 40.2986L18.3415 40.1015L17.9441 39.9115L17.554 39.7288L17.1714 39.5533L16.7963 39.385L16.4288 39.2238L16.0691 39.0698L15.7172 38.9229L15.3732 38.7831L15.0373 38.6504L14.7096 38.5247L14.39 38.4061L14.0788 38.2944L13.776 38.1896L13.4817 38.0918L13.196 38.0009L12.9189 37.9168L12.6507 37.8395L12.3913 37.769L12.1408 37.7052L11.8993 37.6481L11.6669 37.5977L11.4437 37.5538L11.2297 37.5164L11.0251 37.4856L10.8298 37.4612L10.644 37.4431L10.4677 37.4314L10.301 37.426L10.1439 37.4268L9.99656 37.4338L9.859 37.4468L9.73128 37.4659L9.61345 37.491L9.50556 37.522L9.40767 37.5589L9.31983 37.6015L9.24209 37.6499L9.17449 37.7039L9.11708 37.7635L9.06991 37.8286L9.033 37.8991L9.00641 37.975L8.99016 38.0562L8.98429 38.1426L8.98884 38.2341L9.00382 38.3307L9.02928 38.4323L9.06523 38.5388L9.1117 38.6501L9.16871 38.7661L9.23629 38.8868L9.31443 39.0121L9.40317 39.1419L9.50251 39.2761L9.61247 39.4146L9.73305 39.5574L9.86425 39.7043L10.0061 39.8553L10.1586 40.0102L10.3217 40.1691L10.4954 40.3317L10.6797 40.498L10.8747 40.668L11.0803 40.8415L11.2965 41.0184L11.5232 41.1987L11.7605 41.3823L12.0084 41.569L12.2668 41.7587L12.5357 41.9515L12.815 42.1471L13.1048 42.3455L13.4051 42.5466L13.7157 42.7503L14.0366 42.9565L14.3679 43.1651L14.7095 43.376L15.0613 43.5891L15.4232 43.8044L15.7954 44.0216L16.1776 44.2409L16.5699 44.4619L16.9721 44.6847L17.3844 44.9091L17.8065 45.1351L18.2384 45.3625L18.6801 45.5913L19.1315 45.8214L19.5925 46.0526L20.0631 46.2849L20.5432 46.5181L21.0328 46.7523L21.5317 46.9872L22.0398 47.2229L22.5572 47.4591L23.0837 47.6959L23.6193 47.9331L24.1638 48.1706L24.7172 48.4084L25.2794 48.6463L25.8503 48.8842L26.4298 49.1221L27.0178 49.3599L27.6142 49.5975L28.2189 49.8347L28.8319 50.0716L29.453 50.308L30.0821 50.5439L30.7191 50.7791L31.364 51.0135L32.0165 51.2472L32.6766 51.4799L33.3443 51.7117L34.0192 51.9424L34.7015 52.1719L35.3908 52.4003L36.0872 52.6273L36.7905 52.8529L37.5006 53.0771L38.2173 53.2997L38.9406 53.5208L39.6703 53.7401L40.4062 53.9577L41.1483 54.1735L41.8964 54.3873L42.6505 54.5992L43.4102 54.8091L44.1756 55.0168L44.9465 55.2224L45.7227 55.4257L46.5042 55.6267L47.2907 55.8254L48.0821 56.0216L48.8784 56.2153L49.6793 56.4065L50.4847 56.5951L51.2944 56.781L52.1084 56.9642L52.9265 57.1447L53.7485 57.3223L54.5742 57.497L55.4036 57.6688L56.2364 57.8376L57.0726 58.0034L57.9119 58.1661L58.7543 58.3257L59.5995 58.4822L60.4474 58.6354L61.2979 58.7854L62.1508 58.9322L63.0059 59.0756L63.8631 59.2156L64.7223 59.3523L65.5832 59.4856L66.4457 59.6154L67.3096 59.7417L68.1749 59.8645L69.0413 59.9838L69.9087 60.0996L70.7769 60.2117L71.6457 60.3202L72.5151 60.4251L73.3847 60.5264L74.2546 60.6239L75.1244 60.7179L75.9941 60.8081L76.8635 60.8946L77.7324 60.9773L78.6007 61.0564L79.4682 61.1317L80.3347 61.2033L81.2001 61.2711L82.0642 61.3351L82.9269 61.3954L83.788 61.452L84.6473 61.5048L85.5047 61.5538L86.36 61.5991L87.2131 61.6406L88.0637 61.6784L88.9119 61.7125L89.7573 61.7428L90.5998 61.7695L91.4393 61.7925L92.2756 61.8117L93.1085 61.8274L93.938 61.8393L94.7638 61.8477L95.5858 61.8524L96.4039 61.8536L97.2178 61.8512L98.0275 61.8453L98.8327 61.8359L99.6334 61.823L100.429 61.8067L101.221 61.7869L102.007 61.7638L102.788 61.7374L103.563 61.7076L104.333 61.6745L105.098 61.6382L105.857 61.5987L106.61 61.5561L107.357 61.5103L108.098 61.4615L108.833 61.4097L109.561 61.3549L110.282 61.2971L110.997 61.2365L111.705 61.173L112.407 61.1068L113.101 61.0378L113.788 60.9662L114.467 60.8919L115.139 60.8151L115.804 60.7358L116.461 60.654L117.11 60.5699L117.751 60.4834L118.384 60.3947L119.009 60.3037L119.626 60.2106L120.234 60.1155L120.834 60.0184L121.425 59.9193L122.007 59.8183L122.581 59.7156L123.145 59.6111L123.701 59.5049L124.248 59.3972L124.785 59.2879L125.313 59.1772L125.832 59.0651L126.341 58.9518L126.84 58.8372L127.33 58.7214L127.81 58.6046L128.281 58.4868L128.741 58.3681L129.191 58.2486L129.632 58.1283L130.062 58.0073L130.482 57.8857L130.891 57.7636L131.291 57.6411L131.68 57.5183L132.058 57.3951L132.426 57.2718L132.783 57.1484L133.129 57.0249L133.465 56.9016L133.79 56.7784L134.104 56.6554L134.408 56.5327L134.7 56.4105L134.982 56.2887L135.252 56.1675L135.511 56.047L135.76 55.9272L135.997 55.8082L136.223 55.6902L136.438 55.5732L136.641 55.4572L136.834 55.3424L137.015 55.2289L137.185 55.1168L137.343 55.0061L137.49 54.8969L137.626 54.7893L137.751 54.6834L137.864 54.5792L137.966 54.4769L138.056 54.3766L138.135 54.2783L138.203 54.1821L138.259 54.0881L138.304 53.9964L138.338 53.9071L138.36 53.8202L138.371 53.7358L138.371 53.654L138.359 53.5749L138.336 53.4986L138.302 53.4251L138.256 53.3546L138.2 53.2871L138.132 53.2226L138.053 53.1613L137.962 53.1033L137.861 53.0485L137.749 52.9972L137.626 52.9493L137.491 52.905L137.346 52.8643L137.19 52.8272L137.023 52.7939L136.845 52.7645L136.656 52.7389L136.457 52.7173L136.247 52.6997L136.027 52.6862L135.796 52.6769L135.554 52.6718L135.303 52.671L135.04 52.6746L134.768 52.6825L134.485 52.695L134.193 52.7119L133.89 52.7335L133.577 52.7597L133.255 52.7906L132.922 52.8262L132.58 52.8667L132.228 52.912L131.867 52.9623L131.496 53.0175L131.116 53.0777L130.727 53.1429L130.328 53.2133L129.92 53.2888L129.504 53.3695L129.078 53.4554L128.644 53.5465L128.201 53.643L127.749 53.7448L127.289 53.852L126.82 53.9646L126.343 54.0826L125.858 54.2061L125.365 54.3351L124.864 54.4697L124.355 54.6097L123.838 54.7554L123.314 54.9067L122.782 55.0635L122.243 55.226L121.697 55.3942L121.143 55.5681L120.583 55.7476L120.015 55.9328L119.441 56.1238L118.86 56.3205L118.273 56.5229L117.679 56.731L117.079 56.9449L116.473 57.1645L115.861 57.3899L115.243 57.621L114.62 57.8578L113.991 58.1004L113.356 58.3487L112.716 58.6028L112.071 58.8626L111.421 59.128L110.766 59.3992L110.106 59.676L109.442 59.9585L108.773 60.2467L108.099 60.5404L107.422 60.8398L106.74 61.1448L106.055 61.4553L105.366 61.7713L104.673 62.0929L103.977 62.4199L103.277 62.7523L102.574 63.0902L101.868 63.4334L101.159 63.7819L100.448 64.1358L99.7336 64.4949L99.0169 64.8592L98.2979 65.2286L97.5767 65.6032L96.8535 65.9829L96.1284 66.3676L95.4016 66.7573L94.6732 67.1518L93.9433 67.5513L93.2121 67.9556L92.4798 68.3646L91.7464 68.7783L91.0122 69.1967L90.2773 69.6196L89.5417 70.047L88.8058 70.4789L88.0695 70.9152L87.3332 71.3557L86.5968 71.8005L85.8605 72.2495L85.1246 72.7026L84.389 73.1597L83.6541 73.6207L82.9198 74.0856L82.1864 74.5543L81.454 75.0267L80.7227 75.5027L79.9927 75.9822L79.2641 76.4652L78.537 76.9516L77.8116 77.4413L77.088 77.9341L76.3664 78.4301L75.6469 78.929L74.9295 79.4309L74.2145 79.9357L73.502 80.4431L72.7921 80.9532L72.085 81.4658L71.3807 81.9808L70.6794 82.4982L69.9812 83.0179L69.2863 83.5396L68.5947 84.0634L67.9066 84.5891L67.2221 85.1166L66.5414 85.6459L65.8645 86.1767L65.1916 86.7091L64.5227 87.2428L63.8581 87.7779L63.1977 88.314L62.5418 88.8513L61.8905 89.3895L61.2437 89.9285L60.6018 90.4682L59.9647 91.0086L59.3325 91.5494L58.7054 92.0905L58.0835 92.632L57.4669 93.1735L56.8556 93.7151L56.2498 94.2566L55.6496 94.7978L55.055 95.3387L54.4662 95.8792L53.8832 96.419L53.3062 96.9581L52.7352 97.4964L52.1702 98.0338L51.6115 98.5701L51.0591 99.1051L50.5129 99.6389L49.9733 100.171L49.4401 100.702L48.9135 101.231L48.3936 101.758L47.8804 102.283L47.374 102.807L46.8745 103.328L46.3819 103.846L45.8963 104.363L45.4178 104.876L44.9464 105.387L44.4822 105.895L44.0252 106.401L43.5755 106.903L43.1332 107.402L42.6983 107.897L42.2708 108.39L41.8508 108.878L41.4383 109.363L41.0335 109.844L40.6362 110.321L40.2466 110.795L39.8648 111.264L39.4906 111.728L39.1243 112.189L38.7657 112.644L38.415 113.095L38.0721 113.542L37.7371 113.983L37.4101 114.42L37.0909 114.851L36.7798 115.277L36.4766 115.697L36.1813 116.113L35.8941 116.522L35.6149 116.926L35.3437 117.324L35.0806 117.716L34.8255 118.102L34.5784 118.482L34.3394 118.856L34.1084 119.223L33.8855 119.584L33.6706 119.938L33.4637 120.286L33.2649 120.626L33.0741 120.96L32.8912 121.287L32.7164 121.607L32.5496 121.92L32.3907 122.225L32.2398 122.523L32.0968 122.813L31.9616 123.096L31.8344 123.371L31.715 123.638L31.6035 123.898L31.4997 124.15L31.4037 124.393L31.3154 124.629L31.2348 124.856L31.1619 125.075L31.0966 125.286L31.0388 125.488L30.9887 125.681L30.946 125.866L30.9107 126.043L30.8829 126.211L30.8624 126.369L30.8492 126.519L30.8432 126.66L30.8445 126.792L30.8529 126.915L30.8684 127.029L30.891 127.134L30.9205 127.229L30.9569 127.315L31.0002 127.392L31.0502 127.459L31.107 127.517L31.1704 127.565L31.2405 127.604L31.317 127.633L31.4 127.652L31.4894 127.662L31.5851 127.661L31.687 127.652L31.7951 127.632L31.9092 127.602L32.0294 127.563L32.1555 127.514L32.2874 127.454L32.4251 127.385L32.5685 127.306L32.7174 127.217L32.8719 127.117L33.0319 127.008L33.1971 126.889L33.3677 126.759L33.5433 126.62L33.7241 126.47L33.9099 126.31L34.1006 126.141L34.2961 125.961L34.4963 125.771L34.7011 125.571L34.9105 125.36L35.1243 125.14L35.3424 124.91L35.5648 124.669L35.7913 124.419L36.0219 124.158L36.2565 123.888L36.4949 123.607L36.7371 123.316L36.983 123.016L37.2324 122.706L37.4853 122.385L37.7415 122.055L38.0011 121.715L38.2637 121.365L38.5295 121.005L38.7982 120.636L39.0698 120.257L39.3441 119.868L39.6211 119.47L39.9007 119.062L40.1827 118.645L40.4671 118.218L40.7537 117.782L41.0425 117.336L41.3333 116.882L41.6261 116.418L41.9207 115.944L42.217 115.462L42.515 114.971L42.8146 114.471L43.1155 113.962L43.4178 113.444L43.7214 112.917L44.0261 112.382L44.3318 111.838L44.6384 111.286L44.9459 110.725L45.2541 110.156L45.563 109.579L45.8724 108.993L46.1822 108.4L46.4924 107.798L46.8028 107.189L47.1134 106.572L47.424 105.947L47.7346 105.314L48.045 104.675L48.3552 104.027L48.6651 103.373L48.9746 102.711L49.2835 102.042L49.5919 101.367L49.8995 100.684L50.2064 99.9951L50.5124 99.2993L50.8174 98.597L51.1214 97.8884L51.4243 97.1735L51.7259 96.4524L52.0263 95.7254L52.3252 94.9925L52.6227 94.2538L52.9186 93.5096L53.2129 92.7598L53.5055 92.0047L53.7963 91.2443L54.0852 90.4788L54.3722 89.7084L54.6571 88.9331L54.94 88.1531L55.2207 87.3686L55.4991 86.5796L55.7753 85.7864L56.049 84.9891L56.3204 84.1877L56.5891 83.3825L56.8554 82.5736L57.1189 81.7611L57.3798 80.9452L57.6379 80.126L57.8932 79.3037L58.1455 78.4784L58.395 77.6503L58.6414 76.8196L58.8848 75.9863L59.125 75.1506L59.3621 74.3127L59.596 73.4728L59.8266 72.6309L60.0539 71.7873L60.2778 70.9421L60.4983 70.0954L60.7154 69.2474L60.929 68.3983L61.1391 67.5483L61.3456 66.6974L61.5485 65.8458L61.7477 64.9938L61.9433 64.1414L62.1352 63.2888L62.3233 62.4361L62.5076 61.5836L62.6882 60.7314L62.8649 59.8797L63.0378 59.0285L63.2068 58.1782L63.3719 57.3287L63.5331 56.4803L63.6903 55.6332L63.8436 54.7875L63.993 53.9433L64.1383 53.1009L64.2797 52.2603L64.417 51.4218L64.5503 50.5855L64.6796 49.7516L64.8049 48.9201L64.9262 48.0913L65.0434 47.2654L65.1566 46.4424L65.2657 45.6226L65.3708 44.8061L65.4719 43.993L65.5689 43.1835L65.6619 42.3778L65.7509 41.576L65.8359 40.7782L65.9169 39.9847L65.994 39.1955L66.067 38.4109L66.1362 37.6309L66.2014 36.8557L66.2626 36.0855L66.32 35.3204L66.3735 34.5605L66.4232 33.8061L66.4691 33.0572L66.5111 32.3139L66.5494 31.5765L66.584 30.8451L66.6148 30.1198L66.642 29.4007L66.6655 28.688L66.6854 27.9818L66.7017 27.2823L66.7146 26.5895L66.7239 25.9037L66.7297 25.2249L66.7322 24.5533L66.7313 23.889L66.727 23.2321L66.7195 22.5827L66.7088 21.9411L66.6948 21.3073L66.6778 20.6813L66.6576 20.0635L66.6344 19.4537L66.6083 18.8523L66.5792 18.2592L66.5472 17.6746L66.5125 17.0987L66.4749 16.5314L66.4347 15.973L66.3919 15.4235L66.3464 14.8831L66.2985 14.3518L66.2481 13.8297L66.1953 13.3169L66.1402 12.8136L66.0828 12.3198L66.0232 11.8357L65.9615 11.3612L65.8978 10.8965L65.8321 10.4417L65.7644 9.9969L65.6949 9.56213L65.6237 9.13748L65.5507 8.72304L65.4761 8.31889L65.4 7.92509L65.3224 7.54173L65.2433 7.16887L65.163 6.80657L65.0814 6.45491L64.9986 6.11394L64.9147 5.78374L64.8298 5.46435L64.744 5.15583L64.6573 4.85825L64.5698 4.57165L64.4816 4.29608L64.3928 4.03159L64.3035 3.77823L64.2137 3.53604L64.1235 3.30506L64.033 3.08533L63.9423 2.87689L63.8515 2.67977L63.7606 2.494L63.6698 2.31962L63.5791 2.15664L63.4886 2.0051L63.3983 1.86502L63.3085 1.73642L63.2191 1.61932L63.1302 1.51373L63.0419 1.41966L62.9543 1.33714L62.8675 1.26616L62.7816 1.20673L62.6966 1.15886L62.6127 1.12254L62.5299 1.09779L62.4483 1.08458L62.3679 1.08293L62.2889 1.09283L62.2114 1.11425L62.1354 1.14719L62.061 1.19164L61.9882 1.24757L61.9173 1.31497L61.8482 1.39382L61.781 1.48409L61.7158 1.58576L61.6527 1.6988L61.5918 1.82318L61.5331 1.95886L61.4768 2.1058L61.4228 2.26398L61.3713 2.43335L61.3224 2.61387L61.2761 2.80549L61.2324 3.00818L61.1916 3.22187L61.1535 3.44652L61.1184 3.68207L61.0863 3.92847L61.0572 4.18567L61.0313 4.4536L61.0085 4.7322L60.989 5.0214L60.9728 5.32115L60.96 5.63137L60.9507 5.95199L60.9449 6.28294L60.9427 6.62415L60.9441 6.97554L60.9492 7.33703L60.9581 7.70854L60.9708 8.08999L60.9873 8.48129L61.0079 8.88236L61.0324 9.29311L61.0609 9.71346L61.0936 10.1433L61.1304 10.5826L61.1713 11.0311L61.2166 11.4889L61.2661 11.9558L61.32 12.4317L61.3783 12.9165L61.441 13.4101L61.5081 13.9124L61.5798 14.4234L61.6561 14.9428L61.7369 15.4705L61.8223 16.0066L61.9125 16.5508L62.0073 17.103L62.1068 17.6631L62.2112 18.2311L62.3203 18.8067L62.4342 19.3899L62.553 19.9805L62.6767 20.5784L62.8052 21.1835L62.9387 21.7957L63.0771 22.4148L63.2205 23.0408L63.3688 23.6733L63.5222 24.3125L63.6805 24.958L63.8439 25.6099L64.0123 26.2678L64.1857 26.9318L64.3642 27.6017L64.5478 28.2773L64.7363 28.9584L64.93 29.6451L65.1287 30.337L65.3325 31.0342L65.5414 31.7364L65.7553 32.4434L65.9742 33.1552L66.1982 33.8716L66.4273 34.5925L66.6613 35.3177L66.9004 36.047L67.1445 36.7804L67.3936 37.5176L67.6476 38.2586L67.9066 39.0032L68.1705 39.7511L68.4393 40.5024L68.713 41.2568L68.9915 42.0141L69.2749 42.7743L69.5631 43.5372L69.8561 44.3026L70.1538 45.0703L70.4562 45.8403L70.7633 46.6124L71.0749 47.3864L71.3912 48.1622L71.7121 48.9395L72.0375 49.7184L72.3673 50.4986L72.7015 51.2799L73.0402 52.0623L73.3831 52.8455L73.7303 53.6294L74.0818 54.4139L74.4374 55.1988L74.7972 55.9839L75.161 56.7692L75.5288 57.5544L75.9005 58.3394L76.2761 59.1241L76.6556 59.9083L77.0388 60.6919L77.4257 61.4747L77.8162 62.2565L78.2102 63.0373L78.6078 63.8168L79.0087 64.595L79.413 65.3717L79.8206 66.1467L80.2314 66.9199L80.6452 67.6912L81.0621 68.4604L81.482 69.2273L81.9047 69.9919L82.3302 70.754L82.7585 71.5134L83.1893 72.2701L83.6227 73.0238L84.0585 73.7745L84.4967 74.522L84.9372 75.2661L85.3799 76.0068L85.8246 76.744L86.2713 77.4774L86.72 78.2069L87.1704 78.9325L87.6226 79.654L88.0763 80.3713L88.5316 81.0842L88.9883 81.7927L89.4463 82.4965L89.9056 83.1957L90.3659 83.89L90.8272 84.5793L91.2895 85.2636L91.7526 85.9427L92.2163 86.6165L92.6806 87.2849L93.1455 87.9478L93.6106 88.6051L94.0761 89.2566L94.5417 89.9023L95.0074 90.5421L95.473 91.1758L95.9384 91.8034L96.4035 92.4247L96.8682 93.0397L97.3324 93.6482L97.796 94.2503L98.2589 94.8457L98.7209 95.4343L99.1819 96.0162L99.6419 96.5912L100.101 97.1593L100.558 97.7202L101.014 98.2741L101.469 98.8207L101.921 99.36L102.372 99.8919L102.822 100.416L103.269 100.933L103.714 101.443L104.156 101.945L104.597 102.439L105.035 102.925L105.47 103.403L105.903 103.874L106.332 104.336L106.759 104.791L107.183 105.237L107.604 105.675L108.021 106.105L108.435 106.527L108.845 106.941L109.252 107.346L109.655 107.743L110.054 108.131L110.449 108.511L110.84 108.883L111.227 109.246L111.609 109.6L111.987 109.946L112.361 110.283L112.729 110.612L113.093 110.932L113.453 111.243L113.807 111.546L114.156 111.84L114.5 112.125L114.838 112.401L115.171 112.669L115.499 112.928L115.821 113.178L116.137 113.419L116.447 113.652L116.751 113.875L117.05 114.09L117.342 114.296L117.628 114.494L117.908 114.682L118.181 114.862L118.447 115.033L118.707 115.195L118.96 115.349L119.207 115.494L119.446 115.63L119.679 115.757L119.904 115.876L120.123 115.986L120.333 116.088L120.537 116.181L120.733 116.265L120.922 116.341L121.103 116.409L121.276 116.468L121.442 116.518L121.6 116.56L121.75 116.594L121.891 116.62L122.025 116.637L122.151 116.646L122.268 116.647L122.378 116.64L122.478 116.625L122.571 116.601L122.655 116.57L122.731 116.531L122.797 116.484L122.856 116.43L122.905 116.367L122.946 116.297L122.978 116.22L123.002 116.134L123.016 116.042L123.021 115.942L123.018 115.834L123.005 115.72L122.983 115.598L122.952 115.469L122.912 115.333L122.863 115.191L122.805 115.041L122.737 114.884L122.66 114.721L122.574 114.551L122.479 114.375L122.374 114.192L122.259 114.003L122.136 113.808L122.002 113.606L121.86 113.398L121.708 113.184L121.547 112.965L121.376 112.739L121.195 112.508L121.005 112.271L120.806 112.028L120.597 111.78L120.379 111.527L120.151 111.268L119.914 111.004L119.667 110.735L119.411 110.461L119.145 110.183L118.87 109.899L118.585 109.611L118.292 109.318L117.988 109.021L117.676 108.719L117.354 108.414L117.022 108.104L116.682 107.79L116.332 107.472L115.973 107.15L115.605 106.824L115.227 106.495L114.841 106.163L114.445 105.827L114.041 105.487L113.627 105.145L113.205 104.799L112.774 104.451L112.333 104.099L111.884 103.745L111.427 103.388L110.961 103.029L110.486 102.667L110.002 102.303L109.51 101.937L109.01 101.568L108.501 101.198L107.984 100.826L107.459 100.452L106.926 100.076L106.385 99.6988L105.835 99.3201L105.278 98.9401L104.713 98.5589L104.14 98.1765L103.56 97.7932L102.972 97.4089L102.377 97.0238L101.774 96.6381L101.164 96.2517L100.547 95.8649L99.9222 95.4777L99.2908 95.0902L98.6526 94.7026L98.0076 94.3149L97.3558 93.9272L96.6975 93.5396L96.0328 93.1524L95.3616 92.7654L94.6842 92.3789L94.0006 91.9929L93.311 91.6076L92.6155 91.223L91.9141 90.8392L91.2071 90.4564L90.4945 90.0745L89.7764 89.6939L89.0531 89.3144L88.3245 88.9362L87.5908 88.5594L86.8522 88.1841L86.1088 87.8103L85.3606 87.4383L84.6079 87.0679L83.8508 86.6995L83.0893 86.3329L82.3237 85.9683L81.554 85.6059L80.7804 85.2456L80.0031 84.8875L79.2222 84.5318L78.4377 84.1785L77.6499 83.8276L76.8589 83.4794L76.0649 83.1338L75.2679 82.7908L74.4681 82.4507L73.6658 82.1134L72.8609 81.779L72.0537 81.4476L71.2443 81.1193L70.4329 80.7941L69.6195 80.4721L68.8044 80.1533L67.9878 79.8379L67.1696 79.5258L66.3502 79.2171L65.5297 78.9119L64.7081 78.6103L63.8857 78.3122L63.0627 78.0178L62.2391 77.7271L61.4151 77.4401L60.5909 77.1569L59.7667 76.8776L58.9425 76.6021L58.1186 76.3305L57.2951 76.063L56.4721 75.7994L55.6498 75.5399L54.8285 75.2844L54.0081 75.0331L53.1889 74.7859L52.3711 74.5429L51.5547 74.3042L50.74 74.0696L49.9271 73.8394L49.1161 73.6134L48.3073 73.3917L47.5007 73.1744L46.6966 72.9615L45.895 72.7529L45.0962 72.5487L44.3003 72.3489L43.5074 72.1536L42.7177 71.9627L41.9313 71.7763L41.1485 71.5943L40.3693 71.4168L39.5939 71.2437L38.8225 71.0752L38.0552 70.9111L37.2921 70.7515L36.5334 70.5964L35.7793 70.4458L35.0299 70.2996L34.2854 70.1579L33.5458 70.0207L32.8114 69.8879L32.0822 69.7596L31.3585 69.6357L30.6404 69.5163L29.9279 69.4012L29.2214 69.2905L28.5208 69.1842L27.8263 69.0823L27.1381 68.9847L26.4563 68.8914L25.781 68.8024L25.1124 68.7176L24.4506 68.6371L23.7958 68.5608L23.148 68.4886L22.5074 68.4206L21.8741 68.3567L21.2482 68.2969L20.63 68.2412L20.0194 68.1894L19.4166 68.1416L18.8218 68.0977L18.235 68.0578L17.6564 68.0216L17.0861 67.9893L16.5242 67.9607L15.9707 67.9358L15.426 67.9146L14.8899 67.897L14.3627 67.883L13.8444 67.8725L13.3352 67.8654L12.8351 67.8618L12.3443 67.8615L11.8628 67.8645L11.3908 67.8707L10.9283 67.8801L10.4754 67.8927L10.0323 67.9083L9.599 67.9269L9.17558 67.9484L8.76215 67.9728L8.35879 68.0001L7.96558 68.03L7.5826 68.0627L7.20992 68.098L6.84763 68.1358L6.49579 68.1761L6.15448 68.2188L5.82376 68.2638L5.50371 68.3111L5.19438 68.3606L4.89583 68.4123L4.60814 68.466L4.33135 68.5216L4.06553 68.5792L3.81072 68.6385L3.56698 68.6997L3.33436 68.7625L3.1129 68.8269L2.90265 68.8928L2.70365 68.9602L2.51595 69.0289L2.33957 69.0989L2.17456 69.1701L2.02095 69.2425L1.87877 69.3159L1.74804 69.3902L1.62881 69.4655L1.52108 69.5415L1.42488 69.6183L1.34023 69.6957L1.26716 69.7737L1.20566 69.8521L1.15576 69.931L1.11746 70.0101L1.09078 70.0895L1.07571 70.169L1.07227 70.2486L1.08044 70.3282L1.10024 70.4077L1.13166 70.487L1.17468 70.566L1.22931 70.6447L1.29552 70.723L1.37332 70.8007L1.46267 70.8779L1.56357 70.9544L1.67599 71.0301L1.79991 71.105L1.9353 71.179L2.08214 71.2519L2.2404 71.3238L2.41005 71.3946L2.59104 71.4641L2.78335 71.5323L2.98694 71.5991L3.20176 71.6644L3.42777 71.7281L3.66493 71.7903L3.91318 71.8507L4.17248 71.9093L4.44278 71.9661L4.72402 72.021L5.01614 72.0738L5.31908 72.1246L5.63279 72.1732L5.9572 72.2196L6.29224 72.2637L6.63785 72.3055L6.99395 72.3448L7.36048 72.3815L7.73736 72.4158L8.12452 72.4473L8.52188 72.4762L8.92935 72.5023L9.34686 72.5255L9.77432 72.5459L10.2116 72.5633L10.6587 72.5776L11.1155 72.5889L11.5819 72.5971L12.0578 72.602L12.5431 72.6036L13.0377 72.602L13.5415 72.5969L14.0544 72.5885L14.5764 72.5765L15.1072 72.5611L15.6468 72.542L16.1951 72.5193L16.752 72.4929L17.3174 72.4628L17.8911 72.4289L18.473 72.3912L19.0631 72.3497L19.6612 72.3042L20.2672 72.2548L20.8809 72.2014L21.5023 72.144L22.1311 72.0826L22.7674 72.017L23.411 71.9473L24.0617 71.8735L24.7194 71.7955L25.3839 71.7132L26.0553 71.6267L26.7332 71.536L27.4176 71.4409L28.1084 71.3415L28.8054 71.2378L29.5085 71.1298L30.2175 71.0173L30.9322 70.9004L31.6527 70.7792L32.3786 70.6535L33.1099 70.5234L33.8465 70.3888L34.5881 70.2497L35.3346 70.1062L36.086 69.9583L36.8419 69.8058L37.6024 69.6489L38.3672 69.4874L39.1362 69.3215L39.9093 69.1511L40.6863 68.9763L41.467 68.797L42.2512 68.6132L43.039 68.4249L43.83 68.2322L44.6241 68.0351L45.4213 67.8335L46.2212 67.6275L47.0239 67.4172L47.829 67.2024L48.6365 66.9833L49.4462 66.7599L50.258 66.5322L51.0717 66.3002L51.8871 66.0639L52.704 65.8234L53.5224 65.5787L54.3421 65.3299L55.1629 65.0768L55.9847 64.8197L56.8073 64.5586L57.6305 64.2934L58.4542 64.0242L59.2782 63.751L60.1024 63.474L60.9267 63.193L61.7508 62.9083L62.5746 62.6198L63.398 62.3276L64.2208 62.0317L65.0429 61.7321L65.8641 61.429L66.6842 61.1224L67.5031 60.8123L68.3206 60.4989L69.1367 60.182L69.9511 59.8619L70.7636 59.5386L71.5743 59.2121L72.3828 58.8826L73.1891 58.55L73.9929 58.2144L74.7943 57.8759L75.5929 57.5347L76.3887 57.1906L77.1815 56.8439L77.9712 56.4946L78.7577 56.1427L79.5407 55.7884L80.3202 55.4318L81.096 55.0728L81.868 54.7116L82.636 54.3483L83.4 53.9829L84.1597 53.6155L84.9151 53.2463L85.6659 52.8752L86.4122 52.5025L87.1537 52.1281L87.8903 51.7521L88.6219 51.3748L89.3484 50.996L90.0696 50.6161L90.7854 50.2349L91.4958 49.8526L92.2005 49.4694L92.8995 49.0853L93.5926 48.7004L94.2798 48.3148L94.9609 47.9286L95.6358 47.5419L96.3043 47.1548L96.9665 46.7674L97.6221 46.3797L98.2711 45.992L98.9134 45.6044L99.5488 45.2168L100.177 44.8294L100.799 44.4423L101.413 44.0557L102.02 43.6696L102.62 43.2841L103.212 42.8993L103.797 42.5154L104.375 42.1324L104.944 41.7505L105.506 41.3698L106.06 40.9903L106.606 40.6122L107.144 40.2356L107.674 39.8605L108.196 39.4872L108.709 39.1157L109.215 38.7462L109.712 38.3786L110.2 38.0132L110.68 37.65L111.152 37.2892L111.614 36.9309L112.068 36.5752L112.514 36.2221L112.95 35.8718L113.378 35.5245L113.797 35.1801L114.207 34.8389L114.608 34.5009L114.999 34.1662L115.382 33.835L115.756 33.5073L116.12 33.1833L116.476 32.8631L116.822 32.5468L117.158 32.2344L117.486 31.9261L117.804 31.622L118.113 31.3222L118.412 31.0268L118.703 30.7359L118.983 30.4496L119.254 30.1681L119.516 29.8913L119.769 29.6194L120.012 29.3526L120.245 29.0909L120.469 28.8344L120.683 28.5831L120.888 28.3373L121.084 28.097L121.27 27.8623L121.446 27.6333L121.613 27.4101L121.771 27.1927L121.919 26.9813L122.058 26.776L122.187 26.5769L122.307 26.3839L122.417 26.1973L122.519 26.0171L122.61 25.8434L122.693 25.6763L122.766 25.5158L122.83 25.3621L122.884 25.2152L122.93 25.0752L122.966 24.9422L122.993 24.8162L123.011 24.6974L123.02 24.5858L123.02 24.4814L123.011 24.3844L122.993 24.2948L122.966 24.2127L122.931 24.1382L122.886 24.0713L122.833 24.012L122.771 23.9605L122.701 23.9168L122.622 23.8809L122.534 23.853L122.438 23.833L122.334 23.8211L122.222 23.8172L122.101 23.8215L121.972 23.8339L121.835 23.8546L121.689 23.8835L121.536 23.9207L121.375 23.9663L121.207 24.0203L121.03 24.0827L120.846 24.1536L120.654 24.233L120.455 24.3209L120.248 24.4173L120.035 24.5224L119.813 24.6361L119.585 24.7584L119.35 24.8894L119.107 25.0291L118.858 25.1774L118.602 25.3346L118.339 25.5004L118.07 25.675L117.794 25.8584L117.512 26.0505L117.224 26.2514L116.929 26.4611L116.628 26.6796L116.321 26.9069L116.009 27.143L115.69 27.3879L115.366 27.6415L115.036 27.904L114.701 28.1752L114.36 28.4551L114.014 28.7438L113.663 29.0412L113.307 29.3474L112.946 29.6622L112.58 29.9857L112.209 30.3179L111.834 30.6586L111.454 31.008L111.07 31.366L110.681 31.7324L110.288 32.1074L109.892 32.4909L109.491 32.8828L109.087 33.283L108.678 33.6917L108.267 34.1086L107.851 34.5338L107.433 34.9672L107.011 35.4088L106.586 35.8584L106.158 36.3162L105.727 36.7819L105.293 37.2556L104.857 37.7372L104.418 38.2266L103.976 38.7238L103.533 39.2286L103.087 39.7411L102.639 40.2612L102.189 40.7887L101.737 41.3237L101.284 41.866L100.829 42.4155L100.372 42.9723L99.9139 43.5361L99.4547 44.107L98.9942 44.6848L98.5328 45.2695L98.0704 45.8609L97.6073 46.459L97.1434 47.0637L96.679 47.6749L96.2141 48.2925L95.7488 48.9163L95.2833 49.5464L94.8177 50.1826L94.352 50.8248L93.8865 51.4729L93.4211 52.1268L92.9561 52.7864L92.4914 53.4515L92.0273 54.1221L91.5638 54.7981L91.1011 55.4794L90.6392 56.1657L90.1783 56.8571L89.7184 57.5534L89.2596 58.2545L88.8021 58.9602L88.346 59.6705L87.8913 60.3852L87.4382 61.1042L86.9867 61.8274L86.537 62.5546L86.0891 63.2857L85.6432 64.0207L85.1993 64.7593L84.7575 65.5014L84.318 66.247L83.8807 66.9958L83.4459 67.7477L83.0135 68.5027L82.5837 69.2605L82.1566 70.021L81.7322 70.7841L81.3106 71.5497L80.8919 72.3175L80.4763 73.0876L80.0637 73.8597L79.6542 74.6336L79.248 75.4093L78.845 76.1866L78.4454 76.9654L78.0493 77.7454L77.6567 78.5267L77.2676 79.3089L76.8822 80.092L76.5006 80.8759L76.1227 81.6603L75.7486 82.4452L75.3785 83.2303L75.0123 84.0155L74.6501 84.8008L74.2921 85.5858L73.9381 86.3706L73.5884 87.1548L73.2429 87.9385L72.9017 88.7214L72.5649 89.5033L72.2324 90.2842L71.9044 91.0639L71.5809 91.8421L71.2619 92.6189L70.9474 93.3939L70.6376 94.1672L70.3324 94.9384L70.0319 95.7075L69.7362 96.4743L69.4451 97.2387L69.1589 98.0005L68.8775 98.7596L68.6009 99.5157L68.3292 100.269L68.0624 101.019L67.8005 101.765L67.5435 102.508L67.2915 103.248L67.0445 103.984L66.8024 104.715L66.5654 105.443L66.3334 106.167L66.1064 106.886L65.8844 107.6L65.6675 108.31L65.4557 109.015L65.2489 109.715L65.0472 110.41L64.8505 111.1L64.6589 111.785L64.4724 112.463L64.2909 113.137L64.1145 113.804L63.9431 114.466L63.7767 115.121L63.6154 115.771L63.4591 116.413L63.3078 117.05L63.1615 117.68L63.0201 118.303L62.8837 118.919L62.7523 119.529L62.6257 120.131L62.504 120.726L62.3872 121.313L62.2753 121.894L62.1681 122.466L62.0657 123.031L61.9681 123.588L61.8752 124.137L61.787 124.678L61.7034 125.21L61.6244 125.735L61.5501 126.251L61.4802 126.758L61.4149 127.257L61.354 127.747L61.2975 128.228L61.2454 128.7L61.1976 129.164L61.1541 129.618L61.1149 130.062L61.0798 130.498L61.0488 130.924L61.0219 131.34L60.999 131.747L60.9801 132.144L60.9651 132.531L60.954 132.909L60.9467 133.276L60.9431 133.634L60.9431 133.981L60.9468 134.318L60.9541 134.645L60.9648 134.961L60.979 135.267L60.9966 135.563L61.0174 135.847L61.0415 136.122L61.0687 136.385L61.099 136.638L61.1324 136.88L61.1687 137.111L61.2079 137.331L61.2499 137.541L61.2946 137.739L61.342 137.926L61.392 138.102L61.4445 138.267L61.4995 138.42L61.5568 138.563L61.6164 138.694L61.6782 138.813L61.7421 138.922L61.8081 139.019L61.8761 139.105L61.946 139.179L62.0177 139.241L62.0911 139.293L62.1661 139.332L62.2428 139.361L62.3209 139.377L62.4005 139.383L62.4814 139.376L62.5635 139.358L62.6468 139.329L62.7311 139.288L62.8165 139.235L62.9028 139.171L62.9899 139.095L63.0778 139.008L63.1663 138.909L63.2554 138.799L63.345 138.677L63.4351 138.544L63.5254 138.399L63.616 138.243L63.7068 138.076L63.7977 137.897L63.8885 137.706L63.9793 137.504L64.0699 137.291L64.1603 137.067L64.2503 136.831L64.3399 136.585L64.4291 136.327L64.5176 136.058L64.6055 135.778L64.6927 135.487L64.7791 135.185L64.8645 134.872L64.949 134.548L65.0325 134.213L65.1148 133.868L65.1959 133.512L65.2757 133.145L65.3542 132.768L65.4312 132.381L65.5067 131.983L65.5806 131.574L65.6529 131.156L65.7235 130.727L65.7922 130.288L65.8591 129.839L65.924 129.38L65.9869 128.912L66.0477 128.433L66.1064 127.945L66.1629 127.447L66.2171 126.94L66.2689 126.424L66.3183 125.898L66.3652 125.363L66.4096 124.819L66.4514 124.265L66.4905 123.703L66.527 123.133L66.5606 122.553L66.5914 121.965L66.6193 121.369L66.6442 120.764L66.6662 120.151L66.6851 119.53L66.7009 118.9L66.7135 118.263L66.723 117.619L66.7292 116.966L66.7321 116.306L66.7316 115.639L66.7278 114.964L66.7205 114.283L66.7098 113.594L66.6955 112.898L66.6777 112.196L66.6563 111.487L66.6313 110.772L66.6027 110.05L66.5703 109.323L66.5343 108.589L66.4945 107.849L66.4508 107.103L66.4034 106.352L66.3522 105.595L66.2971 104.833L66.2382 104.066L66.1753 103.294L66.1085 102.517L66.0378 101.735L65.9631 100.948L65.8844 100.157L65.8018 99.3622L65.7152 98.5627L65.6245 97.7593L65.5299 96.952L65.4312 96.1411L65.3285 95.3266L65.2217 94.5087L65.1109 93.6876L64.9961 92.8634L64.8773 92.0362L64.7544 91.2063L64.6275 90.3739L64.4965 89.5389L64.3615 88.7017L64.2226 87.8623L64.0796 87.021L63.9326 86.1778L63.7817 85.333L63.6268 84.4867L63.4679 83.6391L63.3051 82.7902L63.1384 81.9404L62.9678 81.0897L62.7934 80.2382L62.6151 79.3863L62.433 78.534L62.2471 77.6814L62.0575 76.8288L61.8641 75.9762L61.667 75.1239L61.4663 74.2721L61.2619 73.4208L61.054 72.5702L60.8424 71.7205L60.6274 70.8718L60.4089 70.0244L60.187 69.1783L59.9617 68.3337L59.733 67.4908L59.5011 66.6497L59.2659 65.8106L59.0275 64.9735L58.786 64.1388L58.5414 63.3065L58.2937 62.4768L58.0431 61.6499L57.7895 60.8258L57.5331 60.0048L57.2739 59.1869L57.0119 58.3724L56.7472 57.5613L56.48 56.7539L56.2101 55.9502L55.9378 55.1505L55.6631 54.3548L55.386 53.5633L55.1066 52.7761L54.825 51.9934L54.5413 51.2154L54.2555 50.442L53.9677 49.6736L53.678 48.9102L53.3865 48.1519L53.0932 47.399L52.7983 46.6514L52.5017 45.9094L52.2036 45.1731L51.9041 44.4426L51.6032 43.718L51.3011 42.9994L50.9977 42.287L50.6933 41.581L50.3879 40.8813L50.0815 40.1882L49.7743 39.5017L49.4663 38.822L49.1577 38.1491L48.8486 37.4832L48.5389 36.8245L48.2289 36.1729L47.9186 35.5287L47.6081 34.8918L47.2975 34.2625L46.9869 33.6408L46.6763 33.0268L46.366 32.4207L46.056 31.8224L45.7463 31.2322L45.4371 30.65L45.1285 30.076L44.8206 29.5103L44.5134 28.953L44.2071 28.4041L43.9018 27.8638L43.5976 27.332L43.2945 26.809L42.9928 26.2946L42.6924 25.7892L42.3934 25.2926L42.0961 24.805L41.8004 24.3265L41.5066 23.8571L41.2146 23.3968L40.9246 22.9458L40.6367 22.5041L40.351 22.0718L40.0675 21.6489L39.7865 21.2354L39.508 20.8315L39.232 20.4371L38.9588 20.0523L38.6884 19.6772L38.4209 19.3118L38.1564 18.9561L37.895 18.6103L37.6368 18.2742L37.3819 17.948L37.1304 17.6317L36.8824 17.3253L36.638 17.0288L36.3974 16.7423L36.1605 16.4658L35.9275 16.1993L35.6986 15.9428L35.4737 15.6964L35.253 15.4601L35.0366 15.2338L34.8246 15.0176L34.6171 14.8115L34.4141 14.6155L34.2159 14.4296L34.0223 14.2538L33.8336 14.0881L33.6499 13.9325L33.4712 13.787L33.2976 13.6516L33.1292 13.5263L32.9661 13.411L32.8083 13.3058L32.6561 13.2106L32.5094 13.1255L32.3683 13.0503L32.2329 12.9851L32.1034 12.9299L31.9797 12.8846L31.862 12.8492L31.7503 12.8237L31.6447 12.808L31.5453 12.8022L31.4522 12.806L31.3654 12.8197L31.285 12.843L31.2111 12.8759L31.1438 12.9184L31.0831 12.9705L31.029 13.0321L30.9817 13.1032L30.9412 13.1837L30.9076 13.2735L30.8809 13.3726L30.8613 13.481L30.8486 13.5985L30.8431 13.7251L30.8448 13.8608L30.8537 14.0055L30.8698 14.1591L30.8933 14.3215L30.9242 14.4928L30.9625 14.6727L31.0082 14.8613L31.0615 15.0585L31.1223 15.2641L31.1907 15.4781L31.2667 15.7005L31.3504 15.9311L31.4419 16.1699L31.541 16.4167L31.648 16.6716L31.7627 16.9343L31.8853 17.2049L32.0157 17.4832L32.1541 17.7691L32.3003 18.0626L32.4545 18.3635L32.6166 18.6718L32.7867 18.9873L32.9648 19.3099L33.1508 19.6397L33.3449 19.9763L33.547 20.3199L33.7571 20.6701L33.9753 21.0271L34.2015 21.3905L34.4358 21.7604L34.6781 22.1367L34.9284 22.5191L35.1868 22.9077L35.4532 23.3022L35.7277 23.7026L36.0102 24.1088L36.3006 24.5207L36.5991 24.9381L36.9056 25.361L37.22 25.7891L37.5423 26.2225L37.8726 26.6609L38.2108 27.1043L38.5569 27.5526L38.9108 28.0056L39.2726 28.4632L39.6421 28.9253L40.0194 29.3917L40.4044 29.8624L40.7971 30.3373L41.1975 30.8161L41.6054 31.2988L42.021 31.7853L42.444 32.2754L42.8745 32.769L43.3125 33.266L43.7578 33.7663L44.2105 34.2697L44.6704 34.7761L45.1376 35.2855L45.6119 35.7976L46.0933 36.3123L46.5817 36.8295L47.0772 37.3492L47.5795 37.8711L48.0887 38.3952L48.6046 38.9212L49.1272 39.4492L49.6565 39.9789L50.1923 40.5103L50.7346 41.0432L51.2833 41.5775L51.8384 42.1131L52.3996 42.6498L52.967 43.1876L53.5405 43.7262L54.12 44.2657L54.7054 44.8058L55.2965 45.3464L55.8934 45.8874L56.4959 46.4288L57.104 46.9703L57.7174 47.5119L58.3362 48.0534L58.9603 48.5948L59.5894 49.1358L60.2236 49.6765L60.8627 50.2166L61.5066 50.756L62.1552 51.2947L62.8085 51.8325L63.4662 52.3693L64.1283 52.9051L64.7947 53.4396L65.4652 53.9728L66.1397 54.5045L66.8182 55.0347L67.5005 55.5633L68.1864 56.0901L68.876 56.6151L69.5689 57.138L70.2652 57.6589L70.9647 58.1776L71.6672 58.6941L72.3727 59.2082L73.081 59.7198L73.792 60.2288L74.5055 60.7351L75.2215 61.2387L75.9397 61.7394L76.6601 62.2372L77.3826 62.7319L78.1069 63.2234L78.833 63.7117L79.5607 64.1968L80.2899 64.6784L81.0205 65.1565L81.7522 65.631L82.4851 66.1019L83.2188 66.5691L83.9534 67.0324L84.6886 67.4918L85.4243 67.9473L86.1604 68.3987L86.8967 68.846L87.6331 69.2891L88.3695 69.7279L89.1056 70.1624L89.8414 70.5925L90.5767 71.0181L91.3114 71.4391L92.0453 71.8556L92.7782 72.2674L93.5101 72.6745L94.2408 73.0768L94.9701 73.4743L95.6979 73.8669L96.424 74.2546L97.1484 74.6372L97.8708 75.0148L98.5911 75.3873L99.3091 75.7547L100.025 76.1169L100.738 76.4738L101.448 76.8255L102.156 77.1719L102.861 77.5129L103.562 77.8486L104.261 78.1788L104.956 78.5036L105.647 78.8229L106.335 79.1367L107.018 79.445L107.698 79.7476L108.374 80.0447L109.046 80.3362L109.713 80.6221L110.375 80.9023L111.033 81.1768L111.686 81.4456L112.334 81.7088L112.977 81.9662L113.615 82.2179L114.248 82.4639L114.875 82.7042L115.496 82.9387L116.111 83.1675L116.721 83.3905L117.324 83.6078L117.922 83.8193L118.513 84.0251L119.098 84.2252L119.676 84.4195L120.247 84.6081L120.812 84.7911L121.369 84.9683L121.92 85.1398L122.463 85.3057L123 85.4659L123.528 85.6205L124.049 85.7695L124.563 85.9128L125.069 86.0506L125.567 86.1829L126.056 86.3097L126.538 86.4309L127.012 86.5468L127.477 86.6571L127.934 86.7621L128.382 86.8618L128.822 86.9561L129.253 87.0451L129.675 87.1289L130.088 87.2074L130.492 87.2808L130.887 87.3491L131.272 87.4123L131.649 87.4705L132.015 87.5236L132.373 87.5719L132.721 87.6152L133.059 87.6537L133.387 87.6874L133.706 87.7164L134.015 87.7407L134.313 87.7604L134.602 87.7755L134.88 87.7861L135.148 87.7922L135.406 87.794L135.654 87.7915L135.891 87.7846L136.118 87.7736L136.334 87.7584L136.54 87.7392L136.734 87.716L136.919 87.6888L137.092 87.6578L137.255 87.623L137.406 87.5844L137.547 87.5422L137.677 87.4964L137.796 87.4471L137.904 87.3944L138.001 87.3383L138.086 87.2789L138.161 87.2163L138.224 87.1506L138.276 87.0819L138.317 87.0101L138.347 86.9355L138.365 86.858L138.372 86.7778L138.368 86.695L138.352 86.6096L138.326 86.5217L138.287 86.4313L138.238 86.3387L138.177 86.2438L138.104 86.1467L138.021 86.0476L137.926 85.9465L137.819 85.8434L137.701 85.7385L137.572 85.6319L137.432 85.5237L137.28 85.4138L137.117 85.3025L136.942 85.1898L136.757 85.0758L136.56 84.9605L136.351 84.8441L136.132 84.7267L135.902 84.6083L135.66 84.489L135.407 84.3689L135.143 84.2481L134.868 84.1266L134.582 84.0046L134.286 83.8822L133.978 83.7594L133.659 83.6363L133.33 83.513L132.99 83.3896L132.639 83.2662L132.277 83.1428L131.905 83.0195L131.522 82.8965L131.129 82.7738L130.726 82.6514L130.312 82.5295L129.888 82.4082L129.454 82.2875L129.009 82.1675L128.555 82.0483L128.09 81.9299L127.616 81.8125L127.132 81.6961L126.638 81.5809L126.135 81.4667L125.622 81.3539L125.099 81.2424L124.567 81.1322L124.026 81.0236L123.476 80.9165L122.916 80.811L122.348 80.7072L121.771 80.6052L121.185 80.505L120.59 80.4067L119.987 80.3103L119.375 80.216L118.755 80.1238L118.127 80.0338L117.491 79.9459L116.846 79.8604L116.194 79.7772L115.534 79.6965L114.867 79.6181L114.191 79.5424L113.509 79.4692L112.819 79.3986L112.122 79.3308L111.418 79.2656L110.707 79.2033L109.989 79.1439L109.265 79.0873L108.534 79.0337L107.797 78.9831L107.053 78.9355L106.304 78.891L105.549 78.8496L104.787 78.8114L104.02 78.7765L103.248 78.7447L102.47 78.7163L101.687 78.6912L100.899 78.6694L100.106 78.6511L99.3078 78.6361L98.5052 78.6247L97.6982 78.6167L96.8868 78.6122L96.0711 78.6113L95.2514 78.6139L94.4279 78.6201L93.6006 78.6299L92.7697 78.6434L91.9353 78.6605L91.0977 78.6813L90.2569 78.7058L89.4132 78.7339L88.5667 78.7658L87.7175 78.8014L86.8659 78.8407L86.0119 78.8838L85.1557 78.9306L84.2975 78.9811L83.4374 79.0354L82.5757 79.0935L81.7124 79.1554L80.8477 79.2209L79.9818 79.2903L79.1149 79.3634L78.2471 79.4402L77.3785 79.5208L76.5094 79.6051L75.6399 79.6931L74.7701 79.7848L73.9002 79.8802L73.0304 79.9793L72.1609 80.082L71.2917 80.1884L70.4231 80.2984L69.5553 80.412L68.6883 80.5292L67.8223 80.6499L66.9575 80.7741L66.0941 80.9019L65.2323 81.0331L64.3721 81.1678L63.5137 81.3058L62.6573 81.4473L61.8031 81.592L60.9512 81.7401L60.1017 81.8915L59.2549 82.046L58.4108 82.2038L57.5697 82.3646L56.7316 82.5286L55.8968 82.6957L55.0653 82.8657L54.2374 83.0387L53.4132 83.2146L52.5928 83.3933L51.7764 83.5749L50.9641 83.7592L50.1561 83.9462L49.3525 84.1359L48.5535 84.3281L47.7592 84.5229L46.9697 84.7201L46.1852 84.9197L45.4059 85.1217L44.6318 85.3259L43.8632 85.5324L43.1 85.741L42.3426 85.9517L41.591 86.1644L40.8453 86.379L40.1057 86.5955L39.3723 86.8139L38.6452 87.0339L37.9246 87.2556L37.2106 87.4789L36.5032 87.7037L35.8027 87.9299L35.1092 88.1574L34.4227 88.3863L33.7434 88.6163L33.0714 88.8474L32.4068 89.0796L31.7498 89.3127L31.1004 89.5467L30.4587 89.7815L29.8249 90.017L29.199 90.253L28.5812 90.4896L27.9716 90.7267L27.3702 90.9641L26.7772 91.2018L26.1927 91.4396L25.6167 91.6776L25.0493 91.9155L24.4907 92.1533L23.9409 92.391L23.4 92.6284L22.8682 92.8654L22.3454 93.102L21.8317 93.338L21.3273 93.5734L20.8322 93.808L20.3465 94.0418L19.8703 94.2747L19.4035 94.5066L18.9464 94.7373L18.499 94.9669L18.0612 95.1951L17.6333 95.422L17.2152 95.6473L16.8071 95.8711L16.4089 96.0932L16.0207 96.3135L15.6426 96.5319L15.2746 96.7484L14.9167 96.9628L14.5691 97.1751L14.2317 97.385L13.9047 97.5927L13.5879 97.7978L13.2815 98.0005L12.9855 98.2005L12.7 98.3978L12.4249 98.5922L12.1603 98.7838L11.9062 98.9723L11.6626 99.1577L11.4296 99.3399L11.2071 99.5189L10.9953 99.6944L10.794 99.8665L10.6034 100.035L10.4233 100.2L10.2539 100.361L10.0952 100.518L9.94703 100.672L9.80952 100.821L9.68265 100.966L9.5664 101.107L9.46077 101.244L9.36575 101.376L9.28132 101.504L9.20749 101.628L9.14422 101.747L9.0915 101.861L9.04932 101.97L9.01764 102.075L8.99646 102.174L8.98573 102.269L8.98543 102.358L8.99553 102.442L9.016 102.521L9.04679 102.595L9.08789 102.663L9.13924 102.726L9.2008 102.784L9.27253 102.835L9.35439 102.881L9.44633 102.922L9.5483 102.956L9.66024 102.985L9.78211 103.007L9.91385 103.024L10.0554 103.035L10.2067 103.039L10.3677 103.037L10.5383 103.029L10.7185 103.015L10.9082 102.995L11.1073 102.967L11.3158 102.934L11.5335 102.894L11.7605 102.847L11.9966 102.794L12.2417 102.734L12.4959 102.668L12.7589 102.595L13.0307 102.515L13.3113 102.428L13.6005 102.334L13.8983 102.233L14.2046 102.126L14.5192 102.011L14.8421 101.89L15.1732 101.761L15.5124 101.626L15.8596 101.483L16.2147 101.333L16.5776 101.176L16.9482 101.012L17.3264 100.841L17.712 100.662L18.1051 100.477L18.5055 100.284L18.913 100.084L19.3276 99.8765L19.7492 99.6619L20.1776 99.4401L20.6128 99.211L21.0545 98.9746L21.5028 98.731L21.9575 98.4801L22.4184 98.2219L22.8855 97.9564L23.3587 97.6837L23.8377 97.4038L24.3226 97.1166L24.8131 96.8222L25.3092 96.5206L25.8108 96.2117L26.3176 95.8957L26.8297 95.5726L27.3468 95.2422L27.8688 94.9048L28.3957 94.5603L28.9272 94.2087L29.4633 93.8501L30.0038 93.4844L30.5486 93.1118L31.0976 92.7323L31.6506 92.3458L32.2076 91.9524L32.7683 91.5523L33.3327 91.1453L33.9006 90.7316L34.4719 90.3113L35.0464 89.8842L35.6241 89.4506L36.2048 89.0104L36.7883 88.5637L37.3746 88.1106L37.9634 87.6511L38.5548 87.1852L39.1484 86.7131L39.7443 86.2348L40.3422 85.7503L40.9421 85.2598L41.5438 84.7633L42.1471 84.2608L42.752 83.7524L43.3583 83.2383L43.9659 82.7184L44.5746 82.1929L45.1843 81.6618L45.7949 81.1252L46.4063 80.5832L47.0183 80.0359L47.6308 79.4834L48.2436 78.9257L48.8567 78.3629L49.4699 77.7951L50.0831 77.2225L50.6961 76.645L51.3088 76.0629L51.9212 75.4761L52.533 74.8849L53.1442 74.2892L53.7546 73.6892L54.3641 73.085L54.9726 72.4767L55.5799 71.8644L56.186 71.2481L56.7907 70.6281L57.3939 70.0044L57.9954 69.3771L58.5953 68.7464L59.1933 68.1123L59.7893 67.4749L60.3832 66.8344L60.975 66.1909L61.5644 65.5445L62.1514 64.8954L62.7359 64.2436L63.3177 63.5892L63.8968 62.9324L64.473 62.2733L65.0463 61.612L65.6165 60.9487L66.1835 60.2835L66.7473 59.6164L67.3077 58.9477L67.8646 58.2775L68.418 57.6058L68.9676 56.9328L69.5136 56.2587L70.0557 55.5835L70.5938 54.9075L71.1279 54.2307L71.6579 53.5532L72.1836 52.8753L72.7051 52.197L73.2221 51.5184L73.7347 50.8398L74.2428 50.1612L74.7462 49.4828L75.2449 48.8047L75.7388 48.127L76.2278 47.4499L76.7119 46.7736L77.191 46.0981L77.665 45.4236L78.1338 44.7503L78.5974 44.0783L79.0558 43.4076L79.5088 42.7385L79.9563 42.0712L80.3984 41.4056L80.835 40.742L81.266 40.0806L81.6913 39.4214L82.1109 38.7646L82.5248 38.1103L82.9328 37.4587L83.335 36.81L83.7313 36.1641L84.1217 35.5214L84.506 34.8819L84.8844 34.2457L85.2566 33.6131L85.6228 32.9841L85.9828 32.3589L86.3366 31.7376L86.6842 31.1204L87.0256 30.5073L87.3607 29.8986L87.6895 29.2944L88.0119 28.6947L88.3281 28.0998L88.6378 27.5097L88.9412 26.9246L89.2381 26.3447L89.5286 25.77L89.8127 25.2007L90.0903 24.6369L90.3615 24.0788L90.6262 23.5265L90.8844 22.98L91.1361 22.4396L91.3814 21.9054L91.6201 21.3774L91.8523 20.8558L92.0781 20.3408L92.2974 19.8324L92.5102 19.3307L92.7165 18.836L92.9163 18.3483L93.1097 17.8676L93.2967 17.3943L93.4772 16.9282L93.6513 16.4697L93.8191 16.0187L93.9804 15.5754L94.1354 15.1399L94.284 14.7123L94.4263 14.2927L94.5624 13.8812L94.6922 13.4779L94.8157 13.083L94.9331 12.6965L95.0443 12.3185L95.1494 11.9491L95.2483 11.5885L95.3412 11.2366L95.4281 10.8936L95.509 10.5597L95.584 10.2348L95.653 9.91907L95.7162 9.6126L95.7736 9.31547L95.8253 9.02776L95.8712 8.74956L95.9114 8.48092L95.9461 8.22195L95.9752 7.9727L95.9987 7.73326L96.0168 7.5037L96.0296 7.28407L96.037 7.07446L96.0391 6.87493L96.036 6.68553L96.0277 6.50634L96.0144 6.33741L95.996 6.17879L95.9727 6.03055L95.9444 5.89274L95.9114 5.7654L95.8735 5.64859L95.831 5.54236L95.7839 5.44674L95.7322 5.36179L95.676 5.28754L95.6154 5.22403L95.5505 5.1713L95.4814 5.12938L95.408 5.09831L95.3306 5.07811L95.2491 5.06881L95.1637 5.07043L95.0744 5.08301L94.9813 5.10656L94.8845 5.1411L94.7841 5.18664L94.6802 5.2432L94.5728 5.3108L94.462 5.38944L94.3479 5.47913L94.2306 5.57987L94.1102 5.69167L93.9868 5.81452L93.8604 5.94844L93.7311 6.0934L93.599 6.24941L93.4643 6.41646L93.327 6.59454L93.1871 6.78363L93.0449 6.98372L92.9002 7.19478L92.7534 7.41681L92.6044 7.64978L92.4533 7.89366L92.3002 8.14842L92.1452 8.41405L91.9885 8.6905L91.83 8.97774L91.6699 9.27574L91.5083 9.58446L91.3452 9.90385L91.1808 10.2339L91.0151 10.5745L90.8483 10.9257L90.6804 11.2873L90.5114 11.6594L90.3416 12.0419L90.171 12.4347L89.9996 12.8378L89.8276 13.2511L89.6551 13.6746L89.4821 14.1081L89.3087 14.5517L89.1351 15.0052L88.9612 15.4686L88.7873 15.9417L88.6133 16.4247L88.4394 16.9172L88.2656 17.4194L88.0921 17.931L87.9189 18.4521L87.7461 18.9825L87.5738 19.5221L87.4021 20.0708L87.231 20.6286L87.0606 21.1954L86.8911 21.771L86.7224 22.3554L86.5547 22.9485L86.3881 23.5501L86.2226 24.1602L86.0583 24.7787L85.8953 25.4054L85.7337 26.0403L85.5735 26.6832L85.4147 27.334L85.2576 27.9927L85.1021 28.659L84.9484 29.3329L84.7964 30.0143L84.6463 30.703L84.4981 31.3989L84.3519 32.102L84.2077 32.812L84.0657 33.5288L83.9259 34.2524L83.7883 34.9825L83.6531 35.7192L83.5202 36.4621L83.3897 37.2112L83.2617 37.9664L83.1363 38.7275L83.0135 39.4944L82.8933 40.267L82.7758 41.045L82.6611 41.8285L82.5492 42.6171L82.4401 43.4108L82.3339 44.2095L82.2307 45.013L82.1305 45.8211L82.0333 46.6337L81.9392 47.4506L81.8483 48.2718L81.7605 49.097L81.6758 49.9261L81.5944 50.7589L81.5163 51.5954L81.4415 52.4352L81.37 53.2784L81.3019 54.1247L81.2372 54.974L81.1759 55.8261L81.1181 56.6808L81.0637 57.5381L81.0128 58.3977L80.9654 59.2595L80.9216 60.1233L80.8813 60.989L80.8447 61.8564L80.8116 62.7254L80.7821 63.5957L80.7562 64.4673L80.7339 65.3399L80.7153 66.2135L80.7004 67.0878L80.689 67.9626L80.6814 68.8379L80.6774 69.7135L80.677 70.5891L80.6804 71.4647L80.6873 72.34L80.698 73.215L80.7123 74.0894L80.7302 74.9631L80.7518 75.8359L80.777 76.7077L80.8058 77.5783L80.8383 78.4475L80.8743 79.3152L80.9139 80.1812L80.957 81.0454L81.0038 81.9076L81.054 82.7676L81.1077 83.6253L81.1649 84.4806L81.2256 85.3332L81.2897 86.183L81.3571 87.0298L81.428 87.8736L81.5022 88.7141L81.5797 89.5512L81.6605 90.3847L81.7445 91.2145L81.8318 92.0405L81.9222 92.8624L82.0157 93.6801L82.1123 94.4935L82.2119 95.3025L82.3146 96.1068L82.4202 96.9064L82.5287 97.701L82.6401 98.4906L82.7543 99.275L82.8713 100.054L82.991 100.828L83.1133 101.596L83.2383 102.358L83.3658 103.114L83.4958 103.864L83.6283 104.608L83.7631 105.346L83.9002 106.078L84.0397 106.802L84.1813 107.521L84.325 108.232L84.4708 108.936L84.6187 109.633L84.7684 110.323L84.9201 111.006L85.0735 111.682L85.2287 112.349L85.3855 113.009L85.5439 113.662L85.7039 114.306L85.8653 114.942L86.028 115.571L86.1921 116.191L86.3574 116.802L86.5238 117.406L86.6913 118L86.8597 118.586L87.0291 119.163L87.1993 119.732L87.3703 120.291L87.5419 120.842L87.7142 121.383L87.8869 121.915L88.06 122.438L88.2335 122.951L88.4072 123.455L88.5811 123.95L88.755 124.434L88.929 124.909L89.1029 125.375L89.2766 125.83L89.45 126.275L89.6231 126.711L89.7957 127.136L89.9678 127.551L90.1393 127.956L90.31 128.351L90.48 128.735L90.6491 129.109L90.8172 129.473L90.9843 129.826L91.1502 130.169L91.3148 130.501L91.4782 130.822L91.6401 131.133L91.8005 131.433L91.9592 131.722L92.1163 132L92.2716 132.268L92.4251 132.525L92.5765 132.771L92.7259 133.006L92.8732 133.23L93.0182 133.443L93.1609 133.645L93.3013 133.836L93.4391 134.016L93.5743 134.185L93.7068 134.343L93.8366 134.49L93.9635 134.626L94.0876 134.751L94.2085 134.865L94.3264 134.968L94.4411 135.06L94.5525 135.14L94.6605 135.21L94.7651 135.269L94.8662 135.316L94.9637 135.353L95.0574 135.378L95.1474 135.393L95.2336 135.397L95.3158 135.389L95.394 135.371L95.4681 135.342L95.538 135.302L95.6037 135.251L95.6651 135.19L95.7221 135.118L95.7746 135.035L95.8226 134.941L95.866 134.837L95.9047 134.722L95.9387 134.596L95.9678 134.461L95.9921 134.314L96.0114 134.158L96.0256 133.991L96.0349 133.813L96.0389 133.626L96.0378 133.428L96.0314 133.22L96.0196 133.003L96.0025 132.775L95.9799 132.537L95.9519 132.29L95.9183 132.033L95.8791 131.766L95.8342 131.489L95.7836 131.203L95.7273 130.908L95.6652 130.603L95.5972 130.289L95.5233 129.966L95.4436 129.634L95.3578 129.292L95.266 128.942L95.1682 128.583L95.0642 128.215L94.9542 127.839L94.838 127.454L94.7156 127.061L94.5869 126.659L94.452 126.249L94.3109 125.831L94.1634 125.405L94.0096 124.971L93.8494 124.529L93.6829 124.079L93.51 123.622L93.3306 123.158L93.1449 122.685L92.9527 122.206L92.754 121.72L92.5489 121.226L92.3373 120.726L92.1192 120.219L91.8947 119.705L91.6636 119.185L91.4261 118.658L91.1821 118.125L90.9315 117.585L90.6745 117.04L90.411 116.489L90.1411 115.932L89.8646 115.369L89.5818 114.801L89.2924 114.227L88.9967 113.648L88.6945 113.064L88.3859 112.475L88.071 111.881L87.7497 111.282L87.4221 110.679L87.0882 110.071L86.7479 109.458L86.4015 108.842L86.0488 108.221L85.6899 107.597L85.3249 106.969L84.9538 106.337L84.5766 105.701L84.1933 105.062L83.8041 104.42L83.4089 103.775L83.0078 103.127L82.6008 102.475L82.188 101.822L81.7695 101.165L81.3452 100.507L80.9153 99.8455L80.4797 99.1823L80.0387 98.5172L79.5921 97.8501L79.1401 97.1813L78.6828 96.511L78.2201 95.8392L77.7522 95.1661L77.2792 94.4918L76.8011 93.8165L76.3179 93.1403L75.8298 92.4633L75.3367 91.7858L74.8389 91.1078L74.3364 90.4294L73.8292 89.7508L73.3174 89.0722L72.8012 88.3936L72.2806 87.7152L71.7556 87.0372L71.2264 86.3597L70.6931 85.6827L70.1557 85.0065L69.6143 84.3312L69.0691 83.6569L68.5201 82.9837L67.9674 82.3117L67.4111 81.6412L66.8514 80.9722L66.2882 80.3048L65.7218 79.6392L65.1522 78.9756L64.5795 78.3139L64.0038 77.6544L63.4252 76.9972L62.8439 76.3424L62.2599 75.6901L61.6733 75.0404L61.0844 74.3935L60.493 73.7494L59.8995 73.1084L59.3039 72.4704L58.7062 71.8357L58.1067 71.2043L57.5055 70.5764L56.9026 69.952L56.2981 69.3313L55.6923 68.7144L55.0852 68.1013L54.4769 67.4923L53.8676 66.8873L53.2573 66.2865L52.6463 65.69L52.0346 65.0979L51.4223 64.5103L50.8096 63.9273L50.1967 63.349L49.5835 62.7755L48.9703 62.2068L48.3572 61.6431L47.7443 61.0844L47.1317 60.5309L46.5196 59.9826L45.9082 59.4396L45.2974 58.9021L44.6875 58.3699L44.0786 57.8434L43.4708 57.3225L42.8643 56.8073L42.2591 56.2978L41.6555 55.7942L41.0535 55.2966L40.4532 54.8049L39.8549 54.3194L39.2587 53.8399L38.6646 53.3666L38.0728 52.8996L37.4835 52.4389L36.8968 51.9846L36.3127 51.5367L35.7315 51.0953L35.1533 50.6605L34.5781 50.2322L34.0062 49.8106L33.4377 49.3956L32.8726 48.9874L32.3112 48.586L31.7536 48.1914L31.1998 47.8037L30.65 47.4228L30.1044 47.0489L29.5631 46.682L29.0262 46.3221L28.4938 45.9692L27.9661 45.6233L27.4431 45.2846L26.9251 44.9529L26.4121 44.6285L25.9043 44.3111L25.4018 44.001L24.9047 43.698L24.4131 43.4022L23.9272 43.1137L23.447 42.8324L22.9728 42.5584L22.5045 42.2916L22.0424 42.0321L21.5866 41.7798L21.1371 41.5348L20.6941 41.2971L20.2578 41.0666L19.8281 40.8435L19.4052 40.6275L18.9893 40.4189L18.5805 40.2174L18.1788 40.0232L17.7843 39.8362L17.3973 39.6565L17.0177 39.4839L16.6457 39.3185L16.2813 39.1603L15.9248 39.0091L15.5761 38.8651L15.2354 38.7282L14.9028 38.5984L14.5784 38.4755L14.2622 38.3597L13.9544 38.2509L13.6551 38.149L13.3643 38.054L13.0821 37.9658L12.8086 37.8845L12.5439 37.81L12.2881 37.7422L12.0413 37.6812L11.8035 37.6268L11.5749 37.579L11.3554 37.5378L11.1452 37.5031L10.9444 37.4749L10.7529 37.453L10.571 37.4376L10.3986 37.4285L10.2358 37.4256L10.0827 37.4289L9.93934 37.4384L9.80578 37.4539L9.68208 37.4755L9.56829 37.503L9.46447 37.5363L9.37067 37.5756L9.28694 37.6205L9.21333 37.6712L9.14987 37.7275L9.09663 37.7893L9.05363 37.8566L9.02092 37.9294L8.99854 38.0074L8.98651 38.0907L8.98489 38.1792L8.99368 38.2728L9.01293 38.3715L9.04266 38.4751L9.08289 38.5835L9.13365 38.6968L9.19496 38.8147L9.26684 38.9373L9.3493 39.0644L9.44236 39.196L9.54602 39.332L9.6603 39.4723L9.78521 39.6167L9.92075 39.7653L10.0669 39.9179L10.2237 40.0745L10.3911 40.2348L10.5692 40.399L10.7579 40.5668L10.9572 40.7383L11.1671 40.9132L11.3876 41.0915L11.6186 41.2731L11.8602 41.4579L12.1124 41.6459L12.375 41.8369L12.6482 42.0308L12.9318 42.2276L13.2259 42.4271L13.5303 42.6292L13.8452 42.834L14.1703 43.0412L14.5058 43.2507L14.8515 43.4625L15.2075 43.6765L15.5736 43.8926L15.9499 44.1107L16.3362 44.3307L16.7325 44.5524L17.1389 44.7759L17.5551 45.001L17.9812 45.2276L18.4171 45.4556L18.8628 45.6849L19.3181 45.9154L19.783 46.1471L20.2575 46.3798L20.7415 46.6134L21.2349 46.8479L21.7375 47.0832L22.2495 47.3191L22.7706 47.5555L23.3008 47.7925L23.84 48.0298L24.3882 48.2674L24.9451 48.5053L25.5109 48.7432L26.0853 48.9811L26.6683 49.219L27.2597 49.4567L27.8595 49.6942L28.4676 49.9313L29.0839 50.168L29.7083 50.4042L30.3406 50.6398L30.9809 50.8747L31.6289 51.1088L32.2845 51.3421L32.9477 51.5745L33.6183 51.8058L34.2963 52.036L34.9814 52.2651L35.6737 52.4929L36.3729 52.7194L37.079 52.9444L37.7918 53.168L38.5112 53.39L39.2371 53.6103L39.9693 53.829L40.7078 54.0458L41.4523 54.2608L42.2029 54.4739L42.9593 54.685L43.7213 54.894L44.489 55.1008L45.262 55.3055L46.0404 55.5079L46.8239 55.7079L47.6125 55.9056L48.4059 56.1008L49.2041 56.2935L50.0068 56.4837L50.814 56.6712L51.6255 56.856L52.4412 57.0381L53.2608 57.2173L54.0844 57.3938L54.9116 57.5673L55.7424 57.7379L56.5766 57.9055L57.4141 58.07L58.2547 58.2315L59.0982 58.3898L59.9446 58.545L60.7936 58.6969L61.645 58.8456L62.4988 58.991L63.3548 59.133L64.2128 59.2717L65.0727 59.407L65.9343 59.5389L66.7974 59.6673L67.662 59.7922L68.5277 59.9136L69.3945 60.0314L70.2622 60.1457L71.1307 60.2563L71.9998 60.3634L72.8693 60.4668L73.739 60.5666L74.6089 60.6626L75.4787 60.7551L76.3483 60.8437L77.2175 60.9287L78.0862 61.01L78.9542 61.0875L79.8213 61.1613L80.6873 61.2313L81.5522 61.2976L82.4158 61.3601L83.2778 61.4189L84.1382 61.4739L84.9968 61.5252L85.8534 61.5727L86.7078 61.6164L87.5599 61.6565L88.4095 61.6927L89.2566 61.7253L90.1008 61.7541L90.9421 61.7793L91.7803 61.8007L92.6153 61.8185L93.4468 61.8327L94.2748 61.8432L95.0991 61.8501L95.9195 61.8534L96.7359 61.8531L97.5481 61.8493L98.356 61.8419L99.1594 61.8311L99.9582 61.8168L100.752 61.7991L101.541 61.7779L102.325 61.7534L103.104 61.7256L103.878 61.6945L104.646 61.6601L105.408 61.6225L106.164 61.5818L106.915 61.5378L107.66 61.4908L108.398 61.4408L109.13 61.3877L109.855 61.3317L110.574 61.2727L111.287 61.211L111.992 61.1464L112.69 61.079L113.381 61.0089L114.065 60.9362L114.742 60.8609L115.411 60.7831L116.072 60.7028L116.726 60.62L117.372 60.5349L118.01 60.4475L118.64 60.3579L119.261 60.2661L119.874 60.1721L120.479 60.0762L121.075 59.9782L121.663 59.8784L122.242 59.7767L122.812 59.6732L123.373 59.568L123.925 59.4612L124.468 59.3528L125.001 59.243L125.525 59.1317L126.04 59.0191L126.545 58.9052L127.041 58.7901L127.527 58.674L128.003 58.5567L128.469 58.4386L128.926 58.3195L129.372 58.1996L129.808 58.079L130.234 57.9578L130.65 57.836L131.055 57.7138L131.45 57.5911L131.835 57.4681L132.209 57.3449L132.572 57.2215L132.925 57.0981L133.267 56.9747L133.599 56.8514L133.92 56.7282L134.229 56.6054L134.528 56.4829L134.816 56.3608L135.093 56.2392L135.359 56.1183L135.614 55.9981L135.858 55.8786L136.09 55.76L136.312 55.6424L136.522 55.5258L136.721 55.4103L136.909 55.2961L137.085 55.1831L137.25 55.0715L137.404 54.9614L137.547 54.8528L137.678 54.7459L137.798 54.6407L137.907 54.5373L138.004 54.4358L138.09 54.3363L138.164 54.2389L138.227 54.1436L138.279 54.0505L138.319 53.9597L138.348 53.8714L138.366 53.7855L138.372 53.7022L138.367 53.6215L138.351 53.5435L138.323 53.4683L138.285 53.396L138.235 53.3267L138.173 53.2604L138.101 53.1973L138.017 53.1373L137.923 53.0806L137.817 53.0272L137.7 52.9773L137.572 52.9308L137.433 52.888L137.284 52.8487L137.123 52.8132L136.952 52.7815L136.769 52.7536L136.576 52.7296L136.373 52.7097L136.159 52.6937L135.934 52.6819L135.699 52.6743L135.453 52.671L135.197 52.6719L134.931 52.6773L134.654 52.6871L134.367 52.7013L134.071 52.7201L133.764 52.7436L133.447 52.7717L133.12 52.8045L132.784 52.8421L132.438 52.8846L132.082 52.9319L131.717 52.9841L131.343 53.0414L130.959 53.1036L130.566 53.171L130.163 53.2434L129.752 53.321L129.331 53.4038L128.902 53.4919L128.464 53.5852L128.018 53.6838L127.562 53.7878L127.099 53.8972L126.627 54.012L126.146 54.1323L125.658 54.258L125.162 54.3893L124.657 54.526L124.145 54.6684L123.625 54.8163L123.098 54.9699L122.563 55.129L122.021 55.2939L121.472 55.4643L120.916 55.6405L120.352 55.8224L119.782 56.0099L119.205 56.2032L118.622 56.4022L118.032 56.6069L117.436 56.8174L116.833 57.0336L116.225 57.2556L115.61 57.4833L114.99 57.7168L114.364 57.956L113.733 58.2009L113.096 58.4515L112.454 58.7079L111.807 58.97L111.155 59.2378L110.498 59.5113L109.836 59.7904L109.17 60.0752L108.499 60.3657L107.824 60.6617L107.145 60.9634L106.462 61.2706L105.775 61.5834L105.084 61.9016L104.39 62.2254L103.692 62.5546L102.991 62.8893L102.287 63.2293L101.58 63.5747L100.87 63.9254L100.157 64.2814L99.4419 64.6426L98.7243 65.009L98.0044 65.3806L97.2824 65.7573L96.5584 66.139L95.8326 66.5257L95.1051 66.9174L94.376 67.314L93.6456 67.7154L92.9139 68.1216L92.1811 68.5326L91.4474 68.9482L90.7129 69.3684L89.9777 69.7932L89.242 70.2224L88.5059 70.6561L87.7696 71.0941L87.0332 71.5364L86.2968 71.9829L85.5607 72.4336L84.8249 72.8883L84.0896 73.347L83.3549 73.8096L82.621 74.2761L81.8879 74.7463L81.156 75.2201L80.4252 75.6976L79.6957 76.1786L78.9677 76.663L78.2413 77.1507L77.5166 77.6417L76.7938 78.1358L76.073 78.633L75.3544 79.1331L74.638 79.6362L73.924 80.142L73.2125 80.6506L72.5037 81.1617L71.7977 81.6753L71.0946 82.1913L70.3946 82.7096L69.6977 83.2301L69.0041 83.7527L68.314 84.2773L67.6273 84.8038L66.9444 85.332L66.2652 85.8619L65.5899 86.3934L64.9186 86.9263L64.2515 87.4606L63.5886 87.9961L62.93 88.5328L62.276 89.0704L61.6265 89.6089L60.9817 90.1483L60.3417 90.6883L59.7066 91.2288L59.0765 91.7698L58.4515 92.3111L57.8317 92.8526L57.2172 93.3942L56.6082 93.9357L56.0047 94.4771L55.4067 95.0182L54.8145 95.5589L54.228 96.0991L53.6475 96.6387L53.0729 97.1775L52.5043 97.7155L51.9419 98.2524L51.3857 98.7882L50.8358 99.3227L50.2923 99.8559L49.7553 100.388L49.2248 100.918L48.7009 101.446L48.1838 101.972L47.6733 102.497L47.1697 103.019L46.673 103.539L46.1833 104.057L45.7006 104.572L45.2249 105.085L44.7565 105.595L44.2952 106.101L43.8412 106.605L43.3945 107.106L42.9551 107.604L42.5232 108.098L42.0988 108.589L41.6819 109.076L41.2725 109.56L40.8707 110.039L40.4766 110.515L40.0901 110.986L39.7114 111.453L39.3404 111.916L38.9773 112.375L38.6219 112.829L38.2744 113.278L37.9347 113.722L37.603 114.161L37.2791 114.596L36.9632 115.025L36.6553 115.449L36.3553 115.867L36.0634 116.28L35.7794 116.687L35.5035 117.089L35.2356 117.485L34.9757 117.874L34.7239 118.258L34.4801 118.635L34.2443 119.006L34.0166 119.371L33.797 119.729L33.5853 120.081L33.3818 120.425L33.1862 120.763L32.9986 121.094L32.8191 121.418L32.6475 121.735L32.4839 122.045L32.3283 122.347L32.1806 122.642L32.0408 122.929L31.9089 123.209L31.7848 123.481L31.6686 123.745L31.5603 124.001L31.4597 124.25L31.3668 124.49L31.2817 124.722L31.2042 124.946L31.1344 125.162L31.0722 125.369L31.0175 125.568L30.9704 125.758L30.9307 125.939L30.8985 126.112L30.8736 126.276L30.8561 126.432L30.8459 126.578L30.8429 126.715L30.8471 126.844L30.8584 126.963L30.8768 127.073L30.9021 127.174L30.9345 127.265L30.9737 127.347L31.0197 127.42L31.0725 127.484L31.132 127.537L31.1982 127.582L31.2709 127.617L31.35 127.642L31.4356 127.657L31.5276 127.663L31.6258 127.659L31.7303 127.645L31.8408 127.621L31.9574 127.588L32.08 127.544L32.2085 127.491L32.3428 127.427L32.4828 127.354L32.6285 127.271L32.7797 127.177L32.9364 127.074L33.0985 126.961L33.266 126.837L33.4386 126.704L33.6164 126.56L33.7992 126.406L33.987 126.243L34.1796 126.069L34.377 125.885L34.5791 125.69L34.7858 125.486L34.997 125.272L35.2126 125.047L35.4325 124.813L35.6566 124.568L35.8848 124.314L36.117 124.049L36.3532 123.775L36.5931 123.49L36.8368 123.195L37.0842 122.891L37.335 122.576L37.5893 122.252L37.8469 121.918L38.1077 121.574L38.3716 121.22L38.6386 120.856L38.9085 120.483L39.1812 120.1L39.4566 119.707L39.7347 119.305L40.0153 118.893L40.2983 118.472L40.5836 118.042L40.8711 117.602L41.1607 117.152L41.4523 116.694L41.7458 116.226L42.0412 115.749L42.3382 115.263L42.6368 114.768L42.937 114.265L43.2385 113.752L43.5413 113.23L43.8454 112.7L44.1505 112.161L44.4566 111.614L44.7636 111.058L45.0714 110.494L45.3799 109.922L45.689 109.341L45.9985 108.752L46.3085 108.156L46.6188 107.551L46.9293 106.938L47.2399 106.318L47.5505 105.69L47.8611 105.055L48.1714 104.412L48.4815 103.762L48.7912 103.104L49.1005 102.44L49.4092 101.768L49.7173 101.09L50.0246 100.404L50.3312 99.7125L50.6368 99.014L50.9414 98.3091L51.2449 97.5979L51.5473 96.8805L51.8484 96.157L52.1482 95.4276L52.4466 94.6923L52.7434 93.9513L53.0387 93.2048L53.3323 92.4528L53.6242 91.6955L53.9142 90.9331L54.2023 90.1656L54.4885 89.3931L54.7726 88.6159L55.0546 87.8341L55.3344 87.0477L55.6119 86.257L55.8871 85.4621L56.1598 84.6631L56.4301 83.8602L56.6979 83.0534L56.9631 82.243L57.2255 81.4291L57.4853 80.6119L57.7422 79.7914L57.9963 78.9679L58.2475 78.1414L58.4957 77.3122L58.7409 76.4804L58.983 75.6461L59.222 74.8096L59.4578 73.9708L59.6903 73.1301L59.9196 72.2875L60.1455 71.4432L60.3681 70.5973L60.5872 69.7501L60.8029 68.9017L61.015 68.0522L61.2236 67.2018L61.4287 66.3506L61.6301 65.4988L61.8278 64.6466L62.0219 63.7941L62.2123 62.9414L62.3988 62.0889L62.5816 61.2365L62.7606 60.3844L62.9358 59.5329L63.1071 58.682L63.2745 57.832L63.438 56.983L63.5976 56.1351L63.7532 55.2885L63.9049 54.4434L64.0526 53.6L64.1964 52.7583L64.3361 51.9185L64.4718 51.0809L64.6035 50.2455L64.7312 49.4126L64.8548 48.5822L64.9744 47.7545L65.09 46.9298L65.2015 46.1081L65.309 45.2896L65.4124 44.4744L65.5119 43.6628L65.6073 42.8548L65.6987 42.0507L65.786 41.2505L65.8694 40.4545L65.9488 39.6627L66.0242 38.8753L66.0957 38.0926L66.1632 37.3145L66.2268 36.5414L66.2865 35.7732L66.3423 35.0102L66.3943 34.2526L66.4424 33.5003L66.4867 32.7537L66.5272 32.0129L66.5639 31.2779L66.597 30.5489L66.6263 29.8261L66.652 29.1096L66.674 28.3995L66.6925 27.696L66.7074 26.9992L66.7188 26.3093L66.7267 25.6263L66.7312 24.9504L66.7322 24.2818L66.73 23.6205L66.7244 22.9667L66.7155 22.3204L66.7035 21.682L66.6883 21.0513L66.6699 20.4287L66.6485 19.8141L66.6241 19.2077L66.5968 18.6097L66.5665 18.02L66.5334 17.439L66.4975 16.8665L66.4589 16.3029L66.4176 15.7481L66.3737 15.2023L66.3272 14.6655L66.2782 14.138L66.2268 13.6197L66.1731 13.1108L66.1171 12.6113L66.0588 12.1214L65.9983 11.6412L65.9358 11.1707L65.8713 10.7101L65.8047 10.2593L65.7363 9.81858L65.6661 9.38792L65.5942 8.96742L65.5205 8.55717L65.4453 8.15722L65.3685 7.76767L65.2903 7.38857L65.2108 7.02001L65.1299 6.66203L65.0478 6.31472L64.9646 5.97813L64.8803 5.65232L64.795 5.33736L64.7088 5.03329L64.6217 4.74018L64.534 4.45807L64.4455 4.18701L64.3565 3.92705L64.267 3.67823L64.177 3.4406L64.0867 3.2142L63.9961 2.99906L63.9053 2.79523L63.8145 2.60273L63.7236 2.42159L63.6328 2.25185L63.5422 2.09353L63.4518 1.94666L63.3617 1.81125L63.272 1.68733L63.1828 1.57492L63.0941 1.47402L63.0061 1.38465L62.9189 1.30683L62.8324 1.24055L62.7469 1.18583L62.6623 1.14267L62.5788 1.11106L62.4965 1.09101L62.4154 1.08252L62.3356 1.08557L62.2572 1.10016L62.1802 1.12627L62.1049 1.16391L62.0311 1.21303L61.9591 1.27364L61.8889 1.34571L61.8206 1.42922L61.7542 1.52413L61.6899 1.63044L61.6277 1.7481L61.5676 1.87708L61.5099 2.01735L61.4545 2.16888L61.4015 2.33162L61.3511 2.50554L61.3032 2.69059L61.258 2.88672L61.2154 3.09389L61.1757 3.31206L61.1389 3.54115L61.105 3.78113L61.0741 4.03194L61.0463 4.29352L61.0216 4.5658L61.0002 4.84873L60.982 5.14224L60.9672 5.44626L60.9558 5.76072L60.9479 6.08556L60.9435 6.4207L60.9428 6.76606L60.9457 7.12157L60.9524 7.48715L60.9628 7.86272L60.977 8.2482L60.9952 8.64349L61.0174 9.04852L61.0435 9.46319L61.0737 9.88741L61.108 10.3211L61.1465 10.7642L61.1893 11.2165L61.2362 11.678L61.2875 12.1485L61.3432 12.6281L61.4033 13.1165L61.4678 13.6137L61.5368 14.1195L61.6103 14.6339L61.6884 15.1567L61.7711 15.6879L61.8585 16.2273L61.9505 16.7748L62.0473 17.3302L62.1488 17.8935L62.2551 18.4646L62.3661 19.0433L62.482 19.6296L62.6028 20.2232L62.7284 20.8241L62.859 21.4321L62.9945 22.0471L63.1349 22.669L63.2803 23.2976L63.4307 23.9329L63.5861 24.5747L63.7465 25.2228L63.9119 25.8772L64.0823 26.5376L64.2578 27.204L64.4384 27.8762L64.624 28.5541L64.8146 29.2375L65.0103 29.9263L65.2111 30.6204L65.417 31.3196L65.6279 32.0238L65.8439 32.7328L66.0649 33.4465L66.2909 34.1647L66.522 34.8874L66.7581 35.6143L66.9992 36.3453L67.2453 37.0803L67.4964 37.819L67.7525 38.5615L68.0135 39.3074L68.2794 40.0568L68.5502 40.8093L68.8259 41.5649L69.1064 42.3234L69.3917 43.0847L69.6819 43.8487L69.9768 44.615L70.2764 45.3837L70.5807 46.1546L70.8897 46.9275L71.2032 47.7022L71.5214 48.4786L71.8441 49.2566L72.1713 50.036L72.5029 50.8167L72.839 51.5985L73.1793 52.3812L73.524 53.1647L73.873 53.9489L74.2262 54.7336L74.5835 55.5186L74.9449 56.3038L75.3103 57.089L75.6797 57.8742L76.053 58.6591L76.4302 59.4436L76.8112 60.2276L77.1959 61.0109L77.5843 61.7933L77.9763 62.5747L78.3718 63.355L78.7707 64.134L79.173 64.9116L79.5787 65.6876L79.9875 66.4619L80.3996 67.2343L80.8147 68.0048L81.2328 68.7731L81.6538 69.5391L82.0777 70.3026L82.5043 71.0637L82.9336 71.822L83.3655 72.5774L83.7999 73.33L84.2367 74.0794L84.6759 74.8255L85.1173 75.5683L85.5608 76.3076L86.0063 77.0432L86.4539 77.775L86.9032 78.503L87.3544 79.2269L87.8072 79.9467L88.2616 80.6622L88.7175 81.3734L89.1747 82.0799L89.6333 82.7819L90.0929 83.4791L90.5537 84.1714L91.0154 84.8587L91.478 85.5409L91.9414 86.2178L92.4054 86.8895L92.8699 87.5556L93.3349 88.2163L93.8002 88.8712L94.2657 89.5204L94.7314 90.1637L95.197 90.801L95.6626 91.4322L96.1279 92.0572L96.5929 92.676L97.0574 93.2884L97.5214 93.8943L97.9847 94.4936L98.4472 95.0863L98.9088 95.6722L99.3694 96.2513L99.8289 96.8235L100.287 97.3886L100.744 97.9467L101.199 98.4976L101.653 99.0412L102.105 99.5776L102.556 100.106L103.004 100.628L103.45 101.142L103.894 101.648L104.336 102.147L104.775 102.638L105.212 103.121L105.647 103.596L106.078 104.063L106.507 104.522L106.932 104.973L107.355 105.416L107.774 105.851L108.19 106.278L108.602 106.697L109.011 107.107L109.416 107.509L109.818 107.902L110.215 108.287L110.609 108.664L110.998 109.032L111.383 109.391L111.764 109.742L112.14 110.084L112.511 110.418L112.878 110.743L113.24 111.06L113.597 111.368L113.95 111.667L114.296 111.957L114.638 112.238L114.974 112.511L115.305 112.775L115.631 113.031L115.95 113.277L116.264 113.515L116.572 113.744L116.874 113.964L117.17 114.175L117.459 114.378L117.743 114.572L118.02 114.757L118.29 114.933L118.554 115.1L118.811 115.259L119.062 115.409L119.305 115.55L119.542 115.683L119.772 115.807L119.994 115.922L120.209 116.029L120.417 116.127L120.618 116.216L120.811 116.297L120.997 116.37L121.174 116.434L121.345 116.489L121.507 116.536L121.662 116.575L121.808 116.606L121.947 116.628L122.077 116.642L122.2 116.647L122.314 116.645L122.42 116.635L122.517 116.616L122.606 116.59L122.687 116.555L122.759 116.513L122.822 116.463L122.877 116.405L122.923 116.34L122.96 116.266L122.989 116.186L123.008 116.098L123.019 116.002L123.021 115.899L123.014 115.789L122.997 115.671L122.972 115.547L122.937 115.415L122.894 115.276L122.841 115.13L122.778 114.978L122.707 114.819L122.626 114.653L122.536 114.48L122.437 114.301L122.328 114.116L122.21 113.924L122.083 113.726L121.946 113.522L121.799 113.312L121.643 113.095L121.478 112.873L121.303 112.645L121.119 112.412L120.925 112.172L120.722 111.928L120.509 111.677L120.287 111.422L120.055 111.161L119.814 110.895L119.564 110.624L119.304 110.348L119.034 110.068L118.755 109.782L118.467 109.492L118.169 109.198L117.862 108.899L117.546 108.595L117.22 108.288L116.885 107.976L116.54 107.661L116.187 107.341L115.824 107.018L115.452 106.691L115.071 106.36L114.681 106.026L114.282 105.689L113.874 105.348L113.456 105.004L113.03 104.658L112.595 104.308L112.152 103.955L111.699 103.6L111.238 103.242L110.768 102.882L110.29 102.519L109.803 102.154L109.307 101.787L108.804 101.418L108.292 101.047L107.771 100.674L107.243 100.299L106.706 99.9226L106.162 99.5447L105.609 99.1655L105.049 98.785L104.481 98.4033L103.905 98.0205L103.321 97.6367L102.73 97.2521L102.132 96.8668L101.526 96.4808L100.913 96.0942L100.293 95.7072L99.6658 95.3199L99.0317 94.9323L98.3907 94.5446L97.7429 94.1569L97.0885 93.7693L96.4275 93.3819L95.7601 92.9947L95.0864 92.6079L94.4065 92.2216L93.7204 91.8359L93.0284 91.4508L92.3305 91.0665L91.6268 90.6831L90.9175 90.3007L90.2027 89.9193L89.4824 89.5391L88.7569 89.1601L88.0262 88.7825L87.2905 88.4063L86.5499 88.0316L85.8046 87.6586L85.0546 87.2872L84.3 86.9176L83.5411 86.5499L82.7779 86.1841L82.0106 85.8204L81.2394 85.4588L80.4642 85.0994L79.6854 84.7423L78.903 84.3876L78.1172 84.0353L77.3281 83.6855L76.5358 83.3383L75.7406 82.9937L74.9425 82.6519L74.1416 82.3129L73.3382 81.9768L72.5324 81.6437L71.7243 81.3135L70.914 80.9865L70.1018 80.6626L69.2877 80.3419L68.472 80.0244L67.6547 79.7103L66.836 79.3996L66.0161 79.0924L65.1951 78.7886L64.3732 78.4884L63.5505 78.1918L62.7273 77.8989L61.9035 77.6097L61.0794 77.3243L60.2552 77.0426L59.4309 76.7649L58.6069 76.491L57.7831 76.2211L56.9598 75.9551L56.1371 75.6932L55.3151 75.4353L54.4942 75.1816L53.6742 74.9319L52.8556 74.6864L52.0383 74.4452L51.2226 74.2081L50.4086 73.9753L49.5965 73.7468L48.7864 73.5226L47.9785 73.3027L47.1729 73.0871L46.3698 72.876L45.5693 72.6692L44.7716 72.4668L43.9769 72.2688L43.1853 72.0753L42.397 71.8862L41.612 71.7016L40.8306 71.5214L40.053 71.3458L39.2792 71.1745L38.5094 71.0078L37.7438 70.8456L36.9825 70.6878L36.2257 70.5345L35.4735 70.3857L34.726 70.2414L33.9835 70.1015L33.246 69.9661L32.5137 69.8351L31.7868 69.7086L31.0653 69.5865L30.3495 69.4689L29.6394 69.3556L28.9352 69.2467L28.2371 69.1422L27.5452 69.042L26.8596 68.9462L26.1804 68.8546L25.5078 68.7673L24.842 68.6843L24.183 68.6055L23.531 68.5309L22.8861 68.4604L22.2485 68.3941L21.6182 68.3319L20.9955 68.2737L20.3803 68.2196L19.7729 68.1695L19.1733 68.1233L18.5818 68.081L17.9983 68.0426L17.4231 68.008L16.8562 67.9772L16.2977 67.9501L15.7478 67.9268L15.2065 67.907L14.6741 67.8909L14.1505 67.8783L13.6359 67.8692L13.1304 67.8635L12.6341 67.8613L12.147 67.8623L11.6694 67.8666L11.2012 67.8742L10.7427 67.8849L10.2938 67.8987L9.85461 67.9155L9.42532 67.9353L9.00596 67.958L8.59662 67.9836L8.19739 68.0119L7.80833 68.043L7.42954 68.0767L7.06109 68.1131L6.70304 68.1519L6.35549 68.1932L6.01848 68.2369L5.6921 68.2828L5.3764 68.331L5.07146 68.3814L4.77733 68.4339L4.49407 68.4884L4.22174 68.5448L3.9604 68.6031L3.7101 68.6632L3.47088 68.7251L3.2428 68.7885L3.0259 68.8536L2.82023 68.9201L2.62583 68.988L2.44273 69.0573L2.27098 69.1278L2.11061 69.1995L1.96165 69.2723L1.82413 69.3461L1.69809 69.4208L1.58353 69.4964L1.4805 69.5727L1.38901 69.6498L1.30907 69.7274L1.24071 69.8056L1.18393 69.8842L1.13875 69.9632L1.10519 70.0424L1.08324 70.1219L1.0729 70.2015L1.0742 70.2811L1.08711 70.3606L1.11164 70.44L1.14778 70.5192L1.19553 70.5981L1.25488 70.6767L1.32582 70.7547L1.40832 70.8322L1.50238 70.9091L1.60797 70.9853L1.72508 71.0607L1.85368 71.1352L1.99374 71.2088L2.14524 71.2814L2.30814 71.3528L2.48241 71.423L2.66802 71.492L2.86493 71.5596L3.07309 71.6258L3.29248 71.6905L3.52304 71.7536L3.76472 71.8151L4.01748 71.8748L4.28126 71.9327L4.55602 71.9887L4.8417 72.0428L5.13824 72.0948L5.44557 72.1447L5.76365 72.1924L6.09239 72.2379L6.43175 72.281L6.78164 72.3218L7.142 72.3601L7.51276 72.3958L7.89383 72.4289L8.28516 72.4594L8.68664 72.4872L9.09821 72.5121L9.51978 72.5342L9.95127 72.5533L10.3926 72.5695L10.8437 72.5826L11.3044 72.5926L11.7746 72.5994L12.2544 72.603L12.7435 72.6034L13.2418 72.6003L13.7494 72.5939L14.266 72.584L14.7915 72.5707L15.326 72.5537L15.8691 72.5332L16.421 72.509L16.9813 72.4811L17.5501 72.4495L18.1272 72.4141L18.7124 72.3748L19.3058 72.3316L19.9071 72.2846L20.5162 72.2336L21.1331 72.1785L21.7575 72.1195L22.3894 72.0564L23.0287 71.9891L23.6752 71.9178L24.3287 71.8422L24.9893 71.7625L25.6566 71.6785L26.3306 71.5903L27.0112 71.4978L27.6983 71.401L28.3916 71.2998L29.0911 71.1943L29.7966 71.0845L30.5079 70.9702L31.225 70.8516L31.9477 70.7285L32.6759 70.601L33.4093 70.4691L34.1479 70.3327L34.8916 70.1918L35.6401 70.0465L36.3934 69.8967L37.1512 69.7424L37.9134 69.5836L38.68 69.4204L39.4507 69.2527L40.2253 69.0805L41.0038 68.9038L41.786 68.7226L42.5717 68.537L43.3608 68.3469L44.1531 68.1524L44.9485 67.9535L45.7468 67.7501L46.5479 67.5424L47.3515 67.3302L48.1577 67.1137L48.9661 66.8929L49.7767 66.6677L50.5892 66.4382L51.4036 66.2045L52.2197 65.9665L53.0372 65.7242L53.8562 65.4779L54.6764 65.2273L55.4976 64.9726L56.3197 64.7138L57.1425 64.451L57.966 64.1842L58.7898 63.9134L59.6139 63.6386L60.4382 63.36L61.2624 63.0775L62.0864 62.7912L62.9101 62.5012L63.7333 62.2075L64.5558 61.9101L65.3775 61.6091L66.1983 61.3045L67.0179 60.9965L67.8363 60.6851L68.6532 60.3702L69.4686 60.0521L70.2823 59.7306L71.0941 59.406L71.9039 59.0783L72.7115 58.7474L73.5168 58.4136L74.3197 58.0769L75.1199 57.7373L75.9174 57.3948L76.712 57.0497L77.5036 56.7019L78.292 56.3516L79.077 55.9987L79.8587 55.6434L80.6367 55.2858L81.4109 54.9259L82.1813 54.5638L82.9477 54.1997L83.71 53.8335L84.4679 53.4653L85.2215 53.0953L85.9705 52.7236L86.7148 52.3501L87.4543 51.9751L88.1889 51.5986L88.9185 51.2207L89.6428 50.8414L90.3619 50.4609L91.0755 50.0793L91.7835 49.6967L92.4859 49.313L93.1826 48.9286L93.8733 48.5434L94.558 48.1575L95.2365 47.7711L95.9089 47.3842L96.5748 46.997L97.2343 46.6095L97.8873 46.2218L98.5336 45.8341L99.1731 45.4464L99.8057 45.0589L100.431 44.6717L101.05 44.2848L101.661 43.8983L102.265 43.5124L102.862 43.1272L103.452 42.7428L104.033 42.3593L104.607 41.9767L105.174 41.5953L105.733 41.215L106.283 40.8361L106.826 40.4586L107.361 40.0826L107.888 39.7083L108.406 39.3357L108.916 38.965L109.418 38.5962L109.912 38.2295L110.397 37.865L110.873 37.5028L111.341 37.143L111.8 36.7857L112.251 36.431L112.693 36.0791L113.126 35.73L113.55 35.3838L113.965 35.0407L114.371 34.7008L114.768 34.3641L115.156 34.0309L115.536 33.7011L115.905 33.3749L116.266 33.0524L116.618 32.7338L116.96 32.419L117.293 32.1083L117.617 31.8017L117.931 31.4994L118.236 31.2013L118.532 30.9078L118.818 30.6187L119.095 30.3344L119.362 30.0547L119.62 29.78L119.869 29.5101L120.108 29.2454L120.337 28.9857L120.557 28.7314L120.768 28.4824L120.969 28.2388L121.161 28.0007L121.343 27.7683L121.516 27.5417L121.679 27.3208L121.832 27.1059L121.977 26.897L122.112 26.6941L122.237 26.4975L122.353 26.3071L122.46 26.1231L122.557 25.9456L122.645 25.7745L122.724 25.6101L122.793 25.4524L122.853 25.3014L122.904 25.1573L122.946 25.0202L122.978 24.89L123.002 24.7669L123.016 24.6511L123.021 24.5424L123.018 24.441L123.005 24.347L122.983 24.2605L122.953 24.1815L122.914 24.11L122.866 24.0462L122.809 23.9901L122.744 23.9418L122.67 23.9012L122.587 23.8686L122.496 23.8439L122.397 23.8272L122.289 23.8185L122.173 23.818L122.049 23.8256L121.917 23.8413L121.776 23.8654L121.628 23.8977L121.472 23.9383L121.308 23.9873L121.136 24.0447L120.956 24.1105L120.769 24.1849L120.574 24.2677L120.372 24.3591L120.162 24.4591L119.945 24.5677L119.721 24.6849L119.49 24.8107L119.252 24.9452L119.007 25.0885L118.755 25.2404L118.496 25.4011L118.231 25.5705L117.959 25.7486L117.68 25.9356L117.395 26.1313L117.104 26.3358L116.807 26.5491L116.504 26.7712L116.195 27.002L115.88 27.2417L115.559 27.4901L115.232 27.7474L114.9 28.0134L114.563 28.2881L114.22 28.5717L113.872 28.8639L113.519 29.1649L113.16 29.4746L112.797 29.7929L112.429 30.12L112.057 30.4556L111.68 30.7999L111.298 31.1528L110.912 31.5142L110.522 31.8842L110.127 32.2626L109.729 32.6495L109.327 33.0448L108.921 33.4485L108.511 33.8605L108.098 34.2808L107.681 34.7093L107.261 35.1461L106.838 35.591L106.412 36.0439L105.982 36.5049L105.55 36.9739L105.116 37.4508L104.678 37.9356L104.238 38.4282L103.796 38.9285L103.351 39.4365L102.905 39.952L102.456 40.4752L102.005 41.0057L101.553 41.5437L101.098 42.0889L100.643 42.6414L100.186 43.2011L99.727 43.7678L99.2672 44.3415L98.8064 44.9221L98.3446 45.5096L97.8819 46.1037L97.4184 46.7045L96.9543 47.3119L96.4897 47.9257L96.0246 48.5459L95.5592 49.1723L95.0936 49.8049L94.628 50.4435L94.1624 51.0881L93.6969 51.7386L93.2316 52.3948L92.7667 53.0566L92.3023 53.724L91.8384 54.3969L91.3753 55.075L90.9128 55.7583L90.4513 56.4468L89.9908 57.1402L89.5313 57.8384L89.0731 58.5414L88.6161 59.249L88.1606 59.9611L87.7065 60.6776L87.2541 61.3983L86.8033 62.1231L86.3543 62.852L85.9072 63.5847L85.4621 64.3211L85.0191 65.0612L84.5782 65.8047L84.1396 66.5516L83.7033 67.3017L83.2694 68.0549L82.8381 68.811L82.4094 69.5699L81.9834 70.3315L81.5601 71.0957L81.1397 71.8622L80.7223 72.631L80.3078 73.4019L79.8965 74.1747L79.4883 74.9494L79.0834 75.7258L78.6818 76.5037L78.2836 77.283L77.8889 78.0635L77.4978 78.8452L77.1102 79.6278L76.7263 80.4113L76.3462 81.1954L75.9698 81.98L75.5974 82.765L75.2288 83.5501L74.8643 84.3354L74.5038 85.1206L74.1474 85.9055L73.7951 86.6901L73.4471 87.4742L73.1034 88.2575L72.764 89.04L72.4289 89.8216L72.0982 90.602L71.7721 91.3811L71.4504 92.1587L71.1332 92.9348L70.8207 93.7091L70.5127 94.4816L70.2095 95.252L69.9109 96.0202L69.617 96.786L69.328 97.5494L69.0437 98.3101L68.7642 99.068L68.4896 99.8229L68.2199 100.575L67.9551 101.323L67.6952 102.069L67.4402 102.81L67.1903 103.548L66.9453 104.282L66.7053 105.012L66.4703 105.738L66.2403 106.46L66.0154 107.177L65.7955 107.89L65.5806 108.598L65.3708 109.301L65.1661 109.999L64.9665 110.692L64.7719 111.38L64.5823 112.062L64.3978 112.738L64.2184 113.409L64.044 114.074L63.8747 114.734L63.7104 115.386L63.5511 116.033L63.3969 116.674L63.2476 117.307L63.1033 117.935L62.964 118.555L62.8296 119.168L62.7001 119.775L62.5756 120.374L62.4559 120.966L62.341 121.551L62.231 122.128L62.1258 122.697L62.0254 123.259L61.9297 123.812L61.8387 124.358L61.7524 124.896L61.6707 125.425L61.5936 125.946L61.5211 126.458L61.4531 126.962L61.3896 127.458L61.3305 127.944L61.2758 128.422L61.2254 128.89L61.1794 129.35L61.1376 129.8L61.1001 130.241L61.0666 130.672L61.0373 131.095L61.0121 131.507L60.9909 131.91L60.9735 132.303L60.9601 132.686L60.9505 133.06L60.9447 133.423L60.9426 133.776L60.9442 134.119L60.9494 134.452L60.958 134.775L60.9702 135.087L60.9858 135.389L61.0047 135.68L61.0268 135.96L61.0522 136.23L61.0807 136.49L61.1122 136.738L61.1468 136.975L61.1843 137.202L61.2246 137.418L61.2678 137.623L61.3136 137.816L61.3621 137.999L61.4131 138.17L61.4666 138.331L61.5225 138.48L61.5808 138.617L61.6413 138.744L61.704 138.859L61.7688 138.963L61.8356 139.055L61.9043 139.136L61.9749 139.206L62.0474 139.264L62.1215 139.31L62.1972 139.345L62.2744 139.369L62.3532 139.381L62.4333 139.381L62.5147 139.37L62.5973 139.348L62.681 139.314L62.7658 139.268L62.8516 139.211L62.9382 139.142L63.0256 139.061L63.1138 138.969L63.2025 138.866L63.2919 138.751L63.3817 138.625L63.4718 138.487L63.5623 138.337L63.653 138.176L63.7438 138.004L63.8347 137.82L63.9255 137.625L64.0162 137.419L64.1067 137.201L64.197 136.972L64.2869 136.732L64.3763 136.481L64.4652 136.219L64.5535 135.945L64.6411 135.661L64.728 135.365L64.814 135.058L64.8991 134.741L64.9831 134.413L65.0661 134.074L65.148 133.724L65.2286 133.364L65.3078 132.993L65.3857 132.612L65.4621 132.22L65.537 131.817L65.6103 131.405L65.6819 130.982L65.7517 130.549L65.8197 130.106L65.8858 129.653L65.9499 129.191L66.012 128.718L66.0719 128.235L66.1297 127.743L66.1852 127.242L66.2385 126.731L66.2893 126.211L66.3377 125.681L66.3836 125.142L66.427 124.594L66.4677 124.038L66.5057 123.472L66.541 122.898L66.5735 122.315L66.6031 121.723L66.6298 121.123L66.6536 120.515L66.6743 119.899L66.6919 119.274L66.7064 118.642L66.7178 118.002L66.7259 117.354L66.7308 116.698L66.7323 116.035L66.7305 115.365L66.7252 114.687L66.7165 114.003L66.7044 113.311L66.6887 112.613L66.6695 111.908L66.6466 111.197L66.6201 110.479L66.59 109.755L66.5561 109.024L66.5185 108.288L66.4772 107.546L66.432 106.798L66.383 106.045L66.3302 105.286L66.2736 104.522L66.213 103.752L66.1485 102.978L66.0802 102.199L66.0078 101.415L65.9315 100.627L65.8512 99.834L65.767 99.037L65.6787 98.2359L65.5864 97.4309L65.4901 96.6221L65.3898 95.8097L65.2855 94.9938L65.1771 94.1746L65.0647 93.3522L64.9482 92.5268L64.8277 91.6985L64.7032 90.8675L64.5746 90.034L64.442 89.1981L64.3054 88.36L64.1648 87.5198L64.0202 86.6777L63.8716 85.8339L63.719 84.9885L63.5625 84.1416L63.4021 83.2934L63.2377 82.4442L63.0694 81.5939L62.8972 80.7429L62.7212 79.8913L62.5414 79.0391L62.3577 78.1867L62.1703 77.3341L61.9791 76.4815L61.7843 75.629L61.5857 74.7769L61.3835 73.9252L61.1776 73.0742L60.9682 72.224L60.7553 71.3747L60.5388 70.5265L60.3189 69.6796L60.0956 68.8341L59.8689 67.9901L59.639 67.1479L59.4057 66.3076L59.1692 65.4693L58.9295 64.6332L58.6867 63.7995L58.4409 62.9683L58.192 62.1396L57.9401 61.3138L57.6854 60.491L57.4278 59.6712L57.1675 58.8547L56.9044 58.0416L56.6387 57.232L56.3703 56.4261L56.0995 55.624L55.8262 54.8259L55.5505 54.0319L55.2724 53.2421L54.9922 52.4568L54.7097 51.6759L54.4251 50.8998L54.1385 50.1284L53.85 49.362L53.5595 48.6007L53.2673 47.8446L52.9733 47.0938L52.6777 46.3485L52.3805 45.6088L52.0818 44.8748L51.7817 44.1467L51.4803 43.4245L51.1776 42.7085L50.8739 41.9987L50.569 41.2952L50.2632 40.5982L49.9565 39.9077L49.6489 39.224L49.3407 38.547L49.0319 37.877L48.7225 37.214L48.4127 36.5582L48.1025 35.9096L47.7921 35.2684L47.4816 34.6346L47.1709 34.0083L46.8604 33.3898L46.5499 32.779L46.2397 32.176L45.9298 31.581L45.6203 30.994L45.3113 30.4152L45.003 29.8446L44.6953 29.2823L44.3885 28.7284L44.0826 28.183L43.7778 27.6461L43.474 27.1179L43.1715 26.5984L42.8702 26.0877L42.5704 25.5858L42.2721 25.0929L41.9755 24.609L41.6805 24.1342L41.3874 23.6685L41.0962 23.212L40.807 22.7648L40.52 22.3269L40.2352 21.8984L39.9528 21.4793L39.6727 21.0697L39.3953 20.6696L39.1204 20.2792L38.8483 19.8983L38.5791 19.5272L38.3128 19.1657L38.0495 18.8141L37.7894 18.4722L37.5325 18.1401L37.279 17.8179L37.0289 17.5057L36.7824 17.2033L36.5395 16.9109L36.3004 16.6285L36.0651 16.356L35.8338 16.0936L35.6065 15.8412L35.3833 15.5989L35.1644 15.3667L34.9497 15.1445L34.7395 14.9324L34.5339 14.7304L34.3328 14.5385L34.1364 14.3568L33.9449 14.1851L33.7582 14.0235L33.5765 13.872L33.3998 13.7306L33.2283 13.5993L33.0621 13.4781L32.9012 13.3669L32.7457 13.2658L32.5956 13.1747L32.4512 13.0936L32.3125 13.0226L32.1795 12.9614L32.0523 12.9103L31.931 12.869L31.8158 12.8377L31.7066 12.8161L31.6035 12.8045L31.5066 12.8026L31.4161 12.8104L31.3319 12.828L31.2542 12.8552L31.1829 12.8921L31.1182 12.9385L31.0602 12.9945L31.0089 13.06L30.9644 13.1349L30.9267 13.2191L30.8959 13.3127L30.8721 13.4156L30.8553 13.5277L30.8455 13.649L30.8429 13.7793L30.8475 13.9187L30.8594 14.067L30.8785 14.2242L30.905 14.3902L30.9389 14.565L30.9802 14.7485L31.029 14.9406L31.0853 15.1412L31.1492 15.3503L31.2207 15.5677L31.2999 15.7935L31.3867 16.0274L31.4813 16.2695L31.5836 16.5196L31.6938 16.7777L31.8117 17.0436L31.9375 17.3173L32.0711 17.5988L32.2127 17.8878L32.3621 18.1843L32.5196 18.4882L32.6849 18.7994L32.8583 19.1179L33.0396 19.4434L33.2289 19.776L33.4263 20.1155L33.6316 20.4617L33.845 20.8147L34.0665 21.1743L34.296 21.5404L34.5335 21.9129L34.7791 22.2917L35.0327 22.6766L35.2944 23.0677L35.5641 23.4646L35.8418 23.8674L36.1275 24.2759L36.4213 24.6901L36.723 25.1097L37.0327 25.5347L37.3503 25.965L37.6759 26.4005L38.0095 26.841L38.3508 27.2864L38.7001 27.7366L39.0572 28.1914L39.4222 28.6509L39.7948 29.1148L40.1753 29.583L40.5634 30.0554L40.9593 30.5318L41.3627 31.0123L41.7738 31.4965L42.1924 31.9845L42.6185 32.4761L43.052 32.9711L43.493 33.4694L43.9413 33.971L44.397 34.4757L44.8599 34.9833L45.3299 35.4937L45.8071 36.0069L46.2914 36.5227L46.7827 37.0409L47.2809 37.5615L47.7861 38.0843L48.298 38.6092L48.8167 39.1361L49.342 39.6648L49.874 40.1952L50.4125 40.7272L50.9574 41.2607L51.5087 41.7955L52.0662 42.3316L52.63 42.8687L53.1999 43.4069L53.7759 43.9459L54.3577 44.4856L54.9455 45.0259L55.539 45.5667L56.1382 46.1079L56.743 46.6494L57.3532 47.1909L57.9689 47.7325L58.5898 48.274L59.2159 48.8152L59.8471 49.3561L60.4833 49.8965L61.1244 50.4364L61.7703 50.9755L62.4208 51.5139L63.0759 52.0513L63.7354 52.5877L64.3992 53.123L65.0673 53.6569L65.7395 54.1896L66.4156 54.7207L67.0957 55.2503L67.7795 55.7781L68.4669 56.3042L69.1578 56.8283L69.8522 57.3505L70.5498 57.8705L71.2505 58.3883L71.9542 58.9038L72.6609 59.4169L73.3703 59.9274L74.0823 60.4353L74.7969 60.9406L75.5138 61.443L76.2329 61.9425L76.9542 62.439L77.6774 62.9325L78.4025 63.4227L79.1292 63.9097L79.8576 64.3934L80.5873 64.8736L81.3184 65.3502L82.0506 65.8233L82.7838 66.2927L83.518 66.7583L84.2528 67.22L84.9882 67.6778L85.7241 68.1317L86.4603 68.5814L87.1967 69.027L87.9331 69.4683L88.6694 69.9054L89.4054 70.3381L90.141 70.7664L90.8761 71.1901L91.6104 71.6093L92.3439 72.0239L93.0765 72.4338L93.8079 72.839L94.538 73.2393L95.2667 73.6348L95.9939 74.0254L96.7193 74.411L97.4429 74.7916L98.1644 75.1672L98.8838 75.5376L99.6009 75.9029L100.316 76.2629L101.028 76.6177L101.737 76.9673L102.443 77.3115L103.147 77.6503L103.847 77.9838L104.544 78.3118L105.238 78.6343L105.928 78.9514L106.614 79.2629L107.296 79.5689L107.974 79.8693L108.648 80.1641L109.318 80.4533L109.983 80.7369L110.644 81.0148L111.3 81.287L111.951 81.5535L112.597 81.8143L113.238 82.0694L113.873 82.3188L114.504 82.5625L115.128 82.8004L115.747 83.0326L116.36 83.259L116.967 83.4797L117.569 83.6946L118.163 83.9038L118.752 84.1073L119.334 84.305L119.909 84.4971L120.478 84.6833L121.04 84.8639L121.594 85.0388L122.142 85.2081L122.683 85.3716L123.216 85.5295L123.741 85.6818L124.26 85.8285L124.77 85.9696L125.272 86.1052L125.767 86.2352L126.254 86.3597L126.732 86.4788L127.202 86.5924L127.664 86.7006L128.117 86.8034L128.562 86.9008L128.998 86.993L129.426 87.0799L129.844 87.1615L130.253 87.238L130.654 87.3093L131.045 87.3755L131.427 87.4366L131.799 87.4927L132.162 87.5439L132.516 87.5901L132.86 87.6315L133.194 87.668L133.518 87.6998L133.833 87.7269L134.137 87.7493L134.432 87.7671L134.716 87.7803L134.991 87.7891L135.255 87.7935H135.508L135.752 87.7892L135.985 87.7806L136.207 87.7679L136.419 87.7511L136.62 87.7302L136.811 87.7054L136.991 87.6766L137.16 87.6441L137.318 87.6077L137.465 87.5677L137.601 87.524L137.727 87.4768L137.841 87.4261L137.945 87.3719L138.037 87.3145L138.118 87.2538L138.188 87.19L138.247 87.123L138.294 87.053L138.331 86.9801L138.356 86.9043L138.369 86.8257L138.372 86.7444L138.363 86.6605L138.343 86.5741L138.311 86.4852L138.268 86.3939L138.214 86.3003L138.149 86.2045L138.072 86.1066L137.983 86.0066L137.884 85.9047L137.773 85.8009L137.65 85.6953L137.516 85.588L137.371 85.4791L137.215 85.3687L137.047 85.2568L136.868 85.1435L136.678 85.029L136.476 84.9132L136.263 84.7964L136.04 84.6786L135.804 84.5598L135.558 84.4401L135.301 84.3197L135.033 84.1987L134.753 84.077L134.463 83.9548L134.161 83.8322L133.849 83.7093L133.526 83.5861L133.192 83.4628L132.848 83.3393L132.493 83.2159L132.127 83.0926L131.75 82.9694L131.364 82.8465L130.966 82.7239L130.558 82.6017L130.14 82.48L129.712 82.359L129.274 82.2385L128.825 82.1188L128.367 82L127.898 81.882L127.42 81.765L126.932 81.649L126.434 81.5342L125.927 81.4206L125.41 81.3083L124.884 81.1973L124.348 81.0878L123.803 80.9798L123.249 80.8733L122.686 80.7685L122.114 80.6654L121.533 80.5641L120.944 80.4647L120.346 80.3672L119.739 80.2717L119.124 80.1782L118.5 80.0869L117.869 79.9977L117.229 79.9108L116.582 79.8262L115.926 79.744L115.263 79.6642L114.592 79.587L113.914 79.5122L113.229 79.4401L112.536 79.3706L111.836 79.3039L111.129 79.2399L110.415 79.1788L109.695 79.1205L108.968 79.0651L108.235 79.0127L107.495 78.9633L106.749 78.917L105.997 78.8738L105.239 78.8337L104.476 78.7968L103.706 78.7631L102.932 78.7328L102.152 78.7057L101.367 78.6819L100.576 78.6615L99.7813 78.6446L98.9814 78.6311L98.177 78.621L97.3682 78.6144L96.555 78.6114L95.7377 78.6119L94.9164 78.616L94.0913 78.6237L93.2625 78.635L92.4302 78.6499L91.5945 78.6685L90.7556 78.6908L89.9136 78.7168L89.0687 78.7465L88.2211 78.7798L87.3709 78.8169L86.5183 78.8578L85.6633 78.9024L84.8063 78.9507L83.9473 79.0028L83.0866 79.0587L82.2242 79.1183L81.3603 79.1816L80.4951 79.2487L79.6288 79.3196L78.7615 79.3942L77.8934 79.4726L77.0245 79.5546L76.1552 79.6405L75.2856 79.73L74.4158 79.8232L73.5459 79.9201L72.6762 80.0207L71.8068 80.1249L70.9378 80.2328L70.0695 80.3442L69.202 80.4593L68.3354 80.5779L67.4699 80.7001L66.6057 80.8258L65.7429 80.9549L64.8817 81.0876L64.0222 81.2236L63.1646 81.363L62.3091 81.5058L61.4558 81.652L60.6048 81.8014L59.7564 81.954L58.9107 82.1099L58.0678 82.2689L57.2279 82.4311L56.3911 82.5963L55.5576 82.7646L54.7276 82.9358L53.9012 83.11L53.0785 83.2871L52.2597 83.467L51.445 83.6496L50.6344 83.8351L49.8282 84.0232L49.0264 84.2139L48.2293 84.4071L47.437 84.6029L46.6495 84.8011L45.8671 85.0017L45.0899 85.2046L44.3181 85.4098L43.5516 85.6171L42.7908 85.8266L42.0357 86.0381L41.2865 86.2516L40.5433 86.467L39.8062 86.6843L39.0753 86.9033L38.3509 87.124L37.6329 87.3464L36.9216 87.5703L36.2171 87.7956L35.5194 88.0224L34.8287 88.2505L34.1451 88.4798L33.4688 88.7103L32.7998 88.9419L32.1383 89.1745L31.4843 89.4079L30.838 89.6423L30.1996 89.8773L29.569 90.1131L28.9464 90.3494L28.3319 90.5862L27.7256 90.8234L27.1276 91.0609L26.5381 91.2987L25.957 91.5365L25.3845 91.7745L24.8207 92.0124L24.2657 92.2502L23.7195 92.4877L23.1823 92.725L22.6541 92.9619L22.135 93.1982L21.6251 93.434L21.1245 93.6691L20.6332 93.9034L20.1514 94.1368L19.679 94.3693L19.2162 94.6007L18.763 94.831L18.3195 95.06L17.8858 95.2877L17.4618 95.514L17.0478 95.7387L16.6437 95.9618L16.2495 96.1832L15.8654 96.4027L15.4914 96.6204L15.1276 96.836L14.7739 97.0495L14.4304 97.2609L14.0973 97.4699L13.7744 97.6765L13.4618 97.8807L13.1597 98.0823L12.8679 98.2812L12.5866 98.4773L12.3158 98.6706L12.0555 98.8609L11.8057 99.0482L11.5664 99.2323L11.3377 99.4132L11.1196 99.5908L10.912 99.7649L10.7151 99.9356L10.5288 100.103L10.3531 100.266L10.188 100.425L10.0335 100.581L9.88973 100.733L9.75656 100.881L9.63401 101.024L9.52209 101.163L9.42078 101.298L9.33008 101.429L9.24997 101.555L9.18044 101.677L9.12147 101.794L9.07305 101.906L9.03515 102.013L9.00775 102.116L8.99082 102.213L8.98435 102.306L8.98829 102.393L9.00262 102.475L9.0273 102.552L9.06229 102.624L9.10757 102.69L9.16308 102.75L9.2288 102.805L9.30466 102.855L9.39063 102.898L9.48666 102.936L9.5927 102.969L9.70869 102.995L9.83459 103.015L9.97033 103.029L10.1159 103.037L10.2711 103.039L10.436 103.035L10.6106 103.024L10.7946 103.008L10.9882 102.984L11.1911 102.955L11.4033 102.918L11.6249 102.876L11.8555 102.827L12.0953 102.771L12.3442 102.708L12.6019 102.639L12.8686 102.563L13.144 102.48L13.4281 102.39L13.7208 102.294L14.022 102.19L14.3317 102.08L14.6497 101.963L14.976 101.838L15.3104 101.707L15.6528 101.568L16.0033 101.423L16.3616 101.27L16.7276 101.11L17.1013 100.943L17.4826 100.769L17.8713 100.588L18.2673 100.399L18.6706 100.203L19.0811 100L19.4985 99.79L19.9229 99.5724L20.3541 99.3476L20.7919 99.1156L21.2364 98.8762L21.6873 98.6296L22.1445 98.3758L22.608 98.1146L23.0775 97.8462L23.5531 97.5706L24.0346 97.2877L24.5217 96.9976L25.0146 96.7002L25.5129 96.3956L26.0166 96.0839L26.5256 95.765L27.0397 95.4389L27.5588 95.1057L28.0828 94.7653L28.6116 94.4179L29.145 94.0635L29.6829 93.702L30.2252 93.3335L30.7717 92.958L31.3224 92.5757L31.877 92.1864L32.4355 91.7903L32.9978 91.3873L33.5636 90.9776L34.1329 90.5612L34.7055 90.1381L35.2814 89.7084L35.8603 89.2721L36.4421 88.8292L37.0268 88.3799L37.6141 87.9242L38.204 87.4621L38.7963 86.9937L39.3909 86.519L39.9876 86.0382L40.5864 85.5512L41.187 85.0583L41.7893 84.5593L42.3933 84.0544L42.9988 83.5437L43.6056 83.0272L44.2137 82.505L44.8228 81.9772L45.4329 81.4439L46.0439 80.9051L46.6555 80.3609L47.2677 79.8115L47.8804 79.2568L48.4933 78.697L49.1065 78.1322L49.7197 77.5624L50.3328 76.9878L50.9457 76.4085L51.5583 75.8244L52.1705 75.2358L52.782 74.6428L53.3929 74.0453L54.003 73.4436L54.6121 72.8377L55.2201 72.2277L55.8269 71.6138L56.4325 70.996L57.0366 70.3745L57.6391 69.7493L58.24 69.1206L58.8391 68.4885L59.4363 67.853L60.0315 67.2144L60.6245 66.5727L61.2153 65.928L61.8038 65.2804L62.3898 64.6302L62.9732 63.9773L63.5539 63.3219L64.1318 62.6642L64.7069 62.0042L65.2789 61.3421L65.8478 60.678L66.4136 60.012L66.976 59.3442L67.535 58.6749L68.0904 58.004L68.6423 57.3318L69.1905 56.6583L69.7349 55.9838L70.2753 55.3082L70.8118 54.6319L71.3443 53.9548L71.8725 53.2771L72.3965 52.599L72.9162 51.9206L73.4315 51.242L73.9422 50.5633L74.4484 49.8848L74.9499 49.2065L75.4466 48.5286L75.9386 47.8511L76.4256 47.1743L76.9077 46.4983L77.3847 45.8232L77.8566 45.1492L78.3233 44.4764L78.7848 43.8049L79.241 43.1349L79.6917 42.4665L80.1371 41.7998L80.5769 41.1351L81.0112 40.4723L81.4399 39.8118L81.8629 39.1536L82.2802 38.4978L82.6917 37.8446L83.0974 37.1941L83.4972 36.5465L83.891 35.9019L84.279 35.2605L84.6609 34.6223L85.0367 33.9876L85.4065 33.3564L85.7702 32.729L86.1277 32.1054L86.479 31.4857L86.824 30.8702L87.1628 30.2589L87.4954 29.6519L87.8216 29.0495L88.1415 28.4518L88.455 27.8588L88.7622 27.2708L89.0629 26.6878L89.3572 26.11L89.6451 25.5375L89.9266 24.9704L90.2016 24.4089L90.4701 23.8531L90.7322 23.3032L90.9877 22.7592L91.2368 22.2212L91.4794 21.6895L91.7155 21.1641L91.9451 20.6452L92.1682 20.1329L92.3849 19.6272L92.595 19.1284L92.7987 18.6365L92.9959 18.1516L93.1867 17.6739L93.371 17.2035L93.5489 16.7405L93.7204 16.285L93.8855 15.8372L94.0443 15.397L94.1967 14.9647L94.3428 14.5404L94.4825 14.1241L94.616 13.7159L94.7433 13.3161L94.8643 12.9245L94.9791 12.5415L95.0878 12.167L95.1904 11.8012L95.2869 11.4441L95.3774 11.0958L95.4618 10.7565L95.5403 10.4262L95.6128 10.1051L95.6795 9.79311L95.7403 9.49044L95.7953 9.19713L95.8446 8.91329L95.8883 8.63897L95.9262 8.37426L95.9586 8.11924L95.9854 7.87398L96.0068 7.63855L96.0227 7.41303L96.0332 7.19748L96.0385 6.99196L96.0385 6.79655L96.0332 6.6113L96.0229 6.43628L96.0075 6.27155L95.9871 6.11715L95.9618 5.97315L95.9315 5.8396L95.8965 5.71655L95.8568 5.60404L95.8124 5.50213L95.7634 5.41085L95.7098 5.33025L95.6519 5.26037L95.5895 5.20125L95.5229 5.15292L95.452 5.11542L95.377 5.08877L95.2979 5.073L95.2148 5.06815L95.1278 5.07423L95.0369 5.09128L94.9423 5.1193L94.8441 5.15832L94.7422 5.20835L94.6368 5.26941L94.528 5.3415L94.4159 5.42464L94.3005 5.51883L94.1819 5.62407L94.0603 5.74038L93.9356 5.86774L93.808 6.00615L93.6776 6.15562L93.5445 6.31613L93.4087 6.48767L93.2703 6.67024L93.1295 6.86381L92.9862 7.06837L92.8407 7.2839L92.6929 7.51039L92.5431 7.74781L92.3912 7.99612L92.2373 8.25532L92.0816 8.52536L91.9241 8.8062L91.765 9.09783L91.6043 9.4002L91.442 9.71327L91.2784 10.037L91.1135 10.3714L90.9473 10.7163L90.78 11.0717L90.6116 11.4376L90.4424 11.814L90.2722 12.2007L90.1013 12.5977L89.9296 13.0049L89.7574 13.4224L89.5847 13.8499L89.4115 14.2876L89.238 14.7352L89.0643 15.1927L88.8904 15.6601L88.7164 16.1373L88.5425 16.6242L88.3686 17.1206L88.1949 17.6267L88.0215 18.1421L87.8485 18.667L87.6759 19.2011L87.5038 19.7445L87.3323 20.2969L87.1615 20.8584L86.9914 21.4288L86.8223 22.008L86.654 22.596L86.4867 23.1925L86.3206 23.7976L86.1555 24.4112L85.9918 25.033L85.8293 25.6631L85.6682 26.3012L85.5086 26.9473L85.3505 27.6014L85.1941 28.2632L85.0393 28.9326L84.8862 29.6096L84.735 30.2939L84.5857 30.9856L84.4383 31.6845L84.2929 32.3903L84.1496 33.1031L84.0085 33.8228L83.8696 34.549L83.733 35.2818L83.5987 36.021L83.4667 36.7665L83.3373 37.5181L83.2103 38.2757L83.0859 39.0392L82.9642 39.8085L82.8451 40.5833L82.7287 41.3635L82.6151 42.1491L82.5044 42.9398L82.3965 43.7356L82.2915 44.5362L82.1895 45.3416L82.0906 46.1515L81.9946 46.9659L81.9018 47.7846L81.8121 48.6074L81.7256 49.4342L81.6423 50.2649L81.5622 51.0992L81.4854 51.9371L81.412 52.7783L81.3419 53.6228L81.2751 54.4703L81.2118 55.3207L81.1519 56.1739L81.0955 57.0297L81.0425 57.888L80.9931 58.7485L80.9472 59.6111L80.9048 60.4757L80.866 61.3422L80.8307 62.2102L80.7991 63.0797L80.7711 63.9506L80.7467 64.8226L80.7259 65.6957L80.7088 66.5695L80.6953 67.4441L80.6855 68.3191L80.6793 69.1945L80.6768 70.0702" stroke="#FFC700" stroke-width="0.8"/>
</svg>
