<svg width="139" height="142" viewBox="0 0 139 142" fill="none" xmlns="http://www.w3.org/2000/svg">
<path d="M137.9 71.037L137.898 70.9469L137.893 70.8569L137.885 70.7669L137.873 70.6768L137.859 70.5868L137.841 70.4967L137.819 70.4066L137.795 70.3165L137.767 70.2264L137.736 70.1363L137.701 70.0461L137.664 69.9559L137.623 69.8657L137.578 69.7755L137.531 69.6852L137.48 69.5949L137.426 69.5046L137.369 69.4142L137.308 69.3238L137.245 69.2334L137.178 69.1429L137.107 69.0523L137.034 68.9617L136.957 68.8711L136.877 68.7804L136.794 68.6896L136.708 68.5988L136.618 68.508L136.525 68.417L136.429 68.326L136.33 68.235L136.227 68.1439L136.121 68.0527L136.013 67.9614L135.901 67.8701L135.785 67.7786L135.667 67.6871L135.545 67.5956L135.421 67.5039L135.293 67.4122L135.162 67.3204L135.027 67.2285L134.89 67.1365L134.75 67.0444L134.606 66.9522L134.459 66.8599L134.309 66.7676L134.156 66.6751L134 66.5825L133.841 66.4899L133.679 66.3971L133.514 66.3042L133.345 66.2112L133.174 66.1181L133 66.025L132.822 65.9316L132.642 65.8382L132.458 65.7447L132.272 65.651L132.082 65.5573L131.889 65.4634L131.694 65.3693L131.495 65.2752L131.294 65.181L131.09 65.0866L130.882 64.9921L130.672 64.8974L130.459 64.8027L130.243 64.7078L130.024 64.6127L129.802 64.5176L129.577 64.4223L129.349 64.3269L129.119 64.2313L128.885 64.1356L128.649 64.0398L128.41 63.9438L128.168 63.8477L127.923 63.7514L127.676 63.655L127.426 63.5585L127.173 63.4618L126.917 63.3649L126.659 63.268L126.397 63.1708L126.133 63.0736L125.867 62.9761L125.598 62.8786L125.326 62.7808L125.051 62.683L124.774 62.5849L124.494 62.4868L124.211 62.3884L123.926 62.29L123.638 62.1913L123.348 62.0925L123.055 61.9936L122.76 61.8945L122.462 61.7953L122.161 61.6959L121.858 61.5963L121.553 61.4966L121.245 61.3967L120.934 61.2967L120.621 61.1965L120.306 61.0962L119.988 60.9957L119.668 60.895L119.346 60.7942L119.021 60.6933L118.694 60.5921L118.364 60.4909L118.032 60.3895L117.698 60.2879L117.362 60.1861L117.023 60.0842L116.682 59.9822L116.339 59.88L115.993 59.7776L115.645 59.6751L115.296 59.5725L114.944 59.4697L114.589 59.3667L114.233 59.2636L113.875 59.1604L113.514 59.0569L113.152 58.9534L112.787 58.8497L112.42 58.7458L112.051 58.6419L111.681 58.5377L111.308 58.4334L110.933 58.329L30.5908 39.9951L30.2083 39.9268L29.8276 39.8592L29.4487 39.7923L29.0717 39.7261L28.6967 39.6607L28.3235 39.5961L27.9523 39.5322L27.583 39.4691L27.2156 39.4068L26.8503 39.3452L26.4869 39.2845L26.1256 39.2246L25.7662 39.1654L25.4089 39.1071L25.0537 39.0496L24.7005 38.9929L24.3495 38.9371L24.0005 38.8821L23.6536 38.8279L23.3089 38.7746L22.9663 38.7222L22.6259 38.6706L22.2876 38.6199L21.9516 38.5701L21.6177 38.5212L21.2861 38.4731L20.9567 38.426L20.6295 38.3798L20.3046 38.3345L19.982 38.2901L19.6616 38.2466L19.3436 38.2041L19.0279 38.1625L18.7145 38.1219L18.4034 38.0822L18.0947 38.0435L17.7884 38.0058L17.4844 37.969L17.1829 37.9332L16.8837 37.8984L16.587 37.8646L16.2927 37.8318L16.0008 37.8L15.7114 37.7693L15.4244 37.7395L15.14 37.7108L14.858 37.6831L14.5785 37.6564L14.3015 37.6308L14.0271 37.6062L13.7551 37.5827L13.4858 37.5603L13.219 37.5389L12.9547 37.5186L12.693 37.4994L12.4339 37.4813L12.1774 37.4643L11.9236 37.4484L11.6723 37.4335L11.4237 37.4198L11.1776 37.4073L10.9343 37.3958L10.6936 37.3855L10.4556 37.3763L10.2202 37.3682L9.98751 37.3613L9.75753 37.3556L9.53024 37.351L9.30566 37.3476L9.08381 37.3453L8.86467 37.3442L8.64828 37.3444L8.43462 37.3456L8.22371 37.3481L8.01557 37.3518L7.81018 37.3567L7.60757 37.3628L7.40774 37.3701L7.2107 37.3786L7.01646 37.3884L6.82501 37.3994L6.63637 37.4116L6.45055 37.425L6.26755 37.4397L6.08737 37.4557L5.91003 37.4729L5.73553 37.4914L5.56387 37.5111L5.39507 37.5321L5.22912 37.5544L5.06603 37.5779L4.90581 37.6027L4.74847 37.6289L4.594 37.6563L4.44241 37.685L4.29371 37.715L4.1479 37.7463L4.00498 37.7789L3.86497 37.8128L3.72786 37.8481L3.59366 37.8847L3.46237 37.9226L3.334 37.9618L3.20854 38.0024L3.08601 38.0443L2.9664 38.0875L2.84973 38.1321L2.73598 38.178L2.62517 38.2253L2.51729 38.274L2.41235 38.324L2.31036 38.3753L2.21131 38.4281L2.11521 38.4822L2.02205 38.5377L1.93184 38.5945L1.84458 38.6528L1.76028 38.7124L1.67893 38.7734L1.60053 38.8358L1.52509 38.8996L1.45261 38.9647L1.38308 39.0313L1.31652 39.0993L1.25291 39.1687L1.19226 39.2395L1.13456 39.3117L1.07983 39.3853L1.02806 39.4603L0.979238 39.5367L0.933378 39.6146L0.890476 39.6938L0.850528 39.7745L0.813537 39.8566L0.7795 39.9402L0.748415 40.0251L0.720282 40.1115L0.6951 40.1994L0.672865 40.2886L0.653577 40.3793L0.637234 40.4714L0.623833 40.565L0.613374 40.66L0.60585 40.7565L0.601264 40.8543L0.599609 40.9537L0.600885 41.0545L0.605088 41.1567L0.612216 41.2603L0.622263 41.3654L0.635227 41.472L0.651106 41.58L0.669894 41.6895L0.691588 41.8004L0.716186 41.9127L0.743681 42.0265L0.774072 42.1418L0.80735 42.2585L0.843514 42.3766L0.882561 42.4962L0.92448 42.6173L0.969274 42.7398L1.01693 42.8638L1.06745 42.9892L1.12082 43.116L1.17705 43.2443L1.23611 43.3741L1.29802 43.5053L1.36276 43.638L1.43033 43.7721L1.50071 43.9076L1.57391 44.0446L1.64992 44.1831L1.72873 44.3229L1.81033 44.4643L1.89473 44.607L1.9819 44.7512L2.07185 44.8969L2.16456 45.044L2.26003 45.1925L2.35826 45.3424L2.45923 45.4938L2.56293 45.6467L2.66937 45.8009L2.77852 45.9566L2.89039 46.1137L3.00496 46.2722L3.12223 46.4321L3.24219 46.5935L3.36482 46.7563L3.49013 46.9205L3.6181 47.0861L3.74872 47.2531L3.88198 47.4215L4.01788 47.5913L4.1564 47.7625L4.29754 47.9351L4.44128 48.1091L4.58762 48.2845L4.73655 48.4613L4.88805 48.6395L5.04212 48.819L5.19875 49L5.35792 49.1823L5.51963 49.3659L5.68386 49.551L5.85061 49.7374L6.01986 49.9251L6.1916 50.1142L6.36583 50.3047L6.54253 50.4965L6.72168 50.6897L6.90329 50.8841L7.08734 51.08L7.2738 51.2771L7.46268 51.4756L7.65397 51.6754L7.84765 51.8765L8.0437 52.0789L8.24212 52.2826L8.4429 52.4876L8.64602 52.694L8.85146 52.9016L9.05923 53.1104L9.2693 53.3206L9.48166 53.532L9.6963 53.7447L9.91321 53.9587L10.1324 54.1739L10.3538 54.3904L10.5774 54.6081L10.8033 54.8271L11.0313 55.0473L11.2615 55.2687L11.4939 55.4913L11.7285 55.7151L11.9652 55.9402L12.2041 56.1665L12.445 56.3939L12.6881 56.6225L12.9333 56.8523L13.1805 57.0833L13.4298 57.3155L13.6812 57.5488L13.9346 57.7833L14.19 58.0189L14.4474 58.2556L14.7068 58.4935L14.9682 58.7325L15.2315 58.9726L15.4968 59.2138L15.764 59.4561L16.0332 59.6995L16.3042 59.944L16.5771 60.1896L16.8519 60.4363L17.1286 60.684L17.4071 60.9327L17.6874 61.1825L17.9695 61.4334L18.2534 61.6852L18.5391 61.9381L18.8266 62.192L19.1158 62.4469L19.6994 62.9596L84.1351 114.331L84.4499 114.559L84.7633 114.784L85.0753 115.009L85.3859 115.232L85.6952 115.453L86.0031 115.673L86.3096 115.891L86.6146 116.108L86.9183 116.323L87.2204 116.537L87.5212 116.749L87.8204 116.959L88.1182 117.168L88.4145 117.375L88.7093 117.581L89.0026 117.785L89.2944 117.987L89.5846 118.188L89.8733 118.387L90.1605 118.584L90.4461 118.78L90.7301 118.973L91.0125 119.166L91.2934 119.356L91.5726 119.545L91.8503 119.731L92.1263 119.916L92.4007 120.1L92.6734 120.281L92.9445 120.461L93.2139 120.638L93.4817 120.814L93.7477 120.988L94.0121 121.161L94.2748 121.331L94.5358 121.499L94.7951 121.666L95.0526 121.83L95.3085 121.993L95.5626 122.154L95.8149 122.313L96.0655 122.47L96.3143 122.625L96.5613 122.777L96.8066 122.928L97.0501 123.077L97.2917 123.224L97.5316 123.369L97.7697 123.512L98.0059 123.653L98.2404 123.791L98.473 123.928L98.7037 124.063L98.9326 124.195L99.1597 124.326L99.3849 124.454L99.6082 124.58L99.8297 124.704L100.049 124.826L100.267 124.946L100.483 125.064L100.697 125.179L100.909 125.292L101.119 125.403L101.327 125.512L101.533 125.619L101.737 125.724L101.94 125.826L102.14 125.926L102.339 126.024L102.535 126.119L102.73 126.213L102.923 126.304L103.113 126.393L103.302 126.479L103.489 126.563L103.674 126.645L103.857 126.725L104.037 126.802L104.216 126.877L104.393 126.95L104.568 127.021L104.741 127.089L104.912 127.154L105.08 127.218L105.247 127.279L105.412 127.337L105.575 127.393L105.736 127.447L105.895 127.499L106.051 127.548L106.206 127.594L106.359 127.639L106.509 127.681L106.658 127.72L106.805 127.757L106.949 127.791L107.092 127.824L107.232 127.853L107.37 127.881L107.507 127.905L107.641 127.928L107.773 127.947L107.904 127.965L108.032 127.98L108.158 127.992L108.282 128.002L108.404 128.01L108.524 128.015L108.642 128.017L108.758 128.017L108.871 128.015L108.983 128.01L109.093 128.002L109.2 127.992L109.306 127.979L109.409 127.964L109.511 127.947L109.61 127.926L109.707 127.904L109.803 127.878L109.896 127.851L109.987 127.82L110.076 127.787L110.163 127.752L110.248 127.714L110.331 127.673L110.412 127.63L110.49 127.585L110.567 127.537L110.642 127.486L110.714 127.432L110.785 127.377L110.854 127.318L110.92 127.257L110.985 127.194L111.047 127.127L111.107 127.059L111.166 126.987L111.222 126.914L111.276 126.837L111.329 126.758L111.379 126.677L111.427 126.592L111.473 126.506L111.517 126.416L111.56 126.325L111.6 126.23L111.638 126.133L111.674 126.033L111.708 125.931L111.74 125.827L111.771 125.719L111.799 125.609L111.825 125.497L111.849 125.382L111.871 125.265L111.892 125.144L111.91 125.022L111.926 124.897L111.941 124.769L111.953 124.638L111.963 124.506L111.972 124.37L111.979 124.232L111.983 124.092L111.986 123.949L111.987 123.803L111.985 123.655L111.982 123.504L111.977 123.351L111.97 123.195L111.962 123.037L111.951 122.876L111.938 122.713L111.924 122.548L111.908 122.379L111.889 122.209L111.869 122.035L111.847 121.86L111.824 121.681L111.798 121.501L111.77 121.317L111.741 121.132L111.71 120.944L111.677 120.753L111.642 120.56L111.605 120.365L111.567 120.167L111.527 119.966L111.485 119.764L111.441 119.558L111.395 119.351L111.348 119.141L111.299 118.928L111.248 118.713L111.195 118.496L111.141 118.276L111.085 118.054L111.027 117.83L110.968 117.603L110.906 117.374L110.843 117.143L110.779 116.909L110.712 116.673L110.644 116.435L110.575 116.194L110.503 115.951L110.43 115.705L110.356 115.458L110.279 115.208L110.201 114.956L110.122 114.701L110.041 114.444L109.958 114.185L109.873 113.924L109.788 113.661L109.7 113.395L109.611 113.127L109.52 112.857L109.428 112.585L109.334 112.31L109.239 112.034L109.142 111.755L109.044 111.474L108.944 111.191L108.842 110.906L108.739 110.618L108.635 110.329L108.529 110.037L108.422 109.744L108.313 109.448L108.203 109.15L108.091 108.851L107.978 108.549L107.864 108.245L107.748 107.939L107.63 107.631L107.512 107.321L107.392 107.01L107.27 106.696L107.147 106.38L107.023 106.062L106.898 105.743L106.771 105.421L106.643 105.097L106.513 104.772L106.382 104.445L106.25 104.116L106.117 103.785L105.982 103.452L105.847 103.117L105.709 102.781L105.571 102.443L105.431 102.103L105.291 101.761L105.149 101.417L105.005 101.072L104.861 100.725L104.715 100.376L104.569 100.026L104.421 99.6736L104.272 99.3198L103.97 98.6072L103.818 98.2485L67.8611 23.6691L67.6768 23.3301L67.4932 22.993L67.3101 22.6578L67.1276 22.3245L66.9457 21.9933L66.7644 21.664L66.5838 21.3368L66.4037 21.0115L66.2243 20.6883L66.0455 20.3672L65.8673 20.0482L65.6897 19.7312L65.5128 19.4163L65.3366 19.1036L65.1609 18.793L64.986 18.4846L64.8117 18.1783L64.638 17.8742L64.465 17.5724L64.2927 17.2727L64.121 16.9753L63.95 16.6802L63.7797 16.3873L63.6101 16.0967L63.4411 15.8084L63.2729 15.5224L63.1053 15.2387L62.9384 14.9574L62.7723 14.6784L62.6068 14.4018L62.442 14.1276L62.278 13.8558L62.1146 13.5865L61.952 13.3195L61.7901 13.055L61.6289 12.793L61.4684 12.5334L61.3086 12.2763L61.1496 12.0217L60.9913 11.7697L60.8338 11.5201L60.6769 11.2731L60.5209 11.0287L60.3655 10.7868L60.2109 10.5476L60.057 10.3109L59.9039 10.0768L59.7516 9.84532L59.6 9.61649L59.4491 9.39031L59.299 9.16679L59.1496 8.94593L59.0011 8.72776L58.8532 8.51228L58.7062 8.29951L58.5598 8.08946L58.4143 7.88213L58.2695 7.67755L58.1255 7.47572L57.9823 7.27666L57.8398 7.08036L57.6982 6.88686L57.5572 6.69615L57.4171 6.50825L57.2777 6.32316L57.1391 6.14091L57.0013 5.96149L56.8643 5.78492L56.7281 5.61121L56.5926 5.44037L56.4579 5.27241L56.324 5.10734L56.1909 4.94516L56.0585 4.78589L55.9269 4.62953L55.7962 4.47611L55.6662 4.32561L55.537 4.17806L55.4086 4.03346L55.2809 3.89182L55.1541 3.75315L55.028 3.61745L54.9027 3.48474L54.7782 3.35503L54.6545 3.22831L54.5316 3.1046L54.4095 2.98391L54.2881 2.86624L54.1676 2.7516L54.0478 2.64L53.9288 2.53144L53.8106 2.42593L53.6932 2.32348L53.5765 2.2241L53.4607 2.12779L53.3456 2.03455L53.2313 1.94439L53.1178 1.85733L53.005 1.77336L52.8931 1.69248L52.7819 1.61472L52.6715 1.54006L52.5619 1.46852L52.453 1.4001L52.345 1.33481L52.2377 1.27264L52.1312 1.21362L52.0254 1.15773L51.9204 1.10498L51.8162 1.05538L51.7128 1.00893L51.6101 0.965643L51.5082 0.925509L51.407 0.88854L51.3066 0.854734L51.207 0.824097L51.1081 0.796633L51.01 0.772344L50.9127 0.751232L50.8161 0.733297L50.7202 0.718548L50.6251 0.706981L50.5308 0.698601L50.4372 0.693407L50.3443 0.691406L50.2522 0.692595L50.1608 0.696979L50.0702 0.704555L49.9803 0.715327L49.8911 0.729297L49.8027 0.746463L49.715 0.766826L49.628 0.790388L49.5418 0.817149L49.4563 0.847108L49.3715 0.880267L49.2874 0.916625L49.204 0.956179L49.1214 0.998932L49.0394 1.04488L48.9582 1.09403L48.8777 1.14637L48.7979 1.20191L48.7188 1.26064L48.6404 1.32256L48.5627 1.38767L48.4856 1.45597L48.4093 1.52746L48.3337 1.60213L48.2587 1.67998L48.1844 1.76101L48.1109 1.84523L48.038 1.93261L47.9657 2.02317L47.8942 2.11689L47.8233 2.21379L47.753 2.31384L47.6835 2.41705L47.6146 2.52342L47.5463 2.63294L47.4787 2.74561L47.4118 2.86142L47.3455 2.98037L47.2799 3.10245L47.2149 3.22767L47.1505 3.35601L47.0868 3.48747L47.0237 3.62205L46.9612 3.75973L46.8994 3.90053L46.8381 4.04442L46.7775 4.1914L46.7176 4.34147L46.6582 4.49463L46.5994 4.65086L46.5413 4.81016L46.4837 4.97253L46.4268 5.13795L46.3704 5.30642L46.3147 5.47793L46.2595 5.65248L46.2049 5.83006L46.1509 6.01065L46.0975 6.19427L46.0447 6.38089L45.9924 6.5705L45.9407 6.76311L45.8895 6.9587L45.839 7.15727L45.789 7.3588L45.7395 7.56328L45.6906 7.77072L45.6422 7.98109L45.5944 8.1944L45.5471 8.41062L45.5004 8.62976L45.4542 8.85181L45.4085 9.07674L45.3633 9.30456L45.3187 9.53525L45.2746 9.7688L45.231 10.0052L45.1879 10.2445L45.1454 10.4865L45.1033 10.7314L45.0617 10.9792L45.0207 11.2297L44.9801 11.483L44.94 11.7391L44.9004 11.9979L44.8613 12.2595L44.8227 12.5239L44.7845 12.7909L44.7468 13.0607L44.7096 13.3332L44.6728 13.6085L44.6366 13.8863L44.6007 14.1669L44.5653 14.4501L44.5304 14.736L44.4959 15.0245L44.4619 15.3156L44.4283 15.6093L44.3951 15.9056L44.3624 16.2045L44.3301 16.506L44.2982 16.81L44.2668 17.1166L44.2357 17.4256L44.2051 17.7372L44.1749 18.0513L44.1451 18.3679L44.1157 18.6869L44.0867 19.0084L44.0581 19.3324L44.0299 19.6587L44.0021 19.9875L43.9747 20.3187L43.9476 20.6522L43.921 20.9881L43.8947 21.3264L43.8688 21.667L43.8432 22.0099L43.8181 22.3551L43.7932 22.7026L43.7688 23.0524L43.7447 23.4044L43.7209 23.7587L43.6975 24.1152L43.6745 24.4739L43.6518 24.8348L43.6294 25.1978L43.6074 25.563L43.5857 25.9304L43.5643 26.2999L43.5433 26.6714L43.5226 27.0451L43.5022 27.4209L43.4821 27.7986L43.4623 28.1785L43.4428 28.5603L43.4237 28.9442L43.4049 29.33L43.3755 112.125L43.3938 112.514L43.4125 112.901L43.4315 113.286L43.4507 113.669L43.4703 114.05L43.4902 114.429L43.5104 114.806L43.5309 115.181L43.5518 115.554L43.573 115.925L43.5945 116.293L43.6163 116.66L43.6385 117.024L43.661 117.386L43.6838 117.746L43.707 118.104L43.7306 118.46L43.7545 118.813L43.7787 119.164L43.8033 119.513L43.8283 119.86L43.8536 120.204L43.8793 120.546L43.9054 120.886L43.9318 121.223L43.9586 121.558L43.9858 121.89L44.0134 122.221L44.0414 122.548L44.0697 122.874L44.0985 123.197L44.1277 123.517L44.1572 123.835L44.1872 124.151L44.2176 124.464L44.2483 124.774L44.2795 125.083L44.3112 125.388L44.3432 125.691L44.3757 125.991L44.4086 126.289L44.4419 126.585L44.4757 126.877L44.5099 127.167L44.5446 127.455L44.5797 127.739L44.6153 128.022L44.6513 128.301L44.6878 128.578L44.7247 128.852L44.7621 129.123L44.8 129.392L44.8383 129.658L44.8772 129.921L44.9165 130.182L44.9563 130.44L44.9966 130.694L45.0373 130.947L45.0786 131.196L45.1204 131.443L45.1626 131.686L45.2054 131.927L45.2487 132.165L45.2925 132.401L45.3368 132.633L45.3817 132.863L45.427 133.089L45.4729 133.313L45.5194 133.534L45.5663 133.752L45.6138 133.967L45.6618 134.179L45.7104 134.388L45.7596 134.594L45.8093 134.798L45.8595 134.998L45.9103 135.195L45.9617 135.39L46.0136 135.581L46.0661 135.769L46.1192 135.955L46.1729 136.137L46.2271 136.317L46.2819 136.493L46.3373 136.666L46.3933 136.836L46.4499 137.004L46.5071 137.168L46.5649 137.329L46.6233 137.487L46.6823 137.642L46.7419 137.794L46.8022 137.943L46.863 138.088L46.9245 138.231L46.9866 138.371L47.0493 138.507L47.1126 138.64L47.1766 138.771L47.2413 138.898L47.3065 139.022L47.3724 139.142L47.439 139.26L47.5062 139.375L47.574 139.486L47.6426 139.594L47.7117 139.699L47.7816 139.801L47.8521 139.9L47.9232 139.996L47.9951 140.088L48.0676 140.177L48.1408 140.263L48.2146 140.346L48.2892 140.426L48.3644 140.503L48.4403 140.576L48.5169 140.646L48.5942 140.713L48.6722 140.777L48.7509 140.838L48.8303 140.895L48.9104 140.949L48.9912 141L49.0727 141.048L49.155 141.093L49.2379 141.134L49.3215 141.172L49.4059 141.208L49.491 141.239L49.5768 141.268L49.6634 141.294L49.7506 141.316L49.8386 141.335L49.9273 141.351L50.0168 141.363L50.107 141.373L50.1979 141.379L50.2896 141.382L50.382 141.382L50.4752 141.379L50.5691 141.372L50.6638 141.363L50.7592 141.35L50.8553 141.334L50.9522 141.314L51.0499 141.292L51.1483 141.266L51.2475 141.238L51.3474 141.206L51.4481 141.171L51.5496 141.132L51.6518 141.091L51.7548 141.046L51.8586 140.999L51.9631 140.948L52.0684 140.894L52.1745 140.837L52.2813 140.776L52.3889 140.713L52.4973 140.646L52.6064 140.577L52.7164 140.504L52.8271 140.428L52.9386 140.349L53.0509 140.267L53.1639 140.181L53.2778 140.093L53.3924 140.002L53.5078 139.907L53.6239 139.81L53.7409 139.709L53.8586 139.605L53.9772 139.499L54.0965 139.389L54.2166 139.276L54.3375 139.16L54.4591 139.041L54.5816 138.919L54.7048 138.794L54.8289 138.666L54.9537 138.535L55.0793 138.402L55.2057 138.265L55.3328 138.125L55.4608 137.982L55.5895 137.836L55.719 137.687L55.8494 137.536L55.9804 137.381L56.1123 137.223L56.245 137.063L56.3784 136.9L56.5127 136.733L56.6477 136.564L56.7835 136.392L56.92 136.217L57.0574 136.04L57.1955 135.859L57.3344 135.676L57.4741 135.489L57.6146 135.3L57.7558 135.109L57.8978 134.914L58.0406 134.716L58.1841 134.516L58.3284 134.313L58.4735 134.108L58.6194 133.899L58.766 133.688L58.9133 133.474L59.0615 133.258L59.2104 133.038L59.36 132.816L59.5105 132.592L59.6616 132.365L59.8135 132.135L59.9662 131.902L60.1196 131.667L60.2738 131.429L60.4287 131.189L60.5843 130.946L60.7407 130.7L60.8979 130.452L61.0557 130.202L61.2143 129.949L61.3736 129.693L61.5337 129.435L61.6945 129.175L61.8559 128.911L62.0182 128.646L62.1811 128.378L62.3447 128.108L62.5091 127.835L62.6741 127.56L62.8399 127.282L63.0063 127.002L63.1735 126.72L63.3413 126.435L63.5099 126.148L63.6791 125.859L63.849 125.568L64.0196 125.274L64.1909 124.978L64.3628 124.679L64.5354 124.379L64.7087 124.076L64.8826 123.771L65.0572 123.464L65.2324 123.155L65.4083 122.843L65.5848 122.53L65.762 122.214L65.9398 121.896L66.1182 121.576L66.2973 121.254L66.477 120.93L66.6573 120.604L66.8382 120.276L67.0197 119.946L67.2019 119.614L67.3846 119.28L67.5679 118.944L67.7518 118.606L67.9363 118.266L68.1214 117.924L103.727 44.0388L103.88 43.6791L104.032 43.321L104.333 42.6098L104.481 42.2567L104.629 41.9052L104.775 41.5555L104.92 41.2074L105.064 40.8611L105.207 40.5165L105.348 40.1736L105.488 39.8326L105.628 39.4933L105.765 39.1557L105.902 38.82L106.037 38.4861L106.171 38.1541L106.304 37.8239L106.436 37.4955L106.566 37.169L106.695 36.8444L106.823 36.5217L106.949 36.2009L107.074 35.8821L107.197 35.5651L107.32 35.2502L107.441 34.9371L107.56 34.6261L107.678 34.317L107.795 34.01L107.91 33.7049L108.024 33.4019L108.137 33.1009L108.248 32.8019L108.357 32.505L108.466 32.2102L108.572 31.9174L108.678 31.6268L108.781 31.3382L108.884 31.0517L108.984 30.7674L109.084 30.4852L109.182 30.2051L109.278 29.9273L109.372 29.6515L109.466 29.378L109.557 29.1066L109.647 28.8374L109.736 28.5704L109.823 28.3056L109.908 28.0431L109.992 27.7828L110.074 27.5247L110.154 27.2689L110.233 27.0154L110.311 26.7641L110.386 26.5151L110.46 26.2683L110.533 26.0239L110.603 25.7818L110.672 25.542L110.74 25.3045L110.805 25.0693L110.869 24.8365L110.932 24.606L110.992 24.3779L111.051 24.1521L111.108 23.9287L111.163 23.7077L111.217 23.489L111.269 23.2728L111.319 23.0589L111.368 22.8474L111.414 22.6384L111.459 22.4317L111.502 22.2275L111.543 22.0257L111.583 21.8263L111.621 21.6294L111.656 21.4349L111.691 21.2429L111.723 21.0533L111.753 20.8662L111.782 20.6816L111.809 20.4994L111.833 20.3197L111.856 20.1425L111.878 19.9678L111.897 19.7956L111.914 19.6258L111.93 19.4586L111.944 19.2939L111.956 19.1316L111.965 18.9719L111.974 18.8147L111.98 18.6601L111.984 18.5079L111.986 18.3583L111.986 18.2112L111.985 18.0667L111.981 17.9247L111.976 17.7852L111.969 17.6483L111.959 17.5139L111.948 17.382L111.935 17.2528L111.92 17.126L111.903 17.0019L111.884 16.8802L111.863 16.7612L111.839 16.6447L111.814 16.5307L111.787 16.4194L111.758 16.3106L111.728 16.2043L111.695 16.1007L111.66 15.9996L111.623 15.901L111.584 15.8051L111.543 15.7117L111.5 15.6209L111.455 15.5326L111.408 15.4469L111.359 15.3638L111.308 15.2833L111.254 15.2054L111.199 15.13L111.142 15.0572L111.083 14.9869L111.022 14.9192L110.959 14.8541L110.893 14.7916L110.826 14.7316L110.757 14.6742L110.685 14.6194L110.612 14.5671L110.536 14.5174L110.459 14.4703L110.379 14.4257L110.297 14.3836L110.214 14.3441L110.128 14.3072L110.04 14.2728L109.95 14.241L109.858 14.2117L109.764 14.1849L109.668 14.1607L109.57 14.139L109.47 14.1199L109.367 14.1033L109.263 14.0892L109.157 14.0776L109.048 14.0686L108.938 14.0621L108.825 14.058L108.711 14.0565L108.594 14.0575L108.475 14.061L108.355 14.067L108.232 14.0755L108.107 14.0864L107.98 14.0999L107.851 14.1158L107.72 14.1342L107.587 14.1551L107.452 14.1784L107.314 14.2042L107.175 14.2324L107.034 14.2631L106.89 14.2962L106.745 14.3318L106.598 14.3698L106.448 14.4102L106.297 14.453L106.143 14.4982L105.988 14.5459L105.83 14.5959L105.67 14.6483L105.509 14.7031L105.345 14.7603L105.18 14.8199L105.012 14.8818L104.842 14.9461L104.671 15.0128L104.497 15.0818L104.321 15.1531L104.144 15.2267L103.964 15.3027L103.782 15.381L103.599 15.4616L103.413 15.5445L103.226 15.6296L103.036 15.7171L102.844 15.8068L102.651 15.8989L102.456 15.9931L102.258 16.0896L102.059 16.1884L101.858 16.2894L101.654 16.3926L101.449 16.498L101.242 16.6056L101.033 16.7154L100.823 16.8275L100.61 16.9416L100.395 17.058L100.178 17.1765L99.96 17.2972L99.7397 17.42L99.5175 17.5449L99.2934 17.672L99.0674 17.8012L98.8396 17.9325L98.6099 18.0658L98.3784 18.2013L98.1451 18.3388L97.9099 18.4784L97.6729 18.62L97.4341 18.7637L97.1935 18.9094L96.9511 19.0571L96.7069 19.2068L96.4609 19.3585L96.2131 19.5123L95.9636 19.6679L95.7123 19.8256L95.4593 19.9852L95.2045 20.1468L94.9479 20.3102L94.6897 20.4756L94.4297 20.643L94.168 20.8122L93.9046 20.9833L93.6395 21.1562L93.3728 21.3311L93.1043 21.5077L92.8342 21.6863L92.5625 21.8666L92.2891 22.0488L92.014 22.2327L91.7374 22.4185L91.4591 22.606L91.1792 22.7953L90.8977 22.9864L90.6146 23.1792L90.33 23.3737L90.0437 23.5699L89.7559 23.7679L89.4666 23.9675L89.1757 24.1688L88.8833 24.3718L88.5894 24.5765L88.294 24.7827L87.9971 24.9906L87.6987 25.2002L87.3988 25.4113L87.0975 25.624L86.7947 25.8383L86.4905 26.0541L86.1849 26.2715L85.8778 26.4905L85.5694 26.7109L85.2596 26.9329L84.9483 27.1564L84.6358 27.3813L84.3218 27.6077L19.58 79.219L19.288 79.4755L18.9978 79.731L18.7093 79.9855L18.4225 80.2389L18.1376 80.4914L17.8544 80.7429L17.573 80.9933L17.2934 81.2426L17.0157 81.491L16.7398 81.7382L16.4657 81.9845L16.1936 82.2296L15.9233 82.4737L15.655 82.7166L15.3885 82.9585L15.124 83.1993L14.8615 83.4389L14.6009 83.6775L14.3423 83.9149L14.0857 84.1512L13.8311 84.3863L13.5786 84.6203L13.328 84.8531L13.0796 85.0848L12.8332 85.3153L12.5889 85.5447L12.3466 85.7728L12.1065 85.9998L11.8685 86.2255L11.6327 86.4501L11.399 86.6734L11.1675 86.8956L10.9381 87.1165L10.711 87.3362L10.486 87.5546L10.2633 87.7718L10.0428 87.9878L9.82458 88.2025L9.60859 88.416L9.39488 88.6282L9.18345 88.8391L8.97432 89.0487L8.76749 89.2571L8.56299 89.4642L8.36083 89.67L8.16101 89.8744L7.96355 90.0776L7.76847 90.2795L7.57576 90.4801L7.38545 90.6793L7.19755 90.8773L7.01207 91.0739L6.82902 91.2691L6.64841 91.4631L6.47025 91.6557L6.29456 91.847L6.12134 92.0369L5.95061 92.2254L5.78238 92.4126L5.61666 92.5985L5.45345 92.783L5.29277 92.9661L5.13464 93.1478L4.97905 93.3282L4.82603 93.5072L4.67557 93.6848L4.5277 93.861L4.38241 94.0358L4.23973 94.2093L4.09966 94.3813L3.9622 94.552L3.82738 94.7212L3.69519 94.889L3.56565 95.0555L3.43877 95.2205L3.31455 95.3841L3.193 95.5463L3.07414 95.7071L2.95797 95.8665L2.8445 96.0244L2.73373 96.1809L2.62568 96.336L2.52036 96.4897L2.41777 96.6419L2.31792 96.7927L2.22081 96.9421L2.12646 97.09L2.03487 97.2365L1.94605 97.3816L1.86001 97.5252L1.77676 97.6674L1.69629 97.8081L1.61862 97.9474L1.54375 98.0853L1.4717 98.2217L1.40246 98.3567L1.33605 98.4902L1.27246 98.6222L1.21171 98.7528L1.1538 98.882L1.09874 99.0097L1.04652 99.136L0.997171 99.2608L0.950681 99.3842L0.907057 99.5061L0.866307 99.6266L0.828436 99.7456L0.793446 99.8632L0.761343 99.9793L0.732131 100.094L0.705816 100.207L0.6824 100.319L0.661889 100.429L0.644285 100.538L0.629593 100.645L0.617816 100.751L0.60896 100.856L0.603024 100.959L0.600012 101.061L0.599929 101.161L0.602778 101.26L0.608562 101.357L0.617279 101.453L0.628938 101.547L0.643536 101.64L0.661079 101.732L0.681566 101.822L0.705002 101.911L0.731386 101.998L0.760721 102.084L0.793008 102.168L0.828249 102.251L0.866444 102.332L0.907595 102.413L0.951702 102.491L0.998767 102.569L1.04879 102.644L1.10177 102.719L1.15771 102.792L1.21661 102.863L1.27846 102.934L1.34328 103.002L1.41105 103.07L1.48178 103.136L1.55547 103.201L1.63211 103.264L1.71171 103.326L1.79426 103.386L1.87977 103.445L1.96823 103.503L2.05964 103.559L2.154 103.614L2.2513 103.667L2.35155 103.72L2.45474 103.77L2.56088 103.82L2.66995 103.868L2.78196 103.915L2.8969 103.96L3.01477 104.004L3.13557 104.047L3.25929 104.088L3.38594 104.128L3.5155 104.167L3.64798 104.204L3.78336 104.24L3.92166 104.275L4.06285 104.308L4.20694 104.341L4.35393 104.371L4.50381 104.401L4.65657 104.429L4.81221 104.456L4.97073 104.481L5.13212 104.506L5.29637 104.529L5.46349 104.551L5.63345 104.571L5.80627 104.59L5.98193 104.608L6.16042 104.625L6.34175 104.64L6.5259 104.655L6.71287 104.667L6.90266 104.679L7.09524 104.69L7.29063 104.699L7.48881 104.707L7.68977 104.714L7.89351 104.719L8.10002 104.724L8.30929 104.727L8.52132 104.729L8.73609 104.73L8.95361 104.729L9.17385 104.728L9.39682 104.725L9.6225 104.721L9.85089 104.716L10.082 104.71L10.3157 104.703L10.5522 104.694L10.7913 104.684L11.0331 104.674L11.2775 104.662L11.5246 104.649L11.7743 104.634L12.0267 104.619L12.2816 104.603L12.5392 104.585L12.7993 104.567L13.062 104.547L13.3273 104.526L13.5952 104.505L13.8656 104.482L14.1386 104.458L14.414 104.433L14.692 104.407L14.9725 104.38L15.2555 104.352L15.541 104.322L15.829 104.292L16.1194 104.261L16.4123 104.229L16.7076 104.196L17.0053 104.161L17.3054 104.126L17.608 104.09L17.9129 104.053L18.2202 104.015L18.5299 103.976L18.8419 103.936L19.1562 103.895L19.4729 103.853L19.7919 103.81L20.1131 103.766L20.4367 103.721L20.7625 103.675L21.0906 103.629L21.4209 103.581L21.7534 103.533L22.0882 103.484L22.4252 103.433L22.7643 103.382L23.1056 103.33L23.4491 103.278L23.7947 103.224L24.1424 103.17L24.4922 103.114L24.8442 103.058L25.1982 103.001L25.5542 102.943L25.9124 102.885L26.2725 102.825L26.6347 102.765L26.9989 102.704L27.365 102.642L27.7332 102.579L28.1033 102.516L28.4753 102.452L28.8492 102.387L29.2251 102.321L29.6028 102.255L29.9824 102.187L30.3639 102.119L110.71 83.8069L111.086 83.7024L111.46 83.598L111.832 83.4938L112.202 83.3897L112.57 83.2858L112.936 83.182L113.3 83.0783L113.661 82.9748L114.021 82.8715L114.379 82.7683L114.734 82.6652L115.087 82.5623L115.438 82.4596L115.787 82.357L116.134 82.2546L116.479 82.1523L116.821 82.0501L117.161 81.9482L117.499 81.8463L117.834 81.7446L118.168 81.6431L118.499 81.5418L118.827 81.4406L119.153 81.3395L119.477 81.2386L119.799 81.1379L120.118 81.0373L120.435 80.9369L120.749 80.8366L121.061 80.7365L121.37 80.6365L121.677 80.5367L121.982 80.437L122.284 80.3375L122.583 80.2382L122.88 80.139L123.175 80.04L123.466 79.9411L123.756 79.8424L124.042 79.7438L124.327 79.6454L124.608 79.5471L124.887 79.449L125.163 79.3511L125.437 79.2532L125.708 79.1556L125.976 79.0581L126.241 78.9607L126.504 78.8635L126.764 78.7664L127.022 78.6695L127.276 78.5727L127.528 78.4761L127.777 78.3796L128.023 78.2833L128.267 78.1871L128.508 78.091L128.746 77.9951L128.981 77.8993L129.213 77.8037L129.442 77.7082L129.669 77.6128L129.892 77.5175L130.113 77.4224L130.331 77.3275L130.546 77.2326L130.758 77.1379L130.967 77.0433L131.173 76.9489L131.376 76.8545L131.577 76.7603L131.774 76.6663L131.968 76.5723L132.16 76.4785L132.348 76.3847L132.533 76.2911L132.716 76.1976L132.895 76.1043L133.071 76.011L133.244 75.9178L133.414 75.8248L133.581 75.7319L133.746 75.639L133.906 75.5463L134.064 75.4537L134.219 75.3611L134.371 75.2687L134.519 75.1764L134.665 75.0841L134.807 74.992L134.946 74.9L135.082 74.808L135.215 74.7161L135.345 74.6243L135.472 74.5327L135.595 74.441L135.716 74.3495L135.833 74.258L135.947 74.1666L136.057 74.0753L136.165 73.9841L136.269 73.8929L136.371 73.8018L136.468 73.7108L136.563 73.6198L136.655 73.5289L136.743 73.4381L136.828 73.3473L136.91 73.2566L136.989 73.1659L137.064 73.0753L137.136 72.9847L137.205 72.8942L137.271 72.8037L137.333 72.7133L137.393 72.6229L137.449 72.5325L137.501 72.4422L137.551 72.3519L137.597 72.2617L137.64 72.1714L137.679 72.0812L137.716 71.9911L137.749 71.9009L137.779 71.8108L137.805 71.7207L137.828 71.6306L137.848 71.5405L137.865 71.4505L137.878 71.3604L137.889 71.2704L137.895 71.1803L137.899 71.0903L137.899 71.0003L137.896 70.9103L137.89 70.8202L137.881 70.7302L137.868 70.6401L137.852 70.5501L137.832 70.46L137.81 70.3699L137.784 70.2798L137.755 70.1897L137.722 70.0996L137.686 70.0094L137.647 69.9192L137.605 69.829L137.559 69.7387L137.511 69.6485L137.459 69.5581L137.403 69.4678L137.345 69.3774L137.283 69.287L137.218 69.1965L137.149 69.106L137.078 69.0154L137.003 68.9248L136.925 68.8341L136.844 68.7434L136.759 68.6526L136.671 68.5618L136.58 68.4709L136.486 68.38L136.389 68.2889L136.288 68.1979L136.185 68.1067L136.078 68.0155L135.967 67.9242L135.854 67.8328L135.737 67.7414L135.618 67.6499L135.495 67.5583L135.369 67.4666L135.24 67.3748L135.107 67.2829L134.972 67.191L134.833 67.099L134.691 67.0069L134.547 66.9146L134.399 66.8223L134.247 66.7299L134.093 66.6374L133.936 66.5448L133.776 66.4521L133.612 66.3593L133.446 66.2664L133.276 66.1733L133.103 66.0802L132.928 65.9869L132.749 65.8936L132.567 65.8001L132.382 65.7065L132.195 65.6128L132.004 65.519L131.81 65.4251L131.613 65.331L131.414 65.2368L131.211 65.1425L131.005 65.0481L130.797 64.9535L130.585 64.8588L130.371 64.764L130.154 64.6691L129.934 64.574L129.71 64.4788L129.484 64.3834L129.256 64.288L129.024 64.1923L128.789 64.0966L128.552 64.0007L128.312 63.9047L128.069 63.8085L127.823 63.7122L127.574 63.6157L127.323 63.5191L127.069 63.4223L126.812 63.3255L126.553 63.2284L126.29 63.1312L126.025 63.0339L125.757 62.9364L125.487 62.8388L125.214 62.741L124.938 62.6431L124.66 62.545L124.379 62.4467L124.095 62.3483L123.809 62.2498L123.52 62.1511L123.229 62.0523L122.935 61.9533L122.639 61.8541L122.34 61.7548L122.038 61.6553L121.734 61.5557L121.427 61.4559L121.118 61.356L120.807 61.2559L120.493 61.1557L120.177 61.0553L119.858 60.9547L119.537 60.854L119.214 60.7531L118.888 60.6521L118.56 60.5509L118.229 60.4496L117.896 60.3481L117.561 60.2464L117.224 60.1446L116.884 60.0427L116.542 59.9406L116.198 59.8383L115.852 59.7359L115.503 59.6333L115.152 59.5306L114.8 59.4278L114.445 59.3247L114.087 59.2216L113.728 59.1183L113.367 59.0148L113.003 58.9112L112.638 58.8074L112.27 58.7035L111.901 58.5994L111.529 58.4952L111.156 58.3909L110.78 58.2864L30.4348 39.9672L30.053 39.8991L29.673 39.8318L29.2949 39.7652L28.9187 39.6994L28.5444 39.6343L28.172 39.57L27.8016 39.5064L27.4331 39.4436L27.0666 39.3816L26.702 39.3204L26.3395 39.26L25.979 39.2004L25.6205 39.1416L25.264 39.0836L24.9096 39.0264L24.5573 38.9701L24.2071 38.9146L23.8589 38.8599L23.5129 38.8061L23.1691 38.7531L22.8274 38.7011L22.4878 38.6498L22.1505 38.5995L21.8153 38.55L21.4824 38.5015L21.1516 38.4538L20.8231 38.4071L20.4969 38.3612L20.1729 38.3163L19.8512 38.2723L19.5318 38.2292L19.2147 38.1871L18.8999 38.1459L18.5875 38.1056L18.2774 38.0663L17.9697 38.028L17.6643 37.9907L17.3613 37.9543L17.0607 37.9189L16.7626 37.8845L16.4668 37.8511L16.1735 37.8188L15.8826 37.7874L15.5942 37.757L15.3083 37.7277L15.0248 37.6994L14.7438 37.6721L14.4654 37.6458L14.1894 37.6207L13.916 37.5965L13.6451 37.5735L13.3768 37.5515L13.111 37.5305L12.8478 37.5107L12.5872 37.4919L12.3291 37.4742L12.0737 37.4577L11.8209 37.4422L11.5707 37.4278L11.3231 37.4146L11.0782 37.4025L10.8359 37.3915L10.5963 37.3816L10.3594 37.3729L10.1251 37.3653L9.8935 37.3589L9.66462 37.3536L9.43843 37.3495L9.21496 37.3465L8.99421 37.3447L8.77619 37.3441L8.56091 37.3447L8.34838 37.3465L8.13859 37.3495L7.93157 37.3537L7.72732 37.359L7.52584 37.3656L7.32714 37.3734L7.13124 37.3825L6.93813 37.3927L6.74783 37.4042L6.56034 37.4169L6.37566 37.4309L6.19381 37.4461L6.01479 37.4625L5.8386 37.4803L5.66526 37.4992L5.49476 37.5195L5.32712 37.541L5.16234 37.5638L5.00042 37.5879L4.84137 37.6132L4.68519 37.6399L4.5319 37.6678L4.38149 37.697L4.23396 37.7276L4.08933 37.7594L3.9476 37.7926L3.80877 37.827L3.67284 37.8628L3.53983 37.9L3.40973 37.9384L3.28254 37.9782L3.15828 38.0193L3.03694 38.0617L2.91852 38.1055L2.80304 38.1506L2.69048 38.1971L2.58087 38.245L2.47419 38.2942L2.37045 38.3447L2.26966 38.3967L2.17181 38.45L2.0769 38.5046L1.98495 38.5607L1.89594 38.6181L1.80989 38.6769L1.72679 38.7371L1.64664 38.7986L1.56945 38.8616L1.49521 38.9259L1.42393 38.9917L1.35561 39.0588L1.29025 39.1274L1.22784 39.1973L1.1684 39.2687L1.11191 39.3415L1.05838 39.4156L1.00781 39.4912L0.960199 39.5682L0.915545 39.6467L0.873846 39.7265L0.835104 39.8078L0.799317 39.8905L0.766483 39.9746L0.736599 40.0601L0.709669 40.1471L0.685686 40.2355L0.664653 40.3254L0.646565 40.4167L0.63142 40.5094L0.619219 40.6035L0.609955 40.6991L0.603629 40.7962L0.600237 40.8946L0.599775 40.9946L0.602244 41.0959L0.607638 41.1987L0.615955 41.303L0.627191 41.4087L0.641343 41.5158L0.658407 41.6244L0.67838 41.7345L0.701259 41.846L0.727037 41.9589L0.755712 42.0733L0.787279 42.1891L0.821733 42.3064L0.859073 42.4252L0.899289 42.5454L0.94238 42.667L0.988341 42.7901L1.03716 42.9147L1.08885 43.0407L1.14338 43.1681L1.20076 43.297L1.26099 43.4274L1.32405 43.5592L1.38994 43.6924L1.45866 43.8271L1.53019 43.9632L1.60454 44.1008L1.68169 44.2399L1.76163 44.3803L1.84437 44.5222L1.9299 44.6656L2.01821 44.8104L2.10928 44.9566L2.20312 45.1043L2.29971 45.2534L2.39906 45.4039L2.50114 45.5559L2.60596 45.7093L2.7135 45.8641L2.82376 46.0204L2.93674 46.1781L3.05241 46.3372L3.17077 46.4977L3.29182 46.6596L3.41555 46.823L3.54193 46.9877L3.67099 47.1539L3.80268 47.3215L3.93702 47.4905L4.07399 47.6609L4.21358 47.8327L4.35578 48.0058L4.50058 48.1804L4.64797 48.3564L4.79795 48.5337L4.9505 48.7125L5.10561 48.8926L5.26328 49.0741L5.42348 49.2569L5.58622 49.4411L5.75148 49.6267L5.91925 49.8137L6.08952 50.002L6.26228 50.1917L6.43751 50.3827L6.61521 50.575L6.79537 50.7687L6.97797 50.9638L7.163 51.1601L7.35045 51.3578L7.54032 51.5568L7.73257 51.7571L7.92722 51.9588L8.12424 52.1617L8.32362 52.366L8.52536 52.5715L8.72942 52.7784L8.93581 52.9865L9.14452 53.1959L9.35553 53.4066L9.56882 53.6185L9.78439 53.8318L10.0022 54.0462L10.2223 54.262L10.4446 54.4789L10.6691 54.6972L10.8959 54.9166L11.1248 55.1373L11.3559 55.3592L11.5892 55.5823L11.8247 55.8067L12.0623 56.0322L12.302 56.259L12.5438 56.4869L12.7877 56.716L13.0337 56.9463L13.2818 57.1777L13.532 57.4104L13.7842 57.6442L14.0384 57.8791L14.2946 58.1152L14.5528 58.3524L14.813 58.5907L15.0752 58.8302L15.3394 59.0707L15.6054 59.3124L15.8734 59.5552L16.1434 59.799L16.4152 60.044L16.6888 60.29L16.9644 60.537L17.2418 60.7852L17.521 61.0344L17.8021 61.2846L18.0849 61.5358L18.3696 61.7881L18.656 62.0414L18.9442 62.2957L19.2341 62.551L83.6311 113.966L84.2635 114.424L84.5777 114.651L84.8905 114.876L85.202 115.1L85.5121 115.322L85.8208 115.543L86.1281 115.762L86.434 115.98L86.7385 116.196L87.0415 116.41L87.3431 116.623L87.6433 116.835L87.9419 117.045L88.2391 117.253L88.5348 117.459L88.829 117.664L89.1216 117.868L89.4128 118.069L89.7024 118.269L89.9905 118.467L90.277 118.664L90.562 118.859L90.8453 119.052L91.1271 119.243L91.4073 119.433L91.6859 119.621L91.9629 119.807L92.2382 119.991L92.5119 120.174L92.784 120.354L93.0544 120.533L93.3232 120.71L93.5902 120.885L93.8556 121.059L94.1193 121.23L94.3813 121.4L94.6416 121.567L94.9002 121.733L95.1571 121.897L95.4122 122.059L95.6656 122.219L95.9172 122.377L96.167 122.533L96.4151 122.687L96.6614 122.839L96.906 122.989L97.1487 123.137L97.3897 123.283L97.6288 123.427L97.8662 123.569L98.1016 123.709L98.3353 123.847L98.5672 123.983L98.7972 124.117L99.0253 124.249L99.2516 124.378L99.4761 124.506L99.6986 124.631L99.9193 124.754L100.138 124.875L100.355 124.994L100.57 125.111L100.783 125.225L100.994 125.338L101.204 125.448L101.411 125.556L101.617 125.662L101.82 125.766L102.022 125.867L102.221 125.966L102.419 126.063L102.615 126.158L102.809 126.25L103.001 126.34L103.191 126.428L103.378 126.514L103.564 126.597L103.748 126.678L103.93 126.757L104.11 126.833L104.288 126.907L104.465 126.979L104.639 127.049L104.811 127.116L104.981 127.18L105.149 127.243L105.315 127.303L105.479 127.36L105.641 127.416L105.801 127.468L105.959 127.519L106.115 127.567L106.268 127.613L106.42 127.656L106.57 127.697L106.718 127.735L106.864 127.771L107.007 127.805L107.149 127.836L107.289 127.865L107.426 127.891L107.562 127.915L107.695 127.936L107.827 127.955L107.956 127.971L108.083 127.985L108.209 127.997L108.332 128.006L108.453 128.012L108.572 128.016L108.689 128.017L108.804 128.016L108.917 128.013L109.028 128.007L109.137 127.998L109.244 127.987L109.348 127.973L109.451 127.957L109.551 127.939L109.65 127.917L109.746 127.894L109.841 127.867L109.933 127.839L110.023 127.807L110.112 127.773L110.198 127.737L110.282 127.698L110.364 127.656L110.444 127.612L110.522 127.565L110.598 127.516L110.672 127.464L110.743 127.41L110.813 127.353L110.881 127.294L110.947 127.232L111.01 127.167L111.072 127.1L111.131 127.03L111.189 126.958L111.244 126.883L111.298 126.805L111.349 126.725L111.399 126.643L111.446 126.557L111.491 126.47L111.535 126.379L111.576 126.286L111.616 126.191L111.653 126.093L111.688 125.992L111.722 125.889L111.753 125.783L111.782 125.675L111.81 125.564L111.835 125.451L111.858 125.335L111.88 125.216L111.899 125.095L111.917 124.971L111.932 124.845L111.946 124.716L111.957 124.585L111.967 124.451L111.975 124.314L111.981 124.175L111.984 124.034L111.986 123.89L111.986 123.743L111.984 123.594L111.981 123.442L111.975 123.288L111.967 123.131L111.958 122.972L111.946 122.81L111.933 122.646L111.917 122.479L111.9 122.31L111.881 122.138L111.861 121.964L111.838 121.787L111.813 121.608L111.787 121.426L111.759 121.242L111.729 121.055L111.697 120.866L111.663 120.675L111.627 120.481L111.59 120.284L111.551 120.085L111.51 119.884L111.467 119.68L111.423 119.474L111.376 119.265L111.328 119.054L111.278 118.841L111.227 118.625L111.173 118.407L111.118 118.186L111.062 117.963L111.003 117.738L110.943 117.51L110.881 117.28L110.817 117.048L110.752 116.813L110.685 116.576L110.616 116.337L110.546 116.095L110.474 115.851L110.4 115.605L110.325 115.356L110.248 115.105L110.169 114.852L110.089 114.597L110.007 114.339L109.924 114.079L109.839 113.817L109.752 113.553L109.664 113.286L109.574 113.017L109.483 112.746L109.39 112.473L109.295 112.198L109.199 111.92L109.102 111.641L109.003 111.359L108.902 111.075L108.8 110.789L108.697 110.501L108.592 110.211L108.486 109.918L108.378 109.624L108.268 109.327L108.157 109.029L108.045 108.728L107.932 108.425L107.817 108.121L107.7 107.814L107.582 107.505L107.463 107.195L107.342 106.882L107.22 106.567L107.097 106.251L106.972 105.932L106.846 105.612L106.719 105.289L106.59 104.965L106.46 104.639L106.329 104.311L106.196 103.981L106.062 103.649L105.927 103.316L105.791 102.981L105.653 102.643L105.514 102.304L105.374 101.964L105.233 101.621L105.09 101.277L104.947 100.931L104.802 100.583L104.656 100.234L104.509 99.8825L104.36 99.5297L104.211 99.1752L104.06 98.8191L103.755 98.1019L67.9706 23.871L67.786 23.5308L67.602 23.1925L67.4185 22.8562L67.2357 22.5218L67.0534 22.1894L66.8718 21.8589L66.6908 21.5305L66.5104 21.204L66.3306 20.8796L66.1514 20.5573L65.9728 20.237L65.7949 19.9188L65.6176 19.6027L65.441 19.2887L65.265 18.9768L65.0896 18.6671L64.9149 18.3596L64.7408 18.0542L64.5675 17.751L64.3947 17.45L64.2227 17.1513L64.0513 16.8548L63.8806 16.5606L63.7105 16.2686L63.5412 15.9789L63.3725 15.6916L63.2045 15.4065L63.0373 15.1238L62.8707 14.8435L62.7048 14.5655L62.5396 14.2898L62.3751 14.0166L62.2113 13.7458L62.0483 13.4774L61.8859 13.2115L61.7243 12.948L61.5634 12.6869L61.4032 12.4284L61.2438 12.1723L61.085 11.9188L60.9271 11.6677L60.7698 11.4192L60.6133 11.1733L60.4575 10.9299L60.3024 10.6891L60.1481 10.4508L59.9946 10.2152L59.8418 9.98218L59.6897 9.75179L59.5384 9.52404L59.3879 9.29894L59.2381 9.0765L59.089 8.85674L58.9407 8.63966L58.7932 8.42528L58.6465 8.21362L58.5005 8.00468L58.3552 7.79847L58.2108 7.595L58.0671 7.3943L57.9242 7.19636L57.782 7.0012L57.6407 6.80883L57.5001 6.61927L57.3602 6.43251L57.2212 6.24858L57.0829 6.06748L56.9454 5.88922L56.8087 5.71382L56.6728 5.54127L56.5376 5.3716L56.4032 5.20482L56.2697 5.04092L56.1368 4.87993L56.0048 4.72184L55.8736 4.56668L55.7431 4.41445L55.6135 4.26515L55.4846 4.1188L55.3565 3.97541L55.2292 3.83497L55.1026 3.69751L54.9769 3.56303L54.8519 3.43154L54.7278 3.30305L54.6044 3.17756L54.4818 3.05507L54.36 2.93561L54.2389 2.81918L54.1187 2.70577L53.9992 2.59541L53.8805 2.48809L53.7627 2.38383L53.6456 2.28263L53.5292 2.18449L53.4137 2.08943L53.2989 1.99745L53.185 1.90855L53.0718 1.82275L52.9593 1.74004L52.8477 1.66043L52.7368 1.58393L52.6268 1.51054L52.5175 1.44027L52.4089 1.37313L52.3012 1.30911L52.1942 1.24822L52.088 1.19047L51.9825 1.13586L51.8779 1.0844L51.774 1.03608L51.6708 0.990918L51.5685 0.948914L51.4669 0.910068L51.366 0.874387L51.266 0.841873L51.1666 0.812528L51.0681 0.786357L50.9703 0.763359L50.8732 0.743543L50.7769 0.726906L50.6814 0.71345L50.5866 0.703183L50.4925 0.696101L50.3992 0.692208L50.3067 0.691506L50.2149 0.693995L50.1238 0.699679L50.0335 0.708557L49.9439 0.720632L49.855 0.735904L49.7669 0.754372L49.6795 0.776037L49.5928 0.800904L49.5069 0.828967L49.4216 0.860229L49.3371 0.894692L49.2533 0.932349L49.1703 0.973208L49.0879 1.01726L49.0063 1.06452L48.9253 1.11496L48.8451 1.16861L48.7656 1.22545L48.6868 1.28547L48.6086 1.3487L48.5312 1.41511L48.4545 1.48471L48.3784 1.55749L48.3031 1.63346L48.2284 1.71261L48.1544 1.79493L48.0811 1.88044L48.0084 1.96912L47.9365 2.06096L47.8652 2.15598L47.7946 2.25416L47.7246 2.3555L47.6553 2.46L47.5867 2.56765L47.5187 2.67846L47.4514 2.7924L47.3847 2.90949L47.3187 3.02972L47.2533 3.15308L47.1886 3.27957L47.1245 3.40918L47.061 3.54191L46.9981 3.67776L46.9359 3.81671L46.8743 3.95876L46.8134 4.10392L46.753 4.25216L46.6933 4.40349L46.6342 4.5579L46.5757 4.71538L46.5178 4.87593L46.4605 5.03954L46.4038 5.2062L46.3477 5.37591L46.2921 5.54866L46.2372 5.72445L46.1829 5.90326L46.1291 6.08509L46.0759 6.26992L46.0233 6.45777L45.9713 6.6486L45.9198 6.84242L45.8689 7.03923L45.8185 7.239L45.7687 7.44174L45.7195 7.64743L45.6708 7.85606L45.6227 8.06763L45.5751 8.28212L45.528 8.49954L45.4815 8.71986L45.4355 8.94308L45.39 9.16919L45.3451 9.39818L45.3007 9.63004L45.2568 9.86476L45.2134 10.1023L45.1705 10.3427L45.1282 10.586L45.0863 10.832L45.0449 11.0809L45.0041 11.3325L44.9637 11.587L44.9238 11.8442L44.8844 12.1041L44.8455 12.3669L44.8071 12.6323L44.7691 12.9005L44.7316 13.1714L44.6946 13.445L44.658 13.7213L44.6219 14.0003L44.5863 14.2819L44.5511 14.5662L44.5163 14.8532L44.482 15.1427L44.4482 15.4349L44.4147 15.7297L44.3818 16.0271L44.3492 16.327L44.3171 16.6295L44.2854 16.9346L44.2541 17.2422L44.2232 17.5523L44.1928 17.8649L44.1627 18.18L44.1331 18.4976L44.1039 18.8176L44.075 19.1401L44.0466 19.465L44.0186 19.7924L43.9909 20.1221L43.9636 20.4543L43.9367 20.7888L43.9102 21.1256L43.8841 21.4649L43.8583 21.8064L43.8329 22.1503L43.8079 22.4964L43.7832 22.8448L43.7589 23.1955L43.735 23.5485L43.7114 23.9037L43.6881 24.261L43.6652 24.6206L43.6426 24.9824L43.6204 25.3463L43.5985 25.7124L43.5769 26.0806L43.5557 26.451L43.5348 26.8234L43.5142 27.1979L43.4939 27.5745L43.474 27.9531L43.4543 28.3338L43.435 28.7164L43.416 29.1011L43.3973 29.4877L43.3788 29.8763L43.4014 112.672L43.4202 113.058L43.4393 113.443L43.4587 113.825L43.4784 114.205L43.4984 114.583L43.5187 114.959L43.5394 115.333L43.5604 115.705L43.5817 116.075L43.6033 116.443L43.6253 116.809L43.6476 117.172L43.6703 117.533L43.6932 117.892L43.7166 118.249L43.7403 118.604L43.7643 118.956L43.7887 119.307L43.8134 119.655L43.8385 120L43.864 120.344L43.8899 120.685L43.9161 121.023L43.9427 121.36L43.9696 121.694L43.997 122.025L44.0247 122.354L44.0529 122.681L44.0814 123.006L44.1103 123.328L44.1396 123.647L44.1694 123.964L44.1995 124.279L44.23 124.591L44.261 124.9L44.2924 125.207L44.3242 125.512L44.3564 125.814L44.389 126.113L44.4221 126.41L44.4556 126.704L44.4896 126.996L44.524 127.285L44.5588 127.571L44.5941 127.855L44.6299 128.136L44.6661 128.414L44.7028 128.69L44.7399 128.963L44.7775 129.233L44.8156 129.501L44.8541 129.766L44.8931 130.028L44.9326 130.287L44.9726 130.544L45.0131 130.798L45.0541 131.049L45.0956 131.297L45.1375 131.542L45.18 131.785L45.223 132.025L45.2665 132.262L45.3105 132.496L45.355 132.727L45.4001 132.955L45.4457 133.181L45.4918 133.403L45.5384 133.623L45.5856 133.84L45.6333 134.054L45.6816 134.264L45.7304 134.472L45.7797 134.677L45.8297 134.88L45.8801 135.079L45.9312 135.275L45.9828 135.468L46.0349 135.658L46.0877 135.845L46.141 136.029L46.1949 136.211L46.2493 136.389L46.3044 136.564L46.3601 136.736L46.4163 136.905L46.4731 137.071L46.5306 137.234L46.5886 137.394L46.6473 137.551L46.7065 137.704L46.7664 137.855L46.8269 138.002L46.888 138.147L46.9497 138.288L47.012 138.427L47.075 138.562L47.1386 138.694L47.2029 138.823L47.2678 138.949L47.3333 139.071L47.3995 139.191L47.4663 139.307L47.5338 139.42L47.6019 139.53L47.6707 139.637L47.7401 139.741L47.8102 139.842L47.881 139.939L47.9524 140.034L48.0245 140.125L48.0973 140.213L48.1708 140.298L48.2449 140.379L48.3197 140.458L48.3952 140.533L48.4714 140.605L48.5483 140.674L48.6259 140.74L48.7042 140.802L48.7832 140.861L48.8629 140.917L48.9432 140.97L49.0243 141.02L49.1061 141.067L49.1886 141.11L49.2719 141.15L49.3558 141.187L49.4405 141.221L49.5259 141.251L49.612 141.279L49.6988 141.303L49.7864 141.324L49.8747 141.342L49.9637 141.356L50.0535 141.368L50.144 141.376L50.2352 141.381L50.3272 141.383L50.4199 141.381L50.5134 141.377L50.6076 141.369L50.7025 141.358L50.7982 141.344L50.8947 141.326L50.9919 141.306L51.0899 141.282L51.1886 141.255L51.2881 141.225L51.3884 141.192L51.4894 141.156L51.5911 141.116L51.6937 141.073L51.797 141.027L51.901 140.978L52.0059 140.926L52.1115 140.871L52.2179 140.812L52.325 140.751L52.433 140.686L52.5417 140.618L52.6511 140.547L52.7614 140.473L52.8724 140.396L52.9842 140.316L53.0968 140.232L53.2102 140.146L53.3243 140.056L53.4393 139.964L53.555 139.868L53.6715 139.769L53.7888 139.667L53.9068 139.562L54.0257 139.454L54.1453 139.343L54.2657 139.229L54.3869 139.112L54.5089 138.992L54.6317 138.869L54.7553 138.743L54.8796 138.613L55.0047 138.481L55.1307 138.346L55.2574 138.208L55.3848 138.067L55.5131 137.923L55.6422 137.776L55.772 137.626L55.9027 137.473L56.0341 137.317L56.1663 137.159L56.2993 136.997L56.433 136.832L56.5676 136.665L56.7029 136.495L56.839 136.321L56.9759 136.145L57.1135 135.966L57.252 135.785L57.3912 135.6L57.5312 135.413L57.672 135.223L57.8135 135.03L57.9559 134.834L58.0989 134.635L58.2428 134.434L58.3874 134.23L58.5328 134.023L58.679 133.814L58.8259 133.601L58.9736 133.386L59.122 133.169L59.2713 132.948L59.4212 132.725L59.5719 132.5L59.7234 132.271L59.8756 132.04L60.0286 131.807L60.1823 131.57L60.3368 131.332L60.492 131.09L60.648 130.846L60.8047 130.6L60.9621 130.351L61.1202 130.099L61.2791 129.845L61.4387 129.588L61.5991 129.329L61.7602 129.068L61.9219 128.804L62.0844 128.537L62.2476 128.268L62.4116 127.997L62.5762 127.723L62.7416 127.447L62.9076 127.168L63.0743 126.888L63.2418 126.604L63.4099 126.319L63.5787 126.031L63.7482 125.741L63.9184 125.448L64.0893 125.153L64.2608 124.856L64.433 124.557L64.6059 124.256L64.7794 123.952L64.9536 123.646L65.1285 123.338L65.304 123.028L65.4801 122.716L65.6569 122.401L65.8343 122.085L66.0124 121.766L66.1911 121.445L66.3704 121.122L66.5504 120.798L66.7309 120.471L66.9121 120.142L67.0939 119.811L67.2762 119.478L67.4592 119.143L67.6428 118.806L67.8269 118.468L68.0117 118.127L103.789 43.8921L104.094 43.1756L104.393 42.4657L104.541 42.1133L104.688 41.7625L104.834 41.4135L104.979 41.0661L105.122 40.7205L105.264 40.3766L105.405 40.0345L105.545 39.6941L105.684 39.3555L105.821 39.0188L105.957 38.6838L106.092 38.3507L106.226 38.0193L106.358 37.6899L106.489 37.3623L106.619 37.0366L106.747 36.7127L106.874 36.3908L107 36.0708L107.124 35.7527L107.247 35.4366L107.369 35.1224L107.489 34.8102L107.608 34.4999L107.726 34.1917L107.842 33.8855L107.957 33.5812L108.07 33.279L108.182 32.9788L108.293 32.6807L108.402 32.3847L108.509 32.0907L108.615 31.7988L108.72 31.509L108.823 31.2212L108.925 30.9357L109.025 30.6522L109.124 30.3709L109.221 30.0917L109.317 29.8147L109.411 29.5398L109.503 29.2671L109.594 28.9967L109.684 28.7284L109.771 28.4623L109.858 28.1984L109.942 27.9368L110.025 27.6774L110.107 27.4202L110.187 27.1654L110.265 26.9127L110.342 26.6624L110.417 26.4143L110.49 26.1685L110.562 25.925L110.632 25.6838L110.7 25.445L110.767 25.2084L110.832 24.9742L110.895 24.7423L110.956 24.5128L111.016 24.2856L111.074 24.0608L111.131 23.8384L111.185 23.6183L111.238 23.4006L111.29 23.1854L111.339 22.9725L111.387 22.762L111.433 22.5539L111.477 22.3482L111.519 22.145L111.56 21.9442L111.598 21.7458L111.635 21.5499L111.671 21.3564L111.704 21.1654L111.735 20.9768L111.765 20.7907L111.793 20.6071L111.819 20.4259L111.843 20.2472L111.865 20.071L111.886 19.8973L111.904 19.7261L111.921 19.5574L111.936 19.3912L111.949 19.2275L111.96 19.0663L111.969 18.9076L111.976 18.7514L111.982 18.5978L111.985 18.4467L111.987 18.2981L111.986 18.152L111.984 18.0085L111.979 17.8675L111.973 17.7291L111.965 17.5932L111.955 17.4599L111.943 17.3291L111.929 17.2008L111.913 17.0751L111.895 16.952L111.875 16.8314L111.853 16.7134L111.83 16.598L111.804 16.4851L111.776 16.3747L111.746 16.267L111.714 16.1618L111.681 16.0592L111.645 15.9591L111.607 15.8616L111.567 15.7667L111.525 15.6744L111.482 15.5846L111.436 15.4974L111.388 15.4128L111.338 15.3307L111.286 15.2513L111.232 15.1743L111.176 15.1L111.118 15.0282L111.058 14.959L110.996 14.8924L110.932 14.8284L110.866 14.7669L110.798 14.7079L110.728 14.6516L110.655 14.5978L110.581 14.5466L110.505 14.4979L110.426 14.4518L110.346 14.4082L110.263 14.3672L110.179 14.3288L110.092 14.2929L110.004 14.2595L109.913 14.2287L109.82 14.2005L109.725 14.1748L109.628 14.1516L109.529 14.1309L109.428 14.1128L109.325 14.0972L109.22 14.0842L109.113 14.0736L109.004 14.0656L108.892 14.0601L108.779 14.0571L108.663 14.0566L108.546 14.0586L108.426 14.0632L108.305 14.0702L108.181 14.0796L108.055 14.0916L107.928 14.1061L107.798 14.123L107.666 14.1424L107.532 14.1643L107.396 14.1886L107.258 14.2154L107.118 14.2446L106.976 14.2763L106.831 14.3104L106.685 14.347L106.537 14.3859L106.387 14.4273L106.234 14.4711L106.08 14.5173L105.924 14.566L105.765 14.617L105.605 14.6704L105.442 14.7262L105.278 14.7843L105.112 14.8449L104.943 14.9077L104.773 14.973L104.6 15.0406L104.426 15.1105L104.249 15.1828L104.071 15.2574L103.89 15.3343L103.708 15.4135L103.523 15.4951L103.337 15.5789L103.149 15.665L102.958 15.7534L102.766 15.8441L102.572 15.937L102.375 16.0322L102.177 16.1296L101.977 16.2292L101.775 16.3311L101.571 16.4352L101.365 16.5416L101.157 16.6501L100.948 16.7608L100.736 16.8737L100.523 16.9888L100.307 17.106L100.09 17.2254L99.8705 17.347L99.6494 17.4706L99.4264 17.5964L99.2015 17.7244L98.9748 17.8544L98.7463 17.9865L98.5159 18.1207L98.2836 18.257L98.0495 18.3954L97.8136 18.5358L97.5759 18.6783L97.3363 18.8228L97.095 18.9693L96.8518 19.1178L96.6069 19.2684L96.3602 19.4209L96.1117 19.5754L95.8615 19.7319L95.6094 19.8904L95.3557 20.0508L95.1002 20.2131L94.843 20.3774L94.584 20.5436L94.3233 20.7117L94.0609 20.8816L93.7969 21.0535L93.5311 21.2272L93.2636 21.4028L92.9945 21.5802L92.7237 21.7595L92.4513 21.9406L92.1772 22.1235L91.9015 22.3082L91.6242 22.4947L91.3453 22.6829L91.0647 22.8729L90.7826 23.0647L90.4988 23.2582L90.2135 23.4534L89.9267 23.6504L89.6382 23.849L89.3483 24.0493L89.0568 24.2513L88.7638 24.455L88.4693 24.6603L88.1732 24.8672L87.8757 25.0758L87.5767 25.286L87.2763 25.4977L86.9744 25.7111L86.671 25.926L86.3662 26.1425L86.06 26.3605L85.7524 26.5801L85.4434 26.8012L85.1329 27.0238L84.8212 27.2478L84.508 27.4734L84.1935 27.7004L19.4608 79.3236L19.1696 79.5797L18.88 79.8348L18.5923 80.0888L18.3062 80.3419L18.022 80.594L17.7395 80.845L17.4589 81.095L17.1801 81.3439L16.9031 81.5918L16.6279 81.8387L16.3546 82.0844L16.0833 82.3291L15.8138 82.5728L15.5462 82.8153L15.2805 83.0567L15.0168 83.297L14.7551 83.5362L14.4953 83.7743L14.2375 84.0113L13.9818 84.2471L13.728 84.4818L13.4763 84.7153L13.2266 84.9477L12.9789 85.1789L12.7334 85.4089L12.4899 85.6377L12.2486 85.8654L12.0093 86.0919L11.7722 86.3172L11.5372 86.5412L11.3044 86.7641L11.0738 86.9857L10.8453 87.2061L10.6191 87.4253L10.3951 87.6433L10.1732 87.86L9.95365 88.0754L9.73633 88.2896L9.52126 88.5026L9.30848 88.7142L9.09798 88.9246L8.88979 89.1338L8.68391 89.3416L8.48036 89.5481L8.27915 89.7534L8.08029 89.9574L7.8838 90.16L7.68968 90.3614L7.49795 90.5614L7.30862 90.7601L7.1217 90.9575L6.93721 91.1536L6.75515 91.3483L6.57554 91.5417L6.39839 91.7338L6.2237 91.9245L6.0515 92.1139L5.88178 92.3019L5.71457 92.4885L5.54987 92.6738L5.3877 92.8577L5.22805 93.0403L5.07095 93.2215L4.91641 93.4013L4.76443 93.5797L4.61503 93.7567L4.4682 93.9324L4.32398 94.1066L4.18236 94.2795L4.04335 94.451L3.90697 94.6211L3.77321 94.7898L3.6421 94.957L3.51364 95.1229L3.38784 95.2873L3.26471 95.4504L3.14426 95.612L3.02649 95.7722L2.91142 95.931L2.79905 96.0883L2.68939 96.2443L2.58245 96.3988L2.47824 96.5519L2.37676 96.7035L2.27803 96.8537L2.18205 97.0025L2.08882 97.1499L1.99836 97.2958L1.91067 97.4403L1.82576 97.5833L1.74364 97.7249L1.66431 97.8651L1.58779 98.0038L1.51406 98.141L1.44316 98.2768L1.37507 98.4112L1.3098 98.5441L1.24737 98.6756L1.18778 98.8056L1.13103 98.9342L1.07712 99.0613L1.02608 99.187L0.977888 99.3113L0.932565 99.434L0.890111 99.5554L0.850532 99.6752L0.813835 99.7936L0.780019 99.9106L0.749094 100.026L0.721062 100.14L0.695928 100.253L0.673694 100.364L0.654368 100.474L0.637949 100.582L0.624445 100.689L0.613855 100.794L0.606188 100.898L0.601443 101.001L0.599625 101.102L0.600735 101.201L0.604779 101.299L0.611758 101.396L0.621673 101.491L0.63453 101.585L0.650326 101.678L0.669069 101.769L0.690758 101.858L0.715393 101.946L0.74298 102.033L0.773516 102.118L0.807008 102.202L0.843451 102.284L0.88285 102.365L0.925205 102.445L0.970517 102.523L1.01879 102.6L1.07001 102.675L1.1242 102.749L1.18134 102.821L1.24145 102.892L1.30451 102.962L1.37053 103.03L1.4395 103.097L1.51144 103.162L1.58633 103.226L1.66418 103.289L1.74498 103.35L1.82874 103.41L1.91545 103.469L2.00511 103.526L2.09772 103.582L2.19328 103.636L2.29178 103.689L2.39323 103.741L2.49762 103.791L2.60495 103.84L2.71522 103.887L2.82843 103.933L2.94456 103.978L3.06362 104.022L3.18561 104.064L3.31053 104.105L3.43836 104.144L3.56911 104.182L3.70277 104.219L3.83934 104.255L3.97882 104.289L4.1212 104.322L4.26647 104.353L4.41463 104.383L4.56569 104.412L4.71962 104.44L4.87644 104.466L5.03612 104.492L5.19868 104.515L5.3641 104.538L5.53238 104.559L5.7035 104.579L5.87748 104.598L6.0543 104.615L6.23394 104.631L6.41643 104.646L6.60173 104.66L6.78984 104.672L6.98077 104.684L7.1745 104.694L7.37102 104.702L7.57033 104.71L7.77243 104.716L7.9773 104.721L8.18493 104.725L8.39533 104.728L8.60847 104.729L8.82437 104.73L9.04299 104.729L9.26435 104.727L9.48842 104.724L9.71521 104.719L9.94469 104.714L10.1769 104.707L10.4117 104.699L10.6493 104.69L10.8895 104.68L11.1324 104.669L11.3779 104.656L11.626 104.643L11.8768 104.628L12.1302 104.613L12.3862 104.596L12.6448 104.578L12.906 104.559L13.1698 104.539L13.4361 104.518L13.705 104.495L13.9765 104.472L14.2505 104.448L14.527 104.422L14.806 104.396L15.0875 104.368L15.3715 104.34L15.658 104.31L15.947 104.28L16.2384 104.248L16.5323 104.215L16.8286 104.182L17.1273 104.147L17.4284 104.112L17.7319 104.075L18.0378 104.037L18.3461 103.999L18.6567 103.959L18.9696 103.919L19.2849 103.878L19.6025 103.835L19.9225 103.792L20.2447 103.748L20.5691 103.703L20.8959 103.657L21.2249 103.61L21.5561 103.562L21.8895 103.513L22.2252 103.463L22.563 103.413L22.9031 103.361L23.2453 103.309L23.5896 103.256L23.9361 103.202L24.2846 103.147L24.6353 103.091L24.9881 103.035L25.343 102.978L25.6999 102.919L26.0588 102.86L26.4198 102.801L26.7828 102.74L27.1478 102.679L27.5148 102.616L27.8837 102.553L28.2546 102.49L28.6274 102.425L29.0021 102.36L29.3787 102.294L29.7572 102.227L30.1376 102.16L30.5198 102.092L110.487 83.8689L110.864 83.7643L111.612 83.5555L111.983 83.4514L112.352 83.3473L112.719 83.2435L113.084 83.1397L113.447 83.0361L113.808 82.9327L114.167 82.8294L114.524 82.7263L114.878 82.6233L115.231 82.5205L115.581 82.4178L115.929 82.3153L116.275 82.2129L116.618 82.1106L116.96 82.0086L117.299 81.9067L117.636 81.8049L117.97 81.7033L118.303 81.6018L118.633 81.5005L118.96 81.3994L119.286 81.2984L119.609 81.1976L119.929 81.0969L120.247 80.9964L120.563 80.896L120.876 80.7958L121.187 80.6957L121.496 80.5958L121.802 80.4961L122.105 80.3965L122.406 80.2971L122.705 80.1978L123 80.0987L123.294 79.9997L123.585 79.9009L123.873 79.8022L124.158 79.7037L124.442 79.6054L124.722 79.5071L125 79.4091L125.275 79.3112L125.547 79.2134L125.817 79.1158L126.084 79.0184L126.349 78.9211L126.61 78.8239L126.869 78.7269L127.126 78.6301L127.379 78.5334L127.63 78.4368L127.878 78.3404L128.123 78.2441L128.365 78.1479L128.605 78.0519L128.842 77.9561L129.076 77.8603L129.307 77.7647L129.535 77.6693L129.76 77.574L129.983 77.4788L130.202 77.3837L130.419 77.2888L130.633 77.194L130.843 77.0994L131.051 77.0048L131.256 76.9104L131.458 76.8162L131.657 76.722L131.853 76.628L132.047 76.5341L132.237 76.4403L132.424 76.3466L132.608 76.253L132.789 76.1596L132.967 76.0663L133.142 75.973L133.314 75.8799L133.483 75.7869L133.649 75.694L133.811 75.6012L133.971 75.5085L134.128 75.416L134.281 75.3235L134.432 75.2311L134.579 75.1388L134.723 75.0466L134.864 74.9545L135.002 74.8625L135.137 74.7706L135.269 74.6787L135.397 74.587L135.522 74.4953L135.645 74.4037L135.764 74.3122L135.879 74.2208L135.992 74.1294L136.102 74.0382L136.208 73.947L136.311 73.8558L136.411 73.7648L136.507 73.6738L136.601 73.5828L136.691 73.4919L136.778 73.4011L136.862 73.3104L136.943 73.2196L137.02 73.129L137.094 73.0384L137.165 72.9478L137.232 72.8573L137.297 72.7669L137.358 72.6764L137.416 72.5861L137.47 72.4957L137.522 72.4054L137.57 72.3151L137.615 72.2249L137.656 72.1347L137.695 72.0445L137.73 71.9543L137.761 71.8642L137.79 71.7741L137.815 71.684L137.837 71.5939L137.856 71.5039L137.871 71.4138L137.883 71.3238L137.892 71.2337L137.897 71.1437L137.9 71.0536" stroke="#FFC700" stroke-width="0.8"/>
</svg>
