<svg width="139" height="139" viewBox="0 0 139 139" fill="none" xmlns="http://www.w3.org/2000/svg">
<path d="M137.926 69.6914L137.868 70.3368L137.693 70.9835L137.402 71.6329L136.995 72.2863L136.474 72.9449L135.839 73.61L135.093 74.2829L134.235 74.9647L133.269 75.6565L132.196 76.3594L131.019 77.0744L129.74 77.8023L128.362 78.544L126.888 79.3002L125.321 80.0716L123.664 80.8586L121.921 81.6619L120.095 82.4816L118.191 83.3179L116.211 84.1711L114.162 85.041L112.046 85.9275L109.868 86.8304L107.633 87.7491L105.345 88.6832L103.009 89.6321L58.2806 107.703L55.9491 108.639L53.6632 109.552L51.4266 110.439L49.243 111.296L47.116 112.122L45.0487 112.914L43.0445 113.668L41.1061 114.381L39.2364 115.051L37.4381 115.676L35.7133 116.251L34.0644 116.775L32.4933 117.245L31.0018 117.658L29.5915 118.011L28.2636 118.303L27.0193 118.53L25.8597 118.691L24.7853 118.783L23.7966 118.805L22.8941 118.754L22.0778 118.628L21.3476 118.426L20.7031 118.146L20.144 117.788L19.6695 117.349L19.2787 116.829L18.9706 116.227L18.7439 115.542L18.5973 114.774L18.5292 113.923L18.538 112.988L18.6216 111.969L18.7783 110.868L19.0057 109.683L19.3018 108.417L19.6641 107.07L20.0901 105.644L20.5774 104.138L21.1233 102.556L21.7251 100.898L22.38 99.1677L23.0851 97.3659L23.8376 95.4954L24.6346 93.5587L25.4731 91.5586L26.3501 89.4979L27.2628 87.3799L28.2081 85.2078L29.1831 82.985L30.1848 80.7152L31.2103 78.402L49.7923 36.6645L50.8319 34.3356L51.8557 32.0512L52.8627 29.8162L53.8523 27.6351L54.8237 25.5125L55.7765 23.4529L56.7103 21.4605L57.6248 19.5396L58.5199 17.6943L59.3955 15.9285L60.2519 14.246L61.0893 12.6504L61.908 11.1452L62.7084 9.73367L63.4912 8.41885L64.2571 7.20363L65.0067 6.09071L65.7409 5.08255L66.4608 4.18139L67.1672 3.38925L67.8612 2.70794L68.5441 2.13901L69.2169 1.68376L69.8809 1.34328L70.5374 1.11839L71.1876 1.00968L71.833 1.01747L72.4748 1.14184L73.1143 1.38261L73.753 1.73937L74.3921 2.21144L75.0329 2.7979L75.6768 3.49757L76.325 4.30905L76.9786 5.23068L77.6389 6.26058L78.3069 7.39662L78.9838 8.63647L79.6703 9.97755L80.3676 11.4171L81.0762 12.9521L81.7971 14.5794L82.5307 16.2956L83.2776 18.0972L84.0383 19.9805L84.813 21.9415L85.6018 23.9761L86.405 26.0804L87.2225 28.2498L88.054 30.4799L88.8993 32.7663L89.7579 35.1042L90.6293 37.4889L106.256 80.4226L107.123 82.8124L107.969 85.1583L108.793 87.4564L109.591 89.7028L110.361 91.8938L111.101 94.026L111.807 96.096L112.476 98.1006L113.107 100.037L113.695 101.902L114.239 103.693L114.737 105.408L115.184 107.045L115.578 108.601L115.918 110.075L116.201 111.465L116.423 112.771L116.583 113.99L116.679 115.122L116.709 116.166L116.67 117.122L116.561 117.989L116.379 118.767L116.124 119.456L115.794 120.058L115.388 120.571L114.903 120.998L114.341 121.338L113.698 121.593L112.976 121.765L112.174 121.854L111.29 121.862L110.326 121.792L109.281 121.644L108.155 121.421L106.95 121.126L105.666 120.759L104.303 120.325L102.863 119.825L101.348 119.263L99.7578 118.64L98.0954 117.959L96.3625 117.224L94.5611 116.438L92.6935 115.603L90.7624 114.722L88.7703 113.799L86.7202 112.836L84.6152 111.837L82.4585 110.804L80.2534 109.741L78.0036 108.651L75.7128 107.537L34.6488 87.5077L32.3735 86.3939L30.1439 85.2977L27.9647 84.2204L25.8406 83.1628L23.776 82.1256L21.7752 81.1094L19.8426 80.1148L17.9823 79.142L16.1983 78.1914L14.4946 77.2629L12.8748 76.3566L11.3425 75.4722L9.90116 74.6096L8.55394 73.7683L7.30389 72.9478L6.15382 72.1474L5.10638 71.3666L4.16397 70.6045L3.3288 69.8602L2.60283 69.1328L1.98779 68.4212L1.48521 67.7242L1.09635 67.0409L0.822235 66.3698L0.663635 65.7099L0.621094 65.0598L0.694886 64.4181L0.885049 63.7835L1.19136 63.1548L1.61334 62.5305L2.15028 61.9092L2.8012 61.2897L3.5649 60.6707L4.43992 60.0508L5.42454 59.4288L6.51685 58.8034L7.71467 58.1736L9.01562 57.5383L10.4171 56.8964L11.9162 56.2469L13.5101 55.589L15.1953 54.9218L16.9686 54.2448L18.8262 53.5572L20.7645 52.8585L22.7796 52.1484L24.8672 51.4266L27.0232 50.6929L29.2432 49.9472L31.5227 49.1896L33.8572 48.4202L36.2419 47.6395L38.672 46.8478L82.1204 32.7316L84.5228 31.9556L86.8791 31.1991L89.1854 30.4646L91.4377 29.7547L93.6323 29.0718L95.7658 28.4187L97.8346 27.7979L99.8356 27.2121L101.766 26.6639L103.622 26.156L105.403 25.691L107.104 25.2714L108.725 24.8999L110.263 24.5788L111.716 24.3108L113.083 24.0981L114.363 23.9431L115.553 23.848L116.654 23.815L117.665 23.8461L118.585 23.9433L119.413 24.1083L120.151 24.3428L120.797 24.6485L121.353 25.0267L121.818 25.4787L122.194 26.0056L122.482 26.6084L122.682 27.2879L122.796 28.0446L122.826 28.879L122.772 29.7913L122.638 30.7817L122.425 31.85L122.134 32.9959L121.769 34.2189L121.332 35.5182L120.824 36.8929L120.25 38.342L119.611 39.8642L118.91 41.4579L118.15 43.1213L117.335 44.8527L116.467 46.6499L115.549 48.5106L114.584 50.4324L113.576 52.4125L112.527 54.4481L111.442 56.5362L110.322 58.6737L109.172 60.857L107.994 63.0829L85.3457 105.677L84.1602 107.896L82.9945 110.068L81.8497 112.188L80.7269 114.253L79.6268 116.257L78.5503 118.196L77.4979 120.067L76.47 121.864L75.467 123.585L74.489 125.224L73.5361 126.78L72.6081 128.247L71.7049 129.623L70.8262 130.904L69.9715 132.088L69.1402 133.172L68.3318 134.152L67.5454 135.028L66.7802 135.796L66.0353 136.456L65.3098 137.004L64.6024 137.44L63.9121 137.762L63.2378 137.969L62.578 138.062L61.9316 138.038L61.2972 137.899L60.6736 137.643L60.0592 137.272L59.4528 136.785L58.853 136.184L58.2584 135.47L57.6676 134.643L57.0794 133.706L56.4925 132.66L55.9055 131.507L55.3173 130.249L54.7267 128.889L54.1327 127.429L53.5341 125.872L52.9301 124.221L52.3197 122.481L51.7022 120.653L51.0768 118.741L50.443 116.751L49.8003 114.684L49.1483 112.547L48.4866 110.342L47.8152 108.074L47.1339 105.748L46.4429 103.369L45.7423 100.941L33.1488 57.0252L32.4471 54.5701L31.7619 52.1591L31.0953 49.7963L30.45 47.4858L29.8281 45.2316L29.2323 43.0373L28.6649 40.9065L28.1286 38.8427L27.6259 36.849L27.1592 34.9286L26.7311 33.0841L26.3441 31.3183L26.0008 29.6336L25.7035 28.0322L25.4547 26.5161L25.2568 25.0872L25.1121 23.7469L25.0229 22.4966L24.9912 21.3376L25.0191 20.2706L25.1087 19.2964L25.2619 18.4155L25.4803 17.6281L25.7656 16.9343L26.1194 16.3339L26.543 15.8266L27.0377 15.4117L27.6045 15.0884L28.2443 14.8558L28.958 14.7127L29.7461 14.6578L30.6091 14.6895L31.5471 14.8061L32.5603 15.0057L33.6485 15.2863L34.8114 15.6457L36.0485 16.0816L37.3591 16.5915L38.7424 17.1729L40.1971 17.8231L41.7221 18.5392L43.3158 19.3184L44.9766 20.1577L46.7026 21.054L48.4918 22.0043L50.3418 23.0053L52.2502 24.0538L54.2145 25.1467L56.2318 26.2805L58.2991 27.4521L60.4132 28.658L62.571 29.8951L64.769 31.1601L104.337 54.0042L106.539 55.2791L108.699 56.5335L110.81 57.7659L112.869 58.9752L114.872 60.1602L116.813 61.32L118.688 62.4537L120.495 63.5607L122.227 64.6404L123.882 65.6925L125.456 66.7167L126.945 67.7129L128.345 68.681L129.654 69.6213L130.868 70.5339L131.985 71.4193L133.001 72.2779L133.914 73.1104L134.722 73.9175L135.423 74.6999L136.015 75.4585L136.496 76.1944L136.865 76.9085L137.12 77.6021L137.261 78.2762L137.288 78.9321L137.198 79.5711L136.994 80.1946L136.673 80.8038L136.238 81.4002L135.688 81.9852L135.024 82.56L134.247 83.1263L133.359 83.6853L132.361 84.2384L131.255 84.7869L130.042 85.3322L128.726 85.8756L127.308 86.4182L125.792 86.9612L124.18 87.5058L122.475 88.053L120.681 88.6036L118.801 89.1587L116.839 89.719L114.798 90.2852L112.684 90.8579L110.499 91.4376L108.248 92.0248L105.936 92.6195L103.567 93.2221L101.146 93.8327L98.678 94.451L54.3463 105.504L51.8844 106.114L49.4687 106.709L47.1034 107.285L44.7927 107.842L42.5404 108.376L40.3503 108.885L38.226 109.368L36.171 109.82L34.1885 110.241L32.2814 110.627L30.4528 110.977L28.7051 111.287L27.0409 111.555L25.4624 111.78L23.9715 111.958L22.5702 112.087L21.2598 112.166L20.0419 112.191L18.9175 112.162L17.8875 112.075L16.9527 111.929L16.1134 111.722L15.37 111.453L14.7223 111.12L14.1704 110.72L13.7136 110.254L13.3515 109.72L13.0831 109.116L12.9076 108.442L12.8235 107.697L12.8296 106.881L12.9243 105.993L13.1058 105.032L13.3721 104L13.7211 102.895L14.1507 101.719L14.6584 100.471L15.2417 99.1526L15.898 97.7645L16.6244 96.3078L17.4181 94.7837L18.2761 93.1937L19.1954 91.5394L20.1728 89.8226L21.205 88.0454L22.2889 86.21L23.4211 84.3187L24.5982 82.3742L25.8169 80.3792L27.0737 78.3366L28.3653 76.2495L29.6883 74.1212L31.0392 71.955L55.2498 33.2116L56.5927 31.0702L57.9131 28.973L59.2093 26.9246L60.48 24.9293L61.7241 22.9916L62.9404 21.1157L64.1281 19.3058L65.2864 17.5661L66.4146 15.9004L67.5124 14.3127L68.5793 12.8066L69.6152 11.3856L70.62 10.0532L71.5938 8.8126L72.5368 7.66679L73.4493 6.61864L74.3317 5.67083L75.1846 4.8258L76.0086 4.08582L76.8046 3.45292L77.5734 2.92891L78.3159 2.51537L79.0332 2.21366L79.7263 2.0249L80.3965 1.94996L81.045 1.98948L81.6731 2.14385L82.282 2.41321L82.8732 2.79745L83.4481 3.29621L84.0081 3.90889L84.5546 4.63463L85.0891 5.47233L85.6129 6.42065L86.1275 7.478L86.6344 8.64255L87.1348 9.91225L87.6301 11.2848L88.1217 12.7577L88.6107 14.3282L89.0983 15.9933L89.5856 17.75L90.0738 19.5948L90.5637 21.5242L91.0563 23.5345L91.5523 25.6218L92.0525 27.782L92.5574 30.011L93.0676 32.3044L93.5835 34.6576L94.1054 37.0661L94.6333 39.5252L104.663 86.712L105.182 89.1768L105.686 91.5932L106.174 93.957L106.642 96.2641L107.089 98.5106L107.513 100.693L107.91 102.807L108.28 104.849L108.62 106.817L108.927 108.707L109.199 110.516L109.434 112.242L109.629 113.882L109.782 115.434L109.892 116.897L109.954 118.267L109.969 119.545L109.933 120.727L109.844 121.814L109.701 122.804L109.501 123.697L109.243 124.492L108.926 125.189L108.547 125.788L108.105 126.289L107.599 126.693L107.027 127L106.39 127.212L105.685 127.328L104.912 127.351L104.071 127.283L103.161 127.123L102.181 126.876L101.133 126.541L100.015 126.123L98.829 125.622L97.5743 125.042L96.252 124.384L94.8628 123.652L93.4079 122.849L91.8885 121.978L90.306 121.041L88.662 120.041L86.9583 118.983L85.1968 117.869L83.3799 116.702L81.5097 115.487L79.5888 114.226L77.6199 112.923L75.6059 111.582L73.5499 110.206L71.4548 108.798L33.5807 83.2526L31.4625 81.8215L29.385 80.4135L27.3525 79.0302L25.3695 77.6733L23.4405 76.3443L21.5696 75.0444L19.7611 73.7748L18.0191 72.5364L16.3477 71.3302L14.7507 70.1569L13.2319 69.0169L11.7949 67.9107L10.4433 66.8386L9.18025 65.8007L8.00902 64.797L6.93256 63.8273L5.95367 62.8914L5.07495 61.9888L4.2988 61.1192L3.62742 60.2817L3.0628 59.4758L2.60666 58.7006L2.26057 57.9551L2.02582 57.2383L1.90348 56.5492L1.89437 55.8866L1.99908 55.2492L2.21796 54.6357L2.55109 54.0448L2.99833 53.4751L3.55927 52.9252L4.23327 52.3936L5.01944 51.8789L5.91661 51.3796L6.92343 50.8942L8.03824 50.4212L9.2592 49.9592L10.5842 49.5068L12.0109 49.0626L13.5368 48.6252L15.1591 48.1932L16.8748 47.7654L18.6807 47.3406L20.5734 46.9177L22.5495 46.4956L24.605 46.0733L26.7361 45.65L28.9387 45.2247L31.2086 44.7968L33.5413 44.3656L35.9324 43.9307L38.3771 43.4917L40.8709 43.0482L85.8646 35.114L88.3744 34.6741L90.838 34.2462L93.2512 33.8321L95.6096 33.4338L97.9092 33.0532L100.146 32.6925L102.316 32.3538L104.416 32.0392L106.442 31.7509L108.391 31.491L110.261 31.2619L112.047 31.0658L113.748 30.9048L115.361 30.7812L116.884 30.6971L118.314 30.6549L119.651 30.6565L120.892 30.704L122.036 30.7996L123.082 30.9451L124.03 31.1424L124.878 31.3933L125.626 31.6997L126.274 32.0629L126.822 32.4847L127.27 32.9663L127.619 33.5091L127.87 34.1142L128.022 34.7825L128.079 35.5151L128.039 36.3125L127.906 37.1753L127.681 38.104L127.366 39.0988L126.963 40.1597L126.473 41.2866L125.901 42.4793L125.247 43.7374L124.515 45.06L123.707 46.4465L122.827 47.8958L121.877 49.4068L120.861 50.978L119.782 52.6078L118.643 54.2946L117.447 56.0364L116.198 57.8311L114.901 59.6763L113.557 61.5697L112.17 63.5086L110.746 65.4902L109.286 67.5115L107.794 69.5694L80.9389 106.533L79.4437 108.585L77.9736 110.596L76.5305 112.562L75.1162 114.477L73.7321 116.337L72.3797 118.139L71.0602 119.879L69.7746 121.551L68.524 123.152L67.309 124.679L66.1304 126.127L64.9885 127.494L63.8838 128.775L62.8164 129.968L61.7863 131.068L60.7936 132.075L59.8379 132.984L58.9189 133.793L58.0362 134.5L57.1891 135.102L56.3769 135.598L55.5989 135.987L54.8541 136.265L54.1415 136.434L53.46 136.49L52.8085 136.434L52.1857 136.265L51.5903 135.982L51.021 135.586L50.4763 135.077L49.9548 134.455L49.455 133.721L48.9754 132.876L48.5145 131.921L48.0708 130.858L47.6427 129.687L47.2287 128.412L46.8274 127.034L46.4372 125.555L46.0567 123.979L45.6846 122.307L45.3194 120.544L44.9599 118.691L44.6048 116.753L44.253 114.734L43.9034 112.636L43.555 110.464L43.2068 108.222L42.8581 105.915L42.508 103.546L42.1561 101.121L41.8016 98.6432L41.4443 96.1184L35.0865 50.8757L34.7381 48.369L34.4008 45.9104L34.0761 43.5044L33.766 41.1552L33.4723 38.867L33.197 36.6438L32.942 34.4893L32.7095 32.4071L32.5014 30.4008L32.32 28.4736L32.1672 26.6285L32.0453 24.8684L31.9563 23.196L31.9024 21.6137L31.8858 20.1237L31.9084 18.7279L31.9723 17.4283L32.0796 16.2262L32.2321 15.1231L32.4319 14.12L32.6807 13.2178L32.9803 12.417L33.3323 11.7181L33.7383 11.1213L34.1999 10.6264L34.7182 10.2331L35.2947 9.94105L35.9304 9.74938L36.6263 9.65718L37.3832 9.66329L38.2019 9.76635L39.0829 9.96479L40.0267 10.2569L41.0334 10.6406L42.1031 11.114L43.2358 11.6746L44.4312 12.3201L45.6888 13.0478L47.0081 13.855L48.3882 14.7388L49.8281 15.6963L51.3268 16.7241L52.8828 17.8192L54.4947 18.9783L56.1607 20.1978L57.879 21.4743L59.6475 22.8042L61.464 24.184L63.3261 25.6099L65.2312 27.0783L67.1765 28.5855L69.1593 30.1277L71.1764 31.7013L107.174 59.8271L109.158 61.3834L111.101 62.9123L112.997 64.4119L114.842 65.8804L116.632 67.3161L118.363 68.7176L120.031 70.0836L121.632 71.4129L123.162 72.7045L124.617 73.9575L125.993 75.1713L127.288 76.3452L128.498 77.4789L129.619 78.5721L130.649 79.6248L131.584 80.6369L132.423 81.6087L133.162 82.5404L133.799 83.4326L134.333 84.2857L134.76 85.1004L135.081 85.8776L135.293 86.6181L135.395 87.3229L135.386 87.9931L135.265 88.63L135.032 89.2346L134.687 89.8084L134.23 90.3527L133.66 90.869L132.979 91.3588L132.187 91.8234L131.284 92.2647L130.273 92.6839L129.155 93.0829L127.931 93.463L126.604 93.826L125.175 94.1733L123.647 94.5066L122.022 94.8273L120.304 95.1369L118.495 95.4369L116.599 95.7286L114.619 96.0134L112.559 96.2925L110.422 96.5671L108.213 96.8384L105.935 97.1074L103.594 97.375L101.193 97.642L98.7362 97.9093L96.2296 98.1775L50.7984 102.954L48.2531 103.219L45.7533 103.477L43.3038 103.724L40.9088 103.96L38.5727 104.183L36.2997 104.391L34.0937 104.582L31.9585 104.755L29.8977 104.906L27.9149 105.036L26.0132 105.14L24.1957 105.218L22.4653 105.268L20.8246 105.287L19.2761 105.273L17.8219 105.224L16.464 105.139L15.2042 105.015L14.0441 104.851L12.9848 104.644L12.0275 104.392L11.1729 104.094L10.4218 103.749L9.77443 103.354L9.23091 102.908L8.79116 102.41L8.45486 101.858L8.22143 101.251L8.09012 100.588L8.05991 99.868L8.12961 99.09L8.2978 98.2534L8.56287 97.3577L8.92301 96.4024L9.37621 95.3874L9.92029 94.3124L10.5529 93.1776L11.2716 91.9833L12.0735 90.7298L12.956 89.4177L13.9161 88.0478L14.9506 86.621L16.0564 85.1384L17.2302 83.6013L18.4685 82.0113L19.7677 80.3698L21.1245 78.6788L22.535 76.9403L23.9956 75.1563L25.5025 73.3294L27.052 71.4618L28.6401 69.5564L30.2632 67.616L59.6296 32.6173L61.2711 30.6648L62.8852 28.7507L64.4696 26.8793L66.0224 25.055L67.5417 23.2818L69.0256 21.5639L70.4728 19.9055L71.8817 18.3104L73.2512 16.7825L74.5801 15.3257L75.8675 13.9436L77.1127 12.6398L78.315 11.4176L79.474 10.2805L80.5894 9.2314L81.661 8.27336L82.6888 7.40916L83.673 6.64139L84.6138 5.97249L85.5116 5.40466L86.367 4.93993L87.1807 4.58011L87.9534 4.32681L88.6859 4.18138L89.3794 4.14498L90.0348 4.21854L90.6534 4.40272L91.2364 4.69797L91.7852 5.10451L92.3011 5.6223L92.7857 6.25105L93.2403 6.99025L93.6667 7.83912L94.0664 8.79667L94.4409 9.86162L94.792 11.0325L95.1212 12.3076L95.4303 13.6849L95.7208 15.1622L95.9944 16.7371L96.2527 18.407L96.4972 20.169L96.7295 22.02L96.951 23.9568L97.1632 25.9759L97.3674 28.0736L97.565 30.2461L97.7571 32.4895L97.9449 34.7995L98.1295 37.1718L98.3119 39.602L98.4929 42.0855L98.6732 44.6175L101.86 90.1953L102.035 92.7318L102.202 95.2207L102.36 97.6574L102.509 100.037L102.645 102.357L102.769 104.611L102.877 106.796L102.968 108.908L103.04 110.944L103.093 112.9L103.122 114.773L103.128 116.559L103.107 118.257L103.057 119.862L102.978 121.374L102.867 122.789L102.721 124.107L102.54 125.324L102.32 126.439L102.061 127.452L101.761 128.361L101.417 129.166L101.029 129.865L100.594 130.459L100.112 130.947L99.5798 131.33L98.9973 131.607L98.3631 131.78L97.676 131.85L96.935 131.817L96.1394 131.682L95.2885 131.448L94.3816 131.115L93.4184 130.686L92.3986 130.163L91.3221 129.547L90.189 128.842L88.9994 128.05L87.7537 127.174L86.4526 126.216L85.0966 125.18L83.6868 124.068L82.2241 122.885L80.7098 121.633L79.1453 120.316L77.5323 118.938L75.8724 117.502L74.1676 116.012L72.42 114.471L70.6318 112.885L68.8056 111.256L66.9438 109.588L65.0492 107.886L31.0965 77.3141L29.2159 75.6159L27.3744 73.9473L25.5762 72.3107L23.8253 70.7082L22.126 69.1417L20.4822 67.613L18.8979 66.1237L17.3771 64.6755L15.9236 63.2694L14.541 61.9068L13.2329 60.5887L12.0029 59.3158L10.8543 58.0887L9.79022 56.9082L8.8138 55.7744L7.92789 54.6876L7.13524 53.6478L6.43836 52.6549L5.83963 51.7088L5.34121 50.8089L4.94504 49.9548L4.65291 49.1459L4.46633 48.3813L4.38664 47.6603L4.41492 46.9818L4.55206 46.3446L4.7987 45.7477L5.15521 45.1898L5.62178 44.6694L6.19833 44.1852L6.88453 43.7357L7.67983 43.3192L8.58342 42.9343L9.59426 42.5793L10.7111 42.2525L11.9323 41.9522L13.2562 41.6767L14.6808 41.4244L16.2039 41.1934L17.823 40.9821L19.5354 40.7888L21.3383 40.6118L23.2286 40.4496L25.203 40.3006L27.2579 40.1631L29.3898 40.0359L31.5948 39.9174L33.8688 39.8063L36.2076 39.7013L38.6071 39.6013L41.0626 39.5052L43.5695 39.412L46.1233 39.3207L91.7799 37.7274L94.3036 37.6436L96.7777 37.5658L99.1977 37.4954L101.559 37.4337L103.858 37.3821L106.089 37.3422L108.25 37.3155L110.335 37.3038L112.343 37.3087L114.268 37.332L116.109 37.3755L117.861 37.441L119.523 37.5303L121.091 37.6453L122.562 37.7879L123.936 37.9599L125.21 38.1632L126.382 38.3997L127.45 38.671L128.414 38.9791L129.273 39.3256L130.025 39.7122L130.67 40.1404L131.208 40.6119L131.639 41.1282L131.963 41.6904L132.181 42.3001L132.292 42.9582L132.298 43.666L132.201 44.4243L132 45.234L131.699 46.0958L131.298 47.0103L130.799 47.9778L130.205 48.9986L129.518 50.073L128.74 51.2008L127.874 52.3819L126.924 53.6159L125.891 54.9024L124.779 56.2406L123.591 57.6297L122.33 59.0688L121.001 60.5565L119.606 62.0916L118.15 63.6725L116.636 65.2975L115.067 66.9649L113.449 68.6724L111.784 70.4181L110.077 72.1994L108.331 74.014L74.8199 108.716L73.0684 110.522L71.3489 112.289L69.6636 114.012L68.0148 115.688L66.4046 117.312L64.8347 118.88L63.3071 120.388L61.8231 121.834L60.3842 123.212L58.9916 124.519L57.6464 125.752L56.3495 126.908L55.1015 127.982L53.9031 128.973L52.7546 129.876L51.6563 130.69L50.6083 131.411L49.6104 132.037L48.6626 132.565L47.7644 132.995L46.9153 133.323L46.1147 133.548L45.3618 133.668L44.6559 133.683L43.9957 133.591L43.3804 133.392L42.8086 133.084L42.279 132.667L41.7904 132.142L41.3411 131.509L40.9298 130.767L40.5548 129.917L40.2144 128.961L39.907 127.899L39.6308 126.733L39.3841 125.464L39.1652 124.093L38.9722 122.624L38.8033 121.058L38.6567 119.398L38.5308 117.645L38.4237 115.805L38.3338 113.878L38.2593 111.87L38.1987 109.782L38.1503 107.619L38.1127 105.385L38.0843 103.084L38.0638 100.72L38.05 98.2973L38.0415 95.8202L38.0373 93.2935L38.0364 47.6082L38.0386 45.0543L38.0444 42.5473L38.0549 40.0917L38.0713 37.6923L38.0948 35.3532L38.1268 33.079L38.1686 30.8736L38.2218 28.7411L38.2879 26.6853L38.3685 24.7097L38.4652 22.8178L38.5797 21.0128L38.7138 19.2977L38.8693 17.6754L39.0478 16.1484L39.2511 14.7192L39.4812 13.3899L39.7397 12.1624L40.0283 11.0383L40.349 10.0193L40.7033 9.1064L41.0929 8.30067L41.5195 7.60284L41.9846 7.0134L42.4897 6.53262L43.0363 6.1605L43.6257 5.89684L44.2592 5.74118L44.9378 5.69283L45.6628 5.75087L46.435 5.91418L47.2553 6.18139L48.1243 6.55092L49.0427 7.02099L50.0109 7.58962L51.0291 8.25463L52.0976 9.01365L53.2164 9.86411L54.3852 10.8033L55.6039 11.8284L56.8719 12.9362L58.1886 14.1237L59.5532 15.3875L60.9648 16.7241L62.4222 18.1299L63.9241 19.6014L65.4692 21.1348L67.0557 22.7261L68.6819 24.3715L70.3458 26.067L72.0453 27.8085L73.7782 29.592L75.542 31.4134L107.28 64.2788L109.046 66.1118L110.777 67.9131L112.467 69.6802L114.114 71.4107L115.712 73.1021L117.259 74.7524L118.75 76.3597L120.182 77.9222L121.551 79.4381L122.852 80.9062L124.083 82.325L125.241 83.6935L126.321 85.0107L127.321 86.2759L128.238 87.4884L129.068 88.6478L129.809 89.7539L130.458 90.8065L131.014 91.8056L131.473 92.7514L131.834 93.6443L132.094 94.4848L132.253 95.2735L132.308 96.0111L132.259 96.6986L132.105 97.3368L131.844 97.927L131.477 98.4704L131.002 98.9682L130.42 99.422L129.731 99.8331L128.936 100.203L128.034 100.534L127.027 100.827L125.917 101.084L124.703 101.306L123.389 101.497L121.975 101.656L120.463 101.788L118.857 101.892L117.158 101.971L115.37 102.028L113.494 102.063L111.535 102.078L109.495 102.076L107.378 102.058L105.188 102.026L102.929 101.981L100.604 101.925L98.2187 101.86L95.7761 101.786L93.2813 101.706L90.7387 101.62L45.0777 100.025L42.5424 99.9331L40.0558 99.8388L37.6226 99.7413L35.2473 99.6394L32.9344 99.5321L30.688 99.4181L28.5123 99.2962L26.4113 99.165L24.3888 99.023L22.4483 98.8688L20.5932 98.7008L18.8268 98.5174L17.1521 98.3169L15.5718 98.0978L14.0885 97.8583L12.7047 97.5967L11.4223 97.3113L10.2434 97.0004L9.16963 96.6623L8.20234 96.2954L7.34274 95.8978L6.5918 95.4681L5.95021 95.0046L5.41844 94.5059L4.9967 93.9704L4.68498 93.3967L4.48302 92.7836L4.39031 92.1297L4.40613 91.434L4.5295 90.6953L4.75925 89.9128L5.09396 89.0856L5.532 88.2129L6.07153 87.2942L6.71052 86.3291L7.4467 85.3171L8.27766 84.2582L9.20077 83.1522L10.2133 81.9993L11.3121 80.7998L12.4943 79.554L13.7565 78.2626L15.0954 76.9262L16.5073 75.5458L17.9887 74.1224L19.5358 72.6573L21.1448 71.1518L22.8117 69.6075L24.5325 68.026L26.3032 66.4094L28.1196 64.7595L29.9775 63.0786L31.8728 61.369L65.8247 30.7996L67.7063 29.111L69.5539 27.4585L71.365 25.8463L73.1369 24.2781L74.8673 22.7578L76.5541 21.2893L78.1951 19.8763L79.7886 18.5225L81.3328 17.2317L82.8262 16.0073L84.2675 14.8529L85.6555 13.7717L86.9893 12.767L88.2679 11.842L89.4908 10.9996L90.6574 10.2426L91.7675 9.5738L92.8209 8.99562L93.8176 8.51044L94.7578 8.12043L95.6418 7.82756L96.4702 7.63364L97.2434 7.54024L97.9623 7.54875L98.6278 7.66034L99.2408 7.87595L99.8025 8.19633L100.314 8.62197L100.777 9.15315L101.193 9.78992L101.563 10.5321L101.888 11.3792L102.172 12.3307L102.414 13.3855L102.618 14.5427L102.785 15.8008L102.916 17.1582L103.014 18.613L103.081 20.1633L103.118 21.8068L103.128 23.5409L103.113 25.3629L103.074 27.2699L103.013 29.2587L102.933 31.3261L102.835 33.4685L102.72 35.6822L102.591 37.9633L102.45 40.3078L102.297 42.7114L102.135 45.1699L101.965 47.6788L98.5998 95.8023L98.4193 98.3151L98.2378 100.777L98.0547 103.185L97.8689 105.532L97.6794 107.815L97.4852 110.03L97.2851 112.173L97.0778 114.239L96.862 116.225L96.6362 118.127L96.3992 119.943L96.1492 121.667L95.8849 123.299L95.6046 124.834L95.3067 126.271L94.9897 127.607L94.6517 128.84L94.2913 129.968L93.9067 130.989L93.4964 131.903L93.0586 132.707L92.592 133.401L92.0948 133.985L91.5657 134.457L91.0031 134.819L90.4058 135.068L89.7723 135.208L89.1016 135.236L88.3923 135.155L87.6435 134.966L86.8542 134.669L86.0237 134.266L85.151 133.759L84.2358 133.15L83.2773 132.44L82.2754 131.633L81.2298 130.73L80.1403 129.735L79.0072 128.65L77.8305 127.477L76.6106 126.222L75.3482 124.885L74.0437 123.472L72.6982 121.986L71.3125 120.431L69.8878 118.809L68.4255 117.126L66.927 115.385L65.3938 113.591L63.8279 111.747L62.2312 109.857L60.6056 107.927L31.24 72.9322L29.5981 70.9723L27.9888 69.0458L26.4159 67.1555L24.8833 65.3042L23.3948 63.4944L21.9542 61.7287L20.5651 60.0093L19.2313 58.3383L17.9565 56.7175L16.7441 55.1489L15.5976 53.6338L14.5204 52.1738L13.5159 50.7701L12.587 49.4236L11.737 48.1353L10.9686 46.9058L10.2847 45.7357L9.68784 44.6253L9.1805 43.5747L8.76495 42.584L8.44331 41.6531L8.2175 40.7815L8.08925 39.9689L8.06009 39.2146L8.13134 38.5178L8.30415 37.8777L8.5794 37.2933L8.95778 36.7633L9.43977 36.2865L10.0256 35.8616L10.7153 35.4871L11.5086 35.1614L12.4051 34.8828L13.404 34.6497L14.5045 34.4601L15.7055 34.3123L17.0054 34.2044L18.4027 34.1344L19.8956 34.1002L21.482 34.0999L23.1595 34.1315L24.9257 34.1929L26.7779 34.2821L28.713 34.397L30.728 34.5357L32.8195 34.6961L34.984 34.8764L37.2177 35.0745L39.5169 35.2886L41.8775 35.517L44.2952 35.7579L46.7658 36.0097L49.2847 36.2706L94.7222 41.0458L97.2565 41.3147L99.7431 41.5824L102.178 41.8495L104.555 42.1167L106.871 42.3847L109.121 42.6545L111.302 42.9271L113.408 43.2034L115.436 43.4847L117.382 43.7721L119.243 44.067L121.015 44.3708L122.696 44.6847L124.281 45.0104L125.769 45.3492L127.157 45.7027L128.442 46.0725L129.624 46.4601L130.698 46.8671L131.665 47.2951L132.523 47.7457L133.27 48.2204L133.906 48.7208L134.43 49.2483L134.842 49.8045L135.141 50.3907L135.328 51.0083L135.403 51.6586L135.367 52.3428L135.22 53.062L134.964 53.8173L134.599 54.6097L134.128 55.4399L133.552 56.3089L132.873 57.2171L132.093 58.1651L131.215 59.1533L130.24 60.1819L129.173 61.2511L128.015 62.3608L126.771 63.511L125.442 64.7012L124.033 65.931L122.547 67.1998L120.988 68.5068L119.359 69.8512L117.665 71.2318L115.91 72.6475L114.096 74.0967L112.23 75.5781L110.315 77.0899L108.355 78.6302L106.354 80.197L70.3508 108.326L68.3473 109.887L66.3794 111.416L64.4501 112.908L62.5623 114.359L60.7185 115.767L58.9212 117.127L57.1729 118.435L55.4757 119.689L53.8315 120.884L52.2421 122.018L50.7093 123.086L49.2344 124.085L47.8187 125.013L46.4633 125.866L45.1691 126.641L43.9367 127.336L42.7668 127.947L41.6598 128.472L40.6157 128.909L39.6347 129.256L38.7165 129.51L37.8609 129.67L37.0675 129.734L36.3355 129.7L35.6642 129.567L35.0528 129.335L34.5001 129.002L34.0051 128.567L33.5663 128.031L33.1825 127.392L32.852 126.652L32.5733 125.81L32.3447 124.866L32.1644 123.822L32.0305 122.679L31.9411 121.437L31.8943 120.098L31.8879 118.663L31.92 117.136L31.9884 115.516L32.0911 113.808L32.2258 112.013L32.3906 110.134L32.5831 108.174L32.8014 106.136L33.0433 104.024L33.3068 101.841L33.5898 99.5913L33.8904 97.2777L34.2067 94.9049L34.5368 92.477L34.8788 89.9983L35.2312 87.4732L41.5902 42.2305L41.9463 39.7244L42.2997 37.2675L42.6508 34.8646L43.0003 32.5203L43.3487 30.2391L43.6968 28.0253L44.0456 25.8832L44.396 23.8168L44.749 21.83L45.1057 19.9265L45.4674 18.1098L45.8352 16.3833L46.2106 14.7502L46.5949 13.2132L46.9894 11.7753L47.3957 10.4387L47.8153 9.20592L48.2495 8.07888L48.7001 7.05939L49.1684 6.14903L49.656 5.34912L50.1645 4.66075L50.6953 4.08475L51.2498 3.62172L51.8296 3.27198L52.436 3.03565L53.0703 2.91257L53.7339 2.90234L54.4279 3.00432L55.1535 3.21765L55.9118 3.5412L56.7036 3.97365L57.5299 4.5134L58.3914 5.15867L59.2889 5.90744L60.2227 6.7575L61.1935 7.70642L62.2014 8.75158L63.2467 9.89017L64.3293 11.1192L65.4492 12.4355L66.6061 13.8358L67.7996 15.3165L69.0292 16.8741L70.2941 18.5048L71.5937 20.2048L72.9267 21.97L74.2922 23.7964L75.6888 25.6798L77.115 27.6159L78.5693 29.6004L80.0498 31.6289L81.5548 33.6971L108.405 70.6559L109.884 72.6993L111.331 74.7048L112.74 76.6693L114.109 78.59L115.435 80.4641L116.713 82.289L117.941 84.0624L119.114 85.782L120.229 87.4458L121.283 89.052L122.272 90.5988L123.194 92.0848L124.045 93.5087L124.822 94.8693L125.523 96.1657L126.144 97.3972L126.683 98.5632L127.138 99.6633L127.505 100.697L127.784 101.665L127.972 102.567L128.067 103.403L128.067 104.174L127.972 104.88L127.78 105.523L127.489 106.102L127.1 106.62L126.611 107.077L126.022 107.475L125.333 107.815L124.545 108.098L123.656 108.327L122.668 108.503L121.582 108.628L120.398 108.704L119.118 108.732L117.743 108.716L116.274 108.656L114.715 108.556L113.066 108.417L111.33 108.241L109.509 108.031L107.607 107.79L105.626 107.518L103.569 107.218L101.44 106.894L99.2426 106.546L96.9798 106.177L94.6558 105.789L92.2745 105.384L89.8403 104.964L87.3573 104.531L39.8495 96.1534L37.3751 95.7118L34.9516 95.2744L32.5838 94.8411L30.2761 94.4114L28.0331 93.9846L25.8591 93.5602L23.7583 93.1373L21.7347 92.7153L19.7922 92.293L17.9344 91.8694L16.1648 91.4436L14.4868 91.0142L12.9034 90.5802L11.4176 90.1401L10.0321 89.6927L8.74917 89.2366L7.5712 88.7703L6.50017 88.2925L5.53783 87.8016L4.68572 87.2962L3.94513 86.7748L3.31709 86.2359L2.8024 85.6781L2.4016 85.1L2.11501 84.5L1.94266 83.8769L1.88437 83.2294L1.93969 82.5561L2.10794 81.8559L2.38818 81.1276L2.77927 80.3701L3.2798 79.5824L3.88813 78.7638L4.60244 77.9133L5.42065 77.0303L6.34047 76.1143L7.35943 75.1646L8.47484 74.1811L9.68383 73.1634L10.9834 72.1116L12.3702 71.0256L13.8409 69.9056L15.392 68.752L17.0198 67.5651L18.7204 66.3458L20.49 65.0946L22.3244 63.8125L24.2195 62.5006L26.171 61.16L28.1747 59.7922L30.2261 58.3987L32.3207 56.981L70.1962 31.4327L72.3127 30.008L74.3923 28.6126L76.4316 27.2501L78.4276 25.924L80.3772 24.6378L82.2778 23.3951L84.1266 22.1992L85.9212 21.0537L87.6594 19.9619L89.339 18.9272L90.9581 17.9529L92.5151 17.0421L94.0084 16.198L95.4367 15.4235L96.7987 14.7217L98.0936 14.0954L99.3205 13.5471L100.479 13.0795L101.568 12.6949L102.589 12.3956L103.54 12.1837L104.422 12.0612L105.235 12.0296L105.98 12.0908L106.658 12.2459L107.268 12.4963L107.813 12.8428L108.292 13.2862L108.708 13.8272L109.062 14.4661L109.355 15.203L109.589 16.0379L109.766 16.9704L109.887 17.9999L109.954 19.1258L109.969 20.3471L109.935 21.6625L109.853 23.0707L109.725 24.5699L109.554 26.1583L109.343 27.8337L109.093 29.5939L108.806 31.4364L108.485 33.3584L108.133 35.3569L107.752 37.4289L107.343 39.571L106.91 41.7797L106.454 44.0514L105.977 46.3821L105.483 48.7678L104.973 51.2044L104.448 53.6877L94.9491 98.3783L94.4175 100.865L93.8921 103.304L93.3727 105.691L92.8591 108.02L92.3511 110.288L91.8482 112.489L91.3498 114.62L90.8552 116.677L90.3639 118.655L89.8748 120.55L89.3871 122.359L88.8997 124.079L88.4117 125.706L87.9218 127.237L87.4289 128.669L86.9317 130L86.4288 131.227L85.9189 132.349L85.4007 133.362L84.8727 134.265L84.3335 135.057L83.7817 135.737L83.2158 136.304L82.6344 136.756L82.0362 137.093L81.4196 137.316L80.7834 137.423L80.1262 137.416L79.4468 137.295L78.744 137.06L78.0166 136.712L77.2635 136.254L76.4837 135.685L75.6764 135.008L74.8407 134.225L73.9758 133.338L73.0812 132.349L72.1564 131.261L71.2009 130.076L70.2145 128.798L69.197 127.429L68.1484 125.973L67.0689 124.433L65.9587 122.813L64.8181 121.117L63.6478 119.348L62.4483 117.511L61.2206 115.609L59.9655 113.647L58.6843 111.63L57.3781 109.561L56.0483 107.445L54.6966 105.287L30.4858 66.5411L29.1458 64.3899L27.8352 62.278L26.5574 60.2086L25.3156 58.185L24.1135 56.2103L22.9543 54.2871L21.8414 52.4183L20.7781 50.6063L19.7678 48.8535L18.8137 47.1619L17.9191 45.5335L17.0869 43.9702L16.3202 42.4734L15.622 41.0445L14.9952 39.6847L14.4424 38.3951L13.9662 37.1763L13.5691 36.0291L13.2535 34.9538L13.0215 33.9506L12.8752 33.0197L12.8164 32.1608L12.8468 31.3736L12.9679 30.6578L13.1812 30.0126L13.4876 29.4372L13.8882 28.9307L14.3837 28.4919L14.9746 28.1196L15.6612 27.8123L16.4437 27.5687L17.322 27.387L18.2956 27.2654L19.3642 27.2022L20.5268 27.1952L21.7825 27.2426L23.1301 27.3422L24.5681 27.4918L26.0949 27.689L27.7086 27.9317L29.4071 28.2175L31.188 28.5439L33.049 28.9086L34.9871 29.3092L36.9996 29.7431L39.0832 30.2081L41.2347 30.7017L43.4505 31.2214L45.7271 31.7649L48.0606 32.33L50.4469 32.9142L52.8819 33.5155L55.3614 34.1315L99.6889 45.1846L102.138 45.7998L104.539 46.4071L106.885 47.0065L109.173 47.5981L111.397 48.1822L113.554 48.759L115.639 49.329L117.648 49.8927L119.577 50.4508L121.422 51.004L123.181 51.5531L124.848 52.0991L126.421 52.6429L127.898 53.1856L129.275 53.7284L130.549 54.2724L131.718 54.8189L132.781 55.3691L133.734 55.9244L134.577 56.4862L135.308 57.0558L135.926 57.6346L136.429 58.2241L136.818 58.8255L137.091 59.4404L137.249 60.07L137.291 60.7157L137.218 61.3789L137.03 62.0608L136.728 62.7626L136.314 63.4855L135.787 64.2305L135.151 64.9987L134.406 65.791L133.555 66.6084L132.599 67.4514L131.542 68.3209L130.385 69.2173L129.132 70.1412L127.786 71.0928L126.349 72.0723L124.825 73.0799L123.218 74.1155L121.53 75.1789L119.767 76.2698L117.933 77.3877L116.03 78.5321L114.063 79.7023L112.037 80.8973L109.956 82.1162L107.825 83.3577L105.647 84.6206L63.869 108.741L61.687 109.995L59.5466 111.22L57.4511 112.412L55.4038 113.569L53.4078 114.686L51.4659 115.762L49.581 116.791L47.7555 117.772L45.9918 118.701L44.2921 119.574L42.6584 120.389L41.0925 121.143L39.596 121.833L38.1702 122.455L36.8164 123.008L35.5356 123.488L34.3287 123.893L33.1962 124.22L32.1385 124.468L31.1559 124.634L30.2485 124.717L29.4161 124.713L28.6583 124.623L27.9748 124.443L27.3648 124.174L26.8275 123.813L26.362 123.361L25.967 122.816L25.6412 122.177L25.3833 121.445L25.1917 120.62L25.0647 119.701L25.0004 118.689L24.997 117.584L25.0524 116.388L25.1645 115.101L25.3312 113.724L25.5501 112.26L25.8189 110.708L26.1352 109.073L26.4966 107.355L26.9006 105.557L27.3448 103.681L27.8264 101.73L28.3432 99.7077L28.8925 97.6162L29.4717 95.4591L30.0784 93.24L30.7102 90.9624L31.3644 88.6301L32.0389 86.2471L32.7311 83.8177L45.3227 39.9021L46.0288 37.4473L46.7255 35.0385L47.4126 32.6804L48.0899 30.3777L48.7573 28.1351L49.415 25.9571L50.0632 23.8479L50.7022 21.8119L51.3325 19.853L51.9546 17.9753L52.5691 16.1824L53.1768 14.4779L53.7785 12.8653L54.3752 11.3476L54.9677 9.92794L55.5571 8.60906L56.1447 7.3935L56.7315 6.28363L57.3188 5.28156L57.9079 4.38917L58.5 3.6081L59.0966 2.93977L59.6989 2.38533L60.3084 1.94569L60.9264 1.62153L61.5543 1.41325L62.1934 1.32101L62.8451 1.34474L63.5106 1.4841L64.1913 1.7385L64.8884 2.1071L65.6031 2.58885L66.3364 3.18241L67.0894 3.88624L67.8631 4.69856L68.6584 5.61734L69.476 6.64037L70.3168 7.76519L71.1812 8.98914L72.0699 10.3094L72.9831 11.7228L73.9212 13.2263L74.8844 14.8163L75.8726 16.4894L76.8858 18.2417L77.9237 20.0694L78.986 21.9684L80.0721 23.9347L81.1815 25.964L82.3134 28.0518L83.4668 30.1938L84.6408 32.3853L85.834 34.6218L107.284 74.9623L108.477 77.2115L109.644 79.4205L110.782 81.5855L111.888 83.7033L112.959 85.7704L113.991 87.7838L114.982 89.7404L115.928 91.6376L116.826 93.4728L117.674 95.2434L118.467 96.9474L119.203 98.5827L119.879 100.147L120.492 101.64L121.039 103.059L121.518 104.403L121.927 105.671L122.262 106.863L122.521 107.977L122.703 109.014L122.804 109.973L122.824 110.853L122.76 111.656L122.611 112.381L122.375 113.029L122.052 113.601L121.639 114.097L121.137 114.519L120.545 114.867L119.861 115.144L119.087 115.35L118.221 115.487L117.264 115.557L116.217 115.562L115.079 115.503L113.852 115.384L112.537 115.205L111.135 114.969L109.647 114.679L108.075 114.338L106.421 113.946L104.687 113.508L102.875 113.025L100.988 112.5L99.0289 111.936L96.9998 111.336L94.9043 110.702L92.7455 110.036L90.527 109.342L88.2522 108.622L85.9251 107.878L83.5495 107.113L81.1296 106.33L37.6769 92.2112L35.2647 91.4239L32.8999 90.6478L30.5873 89.8832L28.3314 89.1304L26.137 88.3896L24.0083 87.6607L21.9498 86.9437L19.9655 86.2383L18.0596 85.5442L16.2358 84.861L14.498 84.188L12.8496 83.5248L11.294 82.8704L9.83425 82.2241L8.4734 81.5849L7.21416 80.952L6.05904 80.3242L5.01034 79.7003L4.07015 79.0793L3.24029 78.4599L2.52237 77.8408L1.91774 77.2208L1.42752 76.5985L1.05259 75.9725L0.793549 75.3416L0.650777 74.7043L0.624388 74.0593L0.714259 73.4053L0.919992 72.741L1.24096 72.0651L1.67628 71.3764L2.22483 70.6736L2.88525 69.9557L3.65593 69.2215L4.53504 68.47L5.52051 67.7004L6.61005 66.9117L7.80118 66.1033L9.09116 65.2744L10.4771 64.4244L11.9559 63.553L13.5242 62.6597L15.1787 61.7444L16.9155 60.8069L18.7311 59.8472L20.6213 58.8655L22.5822 57.862L24.6095 56.8372L26.6989 55.7916L28.846 54.7258L31.0463 53.6408L33.2951 52.5373L35.5877 51.4165L76.6507 31.3896L78.9252 30.2847L81.1572 29.2053L83.343 28.1544L85.4791 27.1349L87.5621 26.1501L89.5889 25.203L91.5565 24.2966L93.4621 23.4341L95.303 22.6184L97.0768 21.8525L98.7812 21.1395L100.414 20.4822L101.974 19.8834L103.459 19.346L104.867 18.8726L106.198 18.4658L107.451 18.1281L108.623 17.8619L109.716 17.6694L110.728 17.5529L111.66 17.5142L112.51 17.5552L113.28 17.6777L113.97 17.8831L114.579 18.1729L115.11 18.5482L115.563 19.0101L115.938 19.5593L116.237 20.1966L116.462 20.9223L116.614 21.7367L116.694 22.6399L116.705 23.6316L116.648 24.7115L116.526 25.8791L116.34 27.1334L116.093 28.4735L115.787 29.8982L115.424 31.406L115.008 32.9952L114.54 34.6641L114.023 36.4104L113.461 38.232L112.855 40.1263L112.208 42.0907L111.523 44.1223L110.803 46.218L110.051 48.3746L109.269 50.5886L108.46 52.8565L107.627 55.1746L106.772 57.5388L90.2729 102.871L89.4066 105.237L88.5533 107.554L87.7136 109.818L86.8878 112.024L86.0761 114.168L85.2788 116.244L84.4957 118.249L83.7267 120.179L82.9717 122.029L82.2303 123.797L81.5019 125.477L80.7861 127.067L80.0822 128.564L79.3894 129.964L78.7069 131.264L78.0338 132.462L77.3691 133.555L76.7116 134.541L76.0603 135.418L75.4141 136.184L74.7716 136.838L74.1316 137.378L73.4929 137.803L72.854 138.112L72.2137 138.306L71.5706 138.383L70.9234 138.343L70.2708 138.187L69.6114 137.915L68.944 137.527L68.2672 137.026L67.5799 136.411L66.881 135.684L66.1692 134.847L65.4436 133.902L64.7032 132.851L63.9471 131.696L63.1744 130.44L62.3845 129.086L61.5767 127.636L60.7505 126.093L59.9054 124.462L59.0412 122.745L58.1576 120.946L57.2546 119.07L56.3323 117.119L55.3907 115.099L54.4303 113.013L53.4514 110.866L52.4546 108.662L51.4406 106.407L50.4103 104.104L31.8282 62.3705L30.7899 60.0335L29.7737 57.7376L28.7825 55.4865L27.8193 53.2839L26.8869 51.1334L25.9884 49.0384L25.1267 47.002L24.3047 45.0274L23.5255 43.1174L22.792 41.2745L22.107 39.5014L21.4734 37.8003L20.8941 36.1732L20.3717 34.622L19.909 33.1485L19.5086 31.754L19.173 30.4398L18.9046 29.207L18.7058 28.0565L18.5786 26.9887L18.5252 26.0043L18.5476 25.1033L18.6475 24.2859L18.8265 23.5519L19.0862 22.9009L19.4278 22.3323L19.8526 21.8455L20.3615 21.4395L20.9553 21.1133L21.6347 20.8655L22.3999 20.6947L23.2514 20.5995L24.189 20.578L25.2126 20.6285L26.3218 20.7489L27.516 20.9372L28.7945 21.191L30.1561 21.5082L31.5997 21.8862L33.1238 22.3226L34.7268 22.8148L36.4069 23.3601L38.1619 23.9558L39.9896 24.5991L41.8875 25.2874L43.8531 26.0177L45.8834 26.7871L47.9754 27.5929L50.1259 28.4322L52.3315 29.3021L54.5886 30.1998L56.8936 31.1225L59.2425 32.0674L101.604 49.1818L103.966 50.139L106.283 51.0819L108.55 52.0098L110.762 52.9221L112.916 53.8184L115.005 54.6981L117.026 55.5612L118.976 56.4076L120.848 57.2371L122.641 58.0501L124.349 58.8467L125.97 59.6273L127.5 60.3925L128.935 61.1427L130.273 61.8786L131.511 62.6012L132.646 63.3111L133.676 64.0093L134.598 64.6969L135.41 65.375L136.112 66.0446L136.7 66.7069L137.175 67.3632L137.534 68.0148L137.778 68.663L137.905 69.309L137.916 69.9542L137.81 70.6L137.588 71.2476L137.25 71.8985L136.797 72.5538L136.229 73.215L135.549 73.8831L134.756 74.5595L133.855 75.2453L132.845 75.9415L131.729 76.6491L130.51 77.3693L129.191 78.1027L127.773 78.8502L126.261 79.6125L124.656 80.3903L122.964 81.1839L121.187 81.9938L119.328 82.8202L117.393 83.6635L115.385 84.5234L113.308 85.4001L111.166 86.2933L108.964 87.2027L106.707 88.1278L104.399 89.068L102.045 90.0226L59.6823 107.138L57.3257 108.087L55.0122 109.014L52.746 109.916L50.5305 110.792L48.3696 111.637L46.2665 112.449L44.2245 113.225L42.2468 113.963L40.3361 114.659L38.4951 115.311L36.7265 115.916L35.0324 116.471L33.415 116.973L31.8761 117.42L30.4174 117.809L29.0405 118.138L27.7466 118.403L26.5367 118.604L25.4117 118.737L24.3722 118.801L23.4186 118.793L22.5512 118.711L21.77 118.555L21.0747 118.321L20.4651 118.01L19.9405 117.619L19.5002 117.147L19.1433 116.593L18.8685 115.958L18.6746 115.239L18.5602 114.437L18.5236 113.552L18.5631 112.583L18.6767 111.53L18.8625 110.395L19.1182 109.178L19.4415 107.878L19.8301 106.499L20.2814 105.04L20.7929 103.503L21.3619 101.89L21.9856 100.202L22.6613 98.4422L23.3861 96.6121L24.157 94.7143L24.9713 92.7514L25.8258 90.7263L26.7178 88.6419L27.6441 86.5015L28.6018 84.3083L29.588 82.0659L30.5998 79.7779L31.6343 77.4483L50.2176 35.7108L51.2509 33.3994L52.268 31.1346L53.268 28.921L54.2502 26.7632L55.2142 24.6657L56.1592 22.6329L57.0852 20.6692L57.9917 18.7786L58.8789 16.9652L59.7467 15.2329L60.5953 13.5854L61.425 12.0262L62.2362 10.5587L63.0294 9.18624L63.8052 7.91165L64.5643 6.73779L65.3076 5.66726L66.0359 4.70243L66.7501 3.84545L67.4513 3.09825L68.1407 2.46255L68.8193 1.93977L69.4884 1.53116L70.1492 1.23768L70.8029 1.06006L71.451 0.998779L72.0948 1.05406L72.7355 1.22588L73.3745 1.51397L74.0132 1.9178L74.6528 2.43658L75.2948 3.06932L75.9402 3.81472L76.5905 4.67128L77.2467 5.63726L77.91 6.71066L78.5815 7.88928L79.2622 9.17069L79.953 10.5522L80.6548 12.031L81.3684 13.604L82.0943 15.268L82.8333 17.0194L83.5858 18.8547L84.3521 20.7701L85.1326 22.7616L85.9273 24.8251L86.7363 26.9564L87.5595 29.1511L88.3967 31.4048L89.2475 33.7127L90.1114 36.0702L90.9878 38.4727L106.611 81.4011L107.47 83.7735L108.307 86.1004L109.121 88.3779L109.908 90.6022L110.666 92.7697L111.392 94.8769L112.084 96.9206L112.738 98.8977L113.352 100.805L113.922 102.64L114.448 104.401L114.925 106.084L115.351 107.688L115.724 109.211L116.04 110.652L116.299 112.007L116.496 113.278L116.63 114.462L116.7 115.558L116.702 116.566L116.634 117.485L116.496 118.316L116.285 119.058L115.999 119.712L115.638 120.278L115.2 120.756L114.684 121.147L114.089 121.452L113.414 121.673L112.659 121.811L111.823 121.867L110.907 121.843L109.91 121.741L108.832 121.562L107.674 121.309L106.436 120.985L105.12 120.591L103.726 120.129L102.255 119.604L100.709 119.016L99.0893 118.369L97.3979 117.666L95.6368 116.91L93.8082 116.103L91.9144 115.249L89.9581 114.351L87.9421 113.411L85.8692 112.433L83.7427 111.42L81.5659 110.374L79.3422 109.3L77.0752 108.2L33.7167 87.0519L31.4595 85.9452L29.2499 84.8566L27.0926 83.7872L24.9922 82.7378L22.953 81.7091L20.9795 80.7016L19.0758 79.7159L17.2462 78.7521L15.4944 77.8105L13.8244 76.891L12.2399 75.9937L10.7442 75.1182L9.34084 74.2643L8.03285 73.4316L6.82319 72.6194L5.71462 71.8271L4.70969 71.054L3.81071 70.2992L3.01979 69.5619L2.33882 68.8411L1.76942 68.1356L1.31302 67.4443L0.970793 66.7661L0.743648 66.0998L0.632274 65.444L0.637105 64.7974L0.758306 64.1588L0.995823 63.5268L1.34932 62.9L1.81823 62.2771L2.40173 61.6567L3.09876 61.0376L3.90799 60.4183L4.82787 59.7977L5.85661 59.1745L6.99217 58.5475L8.2323 57.9156L9.57452 57.2777L11.0161 56.6328L12.5542 55.9799L14.1857 55.3184L15.9072 54.6473L17.7153 53.966L19.6063 53.2739L21.5763 52.5707L23.6214 51.8558L25.7374 51.1292L27.92 50.3906L30.1648 49.64L32.4673 48.8776L34.8228 48.1036L37.2265 47.3183L80.6766 33.1997L83.1043 32.4133L85.4884 31.645L87.8248 30.8971L90.1096 30.1723L92.3388 29.4731L94.509 28.802L96.6165 28.1618L98.658 27.5549L100.631 26.9841L102.531 26.452L104.357 25.9613L106.105 25.5144L107.774 25.1141L109.362 24.7628L110.865 24.4631L112.284 24.2173L113.615 24.0279L114.859 23.897L116.013 23.827L117.077 23.8198L118.051 23.8776L118.933 24.0022L119.725 24.1953L120.425 24.4587L121.034 24.7937L121.553 25.2019L121.982 25.6842L122.322 26.242L122.574 26.8759L122.739 27.5867L122.818 28.3751L122.814 29.2412L122.727 30.1854L122.561 31.2075L122.316 32.3075L121.994 33.4848L121.6 34.739L121.133 36.0691L120.598 37.4743L119.997 38.9534L119.333 40.5048L118.607 42.1271L117.825 43.8185L116.987 45.577L116.098 47.4003L115.161 49.2862L114.178 51.2321L113.153 53.2352L112.089 55.2926L110.989 57.4012L109.857 59.5577L108.695 61.7588L107.507 64.0009L86.0571 104.342L84.8605 106.586L83.6829 108.787L82.5256 110.938L81.3896 113.036L80.276 115.077L79.1855 117.055L78.1187 118.967L77.0762 120.808L76.0585 122.575L75.0656 124.263L74.0978 125.868L73.1551 127.388L72.2372 128.818L71.3441 130.156L70.4752 131.398L69.6301 132.542L68.8082 133.584L68.0088 134.522L67.2312 135.354L66.4744 136.078L65.7375 136.692L65.0195 137.195L64.3193 137.585L63.6356 137.86L62.9673 138.021L62.3132 138.066L61.6718 137.995L61.042 137.809L60.4223 137.506L59.8113 137.088L59.2077 136.554L58.6102 135.907L58.0173 135.147L57.4278 134.275L56.8403 133.293L56.2535 132.203L55.6661 131.007L55.0771 129.707L54.4852 128.306L53.8895 126.806L53.2888 125.211L52.6822 123.523L52.069 121.746L51.4484 119.884L50.8197 117.94L50.1823 115.918L49.5358 113.822L48.8799 111.656L48.2143 109.425L47.5388 107.133L46.8536 104.785L46.1586 102.385L45.4542 99.9388L32.8611 56.0201L32.1659 53.5825L31.488 51.1906L30.8298 48.8486L30.1937 46.5606L29.5821 44.3303L28.9976 42.1615L28.4426 40.0576L27.9196 38.0219L27.4313 36.0577L26.98 34.1679L26.5683 32.3552L26.1988 30.6221L25.874 28.9711L25.5962 27.4042L25.3679 25.9234L25.1914 24.5304L25.069 23.2267L25.0029 22.0134L24.9952 20.8918L25.0481 19.8625L25.1634 18.9263L25.3429 18.0835L25.5884 17.3342L25.9014 16.6785L26.2835 16.1161L26.7359 15.6464L27.2598 15.269L27.8563 14.9828L28.5261 14.7868L29.27 14.6798L30.0886 14.6603L30.9821 14.7268L31.9507 14.8775L32.9945 15.1103L34.1132 15.4233L35.3064 15.8141L36.5735 16.2805L37.9139 16.8199L39.3264 17.4296L40.8099 18.107L42.3631 18.8491L43.9844 19.6532L45.672 20.5161L47.4239 21.4348L49.2382 22.4061L51.1123 23.4269L53.0438 24.4938L55.03 25.6038L57.068 26.7534L59.1548 27.9393L61.2871 29.1584L63.4617 30.4072L65.675 31.6826L105.239 54.5259L107.424 55.7926L109.565 57.0382L111.655 58.2614L113.692 59.4609L115.67 60.6357L117.585 61.785L119.433 62.9079L121.209 64.0038L122.911 65.0724L124.533 66.1131L126.073 67.1259L127.526 68.1106L128.89 69.0674L130.16 69.9963L131.335 70.8978L132.411 71.7723L133.386 72.6202L134.256 73.4422L135.021 74.2391L135.678 75.0117L136.224 75.761L136.66 76.4879L136.983 77.1935L137.192 77.8789L137.286 78.5455L137.265 79.1944L137.129 79.8269L136.877 80.4444L136.51 81.0482L136.028 81.6398L135.431 82.2205L134.721 82.7917L133.899 83.3548L132.966 83.9112L131.923 84.4623L130.773 85.0094L129.518 85.5537L128.161 86.0966L126.702 86.6393L125.147 87.1828L123.497 87.7283L121.755 88.2768L119.925 88.8292L118.011 89.3863L116.017 89.9489L113.946 90.5177L111.802 91.0932L109.59 91.6759L107.313 92.2661L104.978 92.8641L102.587 93.4699L100.146 94.0836L53.3382 105.754L50.8946 106.358L48.4989 106.946L46.1553 107.515L43.8679 108.062L41.6405 108.587L39.4769 109.085L37.3804 109.556L35.3545 109.996L33.4024 110.403L31.5269 110.774L29.731 111.108L28.017 111.401L26.3874 111.652L24.8444 111.858L23.3898 112.017L22.0253 112.126L20.7525 112.183L19.5725 112.186L18.4865 112.133L17.4952 112.023L16.5993 111.852L15.799 111.62L15.0946 111.325L14.486 110.965L13.9728 110.539L13.5547 110.045L13.2309 109.482L13.0005 108.85L12.8623 108.147L12.8152 107.373L12.8576 106.528L12.9878 105.61L13.2041 104.62L13.5044 103.558L13.8865 102.424L14.3483 101.219L14.8871 99.9423L15.5004 98.5955L16.1856 97.1794L16.9398 95.695L17.76 94.1439L18.6434 92.5275L19.5867 90.8475L20.5868 89.1058L21.6405 87.3046L22.7444 85.4462L23.8953 83.5329L25.0898 81.5675L26.3244 79.5527L27.5958 77.4916L28.9006 75.3873L30.2354 73.2432L54.4438 34.4998L55.7994 32.3343L57.1334 30.2103L58.4441 28.1325L59.73 26.1051L60.99 24.1328L62.2229 22.2197L63.4277 20.3702L64.6035 18.5885L65.7496 16.8784L66.8655 15.2441L67.9507 13.6891L69.005 12.2173L70.0283 10.832L71.0204 9.53662L71.9816 8.33425L72.9122 7.22789L73.8123 6.2203L74.6826 5.31407L75.5237 4.51158L76.3362 3.81498L77.121 3.22623L77.879 2.74704L78.6111 2.3789L79.3184 2.12308L80.002 1.98059L80.6632 1.95222L81.3032 2.03849L81.9233 2.23969L82.5249 2.55588L83.1093 2.98682L83.6779 3.53207L84.2323 4.19092L84.7737 4.96242L85.3036 5.84535L85.8236 6.83829L86.3349 7.93954L86.8389 9.14719L87.3371 10.4591L87.8308 11.8728L88.3211 13.3858L88.8094 14.9952L89.2968 16.698L89.7843 18.491L90.2731 20.3707L90.764 22.3335L91.2579 24.3757L91.7555 26.4932L92.2576 28.6819L92.7646 30.9377L93.2771 33.256L93.7954 35.6323L94.3197 38.062L94.8501 40.5403L104.35 85.2302L104.876 87.7216L105.39 90.1672L105.887 92.5627L106.367 94.9039L106.827 97.1867L107.264 99.4074L107.678 101.562L108.065 103.647L108.423 105.66L108.749 107.596L109.042 109.454L109.299 111.229L109.518 112.921L109.697 114.525L109.832 116.041L109.923 117.466L109.966 118.799L109.96 120.038L109.903 121.181L109.792 122.229L109.626 123.179L109.403 124.032L109.121 124.788L108.779 125.445L108.374 126.004L107.906 126.465L107.374 126.83L106.776 127.098L106.111 127.27L105.378 127.349L104.578 127.334L103.709 127.229L102.77 127.033L101.763 126.75L100.686 126.381L99.5404 125.929L98.3261 125.395L97.0438 124.783L95.6941 124.095L94.278 123.334L92.7967 122.502L91.2514 121.604L89.6436 120.641L87.9751 119.617L86.2476 118.536L84.4633 117.4L82.6243 116.213L80.7332 114.979L78.7924 113.7L76.8048 112.381L74.7733 111.025L72.701 109.636L70.591 108.216L32.7132 82.667L30.6111 81.2451L28.5514 79.8469L26.5385 78.4742L24.577 77.1285L22.6711 75.8112L20.8251 74.5235L19.0433 73.2665L17.3296 72.0412L15.688 70.8483L14.1224 69.6884L12.6365 68.5622L11.2339 67.4699L9.9179 66.4117L8.6919 65.3877L7.55893 64.3979L6.52189 63.442L5.5835 62.5197L4.74629 61.6306L4.01256 60.7742L3.38443 59.9497L2.8638 59.1564L2.45233 58.3934L2.15144 57.6597L1.96237 56.9544L1.88606 56.2762L1.92326 55.624L2.07445 54.9964L2.33987 54.3923L2.71952 53.8102L3.21314 53.2488L3.82023 52.7065L4.54003 52.182L5.37157 51.6737L6.31359 51.1802L7.36461 50.7001L8.5229 50.2318L9.7865 49.7739L11.1532 49.325L12.6207 48.8837L14.1862 48.4486L15.8469 48.0185L17.5997 47.5921L19.4414 47.1682L21.3685 46.7458L23.3774 46.3237L25.4642 45.9011L27.6249 45.477L29.8555 45.0507L32.1515 44.6216L34.5085 44.1889L36.922 43.7524L39.3873 43.3116L41.8996 42.8662L86.8922 34.9335L89.3837 34.4983L91.8273 34.0757L94.2187 33.6678L96.5537 33.2765L98.8281 32.9038L101.038 32.5518L103.18 32.2226L105.25 31.9184L107.246 31.6415L109.163 31.3939L110.999 31.1779L112.75 30.9958L114.416 30.8498L115.992 30.742L117.478 30.6748L118.87 30.6501L120.168 30.6702L121.37 30.737L122.474 30.8527L123.48 31.0191L124.387 31.238L125.195 31.5113L125.902 31.8407L126.509 32.2276L127.017 32.6736L127.425 33.18L127.733 33.748L127.944 34.3787L128.057 35.0731L128.074 35.832L127.996 36.656L127.826 37.5456L127.564 38.5012L127.212 39.5229L126.774 40.6108L126.25 41.7646L125.644 42.9839L124.958 44.2684L124.195 45.6172L123.357 47.0294L122.448 48.504L121.471 50.0396L120.429 51.6349L119.325 53.2882L118.162 54.9976L116.945 56.7612L115.676 58.5768L114.358 60.4419L112.997 62.3542L111.595 64.3108L110.155 66.3089L108.682 68.3455L80.3269 107.373L78.8417 109.41L77.3824 111.403L75.9509 113.348L74.5487 115.242L73.1774 117.079L71.8382 118.856L70.5324 120.568L69.2609 122.212L68.0247 123.783L66.8245 125.279L65.6608 126.694L64.534 128.026L63.4445 129.272L62.3923 130.427L61.3775 131.49L60.3998 132.457L59.4592 133.325L58.555 134.093L57.6868 134.758L56.8541 135.317L56.0559 135.77L55.2915 136.113L54.56 136.347L53.8602 136.47L53.1911 136.481L52.5514 136.378L51.9399 136.163L51.3553 135.834L50.7962 135.392L50.2611 134.837L49.7486 134.17L49.2573 133.39L48.7855 132.5L48.3318 131.501L47.8946 130.394L47.4724 129.18L47.0638 127.863L46.6672 126.444L46.2811 124.925L45.9042 123.309L45.535 121.6L45.1723 119.8L44.8148 117.912L44.4612 115.94L44.1104 113.888L43.7614 111.76L43.4132 109.559L43.0649 107.29L42.7157 104.957L42.3649 102.565L42.012 100.118L41.6564 97.6202L35.2975 52.3822L34.9434 49.8491L34.5993 47.3614L34.2669 44.9238L33.9479 42.5404L33.6442 40.2156L33.3578 37.9533L33.0905 35.7576L32.8445 33.6322L32.6217 31.5805L32.4242 29.606L32.2542 27.7119L32.1137 25.9011L32.005 24.1765L31.93 22.5405L31.891 20.9955L31.8901 19.5436L31.9293 18.1868L32.0106 16.9268L32.1361 15.7649L32.3077 14.7024L32.5272 13.7403L32.7965 12.8793L33.1172 12.12L33.4911 11.4627L33.9196 10.9074L34.4041 10.4539L34.946 10.102L35.5464 9.8509L36.2065 9.69988L36.9272 9.64787L37.7092 9.69365L38.5533 9.83577L39.4598 10.0726L40.4292 10.4022L41.4615 10.8228L42.5569 11.332L43.7152 11.9275L44.936 12.6068L46.2188 13.3672L47.563 14.206L48.9676 15.1201L50.4316 16.1066L51.9538 17.1623L53.5328 18.2838L55.1669 19.4679L56.8545 20.7111L58.5935 22.0098L60.3818 23.3604L62.2172 24.7595L64.0971 26.2031L66.0189 27.6878L67.9799 29.2097L69.977 30.7651L105.98 58.8927L107.987 60.4642L109.955 62.0096L111.879 63.5268L113.755 65.0139L115.578 66.4692L117.344 67.8912L119.05 69.2784L120.691 70.6296L122.264 71.9437L123.763 73.2196L125.187 74.4567L126.531 75.6543L127.791 76.8119L128.965 77.9291L130.049 79.0058L131.041 80.042L131.937 81.0376L132.736 81.9931L133.434 82.9086L134.029 83.7848L134.52 84.6222L134.904 85.4215L135.181 86.1836L135.348 86.9094L135.405 87.6L135.35 88.2565L135.184 88.8801L134.905 89.472L134.515 90.0336L134.011 90.5663L133.396 91.0716L132.669 91.551L131.832 92.0059L130.886 92.438L129.831 92.8488L128.669 93.2399L127.403 93.6129L126.034 93.9693L124.564 94.3107L122.997 94.6387L121.334 94.9547L119.578 95.2602L117.733 95.5566L115.803 95.8454L113.79 96.1277L111.698 96.4048L109.531 96.678L107.293 96.9482L104.989 97.2165L102.623 97.4838L100.198 97.7508L97.721 98.0184L95.1952 98.2871L49.7564 103.063L47.229 103.325L44.7492 103.579L42.3213 103.822L39.9499 104.053L37.639 104.27L35.3928 104.471L33.2152 104.655L31.1099 104.819L29.0804 104.962L27.1303 105.081L25.2625 105.175L23.4802 105.242L21.786 105.279L20.1826 105.285L18.6722 105.257L17.257 105.194L15.9389 105.093L14.7195 104.953L13.6003 104.771L12.5825 104.547L11.6669 104.277L10.8545 103.96L10.1456 103.594L9.54049 103.179L9.03927 102.712L8.64171 102.192L8.34739 101.618L8.15567 100.988L8.06567 100.302L8.07632 99.5581L8.18632 98.7563L8.39418 97.8957L8.69821 96.9758L9.0965 95.9962L9.587 94.9567L10.1674 93.8574L10.8354 92.6983L11.5883 91.4798L12.4235 90.2023L13.3379 88.8666L14.3287 87.4734L15.3927 86.0237L16.5266 84.5188L17.727 82.9599L18.9906 81.3487L20.3137 79.6869L21.6928 77.9762L23.1241 76.2189L24.604 74.4172L26.1287 72.5734L27.6944 70.6901L29.2973 68.7701L30.9335 66.8161L60.3014 31.8176L61.932 29.8802L63.5343 27.983L65.1061 26.1303L66.6454 24.3263L68.1505 22.5751L69.6197 20.881L71.0514 19.2478L72.4444 17.6797L73.7975 16.1803L75.1096 14.7535L76.3799 13.4028L77.6077 12.1319L78.7924 10.944L79.9336 9.84234L81.0312 8.82999L82.0849 7.90985L83.095 7.08463L84.0614 6.35685L84.9847 5.72886L85.8652 5.2028L86.7035 4.78061L87.5003 4.46399L88.2565 4.25448L88.9731 4.15334L89.6509 4.16163L90.2912 4.28017L90.8951 4.50956L91.464 4.85014L91.9992 5.30201L92.5022 5.86505L92.9744 6.53887L93.4174 7.32285L93.8326 8.21612L94.2219 9.21759L94.5867 10.3259L94.9286 11.5394L95.2495 12.8564L95.5508 14.2747L95.8342 15.7921L96.1014 17.406L96.3539 19.1138L96.5932 20.9124L96.8209 22.7988L97.0385 24.7695L97.2472 26.8211L97.4486 28.9498L97.6438 31.1516L97.8341 33.4226L98.0205 35.7585L98.204 38.155L98.3857 40.6074L98.5664 43.1113L98.7467 45.6618L101.932 91.234L102.104 93.7516L102.268 96.2198L102.422 98.6339L102.566 100.99L102.697 103.283L102.814 105.509L102.916 107.665L103 109.747L103.064 111.75L103.107 113.673L103.127 115.511L103.122 117.261L103.09 118.922L103.029 120.49L102.937 121.962L102.811 123.338L102.652 124.615L102.455 125.79L102.22 126.864L101.944 127.835L101.626 128.702L101.265 129.463L100.858 130.12L100.404 130.67L99.901 131.116L99.3487 131.455L98.7453 131.69L98.0896 131.821L97.3807 131.849L96.6176 131.774L95.7995 131.599L94.9259 131.324L93.9961 130.952L93.0099 130.484L91.967 129.923L90.8674 129.271L89.7112 128.53L88.4987 127.703L87.2304 126.793L85.9068 125.803L84.5288 124.736L83.0973 123.595L81.6134 122.383L80.0785 121.104L78.494 119.762L76.8617 118.36L75.1832 116.901L73.4607 115.39L71.6963 113.831L69.8924 112.226L68.0513 110.581L66.1758 108.899L30.326 76.6189L28.4609 74.9325L26.6365 73.2767L24.857 71.6537L23.1267 70.0656L21.4495 68.5143L19.8294 67.0015L18.2706 65.5288L16.7767 64.0975L15.3516 62.7091L13.9989 61.3645L12.7223 60.0646L11.525 58.8104L10.4105 57.6022L9.38173 56.4407L8.44184 55.326L7.59361 54.2583L6.83967 53.2377L6.1825 52.2639L5.62438 51.3366L5.16738 50.4555L4.8134 49.6199L4.56408 48.8291L4.4209 48.0824L4.38508 47.3788L4.45761 46.7173L4.63928 46.0967L4.93064 45.5158L5.33198 44.9733L5.84337 44.4679L6.46464 43.998L7.19537 43.5621L8.03488 43.1588L8.98231 42.7862L10.0365 42.4429L11.196 42.1271L12.4593 41.8371L13.8245 41.5712L15.2895 41.3278L16.852 41.105L18.5095 40.9012L20.2591 40.7148L22.098 40.5441L24.0229 40.3874L26.0305 40.2433L28.1173 40.1102L30.2794 39.9866L32.513 39.8713L34.8139 39.7628L37.178 39.66L39.6008 39.5618L42.0778 39.467L44.6044 39.3746L90.2627 37.7794L92.8136 37.6926L95.3176 37.6111L97.7702 37.5362L100.167 37.4691L102.503 37.4113L104.775 37.3643L106.978 37.3296L109.109 37.3089L111.163 37.3037L113.137 37.3159L115.029 37.3472L116.834 37.3994L118.549 37.4744L120.173 37.5739L121.702 37.7L123.134 37.8543L124.467 38.0389L125.7 38.2555L126.829 38.5059L127.856 38.792L128.777 39.1155L129.592 39.4781L130.301 39.8815L130.902 40.3272L131.397 40.8167L131.784 41.3516L132.065 41.933L132.239 42.5623L132.307 43.2405L132.271 43.9688L132.131 44.7479L131.889 45.5788L131.547 46.4619L131.106 47.3979L130.568 48.3872L129.936 49.4298L129.212 50.526L128.398 51.6755L127.497 52.8782L126.513 54.1337L125.447 55.4413L124.304 56.8004L123.086 58.21L121.797 59.669L120.441 61.1762L119.02 62.7301L117.54 64.3292L116.003 65.9717L114.414 67.6557L112.776 69.3791L111.093 71.1395L109.37 72.9347L107.61 74.762L75.872 107.628L74.1028 109.456L72.364 111.247L70.6581 112.996L68.9874 114.701L67.3541 116.356L65.7601 117.957L64.2073 119.502L62.6972 120.985L61.2314 122.403L59.8113 123.753L58.4379 125.031L57.1122 126.232L55.8352 127.355L54.6073 128.396L53.4292 129.351L52.3011 130.218L51.2233 130.995L50.1958 131.677L49.2183 132.264L48.2907 132.752L47.4126 133.141L46.5834 133.427L45.8023 133.61L45.0687 133.687L44.3815 133.659L43.7397 133.523L43.1423 133.279L42.5878 132.927L42.0751 132.467L41.6027 131.897L41.1691 131.22L40.7727 130.434L40.412 129.541L40.0853 128.541L39.7908 127.437L39.5269 126.228L39.2917 124.918L39.0835 123.507L38.9005 121.998L38.741 120.393L38.6031 118.695L38.485 116.906L38.3851 115.03L38.3017 113.07L38.2331 111.029L38.1776 108.91L38.1338 106.718L38.1001 104.456L38.0751 102.129L38.0574 99.7401L38.0459 97.2946L38.0393 94.7967L38.0366 92.2512L38.0369 46.5625L38.0404 44.0272L38.048 41.5406L38.0608 39.1073L38.0799 36.7319L38.1067 34.4188L38.1426 32.1721L38.1888 29.9959L38.2471 27.8942L38.3189 25.8706L38.4058 23.9287L38.5096 22.0718L38.6319 20.3031L38.7745 18.6255L38.9391 17.0417L39.1275 15.5543L39.3415 14.1655L39.5829 12.8775L39.8535 11.6919L40.155 10.6105L40.4891 9.63454L40.8576 8.7652L41.2621 8.00335L41.7042 7.34963L42.1854 6.80443L42.7073 6.36792L43.2711 6.04003L43.8784 5.82043L44.5301 5.70858L45.2275 5.70369L45.9716 5.80476L46.7633 6.01057L47.6033 6.31966L48.4924 6.73037L49.431 7.24084L50.4196 7.84901L51.4583 8.5526L52.5473 9.34919L53.6865 10.2361L54.8757 11.2107L56.1145 12.2698L57.4024 13.4105L58.7387 14.6295L60.1226 15.9233L61.553 17.2886L63.0287 18.7216L64.5484 20.2188L66.1106 21.7762L67.7134 23.39L69.3552 25.0563L71.0339 26.771L72.7473 28.5302L74.4931 30.3296L76.2687 32.1652L108.004 65.0291L109.756 66.8496L111.47 68.6372L113.143 70.3897L114.771 72.1045L116.349 73.7794L117.874 75.4125L119.341 77.0017L120.747 78.5454L122.089 80.042L123.362 81.4901L124.564 82.8886L125.69 84.2363L126.738 85.5324L127.705 86.7762L128.586 87.9671L129.381 89.1048L130.085 90.1891L130.696 91.2199L131.212 92.1973L131.632 93.1215L131.952 93.993L132.171 94.8123L132.288 95.5801L132.301 96.2972L132.209 96.9644L132.012 97.583L131.707 98.154L131.296 98.6786L130.778 99.1583L130.153 99.5945L129.42 99.9886L128.581 100.342L127.637 100.657L126.587 100.936L125.435 101.178L124.18 101.388L122.824 101.565L121.371 101.713L119.82 101.833L118.176 101.927L116.44 101.997L114.616 102.044L112.706 102.071L110.713 102.079L108.642 102.071L106.495 102.047L104.276 102.009L101.99 101.959L99.6398 101.9L97.2303 101.831L94.7659 101.754L92.251 101.671L44.0394 99.9878L41.5234 99.895L39.058 99.7995L36.6478 99.7004L34.2974 99.5964L32.0111 99.4865L29.793 99.3695L27.6473 99.244L25.5778 99.1085L23.5882 98.9617L21.6821 98.8021L19.8628 98.628L18.1334 98.4379L16.4968 98.23L14.9557 98.0028L13.5127 97.7545L12.17 97.4834L10.9295 97.1879L9.79326 96.8661L8.76268 96.5164L7.83913 96.1372L7.02369 95.7267L6.31722 95.2835L5.72032 94.8058L5.23336 94.2922L4.85645 93.7414L4.58949 93.1518L4.4321 92.5222L4.3837 91.8514L4.44346 91.1383L4.61032 90.3819L4.88301 89.5813L5.26002 88.7356L5.73964 87.8443L6.31994 86.9067L6.9988 85.9225L7.77389 84.8915L8.64272 83.8134L9.60258 82.6883L10.6506 81.5163L11.7838 80.2979L12.999 79.0334L14.2928 77.7236L15.6619 76.3692L17.1026 74.9711L18.6112 73.5306L20.184 72.0488L21.8171 70.5273L23.5064 68.9677L25.248 67.3716L27.0378 65.7412L28.8716 64.0784L30.7453 62.3855L64.6948 31.8159L66.5951 30.1076L68.4632 28.4333L70.2962 26.7967L72.0916 25.2019L73.8469 23.6528L75.5598 22.1531L77.2282 20.7068L78.85 19.3175L80.4236 17.9889L81.9473 16.7247L83.4197 15.5284L84.8394 14.4034L86.2054 13.353L87.5168 12.3804L88.7728 11.4887L89.9728 10.6808L91.1164 9.9594L92.2034 9.3272L93.2337 8.78663L94.2074 8.33996L95.1247 7.9893L95.986 7.73654L96.7918 7.58338L97.5428 7.53134L98.2398 7.5817L98.8837 7.73556L99.4757 7.99377L100.017 8.35698L100.508 8.8256L100.952 9.3998L101.349 10.0795L101.701 10.8645L102.009 11.7543L102.275 12.748L102.502 13.8446L102.69 15.0431L102.842 16.3418L102.96 17.7391L103.045 19.2332L103.1 20.8217L103.126 22.5024L103.125 24.2726L103.1 26.1296L103.052 28.0703L102.983 30.0916L102.895 32.19L102.79 34.3618L102.669 36.6035L102.535 38.9109L102.389 41.28L102.232 43.7065L102.066 46.1861L101.893 48.7141L98.7066 94.2911L98.5263 96.8317L98.3455 99.3245L98.1635 101.765L97.9793 104.148L97.7922 106.47L97.6009 108.726L97.4045 110.912L97.2016 113.024L96.991 115.058L96.7713 117.01L96.5411 118.877L96.299 120.656L96.0434 122.343L95.7728 123.936L95.4855 125.432L95.18 126.828L94.8546 128.122L94.5077 129.312L94.1376 130.397L93.7427 131.374L93.3214 132.243L92.8721 133.003L92.3932 133.652L91.8832 134.191L91.3407 134.618L90.7641 134.934L90.1522 135.138L89.5037 135.233L88.8173 135.216L88.0921 135.091L87.3269 134.858L86.5209 134.518L85.6733 134.072L84.7834 133.523L83.8506 132.873L82.8745 132.123L81.8548 131.277L80.7913 130.336L79.684 129.303L78.5331 128.182L77.3388 126.976L76.1015 125.687L74.8218 124.319L73.5006 122.876L72.1385 121.361L70.7368 119.778L69.2966 118.131L67.8194 116.424L66.3065 114.66L64.7598 112.845L63.1811 110.982L61.5724 109.076L59.9357 107.13L30.5675 72.13L28.9384 70.1834L27.3434 68.2713L25.7865 66.3965L24.2714 64.5618L22.802 62.7697L21.3819 61.0226L20.0149 59.3227L18.7047 57.6719L17.4549 56.0722L16.2689 54.5252L15.1503 53.0324L14.1023 51.5951L13.1282 50.2146L12.2311 48.8917L11.414 47.6273L10.6797 46.422L10.0309 45.2761L9.47023 44.1901L9.00003 43.1639L8.62249 42.1976L8.33966 41.2909L8.15339 40.4434L8.06533 39.6546L8.07692 38.9238L8.18942 38.2503L8.40386 37.633L8.72105 37.0709L9.1416 36.5627L9.66587 36.1073L10.294 35.7031L11.0259 35.3486L11.8613 35.0423L12.7997 34.7825L13.8401 34.5673L14.9817 34.395L16.2231 34.2637L17.5629 34.1714L18.9994 34.1162L20.5307 34.0961L22.1545 34.1091L23.8684 34.1531L25.67 34.226L27.5563 34.3259L29.5243 34.4508L31.5709 34.5985L33.6926 34.7673L35.8857 34.955L38.1466 35.1599L40.4713 35.3801L42.8557 35.6138L45.2955 35.8593L47.7863 36.1149L50.3235 36.3792L95.76 41.1555L98.2754 41.4239L100.741 41.6913L103.153 41.9583L105.506 42.2257L107.796 42.4944L110.018 42.7652L112.169 43.0391L114.243 43.3173L116.239 43.6009L118.151 43.8913L119.976 44.1896L121.711 44.4973L123.353 44.8159L124.899 45.1467L126.347 45.4913L127.693 45.8513L128.936 46.2281L130.074 46.6234L131.105 47.0388L132.028 47.4759L132.84 47.9361L133.542 48.4211L134.133 48.9323L134.611 49.4713L134.977 50.0396L135.231 50.6384L135.372 51.2692L135.402 51.9331L135.32 52.6314L135.129 53.3652L134.828 54.1355L134.42 54.9433L133.906 55.7892L133.287 56.6741L132.567 57.5984L131.747 58.5628L130.829 59.5674L129.817 60.6125L128.712 61.6983L127.519 62.8245L126.239 63.991L124.878 65.1974L123.437 66.4431L121.921 67.7276L120.333 69.05L118.677 70.4093L116.957 71.8043L115.178 73.2339L113.342 74.6964L111.456 76.1903L109.522 77.714L107.545 79.2653L69.5306 108.966L67.5412 110.514L65.5887 112.028L63.676 113.504L61.8057 114.938L59.9806 116.327L58.203 117.666L56.4753 118.953L54.7994 120.183L53.1774 121.354L51.6108 122.461L50.1014 123.501L48.6505 124.472L47.2593 125.37L45.9287 126.191L44.6596 126.934L43.4526 127.595L42.3083 128.171L41.2269 128.661L40.2085 129.062L39.2531 129.371L38.3605 129.587L37.5302 129.708L36.7619 129.732L36.0548 129.658L35.408 129.485L34.8206 129.211L34.2916 128.837L33.8196 128.361L33.4034 127.783L33.0415 127.103L32.7323 126.321L32.4743 125.438L32.2655 124.453L32.1044 123.368L31.9888 122.185L31.917 120.903L31.8869 119.525L31.8965 118.052L31.9436 116.487L32.0263 114.831L32.1422 113.087L32.2894 111.257L32.4657 109.345L32.669 107.353L32.8972 105.285L33.1481 103.144L33.4198 100.933L33.7102 98.6563L34.0175 96.3181L34.3396 93.9223L34.6747 91.4731L35.0212 88.975L41.3778 43.737L41.7356 41.204L42.0906 38.7174L42.443 36.2819L42.7933 33.9023L43.1423 31.5832L43.4905 29.3289L43.8388 27.1438L44.1881 25.0321L44.5394 22.9976L44.8938 21.0443L45.2524 19.1758L45.6164 17.3955L45.9872 15.7066L46.366 14.1123L46.7543 12.6154L47.1534 11.2185L47.5649 9.92392L47.9903 8.73395L48.431 7.65051L48.8886 6.6753L49.3646 5.80979L49.8606 5.0552L50.3779 4.41252L50.9182 3.88248L51.4829 3.46557L52.0733 3.16203L52.691 2.97186L53.3371 2.8948L54.0129 2.93038L54.7196 3.07784L55.4584 3.33622L56.2302 3.7043L57.036 4.18065L57.8765 4.76362L58.7526 5.45131L59.6648 6.24162L60.6137 7.13225L61.5996 8.1207L62.6227 9.20427L63.6832 10.3801L64.781 11.645L65.916 12.996L67.0879 14.4294L68.2961 15.9419L69.5402 17.5298L70.8194 19.1892L72.1327 20.9162L73.4791 22.7068L74.8574 24.5569L76.2662 26.4623L77.7041 28.4186L79.1693 30.4216L80.66 32.4669L107.515 69.4283L109.012 71.4926L110.478 73.521L111.909 75.5101L113.303 77.4571L114.655 79.3591L115.962 81.2135L117.22 83.0177L118.425 84.7695L119.575 86.4666L120.666 88.1072L121.694 89.6894L122.656 91.2116L123.549 92.6724L124.371 94.0706L125.117 95.4052L125.786 96.6752L126.374 97.8801L126.879 99.0193L127.298 100.092L127.63 101.099L127.872 102.04L128.022 102.915L128.078 103.725L128.04 104.469L127.905 105.15L127.673 105.766L127.343 106.321L126.913 106.813L126.383 107.246L125.754 107.62L125.024 107.937L124.195 108.198L123.266 108.405L122.237 108.56L121.111 108.665L119.888 108.721L118.569 108.731L117.156 108.697L115.65 108.62L114.054 108.504L112.369 108.35L110.598 108.16L108.744 107.937L106.809 107.682L104.797 107.399L102.711 107.089L100.553 106.755L98.3285 106.398L96.0403 106.021L93.6925 105.626L91.2891 105.214L88.8345 104.789L86.333 104.351L41.338 96.4173L38.8357 95.973L36.3815 95.5331L33.9801 95.0975L31.6362 94.6657L29.3544 94.2372L27.139 93.8115L24.9943 93.3878L22.9245 92.9654L20.9334 92.5433L19.025 92.1206L17.2027 91.6963L15.4701 91.2692L13.8302 90.8381L12.2863 90.4017L10.841 89.9588L9.49695 89.5081L8.25654 89.048L7.1219 88.5772L6.09495 88.0942L5.17734 87.5976L4.37052 87.0858L3.67566 86.5575L3.09371 86.0111L2.62536 85.4451L2.27107 84.8583L2.03102 84.2491L1.90517 83.6162L1.89322 82.9583L1.99464 82.2742L2.20863 81.5627L2.53418 80.8226L2.97003 80.0529L3.51469 79.2528L4.16642 78.4212L4.92331 77.5576L5.7832 76.6612L6.74372 75.7315L7.8023 74.7681L8.95619 73.7707L10.2024 72.7391L11.5379 71.6733L12.9593 70.5734L14.4632 69.4397L16.046 68.2725L17.704 67.0723L19.4332 65.8399L21.2296 64.576L23.0893 63.2816L25.0079 61.9579L26.9812 60.6061L29.0048 59.2276L31.0743 57.824L33.1853 56.397L71.0626 30.849L73.1645 29.4358L75.228 28.0534L77.25 26.7053L79.2275 25.3951L81.1575 24.1262L83.0373 22.9021L84.8643 21.7263L86.6362 20.6023L88.3507 19.5334L90.0059 18.5228L91.6 17.574L93.1312 16.69L94.5981 15.8739L95.9995 15.1287L97.3343 14.4573L98.6016 13.8625L99.8007 13.3467L100.931 12.9127L101.992 12.5626L102.985 12.2986L103.907 12.1229L104.761 12.0372L105.547 12.0433L106.264 12.1426L106.914 12.3363L107.498 12.6257L108.016 13.0117L108.469 13.4948L108.86 14.0757L109.189 14.7545L109.458 15.5313L109.668 16.406L109.822 17.3781L109.92 18.447L109.966 19.6119L109.961 20.8717L109.907 22.225L109.806 23.6705L109.661 25.2062L109.473 26.8304L109.245 28.5406L108.98 30.3347L108.679 32.2099L108.346 34.1634L107.981 36.1923L107.588 38.2932L107.169 40.4629L106.726 42.6977L106.262 44.9939L105.778 47.3475L105.277 49.7545L104.761 52.2106L104.231 54.7115L94.7318 99.3968L94.2027 101.865L93.6798 104.283L93.1628 106.647L92.6516 108.952L92.1457 111.193L91.6446 113.366L91.1479 115.467L90.6547 117.492L90.1644 119.437L89.676 121.298L89.1886 123.071L88.7011 124.753L88.2124 126.341L87.7215 127.833L87.2269 129.224L86.7276 130.513L86.222 131.697L85.7089 132.774L85.1869 133.743L84.6545 134.601L84.1103 135.348L83.553 135.982L82.981 136.502L82.3929 136.907L81.7873 137.198L81.1629 137.373L80.5183 137.434L79.8522 137.38L79.1634 137.213L78.4507 136.932L77.713 136.539L76.9491 136.035L76.1583 135.422L75.3394 134.702L74.4919 133.876L73.615 132.947L72.7082 131.918L71.7709 130.79L70.8028 129.566L69.8038 128.251L68.7736 126.846L67.7124 125.355L66.6204 123.783L65.4977 122.131L64.345 120.405L63.1627 118.608L61.9516 116.744L60.7126 114.817L59.4467 112.832L58.1551 110.793L56.8391 108.705L55.5002 106.571L29.9366 65.6603L28.6082 63.5247L27.3105 61.4297L26.047 59.3786L24.821 57.3746L23.6359 55.4205L22.4951 53.5192L21.4021 51.6732L20.36 49.885L19.3722 48.1569L18.442 46.4908L17.5723 44.8888L16.7665 43.3523L16.0274 41.8831L15.3579 40.4822L14.7609 39.1509L14.239 37.89L13.7947 36.7004L13.4306 35.5824L13.1488 34.5364L12.9514 33.5627L12.8405 32.6611L12.8179 31.8315L12.8851 31.0735L13.0436 30.3865L13.2947 29.7698L13.6394 29.2226L14.0785 28.7438L14.6128 28.3323L15.2427 27.9866L15.9684 27.7055L16.7899 27.4873L17.7071 27.3303L18.7195 27.2327L19.8265 27.1926L21.0271 27.2081L22.3204 27.277L23.705 27.3972L25.1794 27.5665L26.7419 27.7825L28.3904 28.043L30.1227 28.3457L31.9366 28.688L33.8293 29.0676L35.7981 29.482L37.8399 29.9289L39.9516 30.4058L42.1297 30.9103L44.3708 31.4401L46.671 31.9927L49.0265 32.5658L51.4331 33.1572L53.8868 33.7648L98.2158 44.8164L100.692 45.4361L103.122 46.0481L105.501 46.6522L107.824 47.2484L110.086 47.8369L112.284 48.418L114.412 48.9919L116.467 49.5593L118.444 50.1206L120.339 50.6767L122.149 51.2281L123.871 51.7758L125.5 52.3208L127.035 52.8641L128.471 53.4067L129.806 53.9498L131.038 54.4946L132.164 55.0425L133.182 55.5946L134.091 56.1524L134.888 56.7172L135.573 57.2904L136.145 57.8734L136.601 58.4675L136.943 59.0743L137.169 59.695L137.28 60.331L137.275 60.9837L137.155 61.6544L136.921 62.3442L136.573 63.0544L136.113 63.7862L135.541 64.5406L134.861 65.3185L134.072 66.1209L133.178 66.9486L132.181 67.8024L131.083 68.6828L129.886 69.5903L128.595 70.5254L127.211 71.4884L125.738 72.4794L124.18 73.4984L122.54 74.5453L120.821 75.6199L119.029 76.7219L117.165 77.8507L115.236 79.0057L113.245 80.1861L111.196 81.391L109.094 82.6192L106.943 83.8697L104.748 85.1409L65.1804 107.986L62.9754 109.255L60.8099 110.498L58.6874 111.71L56.6111 112.888L54.5844 114.029L52.6101 115.13L50.6911 116.187L48.8301 117.197L47.0295 118.157L45.2916 119.063L43.6186 119.913L42.0123 120.704L40.4744 121.432L39.0066 122.095L37.61 122.689L36.2858 123.212L35.035 123.662L33.8583 124.036L32.7563 124.331L31.7292 124.546L30.7772 124.678L29.9004 124.726L29.0984 124.687L28.371 124.56L27.7175 124.344L27.1372 124.038L26.6293 123.64L26.1926 123.15L25.826 122.567L25.5281 121.89L25.2974 121.12L25.1323 120.257L25.031 119.3L24.9918 118.25L25.0126 117.108L25.0913 115.874L25.2259 114.551L25.4142 113.138L25.6537 111.638L25.9421 110.052L26.2771 108.383L26.6562 106.632L27.0768 104.802L27.5366 102.895L28.0329 100.915L28.5632 98.8639L29.1249 96.7453L29.7157 94.5625L30.3329 92.319L30.9741 90.0187L31.6369 87.6653L32.3188 85.2629L33.0176 82.8156L45.6114 38.8969L46.3138 36.4602L47.0066 34.0715L47.6897 31.7354L48.3629 29.4567L49.0264 27.2399L49.6802 25.0894L50.3246 23.0095L50.96 21.0044L51.5869 19.0781L52.2058 17.2345L52.8175 15.4772L53.4226 13.8098L54.0221 12.2354L54.6169 10.7573L55.2081 9.37839L55.7966 8.10129L56.3837 6.92852L56.9706 5.86232L57.5585 4.90471L58.1486 4.05748L58.7424 3.32218L59.3412 2.70012L59.9463 2.19235L60.559 1.79968L61.1809 1.52268L61.8132 1.36167L62.4573 1.31669L63.1144 1.38758L63.786 1.57388L64.4733 1.87491L65.1774 2.28975L65.8995 2.81722L66.6407 3.4559L67.402 4.20415L68.1844 5.06009L68.9887 6.02162L69.8157 7.08642L70.666 8.25196L71.5403 9.51549L72.4389 10.8741L73.3623 12.3246L74.3106 13.8637L75.2839 15.488L76.2823 17.1938L77.3056 18.9773L78.3535 20.8346L79.4256 22.7615L80.5213 24.754L81.6399 26.8076L82.7807 28.918L83.9426 31.0807L85.1246 33.2912L86.3253 35.5447L107.773 75.8831L108.955 78.1164L110.111 80.3079L111.237 82.4541L112.329 84.5516L113.384 86.5972L114.4 88.5878L115.373 90.5206L116.3 92.3928L117.178 94.2019L118.003 95.9457L118.774 97.6219L119.485 99.2286L120.136 100.764L120.723 102.227L121.243 103.616L121.693 104.929L122.072 106.166L122.377 107.326L122.604 108.409L122.754 109.414L122.822 110.341L122.808 111.189L122.71 111.961L122.525 112.654L122.254 113.271L121.895 113.812L121.446 114.278L120.907 114.67L120.277 114.989L119.557 115.236L118.745 115.414L117.842 115.524L116.848 115.567L115.764 115.546L114.59 115.462L113.327 115.318L111.976 115.116L110.539 114.858L109.016 114.546L107.411 114.184L105.724 113.773L103.958 113.316L102.115 112.816L100.199 112.275L98.2106 111.696L96.1541 111.082L94.0324 110.434L91.8488 109.757L89.6069 109.052L87.3104 108.322L84.963 107.569L82.5689 106.796L36.6889 91.8892L34.2954 91.1064L31.9513 90.3349L29.6613 89.5751L27.4299 88.8272L25.2617 88.0912L23.1611 87.3672L21.1323 86.655L19.1794 85.9542L17.3065 85.2646L15.5174 84.5857L13.8155 83.9167L12.2045 83.2572L10.6876 82.6062L9.26782 81.9629L7.94804 81.3264L6.73092 80.6957L5.61889 80.0696L4.61415 79.4471L3.7187 78.8269L2.93425 78.2078L2.26233 77.5885L1.70418 76.9676L1.26084 76.344L0.933052 75.7162L0.721343 75.0828L0.62598 74.4425L0.646981 73.7941L0.784102 73.136L1.03687 72.4672L1.40454 71.7862L1.88614 71.0919L2.48044 70.383L3.18598 69.6586L4.00106 68.9175L4.92375 68.1588L5.95191 67.3815L7.08314 66.5848L8.31488 65.7681L9.64431 64.9307L11.0685 64.072L12.5841 63.1918L14.188 62.2895L15.8764 61.3652L17.6458 60.4186L19.4923 59.4499L21.4118 58.4593L23.4003 57.4471L25.4534 56.4138L27.5668 55.3599L29.7361 54.2861L31.9567 53.1934L34.2239 52.0828L75.2841 32.0552L77.5821 30.9367L79.8398 29.8418L82.0534 28.7736L84.2193 27.7351L86.3342 26.7294L88.3947 25.7596L90.3977 24.8287L92.3404 23.9398L94.2199 23.096L96.0338 22.3002L97.7796 21.5556L99.4552 20.8649L101.059 20.2311L102.588 19.6569L104.042 19.1453L105.419 18.6987L106.718 18.3198L107.938 18.0109L109.078 17.7745L110.138 17.6127L111.117 17.5276L112.016 17.5212L112.834 17.5952L113.571 17.7513L114.228 17.9909L114.805 18.3154L115.304 18.7258L115.725 19.2232L116.069 19.8082L116.338 20.4815L116.533 21.2433L116.655 22.0939L116.707 23.0332L116.69 24.0609L116.606 25.1766L116.458 26.3796L116.246 27.669L115.975 29.0437L115.646 30.5024L115.261 32.0436L114.823 33.6655L114.335 35.3662L113.8 37.1435L113.219 38.995L112.596 40.9182L111.933 42.9103L111.234 44.9684L110.501 47.0893L109.736 49.2697L108.943 51.5062L108.123 53.7949L107.281 56.1323L106.418 58.5142L90.7922 101.447L89.9184 103.84L89.0574 106.187L88.2096 108.483L87.3755 110.724L86.5554 112.905L85.7496 115.022L84.9581 117.07L84.1808 119.045L83.4175 120.943L82.6681 122.76L81.932 124.492L81.2089 126.136L80.498 127.688L79.7987 129.146L79.1102 130.505L78.4317 131.764L77.7621 132.92L77.1004 133.969L76.4456 134.911L75.7966 135.743L75.152 136.464L74.5107 137.071L73.8714 137.565L73.2327 137.943L72.5934 138.205L71.9522 138.351L71.3076 138.38L70.6583 138.293L70.0031 138.09L69.3406 137.771L68.6695 137.337L67.9886 136.789L67.2967 136.128L66.5927 135.356L65.8754 134.475L65.1439 133.487L64.3972 132.393L63.6344 131.197L62.8548 129.9L62.0576 128.506L61.2424 127.018L60.4085 125.439L59.5557 123.772L58.6836 122.022L57.7921 120.191L56.8812 118.284L55.951 116.304L55.0017 114.257L54.0337 112.146L53.0475 109.975L52.0436 107.75L51.0228 105.474L49.9861 103.153L31.4028 61.4138L30.3731 59.0931L29.3667 56.815L28.3866 54.5832L27.4356 52.4014L26.5166 50.2731L25.6328 48.2016L24.7869 46.1901L23.982 44.2414L23.221 42.3584L22.5069 40.5437L21.8425 38.7997L21.2307 37.1284L20.6742 35.5321L20.1759 34.0123L19.7383 32.5708L19.364 31.2089L19.0555 29.9278L18.8151 28.7284L18.6452 27.6115L18.5479 26.5776L18.5251 25.6272L18.5788 24.7603L18.7107 23.9769L18.9225 23.2767L19.2154 22.6594L19.5908 22.1242L20.0497 21.6704L20.5931 21.2971L21.2217 21.0029L21.936 20.7867L22.7363 20.6469L23.6229 20.5819L24.5956 20.59L25.6541 20.6692L26.798 20.8175L28.0267 21.0328L29.3391 21.3127L30.7343 21.6549L32.2109 22.0571L33.7674 22.5165L35.402 23.0306L37.1128 23.5968L38.8977 24.2123L40.7544 24.8742L42.6802 25.5799L44.6725 26.3265L46.7283 27.1111L48.8445 27.9309L51.0179 28.783L53.2449 29.6646L55.522 30.5728L57.8453 31.5049L60.211 32.4581L102.571 49.5733L104.916 50.5248L107.213 51.4617L109.458 52.3834L111.647 53.2892L113.775 54.1787L115.837 55.0518L117.829 55.908L119.748 56.7475L121.588 57.5703L123.347 58.3765L125.02 59.1666L126.604 59.9408L128.096 60.6998L129.492 61.4441L130.79 62.1745L131.986 62.8918L133.078 63.5969L134.064 64.2907L134.942 64.9742L135.709 65.6487L136.365 66.3152L136.907 66.9749L137.335 67.6292L137.648 68.2792L137.844 68.9263L137.924 69.5718" stroke="#FFC700" stroke-width="0.8"/>
</svg>
