<svg width="32" height="26" viewBox="0 0 32 26" fill="none" xmlns="http://www.w3.org/2000/svg">
<circle cx="16.378" cy="12.5984" r="12.5984" fill="#FECD06"/>
<path d="M4.70437 16.9672C3.87962 16.9672 3.16953 16.7805 2.57409 16.4069C1.98234 16.0297 1.52744 15.5101 1.20938 14.8481C0.891315 14.1861 0.732283 13.4279 0.732283 12.5735C0.732283 11.7081 0.895013 10.9444 1.22047 10.2824C1.54593 9.61668 2.00453 9.09705 2.59628 8.72351C3.18802 8.34997 3.88517 8.1632 4.68772 8.1632C5.33494 8.1632 5.91189 8.2834 6.41858 8.5238C6.92526 8.7605 7.33393 9.09335 7.6446 9.52237C7.95896 9.95138 8.14573 10.4525 8.2049 11.0258H6.59055C6.50179 10.6263 6.29838 10.2824 5.98032 9.99391C5.66595 9.70544 5.24433 9.5612 4.71546 9.5612C4.25316 9.5612 3.84819 9.68325 3.50054 9.92734C3.15659 10.1677 2.88845 10.5117 2.69613 10.9592C2.50382 11.403 2.40766 11.9282 2.40766 12.5347C2.40766 13.156 2.50197 13.6923 2.69059 14.1435C2.87921 14.5947 3.14549 14.9442 3.48944 15.192C3.83709 15.4398 4.24576 15.5637 4.71546 15.5637C5.02983 15.5637 5.3146 15.5064 5.56979 15.3917C5.82868 15.2734 6.04504 15.1051 6.21886 14.8869C6.39639 14.6687 6.52028 14.4061 6.59055 14.0991H8.2049C8.14573 14.6502 7.96636 15.1421 7.66679 15.5748C7.36722 16.0075 6.96594 16.3478 6.46296 16.5956C5.96367 16.8434 5.37748 16.9672 4.70437 16.9672Z" fill="black"/>
<path d="M16.043 16.9672C15.2441 16.9672 14.547 16.7842 13.9515 16.418C13.3561 16.0519 12.8938 15.5397 12.5646 14.8814C12.2355 14.223 12.0709 13.4538 12.0709 12.5735C12.0709 11.6896 12.2355 10.9167 12.5646 10.2546C12.8938 9.59264 13.3561 9.07856 13.9515 8.71242C14.547 8.34627 15.2441 8.1632 16.043 8.1632C16.8418 8.1632 17.539 8.34627 18.1344 8.71242C18.7298 9.07856 19.1921 9.59264 19.5213 10.2546C19.8505 10.9167 20.015 11.6896 20.015 12.5735C20.015 13.4538 19.8505 14.223 19.5213 14.8814C19.1921 15.5397 18.7298 16.0519 18.1344 16.418C17.539 16.7842 16.8418 16.9672 16.043 16.9672ZM16.0485 15.5748C16.5663 15.5748 16.9953 15.438 17.3355 15.1643C17.6758 14.8906 17.9273 14.5263 18.09 14.0714C18.2564 13.6165 18.3397 13.1154 18.3397 12.568C18.3397 12.0243 18.2564 11.5251 18.09 11.0701C17.9273 10.6115 17.6758 10.2436 17.3355 9.96617C16.9953 9.68879 16.5663 9.5501 16.0485 9.5501C15.527 9.5501 15.0943 9.68879 14.7504 9.96617C14.4101 10.2436 14.1568 10.6115 13.9903 11.0701C13.8276 11.5251 13.7462 12.0243 13.7462 12.568C13.7462 13.1154 13.8276 13.6165 13.9903 14.0714C14.1568 14.5263 14.4101 14.8906 14.7504 15.1643C15.0943 15.438 15.527 15.5748 16.0485 15.5748Z" fill="black"/>
<path d="M27.1296 16.9672C26.3307 16.9672 25.6336 16.7842 25.0381 16.418C24.4427 16.0519 23.9804 15.5397 23.6512 14.8814C23.3221 14.223 23.1575 13.4538 23.1575 12.5735C23.1575 11.6896 23.3221 10.9167 23.6512 10.2546C23.9804 9.59264 24.4427 9.07856 25.0381 8.71242C25.6336 8.34627 26.3307 8.1632 27.1296 8.1632C27.9284 8.1632 28.6256 8.34627 29.221 8.71242C29.8165 9.07856 30.2788 9.59264 30.6079 10.2546C30.9371 10.9167 31.1017 11.6896 31.1017 12.5735C31.1017 13.4538 30.9371 14.223 30.6079 14.8814C30.2788 15.5397 29.8165 16.0519 29.221 16.418C28.6256 16.7842 27.9284 16.9672 27.1296 16.9672ZM27.1351 15.5748C27.6529 15.5748 28.0819 15.438 28.4222 15.1643C28.7624 14.8906 29.0139 14.5263 29.1766 14.0714C29.3431 13.6165 29.4263 13.1154 29.4263 12.568C29.4263 12.0243 29.3431 11.5251 29.1766 11.0701C29.0139 10.6115 28.7624 10.2436 28.4222 9.96617C28.0819 9.68879 27.6529 9.5501 27.1351 9.5501C26.6136 9.5501 26.1809 9.68879 25.837 9.96617C25.4967 10.2436 25.2434 10.6115 25.077 11.0701C24.9142 11.5251 24.8329 12.0243 24.8329 12.568C24.8329 13.1154 24.9142 13.6165 25.077 14.0714C25.2434 14.5263 25.4967 14.8906 25.837 15.1643C26.1809 15.438 26.6136 15.5748 27.1351 15.5748Z" fill="black"/>
<line x1="19.902" y1="12.9764" x2="23.6891" y2="12.9764" stroke="black" stroke-width="1.51181"/>
</svg>
