<svg width="39" height="38" viewBox="0 0 39 38" fill="none" xmlns="http://www.w3.org/2000/svg">
<path d="M30.3338 4.7522C31.1606 4.7522 31.9535 5.08063 32.5381 5.66525C33.1227 6.24986 33.4512 7.04277 33.4512 7.86955V29.691C33.4512 30.5178 33.1227 31.3107 32.5381 31.8953C31.9535 32.4799 31.1606 32.8083 30.3338 32.8083H8.51237C7.6856 32.8083 6.89269 32.4799 6.30807 31.8953C5.72345 31.3107 5.39502 30.5178 5.39502 29.691V7.86955C5.39502 7.04277 5.72345 6.24986 6.30807 5.66525C6.89269 5.08063 7.6856 4.7522 8.51237 4.7522H30.3338ZM29.5545 28.9117V20.6507C29.5545 19.303 29.0191 18.0106 28.0662 17.0577C27.1133 16.1048 25.8208 15.5694 24.4732 15.5694C23.1483 15.5694 21.6052 16.3799 20.8571 17.5957V15.8656H16.5084V28.9117H20.8571V21.2274C20.8571 20.0272 21.8235 19.0452 23.0236 19.0452C23.6024 19.0452 24.1574 19.2752 24.5666 19.6844C24.9759 20.0936 25.2058 20.6487 25.2058 21.2274V28.9117H29.5545ZM11.4427 13.4184C12.1372 13.4184 12.8032 13.1425 13.2943 12.6515C13.7854 12.1604 14.0613 11.4943 14.0613 10.7999C14.0613 9.35029 12.8922 8.1657 11.4427 8.1657C10.7441 8.1657 10.074 8.44322 9.58005 8.93722C9.08604 9.43122 8.80852 10.1012 8.80852 10.7999C8.80852 12.2494 9.99311 13.4184 11.4427 13.4184ZM13.6092 28.9117V15.8656H9.29171V28.9117H13.6092Z" fill="white"/>
</svg>
