<svg width="39" height="38" viewBox="0 0 39 38" fill="none" xmlns="http://www.w3.org/2000/svg">
<path d="M35.9562 9.4278C34.756 9.97337 33.4622 10.3319 32.1217 10.5033C33.4934 9.6772 34.5533 8.36785 35.0521 6.79352C33.7584 7.57289 32.3243 8.11845 30.8123 8.4302C29.5809 7.08968 27.8507 6.3103 25.8867 6.3103C22.2236 6.3103 19.2308 9.3031 19.2308 12.9973C19.2308 13.5273 19.2932 14.0417 19.4023 14.5249C13.8531 14.2443 8.91191 11.5789 5.62294 7.54172C5.04621 8.52373 4.71887 9.6772 4.71887 10.893C4.71887 13.2156 5.88793 15.2731 7.69608 16.4422C6.58937 16.4422 5.56059 16.1304 4.65652 15.6628V15.7096C4.65652 18.9518 6.96347 21.664 10.0186 22.2719C9.03774 22.5403 8.00798 22.5777 7.01023 22.381C7.4336 23.7098 8.26274 24.8725 9.38111 25.7057C10.4995 26.5389 11.8508 27.0007 13.2452 27.0261C10.8816 28.8973 7.95171 29.9087 4.93709 29.8942C4.40712 29.8942 3.87714 29.863 3.34717 29.8007C6.30879 31.7023 9.83157 32.8091 13.6037 32.8091C25.8867 32.8091 32.6361 22.6148 32.6361 13.7767C32.6361 13.4806 32.6361 13.2 32.6205 12.9038C33.9298 11.9686 35.0521 10.7839 35.9562 9.4278Z" fill="white"/>
</svg>
