<svg width="38" height="38" viewBox="0 0 38 38" fill="none" xmlns="http://www.w3.org/2000/svg">
<path d="M12.6955 3.19263H25.789C30.777 3.19263 34.8298 7.24538 34.8298 12.2334V25.3269C34.8298 27.7246 33.8773 30.0242 32.1818 31.7197C30.4863 33.4151 28.1868 34.3676 25.789 34.3676H12.6955C7.70754 34.3676 3.65479 30.3149 3.65479 25.3269V12.2334C3.65479 9.83562 4.60729 7.53607 6.30276 5.8406C7.99823 4.14513 10.2978 3.19263 12.6955 3.19263ZM12.3838 6.31013C10.8955 6.31013 9.46822 6.90134 8.41586 7.9537C7.3635 9.00606 6.77228 10.4334 6.77228 11.9216V25.6386C6.77228 28.7405 9.28187 31.2501 12.3838 31.2501H26.1008C27.589 31.2501 29.0164 30.6589 30.0687 29.6066C31.1211 28.5542 31.7123 27.1269 31.7123 25.6386V11.9216C31.7123 8.81971 29.2027 6.31013 26.1008 6.31013H12.3838ZM27.4257 8.64825C27.9425 8.64825 28.4381 8.85353 28.8035 9.21894C29.1689 9.58434 29.3742 10.0799 29.3742 10.5967C29.3742 11.1134 29.1689 11.609 28.8035 11.9744C28.4381 12.3398 27.9425 12.5451 27.4257 12.5451C26.909 12.5451 26.4134 12.3398 26.048 11.9744C25.6826 11.609 25.4773 11.1134 25.4773 10.5967C25.4773 10.0799 25.6826 9.58434 26.048 9.21894C26.4134 8.85353 26.909 8.64825 27.4257 8.64825ZM19.2423 10.9864C21.3093 10.9864 23.2917 11.8075 24.7533 13.2691C26.2149 14.7307 27.036 16.7131 27.036 18.7801C27.036 20.8472 26.2149 22.8295 24.7533 24.2911C23.2917 25.7528 21.3093 26.5739 19.2423 26.5739C17.1753 26.5739 15.1929 25.7528 13.7313 24.2911C12.2697 22.8295 11.4485 20.8472 11.4485 18.7801C11.4485 16.7131 12.2697 14.7307 13.7313 13.2691C15.1929 11.8075 17.1753 10.9864 19.2423 10.9864ZM19.2423 14.1039C18.0021 14.1039 16.8126 14.5966 15.9357 15.4735C15.0587 16.3505 14.566 17.5399 14.566 18.7801C14.566 20.0203 15.0587 21.2098 15.9357 22.0867C16.8126 22.9637 18.0021 23.4564 19.2423 23.4564C20.4825 23.4564 21.6719 22.9637 22.5489 22.0867C23.4259 21.2098 23.9185 20.0203 23.9185 18.7801C23.9185 17.5399 23.4259 16.3505 22.5489 15.4735C21.6719 14.5966 20.4825 14.1039 19.2423 14.1039Z" fill="white"/>
</svg>
