<svg width="43" height="43" viewBox="0 0 43 43" fill="none" xmlns="http://www.w3.org/2000/svg">
<path d="M42.4051 21.727C42.4051 10.1205 32.9944 0.710693 21.387 0.710693C9.77955 0.710693 0.368896 10.1205 0.368896 21.727C0.368896 33.3335 9.77955 42.7433 21.387 42.7433C32.9944 42.7433 42.4051 33.3335 42.4051 21.727ZM20.9171 30.958C20.7663 30.8085 20.6465 30.6307 20.5645 30.4349C20.4824 30.239 20.4397 30.029 20.4389 29.8166C20.438 29.6043 20.479 29.3939 20.5595 29.1974C20.64 29.0009 20.7584 28.8222 20.908 28.6715L26.1949 23.3436H12.6968C12.268 23.3436 11.8568 23.1733 11.5536 22.8701C11.2504 22.567 11.08 22.1558 11.08 21.727C11.08 21.2982 11.2504 20.887 11.5536 20.5839C11.8568 20.2807 12.268 20.1104 12.6968 20.1104H26.1949L20.908 14.7825C20.7585 14.6317 20.6401 14.4528 20.5597 14.2562C20.4792 14.0596 20.4383 13.8491 20.4393 13.6367C20.4402 13.4242 20.483 13.2141 20.5651 13.0182C20.6473 12.8223 20.7673 12.6445 20.9181 12.495C21.069 12.3454 21.2479 12.2271 21.4445 12.1467C21.6411 12.0662 21.8517 12.0253 22.0641 12.0263C22.4931 12.0282 22.9038 12.2004 23.2059 12.5051L31.2281 20.5883C31.5286 20.8911 31.6973 21.3004 31.6973 21.727C31.6973 22.1536 31.5286 22.5629 31.2281 22.8657L23.2059 30.9489C23.0563 31.1 22.8784 31.2201 22.6824 31.3023C22.4863 31.3845 22.276 31.4273 22.0634 31.4281C21.8508 31.429 21.6401 31.3879 21.4434 31.3072C21.2467 31.2265 21.0679 31.1079 20.9171 30.958Z" fill="#FECD06"/>
</svg>
