<svg width="73" height="39" viewBox="0 0 73 39" fill="none" xmlns="http://www.w3.org/2000/svg">
<path fill-rule="evenodd" clip-rule="evenodd" d="M61.3708 10.1731C60.2833 10.1731 59.377 9.28827 59.377 8.22642C59.377 7.16463 60.2833 6.27979 61.3708 6.27979C62.4585 6.27979 63.3647 7.16463 63.3647 8.22642C63.3647 9.28827 62.4585 10.1731 61.3708 10.1731Z" fill="#D8D6D6"/>
<path fill-rule="evenodd" clip-rule="evenodd" d="M29.7109 14.8346C28.0191 14.8346 26.4481 17.9025 26.2668 21.7372C26.0856 24.569 26.6898 27.1649 27.7774 28.3448C28.1399 28.7578 28.5629 28.9348 28.9858 28.9938H29.0463C30.7381 28.9938 32.309 25.9259 32.4902 22.0912C32.6715 19.2594 32.0673 16.6635 30.9193 15.4836C30.5568 15.0706 30.1338 14.8937 29.7109 14.8346C29.7713 14.8346 29.7109 14.8346 29.7109 14.8346ZM54.6649 36.7813L54.7858 36.6633C57.3839 34.3035 59.3174 32.0026 61.13 29.2297C63.0635 25.69 63.7281 22.3862 63.2448 19.0824C63.1239 18.5514 62.9426 18.5514 62.8822 18.5514C62.6405 18.5514 62.278 18.7874 61.9155 19.0824C57.7464 23.1532 55.5712 27.4009 55.0274 32.3566V32.4746L52.4293 33.0646V32.8876C52.3085 26.6339 52.7314 20.4983 53.819 14.0677H48.9853L48.9249 18.3154L46.3268 18.2564L46.1455 15.4836C45.8434 14.8937 45.4205 14.6576 44.9371 14.6576C44.6954 14.6576 44.3933 14.7167 44.0912 14.8937C42.5807 15.7196 41.7952 17.6075 41.6139 21.2063C41.4327 24.1561 41.493 26.28 42.5202 27.3419C43.0036 27.8139 43.6078 28.0498 44.3933 28.0498C44.6954 28.0498 44.9975 28.0498 45.2996 27.9909C46.5685 27.4009 47.5352 26.2209 48.3207 24.274L48.3811 24.1561L49.7103 24.0381L49.65 24.2151C48.8644 28.4038 46.8705 30.3507 43.2453 30.3507C42.8223 30.3507 42.3994 30.3507 41.916 30.2917C38.5928 29.5247 37.5052 26.103 38.6532 20.3803C39.2575 17.4895 40.4055 15.4836 42.2181 14.1267H33.8195C35.028 15.7196 35.6322 17.9025 35.6322 20.6163C35.2697 26.2209 33.3362 29.2888 29.6504 30.2917C29.1067 30.4097 28.5629 30.5277 27.9586 30.5277C27.2336 30.5277 26.3877 30.4097 25.6022 30.1737C24.1521 29.5247 23.2458 28.3448 23.0041 26.8109C22.4603 23.1532 22.7624 21.4422 23.9708 17.9614C24.6959 15.8966 26.0252 14.7757 27.2336 14.0677H17.9287L18.0495 18.3154H16.2369V18.1384C16.3578 17.1355 16.1765 16.3095 15.6327 15.7196C15.1493 15.1886 14.3638 14.8346 13.4576 14.8346C12.7324 14.8346 12.0678 15.0706 11.7053 15.3656C10.8594 15.7786 10.376 16.8995 10.4365 18.0205C10.5573 19.5544 11.6449 20.7343 13.4576 21.3243C16.4181 22.4452 18.4725 24.274 19.6809 26.9289C20.829 30.7047 19.2579 33.9495 15.5722 35.1884C14.9076 35.3064 14.243 35.3654 13.6388 35.3654C13.0346 35.3654 12.3699 35.3064 11.7657 35.1884C10.376 34.9524 9.10717 34.4804 7.95918 33.8315L7.89875 33.7725V27.9319H9.71142V28.1089C9.4697 31.2947 10.3156 33.0646 12.2491 33.5365C12.6116 33.5955 12.9742 33.6545 13.3367 33.6545C14.8472 33.6545 16.1161 33.1235 16.9015 32.1796C17.5058 31.4127 17.687 30.4097 17.3849 29.3478C16.9015 27.6959 15.4515 26.339 12.672 25.1C9.89265 23.9791 8.20084 22.1502 7.83832 19.8494C7.65709 17.3125 8.38213 15.5426 10.1947 14.2447H0.527344L3.18588 11.8258H54.3024C54.6649 8.40401 55.4504 4.68727 56.8401 0.439526L56.9005 0.321533H61.1905V1.79645H61.0696C58.834 3.27135 57.5047 6.63417 57.0817 11.8258H72.3683L69.7706 14.1267H56.7797L56.0546 24.6871C58.0485 21.0293 60.2841 18.1384 62.701 16.0736L62.7614 16.0145H66.3867V16.1326C67.7156 25.395 64.7553 29.8197 61.3113 33.2415L56.0546 38.1382L54.6649 36.7813Z" fill="#D8D6D6"/>
<path fill-rule="evenodd" clip-rule="evenodd" d="M63.1854 0.203171C62.7021 0.203171 62.3395 0.557069 62.3395 1.02893C62.3395 1.50079 62.7021 1.8547 63.1854 1.8547C63.6688 1.8547 64.0314 1.50079 64.0314 1.02893C64.0314 0.557069 63.6688 0.203171 63.1854 0.203171ZM63.1854 1.97266C62.6417 1.97266 62.2188 1.55978 62.2188 1.02893C62.2188 0.498086 62.6417 0.0852051 63.1854 0.0852051C63.7293 0.0852051 64.1522 0.498086 64.1522 1.02893C64.2126 1.55978 63.7293 1.97266 63.1854 1.97266Z" fill="#D8D6D6"/>
<path fill-rule="evenodd" clip-rule="evenodd" d="M62.9409 0.91059H63.1221C63.243 0.91059 63.3034 0.91059 63.3034 0.91059C63.3034 0.91059 63.3638 0.91059 63.3638 0.851665V0.79274C63.3638 0.733822 63.3638 0.733822 63.3638 0.733822L63.3034 0.674897C63.3034 0.674897 63.243 0.674897 63.1221 0.674897H62.9409V0.91059ZM62.6992 1.55873V0.439209H63.1825C63.3034 0.439209 63.3638 0.439209 63.4243 0.439209C63.4847 0.439209 63.5451 0.498131 63.5451 0.557054C63.6055 0.615976 63.6055 0.674897 63.6055 0.733822C63.6055 0.79274 63.6055 0.851665 63.5451 0.91059C63.4847 0.969509 63.4243 0.969509 63.3034 1.02843C63.3638 1.02843 63.3638 1.08735 63.4243 1.14628C63.4847 1.2052 63.4847 1.26412 63.5451 1.32305L63.6659 1.55873H63.4243L63.243 1.32305C63.1825 1.26412 63.1221 1.2052 63.1221 1.14628L63.0617 1.08735C63.0617 1.08735 63.0013 1.08735 62.9409 1.08735H62.8804V1.55873H62.6992Z" fill="#D8D6D6"/>
</svg>
