<svg width="130" height="51" viewBox="0 0 130 51" fill="none" xmlns="http://www.w3.org/2000/svg">
<path d="M0.759766 28.3232C4.16127 18.8987 15.0794 12.7685 24.6107 14.9432C25.5003 15.1463 26.5376 15.265 26.4314 16.5575C18.3303 15.6107 11.7534 18.5853 6.11051 23.7578C1.94043 27.5802 1.21051 31.8635 4.11504 36.6183C8.79798 44.2844 15.8975 48.404 25.1008 48.3625C31.9447 48.3316 36.8067 44.9242 39.4263 38.6988C41.9426 32.719 42.2839 26.4328 42.1293 20.0778C42.0311 16.0443 41.8649 12.0065 41.9617 7.97584C42.0347 4.93692 43.0221 2.22437 46.2672 0.919922C46.8693 0.919922 47.471 0.919922 48.0731 0.919922C49.6572 1.61448 51.1676 2.37825 51.5555 4.49952C50.5619 4.2009 49.7254 3.94303 48.885 3.69851C46.6797 3.05735 45.109 3.69219 44.5723 5.84437C44.0688 7.86411 43.8344 9.98714 43.7994 12.0694C43.7022 17.8483 43.9081 23.6335 43.7282 29.4085C43.5967 33.6236 42.6602 37.7305 40.871 41.6295C38.536 46.718 34.5808 49.5914 28.8848 50.2048C28.5338 50.2428 28.1932 50.3703 27.8475 50.456C26.8843 50.456 25.9214 50.456 24.9582 50.456C24.4442 50.3475 23.9346 50.2122 23.416 50.1339C14.317 48.7542 7.04051 44.7281 2.76895 36.4865C1.896 34.8019 1.41926 32.9231 0.759766 31.1334C0.759766 30.1968 0.759766 29.2602 0.759766 28.3232Z" fill="#D8D6D6"/>
<path d="M129.695 24.1074C129.262 25.9978 127.826 26.4517 126.161 26.1763C124.702 25.9349 123.222 25.526 121.895 24.9031C120.774 24.3772 119.891 24.3519 118.908 25.0156C118.367 25.3813 117.796 25.7094 117.224 26.0284C114.65 27.4625 112.525 26.7721 111.553 24.0181C111.114 22.7738 110.899 21.3945 110.897 20.0763C110.894 17.3336 111.146 14.5915 111.206 11.8474C111.26 9.43275 111.071 7.04483 109.354 4.81079C111.181 5.0251 112.222 6.00176 112.367 7.43796C112.612 9.85785 112.524 12.3101 112.569 14.7486C112.617 17.3034 112.451 19.8831 112.766 22.4059C113.009 24.3494 113.941 24.8803 115.654 23.8871C118.556 22.2046 121.219 22.4488 124.15 23.6148C125.992 24.3481 127.926 23.9992 129.695 23.0534C129.695 23.4047 129.695 23.7561 129.695 24.1074Z" fill="#D8D6D6"/>
<path d="M49.8575 21.5107C49.9182 20.6008 50.1143 19.7102 50.3776 18.9598C51.3776 16.1074 53.7086 15.4975 56.1194 17.396C58.5606 19.3188 59.0655 23.3899 57.1127 25.4058C55.8905 26.6677 53.6566 27.2256 52.1437 26.5019C50.2443 25.593 49.7246 23.5051 49.8575 21.5107ZM56.0057 21.2841C56.0234 19.6206 55.2165 18.2202 54.1059 18.0769C53.0907 17.9462 52.6587 18.6179 52.3022 19.4196C51.8436 20.4515 51.3274 21.5107 51.3285 22.6602C51.3293 23.4848 51.6438 24.5549 52.5832 24.7723C53.9011 25.0773 55.4065 23.8793 55.867 22.141C55.9555 21.8058 55.979 21.4548 56.0057 21.2841Z" fill="#D8D6D6"/>
<path d="M105.712 25.2666C105.41 24.2074 104.805 23.2307 104.491 22.1733C104.336 21.6519 104.358 20.9443 104.605 20.4711C105.547 18.6618 105.397 16.8195 103.759 15.5737C103.369 15.2775 102.912 15.0854 102.456 14.9083C101.98 14.7232 101.308 14.4309 100.913 14.9276C100.617 15.3007 100.512 15.911 100.418 16.3642C100.324 16.8153 100.183 17.3064 100.346 17.7568C100.859 19.1688 100.115 19.9181 98.8234 20.104C96.3386 20.462 93.8331 20.6907 91.3324 20.9366C90.2835 21.0399 89.3615 20.893 88.7128 19.8556C88.1389 18.9376 87.3776 18.9141 86.4746 19.6954C85.6309 20.4254 84.5922 20.9426 83.4968 21.6449C83.067 20.17 82.8138 19.0929 82.4382 18.0575C81.752 16.1671 80.26 15.0387 78.7236 15.3566C76.943 15.7251 76.567 17.2435 76.286 18.6927C76.1437 19.4266 76.0989 20.2463 76.2875 20.9577C76.589 22.0963 77.1214 23.1773 77.5577 24.2871C74.2747 24.8015 73.0933 23.8143 73.3974 20.6506C73.5534 19.0279 74.0215 17.4357 74.2581 15.8175C74.4094 14.7829 74.6322 13.6639 74.3704 12.6992C74.197 12.0605 73.2215 11.628 72.605 11.1035C72.2398 11.5943 71.7288 12.0377 71.541 12.5861C71.1888 13.6148 71.0234 14.7042 70.7861 15.7445C65.6943 15.2308 62.4207 18.0713 62.6739 22.5959C62.8613 25.9517 65.0359 27.3015 68.2052 25.9429C69.4516 25.4086 70.5987 24.6553 71.8772 23.9545C74.2342 26.6779 77.2388 26.6009 80.2596 25.4317C82.5332 24.5517 84.6381 23.2634 86.8358 22.1912C87.275 21.9769 87.9522 21.6582 88.2516 21.83C90.4027 23.0642 92.6723 22.6563 94.9423 22.4807C96.3628 22.3707 97.7883 22.3187 99.3514 22.2333C99.2185 22.7449 99.1373 23.0143 99.0788 23.2887C98.4536 26.2293 100.721 28.5023 103.768 27.9925C105.34 27.729 106.127 26.7186 105.712 25.2666ZM70.5958 20.5993C70.3079 21.9386 69.2663 23.0804 68.0687 23.7468C67.4623 24.0844 66.7804 24.3181 66.0797 24.3599C65.5029 24.3943 64.9023 24.2264 64.5332 23.7714C64.4292 23.6432 64.354 23.5093 64.3031 23.372C64.0604 22.7192 64.3544 21.9821 64.6141 21.3456C64.8644 20.7311 65.2021 20.143 65.6738 19.6624C66.52 18.8002 67.709 18.3555 68.9301 18.4205C70.4538 18.5016 70.8923 19.2194 70.5958 20.5993ZM81.0239 20.8435C80.6779 21.3603 80.0823 22.0053 79.4362 22.1522C79.205 22.2045 78.9096 22.0559 78.7239 21.9417C78.3144 21.6906 77.9337 21.2472 77.8239 20.7813C77.548 19.6111 79.0316 17.8745 79.8544 18.2062C80.2228 18.3548 80.463 18.6931 80.6858 18.9977C81.0246 19.4607 81.3016 19.7766 81.2843 20.1764C81.2752 20.3699 81.1976 20.5835 81.0239 20.8435ZM102.517 16.0824C103.106 16.0824 103.583 16.6723 103.583 17.3999C103.583 18.1275 103.106 18.717 102.517 18.717C101.928 18.717 101.451 18.1271 101.451 17.3999C101.451 16.6719 101.928 16.0824 102.517 16.0824ZM102.517 26.1059C101.756 26.1059 101.14 25.3439 101.14 24.4041C101.14 23.4644 101.756 22.7023 102.517 22.7023C103.278 22.7023 103.894 23.4644 103.894 24.4041C103.894 25.3439 103.278 26.1059 102.517 26.1059Z" fill="#D8D6D6"/>
<path d="M128.189 10.1422C128.634 10.1422 128.995 9.351 128.995 8.37496C128.995 7.39891 128.634 6.60767 128.189 6.60767C127.744 6.60767 127.383 7.39891 127.383 8.37496C127.383 9.351 127.744 10.1422 128.189 10.1422Z" fill="#D8D6D6"/>
</svg>
