<svg width="93" height="23" viewBox="0 0 93 23" fill="none" xmlns="http://www.w3.org/2000/svg">
<path d="M69.8652 0.528198C77.5202 0.528198 85.1697 0.528198 92.8504 0.528198C92.8504 7.99069 92.8504 15.4426 92.8504 22.9218C85.1945 22.9218 77.5466 22.9218 69.8652 22.9218C69.8652 15.4619 69.8652 8.00864 69.8652 0.528198Z" fill="#D8D6D6"/>
<path d="M23.6207 0.523253C23.6207 8.01372 23.6207 15.4555 23.6207 22.9141C23.5455 22.9271 23.4896 22.9453 23.4337 22.9453C19.5537 22.944 15.6728 22.9927 11.794 22.9256C6.86279 22.8402 2.59632 19.6681 1.1151 15.1019C-0.933894 8.78531 3.12934 2.04161 9.78437 0.751352C10.5981 0.593565 11.4411 0.517503 12.2714 0.511753C15.9274 0.486399 19.5837 0.500513 23.2399 0.501559C23.357 0.501646 23.4739 0.51454 23.6207 0.523253Z" fill="#D8D6D6"/>
<path d="M56.0877 0.556274C62.4401 0.615782 67.5914 5.48225 67.5822 11.7666C67.5729 18.1704 62.2978 22.9187 56.1133 22.9452C49.7707 22.9725 44.6025 17.9503 44.5977 11.7695C44.5929 5.5936 49.7468 0.563854 56.0877 0.556274Z" fill="#D8D6D6"/>
<path d="M48.6707 22.923C41.019 22.923 33.3974 22.923 25.75 22.923C25.75 15.4739 25.75 8.05022 25.75 0.694458C33.366 8.08046 41.007 15.4908 48.6707 22.923Z" fill="#D8D6D6"/>
</svg>
