<svg width="68" height="39" viewBox="0 0 68 39" fill="none" xmlns="http://www.w3.org/2000/svg">
<path d="M63.6937 18.9555C63.8074 15.3928 60.9645 12.4982 57.4394 12.3868C53.8005 12.2755 50.7302 15.0588 50.6165 18.5101C50.5028 22.1841 53.3457 25.1901 57.0982 25.3014C60.6234 25.3014 63.58 22.5181 63.6937 18.9555ZM67.6737 28.9754H63.8074V26.8601C63.58 26.9714 63.3526 27.0827 63.2388 27.1941C56.7571 31.5361 48.2285 27.8621 46.9776 20.2914C46.0679 14.8361 50.2754 9.38084 55.8474 8.71285C62.3291 7.93352 67.6737 12.6095 67.6737 18.9555V28.9754ZM21.5055 23.6314C21.733 23.1861 21.8467 22.9634 21.9604 22.6294C23.8935 18.0648 25.9404 13.6115 27.8736 9.04684C28.101 8.60151 28.3284 8.37885 28.7833 8.49018C30.0341 8.49018 31.1713 8.49018 32.5359 8.49018C32.4222 8.71285 32.4222 8.93551 32.3084 9.15818C27.9873 18.8441 23.7798 28.4187 19.4587 38.1047C19.2312 38.55 19.1175 38.6613 18.549 38.6613C17.2981 38.6613 16.0472 38.6613 14.7964 38.6613C14.9101 38.4387 15.0238 38.216 15.0238 37.9933C16.3884 35.0987 17.753 32.0927 19.1175 29.1981C19.345 28.7527 19.345 28.4187 19.1175 27.9734C16.5021 21.7388 14.0004 15.5041 11.3849 9.26951C11.3849 9.04684 11.2712 8.93551 11.1575 8.60151C12.5221 8.60151 13.7729 8.60151 15.1375 8.60151C15.3649 8.60151 15.5924 8.93551 15.5924 9.15818C17.1844 13.0548 18.7764 16.9515 20.3684 20.8481C20.7095 21.7388 21.0507 22.6294 21.5055 23.6314ZM0.582031 0.919556H4.44833V20.9594C4.44833 23.8541 5.58548 24.9674 8.42835 25.1901C9.22435 25.1901 9.90664 25.1901 10.8164 25.1901V28.9754C8.31463 29.0867 5.69919 29.1981 3.4249 27.8621C1.60546 26.8601 0.582031 25.1901 0.582031 23.1861C0.582031 15.7268 0.582031 8.37885 0.582031 0.919556ZM34.9239 8.60151H38.7902V12.2755C40.837 9.60351 43.3388 8.49018 46.5228 8.60151V12.2755C46.4091 12.2755 46.2953 12.3868 46.0679 12.3868C42.429 12.1642 39.9273 14.6135 39.0176 17.9535C38.7902 18.8441 38.6765 19.7348 38.6765 20.7368C38.6765 23.4088 38.6765 26.1921 38.6765 28.8641C38.6765 28.8641 38.6765 28.9754 38.6765 29.0867H34.9239V8.60151Z" fill="#D8D6D6"/>
</svg>
