<svg width="93" height="31" viewBox="0 0 93 31" fill="none" xmlns="http://www.w3.org/2000/svg">
<path d="M63.495 30.7973C54.9483 30.9343 48.0726 24.4398 47.9528 16.1168C47.8318 7.71563 54.4037 1.05155 62.9409 0.917908C71.6525 0.781617 78.5536 7.18129 78.6856 15.5182C78.8197 24.008 72.2087 30.6576 63.495 30.7973ZM73.7903 15.8823C73.7952 9.9601 69.4312 5.65657 63.4014 5.6373C57.3688 5.61804 52.787 10.0434 52.8028 15.8736C52.8187 21.6561 57.3624 26.0543 63.3313 26.0644C69.3649 26.075 73.7853 21.7715 73.7903 15.8823Z" fill="#D8D6D6"/>
<path d="M0.582031 6.61011C3.39815 6.76976 6.1467 6.81912 8.86603 7.11988C10.5125 7.30192 11.851 8.23453 12.6597 9.72627C13.7408 11.7198 13.3155 13.5092 11.3076 15.4045C13.288 16.5057 14.3651 18.0928 13.9153 20.3642C13.436 22.785 11.7151 24.2054 9.36905 24.5346C6.50193 24.9367 3.57342 24.9242 0.582031 25.0962C0.582031 18.8751 0.582031 12.9255 0.582031 6.61011ZM4.89979 21.5478C5.94569 21.4738 6.84058 21.4536 7.72235 21.3373C8.79894 21.1952 9.42599 20.5935 9.39752 19.4812C9.36955 18.3832 8.81751 17.6088 7.6976 17.4513C6.79404 17.3244 5.85632 17.4255 4.89979 17.4255C4.89979 18.8007 4.89979 20.0654 4.89979 21.5478ZM4.92058 14.0289C6.39004 13.954 7.83647 14.1548 8.61278 12.8631C8.88954 12.4027 8.81974 11.4196 8.48183 10.9979C7.58372 9.87653 6.21329 10.2618 4.92058 10.2283C4.92058 11.5284 4.92058 12.7021 4.92058 14.0289Z" fill="#D8D6D6"/>
<path d="M46.5371 24.9344C44.6876 24.9344 43.0951 24.9734 41.5081 24.9007C41.2016 24.8868 40.8484 24.4817 40.6323 24.1791C39.1804 22.1453 37.7597 20.0901 36.0808 18.077C36.0808 20.3183 36.0808 22.5595 36.0808 24.8704C34.5586 24.8704 33.2147 24.8704 31.7715 24.8704C31.7715 18.8856 31.7715 12.9013 31.7715 6.63477C34.574 6.76937 37.381 6.69665 40.1154 7.09445C42.7946 7.48406 44.4473 9.31364 44.748 11.4787C45.0891 13.935 44.0544 15.721 41.4801 17.1249C41.3442 17.1991 41.2187 17.2913 40.9942 17.4358C42.8127 19.8958 44.5992 22.3126 46.5371 24.9344ZM36.1038 14.2938C37.558 14.3622 39.0368 14.5922 39.8584 13.2724C40.1753 12.7633 40.0939 11.7014 39.7416 11.1801C38.8969 9.9296 37.477 10.2036 36.1036 10.3014C36.1038 11.6306 36.1038 12.8938 36.1038 14.2938Z" fill="#D8D6D6"/>
<path d="M27.3893 13.795C27.3893 15.0616 27.3893 16.1269 27.3893 17.3205C25.4111 17.3205 23.4884 17.3205 21.4713 17.3205C21.4713 18.7424 21.4713 20.0376 21.4713 21.4557C23.5931 21.4557 25.6752 21.4557 27.84 21.4557C27.84 22.6359 27.84 23.6959 27.84 24.8505C24.3031 24.8505 20.7794 24.8505 17.1523 24.8505C17.1523 18.8902 17.1523 12.904 17.1523 6.83374C20.6903 6.83374 24.2159 6.83374 27.8334 6.83374C27.8334 7.89734 27.8334 8.95854 27.8334 10.1563C25.7705 10.1563 23.6899 10.1563 21.4924 10.1563C21.4924 11.4159 21.4924 12.5452 21.4924 13.7947C23.4218 13.795 25.3405 13.795 27.3893 13.795Z" fill="#D8D6D6"/>
<path d="M81.9531 6.8129C82.3002 6.78979 82.5802 6.75535 82.8601 6.75487C86.0733 6.75102 89.2868 6.75246 92.6114 6.75246C92.6114 7.92418 92.6114 9.01187 92.6114 10.1976C90.5206 10.1976 88.4689 10.1976 86.3065 10.1976C86.3065 11.4186 86.3065 12.5477 86.3065 13.7977C88.2453 13.7977 90.1661 13.7977 92.1841 13.7977C92.1841 15.0053 92.1841 16.0971 92.1841 17.316C90.2319 17.316 88.3089 17.316 86.2914 17.316C86.2914 18.7326 86.2914 20.0262 86.2914 21.4553C88.4072 21.4553 90.4891 21.4553 92.646 21.4553C92.646 22.6521 92.646 23.7152 92.646 24.8614C89.0798 24.8614 85.5579 24.8614 81.9531 24.8614C81.9531 18.8795 81.9531 12.9195 81.9531 6.8129Z" fill="#D8D6D6"/>
</svg>
