<svg width="95" height="22" viewBox="0 0 95 22" fill="none" xmlns="http://www.w3.org/2000/svg">
<path d="M22.8762 0.836277C24.9366 0.836277 26.9971 0.836277 29.2347 0.836277C29.2347 1.11511 29.2347 1.47889 29.2347 1.84267C29.2347 5.66727 29.2347 9.49208 29.2349 13.3167C29.2349 13.6295 29.2322 13.9426 29.2375 14.2555C29.2967 17.7806 31.9734 19.2559 35.1601 17.5174C36.5736 16.7462 37.4612 15.8007 37.3606 13.9871C37.1877 10.8668 37.3155 7.73099 37.3117 4.6016C37.3087 2.18475 37.0617 1.90048 34.656 1.40897C34.4533 1.36744 34.2793 1.19233 34.092 1.07942C34.2945 0.953358 34.4956 0.720235 34.6998 0.717521C36.7663 0.690389 38.8333 0.701031 41.026 0.701031C41.026 1.15748 41.026 1.5296 41.026 1.90152C41.026 6.35204 41.0253 10.8026 41.0262 15.2531C41.0268 17.6493 41.1088 17.7447 43.5125 18.2481C43.603 18.2671 43.6777 18.3578 44.033 18.6058C41.8095 19.3354 39.7804 20.0012 37.5975 20.7175C37.5975 19.4876 37.5975 18.3704 37.5975 17.0895C36.6073 17.9559 35.8196 18.7481 34.9268 19.4054C32.9239 20.8795 30.7268 21.2727 28.3958 20.1874C26.4963 19.3031 25.6061 17.7396 25.5831 15.7408C25.5406 12.021 25.5642 8.30034 25.5535 4.5801C25.5522 4.09422 25.5522 3.60292 25.4806 3.12393C25.3392 2.17639 24.8454 1.52105 23.798 1.36639C23.4699 1.31797 23.1523 1.20235 22.8301 1.11762C22.8457 1.02391 22.861 0.930196 22.8762 0.836277Z" fill="#D8D6D6"/>
<path d="M45.7893 10.6602C45.7584 5.90224 48.7771 1.89878 53.2178 0.876314C59.524 -0.575677 65.1887 3.76297 65.2792 10.0731C65.3208 12.9712 64.5379 15.5713 62.5579 17.7649C60.0392 20.5551 56.8175 21.3524 53.2268 20.4689C49.4261 19.5339 47.1696 16.9699 46.1858 13.3365C45.9515 12.4705 45.9161 11.5535 45.7893 10.6602ZM49.863 9.35555C49.8514 9.65797 49.8484 9.95914 49.8552 10.2574C49.899 12.1667 50.3496 14.0686 51.1866 15.7969C51.2201 15.866 51.2542 15.9349 51.2889 16.0036C51.8028 17.0183 52.4746 17.998 53.4019 18.6982C54.4202 19.4671 55.6851 19.7119 56.9525 19.5612C58.7657 19.3454 59.8512 18.2011 60.4232 16.6727C62.1372 12.0938 61.6342 7.67148 58.749 3.70287C57.0542 1.37159 53.5543 1.13512 51.5964 3.29422C50.762 4.21442 50.3811 5.42889 50.1702 6.61602C50.0117 7.50847 49.8979 8.43786 49.863 9.35555Z" fill="#D8D6D6"/>
<path d="M9.54705 1.10058C9.31382 1.20994 9.09132 1.35875 8.84543 1.42241C7.39435 1.79788 7.10062 2.25537 7.67671 3.67751C8.68301 6.16199 9.76783 8.6162 10.8271 11.0802C11.3564 12.3114 11.9027 13.5359 12.5586 15.0311C14.1198 11.1076 15.612 7.47852 16.9992 3.81192C17.5809 2.27456 17.2165 1.80184 15.5702 1.3671C15.396 1.32118 15.2475 1.18343 15.1254 0.886858C17.1337 0.886858 19.1418 0.886858 21.2147 0.886858C21.1711 1.02941 21.1565 1.24626 21.0932 1.26066C19.5756 1.60566 19.1115 2.84727 18.6189 4.03336C16.4278 9.30766 14.2592 14.5909 12.0765 19.8686C11.9364 20.2071 11.745 20.5254 11.4215 21.1582C10.9846 20.3968 10.6347 19.9038 10.4019 19.3633C8.22471 14.309 6.06085 9.24921 3.90902 4.18467C3.34387 2.85457 2.66071 1.67516 1.03605 1.37482C0.912891 1.35207 0.824915 1.14983 0.582031 0.873291C3.65004 0.873291 6.53439 0.873291 9.41852 0.873291C9.46122 0.948844 9.50414 1.02482 9.54705 1.10058Z" fill="#D8D6D6"/>
<path d="M78.3373 20.6059C78.0616 20.6314 77.7861 20.6784 77.5104 20.6788C74.5096 20.684 71.5087 20.6913 68.5081 20.6677C68.2143 20.6654 67.9225 20.4617 67.6297 20.3515C67.8953 20.209 68.1448 19.9942 68.4289 19.9354C70.4145 19.5225 70.8509 19.0339 70.8584 17.0262C70.8708 13.725 70.8622 10.4236 70.8603 7.12248C70.8601 6.84469 70.8474 6.56669 70.8335 6.28911C70.7101 3.85096 70.1205 3.34401 67.5059 3.62869C67.6923 3.33107 67.7704 3.02239 67.9412 2.96186C70.0737 2.20738 72.2196 1.48879 74.4763 0.722412C74.4763 2.04479 74.4763 3.27472 74.4763 4.71482C75.3938 3.71719 76.1293 2.85103 76.9384 2.05585C77.7909 1.21788 78.8038 0.663138 80.0858 0.766449C81.657 0.893345 82.6354 2.27646 82.1872 3.7464C81.7858 5.06336 80.392 5.49247 79.2003 4.66598C77.292 3.34297 76.3833 3.49867 75.1968 5.49748C74.8569 6.07018 74.6576 6.8017 74.6458 7.46477C74.5896 10.5912 74.6025 13.7194 74.6274 16.8467C74.6445 18.9945 75.3964 19.7429 77.6162 19.9829C77.8951 20.013 78.1601 20.1643 78.4317 20.2595C78.4 20.3749 78.3687 20.4905 78.3373 20.6059Z" fill="#D8D6D6"/>
<path d="M83.5916 3.29133C83.7988 3.07615 83.967 2.74473 84.2198 2.66437C86.2826 2.0084 88.3613 1.39918 90.5807 0.731934C90.6051 1.17085 90.642 1.52712 90.6423 1.88338C90.6461 6.50546 90.6444 11.1273 90.6457 15.7494C90.6459 16.2011 90.6433 16.6535 90.6669 17.1044C90.7809 19.2745 91.1171 19.6276 93.3318 19.9971C93.5818 20.0388 93.8128 20.188 94.0527 20.2876C94.0268 20.3723 94.0008 20.4571 93.9746 20.5418C90.4839 20.5418 86.9934 20.5418 83.5027 20.5418C83.4751 20.46 83.4476 20.378 83.4199 20.2961C83.6849 20.1864 83.94 20.0225 84.2162 19.9754C86.6276 19.5644 86.9325 19.234 86.9383 16.8405C86.9473 13.1222 86.9437 9.4036 86.9396 5.68523C86.9372 3.47166 86.4969 3.11205 84.2977 3.49232C84.1316 3.52112 83.9595 3.51632 83.7902 3.52697C83.7242 3.44849 83.6579 3.3698 83.5916 3.29133Z" fill="#D8D6D6"/>
</svg>
