<svg width="360" height="140" viewBox="0 0 360 140" fill="none" xmlns="http://www.w3.org/2000/svg">
<path d="M2.19666 134.326C2.19666 127.896 5.70931 118.783 9.33334 113.709" stroke="#848484" stroke-width="1.59222" stroke-linecap="round"/>
<path d="M2.19241 133.534C-3.5998 134.361 13.2939 137.234 18.8447 139.084" stroke="#848484" stroke-width="1.59222" stroke-linecap="round"/>
<path d="M3.77771 131.947C4.56516 128.404 15.1021 123.27 17.6105 121.639C47.9443 101.908 82.6338 86.7314 116.555 74.5014C166.498 56.4946 219.01 46.0624 271.007 35.9985" stroke="#848484" stroke-width="1.59222" stroke-linecap="round"/>
<path d="M273.243 25.8214C271.879 23.2651 274.528 31.9332 274.73 33.0086C275.911 39.3064 277.394 45.5273 278.447 51.844" stroke="#848484" stroke-width="2.0787" stroke-linecap="round"/>
<path d="M271.009 25.8215C277.159 17.6213 284.783 33.4758 274.727 35.487" stroke="#848484" stroke-width="2.0787" stroke-linecap="round"/>
<path d="M286.618 23.5908C286.388 21.7529 283.657 24.2325 283.355 25.0778C282.848 26.4976 286.167 28.4562 287.196 29.2084C291.554 32.393 284.387 35.805 284.387 32.5128" stroke="#848484" stroke-width="2.0787" stroke-linecap="round"/>
<path d="M294.058 20.6169C292.635 18.0872 286.188 23.052 293.273 26.1518C296.083 27.3811 295.547 28.5971 293.355 30.2411C291.243 31.8258 290.506 30.3651 288.853 29.5389" stroke="#848484" stroke-width="2.0787" stroke-linecap="round"/>
<path d="M298.518 6.49097C298.518 4.63933 298.518 6.1482 298.518 6.98663C298.518 11.0409 298.912 14.7724 299.592 18.7588C299.823 20.1133 301.37 30.5284 302.236 28.796" stroke="#848484" stroke-width="2.0787" stroke-linecap="round"/>
<path d="M293.311 16.8994C290.199 15.7326 303.257 10.0676 304.463 9.46436" stroke="#848484" stroke-width="2.0787" stroke-linecap="round"/>
<path d="M307.442 2.773C307.442 1.44426 307.452 1.48165 307.07 2.85562C306.098 6.35535 307.442 10.7154 307.442 14.3386C307.442 17.1416 307.302 24.2647 310.416 25.8216" stroke="#848484" stroke-width="2.0787" stroke-linecap="round"/>
<path d="M309.67 33.2565C310.617 34.4743 309.217 34.647 309.835 33.2565C310.243 32.3389 310.838 31.9289 309.67 32.513" stroke="#848484" stroke-width="2.0787" stroke-linecap="round"/>
<path d="M321.567 13.9254C319.307 13.6429 323.442 11.4605 323.839 11.3231C326.92 10.2566 329.717 8.52066 332.72 7.23389" stroke="#848484" stroke-width="2.0787" stroke-linecap="round"/>
<path d="M329.002 8.72119C326.474 11.8803 326.566 22.7708 327.515 26.5652" stroke="#848484" stroke-width="2.0787" stroke-linecap="round"/>
<path d="M336.436 8.72112C336.436 5.39366 336.18 15.3843 335.692 18.6758C335.087 22.7655 334.535 24.7411 337.51 19.8737C342.845 11.144 340.326 28.6235 344.614 24.3347" stroke="#848484" stroke-width="2.0787" stroke-linecap="round"/>
<path d="M348.336 16.8994C348.336 18.3287 347.824 23.1031 346.849 23.5909" stroke="#848484" stroke-width="2.0787" stroke-linecap="round"/>
<path d="M346.849 11.6952C348.091 11.8505 348.648 14.1926 349.121 12.067C349.578 10.0067 349.648 8.21135 347.592 10.9517" stroke="#848484" stroke-width="2.0787" stroke-linecap="round"/>
<path d="M358 16.8995C358 12.2307 351.46 16.3071 354.654 19.5018C355.578 20.4259 358.03 21.6769 356.802 23.178C355.055 25.3139 351.431 25.4702 349.078 25.078" stroke="#848484" stroke-width="2.0787" stroke-linecap="round"/>
<path d="M300.751 51.1009C299.329 49.8561 300.751 58.8062 300.751 60.0229" stroke="#848484" stroke-width="2.0787" stroke-linecap="round"/>
<path d="M298.52 45.896C299.735 47.1111 296.64 42.8813 297.776 45.1525" stroke="#848484" stroke-width="2.0787" stroke-linecap="round"/>
<path d="M307.439 47.3828C304.675 47.3828 302.36 50.2804 304.795 52.5873C307.959 55.585 310.857 56.3048 304.465 56.3048" stroke="#848484" stroke-width="2.0787" stroke-linecap="round"/>
<path d="M318.593 45.8962C318.212 44.5609 315.924 49.4527 316.528 51.2659C317.491 54.1557 321.092 54.0059 322.146 51.2659C322.895 49.3185 324.542 45.4831 324.542 45.4831C324.542 45.4831 323.989 49.2657 325.12 50.5224C327.22 52.8565 328.35 51.1189 329.911 48.8702C331.13 47.1146 331.24 45.342 331.563 43.2939C331.745 42.1432 330.49 40.7561 330.49 42.1787C330.49 44.6601 334.801 46.6693 335.529 49.0354C336.197 51.2077 332.329 55.1323 331.233 51.8442" stroke="#848484" stroke-width="2.0787" stroke-linecap="round"/>
</svg>
