<svg width="133" height="62" viewBox="0 0 133 62" fill="none" xmlns="http://www.w3.org/2000/svg">
<path d="M77.9602 61.4035H80.4745V51.7933C80.4745 48.9436 82.5647 47.4581 84.8973 47.4581C87.4419 47.4581 88.6233 48.701 88.6233 51.4901V61.4035H91.1376V51.672C91.1376 47.064 88.8354 45.2753 85.5637 45.2753C82.9585 45.2753 81.2015 46.5789 80.4745 48.0644V45.5482H77.9602V61.4035Z" fill="#FFCD05"/>
<path d="M100.73 61.6763C104.305 61.6763 106.94 60.0089 107.485 56.8257H104.971C104.638 58.675 103.214 59.5845 100.76 59.5845C97.519 59.5845 95.7923 57.5836 95.6711 53.976H107.607V53.1575C107.607 47.4884 104.153 45.2753 100.488 45.2753C96.1255 45.2753 93.0659 48.6101 93.0659 53.4V53.6426C93.0659 58.5234 96.2467 61.6763 100.73 61.6763ZM95.762 51.9449C96.1861 49.1255 97.9128 47.3671 100.488 47.3671C103.093 47.3671 104.789 48.6707 105.032 51.9449H95.762Z" fill="#FFCD05"/>
<path d="M113.763 61.6763C116.096 61.6763 117.52 60.8881 118.701 59.4026V61.4035H121.215V50.9444C121.215 46.5183 118.459 45.2753 115.429 45.2753C112.37 45.2753 109.492 46.6092 109.159 50.2168H111.673C111.915 48.2766 113.127 47.3671 115.308 47.3671C117.732 47.3671 118.701 48.4282 118.701 50.9444V52.0964H116.429C112.37 52.0964 108.492 53.3394 108.492 57.0076C108.492 60.2514 110.825 61.6763 113.763 61.6763ZM114.006 59.6754C111.794 59.6754 111.007 58.6447 111.007 57.0076C111.007 54.6733 113.339 53.8851 116.52 53.8851H118.701V55.8556C118.701 58.3112 116.671 59.6754 114.006 59.6754Z" fill="#FFCD05"/>
<path d="M124.337 61.4035H126.851V52.7028C126.851 48.792 128.881 47.7916 132.061 47.64V45.2753C129.214 45.3663 127.851 46.6092 126.851 48.3979V45.5482H124.337V61.4035Z" fill="#FFCD05"/>
<path d="M7.80137 61.6764C11.6413 61.6764 14.4147 59.1145 14.7499 55.6681H12.4032C12.129 58.2605 10.0871 59.572 7.83184 59.572C4.75377 59.572 2.62045 57.498 2.62045 53.5941V53.3501C2.62045 49.5987 4.84519 47.2808 7.74041 47.2808C9.93468 47.2808 11.7632 48.2263 12.1594 50.7577H14.6585C14.1708 46.7013 11.0623 45.1763 7.74041 45.1763C3.47377 45.1763 -0.000488281 48.4703 -0.000488281 53.3501V53.5941C-0.000488281 58.535 3.35187 61.6764 7.80137 61.6764Z" fill="#FFCD05"/>
<path d="M23.3841 59.572C20.1537 59.572 18.1727 57.193 18.1727 53.5636V53.3196C18.1727 49.6597 20.1841 47.2808 23.3841 47.2808C26.5536 47.2808 28.5955 49.6597 28.5955 53.3501V53.5636C28.5955 57.1625 26.5841 59.572 23.3841 59.572ZM23.3536 61.6764C27.8946 61.6764 31.2164 58.352 31.2164 53.5331V53.2891C31.2164 48.5008 27.8946 45.1763 23.3841 45.1763C18.8737 45.1763 15.5518 48.5313 15.5518 53.3196V53.5636C15.5518 58.23 18.8127 61.6764 23.3536 61.6764Z" fill="#FFCD05"/>
<path d="M39.3083 61.6764C41.6245 61.6764 43.8492 60.2125 44.7635 58.657V61.4019H47.293V0.766602H44.7635V48.0128C43.8492 46.4573 42.2035 45.1763 39.5521 45.1763C35.1636 45.1763 32.116 48.6228 32.116 53.5026V53.7466C32.116 58.718 35.1331 61.6764 39.3083 61.6764ZM39.5826 59.572C36.9007 59.572 34.7369 57.6505 34.7369 53.6246V53.3806C34.7369 49.5072 36.6264 47.2808 39.7959 47.2808C42.9045 47.2808 44.8549 49.2022 44.8549 53.2891V53.5331C44.8549 57.62 42.5388 59.572 39.5826 59.572Z" fill="#FFCD05"/>
<path d="M57.1048 61.6764C60.701 61.6764 63.3524 59.999 63.901 56.7966H61.3715C61.0363 58.657 59.6039 59.572 57.1353 59.572C53.8744 59.572 52.1373 57.559 52.0154 53.9296H64.0229V53.1061C64.0229 47.4028 60.5486 45.1763 56.861 45.1763C52.4725 45.1763 49.3944 48.5313 49.3944 53.3501V53.5941C49.3944 58.5045 52.5944 61.6764 57.1048 61.6764ZM52.1068 51.8862C52.5334 49.0497 54.2706 47.2808 56.861 47.2808C59.482 47.2808 61.1886 48.5923 61.4324 51.8862H52.1068Z" fill="#FFCD05"/>
<path d="M66.1367 61.4019H68.6967V0.766602H66.1367V61.4019Z" fill="#FFCD05"/>
<path d="M72.1057 61.4019H74.6352V45.4508H72.1057V61.4019ZM73.3247 42.1264C74.239 42.1264 75.0009 41.3639 75.0009 40.449C75.0009 39.534 74.239 38.7715 73.3247 38.7715C72.4105 38.7715 71.6486 39.534 71.6486 40.449C71.6486 41.3639 72.4105 42.1264 73.3247 42.1264Z" fill="#FFCD05"/>
</svg>
