<svg width="133" height="61" viewBox="0 0 133 61" fill="none" xmlns="http://www.w3.org/2000/svg">
<path d="M78.4812 60.6896H80.9955V51.0794C80.9955 48.2297 83.0857 46.7442 85.4183 46.7442C87.9629 46.7442 89.1443 47.9872 89.1443 50.7762V60.6896H91.6586V50.9581C91.6586 46.3501 89.3563 44.5615 86.0847 44.5615C83.4795 44.5615 81.7225 45.8651 80.9955 47.3505V44.8343H78.4812V60.6896Z" fill="white"/>
<path d="M101.251 60.9624C104.826 60.9624 107.461 59.295 108.006 56.1119H105.492C105.159 57.9611 103.735 58.8706 101.281 58.8706C98.04 58.8706 96.3133 56.8698 96.1921 53.2622H108.128V52.4436C108.128 46.7745 104.674 44.5615 101.009 44.5615C96.6465 44.5615 93.5869 47.8962 93.5869 52.6862V52.9287C93.5869 57.8096 96.7677 60.9624 101.251 60.9624ZM96.283 51.231C96.7071 48.4116 98.4338 46.6533 101.009 46.6533C103.614 46.6533 105.31 47.9569 105.553 51.231H96.283Z" fill="white"/>
<path d="M114.284 60.9624C116.617 60.9624 118.041 60.1742 119.222 58.6887V60.6896H121.736V50.2306C121.736 45.8044 118.98 44.5615 115.95 44.5615C112.891 44.5615 110.013 45.8954 109.68 49.503H112.194C112.436 47.5628 113.648 46.6533 115.829 46.6533C118.253 46.6533 119.222 47.7143 119.222 50.2306V51.3826H116.95C112.891 51.3826 109.013 52.6255 109.013 56.2938C109.013 59.5376 111.346 60.9624 114.284 60.9624ZM114.527 58.9616C112.315 58.9616 111.528 57.9308 111.528 56.2938C111.528 53.9594 113.86 53.1712 117.041 53.1712H119.222V55.1418C119.222 57.5974 117.192 58.9616 114.527 58.9616Z" fill="white"/>
<path d="M124.858 60.6896H127.372V51.9889C127.372 48.0781 129.402 47.0777 132.582 46.9261V44.5615C129.735 44.6524 128.372 45.8954 127.372 47.684V44.8343H124.858V60.6896Z" fill="white"/>
<path d="M8.32236 60.9626C12.1623 60.9626 14.9356 58.4006 15.2709 54.9542H12.9242C12.65 57.5467 10.6081 58.8581 8.35284 58.8581C5.27476 58.8581 3.14144 56.7842 3.14144 52.8803V52.6363C3.14144 48.8849 5.36619 46.5669 8.26141 46.5669C10.4557 46.5669 12.2842 47.5124 12.6804 50.0438H15.1795C14.6918 45.9874 11.5833 44.4625 8.26141 44.4625C3.99477 44.4625 0.520508 47.7564 0.520508 52.6363V52.8803C0.520508 57.8211 3.87287 60.9626 8.32236 60.9626Z" fill="white"/>
<path d="M23.9051 58.8581C20.6747 58.8581 18.6937 56.4792 18.6937 52.8498V52.6058C18.6937 48.9459 20.7051 46.5669 23.9051 46.5669C27.0746 46.5669 29.1165 48.9459 29.1165 52.6363V52.8498C29.1165 56.4487 27.1051 58.8581 23.9051 58.8581ZM23.8746 60.9626C28.4156 60.9626 31.7374 57.6381 31.7374 52.8193V52.5753C31.7374 47.7869 28.4156 44.4625 23.9051 44.4625C19.3947 44.4625 16.0728 47.8174 16.0728 52.6058V52.8498C16.0728 57.5161 19.3337 60.9626 23.8746 60.9626Z" fill="white"/>
<path d="M39.8293 60.9626C42.1455 60.9626 44.3702 59.4986 45.2845 57.9431V60.6881H47.814V0.0527344H45.2845V47.2989C44.3702 45.7434 42.7245 44.4625 40.0731 44.4625C35.6846 44.4625 32.637 47.9089 32.637 52.7888V53.0328C32.637 58.0041 35.6541 60.9626 39.8293 60.9626ZM40.1036 58.8581C37.4217 58.8581 35.2579 56.9367 35.2579 52.9108V52.6668C35.2579 48.7934 37.1474 46.5669 40.3169 46.5669C43.4255 46.5669 45.3759 48.4884 45.3759 52.5753V52.8193C45.3759 56.9062 43.0597 58.8581 40.1036 58.8581Z" fill="white"/>
<path d="M57.6258 60.9626C61.222 60.9626 63.8734 59.2851 64.422 56.0827H61.8925C61.5572 57.9431 60.1249 58.8581 57.6563 58.8581C54.3954 58.8581 52.6583 56.8452 52.5364 53.2158H64.5439V52.3923C64.5439 46.6889 61.0696 44.4625 57.382 44.4625C52.9935 44.4625 49.9154 47.8174 49.9154 52.6363V52.8803C49.9154 57.7906 53.1154 60.9626 57.6258 60.9626ZM52.6278 51.1723C53.0544 48.3359 54.7916 46.5669 57.382 46.5669C60.003 46.5669 61.7096 47.8784 61.9534 51.1723H52.6278Z" fill="white"/>
<path d="M66.6577 60.6881H69.2177V0.0527344H66.6577V60.6881Z" fill="white"/>
<path d="M72.6267 60.6881H75.1562V44.737H72.6267V60.6881ZM73.8457 41.4125C74.76 41.4125 75.5219 40.6501 75.5219 39.7351C75.5219 38.8201 74.76 38.0576 73.8457 38.0576C72.9315 38.0576 72.1696 38.8201 72.1696 39.7351C72.1696 40.6501 72.9315 41.4125 73.8457 41.4125Z" fill="white"/>
</svg>
