<svg width="139" height="141" viewBox="0 0 139 141" fill="none" xmlns="http://www.w3.org/2000/svg">
<path d="M80.1181 70.5464L80.12 71.422L80.1255 72.2975L80.1346 73.1726L80.1474 74.0473L80.1639 74.9213L80.184 75.7945L80.2077 76.6667L80.235 77.5378L80.266 78.4076L80.3006 79.2759L80.3387 80.1426L80.3804 81.0076L80.4257 81.8706L80.4745 82.7315L80.5268 83.5902L80.5826 84.4465L80.6419 85.3002L80.7046 86.1511L80.7707 86.9992L80.8402 87.8443L80.913 88.6861L80.9892 89.5246L81.0686 90.3596L81.1513 91.1909L81.2372 92.0185L81.3264 92.842L81.4186 93.6615L81.514 94.4767L81.6124 95.2875L81.7138 96.0937L81.8182 96.8952L81.9256 97.6919L82.0358 98.4836L82.1489 99.2701L82.2647 100.051L82.3833 100.827L82.5046 101.597L82.6285 102.362L82.755 103.121L82.884 103.873L83.0154 104.62L83.1493 105.36L83.2855 106.094L83.424 106.822L83.5647 107.543L83.7076 108.257L83.8526 108.964L83.9996 109.664L84.1486 110.357L84.2995 111.043L84.4522 111.721L84.6067 112.392L84.7628 113.055L84.9206 113.711L85.0799 114.358L85.2408 114.998L85.403 115.63L85.5665 116.253L85.7313 116.868L85.8973 117.475L86.0643 118.073L86.2324 118.662L86.4014 119.243L86.5713 119.815L86.742 120.378L86.9134 120.933L87.0853 121.478L87.2579 122.014L87.4308 122.54L87.6042 123.057L87.7778 123.565L87.9516 124.063L88.1256 124.552L88.2995 125.031L88.4735 125.5L88.6472 125.96L88.8208 126.409L88.994 126.849L89.1668 127.278L89.3392 127.697L89.5109 128.106L89.682 128.505L89.8523 128.894L90.0218 129.272L90.1903 129.64L90.3578 129.997L90.5242 130.344L90.6893 130.681L90.8532 131.006L91.0157 131.321L91.1767 131.626L91.3362 131.919L91.494 132.202L91.65 132.474L91.8042 132.735L91.9565 132.986L92.1067 133.225L92.2549 133.454L92.4008 133.671L92.5445 133.878L92.6858 134.074L92.8246 134.258L92.9609 134.432L93.0946 134.594L93.2255 134.746L93.3536 134.886L93.4788 135.016L93.601 135.134L93.7202 135.241L93.8362 135.338L93.9489 135.423L94.0583 135.497L94.1643 135.56L94.2669 135.612L94.3658 135.653L94.4611 135.683L94.5526 135.702L94.6403 135.71L94.7242 135.708L94.804 135.694L94.8798 135.669L94.9515 135.634L95.0189 135.587L95.082 135.53L95.1408 135.462L95.1952 135.384L95.245 135.294L95.2903 135.194L95.3309 135.084L95.3668 134.963L95.3979 134.831L95.4242 134.689L95.4455 134.537L95.4618 134.374L95.4731 134.201L95.4793 134.017L95.4803 133.824L95.476 133.62L95.4664 133.406L95.4515 133.183L95.4312 132.949L95.4054 132.706L95.374 132.453L95.3371 132.19L95.2946 131.917L95.2463 131.635L95.1923 131.343L95.1326 131.042L95.067 130.732L94.9956 130.413L94.9182 130.084L94.8349 129.747L94.7455 129.4L94.6502 129.044L94.5487 128.68L94.4411 128.307L94.3274 127.926L94.2076 127.536L94.0815 127.138L93.9491 126.731L93.8105 126.316L93.6656 125.893L93.5144 125.462L93.3568 125.024L93.1929 124.577L93.0226 124.123L92.8459 123.662L92.6627 123.193L92.4732 122.716L92.2771 122.233L92.0746 121.742L91.8657 121.245L91.6502 120.74L91.4283 120.229L91.1999 119.711L90.965 119.187L90.7236 118.657L90.4758 118.12L90.2214 117.577L89.9606 117.028L89.6932 116.473L89.4194 115.913L89.1392 115.347L88.8525 114.775L88.5593 114.198L88.2598 113.616L87.9538 113.029L87.6415 112.437L87.3228 111.84L86.9977 111.239L86.6663 110.633L86.3287 110.022L85.9848 109.407L85.6346 108.789L85.2783 108.166L84.9158 107.539L84.5471 106.908L84.1724 106.274L83.7916 105.637L83.4048 104.996L83.012 104.352L82.6133 103.705L82.2087 103.055L81.7983 102.402L81.3821 101.747L80.9601 101.089L80.5325 100.429L80.0992 99.7667L79.6604 99.1023L79.2161 98.436L78.7663 97.7679L78.3111 97.0982L77.8506 96.4269L77.3849 95.7544L76.9139 95.0805L76.4378 94.4056L75.9567 93.7298L75.4706 93.0531L74.9796 92.3758L74.4837 91.698L73.9831 91.0197L73.4778 90.3412L72.9679 89.6626L72.4534 88.984L71.9346 88.3055L71.4114 87.6273L70.8839 86.9496L70.3522 86.2724L69.8165 85.5958L69.2767 84.9201L68.7331 84.2454L68.1856 83.5717L67.6344 82.8992L67.0796 82.2281L66.5212 81.5585L65.9594 80.8904L65.3943 80.2241L64.826 79.5596L64.2545 78.8971L63.68 78.2368L63.1026 77.5786L62.5224 76.9228L61.9395 76.2694L61.354 75.6187L60.766 74.9706L60.1756 74.3254L59.5829 73.6831L58.9881 73.0439L58.3913 72.4078L57.7926 71.7751L57.192 71.1457L56.5898 70.5199L55.9859 69.8977L55.3807 69.2792L54.774 68.6645L54.1662 68.0538L53.5573 67.4472L52.9474 66.8447L52.3367 66.2464L51.7253 65.6525L51.1132 65.0631L50.5007 64.4782L49.8878 63.898L49.2747 63.3225L48.6615 62.7518L48.0483 62.1861L47.4353 61.6253L46.8226 61.0697L46.2103 60.5193L45.5986 59.9741L44.9875 59.4343L44.3772 58.9L43.7679 58.3712L43.1596 57.8479L42.5526 57.3304L41.9468 56.8186L41.3426 56.3126L40.7399 55.8126L40.1389 55.3185L39.5398 54.8304L38.9427 54.3484L38.3477 53.8726L37.755 53.4031L37.1647 52.9398L36.5769 52.4829L35.9917 52.0324L35.4093 51.5883L34.8298 51.1508L34.2534 50.7198L33.6802 50.2955L33.1103 49.8778L32.5438 49.4669L31.9809 49.0627L31.4217 48.6653L30.8663 48.2748L30.3149 47.8911L29.7676 47.5144L29.2245 47.1446L28.6858 46.7818L28.1515 46.426L27.6219 46.0773L27.097 45.7357L26.5769 45.4011L26.0619 45.0737L25.5519 44.7535L25.0472 44.4404L24.5479 44.1345L24.0541 43.8358L23.5658 43.5443L23.0833 43.2601L22.6066 42.9831L22.1359 42.7134L21.6713 42.4509L21.2129 42.1957L20.7608 41.9477L20.3152 41.707L19.8761 41.4736L19.4437 41.2475L19.0181 41.0286L18.5993 40.8169L18.1876 40.6126L17.7829 40.4154L17.3855 40.2255L16.9954 40.0428L16.6128 39.8673L16.2377 39.699L15.8702 39.5378L15.5105 39.3838L15.1586 39.2369L14.8146 39.0971L14.4787 38.9644L14.151 38.8387L13.8314 38.72L13.5202 38.6083L13.2174 38.5036L12.9231 38.4058L12.6374 38.3149L12.3604 38.2308L12.0921 38.1535L11.8327 38.083L11.5822 38.0192L11.3407 37.9621L11.1083 37.9116L10.8851 37.8677L10.6711 37.8304L10.4665 37.7995L10.2712 37.7751L10.0854 37.7571L9.90907 37.7454L9.74236 37.74L9.58531 37.7408L9.43797 37.7477L9.30041 37.7608L9.17268 37.7799L9.05485 37.805L8.94696 37.836L8.84908 37.8729L8.76124 37.9155L8.6835 37.9638L8.6159 38.0179L8.55849 38.0774L8.51132 38.1425L8.47441 38.2131L8.44781 38.2889L8.43157 38.3701L8.4257 38.4565L8.43024 38.5481L8.44523 38.6447L8.47069 38.7462L8.50664 38.8527L8.55311 38.964L8.61012 39.0801L8.67769 39.2008L8.75584 39.3261L8.84458 39.4559L8.94392 39.5901L9.05387 39.7286L9.17445 39.8713L9.30566 40.0182L9.4475 40.1692L9.59997 40.3242L9.76307 40.483L9.9368 40.6457L10.1212 40.812L10.3161 40.982L10.5217 41.1555L10.7379 41.3324L10.9646 41.5127L11.2019 41.6962L11.4498 41.8829L11.7082 42.0727L11.9771 42.2654L12.2564 42.461L12.5462 42.6594L12.8465 42.8605L13.1571 43.0642L13.478 43.2704L13.8093 43.479L14.1509 43.6899L14.5027 43.9031L14.8647 44.1183L15.2368 44.3356L15.619 44.5548L16.0113 44.7759L16.4135 44.9986L16.8258 45.2231L17.2479 45.449L17.6798 45.6765L18.1215 45.9053L18.5729 46.1353L19.0339 46.3665L19.5045 46.5988L19.9846 46.8321L20.4742 47.0663L20.9731 47.3012L21.4812 47.5369L21.9986 47.7731L22.5251 48.0099L23.0607 48.2471L23.6052 48.4846L24.1586 48.7223L24.7208 48.9602L25.2917 49.1982L25.8712 49.4361L26.4592 49.6739L27.0556 49.9114L27.6603 50.1487L28.2733 50.3856L28.8944 50.622L29.5235 50.8578L30.1605 51.093L30.8054 51.3275L31.4579 51.5611L32.1181 51.7939L32.7857 52.0256L33.4606 52.2563L34.1429 52.4859L34.8323 52.7142L35.5286 52.9412L36.2319 53.1669L36.942 53.3911L37.6587 53.6137L38.382 53.8347L39.1117 54.0541L39.8476 54.2717L40.5897 54.4874L41.3378 54.7013L42.0919 54.9132L42.8516 55.123L43.617 55.3308L44.3879 55.5363L45.1641 55.7397L45.9456 55.9407L46.7321 56.1393L47.5235 56.3356L48.3198 56.5293L49.1207 56.7205L49.9261 56.9091L50.7359 57.095L51.5498 57.2782L52.3679 57.4586L53.1899 57.6362L54.0156 57.8109L54.845 57.9827L55.6778 58.1516L56.514 58.3173L57.3533 58.4801L58.1957 58.6397L59.0409 58.7961L59.8888 58.9494L60.7393 59.0994L61.5922 59.2461L62.4473 59.3895L63.3045 59.5296L64.1637 59.6663L65.0246 59.7996L65.8871 59.9294L66.751 60.0557L67.6163 60.1785L68.4827 60.2978L69.3501 60.4135L70.2183 60.5256L71.0871 60.6342L71.9565 60.7391L72.8261 60.8403L73.696 60.9379L74.5658 61.0318L75.4355 61.122L76.3049 61.2085L77.1738 61.2913L78.0421 61.3704L78.9096 61.4457L79.7761 61.5172L80.6415 61.585L81.5056 61.6491L82.3683 61.7094L83.2294 61.7659L84.0887 61.8187L84.9461 61.8678L85.8014 61.913L86.6545 61.9546L87.5051 61.9924L88.3533 62.0265L89.1987 62.0568L90.0412 62.0835L90.8807 62.1064L91.717 62.1257L92.5499 62.1413L93.3794 62.1533L94.2052 62.1617L95.0272 62.1664L95.8453 62.1676L96.6592 62.1652L97.4689 62.1593L98.2741 62.1499L99.0748 62.137L99.8708 62.1207L100.662 62.1009L101.448 62.0778L102.229 62.0513L103.005 62.0215L103.775 61.9885L104.539 61.9522L105.298 61.9127L106.051 61.8701L106.798 61.8243L107.539 61.7755L108.274 61.7236L109.002 61.6688L109.724 61.6111L110.439 61.5504L111.147 61.487L111.848 61.4207L112.542 61.3518L113.229 61.2801L113.909 61.2059L114.581 61.1291L115.245 61.0497L115.902 60.968L116.551 60.8838L117.192 60.7974L117.825 60.7086L118.45 60.6177L119.067 60.5246L119.675 60.4295L120.275 60.3323L120.866 60.2332L121.449 60.1323L122.022 60.0295L122.587 59.925L123.142 59.8189L123.689 59.7111L124.226 59.6019L124.754 59.4912L125.273 59.3791L125.782 59.2657L126.282 59.1511L126.772 59.0354L127.252 58.9186L127.722 58.8008L128.182 58.6821L128.633 58.5625L129.073 58.4422L129.503 58.3212L129.923 58.1997L130.333 58.0776L130.732 57.9551L131.121 57.8322L131.499 57.7091L131.867 57.5858L132.224 57.4624L132.571 57.3389L132.907 57.2155L133.232 57.0923L133.546 56.9693L133.849 56.8467L134.142 56.7244L134.423 56.6027L134.693 56.4815L134.953 56.3609L135.201 56.2411L135.438 56.1222L135.664 56.0041L135.879 55.8871L136.083 55.7712L136.275 55.6564L136.456 55.5429L136.626 55.4308L136.784 55.32L136.932 55.2108L137.068 55.1032L137.192 54.9973L137.305 54.8932L137.407 54.7909L137.498 54.6906L137.577 54.5923L137.644 54.4961L137.701 54.4021L137.746 54.3104L137.779 54.221L137.802 54.1341L137.812 54.0497L137.812 53.968L137.8 53.8889L137.777 53.8126L137.743 53.7391L137.698 53.6686L137.641 53.601L137.573 53.5366L137.494 53.4753L137.404 53.4172L137.303 53.3625L137.19 53.3112L137.067 53.2633L136.933 53.219L136.787 53.1782L136.631 53.1412L136.464 53.1079L136.286 53.0784L136.098 53.0529L135.898 53.0313L135.689 53.0137L135.468 53.0002L135.237 52.9909L134.996 52.9858L134.744 52.985L134.482 52.9885L134.209 52.9965L133.927 53.0089L133.634 53.0259L133.331 53.0474L133.019 53.0736L132.696 53.1045L132.364 53.1402L132.022 53.1807L131.67 53.226L131.309 53.2762L130.938 53.3314L130.558 53.3916L130.168 53.4569L129.77 53.5272L129.362 53.6027L128.945 53.6834L128.519 53.7693L128.085 53.8605L127.642 53.957L127.19 54.0588L126.73 54.166L126.261 54.2786L125.784 54.3966L125.299 54.5201L124.806 54.6491L124.305 54.7836L123.796 54.9237L123.279 55.0694L122.755 55.2206L122.223 55.3775L121.684 55.54L121.138 55.7082L120.584 55.882L120.024 56.0616L119.457 56.2468L118.882 56.4378L118.302 56.6344L117.714 56.8368L117.121 57.045L116.521 57.2588L115.915 57.4785L115.303 57.7038L114.685 57.9349L114.061 58.1718L113.432 58.4144L112.797 58.6627L112.157 58.9168L111.512 59.1765L110.862 59.442L110.207 59.7132L109.547 59.99L108.883 60.2725L108.214 60.5606L107.541 60.8544L106.863 61.1538L106.182 61.4587L105.496 61.7692L104.807 62.0853L104.114 62.4068L103.418 62.7338L102.718 63.0663L102.015 63.4041L101.31 63.7473L100.601 64.0959L99.8892 64.4497L99.175 64.8088L98.4583 65.1731L97.7393 65.5426L97.0181 65.9172L96.2949 66.2969L95.5698 66.6816L94.843 67.0712L94.1146 67.4658L93.3847 67.8653L92.6535 68.2695L91.9212 68.6786L91.1878 69.0923L90.4536 69.5106L89.7187 69.9336L88.9831 70.361L88.2472 70.7929L87.5109 71.2291L86.7746 71.6697L86.0382 72.1145L85.3019 72.5635L84.566 73.0166L83.8304 73.4736L83.0955 73.9347L82.3612 74.3996L81.6278 74.8682L80.8954 75.3406L80.1641 75.8166L79.4341 76.2962L78.7055 76.7792L77.9784 77.2656L77.253 77.7552L76.5294 78.2481L75.8078 78.744L75.0883 79.243L74.3709 79.7449L73.6559 80.2496L72.9434 80.7571L72.2335 81.2671L71.5264 81.7798L70.8221 82.2948L70.1208 82.8122L69.4226 83.3318L68.7277 83.8536L68.0361 84.3774L67.348 84.9031L66.6635 85.4306L65.9828 85.9598L65.3059 86.4907L64.633 87.0231L63.9641 87.5568L63.2995 88.0918L62.6392 88.628L61.9832 89.1653L61.3319 89.7034L60.6851 90.2425L60.0432 90.7822L59.4061 91.3225L58.7739 91.8633L58.1468 92.4045L57.5249 92.9459L56.9083 93.4875L56.297 94.0291L55.6913 94.5706L55.091 95.1118L54.4964 95.6527L53.9076 96.1931L53.3246 96.733L52.7476 97.2721L52.1766 97.8104L51.6116 98.3478L51.0529 98.884L50.5005 99.4191L49.9543 99.9528L49.4147 100.485L48.8815 101.016L48.3549 101.545L47.835 102.072L47.3218 102.597L46.8154 103.121L46.3159 103.642L45.8233 104.16L45.3377 104.676L44.8592 105.19L44.3878 105.701L43.9236 106.209L43.4666 106.715L43.017 107.217L42.5746 107.716L42.1397 108.211L41.7122 108.703L41.2922 109.192L40.8797 109.677L40.4749 110.158L40.0776 110.635L39.688 111.109L39.3062 111.578L38.932 112.042L38.5657 112.503L38.2071 112.958L37.8564 113.409L37.5135 113.856L37.1785 114.297L36.8515 114.733L36.5324 115.165L36.2212 115.591L35.918 116.011L35.6228 116.427L35.3355 116.836L35.0563 117.24L34.7851 117.638L34.522 118.03L34.2669 118.416L34.0198 118.796L33.7808 119.17L33.5498 119.537L33.3269 119.898L33.112 120.252L32.9051 120.6L32.7063 120.94L32.5155 121.274L32.3327 121.601L32.1578 121.921L31.991 122.233L31.8321 122.539L31.6812 122.837L31.5382 123.127L31.4031 123.41L31.2758 123.685L31.1564 123.952L31.0449 124.212L30.9411 124.464L30.8451 124.707L30.7568 124.943L30.6762 125.17L30.6033 125.389L30.538 125.599L30.4803 125.802L30.4301 125.995L30.3874 126.18L30.3521 126.357L30.3243 126.524L30.3038 126.683L30.2906 126.833L30.2847 126.974L30.2859 127.106L30.2943 127.229L30.3098 127.343L30.3324 127.448L30.3619 127.543L30.3983 127.629L30.4416 127.706L30.4916 127.773L30.5484 127.831L30.6118 127.879L30.6819 127.917L30.7584 127.947L30.8414 127.966L30.9308 127.976L31.0265 127.975L31.1284 127.966L31.2365 127.946L31.3506 127.916L31.4708 127.877L31.5969 127.828L31.7288 127.768L31.8665 127.699L32.0099 127.62L32.1588 127.531L32.3133 127.431L32.4733 127.322L32.6385 127.203L32.8091 127.073L32.9848 126.934L33.1655 126.784L33.3513 126.624L33.542 126.455L33.7375 126.275L33.9377 126.085L34.1425 125.885L34.3519 125.674L34.5657 125.454L34.7838 125.224L35.0062 124.983L35.2328 124.733L35.4634 124.472L35.6979 124.202L35.9363 123.921L36.1785 123.63L36.4244 123.33L36.6738 123.019L36.9267 122.699L37.1829 122.369L37.4425 122.029L37.7051 121.679L37.9709 121.319L38.2396 120.95L38.5112 120.571L38.7855 120.182L39.0625 119.784L39.3421 119.376L39.6241 118.959L39.9085 118.532L40.1951 118.096L40.4839 117.65L40.7747 117.196L41.0675 116.732L41.3621 116.258L41.6584 115.776L41.9564 115.285L42.256 114.785L42.5569 114.276L42.8592 113.758L43.1628 113.231L43.4675 112.696L43.7732 112.152L44.0798 111.6L44.3873 111.039L44.6955 110.47L45.0044 109.893L45.3138 109.307L45.6236 108.714L45.9338 108.112L46.2442 107.503L46.5548 106.886L46.8654 106.261L47.176 105.628L47.4864 104.989L47.7966 104.341L48.1065 103.687L48.416 103.025L48.7249 102.356L49.0333 101.681L49.3409 100.998L49.6478 100.309L49.9538 99.6133L50.2588 98.911L50.5628 98.2023L50.8657 97.4874L51.1673 96.7664L51.4677 96.0394L51.7666 95.3065L52.0641 94.5678L52.36 93.8235L52.6543 93.0738L52.9469 92.3186L53.2377 91.5582L53.5266 90.7928L53.8136 90.0223L54.0985 89.2471L54.3814 88.4671L54.6621 87.6826L54.9405 86.8936L55.2167 86.1004L55.4904 85.303L55.7618 84.5017L56.0306 83.6965L56.2968 82.8875L56.5603 82.0751L56.8212 81.2591L57.0793 80.44L57.3346 79.6177L57.5869 78.7924L57.8364 77.9643L58.0828 77.1335L58.3262 76.3002L58.5664 75.4646L58.8035 74.6267L59.0374 73.7867L59.268 72.9449L59.4953 72.1013L59.7192 71.256L59.9398 70.4094L60.1568 69.5614L60.3704 68.7123L60.5805 67.8622L60.787 67.0113L60.9899 66.1598L61.1891 65.3077L61.3847 64.4553L61.5766 63.6027L61.7647 62.7501L61.949 61.8976L62.1296 61.0454L62.3063 60.1936L62.4792 59.3425L62.6482 58.4921L62.8133 57.6427L62.9745 56.7943L63.1317 55.9472L63.285 55.1015L63.4344 54.2573L63.5797 53.4149L63.7211 52.5743L63.8584 51.7358L63.9917 50.8995L64.121 50.0655L64.2463 49.2341L64.3676 48.4053L64.4848 47.5794L64.598 46.7564L64.7071 45.9366L64.8122 45.12L64.9133 44.3069L65.0103 43.4975L65.1033 42.6917L65.1923 41.8899L65.2773 41.0922L65.3584 40.2987L65.4354 39.5095L65.5085 38.7248L65.5776 37.9448L65.6428 37.1697L65.704 36.3995L65.7614 35.6344L65.8149 34.8745L65.8646 34.1201L65.9105 33.3711L65.9525 32.6279L65.9908 31.8905L66.0254 31.1591L66.0562 30.4337L66.0834 29.7147L66.1069 29.0019L66.1268 28.2958L66.1432 27.5962L66.156 26.9035L66.1653 26.2176L66.1712 25.5388L66.1736 24.8672L66.1727 24.2029L66.1684 23.546L66.1609 22.8967L66.1502 22.2551L66.1362 21.6212L66.1192 20.9953L66.099 20.3774L66.0758 19.7677L66.0497 19.1662L66.0206 18.5732L65.9886 17.9886L65.9539 17.4126L65.9163 16.8454L65.8761 16.287L65.8333 15.7375L65.7878 15.197L65.7399 14.6657L65.6895 14.1436L65.6367 13.6309L65.5816 13.1276L65.5242 12.6338L65.4646 12.1496L65.4029 11.6751L65.3392 11.2105L65.2735 10.7557L65.2058 10.3109L65.1363 9.87609L65.0651 9.45144L64.9921 9.03701L64.9175 8.63285L64.8414 8.23906L64.7638 7.85569L64.6848 7.48283L64.6044 7.12053L64.5228 6.76887L64.44 6.42791L64.3561 6.0977L64.2712 5.77831L64.1854 5.4698L64.0987 5.17222L64.0112 4.88562L63.923 4.61005L63.8342 4.34556L63.7449 4.0922L63.6551 3.85001L63.5649 3.61903L63.4744 3.3993L63.3837 3.19086L63.2929 2.99374L63.2021 2.80797L63.1112 2.63358L63.0205 2.47061L62.93 2.31907L62.8397 2.17899L62.7499 2.05039L62.6605 1.93329L62.5716 1.82769L62.4833 1.73363L62.3957 1.6511L62.3089 1.58012L62.223 1.52069L62.138 1.47282L62.0541 1.43651L61.9713 1.41175L61.8897 1.39855L61.8093 1.3969L61.7303 1.40679L61.6528 1.42821L61.5768 1.46115L61.5024 1.5056L61.4296 1.56153L61.3587 1.62894L61.2896 1.70779L61.2224 1.79806L61.1572 1.89973L61.0942 2.01277L61.0332 2.13714L60.9746 2.27282L60.9182 2.41977L60.8642 2.57795L60.8127 2.74732L60.7638 2.92783L60.7175 3.11946L60.6738 3.32214L60.633 3.53583L60.5949 3.76048L60.5598 3.99603L60.5277 4.24244L60.4986 4.49964L60.4727 4.76756L60.4499 5.04616L60.4304 5.33537L60.4142 5.63511L60.4014 5.94533L60.3921 6.26596L60.3863 6.59691L60.3841 6.93811L60.3855 7.2895L60.3906 7.65099L60.3995 8.0225L60.4122 8.40395L60.4288 8.79525L60.4493 9.19633L60.4738 9.60708L60.5023 10.0274L60.535 10.4573L60.5718 10.8965L60.6127 11.3451L60.658 11.8029L60.7075 12.2697L60.7614 12.7456L60.8197 13.2305L60.8824 13.7241L60.9495 14.2264L61.0212 14.7373L61.0975 15.2567L61.1783 15.7845L61.2638 16.3205L61.3539 16.8647L61.4487 17.417L61.5483 17.9771L61.6526 18.545L61.7617 19.1207L61.8756 19.7038L61.9944 20.2945L62.1181 20.8924L62.2466 21.4975L62.3801 22.1097L62.5185 22.7288L62.6619 23.3547L62.8102 23.9873L62.9636 24.6264L63.1219 25.272L63.2853 25.9238L63.4537 26.5818L63.6271 27.2458L63.8056 27.9156L63.9892 28.5912L64.1777 29.2724L64.3714 29.9591L64.5701 30.651L64.7739 31.3481L64.9828 32.0503L65.1967 32.7574L65.4156 33.4692L65.6396 34.1856L65.8687 34.9065L66.1027 35.6316L66.3418 36.361L66.5859 37.0944L66.835 37.8316L67.089 38.5726L67.348 39.3171L67.6119 40.0651L67.8807 40.8163L68.1544 41.5707L68.4329 42.3281L68.7163 43.0883L69.0045 43.8511L69.2975 44.6165L69.5952 45.3843L69.8976 46.1543L70.2047 46.9264L70.5164 47.7004L70.8327 48.4761L71.1535 49.2535L71.4789 50.0324L71.8087 50.8125L72.1429 51.5939L72.4816 52.3762L72.8245 53.1594L73.1717 53.9433L73.5232 54.7278L73.8788 55.5127L74.2386 56.2979L74.6024 57.0831L74.9702 57.8684L75.3419 58.6534L75.7175 59.4381L76.097 60.2223L76.4802 61.0058L76.8671 61.7886L77.2576 62.5705L77.6516 63.3513L78.0492 64.1308L78.4501 64.909L78.8544 65.6857L79.262 66.4607L79.6728 67.2339L80.0866 68.0051L80.5035 68.7743L80.9234 69.5413L81.3461 70.3059L81.7716 71.0679L82.1999 71.8274L82.6307 72.584L83.0641 73.3378L83.4999 74.0884L83.9381 74.8359L84.3786 75.5801L84.8213 76.3208L85.266 77.0579L85.7127 77.7914L86.1614 78.5209L86.6118 79.2465L87.064 79.968L87.5177 80.6853L87.973 81.3982L88.4297 82.1066L88.8877 82.8105L89.347 83.5096L89.8073 84.2039L90.2686 84.8933L90.7309 85.5776L91.194 86.2567L91.6577 86.9305L92.122 87.5989L92.5869 88.2618L93.052 88.9191L93.5175 89.5706L93.9831 90.2163L94.4488 90.8561L94.9144 91.4898L95.3798 92.1173L95.8449 92.7387L96.3096 93.3537L96.7738 93.9622L97.2374 94.5642L97.7003 95.1596L98.1623 95.7483L98.6233 96.3302L99.0833 96.9052L99.542 97.4732L99.9995 98.0342L100.455 98.588L100.91 99.1346L101.363 99.6739L101.814 100.206L102.263 100.73L102.71 101.247L103.155 101.757L103.598 102.258L104.038 102.752L104.476 103.239L104.911 103.717L105.344 104.188L105.774 104.65L106.201 105.105L106.624 105.551L107.045 105.989L107.462 106.419L107.876 106.841L108.287 107.255L108.693 107.66L109.096 108.057L109.495 108.445L109.89 108.825L110.281 109.197L110.668 109.56L111.051 109.914L111.429 110.26L111.802 110.597L112.171 110.926L112.535 111.246L112.894 111.557L113.248 111.86L113.597 112.154L113.941 112.439L114.279 112.715L114.613 112.983L114.94 113.242L115.262 113.492L115.578 113.733L115.889 113.966L116.193 114.189L116.491 114.404L116.783 114.61L117.069 114.808L117.349 114.996L117.622 115.176L117.889 115.347L118.149 115.509L118.402 115.663L118.648 115.808L118.888 115.944L119.12 116.071L119.346 116.19L119.564 116.3L119.775 116.402L119.978 116.495L120.175 116.579L120.363 116.655L120.544 116.723L120.718 116.782L120.883 116.832L121.041 116.874L121.191 116.908L121.333 116.934L121.467 116.951L121.592 116.96L121.71 116.961L121.819 116.954L121.92 116.939L122.012 116.915L122.096 116.884L122.172 116.845L122.239 116.798L122.297 116.744L122.347 116.681L122.388 116.611L122.42 116.534L122.443 116.448L122.457 116.356L122.463 116.256L122.459 116.148L122.446 116.034L122.425 115.912L122.394 115.783L122.354 115.647L122.305 115.505L122.246 115.355L122.179 115.198L122.102 115.035L122.015 114.865L121.92 114.689L121.815 114.506L121.701 114.317L121.577 114.122L121.444 113.92L121.301 113.712L121.149 113.498L120.988 113.278L120.817 113.053L120.637 112.822L120.447 112.585L120.247 112.342L120.039 112.094L119.82 111.841L119.592 111.582L119.355 111.318L119.108 111.049L118.852 110.775L118.587 110.497L118.311 110.213L118.027 109.925L117.733 109.632L117.43 109.335L117.117 109.033L116.795 108.728L116.464 108.418L116.123 108.104L115.773 107.786L115.414 107.464L115.046 107.138L114.669 106.809L114.282 106.477L113.887 106.141L113.482 105.801L113.069 105.459L112.646 105.113L112.215 104.765L111.775 104.413L111.326 104.059L110.868 103.702L110.402 103.343L109.927 102.981L109.444 102.617L108.952 102.251L108.451 101.882L107.943 101.512L107.426 101.14L106.901 100.766L106.367 100.39L105.826 100.013L105.277 99.6341L104.719 99.2541L104.154 98.8729L103.582 98.4905L103.001 98.1071L102.413 97.7229L101.818 97.3378L101.215 96.952L100.605 96.5657L99.9879 96.1789L99.3636 95.7917L98.7322 95.4042L98.094 95.0165L97.449 94.6288L96.7973 94.2411L96.139 93.8536L95.4742 93.4663L94.803 93.0794L94.1256 92.6929L93.442 92.3069L92.7524 91.9215L92.0569 91.5369L91.3555 91.1532L90.6485 90.7703L89.9359 90.3885L89.2179 90.0078L88.4945 89.6283L87.7659 89.2501L87.0322 88.8733L86.2936 88.498L85.5502 88.1243L84.802 87.7522L84.0493 87.3819L83.2922 87.0134L82.5307 86.6469L81.7651 86.2823L80.9954 85.9198L80.2218 85.5595L79.4445 85.2015L78.6636 84.8457L77.8791 84.4924L77.0913 84.1416L76.3003 83.7933L75.5063 83.4477L74.7093 83.1048L73.9096 82.7647L73.1072 82.4274L72.3023 82.093L71.4951 81.7616L70.6857 81.4333L69.8743 81.1081L69.0609 80.7861L68.2458 80.4673L67.4292 80.1518L66.6111 79.8397L65.7916 79.5311L64.9711 79.2259L64.1495 78.9242L63.3272 78.6262L62.5041 78.3318L61.6805 78.041L60.8565 77.754L60.0323 77.4709L59.2081 77.1915L58.3839 76.916L57.56 76.6445L56.7365 76.3769L55.9135 76.1134L55.0913 75.8538L54.2699 75.5984L53.4495 75.3471L52.6303 75.0999L51.8125 74.8569L50.9961 74.6181L50.1814 74.3836L49.3685 74.1533L48.5575 73.9273L47.7487 73.7057L46.9421 73.4884L46.138 73.2754L45.3364 73.0668L44.5376 72.8627L43.7417 72.6629L42.9488 72.4676L42.1591 72.2767L41.3727 72.0902L40.5899 71.9083L39.8107 71.7307L39.0353 71.5577L38.2639 71.3892L37.4966 71.2251L36.7335 71.0655L35.9749 70.9104L35.2207 70.7597L34.4713 70.6136L33.7268 70.4719L32.9872 70.3347L32.2528 70.2019L31.5236 70.0736L30.7999 69.9497L30.0818 69.8302L29.3693 69.7152L28.6628 69.6045L27.9622 69.4982L27.2677 69.3963L26.5795 69.2987L25.8977 69.2053L25.2224 69.1163L24.5538 69.0316L23.892 68.951L23.2372 68.8747L22.5894 68.8026L21.9488 68.7346L21.3155 68.6707L20.6896 68.6109L20.0714 68.5551L19.4608 68.5034L18.858 68.4556L18.2632 68.4117L17.6764 68.3717L17.0978 68.3356L16.5275 68.3033L15.9656 68.2747L15.4121 68.2498L14.8674 68.2286L14.3313 68.211L13.8041 68.197L13.2858 68.1865L12.7766 68.1794L12.2765 68.1757L11.7857 68.1754L11.3042 68.1784L10.8322 68.1847L10.3697 68.1941L9.91685 68.2066L9.47372 68.2222L9.0404 68.2408L8.61699 68.2624L8.20356 68.2868L7.8002 68.314L7.40699 68.344L7.024 68.3767L6.65133 68.4119L6.28904 68.4497L5.9372 68.49L5.59589 68.5328L5.26517 68.5778L4.94511 68.6251L4.63578 68.6746L4.33724 68.7262L4.04955 68.7799L3.77276 68.8356L3.50694 68.8931L3.25213 68.9525L3.00839 69.0136L2.77577 69.0764L2.55431 69.1409L2.34406 69.2068L2.14506 69.2741L1.95735 69.3429L1.78098 69.4129L1.61597 69.4841L1.46236 69.5565L1.32017 69.6298L1.18945 69.7042L1.07021 69.7794L0.962484 69.8555L0.866286 69.9323L0.781641 70.0097L0.708562 70.0876L0.647064 70.1661L0.597163 70.2449L0.558865 70.3241L0.532182 70.4035L0.517116 70.483L0.513672 70.5626L0.521851 70.6422L0.541649 70.7217L0.573065 70.801L0.61609 70.88L0.670716 70.9587L0.736931 71.0369L0.814725 71.1147L0.904078 71.1918L1.00498 71.2683L1.1174 71.3441L1.24132 71.419L1.37671 71.4929L1.52355 71.5659L1.68181 71.6378L1.85145 71.7085L2.03245 71.7781L2.22476 71.8462L2.42835 71.913L2.64317 71.9783L2.86918 72.0421L3.10634 72.1042L3.35459 72.1647L3.61389 72.2233L3.88419 72.2801L4.16542 72.335L4.45754 72.3878L4.76049 72.4386L5.07419 72.4872L5.3986 72.5336L5.73364 72.5777L6.07925 72.6194L6.43536 72.6587L6.80189 72.6955L7.17877 72.7297L7.56593 72.7613L7.96328 72.7902L8.37076 72.8163L8.78826 72.8395L9.21572 72.8599L9.65305 72.8772L10.1001 72.8916L10.5569 72.9029L11.0233 72.911L11.4992 72.9159L11.9845 72.9176L12.4791 72.9159L12.9829 72.9109L13.4958 72.9024L14.0178 72.8905L14.5486 72.875L15.0882 72.856L15.6365 72.8333L16.1934 72.8069L16.7588 72.7768L17.3325 72.7429L17.9144 72.7052L18.5045 72.6637L19.1026 72.6182L19.7086 72.5688L20.3223 72.5154L20.9437 72.458L21.5725 72.3965L22.2088 72.331L22.8524 72.2613L23.5031 72.1875L24.1608 72.1094L24.8254 72.0272L25.4967 71.9407L26.1746 71.8499L26.8591 71.7549L27.5498 71.6555L28.2468 71.5518L28.9499 71.4437L29.6589 71.3313L30.3736 71.2144L31.0941 71.0931L31.82 70.9675L32.5513 70.8373L33.2879 70.7027L34.0295 70.5637L34.776 70.4202L35.5274 70.2722L36.2833 70.1198L37.0438 69.9628L37.8086 69.8014L38.5777 69.6355L39.3507 69.4651L40.1277 69.2903L40.9084 69.1109L41.6927 68.9271L42.4804 68.7389L43.2714 68.5462L44.0655 68.349L44.8627 68.1475L45.6626 67.9415L46.4653 67.7311L47.2704 67.5164L48.0779 67.2973L48.8876 67.0739L49.6994 66.8462L50.5131 66.6142L51.3285 66.3779L52.1454 66.1374L52.9639 65.8927L53.7835 65.6438L54.6043 65.3908L55.4261 65.1337L56.2487 64.8725L57.0719 64.6073L57.8956 64.3381L58.7196 64.065L59.5438 63.7879L60.3681 63.507L61.1922 63.2223L62.016 62.9338L62.8394 62.6415L63.6622 62.3456L64.4843 62.0461L65.3055 61.743L66.1256 61.4364L66.9445 61.1263L67.762 60.8128L68.5781 60.496L69.3925 60.1759L70.205 59.8526L71.0157 59.5261L71.8242 59.1965L72.6305 58.8639L73.4343 58.5284L74.2357 58.1899L75.0343 57.8486L75.8301 57.5046L76.6229 57.1579L77.4126 56.8086L78.1991 56.4567L78.9821 56.1024L79.7616 55.7457L80.5374 55.3867L81.3094 55.0255L82.0774 54.6622L82.8414 54.2968L83.6011 53.9295L84.3565 53.5602L85.1073 53.1892L85.8536 52.8164L86.5951 52.442L87.3317 52.0661L88.0633 51.6887L88.7898 51.31L89.511 50.93L90.2268 50.5489L90.9372 50.1666L91.6419 49.7834L92.3409 49.3993L93.034 49.0143L93.7212 48.6287L94.4023 48.2425L95.0772 47.8558L95.7457 47.4687L96.4079 47.0813L97.0635 46.6937L97.7125 46.306L98.3548 45.9183L98.9902 45.5307L99.6187 45.1433L100.24 44.7563L100.855 44.3696L101.462 43.9835L102.061 43.598L102.654 43.2133L103.239 42.8294L103.816 42.4464L104.386 42.0645L104.947 41.6837L105.501 41.3042L106.047 40.9261L106.585 40.5495L107.115 40.1745L107.637 39.8012L108.151 39.4297L108.656 39.0601L109.153 38.6926L109.642 38.3272L110.122 37.964L110.593 37.6032L111.056 37.2449L111.51 36.8891L111.955 36.5361L112.392 36.1858L112.819 35.8384L113.238 35.4941L113.648 35.1528L114.049 34.8148L114.441 34.4802L114.824 34.149L115.197 33.8213L115.562 33.4973L115.917 33.1771L116.263 32.8607L116.6 32.5484L116.927 32.2401L117.246 31.936L117.554 31.6362L117.854 31.3408L118.144 31.0499L118.425 30.7636L118.696 30.482L118.958 30.2053L119.21 29.9334L119.453 29.6666L119.686 29.4048L119.91 29.1483L120.125 28.8971L120.33 28.6513L120.525 28.411L120.711 28.1763L120.888 27.9473L121.055 27.724L121.212 27.5067L121.361 27.2953L121.499 27.09L121.629 26.8908L121.748 26.6979L121.859 26.5113L121.96 26.3311L122.052 26.1574L122.134 25.9902L122.207 25.8298L122.271 25.676L122.326 25.5291L122.371 25.3892L122.407 25.2561L122.435 25.1302L122.453 25.0114L122.462 24.8997L122.462 24.7954L122.452 24.6984L122.435 24.6088L122.408 24.5267L122.372 24.4522L122.328 24.3852L122.274 24.326L122.213 24.2745L122.142 24.2308L122.063 24.1949L121.976 24.167L121.88 24.147L121.776 24.135L121.663 24.1312L121.542 24.1354L121.413 24.1479L121.276 24.1685L121.131 24.1975L120.978 24.2347L120.817 24.2803L120.648 24.3343L120.472 24.3967L120.287 24.4675L120.096 24.5469L119.896 24.6348L119.69 24.7313L119.476 24.8363L119.255 24.95L119.026 25.0724L118.791 25.2033L118.549 25.343L118.3 25.4914L118.044 25.6485L117.781 25.8144L117.512 25.989L117.236 26.1723L116.954 26.3645L116.665 26.5654L116.37 26.7751L116.07 26.9936L115.763 27.2209L115.45 27.457L115.132 27.7018L114.807 27.9555L114.478 28.2179L114.142 28.4891L113.802 28.7691L113.456 29.0578L113.104 29.3552L112.748 29.6613L112.387 29.9762L112.021 30.2997L111.65 30.6318L111.275 30.9726L110.895 31.322L110.511 31.6799L110.123 32.0464L109.73 32.4214L109.333 32.8048L108.932 33.1967L108.528 33.597L108.12 34.0056L107.708 34.4226L107.293 34.8478L106.874 35.2812L106.452 35.7227L106.027 36.1724L105.599 36.6301L105.168 37.0959L104.734 37.5696L104.298 38.0512L103.859 38.5406L103.418 39.0377L102.974 39.5426L102.528 40.0551L102.08 40.5751L101.63 41.1027L101.179 41.6376L100.725 42.1799L100.27 42.7295L99.8133 43.2862L99.3553 43.8501L98.8961 44.421L98.4357 44.9988L97.9742 45.5834L97.5118 46.1749L97.0487 46.773L96.5848 47.3777L96.1204 47.9888L95.6555 48.6064L95.1902 49.2303L94.7247 49.8604L94.2591 50.4966L93.7934 51.1388L93.3279 51.7869L92.8625 52.4408L92.3975 53.1003L91.9328 53.7655L91.4687 54.4361L91.0052 55.1121L90.5425 55.7933L90.0806 56.4797L89.6197 57.1711L89.1598 57.8674L88.701 58.5684L88.2435 59.2742L87.7874 59.9845L87.3327 60.6992L86.8796 61.4182L86.4281 62.1413L85.9784 62.8686L85.5305 63.5997L85.0846 64.3347L84.6407 65.0733L84.1989 65.8154L83.7594 66.5609L83.3221 67.3097L82.8873 68.0617L82.4549 68.8166L82.0251 69.5744L81.598 70.3349L81.1736 71.0981L80.752 71.8636L80.3333 72.6315L79.9177 73.4016L79.5051 74.1736L79.0956 74.9476L78.6894 75.7233L78.2864 76.5006L77.8868 77.2794L77.4907 78.0594L77.0981 78.8406L76.709 79.6229L76.3236 80.406L75.942 81.1899L75.5641 81.9743L75.19 82.7591L74.8199 83.5442L74.4537 84.3295L74.0915 85.1147L73.7335 85.8998L73.3795 86.6845L73.0298 87.4688L72.6843 88.2525L72.3431 89.0353L72.0063 89.8173L71.6738 90.5982L71.3458 91.3778L71.0223 92.1561L70.7033 92.9328L70.3888 93.7079L70.079 94.4811L69.7738 95.2524L69.4733 96.0215L69.1776 96.7883L68.8866 97.5527L68.6003 98.3145L68.3189 99.0735L68.0423 99.8297L67.7706 100.583L67.5038 101.333L67.2419 102.079L66.9849 102.822L66.7329 103.562L66.4859 104.298L66.2438 105.029L66.0068 105.757L65.7748 106.48L65.5478 107.2L65.3258 107.914L65.1089 108.624L64.8971 109.329L64.6903 110.029L64.4886 110.724L64.2919 111.414L64.1003 112.099L63.9138 112.777L63.7323 113.451L63.5559 114.118L63.3845 114.78L63.2181 115.435L63.0568 116.084L62.9005 116.727L62.7492 117.364L62.6029 117.994L62.4615 118.617L62.3251 119.233L62.1937 119.843L62.0671 120.445L61.9454 121.04L61.8286 121.627L61.7167 122.208L61.6095 122.78L61.5071 123.345L61.4095 123.902L61.3166 124.451L61.2284 124.992L61.1448 125.524L61.0659 126.049L60.9915 126.565L60.9216 127.072L60.8563 127.571L60.7954 128.061L60.7389 128.542L60.6868 129.014L60.639 129.477L60.5955 129.932L60.5563 130.376L60.5212 130.812L60.4902 131.238L60.4633 131.654L60.4404 132.061L60.4215 132.458L60.4065 132.845L60.3954 133.223L60.3881 133.59L60.3845 133.948L60.3845 134.295L60.3882 134.632L60.3955 134.959L60.4062 135.275L60.4204 135.581L60.438 135.876L60.4588 136.161L60.4829 136.436L60.5101 136.699L60.5404 136.952L60.5738 137.194L60.6101 137.425L60.6493 137.645L60.6913 137.855L60.736 138.053L60.7834 138.24L60.8334 138.416L60.8859 138.581L60.9409 138.734L60.9982 138.877L61.0578 139.008L61.1196 139.127L61.1835 139.236L61.2495 139.333L61.3175 139.418L61.3874 139.493L61.4591 139.555L61.5325 139.607L61.6076 139.646L61.6842 139.675L61.7623 139.691L61.8419 139.697L61.9228 139.69L62.0049 139.672L62.0882 139.643L62.1725 139.602L62.2579 139.549L62.3442 139.485L62.4313 139.409L62.5192 139.322L62.6077 139.223L62.6968 139.113L62.7864 138.991L62.8765 138.858L62.9668 138.713L63.0574 138.557L63.1482 138.39L63.2391 138.21L63.3299 138.02L63.4207 137.818L63.5113 137.605L63.6017 137.381L63.6917 137.145L63.7813 136.899L63.8705 136.641L63.959 136.372L64.0469 136.092L64.1341 135.801L64.2205 135.499L64.3059 135.186L64.3904 134.862L64.4739 134.527L64.5562 134.182L64.6373 133.826L64.7171 133.459L64.7956 133.082L64.8726 132.695L64.9481 132.297L65.0221 131.888L65.0943 131.47L65.1649 131.041L65.2336 130.602L65.3005 130.153L65.3654 129.694L65.4283 129.226L65.4892 128.747L65.5478 128.259L65.6043 127.761L65.6585 127.254L65.7103 126.738L65.7597 126.212L65.8066 125.677L65.851 125.133L65.8928 124.579L65.932 124.017L65.9684 123.447L66.002 122.867L66.0328 122.279L66.0607 121.683L66.0856 121.078L66.1076 120.465L66.1265 119.843L66.1423 119.214L66.1549 118.577L66.1644 117.932L66.1706 117.28L66.1735 116.62L66.173 115.953L66.1692 115.278L66.1619 114.597L66.1512 113.908L66.1369 113.212L66.1191 112.51L66.0978 111.801L66.0727 111.086L66.0441 110.364L66.0117 109.636L65.9757 108.903L65.9359 108.163L65.8923 107.417L65.8449 106.666L65.7936 105.909L65.7385 105.147L65.6796 104.38L65.6167 103.608L65.5499 102.831L65.4792 102.049L65.4045 101.262L65.3258 100.471L65.2432 99.6761L65.1566 98.8767L65.0659 98.0733L64.9713 97.266L64.8726 96.455L64.7699 95.6405L64.6631 94.8226L64.5523 94.0015L64.4375 93.1773L64.3187 92.3502L64.1958 91.5203L64.0689 90.6878L63.9379 89.8529L63.8029 89.0157L63.664 88.1763L63.521 87.3349L63.374 86.4918L63.2231 85.647L63.0682 84.8007L62.9093 83.953L62.7465 83.1042L62.5798 82.2543L62.4092 81.4036L62.2348 80.5522L62.0565 79.7003L61.8744 78.8479L61.6885 77.9954L61.4989 77.1427L61.3055 76.2902L61.1084 75.4379L60.9077 74.586L60.7033 73.7347L60.4954 72.8842L60.2839 72.0345L60.0688 71.1858L59.8503 70.3384L59.6284 69.4923L59.4031 68.6477L59.1745 67.8047L58.9425 66.9636L58.7073 66.1245L58.4689 65.2875L58.2274 64.4528L57.9828 63.6205L57.7351 62.7908L57.4845 61.9639L57.2309 61.1398L56.9745 60.3187L56.7153 59.5009L56.4533 58.6863L56.1886 57.8753L55.9214 57.0679L55.6515 56.2642L55.3792 55.4644L55.1045 54.6688L54.8274 53.8773L54.548 53.0901L54.2664 52.3074L53.9827 51.5293L53.6969 50.756L53.4091 49.9876L53.1195 49.2242L52.8279 48.4659L52.5346 47.7129L52.2397 46.9654L51.9431 46.2234L51.645 45.4871L51.3455 44.7565L51.0446 44.0319L50.7425 43.3134L50.4391 42.601L50.1347 41.8949L49.8293 41.1953L49.5229 40.5021L49.2157 39.8156L48.9078 39.1359L48.5991 38.4631L48.29 37.7972L47.9803 37.1384L47.6703 36.4869L47.36 35.8426L47.0495 35.2058L46.7389 34.5765L46.4283 33.9548L46.1177 33.3408L45.8074 32.7346L45.4974 32.1364L45.1877 31.5461L44.8785 30.964L44.5699 30.39L44.262 29.8243L43.9548 29.267L43.6485 28.7181L43.3432 28.1777L43.039 27.646L42.7359 27.1229L42.4342 26.6086L42.1338 26.1031L41.8348 25.6066L41.5375 25.119L41.2418 24.6405L40.948 24.1711L40.656 23.7108L40.366 23.2598L40.0781 22.8181L39.7924 22.3858L39.5089 21.9628L39.2279 21.5494L38.9494 21.1454L38.6735 20.751L38.4002 20.3663L38.1298 19.9912L37.8623 19.6258L37.5978 19.2701L37.3364 18.9242L37.0782 18.5882L36.8233 18.262L36.5718 17.9456L36.3238 17.6392L36.0794 17.3428L35.8388 17.0563L35.6019 16.7798L35.3689 16.5133L35.14 16.2568L34.9151 16.0104L34.6944 15.774L34.478 15.5477L34.266 15.3316L34.0585 15.1255L33.8556 14.9294L33.6573 14.7435L33.4637 14.5678L33.275 14.4021L33.0913 14.2465L32.9126 14.101L32.739 13.9656L32.5706 13.8402L32.4075 13.725L32.2497 13.6198L32.0975 13.5246L31.9508 13.4394L31.8097 13.3643L31.6744 13.2991L31.5448 13.2439L31.4211 13.1986L31.3034 13.1632L31.1917 13.1377L31.0861 13.122L30.9867 13.1161L30.8936 13.12L30.8068 13.1336L30.7264 13.1569L30.6525 13.1899L30.5852 13.2324L30.5245 13.2845L30.4704 13.3461L30.4231 13.4172L30.3826 13.4976L30.349 13.5875L30.3223 13.6866L30.3027 13.7949L30.29 13.9124L30.2845 14.0391L30.2862 14.1748L30.2951 14.3195L30.3112 14.4731L30.3347 14.6355L30.3656 14.8067L30.4039 14.9867L30.4496 15.1753L30.5029 15.3724L30.5637 15.5781L30.6321 15.7921L30.7081 16.0145L30.7918 16.2451L30.8833 16.4839L30.9824 16.7307L31.0894 16.9856L31.2041 17.2483L31.3267 17.5189L31.4571 17.7972L31.5955 18.0831L31.7417 18.3765L31.8959 18.6775L32.058 18.9857L32.2281 19.3012L32.4062 19.6239L32.5922 19.9536L32.7863 20.2903L32.9884 20.6338L33.1986 20.9841L33.4167 21.341L33.6429 21.7045L33.8772 22.0744L34.1195 22.4506L34.3698 22.8331L34.6282 23.2216L34.8946 23.6162L35.1691 24.0166L35.4516 24.4228L35.742 24.8347L36.0405 25.2521L36.347 25.6749L36.6614 26.1031L36.9838 26.5364L37.314 26.9749L37.6522 27.4183L37.9983 27.8666L38.3522 28.3196L38.714 28.7772L39.0835 29.2392L39.4608 29.7057L39.8458 30.1764L40.2385 30.6512L40.6389 31.1301L41.0468 31.6128L41.4624 32.0993L41.8854 32.5894L42.316 33.083L42.7539 33.58L43.1992 34.0803L43.6519 34.5837L44.1118 35.0901L44.579 35.5994L45.0533 36.1115L45.5347 36.6263L46.0231 37.1435L46.5186 37.6632L47.0209 38.1851L47.5301 38.7091L48.046 39.2352L48.5686 39.7632L49.0979 40.2929L49.6337 40.8243L50.176 41.3572L50.7247 41.8915L51.2798 42.4271L51.841 42.9638L52.4084 43.5015L52.9819 44.0402L53.5614 44.5796L54.1468 45.1197L54.738 45.6604L55.3348 46.2014L55.9374 46.7428L56.5454 47.2843L57.1588 47.8259L57.7776 48.3674L58.4017 48.9087L59.0308 49.4498L59.665 49.9904L60.3041 50.5305L60.948 51.07L61.5966 51.6087L62.2499 52.1465L62.9076 52.6833L63.5697 53.219L64.2361 53.7535L64.9066 54.2867L65.5812 54.8185L66.2596 55.3487L66.9419 55.8773L67.6279 56.4041L68.3174 56.929L69.0103 57.452L69.7066 57.9729L70.4061 58.4916L71.1086 59.0081L71.8141 59.5221L72.5224 60.0337L73.2334 60.5427L73.9469 61.0491L74.6629 61.5527L75.3811 62.0534L76.1015 62.5511L76.824 63.0458L77.5483 63.5374L78.2744 64.0257L79.0021 64.5107L79.7313 64.9923L80.4619 65.4705L81.1936 65.945L81.9265 66.4159L82.6602 66.883L83.3948 67.3464L84.13 67.8058L84.8657 68.2613L85.6018 68.7127L86.3381 69.1599L87.0745 69.603L87.8109 70.0419L88.547 70.4763L89.2828 70.9064L90.0181 71.332L90.7528 71.7531L91.4867 72.1696L92.2196 72.5814L92.9515 72.9885L93.6822 73.3908L94.4115 73.7883L95.1393 74.1809L95.8654 74.5685L96.5898 74.9512L97.3122 75.3288L98.0325 75.7013L98.7505 76.0687L99.4662 76.4308L100.179 76.7878L100.89 77.1395L101.597 77.4859L102.302 77.8269L103.004 78.1626L103.702 78.4928L104.397 78.8176L105.088 79.1369L105.776 79.4507L106.46 79.7589L107.14 80.0616L107.816 80.3587L108.487 80.6502L109.154 80.936L109.817 81.2162L110.475 81.4908L111.128 81.7596L111.776 82.0227L112.419 82.2802L113.057 82.5319L113.689 82.7779L114.316 83.0182L114.937 83.2527L115.553 83.4814L116.162 83.7045L116.766 83.9217L117.363 84.1333L117.954 84.3391L118.539 84.5392L119.117 84.7335L119.688 84.9221L120.253 85.105L120.811 85.2822L121.361 85.4538L121.905 85.6196L122.441 85.7799L122.97 85.9344L123.491 86.0834L124.004 86.2268L124.51 86.3646L125.008 86.4969L125.498 86.6236L125.98 86.7449L126.453 86.8607L126.918 86.9711L127.375 87.0761L127.823 87.1757L128.263 87.2701L128.694 87.3591L129.116 87.4428L129.529 87.5214L129.933 87.5948L130.328 87.6631L130.714 87.7263L131.09 87.7844L131.457 87.8376L131.814 87.8858L132.162 87.9292L132.5 87.9677L132.829 88.0014L133.147 88.0304L133.456 88.0547L133.755 88.0743L134.043 88.0894L134.322 88.1L134.59 88.1062L134.848 88.108L135.095 88.1054L135.333 88.0986L135.559 88.0876L135.775 88.0724L135.981 88.0532L136.176 88.0299L136.36 88.0028L136.533 87.9718L136.696 87.9369L136.848 87.8984L136.989 87.8562L137.118 87.8104L137.237 87.7611L137.345 87.7084L137.442 87.6523L137.528 87.5929L137.602 87.5303L137.665 87.4646L137.718 87.3958L137.759 87.3241L137.788 87.2495L137.807 87.172L137.814 87.0918L137.809 87.009L137.794 86.9235L137.767 86.8356L137.729 86.7453L137.679 86.6526L137.618 86.5577L137.546 86.4607L137.462 86.3615L137.367 86.2604L137.261 86.1574L137.143 86.0525L137.014 85.9459L136.873 85.8376L136.721 85.7278L136.558 85.6165L136.384 85.5038L136.198 85.3897L136.001 85.2745L135.793 85.1581L135.573 85.0406L135.343 84.9222L135.101 84.8029L134.848 84.6828L134.585 84.562L134.31 84.4406L134.024 84.3186L133.727 84.1962L133.419 84.0734L133.101 83.9503L132.771 83.827L132.431 83.7036L132.08 83.5801L131.719 83.4568L131.346 83.3335L130.964 83.2105L130.571 83.0877L130.167 82.9654L129.753 82.8435L129.329 82.7222L128.895 82.6015L128.451 82.4815L127.996 82.3622L127.532 82.2439L127.057 82.1265L126.573 82.0101L126.079 81.8948L125.576 81.7807L125.063 81.6679L124.54 81.5563L124.009 81.4462L123.468 81.3376L122.917 81.2304L122.358 81.125L121.79 81.0212L121.212 80.9191L120.626 80.8189L120.032 80.7206L119.429 80.6243L118.817 80.53L118.197 80.4378L117.569 80.3477L116.932 80.2599L116.288 80.1744L115.636 80.0912L114.976 80.0104L114.308 79.9321L113.633 79.8563L112.95 79.7831L112.26 79.7126L111.563 79.6447L110.859 79.5796L110.148 79.5173L109.431 79.4578L108.706 79.4013L107.975 79.3477L107.238 79.297L106.495 79.2494L105.745 79.205L104.99 79.1636L104.229 79.1254L103.462 79.0904L102.689 79.0587L101.911 79.0303L101.128 79.0051L100.34 78.9834L99.5471 78.965L98.7492 78.9501L97.9467 78.9386L97.1396 78.9306L96.3282 78.9262L95.5125 78.9252L94.6929 78.9279L93.8693 78.9341L93.042 78.9439L92.2111 78.9574L91.3767 78.9745L90.5391 78.9953L89.6983 79.0197L88.8546 79.0479L88.0081 79.0797L87.1589 79.1153L86.3073 79.1547L85.4533 79.1977L84.5971 79.2445L83.7389 79.2951L82.8788 79.3494L82.0171 79.4075L81.1538 79.4693L80.2891 79.5349L79.4232 79.6042L78.5563 79.6773L77.6885 79.7542L76.8199 79.8347L75.9508 79.919L75.0813 80.007L74.2115 80.0988L73.3416 80.1942L72.4718 80.2932L71.6023 80.396L70.7331 80.5024L69.8645 80.6124L68.9967 80.726L68.1297 80.8431L67.2637 80.9639L66.399 81.0881L65.5355 81.2159L64.6737 81.3471L63.8135 81.4817L62.9551 81.6198L62.0987 81.7612L61.2445 81.906L60.3926 82.0541L59.5431 82.2054L58.6963 82.36L57.8522 82.5177L57.0111 82.6786L56.173 82.8426L55.3382 83.0096L54.5067 83.1797L53.6788 83.3526L52.8546 83.5285L52.0342 83.7073L51.2178 83.8889L50.4055 84.0732L49.5975 84.2602L48.7939 84.4498L47.9949 84.6421L47.2006 84.8368L46.4111 85.0341L45.6266 85.2337L44.8473 85.4356L44.0732 85.6399L43.3046 85.8464L42.5415 86.055L41.784 86.2656L41.0324 86.4783L40.2867 86.693L39.5471 86.9095L38.8137 87.1278L38.0866 87.3479L37.366 87.5696L36.652 87.7928L35.9446 88.0176L35.2441 88.2438L34.5506 88.4714L33.8641 88.7002L33.1848 88.9303L32.5128 89.1614L31.8482 89.3936L31.1912 89.6267L30.5418 89.8607L29.9001 90.0955L29.2663 90.3309L28.6404 90.567L28.0226 90.8036L27.413 91.0407L26.8116 91.2781L26.2186 91.5157L25.6341 91.7536L25.0581 91.9915L24.4907 92.2295L23.9321 92.4673L23.3823 92.705L22.8415 92.9424L22.3096 93.1794L21.7868 93.416L21.2731 93.652L20.7687 93.8873L20.2736 94.122L19.7879 94.3558L19.3117 94.5887L18.8449 94.8206L18.3878 95.0513L17.9404 95.2808L17.5027 95.5091L17.0747 95.7359L16.6566 95.9613L16.2485 96.1851L15.8503 96.4072L15.4621 96.6275L15.084 96.8459L14.716 97.0624L14.3581 97.2768L14.0105 97.489L13.6731 97.699L13.3461 97.9066L13.0293 98.1118L12.7229 98.3145L12.4269 98.5145L12.1414 98.7118L11.8663 98.9062L11.6017 99.0977L11.3476 99.2863L11.104 99.4717L10.871 99.6539L10.6485 99.8328L10.4367 100.008L10.2354 100.18L10.0448 100.349L9.86475 100.514L9.69534 100.675L9.53657 100.832L9.38844 100.986L9.25093 101.135L9.12405 101.28L9.0078 101.421L8.90217 101.558L8.80715 101.69L8.72273 101.818L8.64889 101.942L8.58563 102.061L8.53291 102.175L8.49073 102.284L8.45905 102.389L8.43786 102.488L8.42713 102.583L8.42683 102.672L8.43693 102.756L8.4574 102.835L8.4882 102.909L8.52929 102.977L8.58064 103.04L8.64221 103.098L8.71394 103.149L8.7958 103.195L8.88774 103.236L8.98971 103.27L9.10165 103.299L9.22352 103.321L9.35526 103.338L9.49681 103.349L9.64811 103.353L9.80911 103.351L9.97973 103.343L10.1599 103.329L10.3496 103.308L10.5487 103.281L10.7572 103.248L10.9749 103.208L11.2019 103.161L11.438 103.108L11.6831 103.048L11.9373 102.982L12.2003 102.909L12.4721 102.829L12.7527 102.742L13.0419 102.648L13.3397 102.547L13.646 102.44L13.9606 102.325L14.2835 102.204L14.6146 102.075L14.9538 101.94L15.301 101.797L15.6561 101.647L16.019 101.49L16.3896 101.326L16.7678 101.155L17.1535 100.976L17.5465 100.791L17.9469 100.598L18.3544 100.398L18.769 100.19L19.1906 99.9759L19.619 99.7541L20.0542 99.525L20.4959 99.2886L20.9442 99.0449L21.3989 98.794L21.8598 98.5358L22.3269 98.2704L22.8001 97.9977L23.2791 97.7178L23.764 97.4306L24.2546 97.1362L24.7507 96.8345L25.2522 96.5257L25.759 96.2097L26.2711 95.8865L26.7882 95.5562L27.3102 95.2188L27.8371 94.8743L28.3686 94.5227L28.9047 94.164L29.4452 93.7984L29.99 93.4258L30.539 93.0462L31.092 92.6597L31.649 92.2664L32.2097 91.8663L32.7741 91.4593L33.342 91.0456L33.9133 90.6252L34.4878 90.1982L35.0655 89.7646L35.6462 89.3244L36.2297 88.8777L36.816 88.4245L37.4049 87.965L37.9962 87.4992L38.5898 87.0271L39.1857 86.5488L39.7836 86.0643L40.3835 85.5738L40.9852 85.0772L41.5885 84.5747L42.1934 84.0664L42.7997 83.5522L43.4073 83.0324L44.016 82.5069L44.6257 81.9758L45.2363 81.4392L45.8477 80.8972L46.4597 80.3499L47.0722 79.7973L47.685 79.2396L48.2981 78.6769L48.9113 78.1091L49.5245 77.5365L50.1375 76.959L50.7502 76.3769L51.3626 75.7901L51.9744 75.1988L52.5856 74.6032L53.196 74.0032L53.8055 73.399L54.414 72.7906L55.0213 72.1783L55.6274 71.5621L56.2321 70.9421L56.8353 70.3184L57.4368 69.6911L58.0367 69.0603L58.6347 68.4262L59.2307 67.7889L59.8246 67.1484L60.4164 66.5049L61.0058 65.8585L61.5928 65.2093L62.1773 64.5575L62.7591 63.9031L63.3382 63.2464L63.9144 62.5873L64.4877 61.926L65.0579 61.2627L65.6249 60.5974L66.1887 59.9304L66.7491 59.2617L67.306 58.5914L67.8594 57.9197L68.4091 57.2468L68.955 56.5727L69.4971 55.8975L70.0352 55.2214L70.5693 54.5446L71.0993 53.8672L71.625 53.1892L72.1465 52.5109L72.6635 51.8324L73.1761 51.1537L73.6842 50.4751L74.1876 49.7967L74.6863 49.1186L75.1802 48.441L75.6692 47.7639L76.1533 47.0876L76.6324 46.4121L77.1064 45.7376L77.5752 45.0643L78.0388 44.3922L78.4972 43.7216L78.9502 43.0525L79.3977 42.3851L79.8398 41.7196L80.2764 41.056L80.7074 40.3946L81.1327 39.7354L81.5523 39.0786L81.9662 38.4243L82.3742 37.7727L82.7764 37.1239L83.1727 36.4781L83.5631 35.8354L83.9474 35.1958L84.3258 34.5597L84.698 33.9271L85.0642 33.2981L85.4242 32.6729L85.778 32.0516L86.1256 31.4344L86.467 30.8213L86.8021 30.2126L87.1309 29.6083L87.4533 29.0087L87.7695 28.4137L88.0792 27.8237L88.3826 27.2386L88.6795 26.6587L88.97 26.084L89.2541 25.5147L89.5317 24.9509L89.8029 24.3928L90.0676 23.8404L90.3258 23.294L90.5775 22.7536L90.8228 22.2193L91.0615 21.6914L91.2938 21.1698L91.5195 20.6547L91.7388 20.1463L91.9516 19.6447L92.1579 19.15L92.3578 18.6622L92.5511 18.1816L92.7381 17.7082L92.9186 17.2422L93.0927 16.7836L93.2605 16.3326L93.4218 15.8893L93.5768 15.4538L93.7254 15.0262L93.8678 14.6066L94.0038 14.1952L94.1336 13.7919L94.2571 13.397L94.3745 13.0105L94.4857 12.6325L94.5908 12.2631L94.6897 11.9024L94.7826 11.5506L94.8695 11.2076L94.9504 10.8736L95.0254 10.5488L95.0944 10.233L95.1576 9.92657L95.215 9.62944L95.2667 9.34173L95.3126 9.06352L95.3528 8.79489L95.3875 8.53591L95.4166 8.28667L95.4401 8.04723L95.4583 7.81766L95.471 7.59804L95.4784 7.38843L95.4805 7.18889L95.4774 6.9995L95.4691 6.8203L95.4558 6.65137L95.4374 6.49276L95.4141 6.34452L95.3859 6.2067L95.3528 6.07937L95.315 5.96256L95.2724 5.85632L95.2253 5.76071L95.1736 5.67576L95.1174 5.60151L95.0568 5.538L94.9919 5.48527L94.9228 5.44335L94.8494 5.41227L94.772 5.39207L94.6905 5.38277L94.6051 5.3844L94.5158 5.39698L94.4227 5.42053L94.3259 5.45506L94.2255 5.5006L94.1216 5.55717L94.0142 5.62476L93.9034 5.7034L93.7893 5.79309L93.672 5.89383L93.5516 6.00563L93.4282 6.12849L93.3018 6.2624L93.1725 6.40737L93.0405 6.56338L92.9057 6.73043L92.7684 6.9085L92.6285 7.09759L92.4863 7.29768L92.3416 7.50875L92.1948 7.73078L92.0458 7.96374L91.8947 8.20762L91.7416 8.46239L91.5866 8.72801L91.4299 9.00446L91.2714 9.2917L91.1113 9.5897L90.9497 9.89842L90.7866 10.2178L90.6222 10.5478L90.4565 10.8885L90.2897 11.2396L90.1218 11.6013L89.9528 11.9734L89.783 12.3559L89.6124 12.7487L89.441 13.1518L89.269 13.5651L89.0965 13.9885L88.9235 14.4221L88.7501 14.8656L88.5765 15.3191L88.4026 15.7825L88.2287 16.2557L88.0547 16.7386L87.8808 17.2312L87.707 17.7334L87.5335 18.245L87.3603 18.766L87.1875 19.2964L87.0152 19.836L86.8435 20.3848L86.6724 20.9426L86.502 21.5093L86.3325 22.085L86.1638 22.6694L85.9961 23.2625L85.8295 23.8641L85.664 24.4742L85.4997 25.0927L85.3367 25.7194L85.1751 26.3542L85.0149 26.9972L84.8561 27.648L84.699 28.3066L84.5435 28.973L84.3898 29.6469L84.2378 30.3282L84.0877 31.017L83.9395 31.7129L83.7933 32.4159L83.6492 33.1259L83.5071 33.8428L83.3673 34.5663L83.2297 35.2965L83.0945 36.0331L82.9616 36.7761L82.8311 37.5252L82.7031 38.2804L82.5777 39.0415L82.4549 39.8084L82.3347 40.5809L82.2172 41.359L82.1025 42.1424L81.9906 42.9311L81.8815 43.7248L81.7753 44.5235L81.6721 45.3269L81.5719 46.135L81.4747 46.9476L81.3807 47.7646L81.2897 48.5857L81.2019 49.4109L81.1172 50.24L81.0359 51.0729L80.9577 51.9093L80.8829 52.7492L80.8114 53.5924L80.7433 54.4387L80.6786 55.2879L80.6173 56.14L80.5595 56.9948L80.5051 57.8521L80.4542 58.7117L80.4068 59.5735L80.363 60.4373L80.3228 61.303L80.2861 62.1704L80.253 63.0393L80.2235 63.9097L80.1976 64.7812L80.1753 65.6539L80.1567 66.5274L80.1418 67.4017L80.1304 68.2766L80.1228 69.1519L80.1188 70.0274L80.1184 70.9031L80.1218 71.7786L80.1287 72.654L80.1394 73.529L80.1537 74.4034L80.1716 75.2771L80.1932 76.1499L80.2184 77.0217L80.2472 77.8922L80.2797 78.7615L80.3157 79.6292L80.3553 80.4952L80.3984 81.3594L80.4452 82.2216L80.4954 83.0816L80.5491 83.9393L80.6063 84.7945L80.667 85.6471L80.7311 86.4969L80.7986 87.3438L80.8694 88.1876L80.9436 89.0281L81.0211 89.8652L81.1019 90.6987L81.1859 91.5285L81.2732 92.3544L81.3636 93.1763L81.4571 93.9941L81.5537 94.8075L81.6533 95.6164L81.756 96.4208L81.8616 97.2203L81.9701 98.015L82.0815 98.8046L82.1957 99.589L82.3127 100.368L82.4324 101.142L82.5547 101.91L82.6797 102.672L82.8072 103.428L82.9372 104.178L83.0697 104.922L83.2045 105.66L83.3417 106.392L83.4811 107.116L83.6227 107.835L83.7664 108.546L83.9122 109.25L84.0601 109.947L84.2098 110.637L84.3615 111.32L84.5149 111.996L84.6701 112.663L84.8269 113.323L84.9853 113.976L85.1453 114.62L85.3067 115.256L85.4694 115.885L85.6335 116.505L85.7988 117.116L85.9652 117.719L86.1327 118.314L86.3012 118.9L86.4705 119.477L86.6407 120.046L86.8117 120.605L86.9833 121.156L87.1556 121.697L87.3283 122.229L87.5014 122.752L87.6749 123.265L87.8486 123.769L88.0225 124.264L88.1964 124.748L88.3704 125.223L88.5443 125.689L88.718 126.144L88.8914 126.589L89.0645 127.025L89.2371 127.45L89.4092 127.865L89.5807 128.27L89.7515 128.665L89.9214 129.049L90.0905 129.423L90.2586 129.787L90.4257 130.14L90.5916 130.483L90.7563 130.815L90.9196 131.136L91.0815 131.447L91.2419 131.747L91.4007 132.036L91.5577 132.314L91.713 132.582L91.8665 132.839L92.0179 133.085L92.1673 133.32L92.3146 133.544L92.4596 133.757L92.6024 133.959L92.7427 134.15L92.8805 134.33L93.0157 134.499L93.1482 134.657L93.278 134.804L93.405 134.94L93.529 135.065L93.6499 135.179L93.7678 135.282L93.8825 135.374L93.9939 135.454L94.1019 135.524L94.2065 135.583L94.3076 135.63L94.4051 135.667L94.4988 135.692L94.5888 135.707L94.675 135.711L94.7572 135.703L94.8354 135.685L94.9095 135.656L94.9794 135.616L95.0451 135.565L95.1065 135.504L95.1635 135.432L95.2161 135.349L95.264 135.255L95.3074 135.151L95.3461 135.036L95.3801 134.91L95.4092 134.775L95.4335 134.628L95.4528 134.472L95.4671 134.305L95.4763 134.127L95.4803 133.94L95.4792 133.742L95.4728 133.534L95.461 133.317L95.4439 133.089L95.4213 132.851L95.3933 132.604L95.3597 132.347L95.3205 132.08L95.2756 131.803L95.225 131.517L95.1687 131.222L95.1066 130.917L95.0386 130.603L94.9648 130.28L94.885 129.948L94.7992 129.606L94.7074 129.256L94.6096 128.897L94.5056 128.529L94.3956 128.153L94.2794 127.768L94.157 127.375L94.0283 126.973L93.8934 126.563L93.7523 126.145L93.6048 125.719L93.451 125.285L93.2908 124.843L93.1243 124.393L92.9514 123.936L92.772 123.471L92.5863 122.999L92.3941 122.52L92.1954 122.034L91.9903 121.54L91.7787 121.04L91.5606 120.533L91.3361 120.019L91.105 119.499L90.8675 118.972L90.6235 118.439L90.3729 117.899L90.1159 117.354L89.8524 116.803L89.5825 116.246L89.306 115.683L89.0232 115.115L88.7338 114.541L88.4381 113.962L88.1359 113.378L87.8273 112.789L87.5124 112.195L87.1911 111.596L86.8635 110.992L86.5296 110.385L86.1894 109.772L85.8429 109.156L85.4902 108.535L85.1314 107.911L84.7663 107.283L84.3952 106.651L84.018 106.015L83.6348 105.376L83.2455 104.734L82.8503 104.089L82.4492 103.441L82.0422 102.789L81.6294 102.136L81.2109 101.479L80.7866 100.821L80.3567 100.159L79.9212 99.4963L79.4801 98.8311L79.0335 98.1641L78.5815 97.4953L78.1242 96.8249L77.6615 96.1531L77.1937 95.48L76.7206 94.8057L76.2425 94.1304L75.7593 93.4543L75.2712 92.7773L74.7782 92.0998L74.2803 91.4217L73.7778 90.7434L73.2706 90.0648L72.7589 89.3861L72.2426 88.7076L71.722 88.0292L71.197 87.3512L70.6678 86.6736L70.1345 85.9967L69.5971 85.3205L69.0557 84.6451L68.5105 83.9708L67.9615 83.2976L67.4088 82.6257L66.8525 81.9552L66.2928 81.2862L65.7296 80.6188L65.1632 79.9532L64.5936 79.2895L64.0209 78.6279L63.4452 77.9684L62.8666 77.3112L62.2853 76.6563L61.7013 76.004L61.1147 75.3544L60.5258 74.7074L59.9344 74.0634L59.3409 73.4223L58.7453 72.7844L58.1476 72.1497L57.5481 71.5183L56.9469 70.8904L56.344 70.266L55.7395 69.6453L55.1337 69.0284L54.5266 68.4153L53.9183 67.8062L53.309 67.2012L52.6988 66.6005L52.0877 66.004L51.476 65.4119L50.8637 64.8243L50.251 64.2413L49.6381 63.663L49.0249 63.0894L48.4117 62.5207L47.7986 61.957L47.1857 61.3984L46.5731 60.8449L45.9611 60.2966L45.3496 59.7536L44.7388 59.216L44.1289 58.6839L43.52 58.1574L42.9122 57.6364L42.3057 57.1212L41.7005 56.6118L41.0969 56.1082L40.4949 55.6106L39.8947 55.1189L39.2964 54.6333L38.7001 54.1539L38.106 53.6806L37.5142 53.2136L36.9249 52.7529L36.3382 52.2986L35.7541 51.8507L35.1729 51.4093L34.5947 50.9744L34.0195 50.5462L33.4476 50.1245L32.8791 49.7096L32.314 49.3014L31.7526 48.9L31.195 48.5054L30.6412 48.1176L30.0914 47.7368L29.5458 47.3629L29.0045 46.996L28.4676 46.636L27.9352 46.2831L27.4075 45.9373L26.8845 45.5985L26.3665 45.2669L25.8535 44.9424L25.3457 44.6251L24.8432 44.3149L24.3461 44.012L23.8545 43.7162L23.3686 43.4277L22.8884 43.1464L22.4142 42.8723L21.9459 42.6056L21.4838 42.346L21.028 42.0938L20.5785 41.8488L20.1355 41.6111L19.6992 41.3806L19.2695 41.1574L18.8466 40.9415L18.4307 40.7328L18.0219 40.5314L17.6202 40.3372L17.2257 40.1502L16.8387 39.9704L16.4591 39.7979L16.0871 39.6325L15.7227 39.4742L15.3662 39.3231L15.0175 39.1791L14.6768 39.0422L14.3442 38.9123L14.0198 38.7895L13.7036 38.6737L13.3958 38.5648L13.0965 38.4629L12.8057 38.3679L12.5235 38.2798L12.25 38.1985L11.9853 38.124L11.7296 38.0562L11.4827 37.9951L11.2449 37.9407L11.0163 37.893L10.7968 37.8517L10.5866 37.817L10.3858 37.7888L10.1943 37.767L10.0124 37.7516L9.84 37.7424L9.67722 37.7396L9.52411 37.7429L9.38075 37.7523L9.24719 37.7679L9.12349 37.7894L9.0097 37.8169L8.90588 37.8503L8.81208 37.8895L8.72835 37.9345L8.65473 37.9852L8.59128 38.0415L8.53804 38.1033L8.49504 38.1706L8.46233 38.2433L8.43995 38.3214L8.42792 38.4047L8.42629 38.4932L8.43509 38.5868L8.45433 38.6854L8.48406 38.789L8.5243 38.8975L8.57506 39.0107L8.63637 39.1287L8.70825 39.2513L8.79071 39.3784L8.88376 39.51L8.98743 39.646L9.10171 39.7862L9.22662 39.9307L9.36215 40.0793L9.50832 40.2319L9.66512 40.3884L9.83255 40.5488L10.0106 40.713L10.1993 40.8808L10.3986 41.0522L10.6085 41.2271L10.829 41.4055L11.06 41.5871L11.3016 41.7719L11.5538 41.9599L11.8164 42.1508L12.0896 42.3448L12.3732 42.5415L12.6673 42.741L12.9717 42.9432L13.2866 43.1479L13.6118 43.3551L13.9472 43.5647L14.2929 43.7765L14.6489 43.9905L15.015 44.2066L15.3913 44.4247L15.7776 44.6446L16.1739 44.8664L16.5803 45.0899L16.9965 45.3149L17.4226 45.5415L17.8585 45.7695L18.3042 45.9988L18.7595 46.2294L19.2245 46.461L19.6989 46.6937L20.1829 46.9274L20.6763 47.1619L21.179 47.3971L21.6909 47.633L22.212 47.8695L22.7422 48.1064L23.2814 48.3438L23.8296 48.5814L24.3866 48.8192L24.9523 49.0571L25.5267 49.2951L26.1097 49.533L26.7011 49.7707L27.3009 50.0081L27.909 50.2453L28.5253 50.482L29.1497 50.7181L29.782 50.9537L30.4223 51.1886L31.0703 51.4228L31.7259 51.6561L32.3891 51.8884L33.0597 52.1198L33.7377 52.35L34.4228 52.5791L35.1151 52.8069L35.8143 53.0333L36.5204 53.2584L37.2332 53.4819L37.9526 53.7039L38.6785 53.9243L39.4107 54.1429L40.1492 54.3598L40.8938 54.5748L41.6443 54.7879L42.4007 54.9989L43.1627 55.2079L43.9304 55.4148L44.7034 55.6194L45.4818 55.8218L46.2654 56.0219L47.0539 56.2196L47.8473 56.4148L48.6455 56.6075L49.4482 56.7976L50.2554 56.9851L51.0669 57.17L51.8826 57.352L52.7023 57.5313L53.5258 57.7077L54.353 57.8813L55.1838 58.0519L56.018 58.2195L56.8555 58.384L57.6961 58.5455L58.5396 58.7038L59.386 58.8589L60.235 59.0109L61.0864 59.1596L61.9403 59.3049L62.7962 59.447L63.6543 59.5857L64.5141 59.721L65.3757 59.8528L66.2388 59.9812L67.1034 60.1062L67.9691 60.2275L68.8359 60.3454L69.7037 60.4596L70.5721 60.5703L71.4412 60.6773L72.3107 60.7808L73.1805 60.8805L74.0503 60.9766L74.9201 61.069L75.7897 61.1577L76.6589 61.2427L77.5276 61.324L78.3956 61.4015L79.2627 61.4753L80.1288 61.5453L80.9937 61.6116L81.8572 61.6741L82.7193 61.7329L83.5796 61.7879L84.4382 61.8391L85.2948 61.8867L86.1492 61.9304L87.0013 61.9704L87.8509 62.0067L88.698 62.0393L89.5422 62.0681L90.3835 62.0933L91.2217 62.1147L92.0567 62.1325L92.8883 62.1466L93.7163 62.1571L94.5405 62.164L95.3609 62.1673L96.1773 62.167L96.9896 62.1632L97.7974 62.1559L98.6009 62.145L99.3996 62.1308L100.194 62.113L100.983 62.0919L101.767 62.0674L102.546 62.0396L103.319 62.0085L104.087 61.9741L104.849 61.9365L105.606 61.8957L106.356 61.8518L107.101 61.8048L107.839 61.7547L108.571 61.7017L109.297 61.6456L110.016 61.5867L110.728 61.5249L111.433 61.4603L112.132 61.393L112.823 61.3229L113.507 61.2502L114.183 61.1749L114.852 61.097L115.514 61.0167L116.168 60.934L116.813 60.8489L117.451 60.7615L118.081 60.6718L118.703 60.58L119.316 60.4861L119.921 60.3901L120.517 60.2922L121.104 60.1923L121.683 60.0906L122.253 59.9872L122.814 59.882L123.366 59.7752L123.909 59.6668L124.443 59.5569L124.967 59.4457L125.482 59.3331L125.987 59.2192L126.482 59.1041L126.968 58.9879L127.444 58.8707L127.911 58.7525L128.367 58.6335L128.813 58.5136L129.25 58.393L129.676 58.2718L130.091 58.15L130.497 58.0277L130.892 57.9051L131.276 57.7821L131.65 57.6589L132.014 57.5355L132.367 57.4121L132.709 57.2886L133.04 57.1653L133.361 57.0422L133.671 56.9193L133.97 56.7968L134.258 56.6748L134.534 56.5532L134.8 56.4323L135.055 56.312L135.299 56.1926L135.532 56.074L135.753 55.9564L135.963 55.8398L136.162 55.7243L136.35 55.61L136.527 55.4971L136.692 55.3855L136.846 55.2754L136.988 55.1668L137.12 55.0599L137.24 54.9547L137.348 54.8513L137.445 54.7498L137.531 54.6503L137.606 54.5528L137.669 54.4575L137.72 54.3645L137.761 54.2737L137.79 54.1853L137.807 54.0994L137.814 54.0161L137.809 53.9354L137.792 53.8575L137.765 53.7823L137.726 53.71L137.676 53.6407L137.615 53.5744L137.542 53.5112L137.459 53.4513L137.364 53.3946L137.258 53.3412L137.141 53.2912L137.014 53.2448L136.875 53.2019L136.725 53.1627L136.564 53.1272L136.393 53.0954L136.211 53.0676L136.018 53.0436L135.814 53.0236L135.6 53.0077L135.375 52.9959L135.14 52.9883L134.894 52.9849L134.638 52.9859L134.372 52.9912L134.096 53.001L133.809 53.0153L133.512 53.0341L133.205 53.0575L132.888 53.0857L132.562 53.1185L132.226 53.1561L131.879 53.1985L131.524 53.2459L131.159 53.2981L130.784 53.3553L130.4 53.4176L130.007 53.4849L129.605 53.5574L129.193 53.635L128.773 53.7178L128.344 53.8058L127.906 53.8992L127.459 53.9978L127.004 54.1018L126.54 54.2112L126.068 54.326L125.588 54.4462L125.099 54.572L124.603 54.7032L124.099 54.84L123.587 54.9824L123.067 55.1303L122.539 55.2838L122.005 55.443L121.463 55.6078L120.913 55.7783L120.357 55.9545L119.794 56.1363L119.223 56.3239L118.647 56.5172L118.063 56.7162L117.473 56.9209L116.877 57.1314L116.275 57.3476L115.666 57.5696L115.052 57.7973L114.431 58.0307L113.806 58.2699L113.174 58.5149L112.537 58.7655L111.895 59.0219L111.248 59.284L110.596 59.5518L109.939 59.8252L109.277 60.1044L108.611 60.3892L107.94 60.6796L107.265 60.9757L106.586 61.2773L105.903 61.5846L105.216 61.8973L104.525 62.2156L103.831 62.5394L103.133 62.8686L102.432 63.2032L101.728 63.5433L101.021 63.8887L100.311 64.2394L99.5985 64.5954L98.8833 64.9566L98.1657 65.323L97.4458 65.6946L96.7238 66.0712L95.9998 66.453L95.274 66.8397L94.5465 67.2314L93.8174 67.6279L93.087 68.0294L92.3553 68.4356L91.6226 68.8465L90.8888 69.2621L90.1543 69.6824L89.4191 70.1071L88.6834 70.5364L87.9473 70.9701L87.211 71.4081L86.4746 71.8504L85.7383 72.2969L85.0021 72.7476L84.2663 73.2023L83.531 73.661L82.7963 74.1236L82.0624 74.59L81.3294 75.0602L80.5974 75.5341L79.8666 76.0116L79.1371 76.4925L78.4091 76.9769L77.6827 77.4647L76.9581 77.9556L76.2353 78.4497L75.5145 78.9469L74.7958 79.4471L74.0794 79.9502L73.3654 80.456L72.6539 80.9645L71.9451 81.4757L71.2391 81.9893L70.536 82.5053L69.836 83.0236L69.1391 83.5441L68.4455 84.0667L67.7554 84.5913L67.0687 85.1177L66.3858 85.646L65.7066 86.1759L65.0313 86.7074L64.36 87.2403L63.6929 87.7746L63.03 88.3101L62.3714 88.8467L61.7174 89.3844L61.0679 89.9229L60.4231 90.4622L59.7831 91.0022L59.148 91.5428L58.5179 92.0837L57.8929 92.625L57.2731 93.1665L56.6587 93.7081L56.0496 94.2497L55.4461 94.7911L54.8481 95.3322L54.2559 95.8729L53.6694 96.4131L53.0889 96.9527L52.5143 97.4915L51.9457 98.0294L51.3833 98.5663L50.8271 99.1021L50.2772 99.6367L49.7337 100.17L49.1967 100.702L48.6662 101.232L48.1423 101.76L47.6252 102.286L47.1147 102.811L46.6111 103.333L46.1144 103.853L45.6247 104.371L45.142 104.886L44.6663 105.399L44.1979 105.908L43.7366 106.415L43.2826 106.919L42.8359 107.42L42.3965 107.918L41.9646 108.412L41.5402 108.903L41.1233 109.39L40.7139 109.874L40.3121 110.353L39.918 110.829L39.5316 111.3L39.1528 111.767L38.7819 112.23L38.4187 112.689L38.0633 113.143L37.7158 113.592L37.3761 114.036L37.0444 114.475L36.7205 114.91L36.4046 115.339L36.0967 115.763L35.7967 116.181L35.5048 116.594L35.2208 117.001L34.9449 117.403L34.677 117.798L34.4171 118.188L34.1653 118.572L33.9215 118.949L33.6857 119.32L33.458 119.685L33.2384 120.043L33.0268 120.395L32.8232 120.739L32.6276 121.077L32.44 121.408L32.2605 121.732L32.0889 122.049L31.9253 122.359L31.7697 122.661L31.622 122.956L31.4822 123.243L31.3503 123.523L31.2262 123.795L31.11 124.059L31.0017 124.315L30.9011 124.564L30.8082 124.804L30.7231 125.036L30.6456 125.26L30.5758 125.476L30.5136 125.683L30.4589 125.882L30.4118 126.072L30.3721 126.253L30.3399 126.426L30.315 126.59L30.2975 126.746L30.2873 126.892L30.2843 127.029L30.2885 127.158L30.2998 127.277L30.3182 127.387L30.3435 127.488L30.3759 127.579L30.4151 127.661L30.4611 127.734L30.5139 127.798L30.5734 127.851L30.6396 127.896L30.7123 127.93L30.7914 127.956L30.8771 127.971L30.969 127.977L31.0672 127.973L31.1717 127.959L31.2822 127.935L31.3988 127.901L31.5214 127.858L31.6499 127.805L31.7842 127.741L31.9242 127.668L32.0699 127.585L32.2211 127.491L32.3778 127.388L32.5399 127.275L32.7074 127.151L32.88 127.018L33.0578 126.874L33.2406 126.72L33.4284 126.556L33.621 126.383L33.8185 126.199L34.0206 126.004L34.2272 125.8L34.4384 125.586L34.654 125.361L34.8739 125.127L35.098 124.882L35.3262 124.628L35.5584 124.363L35.7946 124.089L36.0346 123.804L36.2782 123.509L36.5256 123.205L36.7764 122.89L37.0307 122.566L37.2883 122.232L37.5491 121.887L37.813 121.534L38.08 121.17L38.3499 120.797L38.6226 120.414L38.8981 120.021L39.1761 119.619L39.4567 119.207L39.7397 118.786L40.025 118.355L40.3125 117.916L40.6021 117.466L40.8937 117.008L41.1873 116.54L41.4826 116.063L41.7796 115.577L42.0783 115.082L42.3784 114.578L42.6799 114.066L42.9827 113.544L43.2868 113.014L43.5919 112.475L43.898 111.928L44.205 111.372L44.5128 110.808L44.8213 110.236L45.1304 109.655L45.4399 109.066L45.7499 108.47L46.0602 107.865L46.3707 107.252L46.6813 106.632L46.9919 106.004L47.3025 105.369L47.6128 104.726L47.9229 104.076L48.2326 103.418L48.5419 102.754L48.8506 102.082L49.1587 101.404L49.466 100.718L49.7726 100.026L50.0782 99.328L50.3828 98.6231L50.6864 97.9119L50.9887 97.1944L51.2898 96.471L51.5896 95.7415L51.888 95.0063L52.1848 94.2653L52.4801 93.5188L52.7737 92.7668L53.0656 92.0095L53.3556 91.247L53.6437 90.4795L53.9299 89.7071L54.214 88.9299L54.496 88.1481L54.7758 87.3617L55.0533 86.571L55.3285 85.7761L55.6013 84.9771L55.8715 84.1741L56.1393 83.3674L56.4045 82.557L56.6669 81.7431L56.9267 80.9258L57.1836 80.1054L57.4377 79.2818L57.6889 78.4554L57.9371 77.6262L58.1823 76.7944L58.4244 75.9601L58.6634 75.1235L58.8992 74.2848L59.1317 73.444L59.361 72.6014L59.5869 71.7571L59.8095 70.9113L60.0286 70.0641L60.2443 69.2156L60.4564 68.3661L60.6651 67.5157L60.8701 66.6645L61.0715 65.8128L61.2693 64.9605L61.4633 64.108L61.6537 63.2554L61.8402 62.4028L62.0231 61.5504L62.2021 60.6984L62.3772 59.8469L62.5485 58.996L62.7159 58.146L62.8794 57.297L63.039 56.4491L63.1947 55.6025L63.3463 54.7574L63.4941 53.9139L63.6378 53.0722L63.7775 52.2325L63.9132 51.3949L64.0449 50.5595L64.1726 49.7265L64.2962 48.8961L64.4158 48.0685L64.5314 47.2437L64.6429 46.422L64.7504 45.6035L64.8538 44.7884L64.9533 43.9768L65.0487 43.1688L65.1401 42.3646L65.2274 41.5645L65.3108 40.7684L65.3902 39.9767L65.4656 39.1893L65.5371 38.4065L65.6046 37.6285L65.6682 36.8553L65.7279 36.0872L65.7837 35.3242L65.8357 34.5665L65.8838 33.8143L65.9281 33.0677L65.9686 32.3268L66.0053 31.5918L66.0384 30.8629L66.0677 30.1401L66.0934 29.4236L66.1154 28.7135L66.1339 28.01L66.1488 27.3132L66.1602 26.6233L66.1681 25.9403L66.1726 25.2644L66.1736 24.5957L66.1714 23.9344L66.1658 23.2806L66.1569 22.6344L66.1449 21.9959L66.1297 21.3653L66.1113 20.7426L66.0899 20.1281L66.0655 19.5217L66.0382 18.9236L66.0079 18.334L65.9748 17.7529L65.9389 17.1805L65.9003 16.6169L65.859 16.0621L65.8151 15.5162L65.7686 14.9795L65.7196 14.4519L65.6682 13.9336L65.6145 13.4247L65.5585 12.9253L65.5002 12.4354L65.4398 11.9552L65.3772 11.4847L65.3127 11.024L65.2461 10.5733L65.1777 10.1325L65.1075 9.70188L65.0356 9.28139L64.9619 8.87113L64.8867 8.47119L64.81 8.08163L64.7317 7.70254L64.6522 7.33397L64.5713 6.976L64.4892 6.62869L64.406 6.2921L64.3217 5.96629L64.2364 5.65133L64.1502 5.34726L64.0631 5.05414L63.9754 4.77203L63.8869 4.50097L63.7979 4.24101L63.7084 3.99219L63.6184 3.75456L63.5281 3.52816L63.4375 3.31303L63.3468 3.10919L63.2559 2.91669L63.165 2.73556L63.0742 2.56582L62.9836 2.4075L62.8932 2.26062L62.8031 2.12522L62.7134 2.0013L62.6242 1.88888L62.5355 1.78798L62.4475 1.69862L62.3603 1.62079L62.2738 1.55452L62.1883 1.4998L62.1037 1.45663L62.0202 1.42503L61.9379 1.40498L61.8568 1.39648L61.777 1.39953L61.6986 1.41413L61.6216 1.44024L61.5463 1.47787L61.4725 1.527L61.4005 1.58761L61.3303 1.65968L61.262 1.74318L61.1956 1.8381L61.1313 1.9444L61.0691 2.06206L61.0091 2.19105L60.9513 2.33132L60.8959 2.48285L60.8429 2.64559L60.7925 2.8195L60.7446 3.00455L60.6994 3.20069L60.6568 3.40786L60.6171 3.62602L60.5803 3.85512L60.5464 4.0951L60.5155 4.34591L60.4877 4.60748L60.463 4.87976L60.4416 5.16269L60.4234 5.4562L60.4086 5.76022L60.3972 6.07469L60.3893 6.39953L60.385 6.73466L60.3842 7.08003L60.3871 7.43554L60.3938 7.80112L60.4042 8.17669L60.4185 8.56216L60.4366 8.95745L60.4588 9.36248L60.4849 9.77715L60.5151 10.2014L60.5494 10.6351L60.5879 11.0781L60.6307 11.5304L60.6776 11.9919L60.7289 12.4625L60.7846 12.9421L60.8447 13.4305L60.9092 13.9277L60.9782 14.4335L61.0517 14.9479L61.1298 15.4707L61.2125 16.0019L61.2999 16.5412L61.3919 17.0887L61.4887 17.6442L61.5902 18.2075L61.6965 18.7786L61.8075 19.3573L61.9234 19.9435L62.0442 20.5371L62.1699 21.138L62.3004 21.746L62.4359 22.361L62.5763 22.9829L62.7217 23.6116L62.8721 24.2469L63.0275 24.8886L63.1879 25.5368L63.3533 26.1911L63.5237 26.8516L63.6992 27.5179L63.8798 28.1902L64.0654 28.868L64.256 29.5515L64.4517 30.2403L64.6525 30.9344L64.8584 31.6336L65.0693 32.3378L65.2853 33.0468L65.5063 33.7605L65.7323 34.4787L65.9634 35.2013L66.1995 35.9283L66.4406 36.6593L66.6867 37.3942L66.9378 38.133L67.1939 38.8754L67.4549 39.6214L67.7208 40.3707L67.9916 41.1233L68.2673 41.8789L68.5478 42.6374L68.8332 43.3987L69.1233 44.1626L69.4182 44.929L69.7178 45.6977L70.0221 46.4686L70.3311 47.2414L70.6446 48.0162L70.9628 48.7926L71.2855 49.5706L71.6127 50.35L71.9443 51.1307L72.2804 51.9124L72.6207 52.6952L72.9654 53.4787L73.3144 54.2628L73.6676 55.0475L74.0249 55.8325L74.3863 56.6177L74.7517 57.403L75.1211 58.1882L75.4945 58.9731L75.8716 59.7576L76.2526 60.5415L76.6373 61.3248L77.0257 62.1072L77.4177 62.8887L77.8132 63.669L78.2121 64.448L78.6144 65.2256L79.0201 66.0016L79.4289 66.7759L79.841 67.5483L80.2561 68.3187L80.6742 69.087L81.0952 69.853L81.5191 70.6166L81.9457 71.3776L82.3751 72.1359L82.8069 72.8914L83.2413 73.6439L83.6782 74.3933L84.1173 75.1395L84.5587 75.8822L85.0022 76.6215L85.4477 77.3572L85.8953 78.089L86.3447 78.817L86.7958 79.5409L87.2486 80.2607L87.703 80.9762L88.1589 81.6873L88.6161 82.3939L89.0747 83.0959L89.5344 83.793L89.9951 84.4853L90.4568 85.1726L90.9194 85.8548L91.3828 86.5318L91.8468 87.2034L92.3113 87.8696L92.7763 88.5302L93.2416 89.1852L93.7072 89.8343L94.1728 90.4776L94.6384 91.1149L95.104 91.7462L95.5693 92.3712L96.0343 92.99L96.4988 93.6023L96.9628 94.2082L97.4261 94.8076L97.8886 95.4002L98.3502 95.9862L98.8108 96.5653L99.2703 97.1374L99.7285 97.7026L100.185 98.2607L100.641 98.8116L101.095 99.3552L101.547 99.8915L101.997 100.42L102.445 100.942L102.892 101.456L103.336 101.962L103.777 102.461L104.217 102.952L104.654 103.435L105.088 103.91L105.519 104.377L105.948 104.836L106.374 105.287L106.796 105.73L107.215 106.165L107.631 106.592L108.044 107.011L108.453 107.421L108.858 107.822L109.259 108.216L109.657 108.601L110.05 108.978L110.439 109.346L110.824 109.705L111.205 110.056L111.581 110.398L111.953 110.732L112.32 111.057L112.682 111.374L113.039 111.681L113.391 111.981L113.738 112.271L114.08 112.552L114.416 112.825L114.747 113.089L115.072 113.345L115.391 113.591L115.705 113.829L116.013 114.058L116.315 114.278L116.611 114.489L116.901 114.692L117.184 114.885L117.461 115.07L117.731 115.247L117.995 115.414L118.253 115.573L118.503 115.723L118.747 115.864L118.983 115.997L119.213 116.121L119.435 116.236L119.651 116.343L119.859 116.441L120.059 116.53L120.252 116.611L120.438 116.684L120.616 116.748L120.786 116.803L120.949 116.85L121.103 116.889L121.25 116.919L121.388 116.942L121.519 116.956L121.641 116.961L121.755 116.959L121.861 116.949L121.959 116.93L122.048 116.904L122.128 116.869L122.2 116.827L122.264 116.777L122.318 116.719L122.364 116.654L122.402 116.58L122.43 116.5L122.45 116.412L122.461 116.316L122.462 116.213L122.455 116.103L122.439 115.985L122.413 115.861L122.379 115.729L122.335 115.59L122.282 115.444L122.22 115.292L122.148 115.133L122.068 114.967L121.978 114.794L121.878 114.615L121.77 114.43L121.651 114.238L121.524 114.04L121.387 113.836L121.241 113.626L121.085 113.409L120.919 113.187L120.745 112.959L120.56 112.726L120.367 112.486L120.163 112.242L119.951 111.991L119.729 111.736L119.497 111.475L119.256 111.209L119.005 110.938L118.745 110.662L118.476 110.382L118.197 110.096L117.908 109.806L117.611 109.512L117.303 109.213L116.987 108.909L116.661 108.602L116.326 108.29L115.982 107.975L115.628 107.655L115.266 107.332L114.894 107.005L114.512 106.674L114.122 106.34L113.723 106.003L113.315 105.662L112.898 105.318L112.472 104.972L112.037 104.622L111.593 104.269L111.141 103.914L110.679 103.556L110.21 103.196L109.731 102.833L109.244 102.468L108.749 102.101L108.245 101.732L107.733 101.361L107.213 100.988L106.684 100.613L106.148 100.237L105.603 99.8587L105.051 99.4795L104.49 99.0989L103.922 98.7172L103.346 98.3345L102.763 97.9507L102.172 97.5661L101.573 97.1807L100.968 96.7947L100.355 96.4082L99.7344 96.0212L99.1072 95.6338L98.4731 95.2463L97.8321 94.8586L97.1843 94.4709L96.5299 94.0833L95.8689 93.6958L95.2015 93.3087L94.5278 92.9219L93.8479 92.5356L93.1618 92.1498L92.4698 91.7648L91.7719 91.3805L91.0682 90.9971L90.3589 90.6147L89.6441 90.2333L88.9238 89.8531L88.1983 89.4741L87.4677 89.0965L86.7319 88.7203L85.9913 88.3456L85.246 87.9725L84.496 87.6012L83.7414 87.2316L82.9825 86.8639L82.2193 86.4981L81.452 86.1344L80.6808 85.7728L79.9057 85.4134L79.1268 85.0563L78.3444 84.7015L77.5586 84.3492L76.7695 83.9994L75.9772 83.6522L75.182 83.3077L74.3839 82.9659L73.583 82.6269L72.7796 82.2908L71.9738 81.9576L71.1657 81.6275L70.3554 81.3004L69.5432 80.9765L68.7291 80.6558L67.9134 80.3384L67.0961 80.0243L66.2774 79.7136L65.4575 79.4063L64.6365 79.1026L63.8146 78.8024L62.992 78.5058L62.1687 78.2129L61.3449 77.9237L60.5208 77.6382L59.6966 77.3566L58.8723 77.0788L58.0483 76.805L57.2245 76.535L56.4012 76.2691L55.5785 76.0071L54.7565 75.7493L53.9356 75.4955L53.1157 75.2459L52.297 75.0004L51.4797 74.7591L50.664 74.5221L49.85 74.2893L49.0379 74.0607L48.2278 73.8365L47.4199 73.6166L46.6143 73.4011L45.8112 73.1899L45.0107 72.9831L44.213 72.7808L43.4183 72.5828L42.6267 72.3893L41.8384 72.2002L41.0534 72.0156L40.2721 71.8354L39.4944 71.6597L38.7206 71.4885L37.9508 71.3218L37.1852 71.1595L36.4239 71.0018L35.6671 70.8485L34.9149 70.6997L34.1674 70.5553L33.4249 70.4154L32.6874 70.28L31.9551 70.1491L31.2282 70.0226L30.5067 69.9005L29.7909 69.7828L29.0808 69.6696L28.3766 69.5607L27.6785 69.4562L26.9866 69.356L26.301 69.2601L25.6218 69.1686L24.9493 69.0813L24.2834 68.9983L23.6244 68.9195L22.9724 68.8448L22.3275 68.7744L21.6899 68.7081L21.0596 68.6459L20.4369 68.5877L19.8217 68.5336L19.2143 68.4834L18.6147 68.4372L18.0232 68.395L17.4397 68.3566L16.8645 68.322L16.2976 68.2912L15.7391 68.2641L15.1892 68.2407L14.6479 68.221L14.1155 68.2049L13.5919 68.1923L13.0773 68.1832L12.5718 68.1775L12.0755 68.1752L11.5884 68.1763L11.1108 68.1806L10.6426 68.1881L10.1841 68.1988L9.73516 68.2126L9.29602 68.2295L8.86672 68.2493L8.44737 68.272L8.03803 68.2976L7.63879 68.3259L7.24974 68.357L6.87095 68.3907L6.50249 68.427L6.14445 68.4659L5.79689 68.5072L5.45989 68.5508L5.1335 68.5968L4.81781 68.645L4.51287 68.6954L4.21874 68.7479L3.93548 68.8023L3.66315 68.8588L3.40181 68.9171L3.1515 68.9772L2.91229 69.039L2.68421 69.1025L2.46731 69.1675L2.26164 69.234L2.06724 69.302L1.88414 69.3712L1.71239 69.4418L1.55202 69.5135L1.40306 69.5862L1.26554 69.66L1.13949 69.7348L1.02494 69.8103L0.921904 69.8867L0.830412 69.9637L0.750474 70.0414L0.682112 70.1196L0.625337 70.1982L0.580161 70.2771L0.546593 70.3564L0.524641 70.4359L0.514311 70.5154L0.515601 70.595L0.528513 70.6746L0.553045 70.754L0.589189 70.8332L0.636941 70.9121L0.696289 70.9906L0.767224 71.0687L0.849728 71.1462L0.943787 71.2231L1.04938 71.2993L1.16649 71.3747L1.29508 71.4492L1.43514 71.5228L1.58664 71.5953L1.74954 71.6668L1.92382 71.737L2.10942 71.806L2.30633 71.8736L2.5145 71.9398L2.73389 72.0045L2.96444 72.0676L3.20612 72.1291L3.45888 72.1888L3.72267 72.2467L3.99743 72.3027L4.28311 72.3567L4.57964 72.4087L4.88698 72.4587L5.20505 72.5064L5.5338 72.5518L5.87315 72.595L6.22305 72.6357L6.58341 72.674L6.95416 72.7098L7.33524 72.7429L7.72656 72.7734L8.12805 72.8011L8.53962 72.8261L8.96119 72.8482L9.39268 72.8673L9.834 72.8835L10.2851 72.8966L10.7458 72.9066L11.216 72.9134L11.6958 72.917L12.1849 72.9173L12.6832 72.9143L13.1908 72.9079L13.7074 72.898L14.2329 72.8846L14.7674 72.8677L15.3105 72.8472L15.8624 72.823L16.4227 72.7951L16.9915 72.7634L17.5686 72.728L18.1538 72.6887L18.7472 72.6456L19.3485 72.5985L19.9576 72.5475L20.5745 72.4925L21.1989 72.4334L21.8309 72.3703L22.4701 72.3031L23.1166 72.2317L23.7701 72.1562L24.4307 72.0764L25.098 71.9925L25.7721 71.9042L26.4527 71.8117L27.1397 71.7149L27.833 71.6138L28.5325 71.5083L29.238 71.3984L29.9493 71.2842L30.6664 71.1655L31.3891 71.0425L32.1173 70.915L32.8507 70.783L33.5894 70.6466L34.333 70.5058L35.0815 70.3605L35.8348 70.2107L36.5926 70.0564L37.3549 69.8976L38.1214 69.7344L38.8921 69.5666L39.6667 69.3944L40.4452 69.2177L41.2274 69.0366L42.0131 68.851L42.8022 68.6609L43.5945 68.4664L44.3899 68.2674L45.1882 68.0641L45.9893 67.8563L46.7929 67.6442L47.5991 67.4277L48.4075 67.2068L49.2181 66.9816L50.0306 66.7522L50.845 66.5184L51.6611 66.2804L52.4787 66.0382L53.2976 65.7918L54.1178 65.5413L54.939 65.2866L55.7611 65.0278L56.5839 64.765L57.4074 64.4981L58.2312 64.2273L59.0553 63.9526L59.8796 63.674L60.7038 63.3915L61.5278 63.1052L62.3515 62.8152L63.1747 62.5214L63.9972 62.224L64.8189 61.9231L65.6397 61.6185L66.4593 61.3105L67.2777 60.999L68.0946 60.6842L68.91 60.366L69.7237 60.0446L70.5355 59.72L71.3453 59.3922L72.1529 59.0614L72.9582 58.7276L73.7611 58.3908L74.5613 58.0512L75.3588 57.7088L76.1534 57.3637L76.945 57.0159L77.7334 56.6655L78.5185 56.3127L79.3001 55.9574L80.0781 55.5998L80.8524 55.2399L81.6228 54.8778L82.3891 54.5136L83.1514 54.1474L83.9093 53.7793L84.6629 53.4093L85.4119 53.0375L86.1562 52.6641L86.8957 52.2891L87.6303 51.9126L88.3599 51.5346L89.0842 51.1554L89.8033 50.7749L90.5169 50.3933L91.2249 50.0106L91.9273 49.627L92.624 49.2426L93.3147 48.8573L93.9994 48.4715L94.6779 48.0851L95.3503 47.6982L96.0162 47.3109L96.6758 46.9234L97.3287 46.5358L97.975 46.1481L98.6145 45.7604L99.2471 45.3729L99.8727 44.9856L100.491 44.5987L101.103 44.2123L101.707 43.8264L102.304 43.4412L102.893 43.0568L103.475 42.6732L104.049 42.2907L104.615 41.9092L105.174 41.529L105.725 41.1501L106.268 40.7725L106.802 40.3966L107.329 40.0222L107.847 39.6496L108.358 39.2789L108.86 38.9102L109.353 38.5435L109.838 38.179L110.315 37.8167L110.782 37.4569L111.242 37.0997L111.692 36.745L112.134 36.393L112.567 36.0439L112.991 35.6978L113.406 35.3547L113.813 35.0148L114.21 34.6781L114.598 34.3448L114.977 34.0151L115.347 33.6889L115.708 33.3664L116.059 33.0477L116.401 32.733L116.734 32.4223L117.058 32.1157L117.372 31.8133L117.678 31.5153L117.973 31.2217L118.259 30.9327L118.536 30.6483L118.804 30.3687L119.062 30.0939L119.31 29.8241L119.549 29.5593L119.779 29.2997L119.999 29.0453L120.209 28.7963L120.41 28.5527L120.602 28.3147L120.784 28.0823L120.957 27.8556L121.12 27.6348L121.274 27.4199L121.418 27.2109L121.553 27.0081L121.679 26.8115L121.795 26.6211L121.901 26.4371L121.998 26.2595L122.086 26.0885L122.165 25.9241L122.234 25.7663L122.295 25.6154L122.345 25.4713L122.387 25.3341L122.42 25.204L122.443 25.0809L122.457 24.965L122.463 24.8563L122.459 24.755L122.446 24.661L122.425 24.5745L122.394 24.4954L122.355 24.424L122.307 24.3602L122.25 24.3041L122.185 24.2557L122.111 24.2152L122.029 24.1826L121.938 24.1579L121.838 24.1412L121.731 24.1325L121.615 24.1319L121.491 24.1395L121.358 24.1553L121.218 24.1793L121.069 24.2116L120.913 24.2523L120.749 24.3013L120.577 24.3587L120.397 24.4245L120.21 24.4988L120.015 24.5817L119.813 24.6731L119.604 24.773L119.387 24.8816L119.163 24.9988L118.931 25.1247L118.693 25.2592L118.448 25.4024L118.196 25.5544L117.937 25.715L117.672 25.8844L117.4 26.0626L117.122 26.2496L116.837 26.4453L116.546 26.6498L116.249 26.8631L115.945 27.0851L115.636 27.316L115.321 27.5557L115 27.8041L114.674 28.0613L114.342 28.3273L114.004 28.6021L113.661 28.8856L113.313 29.1779L112.96 29.4789L112.602 29.7885L112.239 30.1069L111.871 30.4339L111.498 30.7696L111.121 31.1139L110.739 31.4668L110.353 31.8282L109.963 32.1981L109.569 32.5766L109.17 32.9635L108.768 33.3588L108.362 33.7624L107.952 34.1745L107.539 34.5948L107.123 35.0233L106.703 35.46L106.279 35.9049L105.853 36.3579L105.424 36.8189L104.992 37.2879L104.557 37.7648L104.12 38.2496L103.68 38.7421L103.237 39.2425L102.793 39.7504L102.346 40.266L101.897 40.7891L101.446 41.3197L100.994 41.8576L100.54 42.4029L100.084 42.9554L99.6269 43.515L99.1684 44.0818L98.7086 44.6555L98.2478 45.2361L97.786 45.8235L97.3233 46.4177L96.8598 47.0185L96.3957 47.6258L95.9311 48.2397L95.466 48.8598L95.0006 49.4862L94.535 50.1188L94.0694 50.7575L93.6038 51.4021L93.1383 52.0525L92.673 52.7087L92.2081 53.3706L91.7437 54.038L91.2798 54.7108L90.8167 55.389L90.3542 56.0723L89.8927 56.7607L89.4322 57.4541L88.9727 58.1524L88.5145 58.8554L88.0576 59.563L87.602 60.2751L87.1479 60.9915L86.6955 61.7122L86.2447 62.4371L85.7957 63.1659L85.3486 63.8986L84.9035 64.6351L84.4605 65.3752L84.0196 66.1187L83.581 66.8656L83.1447 67.6157L82.7108 68.3688L82.2795 69.125L81.8508 69.8839L81.4248 70.6455L81.0015 71.4096L80.5811 72.1762L80.1637 72.9449L79.7492 73.7158L79.3379 74.4887L78.9297 75.2634L78.5248 76.0397L78.1232 76.8176L77.725 77.597L77.3303 78.3775L76.9392 79.1592L76.5516 79.9418L76.1677 80.7252L75.7876 81.5093L75.4112 82.2939L75.0388 83.0789L74.6702 83.8641L74.3057 84.6494L73.9452 85.4346L73.5888 86.2195L73.2366 87.0041L72.8885 87.7881L72.5448 88.5715L72.2054 89.354L71.8703 90.1355L71.5396 90.9159L71.2135 91.695L70.8918 92.4727L70.5746 93.2488L70.2621 94.0231L69.9541 94.7956L69.6509 95.5659L69.3523 96.3341L69.0585 97.1L68.7694 97.8633L68.4851 98.624L68.2056 99.3819L67.9311 100.137L67.6613 100.889L67.3965 101.637L67.1366 102.382L66.8817 103.124L66.6317 103.862L66.3867 104.596L66.1467 105.326L65.9117 106.052L65.6817 106.774L65.4568 107.491L65.2369 108.204L65.022 108.912L64.8122 109.615L64.6075 110.313L64.4079 111.006L64.2133 111.694L64.0237 112.376L63.8392 113.052L63.6598 113.723L63.4854 114.388L63.3161 115.047L63.1518 115.7L62.9925 116.347L62.8383 116.988L62.689 117.621L62.5447 118.248L62.4054 118.869L62.271 119.482L62.1415 120.089L62.017 120.688L61.8973 121.28L61.7824 121.865L61.6724 122.442L61.5672 123.011L61.4668 123.573L61.3711 124.126L61.2801 124.672L61.1938 125.21L61.1121 125.739L61.035 126.26L60.9625 126.772L60.8945 127.276L60.831 127.772L60.7719 128.258L60.7172 128.736L60.6668 129.204L60.6208 129.664L60.579 130.114L60.5415 130.555L60.5081 130.986L60.4788 131.409L60.4535 131.821L60.4323 132.224L60.4149 132.617L60.4015 133L60.392 133.374L60.3861 133.737L60.3841 134.09L60.3856 134.433L60.3908 134.766L60.3995 135.089L60.4116 135.401L60.4272 135.703L60.4461 135.994L60.4682 136.274L60.4936 136.544L60.5221 136.803L60.5537 137.052L60.5882 137.289L60.6257 137.516L60.666 137.732L60.7092 137.937L60.755 138.13L60.8035 138.313L60.8545 138.484L60.908 138.645L60.9639 138.794L61.0222 138.931L61.0827 139.058L61.1454 139.173L61.2102 139.277L61.277 139.369L61.3457 139.45L61.4164 139.52L61.4888 139.578L61.5629 139.624L61.6386 139.659L61.7158 139.683L61.7946 139.695L61.8747 139.695L61.9561 139.684L62.0387 139.662L62.1224 139.628L62.2072 139.582L62.293 139.525L62.3796 139.456L62.467 139.375L62.5552 139.283L62.6439 139.18L62.7333 139.065L62.8231 138.938L62.9132 138.801L63.0037 138.651L63.0944 138.49L63.1852 138.318L63.2761 138.134L63.3669 137.939L63.4576 137.733L63.5482 137.515L63.6384 137.286L63.7283 137.046L63.8177 136.795L63.9066 136.533L63.9949 136.259L64.0825 135.974L64.1694 135.679L64.2554 135.372L64.3405 135.055L64.4245 134.727L64.5075 134.388L64.5894 134.038L64.67 133.678L64.7492 133.307L64.8271 132.926L64.9035 132.534L64.9784 132.131L65.0517 131.719L65.1233 131.296L65.1931 130.863L65.2611 130.42L65.3272 129.967L65.3913 129.504L65.4534 129.032L65.5133 128.549L65.5711 128.057L65.6266 127.556L65.6799 127.045L65.7307 126.524L65.7791 125.995L65.825 125.456L65.8684 124.908L65.9091 124.352L65.9471 123.786L65.9824 123.212L66.0149 122.629L66.0445 122.037L66.0712 121.437L66.095 120.829L66.1157 120.213L66.1333 119.588L66.1478 118.956L66.1592 118.316L66.1673 117.668L66.1722 117.012L66.1737 116.349L66.1719 115.679L66.1666 115.001L66.158 114.317L66.1458 113.625L66.1301 112.927L66.1109 112.222L66.088 111.511L66.0615 110.793L66.0314 110.069L65.9975 109.338L65.9599 108.602L65.9186 107.86L65.8734 107.112L65.8244 106.358L65.7716 105.6L65.715 104.835L65.6544 104.066L65.59 103.292L65.5216 102.513L65.4492 101.729L65.3729 100.941L65.2927 100.148L65.2084 99.351L65.1201 98.5499L65.0278 97.7449L64.9315 96.9361L64.8312 96.1237L64.7269 95.3078L64.6185 94.4885L64.5061 93.6662L64.3896 92.8407L64.2691 92.0125L64.1446 91.1815L64.016 90.348L63.8834 89.5121L63.7468 88.674L63.6062 87.8338L63.4616 86.9917L63.313 86.1479L63.1604 85.3024L63.0039 84.4555L62.8435 83.6074L62.6791 82.7581L62.5108 81.9079L62.3387 81.0569L62.1626 80.2052L61.9828 79.3531L61.7991 78.5007L61.6117 77.648L61.4205 76.7954L61.2257 75.943L61.0271 75.0908L60.8249 74.2392L60.619 73.3881L60.4096 72.5379L60.1967 71.6886L59.9803 70.8404L59.7603 69.9935L59.537 69.148L59.3104 68.3041L59.0804 67.4619L58.8471 66.6216L58.6106 65.7833L58.3709 64.9472L58.1281 64.1135L57.8823 63.2822L57.6334 62.4536L57.3815 61.6278L57.1268 60.8049L56.8693 59.9852L56.6089 59.1687L56.3458 58.3555L56.0801 57.5459L55.8118 56.74L55.5409 55.9379L55.2676 55.1398L54.9919 54.3458L54.7139 53.5561L54.4336 52.7707L54.1511 51.9899L53.8665 51.2137L53.5799 50.4424L53.2914 49.676L53.0009 48.9147L52.7087 48.1585L52.4147 47.4078L52.1191 46.6625L51.8219 45.9228L51.5232 45.1888L51.2231 44.4606L50.9217 43.7385L50.6191 43.0224L50.3153 42.3126L50.0104 41.6091L49.7046 40.9121L49.3979 40.2217L49.0903 39.5379L48.7821 38.861L48.4733 38.191L48.1639 37.528L47.8541 36.8722L47.5439 36.2236L47.2335 35.5823L46.923 34.9485L46.6124 34.3223L46.3018 33.7037L45.9913 33.0929L45.6811 32.49L45.3712 31.895L45.0617 31.308L44.7527 30.7292L44.4444 30.1586L44.1367 29.5963L43.8299 29.0424L43.524 28.4969L43.2192 27.9601L42.9154 27.4319L42.6129 26.9124L42.3116 26.4016L42.0118 25.8998L41.7135 25.4069L41.4169 24.923L41.1219 24.4481L40.8288 23.9825L40.5376 23.526L40.2485 23.0788L39.9614 22.6409L39.6766 22.2123L39.3942 21.7933L39.1141 21.3837L38.8367 20.9836L38.5618 20.5931L38.2897 20.2123L38.0205 19.8411L37.7542 19.4797L37.4909 19.128L37.2308 18.7861L36.9739 18.4541L36.7204 18.1319L36.4703 17.8196L36.2238 17.5173L35.9809 17.2249L35.7418 16.9424L35.5065 16.67L35.2752 16.4076L35.0479 16.1552L34.8247 15.9129L34.6058 15.6806L34.3912 15.4585L34.181 15.2464L33.9753 15.0444L33.7742 14.8525L33.5778 14.6707L33.3863 14.499L33.1996 14.3375L33.0179 14.186L32.8412 14.0446L32.6697 13.9133L32.5035 13.7921L32.3426 13.6809L32.1871 13.5798L32.0371 13.4887L31.8926 13.4076L31.7539 13.3365L31.6209 13.2754L31.4937 13.2242L31.3724 13.183L31.2572 13.1516L31.148 13.1301L31.0449 13.1184L30.948 13.1165L30.8575 13.1244L30.7733 13.1419L30.6956 13.1692L30.6243 13.206L30.5597 13.2525L30.5016 13.3085L30.4503 13.3739L30.4058 13.4488L30.3681 13.5331L30.3373 13.6267L30.3135 13.7296L30.2967 13.8417L30.2869 13.9629L30.2843 14.0933L30.2889 14.2326L30.3008 14.381L30.3199 14.5382L30.3464 14.7042L30.3803 14.879L30.4216 15.0625L30.4704 15.2546L30.5267 15.4552L30.5906 15.6642L30.6621 15.8817L30.7413 16.1074L30.8281 16.3414L30.9227 16.5834L31.0251 16.8336L31.1352 17.0916L31.2531 17.3576L31.3789 17.6313L31.5125 17.9127L31.6541 18.2017L31.8035 18.4982L31.961 18.8021L32.1263 19.1134L32.2997 19.4318L32.481 19.7574L32.6703 20.0899L32.8677 20.4294L33.073 20.7757L33.2865 21.1287L33.5079 21.4883L33.7374 21.8544L33.9749 22.2269L34.2205 22.6057L34.4741 22.9906L34.7358 23.3816L35.0055 23.7786L35.2832 24.1814L35.5689 24.5899L35.8627 25.004L36.1644 25.4237L36.4741 25.8487L36.7917 26.279L37.1173 26.7144L37.4509 27.1549L37.7923 27.6003L38.1415 28.0505L38.4986 28.5054L38.8636 28.9648L39.2363 29.4287L39.6167 29.8969L40.0049 30.3693L40.4007 30.8458L40.8041 31.3262L41.2152 31.8105L41.6338 32.2985L42.0599 32.79L42.4934 33.285L42.9344 33.7834L43.3828 34.285L43.8384 34.7896L44.3013 35.2972L44.7713 35.8077L45.2485 36.3209L45.7328 36.8367L46.2241 37.3549L46.7224 37.8755L47.2275 38.3983L47.7394 38.9232L48.2581 39.45L48.7834 39.9787L49.3154 40.5092L49.8539 41.0412L50.3988 41.5747L50.9501 42.1095L51.5076 42.6456L52.0714 43.1827L52.6413 43.7208L53.2173 44.2598L53.7991 44.7996L54.3869 45.3399L54.9804 45.8807L55.5796 46.4219L56.1844 46.9633L56.7946 47.5049L57.4103 48.0465L58.0312 48.5879L58.6573 49.1292L59.2885 49.6701L59.9247 50.2105L60.5658 50.7503L61.2117 51.2895L61.8622 51.8278L62.5173 52.3653L63.1768 52.9017L63.8406 53.4369L64.5087 53.9709L65.1809 54.5035L65.8571 55.0347L66.5371 55.5642L67.2209 56.0921L67.9083 56.6181L68.5992 57.1423L69.2936 57.6644L69.9912 58.1844L70.6919 58.7023L71.3957 59.2178L72.1023 59.7308L72.8117 60.2414L73.5237 60.7493L74.2383 61.2545L74.9552 61.757L75.6743 62.2565L76.3956 62.753L77.1188 63.2464L77.8439 63.7367L78.5706 64.2237L79.299 64.7073L80.0287 65.1875L80.7598 65.6642L81.492 66.1373L82.2253 66.6066L82.9594 67.0722L83.6942 67.534L84.4296 67.9918L85.1655 68.4456L85.9017 68.8954L86.6381 69.341L87.3745 69.7823L88.1108 70.2194L88.8468 70.6521L89.5824 71.0803L90.3175 71.5041L91.0518 71.9233L91.7853 72.3379L92.5179 72.7478L93.2493 73.1529L93.9794 73.5533L94.7081 73.9488L95.4353 74.3394L96.1607 74.725L96.8843 75.1056L97.6058 75.4811L98.3252 75.8515L99.0424 76.2168L99.757 76.5769L100.469 76.9317L101.178 77.2812L101.885 77.6255L102.588 77.9643L103.289 78.2977L103.986 78.6258L104.679 78.9483L105.369 79.2654L106.055 79.5769L106.737 79.8829L107.416 80.1833L108.09 80.4781L108.759 80.7673L109.425 81.0508L110.085 81.3287L110.741 81.601L111.392 81.8675L112.038 82.1283L112.679 82.3834L113.315 82.6328L113.945 82.8765L114.57 83.1144L115.189 83.3465L115.802 83.573L116.409 83.7937L117.01 84.0086L117.605 84.2178L118.193 84.4213L118.775 84.619L119.351 84.811L119.919 84.9973L120.481 85.1779L121.036 85.3528L121.584 85.522L122.124 85.6856L122.657 85.8435L123.183 85.9958L123.701 86.1425L124.211 86.2836L124.714 86.4192L125.209 86.5492L125.695 86.6737L126.174 86.7927L126.644 86.9063L127.106 87.0145L127.559 87.1173L128.004 87.2148L128.44 87.307L128.867 87.3938L129.285 87.4755L129.695 87.5519L130.095 87.6232L130.486 87.6894L130.868 87.7506L131.241 87.8067L131.604 87.8578L131.957 87.9041L132.301 87.9454L132.635 87.982L132.96 88.0138L133.274 88.0408L133.579 88.0632L133.873 88.081L134.158 88.0943L134.432 88.1031L134.696 88.1074H134.95L135.193 88.1032L135.426 88.0946L135.649 88.0819L135.86 88.0651L136.062 88.0442L136.252 88.0194L136.432 87.9906L136.601 87.958L136.759 87.9217L136.906 87.8816L137.043 87.838L137.168 87.7907L137.283 87.74L137.386 87.6859L137.478 87.6285L137.559 87.5678L137.629 87.5039L137.688 87.4369L137.736 87.367L137.772 87.294L137.797 87.2182L137.811 87.1397L137.813 87.0584L137.804 86.9745L137.784 86.888L137.753 86.7991L137.71 86.7078L137.656 86.6143L137.59 86.5185L137.513 86.4206L137.425 86.3206L137.325 86.2187L137.214 86.1149L137.091 86.0093L136.958 85.902L136.813 85.7931L136.656 85.6826L136.488 85.5707L136.309 85.4575L136.119 85.343L135.918 85.2272L135.705 85.1104L135.481 84.9925L135.246 84.8737L135 84.7541L134.742 84.6337L134.474 84.5126L134.195 84.3909L133.904 84.2688L133.603 84.1462L133.291 84.0232L132.968 83.9001L132.634 83.7767L132.289 83.6533L131.934 83.5299L131.568 83.4065L131.192 83.2833L130.805 83.1604L130.408 83.0379L130 82.9157L129.582 82.794L129.154 82.6729L128.715 82.5525L128.267 82.4328L127.808 82.3139L127.34 82.196L126.861 82.0789L126.373 81.963L125.875 81.8482L125.368 81.7346L124.851 81.6223L124.325 81.5113L123.789 81.4018L123.244 81.2937L122.69 81.1873L122.127 81.0825L121.555 80.9794L120.975 80.8781L120.385 80.7787L119.787 80.6811L119.18 80.5856L118.565 80.4922L117.942 80.4008L117.31 80.3117L116.671 80.2248L116.023 80.1402L115.368 80.058L114.705 79.9782L114.034 79.9009L113.356 79.8262L112.67 79.7541L111.977 79.6846L111.277 79.6179L110.57 79.5539L109.857 79.4927L109.136 79.4344L108.409 79.3791L107.676 79.3267L106.936 79.2773L106.19 79.231L105.438 79.1877L104.681 79.1477L103.917 79.1108L103.148 79.0771L102.373 79.0467L101.593 79.0196L100.808 78.9959L100.018 78.9755L99.2227 78.9585L98.4229 78.945L97.6184 78.935L96.8096 78.9284L95.9964 78.9254L95.1791 78.9259L94.3578 78.93L93.5327 78.9376L92.7039 78.949L91.8716 78.9639L91.0359 78.9825L90.197 79.0048L89.355 79.0307L88.5101 79.0604L87.6625 79.0938L86.8123 79.1309L85.9597 79.1717L85.1047 79.2163L84.2477 79.2647L83.3887 79.3168L82.528 79.3726L81.6656 79.4322L80.8017 79.4956L79.9365 79.5627L79.0702 79.6336L78.2029 79.7082L77.3348 79.7865L76.466 79.8686L75.5966 79.9544L74.727 80.0439L73.8572 80.1372L72.9873 80.2341L72.1176 80.3346L71.2482 80.4389L70.3792 80.5467L69.5109 80.6582L68.6434 80.7733L67.7768 80.8919L66.9113 81.0141L66.0471 81.1397L65.1843 81.2689L64.3231 81.4015L63.4636 81.5376L62.606 81.677L61.7505 81.8198L60.8972 81.9659L60.0462 82.1153L59.1978 82.268L58.3521 82.4239L57.5092 82.5829L56.6693 82.745L55.8325 82.9103L54.9991 83.0785L54.169 83.2498L53.3426 83.424L52.5199 83.601L51.7011 83.7809L50.8864 83.9636L50.0758 84.149L49.2696 84.3371L48.4679 84.5278L47.6707 84.7211L46.8784 84.9169L46.0909 85.1151L45.3085 85.3157L44.5313 85.5186L43.7595 85.7237L42.993 85.9311L42.2322 86.1405L41.4771 86.352L40.7279 86.5655L39.9847 86.781L39.2476 86.9982L38.5167 87.2172L37.7923 87.438L37.0743 87.6603L36.363 87.8842L35.6585 88.1096L34.9608 88.3364L34.2701 88.5645L33.5865 88.7938L32.9102 89.0243L32.2412 89.2559L31.5797 89.4884L30.9257 89.7219L30.2794 89.9562L29.641 90.1913L29.0104 90.427L28.3878 90.6633L27.7733 90.9001L27.167 91.1373L26.5691 91.3749L25.9795 91.6126L25.3984 91.8505L24.8259 92.0885L24.2621 92.3264L23.7071 92.5641L23.1609 92.8017L22.6237 93.039L22.0955 93.2758L21.5764 93.5122L21.0665 93.7479L20.5659 93.983L20.0746 94.2173L19.5928 94.4508L19.1204 94.6833L18.6576 94.9147L18.2044 95.145L17.7609 95.374L17.3272 95.6017L16.9032 95.8279L16.4892 96.0527L16.0851 96.2758L15.6909 96.4971L15.3068 96.7167L14.9328 96.9343L14.569 97.15L14.2153 97.3635L13.8718 97.5748L13.5387 97.7839L13.2158 97.9905L12.9032 98.1947L12.6011 98.3963L12.3094 98.5952L12.0281 98.7913L11.7572 98.9846L11.4969 99.1749L11.2471 99.3622L11.0078 99.5463L10.7791 99.7272L10.561 99.9048L10.3534 100.079L10.1565 100.25L9.97016 100.417L9.79446 100.58L9.62939 100.739L9.47495 100.895L9.33114 101.047L9.19797 101.195L9.07542 101.338L8.96349 101.477L8.86219 101.612L8.77148 101.743L8.69138 101.869L8.62185 101.991L8.56288 102.108L8.51446 102.22L8.47656 102.327L8.44916 102.43L8.43223 102.527L8.42575 102.62L8.42969 102.707L8.44402 102.789L8.4687 102.866L8.5037 102.938L8.54897 103.004L8.60449 103.064L8.6702 103.119L8.74607 103.169L8.83204 103.212L8.92807 103.25L9.03411 103.282L9.1501 103.309L9.276 103.329L9.41174 103.343L9.55727 103.351L9.71253 103.353L9.87745 103.349L10.052 103.338L10.236 103.321L10.4296 103.298L10.6325 103.269L10.8448 103.232L11.0663 103.19L11.297 103.141L11.5368 103.085L11.7856 103.022L12.0433 102.953L12.31 102.877L12.5854 102.794L12.8695 102.704L13.1622 102.608L13.4635 102.504L13.7731 102.394L14.0911 102.277L14.4174 102.152L14.7518 102.021L15.0943 101.882L15.4447 101.737L15.803 101.584L16.169 101.424L16.5427 101.257L16.924 101.083L17.3127 100.902L17.7088 100.713L18.1121 100.517L18.5225 100.314L18.9399 100.104L19.3643 99.8864L19.7955 99.6616L20.2333 99.4295L20.6778 99.1902L21.1287 98.9436L21.5859 98.6897L22.0494 98.4286L22.519 98.1602L22.9945 97.8845L23.476 97.6017L23.9632 97.3115L24.456 97.0142L24.9543 96.7096L25.458 96.3979L25.967 96.0789L26.4811 95.7528L27.0002 95.4196L27.5242 95.0793L28.053 94.7319L28.5864 94.3774L29.1243 94.0159L29.6666 93.6474L30.2132 93.272L30.7638 92.8896L31.3185 92.5004L31.877 92.1042L32.4392 91.7013L33.005 91.2916L33.5743 90.8752L34.1469 90.4521L34.7228 90.0223L35.3017 89.586L35.8836 89.1432L36.4682 88.6939L37.0556 88.2381L37.6454 87.776L38.2377 87.3076L38.8323 86.833L39.429 86.3522L40.0278 85.8652L40.6284 85.3722L41.2307 84.8733L41.8347 84.3684L42.4402 83.8576L43.047 83.3412L43.6551 82.819L44.2642 82.2912L44.8743 81.7579L45.4853 81.2191L46.0969 80.6749L46.7091 80.1254L47.3218 79.5708L47.9347 79.011L48.5479 78.4462L49.1611 77.8764L49.7742 77.3018L50.3871 76.7224L50.9997 76.1384L51.6119 75.5498L52.2234 74.9567L52.8343 74.3593L53.4444 73.7575L54.0535 73.1517L54.6615 72.5417L55.2683 71.9278L55.8739 71.31L56.478 70.6884L57.0805 70.0633L57.6814 69.4346L58.2805 68.8024L58.8777 68.167L59.4729 67.5283L60.0659 66.8866L60.6567 66.2419L61.2452 65.5944L61.8312 64.9441L62.4146 64.2913L62.9953 63.6359L63.5732 62.9781L64.1483 62.3182L64.7203 61.656L65.2893 60.9919L65.855 60.3259L66.4174 59.6582L66.9764 58.9888L67.5318 58.318L68.0837 57.6458L68.6319 56.9723L69.1763 56.2977L69.7168 55.6222L70.2533 54.9458L70.7857 54.2687L71.3139 53.5911L71.8379 52.913L72.3576 52.2345L72.8729 51.5559L73.3836 50.8773L73.8898 50.1988L74.3913 49.5205L74.888 48.8425L75.38 48.1651L75.867 47.4883L76.3491 46.8123L76.8261 46.1372L77.298 45.4632L77.7647 44.7903L78.2262 44.1189L78.6824 43.4488L79.1332 42.7804L79.5785 42.1138L80.0183 41.449L80.4526 40.7863L80.8813 40.1258L81.3043 39.4675L81.7216 38.8117L82.1331 38.1585L82.5388 37.5081L82.9386 36.8605L83.3324 36.2159L83.7204 35.5745L84.1023 34.9363L84.4781 34.3016L84.8479 33.6704L85.2116 33.0429L85.5691 32.4193L85.9204 31.7997L86.2654 31.1841L86.6042 30.5728L86.9368 29.9659L87.263 29.3635L87.5829 28.7657L87.8964 28.1728L88.2036 27.5847L88.5043 27.0017L88.7986 26.4239L89.0865 25.8514L89.368 25.2844L89.643 24.7229L89.9115 24.1671L90.1736 23.6171L90.4291 23.0731L90.6782 22.5352L90.9208 22.0035L91.1569 21.4781L91.3865 20.9592L91.6096 20.4468L91.8263 19.9412L92.0364 19.4423L92.2401 18.9504L92.4373 18.4656L92.6281 17.9879L92.8124 17.5175L92.9903 17.0545L93.1618 16.599L93.3269 16.1511L93.4857 15.711L93.6381 15.2787L93.7842 14.8543L93.9239 14.438L94.0574 14.0299L94.1847 13.63L94.3057 13.2385L94.4205 12.8555L94.5292 12.481L94.6318 12.1151L94.7283 11.758L94.8188 11.4098L94.9032 11.0705L94.9817 10.7402L95.0542 10.419L95.1209 10.1071L95.1817 9.8044L95.2368 9.5111L95.2861 9.22725L95.3297 8.95293L95.3676 8.68823L95.4 8.43321L95.4268 8.18795L95.4482 7.95252L95.4641 7.72699L95.4746 7.51144L95.4799 7.30593L95.4799 7.11051L95.4747 6.92527L95.4643 6.75025L95.4489 6.58551L95.4285 6.43112L95.4032 6.28712L95.373 6.15356L95.3379 6.03051L95.2982 5.918L95.2538 5.81609L95.2048 5.72482L95.1512 5.64422L95.0933 5.57434L95.0309 5.51522L94.9643 5.46689L94.8934 5.42938L94.8184 5.40273L94.7393 5.38697L94.6562 5.38211L94.5692 5.3882L94.4783 5.40524L94.3837 5.43327L94.2855 5.47228L94.1836 5.52232L94.0782 5.58337L93.9694 5.65546L93.8573 5.7386L93.7419 5.83279L93.6233 5.93804L93.5017 6.05434L93.377 6.1817L93.2494 6.32012L93.119 6.46958L92.9859 6.63009L92.8501 6.80164L92.7117 6.9842L92.5709 7.17777L92.4276 7.38233L92.2821 7.59787L92.1343 7.82436L91.9845 8.06177L91.8326 8.31009L91.6787 8.56928L91.523 8.83932L91.3655 9.12017L91.2064 9.4118L91.0457 9.71417L90.8834 10.0272L90.7198 10.351L90.5549 10.6853L90.3887 11.0302L90.2214 11.3857L90.0531 11.7516L89.8838 12.1279L89.7136 12.5146L89.5427 12.9116L89.371 13.3189L89.1988 13.7363L89.0261 14.1639L88.8529 14.6015L88.6794 15.0492L88.5057 15.5067L88.3318 15.9741L88.1578 16.4513L87.9839 16.9381L87.81 17.4346L87.6363 17.9406L87.4629 18.4561L87.2899 18.981L87.1173 19.5151L86.9452 20.0585L86.7737 20.6109L86.6029 21.1724L86.4329 21.7428L86.2637 22.322L86.0954 22.9099L85.9281 23.5065L85.762 24.1116L85.597 24.7251L85.4332 25.347L85.2707 25.977L85.1096 26.6152L84.95 27.2613L84.7919 27.9153L84.6355 28.5771L84.4807 29.2466L84.3276 29.9235L84.1764 30.6079L84.0271 31.2996L83.8797 31.9984L83.7343 32.7043L83.5911 33.4171L83.4499 34.1367L83.311 34.863L83.1744 35.5958L83.0401 36.335L82.9081 37.0805L82.7787 37.8321L82.6517 38.5897L82.5274 39.3532L82.4056 40.1224L82.2865 40.8972L82.1701 41.6775L82.0566 42.4631L81.9458 43.2538L81.8379 44.0495L81.733 44.8502L81.631 45.6556L81.532 46.4655L81.436 47.2799L81.3432 48.0986L81.2535 48.9214L81.167 49.7482L81.0837 50.5788L81.0036 51.4132L80.9269 52.251L80.8534 53.0923L80.7833 53.9367L80.7166 54.7843L80.6532 55.6347L80.5933 56.4879L80.5369 57.3437L80.4839 58.2019L80.4345 59.0625L80.3886 59.9251L80.3462 60.7897L80.3074 61.6561L80.2721 62.5242L80.2405 63.3937L80.2125 64.2646L80.1881 65.1366L80.1673 66.0096L80.1502 66.8835L80.1367 67.758L80.1269 68.6331L80.1207 69.5085L80.1182 70.3841" stroke="#FFC700" stroke-width="0.8"/>
</svg>
