<svg width="139" height="140" viewBox="0 0 139 140" fill="none" xmlns="http://www.w3.org/2000/svg">
<path d="M138.598 70.0891L138.539 70.7345L138.365 71.3812L138.074 72.0306L137.667 72.684L137.146 73.3426L136.511 74.0077L135.764 74.6806L134.907 75.3624L133.941 76.0542L132.868 76.7571L131.691 77.4721L130.412 78.2L129.034 78.9417L127.56 79.6979L125.993 80.4693L124.336 81.2563L122.592 82.0596L120.767 82.8793L118.862 83.7156L116.883 84.5688L114.834 85.4387L112.718 86.3252L110.54 87.2281L108.305 88.1468L106.017 89.0809L103.681 90.0298L58.9525 108.101L56.621 109.037L54.3351 109.95L52.0985 110.836L49.9149 111.694L47.7879 112.52L45.7206 113.311L43.7163 114.065L41.778 114.779L39.9083 115.449L38.1099 116.073L36.3852 116.649L34.7363 117.173L33.1652 117.643L31.6737 118.055L30.2633 118.409L28.9355 118.701L27.6912 118.928L26.5315 119.089L25.4571 119.181L24.4685 119.203L23.566 119.151L22.7497 119.025L22.0195 118.823L21.375 118.544L20.8159 118.185L20.3413 117.746L19.9506 117.226L19.6424 116.624L19.4158 115.94L19.2692 115.172L19.2011 114.32L19.2098 113.385L19.2935 112.367L19.4501 111.265L19.6776 110.081L19.9736 108.815L20.3359 107.468L20.762 106.041L21.2493 104.536L21.7952 102.954L22.397 101.296L23.0518 99.5654L23.7569 97.7636L24.5095 95.8931L25.3064 93.9564L26.1449 91.9563L27.022 89.8956L27.9347 87.7776L28.8799 85.6055L29.8549 83.3827L30.8567 81.1129L31.8822 78.7997L50.4642 37.0623L51.5038 34.7333L52.5275 32.4489L53.5346 30.2139L54.5242 28.0328L55.4956 25.9102L56.4484 23.8506L57.3822 21.8582L58.2967 19.9373L59.1917 18.092L60.0674 16.3262L60.9238 14.6437L61.7611 13.0481L62.5798 11.5429L63.3803 10.1314L64.1631 8.81655L64.9289 7.60133L65.6786 6.48841L66.4128 5.48025L67.1327 4.57909L67.839 3.78696L68.5331 3.10565L69.216 2.53671L69.8888 2.08146L70.5528 1.74099L71.2093 1.5161L71.8595 1.40738L72.5049 1.41517L73.1467 1.53954L73.7862 1.78032L74.4249 2.13708L75.064 2.60915L75.7048 3.1956L76.3487 3.89528L76.9968 4.70675L77.6505 5.62839L78.3108 6.65828L78.9788 7.79433L79.6556 9.03417L80.3422 10.3753L81.0394 11.8148L81.7481 13.3498L82.469 14.9771L83.2026 16.6933L83.9495 18.4949L84.7101 20.3782L85.4848 22.3392L86.2737 24.3739L87.0769 26.4781L87.8943 28.6475L88.7259 30.8776L89.5711 33.164L90.4298 35.5019L91.3012 37.8867L106.928 80.8203L107.794 83.2101L108.641 85.556L109.465 87.8541L110.263 90.1005L111.033 92.2915L111.773 94.4237L112.478 96.4937L113.148 98.4983L113.778 100.434L114.367 102.299L114.911 104.091L115.408 105.806L115.856 107.442L116.25 108.999L116.59 110.473L116.872 111.863L117.095 113.168L117.255 114.388L117.351 115.519L117.381 116.564L117.342 117.519L117.233 118.386L117.051 119.165L116.796 119.854L116.466 120.456L116.06 120.969L115.575 121.396L115.013 121.736L114.37 121.991L113.648 122.163L112.845 122.252L111.962 122.26L110.998 122.189L109.953 122.042L108.827 121.819L107.622 121.523L106.338 121.157L104.975 120.723L103.535 120.223L102.02 119.66L100.43 119.037L98.7673 118.357L97.0344 117.622L95.2329 116.836L93.3654 116.001L91.4343 115.12L89.4422 114.196L87.3921 113.234L85.2871 112.234L83.1303 111.202L80.9253 110.139L78.6755 109.049L76.3847 107.934L35.3207 87.9054L33.0453 86.7916L30.8158 85.6955L28.6366 84.6181L26.5125 83.5605L24.4478 82.5233L22.4471 81.5071L20.5145 80.5125L18.6542 79.5397L16.8702 78.5891L15.1665 77.6606L13.5467 76.7543L12.0144 75.8699L10.573 75.0073L9.22582 74.166L7.97576 73.3455L6.8257 72.5452L5.77826 71.7643L4.83585 71.0022L4.00068 70.2579L3.2747 69.5305L2.65967 68.8189L2.15709 68.1219L1.76823 67.4386L1.49411 66.7676L1.33551 66.1076L1.29297 65.4575L1.36676 64.8158L1.55692 64.1812L1.86323 63.5525L2.28522 62.9282L2.82215 62.3069L3.47308 61.6874L4.23678 61.0684L5.11179 60.4485L6.09642 59.8265L7.18872 59.2011L8.38655 58.5714L9.6875 57.936L11.089 57.2941L12.5881 56.6446L14.1819 55.9867L15.8672 55.3195L17.6404 54.6425L19.4981 53.9549L21.4364 53.2562L23.4514 52.5461L25.5391 51.8243L27.6951 51.0906L29.9151 50.3449L32.1946 49.5873L34.5291 48.818L36.9137 48.0372L39.3438 47.2455L82.7923 33.1293L85.1947 32.3533L87.551 31.5968L89.8573 30.8623L92.1096 30.1524L94.3042 29.4695L96.4376 28.8164L98.5064 28.1956L100.507 27.6098L102.438 27.0616L104.294 26.5537L106.075 26.0887L107.776 25.6691L109.397 25.2976L110.935 24.9765L112.388 24.7085L113.755 24.4958L115.035 24.3408L116.225 24.2457L117.326 24.2127L118.337 24.2438L119.257 24.341L120.085 24.506L120.823 24.7405L121.469 25.0462L122.025 25.4244L122.49 25.8764L122.866 26.4033L123.154 27.0061L123.354 27.6856L123.468 28.4423L123.498 29.2767L123.444 30.1891L123.31 31.1794L123.097 32.2477L122.806 33.3936L122.441 34.6166L122.004 35.9159L121.496 37.2907L120.922 38.7398L120.283 40.2619L119.582 41.8556L118.822 43.519L118.007 45.2504L117.138 47.0476L116.22 48.9083L115.256 50.8301L114.248 52.8102L113.199 54.8458L112.113 56.9339L110.994 59.0714L109.843 61.2548L108.666 63.4806L86.0176 106.075L84.832 108.294L83.6663 110.466L82.5216 112.586L81.3987 114.65L80.2987 116.655L79.2222 118.594L78.1698 120.464L77.1419 122.262L76.1389 123.982L75.1609 125.622L74.208 127.177L73.28 128.644L72.3768 130.02L71.4981 131.302L70.6434 132.486L69.8121 133.569L69.0036 134.55L68.2173 135.426L67.4521 136.194L66.7072 136.853L65.9817 137.401L65.2743 137.837L64.584 138.159L63.9096 138.367L63.2499 138.459L62.6035 138.436L61.9691 138.296L61.3454 138.041L60.7311 137.67L60.1247 137.183L59.5248 136.582L58.9302 135.868L58.3395 135.041L57.7513 134.104L57.1644 133.058L56.5774 131.904L55.9892 130.647L55.3986 129.286L54.8046 127.826L54.206 126.27L53.6019 124.619L52.9915 122.878L52.374 121.05L51.7487 119.139L51.1149 117.148L50.4722 115.082L49.8201 112.944L49.1585 110.739L48.487 108.472L47.8058 106.146L47.1148 103.767L46.4142 101.339L33.8207 57.4229L33.119 54.9678L32.4337 52.5568L31.7672 50.194L31.1218 47.8836L30.5 45.6293L29.9042 43.435L29.3368 41.3042L28.8005 39.2404L28.2977 37.2467L27.831 35.3263L27.4029 33.4818L27.016 31.716L26.6726 30.0313L26.3754 28.4299L26.1266 26.9138L25.9287 25.4849L25.784 24.1446L25.6947 22.8943L25.663 21.7353L25.691 20.6683L25.7806 19.6941L25.9338 18.8132L26.1522 18.0258L26.4375 17.332L26.7913 16.7316L27.2149 16.2243L27.7096 15.8094L28.2764 15.4861L28.9162 15.2535L29.6299 15.1104L30.418 15.0555L31.2809 15.0872L32.219 15.2038L33.2321 15.4034L34.3203 15.684L35.4833 16.0434L36.7204 16.4793L38.031 16.9892L39.4142 17.5706L40.869 18.2208L42.394 18.9369L43.9877 19.7161L45.6485 20.5554L47.3745 21.4517L49.1636 22.402L51.0137 23.403L52.9221 24.4515L54.8864 25.5444L56.9036 26.6782L58.9709 27.8498L61.0851 29.0557L63.2429 30.2928L65.4408 31.5578L105.009 54.4019L107.211 55.6768L109.371 56.9312L111.482 58.1636L113.541 59.3729L115.543 60.5579L117.485 61.7177L119.36 62.8514L121.166 63.9584L122.899 65.0381L124.554 66.0902L126.128 67.1144L127.617 68.1106L129.017 69.0787L130.326 70.019L131.54 70.9316L132.657 71.817L133.673 72.6756L134.586 73.5081L135.394 74.3152L136.095 75.0976L136.687 75.8562L137.168 76.5921L137.537 77.3062L137.792 77.9998L137.933 78.6739L137.96 79.3298L137.87 79.9688L137.666 80.5923L137.345 81.2015L136.91 81.7979L136.36 82.3829L135.696 82.9578L134.919 83.524L134.031 84.083L133.033 84.6361L131.927 85.1846L130.714 85.7299L129.398 86.2733L127.98 86.8159L126.464 87.3589L124.852 87.9035L123.147 88.4507L121.353 89.0013L119.473 89.5564L117.511 90.1167L115.47 90.6829L113.355 91.2556L111.171 91.8354L108.92 92.4225L106.608 93.0172L104.239 93.6199L101.818 94.2304L99.3499 94.8487L55.0182 105.902L52.5563 106.512L50.1406 107.106L47.7753 107.683L45.4646 108.24L43.2123 108.774L41.0222 109.283L38.8979 109.765L36.8429 110.218L34.8604 110.639L32.9533 111.025L31.1247 111.374L29.377 111.684L27.7128 111.953L26.1343 112.177L24.6434 112.356L23.242 112.485L21.9317 112.564L20.7138 112.589L19.5894 112.559L18.5594 112.473L17.6246 112.327L16.7853 112.12L16.0418 111.851L15.3942 111.517L14.8422 111.118L14.3855 110.652L14.0233 110.117L13.755 109.514L13.5794 108.84L13.4954 108.095L13.5015 107.279L13.5962 106.39L13.7776 105.43L14.0439 104.397L14.393 103.293L14.8226 102.116L15.3303 100.869L15.9136 99.5503L16.5699 98.1622L17.2963 96.7055L18.09 95.1814L18.948 93.5914L19.8673 91.9371L20.8446 90.2203L21.8769 88.4431L22.9608 86.6077L24.0929 84.7164L25.2701 82.7719L26.4888 80.7769L27.7456 78.7343L29.0372 76.6472L30.3602 74.5189L31.7111 72.3527L55.9216 33.6093L57.2646 31.4679L58.5849 29.3707L59.8811 27.3223L61.1519 25.327L62.3959 23.3893L63.6123 21.5134L64.8 19.7035L65.9582 17.9638L67.0865 16.2982L68.1843 14.7104L69.2512 13.2043L70.2871 11.7833L71.2919 10.4509L72.2657 9.21031L73.2087 8.0645L74.1211 7.01635L75.0036 6.06853L75.8565 5.22351L76.6805 4.48353L77.4765 3.85062L78.2453 3.32661L78.9878 2.91307L79.7051 2.61136L80.3982 2.4226L81.0684 2.34767L81.7169 2.38719L82.3449 2.54156L82.9539 2.81091L83.5451 3.19515L84.12 3.69391L84.68 4.30659L85.2265 5.03233L85.7609 5.87003L86.2848 6.81835L86.7994 7.8757L87.3063 9.04025L87.8067 10.31L88.302 11.6825L88.7936 13.1554L89.2825 14.7259L89.7701 16.391L90.2575 18.1477L90.7456 19.9925L91.2356 21.9219L91.7281 23.9322L92.2242 26.0195L92.7243 28.1797L93.2293 30.4087L93.7395 32.7021L94.2554 35.0553L94.7772 37.4638L95.3052 39.9229L105.335 87.1097L105.854 89.5745L106.358 91.9909L106.846 94.3547L107.314 96.6618L107.761 98.9083L108.184 101.09L108.582 103.204L108.952 105.247L109.292 107.214L109.599 109.104L109.871 110.914L110.106 112.64L110.301 114.28L110.454 115.832L110.563 117.295L110.626 118.665L110.641 119.942L110.605 121.125L110.516 122.212L110.373 123.202L110.173 124.094L109.915 124.889L109.597 125.586L109.218 126.185L108.777 126.687L108.271 127.091L107.699 127.398L107.062 127.609L106.357 127.726L105.584 127.749L104.743 127.68L103.833 127.521L102.853 127.273L101.805 126.939L100.687 126.52L99.5009 126.02L98.2462 125.439L96.9238 124.782L95.5347 124.05L94.0798 123.247L92.5604 122.375L90.9779 121.438L89.3339 120.439L87.6302 119.381L85.8687 118.266L84.0518 117.1L82.1816 115.885L80.2607 114.624L78.2918 113.321L76.2778 111.98L74.2217 110.603L72.1267 109.196L34.2525 83.6503L32.1344 82.2192L30.0569 80.8112L28.0244 79.4279L26.0414 78.071L24.1124 76.742L22.2415 75.4421L20.433 74.1725L18.691 72.9341L17.0196 71.7279L15.4226 70.5546L13.9038 69.4146L12.4668 68.3084L11.1151 67.2363L9.85213 66.1984L8.6809 65.1947L7.60444 64.225L6.62554 63.2891L5.74683 62.3865L4.97068 61.5169L4.2993 60.6794L3.73467 59.8735L3.27854 59.0983L2.93245 58.3528L2.6977 57.6361L2.57535 56.9469L2.56625 56.2843L2.67096 55.6469L2.88983 55.0334L3.22297 54.4425L3.6702 53.8728L4.23115 53.3229L4.90515 52.7913L5.69131 52.2766L6.58849 51.7773L7.5953 51.2919L8.71011 50.8189L9.93107 50.357L11.2561 49.9045L12.6828 49.4603L14.2087 49.0229L15.831 48.5909L17.5466 48.1631L19.3526 47.7383L21.2453 47.3154L23.2213 46.8933L25.2769 46.471L27.408 46.0477L29.6106 45.6224L31.8804 45.1945L34.2132 44.7633L36.6042 44.3284L39.049 43.8894L41.5428 43.4459L86.5365 35.5117L89.0462 35.0719L91.5099 34.6439L93.923 34.2298L96.2815 33.8315L98.5811 33.4509L100.818 33.0903L102.988 32.7515L105.088 32.4369L107.114 32.1486L109.063 31.8887L110.933 31.6596L112.719 31.4635L114.42 31.3025L116.033 31.1789L117.556 31.0948L118.986 31.0526L120.323 31.0542L121.564 31.1017L122.708 31.1973L123.754 31.3428L124.702 31.5401L125.55 31.791L126.298 32.0974L126.946 32.4606L127.494 32.8824L127.942 33.364L128.291 33.9068L128.542 34.5119L128.694 35.1802L128.75 35.9128L128.711 36.7102L128.578 37.573L128.353 38.5017L128.038 39.4965L127.635 40.5574L127.145 41.6843L126.573 42.8771L125.919 44.1351L125.187 45.4577L124.379 46.8442L123.499 48.2935L122.549 49.8045L121.533 51.3757L120.454 53.0055L119.314 54.6923L118.119 56.4341L116.87 58.2288L115.572 60.074L114.229 61.9674L112.842 63.9063L111.418 65.8879L109.958 67.9092L108.466 69.9671L81.6108 106.93L80.1155 108.983L78.6455 110.994L77.2024 112.959L75.7881 114.875L74.404 116.735L73.0516 118.537L71.7321 120.276L70.4465 121.949L69.1959 123.55L67.9809 125.077L66.8022 126.525L65.6604 127.892L64.5557 129.173L63.4883 130.365L62.4582 131.466L61.4655 132.472L60.5098 133.381L59.5908 134.19L58.708 134.897L57.8609 135.5L57.0488 135.996L56.2708 136.384L55.5259 136.663L54.8134 136.831L54.1319 136.888L53.4804 136.831L52.8576 136.662L52.2622 136.38L51.6928 135.984L51.1482 135.475L50.6266 134.853L50.1269 134.119L49.6473 133.274L49.1864 132.319L48.7426 131.255L48.3145 130.085L47.9006 128.81L47.4992 127.432L47.1091 125.953L46.7286 124.377L46.3564 122.705L45.9913 120.941L45.6317 119.089L45.2767 117.151L44.9249 115.131L44.5753 113.034L44.2269 110.862L43.8787 108.62L43.53 106.313L43.1799 103.944L42.8279 101.518L42.4735 99.0409L42.1162 96.5161L35.7584 51.2734L35.41 48.7667L35.0726 46.3081L34.748 43.9021L34.4378 41.5529L34.1441 39.2647L33.8688 37.0415L33.6139 34.887L33.3814 32.8048L33.1733 30.7985L32.9919 28.8713L32.8391 27.0262L32.7172 25.2662L32.6282 23.5937L32.5743 22.0114L32.5576 20.5214L32.5802 19.1256L32.6442 17.826L32.7514 16.624L32.904 15.5208L33.1038 14.5177L33.3526 13.6155L33.6521 12.8147L34.0042 12.1158L34.4102 11.519L34.8717 11.0241L35.3901 10.6308L35.9666 10.3388L36.6023 10.1471L37.2982 10.0549L38.0551 10.061L38.8738 10.1641L39.7548 10.3625L40.6986 10.6546L41.7053 11.0383L42.775 11.5117L43.9077 12.0723L45.1031 12.7178L46.3607 13.4455L47.6799 14.2527L49.06 15.1366L50.5 16.094L51.9987 17.1218L53.5547 18.217L55.1666 19.376L56.8326 20.5955L58.5509 21.872L60.3194 23.2019L62.1359 24.5817L63.998 26.0076L65.9031 27.476L67.8484 28.9832L69.8312 30.5254L71.8483 32.099L107.846 60.2248L109.83 61.7811L111.773 63.31L113.668 64.8096L115.514 66.2781L117.304 67.7138L119.035 69.1154L120.703 70.4814L122.304 71.8106L123.833 73.1022L125.288 74.3552L126.665 75.569L127.96 76.7429L129.17 77.8766L130.291 78.9698L131.32 80.0225L132.256 81.0346L133.094 82.0064L133.834 82.9381L134.471 83.8303L135.004 84.6834L135.432 85.4981L135.753 86.2753L135.965 87.0158L136.067 87.7206L136.058 88.3908L135.937 89.0277L135.704 89.6323L135.359 90.2061L134.902 90.7504L134.332 91.2667L133.651 91.7565L132.858 92.2212L131.956 92.6624L130.945 93.0816L129.827 93.4806L128.603 93.8607L127.276 94.2237L125.847 94.571L124.319 94.9043L122.694 95.225L120.976 95.5346L119.167 95.8346L117.271 96.1263L115.291 96.4111L113.231 96.6902L111.094 96.9649L108.885 97.2361L106.607 97.5051L104.266 97.7727L101.864 98.0397L99.4081 98.307L96.9015 98.5752L51.4703 103.351L48.9249 103.617L46.4252 103.875L43.9756 104.122L41.5807 104.358L39.2446 104.581L36.9716 104.789L34.7656 104.98L32.6304 105.152L30.5696 105.304L28.5868 105.433L26.6851 105.538L24.8676 105.616L23.1372 105.666L21.4965 105.684L19.948 105.671L18.4938 105.622L17.1359 105.537L15.8761 105.413L14.7159 105.248L13.6567 105.041L12.6993 104.79L11.8448 104.492L11.0937 104.147L10.4463 103.752L9.90279 103.306L9.46304 102.808L9.12674 102.256L8.89331 101.649L8.76199 100.986L8.73179 100.266L8.80149 99.4877L8.96968 98.6511L9.23475 97.7554L9.59488 96.8001L10.0481 95.7851L10.5922 94.7101L11.2248 93.5754L11.9434 92.381L12.7454 91.1275L13.6279 89.8154L14.588 88.4455L15.6225 87.0187L16.7283 85.5361L17.9021 83.999L19.1403 82.409L20.4396 80.7675L21.7963 79.0765L23.2069 77.338L24.6675 75.554L26.1744 73.7271L27.7238 71.8596L29.312 69.9541L30.9351 68.0137L60.3015 33.0151L61.943 31.0625L63.5571 29.1484L65.1415 27.277L66.6943 25.4527L68.2135 23.6795L69.6975 21.9616L71.1447 20.3032L72.5536 18.7081L73.9231 17.1802L75.252 15.7234L76.5394 14.3413L77.7846 13.0375L78.9869 11.8154L80.1459 10.6782L81.2613 9.6291L82.3329 8.67107L83.3607 7.80687L84.3449 7.0391L85.2857 6.37019L86.1835 5.80236L87.0389 5.33764L87.8526 4.97782L88.6252 4.72451L89.3578 4.57909L90.0512 4.54269L90.7067 4.61624L91.3253 4.80042L91.9083 5.09568L92.4571 5.50221L92.973 6.02L93.4575 6.64876L93.9122 7.38795L94.3386 8.23683L94.7382 9.19437L95.1128 10.2593L95.4639 11.4302L95.7931 12.7053L96.1022 14.0826L96.3927 15.5599L96.6663 17.1348L96.9246 18.8047L97.1691 20.5667L97.4013 22.4177L97.6229 24.3545L97.835 26.3736L98.0393 28.4713L98.2368 30.6438L98.429 32.8872L98.6168 35.1972L98.8014 37.5695L98.9838 39.9997L99.1647 42.4832L99.3451 45.0152L102.532 90.593L102.707 93.1295L102.874 95.6184L103.032 98.0551L103.181 100.435L103.317 102.754L103.44 105.008L103.548 107.194L103.64 109.306L103.712 111.342L103.764 113.297L103.794 115.17L103.799 116.957L103.778 118.654L103.729 120.26L103.65 121.772L103.538 123.187L103.393 124.504L103.211 125.721L102.992 126.837L102.733 127.85L102.433 128.759L102.089 129.563L101.701 130.263L101.266 130.856L100.784 131.345L100.252 131.727L99.6692 132.005L99.035 132.178L98.3478 132.248L97.6069 132.214L96.8113 132.08L95.9604 131.845L95.0535 131.513L94.0903 131.084L93.0705 130.56L91.994 129.945L90.8609 129.24L89.6713 128.448L88.4256 127.571L87.1245 126.614L85.7685 125.577L84.3587 124.466L82.896 123.283L81.3817 122.031L79.8172 120.714L78.2041 119.336L76.5443 117.9L74.8395 116.409L73.0918 114.869L71.3037 113.283L69.4774 111.653L67.6157 109.986L65.7211 108.284L31.7684 77.7118L29.8878 76.0136L28.0463 74.345L26.2481 72.7084L24.4972 71.1059L22.7979 69.5394L21.1541 68.0107L19.5698 66.5214L18.049 65.0732L16.5954 63.6671L15.2128 62.3045L13.9048 60.9864L12.6748 59.7135L11.5261 58.4865L10.4621 57.3059L9.48567 56.1721L8.59977 55.0853L7.80711 54.0455L7.11024 53.0526L6.51151 52.1065L6.01308 51.2066L5.61692 50.3525L5.32478 49.5436L5.13821 48.7791L5.05851 48.058L5.0868 47.3795L5.22394 46.7423L5.47057 46.1454L5.82709 45.5875L6.29366 45.0671L6.8702 44.5829L7.5564 44.1334L8.3517 43.717L9.2553 43.3321L10.2661 42.977L11.3829 42.6502L12.6042 42.3499L13.9281 42.0745L15.3527 41.8221L16.8758 41.5911L18.4949 41.3798L20.2073 41.1865L22.0102 41.0095L23.9005 40.8473L25.8748 40.6983L27.9298 40.5608L30.0617 40.4336L32.2666 40.3151L34.5406 40.204L36.8795 40.099L39.2789 39.999L41.7344 39.9029L44.2414 39.8097L46.7951 39.7185L92.4517 38.1251L94.9754 38.0413L97.4496 37.9636L99.8695 37.8931L102.231 37.8314L104.529 37.7798L106.761 37.7399L108.922 37.7132L111.007 37.7015L113.015 37.7064L114.94 37.7297L116.781 37.7732L118.533 37.8387L120.195 37.928L121.762 38.043L123.234 38.1856L124.608 38.3576L125.882 38.561L127.053 38.7974L128.122 39.0687L129.086 39.3768L129.945 39.7233L130.697 40.1099L131.342 40.5381L131.88 41.0096L132.311 41.5259L132.635 42.0881L132.853 42.6978L132.964 43.356L132.97 44.0637L132.873 44.822L132.672 45.6317L132.37 46.4935L131.969 47.408L131.471 48.3755L130.877 49.3963L130.19 50.4707L129.412 51.5985L128.546 52.7796L127.595 54.0137L126.562 55.3001L125.45 56.6383L124.263 58.0274L123.002 59.4665L121.673 60.9542L120.278 62.4893L118.822 64.0702L117.307 65.6952L115.739 67.3626L114.12 69.0702L112.456 70.8158L110.748 72.5971L109.003 74.4117L75.4918 109.113L73.7403 110.92L72.0207 112.687L70.3354 114.41L68.6867 116.086L67.0764 117.709L65.5066 119.278L63.9789 120.786L62.495 122.231L61.0561 123.609L59.6635 124.917L58.3183 126.15L57.0213 127.305L55.7734 128.38L54.5749 129.37L53.4265 130.274L52.3282 131.087L51.2801 131.808L50.2823 132.434L49.3345 132.963L48.4363 133.392L47.5872 133.72L46.7866 133.945L46.0337 134.066L45.3277 134.081L44.6676 133.989L44.0522 133.789L43.4804 133.482L42.9509 133.065L42.4622 132.54L42.013 131.906L41.6017 131.165L41.2266 130.315L40.8863 129.359L40.5789 128.297L40.3027 127.131L40.056 125.861L39.8371 124.491L39.644 123.022L39.4751 121.456L39.3286 119.795L39.2027 118.043L39.0956 116.202L39.0057 114.276L38.9312 112.267L38.8706 110.18L38.8222 108.017L38.7845 105.783L38.7562 103.482L38.7357 101.118L38.7218 98.695L38.7134 96.2179L38.7092 93.6912L38.7083 48.0059L38.7104 45.452L38.7162 42.945L38.7268 40.4894L38.7432 38.09L38.7667 35.7509L38.7987 33.4767L38.8405 31.2713L38.8937 29.1388L38.9598 27.083L39.0404 25.1074L39.1371 23.2155L39.2516 21.4105L39.3857 19.6954L39.5411 18.0731L39.7196 16.5461L39.923 15.1169L40.1531 13.7876L40.4115 12.5601L40.7002 11.436L41.0208 10.417L41.3751 9.5041L41.7648 8.69837L42.1913 8.00054L42.6565 7.4111L43.1616 6.93032L43.7082 6.55821L44.2976 6.29454L44.931 6.13888L45.6097 6.09053L46.3347 6.14858L47.1069 6.31188L47.9271 6.57909L48.7962 6.94862L49.7145 7.4187L50.6827 7.98733L51.701 8.65234L52.7695 9.41135L53.8882 10.2618L55.0571 11.201L56.2758 12.2261L57.5438 13.3339L58.8605 14.5214L60.2251 15.7852L61.6367 17.1218L63.0941 18.5276L64.596 19.9991L66.1411 21.5325L67.7276 23.1238L69.3538 24.7692L71.0177 26.4647L72.7172 28.2062L74.4501 29.9897L76.2138 31.8111L107.952 64.6765L109.718 66.5095L111.449 68.3108L113.139 70.0779L114.786 71.8084L116.384 73.4998L117.931 75.1501L119.422 76.7574L120.854 78.3199L122.222 79.8358L123.524 81.3039L124.755 82.7227L125.913 84.0912L126.993 85.4084L127.993 86.6736L128.909 87.8861L129.74 89.0455L130.481 90.1516L131.13 91.2042L131.686 92.2033L132.145 93.1491L132.505 94.042L132.766 94.8825L132.925 95.6712L132.98 96.4088L132.931 97.0963L132.777 97.7346L132.516 98.3247L132.149 98.8681L131.674 99.3659L131.092 99.8197L130.403 100.231L129.608 100.601L128.706 100.931L127.699 101.224L126.589 101.481L125.375 101.704L124.06 101.894L122.646 102.054L121.135 102.185L119.529 102.29L117.83 102.369L116.042 102.425L114.166 102.46L112.207 102.476L110.167 102.474L108.05 102.456L105.86 102.424L103.601 102.379L101.276 102.323L98.8906 102.257L96.448 102.184L93.9531 102.103L91.4106 102.018L45.7495 100.423L43.2143 100.331L40.7277 100.237L38.2945 100.139L35.9192 100.037L33.6063 99.9298L31.3599 99.8158L29.1842 99.6939L27.0832 99.5627L25.0607 99.4207L23.1202 99.2665L21.2651 99.0985L19.4987 98.9151L17.8239 98.7146L16.2436 98.4955L14.7604 98.256L13.3765 97.9944L12.0942 97.709L10.9153 97.3981L9.84151 97.0601L8.87421 96.6931L8.01462 96.2955L7.26368 95.8658L6.62208 95.4023L6.09032 94.9036L5.66858 94.3681L5.35686 93.7944L5.15489 93.1813L5.06219 92.5274L5.078 91.8317L5.20138 91.093L5.43112 90.3105L5.76583 89.4833L6.20388 88.6106L6.74341 87.6919L7.38239 86.7268L8.11858 85.7148L8.94954 84.6559L9.87265 83.5499L10.8851 82.3971L11.984 81.1975L13.1662 79.9517L14.4284 78.6603L15.7672 77.3239L17.1792 75.9435L18.6606 74.5201L20.2077 73.055L21.8167 71.5495L23.4836 70.0052L25.2044 68.4238L26.9751 66.8071L28.7915 65.1572L30.6494 63.4763L32.5447 61.7667L66.4966 31.1973L68.3782 29.5087L70.2258 27.8562L72.0368 26.244L73.8088 24.6758L75.5392 23.1555L77.2259 21.687L78.867 20.274L80.4604 18.9202L82.0047 17.6294L83.4981 16.405L84.9394 15.2506L86.3274 14.1694L87.6611 13.1647L88.9398 12.2397L90.1626 11.3973L91.3293 10.6403L92.4394 9.97151L93.4928 9.39333L94.4895 8.90815L95.4297 8.51814L96.3137 8.22527L97.142 8.03135L97.9153 7.93795L98.6342 7.94645L99.2996 8.05804L99.9127 8.27366L100.474 8.59403L100.986 9.01968L101.449 9.55086L101.865 10.1876L102.234 10.9298L102.56 11.7769L102.844 12.7284L103.086 13.7833L103.29 14.9404L103.456 16.1985L103.588 17.5559L103.686 19.0107L103.753 20.5611L103.79 22.2045L103.8 23.9386L103.785 25.7606L103.746 27.6676L103.685 29.6564L103.605 31.7238L103.506 33.8662L103.392 36.0799L103.263 38.361L103.122 40.7055L102.969 43.1091L102.807 45.5676L102.636 48.0765L99.2717 96.2L99.0911 98.7128L98.9097 101.175L98.7265 103.582L98.5407 105.93L98.3513 108.213L98.1571 110.428L97.957 112.571L97.7497 114.637L97.5338 116.623L97.3081 118.525L97.071 120.34L96.8211 122.065L96.5568 123.697L96.2765 125.232L95.9786 126.669L95.6615 128.005L95.3236 129.238L94.9631 130.366L94.5786 131.387L94.1682 132.3L93.7305 133.105L93.2638 133.799L92.7667 134.383L92.2376 134.855L91.675 135.216L91.0777 135.466L90.4442 135.605L89.7734 135.634L89.0642 135.553L88.3154 135.363L87.5261 135.067L86.6956 134.664L85.8229 134.157L84.9076 133.548L83.9492 132.838L82.9473 132.031L81.9016 131.128L80.8122 130.133L79.679 129.047L78.5024 127.875L77.2825 126.619L76.0201 125.283L74.7156 123.87L73.3701 122.384L71.9844 120.828L70.5597 119.207L69.0974 117.524L67.5988 115.783L66.0657 113.988L64.4998 112.144L62.903 110.255L61.2775 108.325L31.9119 73.3299L30.27 71.37L28.6606 69.4435L27.0878 67.5532L25.5552 65.7019L24.0667 63.8922L22.626 62.1264L21.237 60.407L19.9032 58.736L18.6284 57.1152L17.416 55.5466L16.2695 54.0315L15.1923 52.5715L14.1877 51.1678L13.2589 49.8213L12.4088 48.533L11.6405 47.3035L10.9566 46.1334L10.3597 45.023L9.85237 43.9724L9.43683 42.9817L9.11519 42.0508L8.88938 41.1792L8.76112 40.3666L8.73196 39.6123L8.80322 38.9155L8.97602 38.2754L9.25127 37.691L9.62966 37.161L10.1116 36.6842L10.6975 36.2593L11.3872 35.8848L12.1805 35.5591L13.0769 35.2805L14.0759 35.0474L15.1764 34.8578L16.3773 34.7101L17.6773 34.6021L19.0746 34.5321L20.5675 34.4979L22.1539 34.4976L23.8314 34.5292L25.5976 34.5906L27.4497 34.6798L29.3849 34.7947L31.3998 34.9334L33.4913 35.0938L35.6558 35.2741L37.8896 35.4722L40.1888 35.6863L42.5494 35.9148L44.9671 36.1556L47.4377 36.4074L49.9565 36.6683L95.3941 41.4435L97.9283 41.7124L100.415 41.9801L102.849 42.2472L105.227 42.5144L107.543 42.7824L109.793 43.0522L111.973 43.3248L114.08 43.6011L116.108 43.8824L118.054 44.1698L119.915 44.4647L121.687 44.7685L123.367 45.0824L124.953 45.4081L126.441 45.7469L127.829 46.1004L129.114 46.4702L130.295 46.8578L131.37 47.2648L132.337 47.6928L133.195 48.1434L133.942 48.6181L134.578 49.1185L135.102 49.646L135.513 50.2022L135.813 50.7884L136 51.406L136.075 52.0563L136.039 52.7405L135.892 53.4597L135.635 54.215L135.271 55.0074L134.8 55.8376L134.224 56.7066L133.545 57.6148L132.765 58.5628L131.886 59.551L130.912 60.5796L129.845 61.6488L128.687 62.7585L127.443 63.9087L126.114 65.0989L124.705 66.3287L123.219 67.5975L121.66 68.9045L120.031 70.2489L118.337 71.6295L116.581 73.0452L114.768 74.4945L112.902 75.9758L110.987 77.4876L109.027 79.0279L107.026 80.5947L71.0227 108.724L69.0192 110.285L67.0513 111.813L65.122 113.305L63.2341 114.757L61.3903 116.164L59.5931 117.524L57.8448 118.833L56.1475 120.087L54.5033 121.282L52.914 122.415L51.3812 123.483L49.9063 124.483L48.4906 125.411L47.1352 126.264L45.8409 127.039L44.6086 127.733L43.4387 128.345L42.3316 128.87L41.2876 129.307L40.3065 129.654L39.3884 129.908L38.5328 130.068L37.7393 130.131L37.0074 130.098L36.3361 129.965L35.7247 129.733L35.172 129.399L34.6769 128.965L34.2382 128.428L33.8543 127.79L33.5239 127.05L33.2452 126.207L33.0166 125.264L32.8363 124.22L32.7024 123.076L32.613 121.835L32.5662 120.496L32.5598 119.061L32.5919 117.533L32.6603 115.914L32.763 114.206L32.8977 112.41L33.0624 110.532L33.255 108.572L33.4733 106.534L33.7152 104.422L33.9786 102.239L34.2617 99.989L34.5623 97.6755L34.8786 95.3026L35.2086 92.8747L35.5507 90.396L35.9031 87.8709L42.2621 42.6282L42.6182 40.1221L42.9716 37.6652L43.3227 35.2623L43.6721 32.918L44.0205 30.6368L44.3687 28.423L44.7175 26.2809L45.0679 24.2145L45.4209 22.2277L45.7776 20.3242L46.1393 18.5075L46.5071 16.7811L46.8825 15.1479L47.2667 13.6109L47.6613 12.173L48.0676 10.8364L48.4871 9.60363L48.9214 8.47658L49.372 7.45709L49.8403 6.54673L50.3279 5.74683L50.8364 5.05846L51.3671 4.48246L51.9217 4.01942L52.5015 3.66969L53.1079 3.43336L53.7422 3.31027L54.4058 3.30004L55.0998 3.40203L55.8254 3.61535L56.5836 3.93891L57.3755 4.37135L58.2018 4.9111L59.0633 5.55637L59.9607 6.30514L60.8946 7.15521L61.8654 8.10412L62.8733 9.14928L63.9185 10.2879L65.0012 11.5169L66.1211 12.8332L67.2779 14.2335L68.4715 15.7142L69.701 17.2718L70.966 18.9026L72.2655 20.6025L73.5986 22.3677L74.9641 24.1941L76.3606 26.0775L77.7869 28.0136L79.2411 29.9981L80.7217 32.0266L82.2267 34.0948L109.077 71.0536L110.556 73.097L112.002 75.1025L113.412 77.067L114.781 78.9877L116.107 80.8618L117.385 82.6867L118.612 84.4601L119.785 86.1797L120.901 87.8435L121.955 89.4497L122.944 90.9965L123.866 92.4825L124.717 93.9064L125.494 95.267L126.195 96.5634L126.816 97.7949L127.355 98.9609L127.809 100.061L128.177 101.095L128.456 102.063L128.644 102.965L128.739 103.801L128.739 104.572L128.644 105.278L128.452 105.92L128.161 106.5L127.772 107.018L127.283 107.475L126.694 107.873L126.005 108.212L125.216 108.496L124.328 108.725L123.34 108.901L122.254 109.026L121.07 109.102L119.79 109.13L118.415 109.114L116.946 109.054L115.387 108.954L113.737 108.815L112.001 108.639L110.181 108.429L108.279 108.187L106.298 107.915L104.241 107.616L102.112 107.291L99.9145 106.944L97.6517 106.575L95.3277 106.186L92.9464 105.782L90.5122 105.362L88.0292 104.928L40.5213 96.5511L38.047 96.1095L35.6235 95.6722L33.2556 95.2388L30.948 94.8091L28.705 94.3823L26.531 93.9579L24.4302 93.535L22.4066 93.113L20.464 92.6907L18.6062 92.2671L16.8367 91.8413L15.1587 91.4119L13.5753 90.9779L12.0895 90.5378L10.7039 90.0904L9.42104 89.6343L8.24308 89.168L7.17204 88.6902L6.20971 88.1993L5.3576 87.6939L4.617 87.1725L3.98896 86.6336L3.47427 86.0758L3.07348 85.4977L2.78688 84.8977L2.61454 84.2747L2.55624 83.6271L2.61156 82.9538L2.77981 82.2536L3.06006 81.5253L3.45114 80.7678L3.95167 79.9802L4.56001 79.1615L5.27432 78.311L6.09252 77.428L7.01235 76.512L8.0313 75.5623L9.14672 74.5788L10.3557 73.5611L11.6552 72.5093L13.042 71.4233L14.5128 70.3033L16.0639 69.1497L17.6917 67.9629L19.3923 66.7435L21.1619 65.4923L22.9963 64.2102L24.8914 62.8983L26.8429 61.5577L28.8466 60.1899L30.8979 58.7964L32.9926 57.3787L70.8681 31.8305L72.9846 30.4057L75.0641 29.0103L77.1035 27.6478L79.0994 26.3217L81.0491 25.0355L82.9496 23.7928L84.7984 22.5969L86.5931 21.4514L88.3312 20.3596L90.0108 19.3249L91.63 18.3506L93.187 17.4398L94.6803 16.5957L96.1085 15.8212L97.4706 15.1194L98.7655 14.4931L99.9924 13.9448L101.151 13.4772L102.24 13.0926L103.261 12.7933L104.212 12.5814L105.094 12.4589L105.907 12.4274L106.652 12.4885L107.329 12.6436L107.94 12.894L108.484 13.2405L108.964 13.684L109.38 14.225L109.734 14.8638L110.027 15.6007L110.261 16.4356L110.438 17.3681L110.559 18.3976L110.626 19.5235L110.641 20.7448L110.606 22.0602L110.524 23.4684L110.397 24.9676L110.226 26.556L110.015 28.2314L109.764 29.9916L109.478 31.8341L109.157 33.7561L108.805 35.7546L108.424 37.8266L108.015 39.9687L107.581 42.1774L107.126 44.4491L106.649 46.7798L106.155 49.1655L105.645 51.6022L105.12 54.0854L95.621 98.776L95.0894 101.263L94.5639 103.702L94.0445 106.088L93.531 108.418L93.023 110.685L92.52 112.887L92.0216 115.018L91.5271 117.074L91.0357 119.052L90.5466 120.948L90.0589 122.757L89.5716 124.477L89.0836 126.104L88.5937 127.635L88.1008 129.067L87.6035 130.398L87.1006 131.625L86.5908 132.746L86.0726 133.759L85.5446 134.663L85.0054 135.455L84.4536 136.135L83.8877 136.701L83.3063 137.153L82.708 137.491L82.0915 137.713L81.4553 137.821L80.7981 137.814L80.1187 137.692L79.4159 137.458L78.6885 137.11L77.9354 136.651L77.1556 136.083L76.3483 135.406L75.5126 134.623L74.6477 133.736L73.7531 132.747L72.8283 131.659L71.8728 130.474L70.8864 129.195L69.8689 127.827L68.8203 126.37L67.7408 124.831L66.6306 123.211L65.49 121.514L64.3197 119.746L63.1202 117.908L61.8925 116.007L60.6374 114.045L59.3561 112.028L58.0499 109.959L56.7202 107.843L55.3685 105.685L31.1576 66.9388L29.8177 64.7876L28.5071 62.6757L27.2292 60.6063L25.9875 58.5827L24.7854 56.608L23.6261 54.6848L22.5132 52.816L21.45 51.004L20.4397 49.2512L19.4856 47.5596L18.5909 45.9312L17.7587 44.3679L16.9921 42.8711L16.2939 41.4422L15.6671 40.0825L15.1142 38.7928L14.638 37.574L14.241 36.4268L13.9254 35.3515L13.6934 34.3483L13.547 33.4174L13.4882 32.5585L13.5187 31.7713L13.6398 31.0555L13.853 30.4103L14.1595 29.8349L14.5601 29.3284L15.0556 28.8896L15.6465 28.5173L16.3331 28.2101L17.1156 27.9664L17.9939 27.7847L18.9675 27.6631L20.036 27.5999L21.1987 27.593L22.4544 27.6403L23.802 27.7399L25.24 27.8895L26.7668 28.0867L28.3805 28.3294L30.079 28.6152L31.8599 28.9416L33.7208 29.3063L35.659 29.7069L37.6714 30.1408L39.7551 30.6058L41.9066 31.0994L44.1224 31.6191L46.399 32.1626L48.7324 32.7277L51.1188 33.3119L53.5538 33.9132L56.0333 34.5292L100.361 45.5823L102.81 46.1975L105.211 46.8048L107.557 47.4042L109.844 47.9958L112.069 48.5799L114.226 49.1567L116.311 49.7267L118.32 50.2904L120.249 50.8485L122.094 51.4017L123.852 51.9508L125.52 52.4968L127.093 53.0406L128.57 53.5833L129.946 54.1261L131.221 54.6701L132.39 55.2166L133.452 55.7668L134.406 56.3221L135.249 56.8839L135.98 57.4535L136.598 58.0323L137.101 58.6218L137.49 59.2232L137.763 59.8381L137.921 60.4677L137.963 61.1135L137.89 61.7766L137.702 62.4585L137.4 63.1603L136.985 63.8832L136.459 64.6282L135.823 65.3964L135.078 66.1887L134.227 67.0061L133.271 67.8491L132.214 68.7186L131.057 69.615L129.804 70.5389L128.457 71.4905L127.021 72.47L125.497 73.4776L123.889 74.5132L122.202 75.5766L120.439 76.6675L118.604 77.7854L116.702 78.9298L114.735 80.1L112.709 81.295L110.628 82.5139L108.496 83.7554L106.319 85.0183L64.5409 109.139L62.3589 110.393L60.2185 111.618L58.123 112.81L56.0757 113.967L54.0797 115.084L52.1378 116.159L50.2529 117.189L48.4274 118.17L46.6637 119.098L44.964 119.972L43.3303 120.787L41.7644 121.541L40.2678 122.23L38.8421 122.853L37.4883 123.405L36.2075 123.886L35.0006 124.291L33.868 124.618L32.8104 124.866L31.8278 125.032L30.9204 125.114L30.0879 125.111L29.3302 125.02L28.6467 124.841L28.0367 124.571L27.4994 124.211L27.0338 123.758L26.6388 123.213L26.3131 122.575L26.0552 121.843L25.8636 121.017L25.7366 120.098L25.6723 119.086L25.6689 117.982L25.7243 116.786L25.8364 115.498L26.003 114.122L26.2219 112.657L26.4907 111.106L26.8071 109.471L27.1685 107.753L27.5725 105.954L28.0166 104.079L28.4983 102.128L29.0151 100.105L29.5643 98.0139L30.1436 95.8568L30.7503 93.6377L31.382 91.3601L32.0363 89.0278L32.7107 86.6449L33.403 84.2154L45.9946 40.2998L46.7007 37.845L47.3974 35.4362L48.0845 33.0781L48.7617 30.7754L49.4292 28.5328L50.0869 26.3548L50.7351 24.2456L51.3741 22.2096L52.0044 20.2507L52.6265 18.373L53.241 16.5801L53.8487 14.8756L54.4504 13.263L55.047 11.7453L55.6395 10.3256L56.229 9.00676L56.8166 7.79121L57.4034 6.68134L57.9907 5.67927L58.5798 4.78687L59.1719 4.00581L59.7685 3.33748L60.3708 2.78304L60.9803 2.3434L61.5983 2.01923L62.2261 1.81095L62.8653 1.71872L63.517 1.74245L64.1825 1.8818L64.8632 2.1362L65.5603 2.50481L66.275 2.98655L67.0083 3.58012L67.7613 4.28395L68.535 5.09626L69.3303 6.01505L70.1479 7.03808L70.9887 8.1629L71.8531 9.38685L72.7418 10.7071L73.655 12.1205L74.5931 13.624L75.5563 15.214L76.5445 16.8871L77.5576 18.6394L78.5956 20.4671L79.6578 22.3661L80.744 24.3324L81.8534 26.3617L82.9853 28.4495L84.1387 30.5915L85.3126 32.783L86.5059 35.0196L107.956 75.36L109.148 77.6092L110.316 79.8182L111.454 81.9832L112.56 84.101L113.631 86.1681L114.663 88.1815L115.654 90.1381L116.6 92.0353L117.498 93.8705L118.345 95.6411L119.139 97.3451L119.875 98.9804L120.551 100.545L121.164 102.038L121.711 103.457L122.19 104.801L122.599 106.069L122.934 107.261L123.193 108.375L123.374 109.412L123.476 110.37L123.496 111.251L123.432 112.054L123.283 112.779L123.047 113.427L122.724 113.999L122.311 114.495L121.809 114.917L121.217 115.265L120.533 115.542L119.759 115.748L118.893 115.885L117.936 115.955L116.889 115.96L115.751 115.901L114.524 115.781L113.209 115.603L111.807 115.367L110.319 115.077L108.747 114.735L107.093 114.344L105.359 113.905L103.547 113.423L101.66 112.898L99.7007 112.334L97.6717 111.734L95.5762 111.1L93.4174 110.434L91.1989 109.74L88.9241 109.019L86.597 108.276L84.2214 107.511L81.8015 106.728L38.3488 92.6089L35.9366 91.8216L33.5718 91.0455L31.2592 90.2809L29.0033 89.5281L26.8089 88.7873L24.6802 88.0584L22.6216 87.3414L20.6374 86.636L18.7314 85.9419L16.9077 85.2587L15.1699 84.5858L13.5215 83.9225L11.9658 83.2681L10.5061 82.6218L9.14528 81.9827L7.88603 81.3497L6.73091 80.7219L5.68222 80.098L4.74202 79.477L3.91217 78.8576L3.19424 78.2385L2.58961 77.6185L2.0994 76.9962L1.72446 76.3702L1.46542 75.7393L1.32265 75.102L1.29626 74.457L1.38613 73.803L1.59187 73.1387L1.91283 72.4628L2.34815 71.7741L2.89671 71.0713L3.55713 70.3534L4.32781 69.6192L5.20691 68.8677L6.19239 68.0981L7.28193 67.3094L8.47305 66.501L9.76304 65.6721L11.149 64.8221L12.6278 63.9507L14.1961 63.0574L15.8505 62.1421L17.5874 61.2046L19.403 60.2449L21.2932 59.2632L23.2541 58.2597L25.2814 57.2349L27.3708 56.1893L29.5179 55.1236L31.7181 54.0385L33.9669 52.935L36.2596 51.8142L77.3225 31.7873L79.5971 30.6824L81.8291 29.603L84.0149 28.5521L86.151 27.5327L88.234 26.5479L90.2608 25.6007L92.2284 24.6944L94.134 23.8318L95.9749 23.0161L97.7487 22.2503L99.4531 21.5372L101.086 20.8799L102.646 20.2811L104.131 19.7437L105.539 19.2703L106.87 18.8635L108.123 18.5258L109.295 18.2596L110.388 18.0671L111.4 17.9506L112.332 17.9119L113.182 17.9529L113.952 18.0754L114.642 18.2808L115.251 18.5706L115.782 18.9459L116.235 19.4078L116.61 19.957L116.909 20.5943L117.134 21.32L117.286 22.1344L117.366 23.0376L117.377 24.0293L117.32 25.1092L117.198 26.2768L117.012 27.5311L116.765 28.8712L116.459 30.2959L116.096 31.8037L115.68 33.3929L115.212 35.0618L114.695 36.8081L114.133 38.6297L113.527 40.524L112.88 42.4884L112.195 44.52L111.475 46.6157L110.723 48.7723L109.941 50.9863L109.132 53.2542L108.299 55.5723L107.444 57.9365L90.9447 103.268L90.0784 105.635L89.2252 107.952L88.3855 110.216L87.5597 112.422L86.748 114.565L85.9507 116.642L85.1676 118.647L84.3986 120.577L83.6436 122.427L82.9022 124.194L82.1738 125.875L81.458 127.465L80.7541 128.961L80.0613 130.361L79.3788 131.661L78.7057 132.859L78.0409 133.952L77.3835 134.938L76.7322 135.815L76.086 136.582L75.4435 137.235L74.8035 137.775L74.1647 138.2L73.5259 138.51L72.8856 138.703L72.2425 138.78L71.5953 138.741L70.9427 138.585L70.2833 138.312L69.6158 137.925L68.9391 137.423L68.2518 136.809L67.5529 136.082L66.8411 135.245L66.1155 134.3L65.3751 133.249L64.619 132.094L63.8463 130.838L63.0564 129.483L62.2486 128.033L61.4223 126.491L60.5773 124.859L59.713 123.143L58.8295 121.344L57.9265 119.467L57.0041 117.517L56.0626 115.496L55.1021 113.411L54.1232 111.264L53.1265 109.06L52.1125 106.804L51.0822 104.501L32.5001 62.7682L31.4618 60.4312L30.4456 58.1353L29.4544 55.8842L28.4911 53.6816L27.5588 51.5311L26.6603 49.4361L25.7985 47.3997L24.9766 45.4251L24.1974 43.5151L23.4638 41.6722L22.7788 39.8991L22.1453 38.198L21.5659 36.5709L21.0436 35.0197L20.5809 33.5462L20.1805 32.1517L19.8449 30.8375L19.5765 29.6047L19.3777 28.4542L19.2505 27.3864L19.1971 26.402L19.2195 25.501L19.3193 24.6836L19.4984 23.9496L19.758 23.2986L20.0997 22.73L20.5245 22.2432L21.0334 21.8372L21.6272 21.511L22.3065 21.2632L23.0718 21.0924L23.9232 20.9972L24.8608 20.9757L25.8845 21.0262L26.9937 21.1466L28.1879 21.3349L29.4663 21.5887L30.828 21.9059L32.2716 22.2839L33.7957 22.7203L35.3987 23.2125L37.0787 23.7578L38.8337 24.3535L40.6615 24.9969L42.5594 25.6851L44.525 26.4154L46.5553 27.1848L48.6473 27.9906L50.7978 28.8299L53.0034 29.6998L55.2605 30.5975L57.5655 31.5202L59.9144 32.4651L102.275 49.5795L104.638 50.5367L106.955 51.4796L109.222 52.4075L111.434 53.3199L113.587 54.2161L115.677 55.0959L117.698 55.9589L119.647 56.8053L121.52 57.6348L123.313 58.4478L125.021 59.2444L126.642 60.025L128.172 60.7902L129.607 61.5404L130.945 62.2763L132.183 62.9989L133.318 63.7088L134.347 64.407L135.269 65.0947L136.082 65.7727L136.783 66.4423L137.372 67.1046L137.847 67.7609L138.206 68.4125L138.45 69.0607L138.577 69.7067L138.588 70.3519L138.482 70.9977L138.26 71.6453L137.922 72.2962L137.469 72.9515L136.901 73.6127L136.22 74.2808L135.428 74.9572L134.526 75.643L133.517 76.3392L132.401 77.0469L131.182 77.767L129.862 78.5004L128.445 79.2479L126.932 80.0102L125.328 80.788L123.636 81.5816L121.859 82.3915L120 83.2179L118.065 84.0612L116.057 84.9212L113.98 85.7978L111.838 86.691L109.636 87.6004L107.379 88.5255L105.071 89.4657L102.716 90.4203L60.3542 107.536L57.9975 108.485L55.6841 109.412L53.4178 110.314L51.2024 111.189L49.0415 112.035L46.9384 112.847L44.8964 113.623L42.9186 114.361L41.0079 115.057L39.167 115.709L37.3984 116.314L35.7043 116.869L34.0868 117.371L32.548 117.818L31.0893 118.207L29.7124 118.535L28.4185 118.801L27.2086 119.002L26.0835 119.135L25.044 119.199L24.0905 119.191L23.2231 119.109L22.4419 118.952L21.7466 118.719L21.137 118.407L20.6124 118.016L20.1721 117.545L19.8151 116.991L19.5404 116.355L19.3465 115.637L19.2321 114.835L19.1955 113.949L19.235 112.98L19.3486 111.928L19.5344 110.793L19.79 109.575L20.1134 108.276L20.5019 106.896L20.9533 105.437L21.4648 103.901L22.0337 102.287L22.6575 100.6L23.3332 98.8399L24.0579 97.0098L24.8289 95.112L25.6431 93.1491L26.4977 91.124L27.3896 89.0396L28.3159 86.8992L29.2737 84.706L30.2599 82.4636L31.2717 80.1756L32.3062 77.846L50.8895 36.1085L51.9228 33.7971L52.9398 31.5323L53.9399 29.3187L54.9221 27.1609L55.886 25.0634L56.8311 23.0306L57.757 21.0669L58.6636 19.1763L59.5508 17.3629L60.4186 15.6306L61.2672 13.9831L62.0969 12.4239L62.9081 10.9565L63.7012 9.58394L64.4771 8.30935L65.2362 7.1355L65.9795 6.06496L66.7077 5.10013L67.422 4.24315L68.1232 3.49596L68.8126 2.86025L69.4912 2.33748L70.1602 1.92886L70.821 1.63538L71.4748 1.45777L72.1229 1.39648L72.7667 1.45177L73.4074 1.62359L74.0464 1.91168L74.6851 2.3155L75.3247 2.83429L75.9666 3.46702L76.6121 4.21242L77.2624 5.06899L77.9186 6.03496L78.5819 7.10837L79.2534 8.28699L79.9341 9.56839L80.6249 10.9499L81.3267 12.4287L82.0402 14.0017L82.7662 15.6657L83.5052 17.4171L84.2577 19.2524L85.024 21.1678L85.8045 23.1593L86.5992 25.2228L87.4082 27.3541L88.2314 29.5488L89.0685 31.8025L89.9193 34.1104L90.7833 36.468L91.6597 38.8704L107.283 81.7988L108.142 84.1712L108.979 86.4981L109.793 88.7756L110.58 90.9999L111.338 93.1674L112.064 95.2746L112.756 97.3183L113.41 99.2954L114.023 101.203L114.594 103.038L115.12 104.799L115.597 106.482L116.023 108.086L116.396 109.609L116.712 111.049L116.97 112.405L117.168 113.676L117.302 114.859L117.372 115.955L117.373 116.964L117.306 117.883L117.168 118.714L116.956 119.456L116.671 120.11L116.31 120.675L115.872 121.153L115.356 121.545L114.761 121.85L114.086 122.071L113.331 122.209L112.495 122.265L111.579 122.241L110.582 122.138L109.504 121.96L108.346 121.707L107.108 121.383L105.792 120.988L104.398 120.527L102.927 120.001L101.381 119.414L99.7612 118.767L98.0698 118.064L96.3087 117.308L94.4801 116.501L92.5863 115.647L90.63 114.749L88.6139 113.809L86.5411 112.831L84.4146 111.818L82.2377 110.772L80.014 109.698L77.7471 108.597L34.3886 87.4496L32.1313 86.3429L29.9218 85.2543L27.7645 84.1849L25.664 83.1355L23.6249 82.1068L21.6514 81.0993L19.7477 80.1136L17.918 79.1498L16.1663 78.2082L14.4963 77.2887L12.9117 76.3914L11.4161 75.5159L10.0127 74.662L8.70472 73.8293L7.49506 73.0171L6.3865 72.2248L5.38156 71.4517L4.48259 70.697L3.69166 69.9596L3.01069 69.2388L2.4413 68.5333L1.9849 67.842L1.64267 67.1638L1.41552 66.4975L1.30415 65.8417L1.30898 65.1951L1.43018 64.5565L1.6677 63.9245L2.02119 63.2977L2.49011 62.6748L3.07361 62.0544L3.77064 61.4353L4.57987 60.816L5.49975 60.1954L6.52849 59.5722L7.66405 58.9452L8.90418 58.3133L10.2464 57.6754L11.688 57.0305L13.2261 56.3777L14.8576 55.7161L16.5791 55.045L18.3872 54.3637L20.2782 53.6716L22.2482 52.9684L24.2933 52.2535L26.4093 51.5269L28.5919 50.7883L30.8367 50.0377L33.1392 49.2753L35.4946 48.5013L37.8984 47.716L81.3485 33.5974L83.7762 32.811L86.1603 32.0427L88.4967 31.2948L90.7815 30.57L93.0107 29.8708L95.1808 29.1997L97.2883 28.5595L99.3299 27.9526L101.302 27.3818L103.203 26.8497L105.029 26.359L106.777 25.9121L108.446 25.5118L110.034 25.1605L111.537 24.8608L112.956 24.615L114.287 24.4256L115.53 24.2947L116.685 24.2247L117.749 24.2175L118.723 24.2753L119.605 24.3999L120.397 24.593L121.097 24.8564L121.706 25.1914L122.225 25.5996L122.654 26.082L122.994 26.6397L123.246 27.2736L123.411 27.9844L123.49 28.7728L123.486 29.6389L123.399 30.5831L123.232 31.6052L122.987 32.7052L122.666 33.8825L122.271 35.1367L121.805 36.4668L121.27 37.872L120.669 39.3511L120.004 40.9025L119.279 42.5248L118.497 44.2162L117.659 45.9747L116.77 47.798L115.833 49.6839L114.85 51.6298L113.825 53.6329L112.761 55.6903L111.661 57.7989L110.529 59.9554L109.367 62.1565L108.178 64.3986L86.729 104.74L85.5323 106.984L84.3547 109.184L83.1974 111.336L82.0615 113.434L80.9479 115.474L79.8573 117.453L78.7906 119.364L77.7481 121.206L76.7303 122.972L75.7375 124.66L74.7697 126.266L73.827 127.786L72.9091 129.216L72.0159 130.554L71.147 131.796L70.3019 132.939L69.4801 133.981L68.6807 134.92L67.9031 135.752L67.1463 136.476L66.4094 137.09L65.6914 137.593L64.9911 137.982L64.3075 138.258L63.6392 138.419L62.985 138.464L62.3437 138.393L61.7138 138.206L61.0941 137.904L60.4832 137.485L59.8796 136.952L59.2821 136.305L58.6892 135.545L58.0997 134.673L57.5121 133.691L56.9253 132.601L56.338 131.405L55.749 130.105L55.1571 128.703L54.5613 127.204L53.9606 125.608L53.3541 123.921L52.7409 122.144L52.1203 120.282L51.4916 118.338L50.8542 116.316L50.2077 114.22L49.5518 112.054L48.8862 109.823L48.2107 107.531L47.5255 105.183L46.8305 102.783L46.1261 100.337L33.533 56.4178L32.8377 53.9802L32.1598 51.5883L31.5016 49.2463L30.8656 46.9583L30.254 44.728L29.6695 42.5592L29.1145 40.4553L28.5915 38.4196L28.1031 36.4554L27.6519 34.5656L27.2402 32.7529L26.8707 31.0198L26.5459 29.3688L26.2681 27.8019L26.0397 26.3211L25.8632 24.9281L25.7408 23.6244L25.6748 22.4111L25.6671 21.2895L25.72 20.2602L25.8352 19.324L26.0148 18.4812L26.2602 17.7319L26.5733 17.0762L26.9554 16.5138L27.4078 16.0441L27.9317 15.6667L28.5281 15.3805L29.198 15.1845L29.9419 15.0775L30.7604 15.0581L31.654 15.1245L32.6226 15.2752L33.6664 15.508L34.7851 15.821L35.9783 16.2118L37.2454 16.6782L38.5857 17.2176L39.9983 17.8273L41.4818 18.5047L43.035 19.2468L44.6562 20.0509L46.3438 20.9138L48.0958 21.8325L49.91 22.8038L51.7841 23.8246L53.7156 24.8915L55.7019 26.0015L57.7399 27.1511L59.8267 28.3371L61.959 29.5561L64.1336 30.8049L66.3468 32.0803L105.911 54.9236L108.096 56.1903L110.237 57.4359L112.327 58.6591L114.364 59.8586L116.342 61.0335L118.257 62.1827L120.105 63.3056L121.881 64.4015L123.583 65.4701L125.205 66.5108L126.745 67.5236L128.198 68.5083L129.562 69.4651L130.832 70.394L132.007 71.2955L133.083 72.17L134.057 73.0179L134.928 73.8399L135.693 74.6368L136.35 75.4094L136.896 76.1587L137.332 76.8856L137.655 77.5912L137.863 78.2767L137.958 78.9432L137.937 79.5921L137.801 80.2246L137.549 80.8421L137.182 81.4459L136.7 82.0375L136.103 82.6182L135.393 83.1894L134.571 83.7525L133.637 84.3089L132.595 84.86L131.445 85.4071L130.19 85.9514L128.833 86.4943L127.374 87.037L125.819 87.5805L124.168 88.126L122.427 88.6745L120.597 89.2269L118.683 89.784L116.689 90.3466L114.618 90.9154L112.474 91.4909L110.261 92.0736L107.985 92.6638L105.65 93.2618L103.259 93.8676L100.818 94.4813L54.0101 106.152L51.5664 106.756L49.1708 107.344L46.8272 107.912L44.5398 108.46L42.3124 108.984L40.1487 109.483L38.0523 109.953L36.0264 110.393L34.0743 110.8L32.1988 111.172L30.4028 111.506L28.6889 111.799L27.0593 112.05L25.5163 112.256L24.0617 112.414L22.6972 112.523L21.4244 112.581L20.2444 112.584L19.1584 112.531L18.1671 112.421L17.2711 112.25L16.4709 112.018L15.7665 111.723L15.1578 111.363L14.6447 110.936L14.2266 110.442L13.9028 109.88L13.6723 109.248L13.5342 108.545L13.4871 107.771L13.5295 106.925L13.6597 106.008L13.876 105.018L14.1763 103.956L14.5584 102.822L15.0201 101.617L15.5589 100.34L16.1723 98.9932L16.8575 97.5771L17.6116 96.0928L18.4319 94.5416L19.3152 92.9252L20.2586 91.2452L21.2587 89.5035L22.3124 87.7023L23.4163 85.8439L24.5672 83.9306L25.7617 81.9652L26.9963 79.9504L28.2677 77.8893L29.5725 75.785L30.9073 73.6409L55.1157 34.8975L56.4713 32.732L57.8052 30.608L59.1159 28.5302L60.4019 26.5028L61.6619 24.5305L62.8948 22.6174L64.0996 20.768L65.2754 18.9862L66.4215 17.2761L67.5374 15.6418L68.6226 14.0868L69.6769 12.615L70.7002 11.2297L71.6923 9.93432L72.6535 8.73196L73.584 7.62559L74.4842 6.618L75.3545 5.71177L76.1956 4.90929L77.0081 4.21269L77.7929 3.62393L78.5509 3.14474L79.283 2.77661L79.9903 2.52079L80.6739 2.3783L81.3351 2.34993L81.9751 2.4362L82.5952 2.6374L83.1968 2.95358L83.7812 3.38452L84.3498 3.92977L84.9041 4.58863L85.4456 5.36012L85.9755 6.24306L86.4954 7.236L87.0067 8.33725L87.5108 9.54489L88.009 10.8568L88.5026 12.2705L88.993 13.7835L89.4813 15.3929L89.9686 17.0957L90.4562 18.8887L90.9449 20.7684L91.4358 22.7312L91.9297 24.7734L92.4274 26.8909L92.9294 29.0796L93.4365 31.3354L93.949 33.6537L94.4672 36.03L94.9915 38.4597L95.522 40.938L105.022 85.6279L105.548 88.1193L106.061 90.5649L106.559 92.9604L107.039 95.3016L107.499 97.5844L107.936 99.8051L108.35 101.96L108.737 104.045L109.094 106.057L109.421 107.994L109.714 109.851L109.971 111.627L110.19 113.318L110.369 114.923L110.504 116.439L110.595 117.864L110.638 119.197L110.632 120.436L110.575 121.579L110.464 122.627L110.298 123.577L110.075 124.43L109.793 125.185L109.451 125.842L109.046 126.401L108.578 126.863L108.046 127.227L107.448 127.495L106.783 127.668L106.05 127.747L105.25 127.732L104.38 127.626L103.442 127.431L102.435 127.148L101.358 126.779L100.212 126.326L98.998 125.793L97.7156 125.181L96.366 124.493L94.9499 123.731L93.4686 122.9L91.9233 122.001L90.3155 121.038L88.647 120.015L86.9195 118.933L85.1352 117.797L83.2962 116.611L81.4051 115.376L79.4643 114.098L77.4767 112.779L75.4452 111.423L73.3728 110.033L71.2629 108.614L33.3851 83.0647L31.283 81.6428L29.2232 80.2446L27.2104 78.8719L25.2489 77.5262L23.343 76.2089L21.497 74.9212L19.7151 73.6642L18.0014 72.4389L16.3599 71.246L14.7943 70.0861L13.3084 68.9599L11.9057 67.8676L10.5898 66.8094L9.36378 65.7854L8.2308 64.7956L7.19376 63.8397L6.25537 62.9174L5.41816 62.0283L4.68444 61.1719L4.05631 60.3474L3.53568 59.5541L3.1242 58.7911L2.82332 58.0574L2.63424 57.3521L2.55794 56.6739L2.59513 56.0217L2.74633 55.3941L3.01174 54.79L3.3914 54.2079L3.88501 53.6465L4.4921 53.1042L5.21191 52.5797L6.04344 52.0714L6.98546 51.5779L8.03648 51.0978L9.19477 50.6295L10.4584 50.1716L11.8251 49.7227L13.2925 49.2814L14.858 48.8463L16.5187 48.4162L18.2716 47.9898L20.1133 47.5659L22.0404 47.1435L24.0493 46.7214L26.1361 46.2988L28.2968 45.8747L30.5273 45.4484L32.8233 45.0193L35.1804 44.5866L37.5939 44.1501L40.0592 43.7093L42.5715 43.2639L87.5641 35.3312L90.0556 34.896L92.4992 34.4735L94.8906 34.0655L97.2255 33.6742L99.5 33.3015L101.71 32.9495L103.852 32.6203L105.922 32.3161L107.918 32.0392L109.835 31.7916L111.67 31.5756L113.422 31.3935L115.088 31.2475L116.664 31.1397L118.15 31.0725L119.542 31.0478L120.84 31.0679L122.042 31.1348L123.146 31.2504L124.152 31.4168L125.059 31.6357L125.867 31.909L126.574 32.2384L127.181 32.6253L127.689 33.0713L128.096 33.5777L128.405 34.1457L128.616 34.7764L128.729 35.4708L128.746 36.2297L128.668 37.0537L128.498 37.9434L128.236 38.8989L127.884 39.9207L127.446 41.0085L126.922 42.1623L126.316 43.3817L125.63 44.6661L124.867 46.0149L124.029 47.4271L123.12 48.9017L122.143 50.4373L121.101 52.0326L119.997 53.6859L118.834 55.3953L117.616 57.1589L116.347 58.9745L115.03 60.8396L113.669 62.7519L112.266 64.7085L110.827 66.7066L109.354 68.7432L80.9988 107.771L79.5136 109.807L78.0543 111.8L76.6227 113.746L75.2206 115.639L73.8492 117.477L72.5101 119.253L71.2042 120.966L69.9328 122.61L68.6966 124.181L67.4964 125.676L66.3326 127.092L65.2059 128.424L64.1163 129.669L63.0642 130.825L62.0493 131.888L61.0717 132.855L60.131 133.723L59.2269 134.491L58.3587 135.155L57.5259 135.715L56.7278 136.167L55.9634 136.511L55.2319 136.745L54.5321 136.868L53.8629 136.878L53.2233 136.776L52.6118 136.561L52.0272 136.232L51.4681 135.79L50.933 135.235L50.4205 134.567L49.9291 133.788L49.4573 132.898L49.0036 131.899L48.5665 130.791L48.1443 129.578L47.7357 128.261L47.339 126.841L46.953 125.322L46.5761 123.707L46.2069 121.997L45.8442 120.197L45.4866 118.31L45.133 116.338L44.7823 114.286L44.4333 112.158L44.085 109.957L43.7367 107.688L43.3876 105.355L43.0368 102.962L42.6839 100.515L42.3283 98.0179L35.9694 52.7799L35.6153 50.2468L35.2712 47.7591L34.9387 45.3215L34.6198 42.9381L34.3161 40.6133L34.0297 38.351L33.7624 36.1553L33.5164 34.0299L33.2935 31.9782L33.0961 30.0038L32.926 28.1096L32.7856 26.2989L32.6768 24.5742L32.6019 22.9382L32.5629 21.3932L32.562 19.9413L32.6012 18.5845L32.6825 17.3245L32.808 16.1626L32.9796 15.1001L33.1991 14.138L33.4684 13.277L33.7891 12.5177L34.163 11.8604L34.5914 11.3051L35.076 10.8516L35.6179 10.4997L36.2183 10.2486L36.8784 10.0976L37.5991 10.0456L38.3811 10.0914L39.2251 10.2335L40.1317 10.4703L41.101 10.7999L42.1334 11.2205L43.2288 11.7297L44.3871 12.3252L45.6079 13.0045L46.8907 13.7649L48.2348 14.6037L49.6394 15.5178L51.1035 16.5043L52.6257 17.56L54.2046 18.6815L55.8388 19.8656L57.5264 21.1088L59.2654 22.4075L61.0537 23.7581L62.8891 25.1572L64.769 26.6008L66.6908 28.0855L68.6517 29.6074L70.6489 31.1628L106.651 59.2904L108.659 60.8619L110.627 62.4073L112.551 63.9245L114.426 65.4116L116.25 66.8669L118.016 68.2889L119.722 69.6762L121.363 71.0273L122.936 72.3414L124.435 73.6173L125.859 74.8544L127.203 76.052L128.463 77.2096L129.637 78.3268L130.721 79.4035L131.713 80.4397L132.609 81.4353L133.408 82.3908L134.106 83.3063L134.701 84.1825L135.192 85.0199L135.576 85.8192L135.852 86.5813L136.02 87.3071L136.077 87.9977L136.022 88.6542L135.856 89.2778L135.577 89.8697L135.186 90.4313L134.683 90.964L134.068 91.4693L133.341 91.9487L132.504 92.4036L131.557 92.8357L130.503 93.2465L129.341 93.6376L128.075 94.0106L126.706 94.367L125.236 94.7084L123.668 95.0364L122.005 95.3524L120.25 95.6579L118.405 95.9543L116.475 96.2431L114.461 96.5254L112.369 96.8025L110.203 97.0757L107.965 97.3459L105.661 97.6142L103.294 97.8815L100.87 98.1485L98.3929 98.4161L95.8671 98.6848L50.4283 103.461L47.9009 103.723L45.4211 103.977L42.9932 104.22L40.6217 104.451L38.3109 104.667L36.0647 104.869L33.887 105.052L31.7817 105.217L29.7523 105.359L27.8021 105.479L25.9344 105.573L24.1521 105.64L22.4579 105.677L20.8545 105.683L19.3441 105.655L17.9289 105.592L16.6108 105.491L15.3914 105.351L14.2722 105.169L13.2543 104.944L12.3388 104.674L11.5263 104.357L10.8174 103.992L10.2124 103.577L9.71115 103.11L9.31359 102.59L9.01927 102.015L8.82754 101.386L8.73754 100.699L8.7482 99.9558L8.8582 99.154L9.06606 98.2934L9.37008 97.3735L9.76837 96.3939L10.2589 95.3544L10.8393 94.2551L11.5073 93.096L12.2602 91.8775L13.0953 90.6001L14.0098 89.2643L15.0006 87.8711L16.0646 86.4214L17.1984 84.9165L18.3989 83.3576L19.6624 81.7464L20.9855 80.0846L22.3646 78.374L23.796 76.6166L25.2759 74.8149L26.8006 72.9711L28.3663 71.0878L29.9692 69.1678L31.6054 67.2138L60.9733 32.2153L62.6039 30.2779L64.2062 28.3807L65.778 26.528L67.3173 24.724L68.8224 22.9728L70.2915 21.2787L71.7233 19.6455L73.1163 18.0774L74.4694 16.578L75.7815 15.1512L77.0518 13.8006L78.2796 12.5296L79.4643 11.3417L80.6055 10.24L81.7031 9.2277L82.7568 8.30756L83.7668 7.48234L84.7333 6.75456L85.6565 6.12657L86.537 5.6005L87.3754 5.17831L88.1722 4.8617L88.9284 4.65218L89.6449 4.55105L90.3228 4.55934L90.9631 4.67788L91.567 4.90727L92.1359 5.24784L92.6711 5.69972L93.1741 6.26276L93.6463 6.93657L94.0892 7.72056L94.5045 8.61383L94.8937 9.61529L95.2585 10.7236L95.6005 11.9371L95.9214 13.2541L96.2227 14.6724L96.5061 16.1898L96.7733 17.8037L97.0257 19.5115L97.2651 21.3101L97.4928 23.1965L97.7103 25.1672L97.9191 27.2188L98.1205 29.3475L98.3157 31.5493L98.5059 33.8203L98.6923 36.1562L98.8759 38.5527L99.0576 41.0051L99.2382 43.509L99.4186 46.0595L102.604 91.6317L102.776 94.1493L102.94 96.6175L103.094 99.0317L103.238 101.387L103.369 103.681L103.486 105.907L103.588 108.063L103.672 110.145L103.736 112.148L103.779 114.071L103.799 115.909L103.794 117.659L103.762 119.32L103.701 120.887L103.608 122.36L103.483 123.736L103.323 125.012L103.127 126.188L102.891 127.262L102.616 128.233L102.298 129.099L101.937 129.861L101.529 130.517L101.075 131.068L100.573 131.513L100.021 131.853L99.4172 132.088L98.7615 132.219L98.0526 132.246L97.2895 132.172L96.4714 131.996L95.5977 131.722L94.668 131.35L93.6817 130.882L92.6389 130.321L91.5393 129.669L90.3831 128.928L89.1706 128.101L87.9023 127.191L86.5787 126.201L85.2007 125.134L83.7691 123.992L82.2853 122.781L80.7504 121.502L79.1659 120.16L77.5335 118.757L75.8551 117.299L74.1326 115.788L72.3682 114.228L70.5642 112.624L68.7232 110.979L66.8477 109.296L30.9979 77.0166L29.1327 75.3302L27.3083 73.6744L25.5289 72.0514L23.7985 70.4633L22.1213 68.912L20.5013 67.3992L18.9425 65.9265L17.4486 64.4952L16.0235 63.1068L14.6708 61.7622L13.3941 60.4624L12.1969 59.2081L11.0823 57.9999L10.0536 56.8384L9.11372 55.7237L8.26548 54.656L7.51155 53.6354L6.85438 52.6616L6.29625 51.7343L5.83926 50.8532L5.48527 50.0176L5.23596 49.2269L5.09278 48.4801L5.05695 47.7765L5.12948 47.115L5.31116 46.4944L5.60252 45.9135L6.00386 45.371L6.51525 44.8656L7.13651 44.3957L7.86724 43.9598L8.70676 43.5565L9.65418 43.1839L10.7084 42.8406L11.8679 42.5248L13.1312 42.2348L14.4964 41.969L15.9614 41.7255L17.5239 41.5027L19.1813 41.299L20.931 41.1125L22.7698 40.9418L24.6948 40.7851L26.7024 40.641L28.7891 40.5079L30.9513 40.3843L33.1848 40.269L35.4858 40.1605L37.8499 40.0578L40.2727 39.9595L42.7497 39.8647L45.2763 39.7723L90.9346 38.1771L93.4854 38.0903L95.9895 38.0088L98.4421 37.9339L100.839 37.8668L103.175 37.809L105.447 37.762L107.65 37.7273L109.78 37.7066L111.835 37.7014L113.809 37.7136L115.7 37.7449L117.505 37.7971L119.221 37.8721L120.845 37.9716L122.374 38.0977L123.806 38.252L125.139 38.4366L126.371 38.6532L127.501 38.9036L128.527 39.1897L129.449 39.5132L130.264 39.8758L130.973 40.2792L131.574 40.7249L132.069 41.2145L132.456 41.7493L132.737 42.3307L132.911 42.96L132.979 43.6382L132.943 44.3665L132.803 45.1456L132.561 45.9765L132.219 46.8596L131.778 47.7956L131.24 48.7849L130.608 49.8275L129.884 50.9237L129.07 52.0732L128.169 53.2759L127.184 54.5314L126.119 55.839L124.975 57.1981L123.758 58.6077L122.469 60.0667L121.112 61.5739L119.692 63.1278L118.212 64.7269L116.675 66.3694L115.086 68.0534L113.448 69.7768L111.765 71.5372L110.042 73.3324L108.282 75.1597L76.5439 108.026L74.7746 109.854L73.0358 111.645L71.33 113.394L69.6593 115.099L68.026 116.753L66.432 118.355L64.8791 119.899L63.3691 121.383L61.9033 122.801L60.4832 124.151L59.1098 125.428L57.7841 126.63L56.507 127.753L55.2792 128.794L54.1011 129.749L52.973 130.616L51.8952 131.392L50.8676 132.075L49.8902 132.662L48.9626 133.15L48.0845 133.538L47.2552 133.825L46.4742 134.007L45.7405 134.085L45.0533 134.056L44.4116 133.921L43.8141 133.677L43.2597 133.325L42.747 132.864L42.2746 132.295L41.841 131.617L41.4446 130.832L41.0839 129.938L40.7572 128.939L40.4627 127.834L40.1988 126.626L39.9636 125.315L39.7554 123.904L39.5724 122.395L39.4129 120.791L39.2749 119.092L39.1569 117.304L39.057 115.428L38.9736 113.467L38.9049 111.426L38.8495 109.308L38.8056 107.115L38.7719 104.854L38.7469 102.526L38.7293 100.138L38.7178 97.6923L38.7112 95.1944L38.7084 92.6489L38.7088 46.9602L38.7123 44.4249L38.7199 41.9383L38.7327 39.505L38.7518 37.1296L38.7786 34.8165L38.8144 32.5698L38.8607 30.3937L38.919 28.2919L38.9908 26.2683L39.0777 24.3264L39.1815 22.4695L39.3038 20.7008L39.4464 19.0232L39.611 17.4394L39.7994 15.952L40.0134 14.5632L40.2548 13.2752L40.5254 12.0896L40.8269 11.0082L41.161 10.0322L41.5295 9.16291L41.934 8.40106L42.3761 7.74733L42.8573 7.20214L43.3792 6.76563L43.943 6.43773L44.5502 6.21813L45.202 6.10628L45.8994 6.10139L46.6435 6.20247L47.4352 6.40827L48.2752 6.71736L49.1643 7.12808L50.1029 7.63855L51.0915 8.24671L52.1302 8.95031L53.2191 9.7469L54.3583 10.6338L55.5475 11.6084L56.7864 12.6675L58.0743 13.8082L59.4106 15.0272L60.7945 16.321L62.2249 17.6863L63.7006 19.1193L65.2203 20.6165L66.7824 22.1739L68.3853 23.7877L70.0271 25.454L71.7058 27.1687L73.4192 28.9279L75.1649 30.7273L76.9406 32.5629L108.676 65.4268L110.428 67.2473L112.142 69.0349L113.815 70.7874L115.443 72.5022L117.021 74.1771L118.545 75.8102L120.013 77.3994L121.419 78.9431L122.761 80.4397L124.034 81.8878L125.236 83.2863L126.362 84.634L127.41 85.9301L128.376 87.1739L129.258 88.3648L130.052 89.5025L130.756 90.5868L131.368 91.6176L131.884 92.595L132.304 93.5192L132.624 94.3907L132.843 95.21L132.96 95.9778L132.973 96.6949L132.881 97.3622L132.683 97.9807L132.379 98.5517L131.968 99.0763L131.45 99.556L130.824 99.9922L130.092 100.386L129.253 100.74L128.309 101.055L127.259 101.333L126.107 101.576L124.852 101.785L123.496 101.963L122.042 102.111L120.492 102.231L118.848 102.325L117.112 102.395L115.288 102.442L113.378 102.469L111.385 102.477L109.314 102.468L107.167 102.444L104.948 102.407L102.662 102.357L100.312 102.297L97.9022 102.228L95.4378 102.152L92.9229 102.069L44.7112 100.386L42.1952 100.293L39.7299 100.197L37.3197 100.098L34.9693 99.9941L32.6829 99.8843L30.4649 99.7672L28.3192 99.6417L26.2497 99.5062L24.2601 99.3595L22.354 99.1998L20.5347 99.0257L18.8052 98.8356L17.1686 98.6277L15.6276 98.4005L14.1846 98.1522L12.8418 97.8811L11.6014 97.5856L10.4651 97.2638L9.43455 96.9141L8.511 96.5349L7.69556 96.1244L6.98909 95.6812L6.3922 95.2035L5.90524 94.69L5.52833 94.1391L5.26136 93.5495L5.10397 92.9199L5.05557 92.2491L5.11533 91.536L5.2822 90.7796L5.55489 89.979L5.9319 89.1333L6.41152 88.242L6.99182 87.3044L7.67067 86.3202L8.44577 85.2892L9.31459 84.2111L10.2745 83.086L11.3225 81.914L12.4557 80.6956L13.6709 79.4311L14.9647 78.1213L16.3338 76.7669L17.7745 75.3688L19.2831 73.9283L20.8559 72.4465L22.4889 70.925L24.1783 69.3654L25.9199 67.7694L27.7097 66.1389L29.5435 64.4761L31.4172 62.7832L65.3666 32.2136L67.267 30.5053L69.135 28.831L70.9681 27.1944L72.7635 25.5996L74.5188 24.0505L76.2317 22.5508L77.9 21.1045L79.5219 19.7152L81.0955 18.3866L82.6192 17.1224L84.0916 15.9261L85.5113 14.8011L86.8773 13.7507L88.1887 12.7781L89.4447 11.8864L90.6447 11.0785L91.7883 10.3571L92.8753 9.72491L93.9056 9.18434L94.8793 8.73767L95.7966 8.387L96.6578 8.13424L97.4636 7.98108L98.2146 7.92904L98.9117 7.97941L99.5556 8.13327L100.148 8.39148L100.689 8.75469L101.18 9.2233L101.624 9.7975L102.021 10.4772L102.372 11.2622L102.681 12.152L102.947 13.1457L103.174 14.2423L103.362 15.4408L103.514 16.7395L103.632 18.1369L103.717 19.6309L103.772 21.2194L103.798 22.9001L103.797 24.6703L103.772 26.5273L103.724 28.468L103.655 30.4893L103.567 32.5877L103.462 34.7595L103.341 37.0012L103.207 39.3086L103.061 41.6777L102.904 44.1042L102.738 46.5838L102.565 49.1118L99.3785 94.6888L99.1982 97.2294L99.0174 99.7222L98.8353 102.163L98.6512 104.546L98.4641 106.868L98.2728 109.124L98.0764 111.31L97.8735 113.422L97.6628 115.456L97.4432 117.408L97.213 119.275L96.9709 121.054L96.7153 122.741L96.4446 124.334L96.1574 125.829L95.8519 127.225L95.5265 128.52L95.1796 129.71L94.8095 130.795L94.4146 131.772L93.9933 132.641L93.544 133.401L93.0651 134.05L92.5551 134.588L92.0125 135.016L91.436 135.331L90.8241 135.536L90.1755 135.63L89.4892 135.614L88.764 135.489L87.9988 135.255L87.1928 134.915L86.3452 134.47L85.4553 133.921L84.5224 133.271L83.5463 132.521L82.5266 131.674L81.4631 130.734L80.3559 129.701L79.2049 128.58L78.0106 127.373L76.7734 126.085L75.4937 124.717L74.1724 123.273L72.8104 121.758L71.4087 120.176L69.9685 118.528L68.4912 116.821L66.9784 115.058L65.4317 113.243L63.853 111.38L62.2442 109.473L60.6076 107.528L31.2394 72.5277L29.6103 70.5811L28.0153 68.669L26.4584 66.7942L24.9433 64.9595L23.4738 63.1674L22.0538 61.4203L20.6868 59.7204L19.3766 58.0696L18.1268 56.4699L16.9408 54.9229L15.8222 53.4301L14.7742 51.9928L13.8001 50.6123L12.903 49.2894L12.0858 48.025L11.3515 46.8197L10.7028 45.6739L10.1421 44.5878L9.6719 43.5617L9.29436 42.5953L9.01154 41.6886L8.82527 40.8411L8.7372 40.0523L8.7488 39.3215L8.86129 38.648L9.07573 38.0307L9.39293 37.4686L9.81347 36.9604L10.3377 36.505L10.9659 36.1008L11.6978 35.7463L12.5332 35.44L13.4715 35.1802L14.512 34.965L15.6536 34.7927L16.895 34.6614L18.2348 34.5691L19.6713 34.5139L21.2025 34.4938L22.8263 34.5068L24.5403 34.5508L26.3418 34.6237L28.2281 34.7236L30.1962 34.8485L32.2428 34.9962L34.3644 35.165L36.5576 35.3527L38.8185 35.5576L41.1432 35.7778L43.5276 36.0115L45.9674 36.257L48.4581 36.5126L50.9954 36.7769L96.4318 41.5532L98.9473 41.8216L101.413 42.089L103.825 42.356L106.178 42.6234L108.468 42.8921L110.69 43.1629L112.841 43.4368L114.915 43.715L116.91 43.9986L118.822 44.289L120.648 44.5873L122.383 44.895L124.025 45.2136L125.571 45.5444L127.019 45.889L128.365 46.249L129.608 46.6258L130.746 47.0212L131.777 47.4365L132.7 47.8736L133.512 48.3338L134.214 48.8188L134.805 49.33L135.283 49.869L135.649 50.4373L135.902 51.0361L136.044 51.6669L136.073 52.3308L135.992 53.0291L135.8 53.7629L135.5 54.5332L135.092 55.341L134.578 56.1869L133.959 57.0718L133.239 57.9961L132.419 58.9605L131.501 59.9651L130.489 61.0102L129.384 62.096L128.191 63.2222L126.911 64.3887L125.55 65.5951L124.109 66.8408L122.593 68.1253L121.005 69.4477L119.349 70.807L117.629 72.202L115.85 73.6316L114.014 75.0941L112.127 76.5881L110.193 78.1117L108.216 79.663L70.2025 109.363L68.2131 110.912L66.2606 112.426L64.3478 113.902L62.4776 115.336L60.6525 116.724L58.8749 118.064L57.1471 119.35L55.4713 120.581L53.8492 121.751L52.2827 122.858L50.7733 123.899L49.3224 124.87L47.9311 125.767L46.6005 126.589L45.3314 127.332L44.1245 127.993L42.9802 128.569L41.8987 129.059L40.8804 129.459L39.925 129.769L39.0323 129.985L38.2021 130.105L37.4338 130.13L36.7266 130.056L36.0799 129.883L35.4925 129.609L34.9635 129.235L34.4915 128.759L34.0753 128.181L33.7134 127.501L33.4042 126.719L33.1461 125.835L32.9374 124.851L32.7762 123.766L32.6607 122.582L32.5889 121.301L32.5588 119.923L32.5684 118.45L32.6155 116.885L32.6981 115.229L32.8141 113.485L32.9613 111.655L33.1376 109.743L33.3409 107.751L33.5691 105.683L33.82 103.541L34.0917 101.33L34.3821 99.054L34.6893 96.7158L35.0115 94.32L35.3466 91.8709L35.6931 89.3727L42.0496 44.1347L42.4075 41.6017L42.7625 39.1151L43.1149 36.6796L43.4652 34.3L43.8141 31.9809L44.1623 29.7266L44.5107 27.5415L44.86 25.4298L45.2113 23.3954L45.5657 21.442L45.9242 19.5735L46.2883 17.7932L46.659 16.1044L47.0379 14.51L47.4261 13.0131L47.8253 11.6162L48.2368 10.3216L48.6622 9.13166L49.1029 8.04821L49.5605 7.07301L50.0365 6.20749L50.5324 5.45291L51.0498 4.81022L51.5901 4.28018L52.1548 3.86327L52.7452 3.55973L53.3628 3.36957L54.0089 3.29251L54.6848 3.32808L55.3915 3.47555L56.1303 3.73392L56.9021 4.102L57.7078 4.57836L58.5484 5.16133L59.4245 5.84901L60.3367 6.63932L61.2856 7.52995L62.2714 8.51841L63.2946 9.60197L64.355 10.7778L65.4529 12.0427L66.5879 13.3937L67.7597 14.8271L68.968 16.3396L70.2121 17.9275L71.4913 19.5869L72.8046 21.3139L74.151 23.1045L75.5293 24.9546L76.9381 26.86L78.376 28.8163L79.8412 30.8193L81.3319 32.8646L108.187 69.826L109.684 71.8903L111.15 73.9187L112.581 75.9078L113.975 77.8548L115.327 79.7568L116.633 81.6112L117.891 83.4155L119.097 85.1672L120.247 86.8643L121.338 88.5049L122.366 90.0871L123.328 91.6093L124.221 93.0701L125.043 94.4683L125.789 95.8029L126.457 97.0729L127.045 98.2778L127.55 99.417L127.97 100.49L128.302 101.497L128.543 102.438L128.694 103.313L128.75 104.123L128.712 104.867L128.577 105.547L128.345 106.164L128.014 106.718L127.585 107.211L127.055 107.644L126.426 108.018L125.696 108.335L124.867 108.596L123.937 108.803L122.909 108.958L121.783 109.062L120.56 109.119L119.241 109.129L117.828 109.094L116.322 109.018L114.725 108.902L113.041 108.747L111.27 108.557L109.416 108.334L107.481 108.08L105.469 107.797L103.382 107.487L101.225 107.152L99.0004 106.796L96.7122 106.419L94.3643 106.023L91.961 105.612L89.5064 105.187L87.0049 104.749L42.0099 96.815L39.5076 96.3707L37.0534 95.9308L34.652 95.4952L32.3081 95.0634L30.0263 94.6349L27.8109 94.2092L25.6662 93.7855L23.5963 93.3631L21.6053 92.941L19.6968 92.5183L17.8746 92.094L16.1419 91.6669L14.5021 91.2358L12.9581 90.7994L11.5129 90.3565L10.1688 89.9058L8.92842 89.4457L7.79378 88.9749L6.76683 88.4919L5.84922 87.9953L5.0424 87.4835L4.34754 86.9552L3.76559 86.4088L3.29724 85.8429L2.94294 85.256L2.7029 84.6468L2.57705 84.0139L2.5651 83.356L2.66651 82.6719L2.88051 81.9604L3.20606 81.2203L3.6419 80.4506L4.18656 79.6505L4.8383 78.8189L5.59519 77.9553L6.45508 77.0589L7.4156 76.1292L8.47418 75.1658L9.62807 74.1684L10.8743 73.1368L12.2098 72.071L13.6312 70.9711L15.1351 69.8374L16.7179 68.6702L18.3758 67.47L20.105 66.2376L21.9015 64.9737L23.7611 63.6793L25.6798 62.3556L27.6531 61.0038L29.6767 59.6253L31.7462 58.2217L33.8572 56.7947L71.7345 31.2467L73.8363 29.8335L75.8999 28.4511L77.9219 27.103L79.8994 25.7928L81.8293 24.5239L83.7091 23.2998L85.5362 22.124L87.308 21L89.0226 19.9311L90.6778 18.9206L92.2719 17.9717L93.8031 17.0877L95.27 16.2716L96.6714 15.5264L98.0062 14.855L99.2735 14.2602L100.473 13.7444L101.603 13.3104L102.664 12.9603L103.656 12.6963L104.579 12.5206L105.433 12.4349L106.219 12.441L106.936 12.5403L107.586 12.734L108.17 13.0235L108.688 13.4094L109.141 13.8925L109.532 14.4734L109.861 15.1522L110.13 15.929L110.34 16.8037L110.494 17.7758L110.592 18.8447L110.638 20.0096L110.633 21.2694L110.579 22.6227L110.478 24.0682L110.333 25.6039L110.145 27.2281L109.917 28.9384L109.652 30.7324L109.351 32.6076L109.018 34.5611L108.653 36.59L108.26 38.6909L107.841 40.8606L107.398 43.0954L106.934 45.3916L106.45 47.7452L105.949 50.1522L105.432 52.6083L104.903 55.1092L95.4037 99.7945L94.8746 102.262L94.3516 104.681L93.8347 107.044L93.3234 109.349L92.8175 111.59L92.3165 113.764L91.8198 115.865L91.3266 117.89L90.8363 119.834L90.3479 121.695L89.8604 123.468L89.373 125.151L88.8843 126.739L88.3933 128.23L87.8988 129.622L87.3994 130.911L86.8939 132.095L86.3808 133.172L85.8588 134.141L85.3264 134.999L84.7822 135.746L84.2248 136.379L83.6528 136.899L83.0647 137.305L82.4592 137.595L81.8348 137.771L81.1902 137.832L80.5241 137.778L79.8353 137.61L79.1226 137.33L78.3848 136.937L77.621 136.433L76.8301 135.82L76.0113 135.1L75.1638 134.274L74.2869 133.345L73.3801 132.315L72.4428 131.187L71.4747 129.964L70.4756 128.649L69.4455 127.244L68.3843 125.753L67.2922 124.18L66.1696 122.529L65.0168 120.802L63.8345 119.005L62.6235 117.141L61.3845 115.215L60.1186 113.23L58.827 111.191L57.511 109.102L56.1721 106.969L30.6085 66.058L29.2801 63.9224L27.9824 61.8274L26.7189 59.7763L25.4929 57.7723L24.3078 55.8182L23.167 53.9169L22.0739 52.0709L21.0319 50.2827L20.0441 48.5546L19.1138 46.8885L18.2442 45.2865L17.4384 43.7501L16.6993 42.2808L16.0298 40.8799L15.4328 39.5486L14.9109 38.2877L14.4666 37.0981L14.1024 35.9801L13.8206 34.9341L13.6233 33.9604L13.5124 33.0588L13.4898 32.2292L13.557 31.4712L13.7155 30.7842L13.9666 30.1675L14.3113 29.6203L14.7504 29.1415L15.2847 28.73L15.9146 28.3844L16.6403 28.1032L17.4618 27.885L18.379 27.728L19.3914 27.6304L20.4983 27.5904L21.699 27.6058L22.9923 27.6747L24.3769 27.7949L25.8513 27.9642L27.4137 28.1802L29.0622 28.4407L30.7946 28.7434L32.6085 29.0857L34.5012 29.4653L36.47 29.8797L38.5118 30.3266L40.6235 30.8035L42.8016 31.308L45.0427 31.8378L47.3429 32.3904L49.6984 32.9635L52.105 33.5549L54.5587 34.1625L98.8877 45.2141L101.364 45.8338L103.794 46.4458L106.173 47.0499L108.496 47.6461L110.758 48.2346L112.956 48.8157L115.084 49.3896L117.138 49.957L119.115 50.5184L121.011 51.0744L122.821 51.6258L124.543 52.1735L126.172 52.7185L127.707 53.2618L129.143 53.8044L130.478 54.3475L131.71 54.8923L132.836 55.4402L133.854 55.9923L134.763 56.5501L135.56 57.1149L136.245 57.6881L136.817 58.2711L137.273 58.8652L137.615 59.472L137.841 60.0927L137.952 60.7287L137.947 61.3814L137.827 62.0521L137.593 62.7419L137.245 63.4522L136.784 64.1839L136.213 64.9383L135.532 65.7162L134.744 66.5186L133.85 67.3463L132.853 68.2001L131.755 69.0805L130.558 69.988L129.267 70.9232L127.883 71.8861L126.41 72.8771L124.852 73.8961L123.212 74.943L121.493 76.0176L119.7 77.1196L117.837 78.2484L115.908 79.4034L113.917 80.5838L111.868 81.7887L109.766 83.0169L107.615 84.2674L105.42 85.5386L65.8523 108.383L63.6473 109.653L61.4818 110.895L59.3593 112.107L57.283 113.286L55.2563 114.427L53.282 115.527L51.363 116.584L49.5019 117.594L47.7014 118.554L45.9635 119.461L44.2905 120.311L42.6842 121.102L41.1463 121.83L39.6784 122.492L38.2819 123.087L36.9577 123.61L35.7069 124.06L34.5302 124.434L33.4281 124.729L32.401 124.944L31.4491 125.076L30.5722 125.123L29.7703 125.085L29.0429 124.958L28.3894 124.742L27.8091 124.436L27.3012 124.038L26.8645 123.548L26.4979 122.964L26.1999 122.288L25.9693 121.518L25.8041 120.654L25.7029 119.697L25.6637 118.648L25.6845 117.506L25.7632 116.272L25.8978 114.948L26.086 113.536L26.3255 112.036L26.614 110.45L26.949 108.781L27.3281 107.03L27.7487 105.2L28.2084 103.293L28.7047 101.313L29.235 99.2616L29.7968 97.143L30.3875 94.9602L31.0048 92.7167L31.646 90.4164L32.3087 88.063L32.9907 85.6606L33.6895 83.2133L46.2833 39.2946L46.9857 36.858L47.6785 34.4692L48.3615 32.1331L49.0348 29.8544L49.6983 27.6376L50.3521 25.4871L50.9965 23.4072L51.6319 21.4021L52.2588 19.4758L52.8777 17.6322L53.4893 15.8749L54.0945 14.2075L54.694 12.6331L55.2888 11.155L55.88 9.7761L56.4685 8.499L57.0556 7.32622L57.6425 6.26002L58.2304 5.30241L58.8205 4.45519L59.4143 3.71989L60.0131 3.09782L60.6182 2.59005L61.2309 2.19738L61.8528 1.92038L62.4851 1.75937L63.1291 1.7144L63.7863 1.78528L64.4579 1.97158L65.1451 2.27262L65.8492 2.68746L66.5713 3.21492L67.3126 3.85361L68.0739 4.60185L68.8563 5.4578L69.6606 6.41933L70.4876 7.48412L71.3379 8.64966L72.2121 9.91319L73.1108 11.2718L74.0341 12.7223L74.9824 14.2614L75.9558 15.8857L76.9542 17.5915L77.9775 19.375L79.0254 21.2323L80.0974 23.1592L81.1931 25.1517L82.3118 27.2053L83.4526 29.3157L84.6145 31.4785L85.7964 33.6889L86.9972 35.9424L108.444 76.2808L109.627 78.5141L110.783 80.7056L111.908 82.8518L113.001 84.9493L114.056 86.9949L115.072 88.9855L116.045 90.9183L116.972 92.7905L117.85 94.5996L118.675 96.3434L119.445 98.0196L120.157 99.6263L120.808 101.162L121.395 102.625L121.915 104.013L122.365 105.327L122.744 106.564L123.048 107.724L123.276 108.807L123.425 109.812L123.494 110.738L123.48 111.587L123.381 112.358L123.197 113.052L122.926 113.669L122.566 114.21L122.118 114.676L121.579 115.067L120.949 115.386L120.229 115.634L119.417 115.812L118.514 115.921L117.52 115.965L116.436 115.943L115.262 115.86L113.999 115.716L112.648 115.513L111.211 115.255L109.688 114.944L108.083 114.582L106.396 114.171L104.63 113.714L102.787 113.214L100.871 112.673L98.8825 112.094L96.826 111.479L94.7043 110.832L92.5207 110.154L90.2788 109.449L87.9823 108.719L85.6349 107.967L83.2408 107.194L37.3608 92.2869L34.9673 91.5041L32.6232 90.7326L30.3331 89.9728L28.1018 89.2249L25.9336 88.4889L23.8329 87.7649L21.8042 87.0527L19.8513 86.352L17.9784 85.6623L16.1892 84.9834L14.4874 84.3144L12.8764 83.6549L11.3595 83.0039L9.93969 82.3606L8.61991 81.7241L7.40279 81.0934L6.29076 80.4673L5.28603 79.8448L4.39057 79.2246L3.60613 78.6055L2.9342 77.9862L2.37606 77.3653L1.93271 76.7417L1.60493 76.1139L1.39322 75.4805L1.29785 74.8402L1.31886 74.1918L1.45598 73.5337L1.70875 72.8649L2.07641 72.1839L2.55801 71.4896L3.15231 70.7807L3.85785 70.0563L4.67293 69.3152L5.59562 68.5565L6.62378 67.7792L7.75502 66.9826L8.98675 66.1658L10.3162 65.3284L11.7403 64.4698L13.256 63.5895L14.8599 62.6872L16.5483 61.7629L18.3177 60.8163L20.1642 59.8476L22.0837 58.857L24.0721 57.8448L26.1253 56.8115L28.2387 55.7576L30.408 54.6838L32.6286 53.5911L34.8958 52.4805L75.956 32.4529L78.254 31.3344L80.5116 30.2395L82.7253 29.1713L84.8912 28.1328L87.0061 27.1271L89.0666 26.1573L91.0696 25.2264L93.0123 24.3375L94.8918 23.4937L96.7056 22.6979L98.4514 21.9533L100.127 21.2626L101.73 20.6288L103.26 20.0547L104.714 19.543L106.091 19.0964L107.39 18.7175L108.61 18.4086L109.75 18.1722L110.81 18.0104L111.789 17.9253L112.688 17.9189L113.505 17.9929L114.243 18.149L114.9 18.3886L115.477 18.7131L115.976 19.1236L116.397 19.6209L116.741 20.2059L117.01 20.8792L117.205 21.641L117.327 22.4916L117.379 23.4309L117.362 24.4586L117.278 25.5743L117.129 26.7773L116.918 28.0667L116.647 29.4414L116.318 30.9002L115.933 32.4413L115.495 34.0632L115.007 35.7639L114.471 37.5412L113.891 39.3927L113.268 41.3159L112.605 43.308L111.906 45.3661L111.173 47.487L110.408 49.6674L109.615 51.9039L108.795 54.1926L107.953 56.53L107.09 58.9119L91.4641 101.845L90.5903 104.238L89.7293 106.585L88.8815 108.881L88.0474 111.122L87.2273 113.303L86.4215 115.42L85.6299 117.467L84.8526 119.442L84.0894 121.34L83.34 123.157L82.6039 124.89L81.8807 126.534L81.1699 128.086L80.4706 129.544L79.7821 130.903L79.1035 132.162L78.434 133.317L77.7723 134.367L77.1175 135.309L76.4684 136.141L75.8239 136.861L75.1825 137.469L74.5432 137.962L73.9046 138.341L73.2653 138.603L72.624 138.749L71.9794 138.778L71.3302 138.691L70.675 138.488L70.0124 138.169L69.3413 137.734L68.6605 137.187L67.9686 136.526L67.2645 135.754L66.5473 134.873L65.8158 133.885L65.069 132.791L64.3063 131.594L63.5266 130.298L62.7295 128.904L61.9143 127.416L61.0804 125.837L60.2276 124.17L59.3555 122.42L58.464 120.589L57.5531 118.681L56.6229 116.702L55.6736 114.655L54.7056 112.543L53.7193 110.373L52.7154 108.147L51.6947 105.872L50.658 103.551L32.0747 61.8116L31.045 59.4908L30.0386 57.2127L29.0585 54.9809L28.1074 52.7991L27.1885 50.6708L26.3046 48.5993L25.4588 46.5878L24.6539 44.6391L23.8929 42.7561L23.1788 40.9414L22.5144 39.1974L21.9026 37.5261L21.3461 35.9298L20.8478 34.41L20.4102 32.9685L20.0359 31.6066L19.7273 30.3255L19.487 29.1261L19.3171 28.0092L19.2197 26.9753L19.197 26.0249L19.2507 25.158L19.3826 24.3746L19.5943 23.6744L19.8873 23.0571L20.2626 22.5219L20.7216 22.0681L21.265 21.6948L21.8936 21.4006L22.6079 21.1844L23.4082 21.0446L24.2948 20.9796L25.2674 20.9877L26.326 21.0669L27.4699 21.2152L28.6986 21.4305L30.011 21.7104L31.4062 22.0527L32.8828 22.4548L34.4392 22.9142L36.0739 23.4283L37.7847 23.9945L39.5696 24.61L41.4263 25.2719L43.3521 25.9776L45.3444 26.7242L47.4002 27.5088L49.5164 28.3286L51.6897 29.1807L53.9168 30.0623L56.1938 30.9705L58.5172 31.9026L60.8829 32.8558L103.243 49.971L105.587 50.9225L107.885 51.8594L110.13 52.7811L112.319 53.6869L114.446 54.5764L116.509 55.4495L118.501 56.3057L120.42 57.1452L122.26 57.968L124.019 58.7742L125.692 59.5643L127.276 60.3385L128.768 61.0975L130.164 61.8418L131.462 62.5723L132.658 63.2895L133.75 63.9946L134.736 64.6884L135.614 65.3719L136.381 66.0464L137.037 66.7129L137.579 67.3726L138.007 68.0269L138.319 68.6769L138.516 69.324L138.596 69.9695" stroke="#FFC700" stroke-width="0.8"/>
</svg>
