<svg width="18" height="19" viewBox="0 0 18 19" fill="none" xmlns="http://www.w3.org/2000/svg">
<path d="M8.86667 18.8696C8.71111 18.8696 8.56528 18.8451 8.42917 18.7961C8.29306 18.7478 8.16667 18.6654 8.05 18.5487L0.35 10.8487C0.116666 10.6154 0 10.3381 0 10.0169C0 9.69645 0.116666 9.41956 0.35 9.18623C0.583333 8.9529 0.855556 8.83623 1.16667 8.83623C1.47778 8.83623 1.75 8.9529 1.98333 9.18623L7.7 14.9029V1.83623C7.7 1.50567 7.812 1.23345 8.036 1.01956C8.25922 0.805675 8.53611 0.69873 8.86667 0.69873C9.19722 0.69873 9.4745 0.810342 9.6985 1.03356C9.92172 1.25756 10.0333 1.53484 10.0333 1.8654V14.9029L15.75 9.18623C15.9833 8.9529 16.2556 8.83623 16.5667 8.83623C16.8778 8.83623 17.15 8.9529 17.3833 9.18623C17.6167 9.41956 17.7333 9.69645 17.7333 10.0169C17.7333 10.3381 17.6167 10.6154 17.3833 10.8487L9.68333 18.5487C9.56667 18.6654 9.44028 18.7478 9.30417 18.7961C9.16806 18.8451 9.02222 18.8696 8.86667 18.8696Z" fill="#848484"/>
</svg>
