<svg width="139" height="143" viewBox="0 0 139 143" fill="none" xmlns="http://www.w3.org/2000/svg">
<path d="M138.204 71.742L138.203 71.652L138.198 71.562L138.19 71.4719L138.178 71.3819L138.163 71.2918L138.145 71.2018L138.124 71.1117L138.099 71.0216L138.071 70.9315L138.04 70.8414L138.006 70.7512L137.968 70.661L137.927 70.5708L137.883 70.4806L137.836 70.3903L137.785 70.3L137.731 70.2097L137.674 70.1193L137.613 70.0289L137.549 69.9384L137.482 69.8479L137.412 69.7574L137.339 69.6668L137.262 69.5762L137.182 69.4855L137.099 69.3947L137.012 69.3039L136.923 69.213L136.83 69.1221L136.734 69.0311L136.634 68.9401L136.532 68.8489L136.426 68.7577L136.317 68.6665L136.205 68.5751L136.09 68.4837L135.972 68.3922L135.85 68.3007L135.725 68.209L135.597 68.1173L135.466 68.0254L135.332 67.9335L135.195 67.8415L135.054 67.7495L134.911 67.6573L134.764 67.565L134.614 67.4726L134.461 67.3802L134.305 67.2876L134.146 67.1949L133.984 67.1022L133.818 67.0093L133.65 66.9163L133.479 66.8232L133.304 66.73L133.127 66.6367L132.946 66.5433L132.763 66.4498L132.576 66.3561L132.387 66.2623L132.194 66.1684L131.999 66.0744L131.8 65.9803L131.599 65.886L131.394 65.7917L131.187 65.6972L130.977 65.6025L130.763 65.5077L130.547 65.4129L130.328 65.3178L130.106 65.2227L129.882 65.1274L129.654 65.0319L129.423 64.9364L129.19 64.8407L128.954 64.7448L128.715 64.6489L128.473 64.5528L128.228 64.4565L127.981 64.3601L127.73 64.2635L127.477 64.1669L127.222 64.07L126.963 63.973L126.702 63.8759L126.438 63.7786L126.172 63.6812L125.902 63.5836L125.63 63.4859L125.356 63.388L125.078 63.29L124.798 63.1919L124.516 63.0935L124.231 62.995L123.943 62.8964L123.653 62.7976L123.36 62.6987L123.064 62.5996L122.766 62.5003L122.466 62.4009L122.163 62.3014L121.857 62.2017L121.549 62.1018L121.239 62.0018L120.926 61.9016L120.611 61.8012L120.293 61.7008L119.973 61.6001L119.65 61.4993L119.326 61.3983L118.998 61.2972L118.669 61.196L118.337 61.0945L118.003 60.993L117.666 60.8912L117.328 60.7893L116.986 60.6873L116.643 60.5851L116.298 60.4827L115.95 60.3802L115.6 60.2776L115.248 60.1748L114.894 60.0718L114.538 59.9687L114.179 59.8654L113.819 59.762L113.456 59.6585L113.092 59.5548L112.725 59.4509L112.356 59.3469L111.985 59.2428L111.613 59.1385L111.238 59.0341L30.8955 40.7002L30.513 40.6319L30.1322 40.5642L29.7534 40.4973L29.3764 40.4312L29.0014 40.3658L28.6282 40.3012L28.257 40.2373L27.8877 40.1742L27.5203 40.1119L27.155 40.0503L26.7916 39.9896L26.4303 39.9296L26.0709 39.8705L25.7136 39.8122L25.3584 39.7547L25.0052 39.698L24.6542 39.6421L24.3052 39.5871L23.9583 39.533L23.6136 39.4797L23.271 39.4272L22.9306 39.3757L22.5923 39.325L22.2563 39.2752L21.9224 39.2262L21.5908 39.1782L21.2614 39.1311L20.9342 39.0848L20.6093 39.0395L20.2867 38.9952L19.9663 38.9517L19.6483 38.9092L19.3326 38.8676L19.0192 38.827L18.7081 38.7873L18.3994 38.7486L18.0931 38.7109L17.7891 38.6741L17.4876 38.6383L17.1884 38.6035L16.8917 38.5697L16.5974 38.5369L16.3055 38.5051L16.0161 38.4743L15.7291 38.4446L15.4447 38.4158L15.1627 38.3881L14.8832 38.3615L14.6062 38.3359L14.3318 38.3113L14.0598 38.2878L13.7905 38.2654L13.5236 38.244L13.2594 38.2237L12.9977 38.2045L12.7386 38.1864L12.4821 38.1694L12.2282 38.1534L11.977 38.1386L11.7283 38.1249L11.4823 38.1123L11.239 38.1009L10.9983 38.0906L10.7602 38.0814L10.5249 38.0733L10.2922 38.0664L10.0622 38.0607L9.83493 38.0561L9.61035 38.0527L9.38849 38.0504L9.16936 38.0493L8.95296 38.0494L8.73931 38.0507L8.5284 38.0532L8.32025 38.0569L8.11487 38.0618L7.91226 38.0679L7.71243 38.0752L7.51539 38.0837L7.32114 38.0935L7.1297 38.1044L6.94106 38.1167L6.75524 38.1301L6.57224 38.1448L6.39206 38.1608L6.21472 38.178L6.04022 38.1964L5.86856 38.2162L5.69975 38.2372L5.53381 38.2594L5.37072 38.283L5.2105 38.3078L5.05315 38.3339L4.89868 38.3613L4.74709 38.39L4.59839 38.4201L4.45258 38.4514L4.30967 38.484L4.16966 38.5179L4.03255 38.5532L3.89835 38.5897L3.76706 38.6277L3.63869 38.6669L3.51323 38.7074L3.3907 38.7493L3.27109 38.7926L3.15441 38.8372L3.04067 38.8831L2.92985 38.9304L2.82198 38.979L2.71704 39.0291L2.61505 39.0804L2.516 39.1332L2.41989 39.1873L2.32673 39.2427L2.23653 39.2996L2.14927 39.3578L2.06497 39.4174L1.98362 39.4785L1.90522 39.5409L1.82978 39.6046L1.7573 39.6698L1.68777 39.7364L1.6212 39.8044L1.5576 39.8737L1.49695 39.9445L1.43925 40.0167L1.38452 40.0903L1.33274 40.1653L1.28393 40.2418L1.23807 40.3196L1.19516 40.3989L1.15522 40.4796L1.11822 40.5617L1.08419 40.6452L1.0531 40.7302L1.02497 40.8166L0.999788 40.9044L0.977552 40.9937L0.958265 41.0844L0.941922 41.1765L0.928521 41.2701L0.918062 41.3651L0.910538 41.4615L0.905952 41.5594L0.904297 41.6588L0.905573 41.7595L0.909776 41.8617L0.916903 41.9654L0.926951 42.0705L0.939914 42.1771L0.955793 42.2851L0.974582 42.3945L0.996275 42.5054L1.02087 42.6178L1.04837 42.7316L1.07876 42.8469L1.11204 42.9636L1.1482 43.0817L1.18725 43.2013L1.22917 43.3224L1.27396 43.4449L1.32162 43.5688L1.37214 43.6943L1.42551 43.8211L1.48173 43.9494L1.5408 44.0792L1.60271 44.2104L1.66745 44.343L1.73501 44.4772L1.8054 44.6127L1.8786 44.7497L1.95461 44.8881L2.03342 45.028L2.11502 45.1693L2.19942 45.3121L2.28659 45.4563L2.37653 45.602L2.46925 45.7491L2.56472 45.8976L2.66295 46.0475L2.76392 46.1989L2.86762 46.3517L2.97406 46.506L3.08321 46.6617L3.19508 46.8188L3.30965 46.9773L3.42692 47.1372L3.54687 47.2986L3.66951 47.4613L3.79482 47.6255L3.92278 47.7911L4.0534 47.9581L4.18667 48.1266L4.32257 48.2964L4.46109 48.4676L4.60223 48.6402L4.74597 48.8142L4.89231 48.9896L5.04124 49.1664L5.19274 49.3446L5.34681 49.5241L5.50343 49.705L5.66261 49.8873L5.82431 50.071L5.98855 50.2561L6.15529 50.4424L6.32455 50.6302L6.49629 50.8193L6.67052 51.0098L6.84721 51.2016L7.02637 51.3947L7.20798 51.5892L7.39202 51.785L7.57849 51.9822L7.76737 52.1807L7.95866 52.3805L8.15233 52.5816L8.34839 52.784L8.54681 52.9877L8.74758 53.1927L8.9507 53.399L9.15615 53.6066L9.36392 53.8155L9.57399 54.0257L9.78635 54.2371L10.001 54.4498L10.2179 54.6638L10.4371 54.879L10.6585 55.0955L10.8821 55.3132L11.1079 55.5322L11.336 55.7523L11.5662 55.9737L11.7986 56.1964L12.0332 56.4202L12.2699 56.6453L12.5088 56.8715L12.7497 57.099L12.9928 57.3276L13.238 57.5574L13.4852 57.7884L13.7345 58.0206L13.9859 58.2539L14.2393 58.4883L14.4947 58.7239L14.7521 58.9607L15.0115 59.1986L15.2729 59.4376L15.5362 59.6777L15.8015 59.9189L16.0687 60.1612L16.3379 60.4046L16.6089 60.6491L16.8818 60.8947L17.1566 61.1413L17.4333 61.3891L17.7118 61.6378L17.9921 61.8876L18.2742 62.1384L18.5581 62.3903L18.8438 62.6432L19.1313 62.8971L19.4205 63.152L20.0041 63.6647L84.4398 115.036L84.7545 115.264L85.0679 115.489L85.38 115.714L85.6906 115.937L85.9999 116.158L86.3078 116.378L86.6143 116.596L86.9193 116.813L87.223 117.028L87.5251 117.242L87.8259 117.454L88.1251 117.664L88.4229 117.873L88.7192 118.08L89.014 118.286L89.3073 118.49L89.5991 118.692L89.8893 118.893L90.178 119.092L90.4652 119.289L90.7508 119.485L91.0348 119.679L91.3172 119.871L91.5981 120.061L91.8773 120.25L92.1549 120.436L92.431 120.621L92.7053 120.805L92.9781 120.986L93.2492 121.166L93.5186 121.343L93.7863 121.519L94.0524 121.693L94.3168 121.866L94.5795 122.036L94.8405 122.204L95.0998 122.371L95.3573 122.536L95.6131 122.698L95.8672 122.859L96.1196 123.018L96.3702 123.175L96.619 123.33L96.866 123.482L97.1113 123.633L97.3548 123.782L97.5964 123.929L97.8363 124.074L98.0744 124.217L98.3106 124.358L98.5451 124.496L98.7776 124.633L99.0084 124.768L99.2373 124.9L99.4644 125.031L99.6896 125.159L99.9129 125.285L100.134 125.409L100.354 125.531L100.572 125.651L100.787 125.769L101.001 125.884L101.213 125.997L101.423 126.109L101.632 126.217L101.838 126.324L102.042 126.429L102.245 126.531L102.445 126.631L102.644 126.729L102.84 126.825L103.035 126.918L103.227 127.009L103.418 127.098L103.607 127.184L103.794 127.269L103.978 127.351L104.161 127.43L104.342 127.508L104.521 127.583L104.698 127.655L104.873 127.726L105.045 127.794L105.216 127.859L105.385 127.923L105.552 127.984L105.717 128.042L105.88 128.098L106.04 128.152L106.199 128.204L106.356 128.253L106.511 128.299L106.663 128.344L106.814 128.386L106.963 128.425L107.109 128.462L107.254 128.497L107.396 128.529L107.537 128.558L107.675 128.586L107.812 128.61L107.946 128.633L108.078 128.653L108.208 128.67L108.336 128.685L108.463 128.697L108.587 128.707L108.709 128.715L108.829 128.72L108.946 128.722L109.062 128.722L109.176 128.72L109.288 128.715L109.397 128.707L109.505 128.697L109.611 128.684L109.714 128.669L109.815 128.652L109.915 128.631L110.012 128.609L110.107 128.583L110.2 128.556L110.292 128.525L110.381 128.492L110.468 128.457L110.553 128.419L110.635 128.379L110.716 128.335L110.795 128.29L110.872 128.242L110.947 128.191L111.019 128.138L111.09 128.082L111.158 128.023L111.225 127.962L111.289 127.899L111.352 127.832L111.412 127.764L111.47 127.692L111.527 127.619L111.581 127.542L111.633 127.463L111.684 127.382L111.732 127.297L111.778 127.211L111.822 127.121L111.864 127.03L111.904 126.935L111.943 126.838L111.979 126.739L112.013 126.636L112.045 126.532L112.075 126.424L112.103 126.315L112.13 126.202L112.154 126.087L112.176 125.97L112.196 125.85L112.215 125.727L112.231 125.602L112.245 125.474L112.258 125.344L112.268 125.211L112.277 125.075L112.283 124.937L112.288 124.797L112.291 124.654L112.291 124.508L112.29 124.36L112.287 124.209L112.282 124.056L112.275 123.901L112.266 123.742L112.256 123.582L112.243 123.418L112.229 123.253L112.212 123.084L112.194 122.914L112.174 122.74L112.152 122.565L112.128 122.386L112.103 122.206L112.075 122.023L112.046 121.837L112.015 121.649L111.982 121.458L111.947 121.265L111.91 121.07L111.872 120.872L111.831 120.671L111.789 120.469L111.746 120.263L111.7 120.056L111.653 119.846L111.604 119.633L111.553 119.418L111.5 119.201L111.446 118.982L111.39 118.76L111.332 118.535L111.272 118.308L111.211 118.079L111.148 117.848L111.083 117.614L111.017 117.378L110.949 117.14L110.879 116.899L110.808 116.656L110.735 116.41L110.66 116.163L110.584 115.913L110.506 115.661L110.427 115.406L110.345 115.149L110.263 114.89L110.178 114.629L110.092 114.366L110.005 114.1L109.916 113.832L109.825 113.562L109.733 113.29L109.639 113.015L109.543 112.739L109.447 112.46L109.348 112.179L109.248 111.896L109.147 111.611L109.044 111.324L108.94 111.034L108.834 110.743L108.726 110.449L108.618 110.153L108.507 109.856L108.396 109.556L108.283 109.254L108.168 108.95L108.052 108.644L107.935 108.336L107.816 108.026L107.696 107.715L107.575 107.401L107.452 107.085L107.328 106.767L107.202 106.448L107.075 106.126L106.947 105.803L106.818 105.477L106.687 105.15L106.555 104.821L106.422 104.49L106.287 104.157L106.151 103.822L106.014 103.486L105.876 103.148L105.736 102.808L105.595 102.466L105.453 102.122L105.31 101.777L105.166 101.43L105.02 101.081L104.873 100.731L104.725 100.379L104.576 100.025L104.275 99.3123L104.122 98.9536L68.1658 24.3742L67.9815 24.0352L67.7979 23.698L67.6148 23.3628L67.4323 23.0296L67.2504 22.6984L67.0691 22.3691L66.8885 22.0418L66.7084 21.7166L66.529 21.3934L66.3502 21.0723L66.172 20.7532L65.9944 20.4363L65.8175 20.1214L65.6413 19.8087L65.4656 19.4981L65.2907 19.1897L65.1163 18.8834L64.9427 18.5793L64.7697 18.2775L64.5974 17.9778L64.4257 17.6804L64.2547 17.3852L64.0844 17.0924L63.9148 16.8017L63.7458 16.5134L63.5776 16.2274L63.41 15.9438L63.2431 15.6625L63.077 15.3835L62.9115 15.1069L62.7467 14.8327L62.5827 14.5609L62.4193 14.2915L62.2567 14.0246L62.0948 13.7601L61.9336 13.498L61.7731 13.2385L61.6133 12.9814L61.4543 12.7268L61.296 12.4748L61.1385 12.2252L60.9816 11.9782L60.8255 11.7338L60.6702 11.4919L60.5156 11.2526L60.3617 11.0159L60.2086 10.7819L60.0563 10.5504L59.9046 10.3216L59.7538 10.0954L59.6037 9.87187L59.4543 9.65101L59.3057 9.43284L59.1579 9.21736L59.0108 9.00459L58.8645 8.79454L58.719 8.58721L58.5742 8.38263L58.4302 8.1808L58.287 7.98173L58.1445 7.78544L58.0028 7.59194L57.8619 7.40123L57.7218 7.21332L57.5824 7.02824L57.4438 6.84599L57.306 6.66657L57.169 6.49L57.0327 6.31629L56.8973 6.14545L56.7626 5.97749L56.6287 5.81241L56.4955 5.65023L56.3632 5.49097L56.2316 5.33461L56.1009 5.18118L55.9709 5.03069L55.8417 4.88314L55.7132 4.73854L55.5856 4.5969L55.4588 4.45823L55.3327 4.32253L55.2074 4.18982L55.0829 4.06011L54.9592 3.93339L54.8363 3.80968L54.7142 3.68899L54.5928 3.57132L54.4723 3.45668L54.3525 3.34508L54.2335 3.23652L54.1153 3.13101L53.9978 3.02856L53.8812 2.92918L53.7653 2.83286L53.6503 2.73963L53.536 2.64947L53.4225 2.5624L53.3097 2.47843L53.1978 2.39756L53.0866 2.31979L52.9762 2.24514L52.8666 2.1736L52.7577 2.10518L52.6497 2.03988L52.5424 1.97772L52.4358 1.91869L52.3301 1.8628L52.2251 1.81006L52.1209 1.76046L52.0175 1.71401L51.9148 1.67072L51.8129 1.63059L51.7117 1.59362L51.6113 1.55981L51.5117 1.52918L51.4128 1.50171L51.3147 1.47742L51.2173 1.45631L51.1207 1.43838L51.0249 1.42363L50.9298 1.41206L50.8354 1.40368L50.7418 1.39849L50.649 1.39648L50.5569 1.39767L50.4655 1.40206L50.3749 1.40963L50.285 1.42041L50.1958 1.43437L50.1074 1.45154L50.0197 1.4719L49.9327 1.49547L49.8465 1.52223L49.7609 1.55219L49.6761 1.58535L49.5921 1.6217L49.5087 1.66126L49.4261 1.70401L49.3441 1.74996L49.2629 1.79911L49.1824 1.85145L49.1026 1.90699L49.0235 1.96571L48.9451 2.02764L48.8673 2.09275L48.7903 2.16105L48.714 2.23253L48.6384 2.30721L48.5634 2.38506L48.4891 2.46609L48.4155 2.5503L48.3426 2.63769L48.2704 2.72825L48.1988 2.82197L48.1279 2.91886L48.0577 3.01892L47.9882 3.12213L47.9193 3.2285L47.851 3.33802L47.7834 3.45069L47.7165 3.5665L47.6502 3.68545L47.5845 3.80753L47.5195 3.93275L47.4552 4.06109L47.3915 4.19255L47.3284 4.32713L47.2659 4.46481L47.204 4.6056L47.1428 4.74949L47.0822 4.89648L47.0223 5.04655L46.9629 5.19971L46.9041 5.35594L46.846 5.51524L46.7884 5.6776L46.7315 5.84302L46.6751 6.01149L46.6194 6.18301L46.5642 6.35756L46.5096 6.53513L46.4556 6.71573L46.4022 6.89934L46.3494 7.08596L46.2971 7.27558L46.2454 7.46819L46.1942 7.66378L46.1437 7.86234L46.0936 8.06387L46.0442 8.26836L45.9953 8.4758L45.9469 8.68617L45.8991 8.89948L45.8518 9.1157L45.8051 9.33484L45.7589 9.55688L45.7132 9.78182L45.668 10.0096L45.6234 10.2403L45.5793 10.4739L45.5357 10.7103L45.4926 10.9495L45.45 11.1916L45.408 11.4365L45.3664 11.6842L45.3253 11.9348L45.2848 12.1881L45.2447 12.4441L45.2051 12.703L45.166 12.9646L45.1273 13.2289L45.0892 13.496L45.0515 13.7658L45.0143 14.0383L44.9775 14.3135L44.9412 14.5914L44.9054 14.872L44.87 15.1552L44.8351 15.4411L44.8006 15.7295L44.7666 16.0207L44.733 16.3144L44.6998 16.6107L44.6671 16.9096L44.6348 17.2111L44.6029 17.5151L44.5715 17.8216L44.5404 18.1307L44.5098 18.4423L44.4796 18.7564L44.4498 19.073L44.4204 19.392L44.3914 19.7135L44.3628 20.0375L44.3346 20.3638L44.3068 20.6926L44.2794 21.0238L44.2523 21.3573L44.2257 21.6932L44.1994 22.0315L44.1735 22.3721L44.1479 22.715L44.1227 23.0602L44.0979 23.4077L44.0735 23.7575L44.0494 24.1095L44.0256 24.4638L44.0022 24.8203L43.9792 25.179L43.9565 25.5399L43.9341 25.9029L43.9121 26.2681L43.8904 26.6355L43.869 27.005L43.848 27.3765L43.8272 27.7502L43.8068 28.1259L43.7868 28.5037L43.767 28.8836L43.7475 29.2654L43.7284 29.6492L43.7095 30.0351L43.6801 112.83L43.6985 113.219L43.7172 113.606L43.7361 113.991L43.7554 114.374L43.775 114.755L43.7949 115.134L43.8151 115.511L43.8356 115.886L43.8565 116.259L43.8777 116.63L43.8992 116.998L43.921 117.365L43.9432 117.729L43.9657 118.091L43.9885 118.451L44.0117 118.809L44.0353 119.165L44.0591 119.518L44.0834 119.869L44.108 120.218L44.133 120.565L44.1583 120.909L44.184 121.251L44.21 121.591L44.2365 121.928L44.2633 122.263L44.2905 122.595L44.3181 122.926L44.3461 123.253L44.3744 123.579L44.4032 123.902L44.4323 124.222L44.4619 124.54L44.4919 124.856L44.5222 125.169L44.553 125.48L44.5842 125.788L44.6159 126.093L44.6479 126.396L44.6804 126.697L44.7133 126.994L44.7466 127.29L44.7804 127.582L44.8146 127.872L44.8493 128.16L44.8844 128.445L44.92 128.727L44.956 129.006L44.9924 129.283L45.0294 129.557L45.0668 129.828L45.1047 130.097L45.143 130.363L45.1819 130.626L45.2212 130.887L45.261 131.145L45.3012 131.4L45.342 131.652L45.3833 131.901L45.4251 132.148L45.4673 132.391L45.5101 132.632L45.5534 132.87L45.5972 133.106L45.6415 133.338L45.6864 133.568L45.7317 133.794L45.7776 134.018L45.824 134.239L45.871 134.457L45.9185 134.672L45.9665 134.884L46.0151 135.093L46.0643 135.299L46.1139 135.503L46.1642 135.703L46.215 135.9L46.2664 136.095L46.3183 136.286L46.3708 136.474L46.4239 136.66L46.4775 136.842L46.5318 137.022L46.5866 137.198L46.642 137.371L46.698 137.542L46.7546 137.709L46.8118 137.873L46.8696 138.034L46.928 138.192L46.987 138.347L47.0466 138.499L47.1068 138.648L47.1677 138.794L47.2292 138.936L47.2913 139.076L47.354 139.212L47.4173 139.345L47.4813 139.476L47.5459 139.603L47.6112 139.727L47.6771 139.847L47.7437 139.965L47.8109 140.08L47.8787 140.191L47.9472 140.299L48.0164 140.404L48.0863 140.506L48.1567 140.605L48.2279 140.701L48.2997 140.793L48.3723 140.882L48.4454 140.968L48.5193 141.051L48.5938 141.131L48.6691 141.208L48.745 141.281L48.8216 141.351L48.8989 141.418L48.9769 141.482L49.0556 141.543L49.135 141.6L49.2151 141.654L49.2959 141.705L49.3774 141.753L49.4596 141.798L49.5426 141.839L49.6262 141.878L49.7106 141.913L49.7957 141.944L49.8815 141.973L49.968 141.999L50.0553 142.021L50.1433 142.04L50.232 142.056L50.3215 142.068L50.4117 142.078L50.5026 142.084L50.5943 142.087L50.6867 142.087L50.7799 142.084L50.8738 142.077L50.9684 142.068L51.0639 142.055L51.16 142.039L51.2569 142.02L51.3546 141.997L51.453 141.972L51.5522 141.943L51.6521 141.911L51.7528 141.876L51.8543 141.838L51.9565 141.796L52.0595 141.752L52.1633 141.704L52.2678 141.653L52.3731 141.599L52.4791 141.542L52.586 141.481L52.6936 141.418L52.802 141.351L52.9111 141.282L53.0211 141.209L53.1318 141.133L53.2433 141.054L53.3556 140.972L53.4686 140.887L53.5824 140.798L53.6971 140.707L53.8125 140.612L53.9286 140.515L54.0456 140.414L54.1633 140.31L54.2819 140.204L54.4012 140.094L54.5213 139.981L54.6422 139.865L54.7638 139.746L54.8863 139.624L55.0095 139.499L55.1335 139.371L55.2584 139.241L55.384 139.107L55.5103 138.97L55.6375 138.83L55.7655 138.687L55.8942 138.541L56.0237 138.392L56.154 138.241L56.2851 138.086L56.417 137.929L56.5497 137.768L56.6831 137.605L56.8173 137.439L56.9524 137.269L57.0881 137.097L57.2247 136.922L57.3621 136.745L57.5002 136.564L57.6391 136.381L57.7788 136.195L57.9192 136.005L58.0605 135.814L58.2025 135.619L58.3452 135.422L58.4888 135.221L58.6331 135.018L58.7782 134.813L58.924 134.604L59.0707 134.393L59.218 134.179L59.3662 133.963L59.5151 133.743L59.6647 133.521L59.8151 133.297L59.9663 133.07L60.1182 132.84L60.2709 132.607L60.4243 132.372L60.5785 132.134L60.7334 131.894L60.889 131.651L61.0454 131.406L61.2025 131.158L61.3604 130.907L61.519 130.654L61.6783 130.398L61.8384 130.14L61.9991 129.88L62.1606 129.617L62.3228 129.351L62.4858 129.083L62.6494 128.813L62.8138 128.54L62.9788 128.265L63.1446 127.987L63.311 127.707L63.4782 127.425L63.646 127.14L63.8146 126.853L63.9838 126.564L64.1537 126.273L64.3243 125.979L64.4955 125.683L64.6675 125.384L64.8401 125.084L65.0133 124.781L65.1873 124.476L65.3619 124.169L65.5371 123.86L65.713 123.548L65.8895 123.235L66.0667 122.919L66.2445 122.601L66.4229 122.281L66.602 121.959L66.7817 121.635L66.962 121.309L67.1429 120.981L67.3244 120.651L67.5066 120.319L67.6893 119.985L67.8726 119.649L68.0565 119.311L68.241 118.971L68.4261 118.629L104.032 44.7439L104.185 44.3842L104.337 44.0261L104.637 43.3149L104.786 42.9617L104.933 42.6103L105.08 42.2605L105.225 41.9125L105.369 41.5662L105.511 41.2216L105.653 40.8787L105.793 40.5376L105.932 40.1983L106.07 39.8608L106.207 39.5251L106.342 39.1912L106.476 38.8592L106.609 38.5289L106.741 38.2006L106.871 37.8741L107 37.5495L107.127 37.2268L107.254 36.906L107.379 36.5871L107.502 36.2702L107.624 35.9552L107.745 35.6422L107.865 35.3312L107.983 35.0221L108.1 34.715L108.215 34.41L108.329 34.1069L108.441 33.8059L108.553 33.507L108.662 33.2101L108.77 32.9153L108.877 32.6225L108.982 32.3318L109.086 32.0433L109.188 31.7568L109.289 31.4725L109.388 31.1903L109.486 30.9102L109.582 30.6323L109.677 30.3566L109.77 30.083L109.862 29.8117L109.952 29.5425L110.041 29.2755L110.127 29.0107L110.213 28.7482L110.296 28.4879L110.379 28.2298L110.459 27.974L110.538 27.7204L110.615 27.4692L110.691 27.2201L110.765 26.9734L110.837 26.729L110.908 26.4869L110.977 26.2471L111.044 26.0096L111.11 25.7744L111.174 25.5416L111.236 25.3111L111.297 25.083L111.356 24.8572L111.413 24.6338L111.468 24.4128L111.522 24.1941L111.574 23.9778L111.624 23.764L111.672 23.5525L111.719 23.3434L111.764 23.1368L111.807 22.9326L111.848 22.7308L111.888 22.5314L111.925 22.3345L111.961 22.14L111.995 21.948L112.027 21.7584L112.058 21.5713L112.086 21.3867L112.113 21.2045L112.138 21.0248L112.161 20.8476L112.182 20.6729L112.202 20.5006L112.219 20.3309L112.235 20.1637L112.248 19.9989L112.26 19.8367L112.27 19.677L112.278 19.5198L112.284 19.3652L112.289 19.213L112.291 19.0634L112.291 18.9163L112.29 18.7718L112.286 18.6297L112.281 18.4903L112.273 18.3533L112.264 18.219L112.253 18.0871L112.24 17.9578L112.224 17.8311L112.207 17.7069L112.188 17.5853L112.167 17.4663L112.144 17.3498L112.119 17.2358L112.092 17.1245L112.063 17.0157L112.032 16.9094L111.999 16.8057L111.964 16.7046L111.927 16.6061L111.888 16.5102L111.847 16.4168L111.804 16.3259L111.759 16.2377L111.712 16.152L111.663 16.0689L111.612 15.9884L111.559 15.9104L111.504 15.8351L111.447 15.7622L111.388 15.692L111.326 15.6243L111.263 15.5592L111.198 15.4967L111.131 15.4367L111.061 15.3793L110.99 15.3245L110.916 15.2722L110.841 15.2225L110.763 15.1753L110.684 15.1307L110.602 15.0887L110.518 15.0492L110.432 15.0123L110.345 14.9779L110.255 14.9461L110.163 14.9168L110.069 14.89L109.973 14.8658L109.875 14.8441L109.774 14.825L109.672 14.8084L109.568 14.7943L109.461 14.7827L109.353 14.7737L109.243 14.7671L109.13 14.7631L109.015 14.7616L108.899 14.7626L108.78 14.7661L108.659 14.7721L108.536 14.7806L108.411 14.7915L108.285 14.805L108.156 14.8209L108.024 14.8393L107.891 14.8602L107.756 14.8835L107.619 14.9093L107.48 14.9375L107.338 14.9682L107.195 15.0013L107.05 15.0368L106.902 15.0748L106.753 15.1152L106.601 15.1581L106.448 15.2033L106.292 15.2509L106.135 15.301L105.975 15.3534L105.814 15.4082L105.65 15.4654L105.484 15.525L105.317 15.5869L105.147 15.6512L104.975 15.7178L104.802 15.7868L104.626 15.8582L104.448 15.9318L104.269 16.0078L104.087 16.0861L103.903 16.1667L103.718 16.2495L103.53 16.3347L103.341 16.4222L103.149 16.5119L102.956 16.6039L102.76 16.6982L102.563 16.7947L102.364 16.8935L102.162 16.9944L101.959 17.0976L101.754 17.2031L101.547 17.3107L101.338 17.4205L101.127 17.5325L100.914 17.6467L100.7 17.7631L100.483 17.8816L100.265 18.0023L100.044 18.1251L99.8221 18.25L99.5981 18.3771L99.3721 18.5063L99.1443 18.6375L98.9146 18.7709L98.6831 18.9063L98.4498 19.0439L98.2146 19.1834L97.9776 19.3251L97.7388 19.4688L97.4982 19.6145L97.2558 19.7622L97.0116 19.9119L96.7656 20.0636L96.5178 20.2173L96.2683 20.373L96.017 20.5307L95.7639 20.6903L95.5092 20.8518L95.2526 21.0153L94.9944 21.1807L94.7344 21.348L94.4727 21.5172L94.2093 21.6883L93.9442 21.8613L93.6775 22.0361L93.409 22.2128L93.1389 22.3913L92.8672 22.5717L92.5938 22.7538L92.3187 22.9378L92.0421 23.1236L91.7638 23.3111L91.4839 23.5004L91.2024 23.6914L90.9193 23.8842L90.6346 24.0788L90.3484 24.275L90.0606 24.473L89.7713 24.6726L89.4804 24.8739L89.188 25.0769L88.8941 25.2815L88.5987 25.4878L88.3018 25.6957L88.0034 25.9052L87.7035 26.1164L87.4022 26.3291L87.0994 26.5434L86.7952 26.7592L86.4896 26.9766L86.1825 27.1956L85.8741 27.416L85.5642 27.638L85.253 27.8615L84.9404 28.0864L84.6265 28.3128L19.8846 79.9241L19.5927 80.1806L19.3025 80.4361L19.014 80.6905L18.7272 80.944L18.4423 81.1965L18.1591 81.4479L17.8777 81.6983L17.5981 81.9477L17.3204 82.1961L17.0445 82.4433L16.7704 82.6895L16.4983 82.9347L16.228 83.1787L15.9596 83.4217L15.6932 83.6636L15.4287 83.9043L15.1662 84.144L14.9056 84.3825L14.647 84.62L14.3904 84.8562L14.1358 85.0914L13.8832 85.3254L13.6327 85.5582L13.3843 85.7899L13.1379 86.0204L12.8935 86.2497L12.6513 86.4779L12.4112 86.7048L12.1732 86.9306L11.9374 87.1552L11.7037 87.3785L11.4722 87.6007L11.2428 87.8216L11.0157 88.0413L10.7907 88.2597L10.568 88.4769L10.3475 88.6929L10.1293 88.9076L9.91328 89.121L9.69957 89.3332L9.48814 89.5442L9.279 89.7538L9.07218 89.9622L8.86768 90.1692L8.66552 90.375L8.4657 90.5795L8.26824 90.7827L8.07315 90.9846L7.88045 91.1852L7.69014 91.3844L7.50224 91.5823L7.31676 91.779L7.13371 91.9742L6.9531 92.1682L6.77494 92.3608L6.59925 92.552L6.42603 92.742L6.2553 92.9305L6.08707 93.1177L5.92134 93.3036L5.75814 93.488L5.59746 93.6712L5.43933 93.8529L5.28374 94.0333L5.13072 94.2123L4.98026 94.3899L4.83239 94.5661L4.6871 94.7409L4.54442 94.9143L4.40434 95.0864L4.26689 95.257L4.13206 95.4263L3.99988 95.5941L3.87034 95.7606L3.74345 95.9256L3.61923 96.0892L3.49769 96.2514L3.37883 96.4122L3.26265 96.5715L3.14918 96.7295L3.03842 96.886L2.93037 97.0411L2.82505 97.1948L2.72246 97.347L2.6226 97.4978L2.5255 97.6472L2.43115 97.7951L2.33956 97.9416L2.25074 98.0867L2.1647 98.2303L2.08144 98.3725L2.00098 98.5132L1.92331 98.6525L1.84844 98.7904L1.77639 98.9268L1.70715 99.0617L1.64073 99.1952L1.57715 99.3273L1.5164 99.4579L1.45849 99.5871L1.40343 99.7148L1.35121 99.8411L1.30186 99.9659L1.25537 100.089L1.21174 100.211L1.17099 100.332L1.13312 100.451L1.09813 100.568L1.06603 100.684L1.03682 100.799L1.0105 100.912L0.987088 101.024L0.966577 101.134L0.948973 101.243L0.934281 101.351L0.922504 101.457L0.913648 101.561L0.907711 101.664L0.9047 101.766L0.904617 101.866L0.907465 101.965L0.913249 102.062L0.921966 102.158L0.933625 102.252L0.948224 102.345L0.965767 102.437L0.986254 102.527L1.00969 102.616L1.03607 102.703L1.06541 102.789L1.0977 102.873L1.13294 102.956L1.17113 103.038L1.21228 103.118L1.25639 103.196L1.30345 103.274L1.35348 103.349L1.40646 103.424L1.4624 103.497L1.52129 103.569L1.58315 103.639L1.64796 103.708L1.71574 103.775L1.78647 103.841L1.86015 103.906L1.9368 103.969L2.0164 104.031L2.09895 104.091L2.18446 104.15L2.27292 104.208L2.36433 104.264L2.45869 104.319L2.55599 104.373L2.65624 104.425L2.75943 104.476L2.86557 104.525L2.97464 104.573L3.08665 104.62L3.20159 104.665L3.31946 104.709L3.44026 104.752L3.56398 104.793L3.69063 104.833L3.82019 104.872L3.95266 104.909L4.08805 104.945L4.22634 104.98L4.36754 105.014L4.51163 105.046L4.65862 105.076L4.8085 105.106L4.96126 105.134L5.1169 105.161L5.27542 105.187L5.43681 105.211L5.60106 105.234L5.76817 105.256L5.93814 105.276L6.11096 105.295L6.28661 105.313L6.46511 105.33L6.64644 105.345L6.83059 105.36L7.01756 105.373L7.20734 105.384L7.39993 105.395L7.59532 105.404L7.7935 105.412L7.99446 105.419L8.1982 105.424L8.40471 105.429L8.61398 105.432L8.82601 105.434L9.04078 105.435L9.25829 105.434L9.47854 105.433L9.7015 105.43L9.92719 105.426L10.1556 105.421L10.3867 105.415L10.6204 105.408L10.8569 105.399L11.096 105.389L11.3378 105.379L11.5822 105.367L11.8293 105.354L12.079 105.34L12.3314 105.324L12.5863 105.308L12.8439 105.29L13.104 105.272L13.3667 105.252L13.632 105.231L13.8999 105.21L14.1703 105.187L14.4432 105.163L14.7187 105.138L14.9967 105.112L15.2772 105.085L15.5602 105.057L15.8457 105.027L16.1337 104.997L16.4241 104.966L16.717 104.934L17.0123 104.901L17.31 104.867L17.6101 104.831L17.9127 104.795L18.2176 104.758L18.5249 104.72L18.8346 104.681L19.1466 104.641L19.4609 104.6L19.7776 104.558L20.0965 104.515L20.4178 104.471L20.7414 104.426L21.0672 104.381L21.3953 104.334L21.7256 104.286L22.0581 104.238L22.3929 104.189L22.7298 104.139L23.069 104.087L23.4103 104.036L23.7538 103.983L24.0994 103.929L24.4471 103.875L24.7969 103.819L25.1488 103.763L25.5029 103.706L25.8589 103.648L26.2171 103.59L26.5772 103.53L26.9394 103.47L27.3036 103.409L27.6697 103.347L28.0379 103.284L28.4079 103.221L28.78 103.157L29.1539 103.092L29.5298 103.026L29.9075 102.96L30.2871 102.892L30.6686 102.824L111.015 84.5119L111.391 84.4074L111.765 84.3031L112.137 84.1988L112.507 84.0948L112.875 83.9908L113.24 83.887L113.604 83.7834L113.966 83.6799L114.326 83.5766L114.683 83.4734L115.039 83.3703L115.392 83.2674L115.743 83.1647L116.092 83.0621L116.439 82.9596L116.783 82.8573L117.126 82.7552L117.466 82.6532L117.804 82.5514L118.139 82.4497L118.472 82.3482L118.803 82.2468L119.132 82.1456L119.458 82.0446L119.782 81.9437L120.104 81.8429L120.423 81.7424L120.739 81.6419L121.054 81.5417L121.366 81.4415L121.675 81.3416L121.982 81.2418L122.287 81.1421L122.589 81.0426L122.888 80.9433L123.185 80.8441L123.479 80.7451L123.771 80.6462L124.06 80.5475L124.347 80.4489L124.631 80.3505L124.913 80.2522L125.192 80.1541L125.468 80.0561L125.741 79.9583L126.012 79.8607L126.28 79.7632L126.546 79.6658L126.809 79.5686L127.069 79.4715L127.326 79.3746L127.581 79.2778L127.833 79.1812L128.082 79.0847L128.328 78.9884L128.572 78.8922L128.812 78.7961L129.05 78.7002L129.285 78.6044L129.518 78.5087L129.747 78.4132L129.973 78.3179L130.197 78.2226L130.418 78.1275L130.636 78.0326L130.851 77.9377L131.063 77.843L131.272 77.7484L131.478 77.654L131.681 77.5596L131.881 77.4654L132.079 77.3713L132.273 77.2774L132.464 77.1835L132.653 77.0898L132.838 76.9962L133.02 76.9027L133.199 76.8093L133.376 76.7161L133.549 76.6229L133.719 76.5299L133.886 76.4369L134.05 76.3441L134.211 76.2514L134.369 76.1587L134.524 76.0662L134.675 75.9738L134.824 75.8815L134.969 75.7892L135.112 75.6971L135.251 75.605L135.387 75.5131L135.52 75.4212L135.65 75.3294L135.776 75.2377L135.9 75.1461L136.02 75.0546L136.137 74.9631L136.251 74.8717L136.362 74.7804L136.47 74.6892L136.574 74.598L136.675 74.5069L136.773 74.4159L136.868 74.3249L136.959 74.234L137.048 74.1432L137.133 74.0524L137.215 73.9617L137.293 73.871L137.369 73.7804L137.441 73.6898L137.51 73.5993L137.576 73.5088L137.638 73.4183L137.697 73.328L137.753 73.2376L137.806 73.1473L137.855 73.057L137.902 72.9667L137.944 72.8765L137.984 72.7863L138.02 72.6961L138.053 72.606L138.083 72.5159L138.11 72.4258L138.133 72.3357L138.153 72.2456L138.17 72.1556L138.183 72.0655L138.193 71.9755L138.2 71.8854L138.204 71.7954L138.204 71.7054L138.201 71.6153L138.195 71.5253L138.185 71.4353L138.172 71.3452L138.156 71.2551L138.137 71.1651L138.114 71.075L138.088 70.9849L138.059 70.8948L138.027 70.8046L137.991 70.7145L137.952 70.6243L137.91 70.5341L137.864 70.4438L137.815 70.3535L137.763 70.2632L137.708 70.1729L137.649 70.0825L137.588 69.992L137.522 69.9016L137.454 69.8111L137.383 69.7205L137.308 69.6299L137.23 69.5392L137.148 69.4485L137.064 69.3577L136.976 69.2669L136.885 69.176L136.791 69.085L136.694 68.994L136.593 68.9029L136.489 68.8118L136.382 68.7206L136.272 68.6293L136.159 68.5379L136.042 68.4465L135.922 68.3549L135.8 68.2633L135.673 68.1716L135.544 68.0799L135.412 67.988L135.276 67.8961L135.138 67.8041L134.996 67.7119L134.851 67.6197L134.703 67.5274L134.552 67.435L134.398 67.3425L134.241 67.2499L134.08 67.1572L133.917 67.0644L133.75 66.9714L133.581 66.8784L133.408 66.7853L133.232 66.692L133.054 66.5987L132.872 66.5052L132.687 66.4116L132.499 66.3179L132.309 66.2241L132.115 66.1302L131.918 66.0361L131.718 65.9419L131.516 65.8476L131.31 65.7532L131.102 65.6586L130.89 65.5639L130.676 65.4691L130.458 65.3742L130.238 65.2791L130.015 65.1839L129.789 65.0885L129.56 64.993L129.329 64.8974L129.094 64.8017L128.857 64.7058L128.616 64.6097L128.373 64.5136L128.128 64.4172L127.879 64.3208L127.628 64.2242L127.374 64.1274L127.117 64.0305L126.857 63.9335L126.595 63.8363L126.33 63.739L126.062 63.6415L125.792 63.5439L125.519 63.4461L125.243 63.3481L124.965 63.2501L124.684 63.1518L124.4 63.0534L124.114 62.9549L123.825 62.8562L123.534 62.7573L123.24 62.6583L122.943 62.5592L122.644 62.4599L122.343 62.3604L122.039 62.2608L121.732 62.161L121.423 62.0611L121.112 61.961L120.798 61.8607L120.482 61.7603L120.163 61.6598L119.842 61.5591L119.518 61.4582L119.193 61.3572L118.864 61.256L118.534 61.1547L118.201 61.0532L117.866 60.9515L117.529 60.8497L117.189 60.7478L116.847 60.6457L116.503 60.5434L116.156 60.441L115.808 60.3384L115.457 60.2357L115.104 60.1328L114.749 60.0298L114.392 59.9266L114.033 59.8233L113.671 59.7199L113.308 59.6162L112.942 59.5125L112.575 59.4086L112.205 59.3045L111.834 59.2003L111.46 59.096L111.085 58.9915L30.7395 40.6723L30.3577 40.6042L29.9777 40.5369L29.5996 40.4703L29.2234 40.4045L28.8491 40.3394L28.4767 40.275L28.1063 40.2115L27.7378 40.1487L27.3713 40.0867L27.0067 40.0255L26.6442 39.9651L26.2836 39.9055L25.9251 39.8466L25.5687 39.7887L25.2143 39.7315L24.862 39.6751L24.5117 39.6196L24.1636 39.565L23.8176 39.5112L23.4738 39.4582L23.1321 39.4061L22.7925 39.3549L22.4552 39.3046L22.12 39.2551L21.787 39.2066L21.4563 39.1589L21.1278 39.1121L20.8016 39.0663L20.4776 39.0213L20.1559 38.9773L19.8365 38.9343L19.5194 38.8921L19.2046 38.8509L18.8922 38.8107L18.5821 38.7714L18.2744 38.7331L17.969 38.6958L17.666 38.6594L17.3654 38.624L17.0672 38.5896L16.7715 38.5562L16.4782 38.5238L16.1873 38.4924L15.8989 38.4621L15.6129 38.4327L15.3295 38.4044L15.0485 38.3772L14.7701 38.3509L14.4941 38.3257L14.2207 38.3016L13.9498 38.2785L13.6815 38.2565L13.4157 38.2356L13.1525 38.2158L12.8919 38.197L12.6338 38.1793L12.3784 38.1627L12.1256 38.1473L11.8754 38.1329L11.6278 38.1197L11.3829 38.1075L11.1406 38.0965L10.901 38.0867L10.664 38.0779L10.4298 38.0704L10.1982 38.0639L9.9693 38.0587L9.74312 38.0545L9.51965 38.0516L9.2989 38.0498L9.08088 38.0492L8.8656 38.0498L8.65306 38.0516L8.44328 38.0546L8.23626 38.0587L8.032 38.0641L7.83053 38.0707L7.63183 38.0785L7.43593 38.0875L7.24282 38.0978L7.05252 38.1093L6.86502 38.122L6.68035 38.136L6.4985 38.1512L6.31948 38.1676L6.14329 38.1853L5.96995 38.2043L5.79945 38.2246L5.63181 38.2461L5.46703 38.2689L5.30511 38.2929L5.14606 38.3183L4.98988 38.3449L4.83659 38.3729L4.68617 38.4021L4.53865 38.4327L4.39402 38.4645L4.25229 38.4977L4.11346 38.5321L3.97753 38.5679L3.84452 38.605L3.71441 38.6435L3.58723 38.6832L3.46296 38.7244L3.34162 38.7668L3.22321 38.8106L3.10773 38.8557L2.99517 38.9022L2.88556 38.9501L2.77888 38.9993L2.67514 39.0498L2.57435 39.1017L2.47649 39.155L2.38159 39.2097L2.28963 39.2657L2.20063 39.3232L2.11457 39.382L2.03147 39.4421L1.95133 39.5037L1.87413 39.5667L1.7999 39.631L1.72862 39.6968L1.6603 39.7639L1.59494 39.8325L1.53253 39.9024L1.47309 39.9738L1.4166 40.0465L1.36307 40.1207L1.3125 40.1963L1.26489 40.2733L1.22023 40.3517L1.17853 40.4316L1.13979 40.5129L1.104 40.5956L1.07117 40.6797L1.04129 40.7652L1.01436 40.8522L0.990374 40.9406L0.96934 41.0305L0.951253 41.1217L0.936108 41.2145L0.923906 41.3086L0.914643 41.4042L0.908317 41.5012L0.904924 41.5997L0.904462 41.6996L0.906932 41.801L0.912326 41.9038L0.920642 42.0081L0.931879 42.1138L0.946031 42.2209L0.963095 42.3295L0.983068 42.4395L1.00595 42.551L1.03172 42.664L1.0604 42.7784L1.09197 42.8942L1.12642 43.0115L1.16376 43.1303L1.20398 43.2505L1.24707 43.3721L1.29303 43.4952L1.34185 43.6198L1.39353 43.7458L1.44807 43.8732L1.50545 44.0021L1.56568 44.1325L1.62874 44.2643L1.69463 44.3975L1.76334 44.5322L1.83488 44.6683L1.90922 44.8059L1.98637 44.9449L2.06632 45.0854L2.14906 45.2273L2.23459 45.3707L2.32289 45.5155L2.41397 45.6617L2.50781 45.8094L2.6044 45.9585L2.70374 46.109L2.80583 46.261L2.91065 46.4144L3.01819 46.5692L3.12845 46.7255L3.24142 46.8832L3.3571 47.0423L3.47546 47.2028L3.59651 47.3647L3.72023 47.5281L3.84662 47.6928L3.97567 47.859L4.10737 48.0266L4.24171 48.1956L4.37868 48.366L4.51826 48.5377L4.66046 48.7109L4.80527 48.8855L4.95266 49.0615L5.10264 49.2388L5.25519 49.4175L5.4103 49.5977L5.56797 49.7791L5.72817 49.962L5.89091 50.1462L6.05617 50.3318L6.22394 50.5188L6.39421 50.7071L6.56696 50.8967L6.7422 51.0878L6.9199 51.2801L7.10005 51.4738L7.28265 51.6688L7.46769 51.8652L7.65514 52.0629L7.845 52.2619L8.03726 52.4622L8.23191 52.6639L8.42893 52.8668L8.62831 53.0711L8.83004 53.2766L9.03411 53.4834L9.2405 53.6916L9.44921 53.901L9.66022 54.1117L9.87351 54.3236L10.0891 54.5368L10.3069 54.7513L10.527 54.967L10.7493 55.184L10.9738 55.4022L11.2006 55.6217L11.4295 55.8424L11.6606 56.0643L11.8939 56.2874L12.1294 56.5117L12.367 56.7373L12.6067 56.964L12.8485 57.192L13.0924 57.4211L13.3384 57.6514L13.5865 57.8828L13.8367 58.1155L14.0888 58.3492L14.3431 58.5842L14.5993 58.8202L14.8575 59.0574L15.1177 59.2958L15.3799 59.5352L15.644 59.7758L15.9101 60.0175L16.1781 60.2602L16.448 60.5041L16.7198 60.749L16.9935 60.995L17.2691 61.2421L17.5465 61.4903L17.8257 61.7394L18.1068 61.9897L18.3896 62.2409L18.6743 62.4932L18.9607 62.7465L19.2489 63.0008L19.5388 63.2561L83.9358 114.671L84.5682 115.129L84.8824 115.356L85.1952 115.581L85.5067 115.805L85.8168 116.027L86.1255 116.248L86.4328 116.467L86.7387 116.685L87.0432 116.901L87.3462 117.115L87.6478 117.328L87.9479 117.54L88.2466 117.75L88.5438 117.958L88.8395 118.164L89.1337 118.369L89.4263 118.573L89.7175 118.774L90.0071 118.974L90.2952 119.173L90.5817 119.369L90.8667 119.564L91.15 119.757L91.4318 119.948L91.712 120.138L91.9906 120.326L92.2676 120.512L92.5429 120.696L92.8166 120.879L93.0887 121.059L93.3591 121.238L93.6279 121.415L93.8949 121.591L94.1603 121.764L94.424 121.935L94.686 122.105L94.9463 122.272L95.2049 122.438L95.4617 122.602L95.7169 122.764L95.9702 122.924L96.2219 123.082L96.4717 123.238L96.7198 123.392L96.9661 123.544L97.2107 123.694L97.4534 123.842L97.6944 123.988L97.9335 124.133L98.1708 124.275L98.4063 124.414L98.64 124.552L98.8719 124.688L99.1019 124.822L99.33 124.954L99.5563 125.083L99.7808 125.211L100.003 125.336L100.224 125.459L100.443 125.58L100.66 125.699L100.875 125.816L101.088 125.931L101.299 126.043L101.508 126.153L101.716 126.261L101.921 126.367L102.125 126.471L102.326 126.572L102.526 126.671L102.724 126.768L102.92 126.863L103.113 126.955L103.305 127.045L103.495 127.133L103.683 127.219L103.869 127.302L104.053 127.383L104.235 127.462L104.415 127.538L104.593 127.612L104.769 127.684L104.943 127.754L105.115 127.821L105.285 127.885L105.453 127.948L105.619 128.008L105.783 128.065L105.945 128.121L106.105 128.174L106.263 128.224L106.419 128.272L106.573 128.318L106.725 128.361L106.875 128.402L107.023 128.44L107.168 128.476L107.312 128.51L107.454 128.541L107.593 128.57L107.731 128.596L107.866 128.62L108 128.641L108.131 128.66L108.261 128.676L108.388 128.69L108.513 128.702L108.637 128.711L108.758 128.717L108.877 128.721L108.994 128.722L109.109 128.721L109.222 128.718L109.333 128.712L109.442 128.703L109.548 128.692L109.653 128.679L109.756 128.662L109.856 128.644L109.955 128.622L110.051 128.599L110.145 128.572L110.238 128.544L110.328 128.512L110.416 128.478L110.502 128.442L110.587 128.403L110.669 128.361L110.749 128.317L110.827 128.271L110.903 128.221L110.976 128.169L111.048 128.115L111.118 128.058L111.186 127.999L111.251 127.937L111.315 127.872L111.377 127.805L111.436 127.735L111.494 127.663L111.549 127.588L111.603 127.51L111.654 127.43L111.703 127.348L111.751 127.262L111.796 127.175L111.84 127.084L111.881 126.991L111.92 126.896L111.958 126.798L111.993 126.697L112.026 126.594L112.058 126.488L112.087 126.38L112.114 126.269L112.14 126.156L112.163 126.04L112.185 125.921L112.204 125.8L112.221 125.676L112.237 125.55L112.251 125.421L112.262 125.29L112.272 125.156L112.28 125.019L112.285 124.88L112.289 124.739L112.291 124.595L112.291 124.448L112.289 124.299L112.285 124.147L112.279 123.993L112.272 123.836L112.262 123.677L112.251 123.515L112.237 123.351L112.222 123.184L112.205 123.015L112.186 122.843L112.165 122.669L112.143 122.492L112.118 122.313L112.092 122.131L112.063 121.947L112.033 121.761L112.001 121.571L111.968 121.38L111.932 121.186L111.895 120.989L111.856 120.79L111.815 120.589L111.772 120.385L111.727 120.179L111.681 119.97L111.633 119.759L111.583 119.546L111.531 119.33L111.478 119.112L111.423 118.891L111.366 118.668L111.308 118.443L111.248 118.215L111.186 117.985L111.122 117.753L111.057 117.518L110.99 117.281L110.921 117.042L110.851 116.8L110.778 116.556L110.705 116.31L110.629 116.061L110.552 115.81L110.474 115.557L110.394 115.302L110.312 115.044L110.228 114.784L110.143 114.522L110.057 114.258L109.969 113.991L109.879 113.722L109.787 113.451L109.695 113.178L109.6 112.903L109.504 112.625L109.407 112.346L109.308 112.064L109.207 111.78L109.105 111.494L109.002 111.206L108.897 110.916L108.79 110.623L108.682 110.329L108.573 110.032L108.462 109.734L108.35 109.433L108.236 109.13L108.121 108.826L108.005 108.519L107.887 108.21L107.768 107.9L107.647 107.587L107.525 107.272L107.402 106.956L107.277 106.637L107.151 106.317L107.023 105.995L106.895 105.67L106.765 105.344L106.633 105.016L106.501 104.686L106.367 104.355L106.232 104.021L106.096 103.686L105.958 103.348L105.819 103.009L105.679 102.669L105.538 102.326L105.395 101.982L105.251 101.636L105.107 101.288L104.96 100.939L104.813 100.588L104.665 100.235L104.515 99.8803L104.365 99.5241L104.06 98.807L68.2753 24.576L68.0907 24.2359L67.9066 23.8976L67.7232 23.5613L67.5404 23.2269L67.3581 22.8944L67.1765 22.564L66.9955 22.2355L66.815 21.9091L66.6352 21.5847L66.4561 21.2624L66.2775 20.9421L66.0996 20.6239L65.9223 20.3078L65.7456 19.9938L65.5696 19.6819L65.3943 19.3722L65.2196 19.0646L65.0455 18.7593L64.8721 18.4561L64.6994 18.1551L64.5274 17.8564L64.356 17.5599L64.1852 17.2657L64.0152 16.9737L63.8459 16.684L63.6772 16.3967L63.5092 16.1116L63.3419 15.8289L63.1754 15.5485L63.0095 15.2705L62.8443 14.9949L62.6798 14.7217L62.516 14.4509L62.353 14.1825L62.1906 13.9165L62.029 13.653L61.8681 13.392L61.7079 13.1335L61.5485 12.8774L61.3897 12.6238L61.2317 12.3728L61.0745 12.1243L60.918 11.8783L60.7622 11.635L60.6071 11.3941L60.4528 11.1559L60.2993 10.9203L60.1465 10.6873L59.9944 10.4569L59.8431 10.2291L59.6925 10.004L59.5428 9.78158L59.3937 9.56182L59.2454 9.34474L59.0979 9.13036L58.9512 8.9187L58.8052 8.70975L58.6599 8.50355L58.5155 8.30008L58.3718 8.09938L58.2289 7.90144L58.0867 7.70628L57.9454 7.51391L57.8047 7.32435L57.6649 7.13759L57.5259 6.95366L57.3876 6.77256L57.2501 6.5943L57.1134 6.41889L56.9775 6.24635L56.8423 6.07668L56.7079 5.90989L56.5743 5.746L56.4415 5.58501L56.3095 5.42692L56.1783 5.27176L56.0478 5.11952L55.9181 4.97023L55.7893 4.82388L55.6612 4.68048L55.5338 4.54005L55.4073 4.40259L55.2816 4.26811L55.1566 4.13662L55.0324 4.00813L54.9091 3.88263L54.7865 3.76015L54.6646 3.64069L54.5436 3.52425L54.4234 3.41085L54.3039 3.30049L54.1852 3.19317L54.0673 3.08891L53.9502 2.98771L53.8339 2.88957L53.7184 2.79451L53.6036 2.70253L53.4896 2.61363L53.3764 2.52782L53.264 2.44512L53.1524 2.36551L53.0415 2.28901L52.9314 2.21562L52.8221 2.14535L52.7136 2.0782L52.6059 2.01418L52.4989 1.9533L52.3927 1.89555L52.2872 1.84094L52.1826 1.78947L52.0787 1.74116L51.9755 1.696L51.8732 1.65399L51.7716 1.61515L51.6707 1.57947L51.5706 1.54695L51.4713 1.51761L51.3728 1.49144L51.275 1.46844L51.1779 1.44862L51.0816 1.43198L50.9861 1.41853L50.8913 1.40826L50.7972 1.40118L50.7039 1.39729L50.6114 1.39658L50.5196 1.39907L50.4285 1.40476L50.3382 1.41364L50.2486 1.42571L50.1597 1.44098L50.0716 1.45945L49.9842 1.48112L49.8975 1.50598L49.8115 1.53404L49.7263 1.56531L49.6418 1.59977L49.558 1.63743L49.475 1.67829L49.3926 1.72234L49.3109 1.76959L49.23 1.82004L49.1498 1.87369L49.0703 1.93052L48.9914 1.99055L48.9133 2.05378L48.8359 2.12019L48.7591 2.18978L48.6831 2.26257L48.6077 2.33854L48.5331 2.41768L48.4591 2.50001L48.3858 2.58552L48.3131 2.6742L48.2412 2.76604L48.1699 2.86106L48.0993 2.95924L48.0293 3.06058L47.96 3.16508L47.8914 3.27273L47.8234 3.38353L47.7561 3.49748L47.6894 3.61457L47.6234 3.7348L47.558 3.85816L47.4933 3.98465L47.4291 4.11426L47.3657 4.24699L47.3028 4.38284L47.2406 4.52179L47.179 4.66384L47.1181 4.809L47.0577 4.95724L46.998 5.10857L46.9389 5.26298L46.8804 5.42046L46.8225 5.58101L46.7652 5.74462L46.7084 5.91128L46.6523 6.08099L46.5968 6.25374L46.5419 6.42953L46.4875 6.60834L46.4338 6.79016L46.3806 6.975L46.328 7.16284L46.2759 7.35368L46.2245 7.5475L46.1736 7.74431L46.1232 7.94408L46.0734 8.14682L46.0242 8.3525L45.9755 8.56114L45.9274 8.77271L45.8798 8.9872L45.8327 9.20462L45.7862 9.42494L45.7402 9.64816L45.6947 9.87427L45.6498 10.1033L45.6054 10.3351L45.5615 10.5698L45.5181 10.8074L45.4752 11.0478L45.4329 11.291L45.391 11.5371L45.3496 11.7859L45.3088 12.0376L45.2684 12.292L45.2285 12.5492L45.1891 12.8092L45.1502 13.0719L45.1117 13.3374L45.0738 13.6056L45.0363 13.8765L44.9993 14.1501L44.9627 14.4264L44.9266 14.7054L44.8909 14.987L44.8557 15.2713L44.821 15.5583L44.7867 15.8478L44.7528 16.14L44.7194 16.4348L44.6864 16.7321L44.6539 17.0321L44.6218 17.3346L44.5901 17.6397L44.5588 17.9472L44.5279 18.2573L44.4975 18.57L44.4674 18.8851L44.4378 19.2026L44.4086 19.5227L44.3797 19.8452L44.3513 20.1701L44.3232 20.4975L44.2956 20.8272L44.2683 21.1593L44.2414 21.4939L44.2149 21.8307L44.1888 22.1699L44.163 22.5115L44.1376 22.8553L44.1126 23.2015L44.0879 23.5499L44.0636 23.9006L44.0397 24.2536L44.0161 24.6087L43.9928 24.9661L43.9699 25.3257L43.9473 25.6875L43.9251 26.0514L43.9032 26.4175L43.8816 26.7857L43.8604 27.1561L43.8395 27.5285L43.8189 27.903L43.7986 28.2796L43.7787 28.6582L43.759 29.0388L43.7397 29.4215L43.7207 29.8062L43.702 30.1928L43.6835 30.5814L43.7061 113.377L43.7249 113.763L43.744 114.148L43.7634 114.53L43.7831 114.91L43.8031 115.288L43.8234 115.664L43.8441 116.038L43.8651 116.41L43.8864 116.78L43.908 117.148L43.93 117.514L43.9523 117.877L43.9749 118.238L43.9979 118.597L44.0213 118.954L44.0449 119.309L44.069 119.662L44.0934 120.012L44.1181 120.36L44.1432 120.705L44.1687 121.049L44.1946 121.39L44.2208 121.728L44.2474 122.065L44.2743 122.399L44.3017 122.73L44.3294 123.06L44.3576 123.386L44.3861 123.711L44.415 124.033L44.4443 124.352L44.4741 124.669L44.5042 124.984L44.5347 125.296L44.5657 125.605L44.5971 125.912L44.6289 126.217L44.6611 126.519L44.6937 126.818L44.7268 127.115L44.7603 127.409L44.7943 127.701L44.8287 127.99L44.8635 128.276L44.8988 128.56L44.9346 128.841L44.9708 129.119L45.0074 129.395L45.0446 129.668L45.0822 129.938L45.1202 130.206L45.1588 130.471L45.1978 130.733L45.2373 130.992L45.2773 131.249L45.3178 131.503L45.3588 131.754L45.4002 132.002L45.4422 132.247L45.4847 132.49L45.5277 132.73L45.5712 132.967L45.6152 133.201L45.6597 133.432L45.7048 133.66L45.7504 133.886L45.7965 134.108L45.8431 134.328L45.8903 134.545L45.938 134.759L45.9863 134.97L46.0351 135.177L46.0844 135.383L46.1343 135.585L46.1848 135.784L46.2359 135.98L46.2875 136.173L46.3396 136.363L46.3924 136.55L46.4457 136.735L46.4996 136.916L46.554 137.094L46.6091 137.269L46.6647 137.441L46.721 137.61L46.7778 137.776L46.8353 137.939L46.8933 138.099L46.952 138.256L47.0112 138.409L47.0711 138.56L47.1316 138.708L47.1927 138.852L47.2544 138.993L47.3167 139.132L47.3797 139.267L47.4433 139.399L47.5076 139.528L47.5725 139.654L47.638 139.776L47.7041 139.896L47.771 140.012L47.8384 140.125L47.9066 140.236L47.9753 140.342L48.0448 140.446L48.1149 140.547L48.1857 140.644L48.2571 140.739L48.3292 140.83L48.402 140.918L48.4755 141.003L48.5496 141.084L48.6244 141.163L48.6999 141.238L48.7761 141.31L48.853 141.379L48.9306 141.445L49.0089 141.507L49.0879 141.566L49.1675 141.623L49.2479 141.676L49.329 141.725L49.4108 141.772L49.4933 141.815L49.5766 141.855L49.6605 141.892L49.7452 141.926L49.8306 141.957L49.9167 141.984L50.0035 142.008L50.0911 142.029L50.1794 142.047L50.2684 142.061L50.3581 142.073L50.4486 142.081L50.5399 142.086L50.6319 142.088L50.7246 142.086L50.8181 142.082L50.9123 142.074L51.0072 142.063L51.1029 142.049L51.1994 142.031L51.2966 142.011L51.3946 141.987L51.4933 141.96L51.5928 141.93L51.693 141.897L51.7941 141.861L51.8958 141.821L51.9984 141.778L52.1017 141.732L52.2057 141.683L52.3106 141.631L52.4162 141.576L52.5226 141.518L52.6297 141.456L52.7377 141.391L52.8463 141.323L52.9558 141.252L53.0661 141.178L53.1771 141.101L53.2889 141.021L53.4015 140.937L53.5149 140.851L53.629 140.761L53.744 140.669L53.8597 140.573L53.9762 140.474L54.0935 140.372L54.2115 140.267L54.3304 140.159L54.45 140.048L54.5704 139.934L54.6916 139.817L54.8136 139.697L54.9364 139.574L55.0599 139.448L55.1843 139.319L55.3094 139.186L55.4353 139.051L55.562 138.913L55.6895 138.772L55.8178 138.628L55.9469 138.481L56.0767 138.331L56.2073 138.178L56.3388 138.022L56.471 137.864L56.6039 137.702L56.7377 137.537L56.8722 137.37L57.0076 137.2L57.1437 137.026L57.2806 136.85L57.4182 136.672L57.5567 136.49L57.6959 136.305L57.8359 136.118L57.9767 135.928L58.1182 135.735L58.2605 135.539L58.4036 135.34L58.5475 135.139L58.6921 134.935L58.8375 134.728L58.9837 134.519L59.1306 134.306L59.2783 134.091L59.4267 133.874L59.5759 133.653L59.7259 133.43L59.8766 133.205L60.0281 132.976L60.1803 132.745L60.3333 132.512L60.487 132.275L60.6415 132.037L60.7967 131.795L60.9526 131.551L61.1093 131.305L61.2668 131.056L61.4249 130.804L61.5838 130.55L61.7434 130.293L61.9038 130.034L62.0648 129.773L62.2266 129.509L62.3891 129.242L62.5523 128.973L62.7163 128.702L62.8809 128.428L63.0462 128.152L63.2123 127.873L63.379 127.593L63.5465 127.309L63.7146 127.024L63.8834 126.736L64.0529 126.446L64.2231 126.153L64.394 125.859L64.5655 125.562L64.7377 125.262L64.9106 124.961L65.0841 124.657L65.2583 124.351L65.4332 124.043L65.6087 123.733L65.7848 123.421L65.9616 123.106L66.139 122.79L66.3171 122.471L66.4958 122.15L66.6751 121.828L66.855 121.503L67.0356 121.176L67.2168 120.847L67.3985 120.516L67.5809 120.183L67.7639 119.848L67.9475 119.512L68.1316 119.173L68.3163 118.832L104.094 44.5971L104.398 43.8807L104.698 43.1708L104.846 42.8184L104.993 42.4676L105.139 42.1186L105.283 41.7712L105.427 41.4256L105.569 41.0817L105.71 40.7396L105.85 40.3992L105.989 40.0606L106.126 39.7238L106.262 39.3889L106.397 39.0557L106.53 38.7244L106.663 38.395L106.794 38.0674L106.923 37.7417L107.052 37.4178L107.179 37.0959L107.305 36.7759L107.429 36.4578L107.552 36.1417L107.674 35.8275L107.794 35.5153L107.913 35.205L108.031 34.8968L108.147 34.5905L108.262 34.2863L108.375 33.9841L108.487 33.6839L108.597 33.3858L108.706 33.0897L108.814 32.7957L108.92 32.5038L109.025 32.214L109.128 31.9263L109.23 31.6407L109.33 31.3573L109.428 31.0759L109.526 30.7968L109.621 30.5197L109.715 30.2449L109.808 29.9722L109.899 29.7017L109.988 29.4335L110.076 29.1674L110.162 28.9035L110.247 28.6419L110.33 28.3825L110.412 28.1253L110.491 27.8704L110.57 27.6178L110.646 27.3674L110.721 27.1194L110.795 26.8736L110.866 26.6301L110.936 26.3889L111.005 26.15L111.071 25.9135L111.136 25.6793L111.2 25.4474L111.261 25.2179L111.321 24.9907L111.379 24.7659L111.435 24.5435L111.49 24.3234L111.543 24.1057L111.594 23.8904L111.644 23.6775L111.691 23.4671L111.737 23.259L111.781 23.0533L111.824 22.8501L111.864 22.6493L111.903 22.4509L111.94 22.255L111.975 22.0615L112.009 21.8705L112.04 21.6819L112.07 21.4958L112.098 21.3122L112.124 21.131L112.148 20.9523L112.17 20.7761L112.19 20.6024L112.209 20.4312L112.226 20.2625L112.241 20.0963L112.253 19.9326L112.265 19.7714L112.274 19.6127L112.281 19.4565L112.286 19.3029L112.29 19.1518L112.291 19.0032L112.291 18.8571L112.288 18.7136L112.284 18.5726L112.278 18.4342L112.27 18.2983L112.26 18.1649L112.248 18.0342L112.234 17.9059L112.218 17.7802L112.2 17.6571L112.18 17.5365L112.158 17.4185L112.134 17.303L112.108 17.1901L112.081 17.0798L112.051 16.9721L112.019 16.8669L111.985 16.7643L111.949 16.6642L111.912 16.5667L111.872 16.4718L111.83 16.3795L111.786 16.2897L111.74 16.2025L111.693 16.1179L111.643 16.0358L111.591 15.9563L111.537 15.8794L111.481 15.8051L111.423 15.7333L111.363 15.6641L111.301 15.5975L111.237 15.5334L111.171 15.4719L111.103 15.413L111.032 15.3567L110.96 15.3029L110.886 15.2516L110.809 15.203L110.731 15.1569L110.651 15.1133L110.568 15.0723L110.484 15.0339L110.397 14.998L110.308 14.9646L110.218 14.9338L110.125 14.9056L110.03 14.8798L109.933 14.8567L109.834 14.836L109.733 14.8179L109.63 14.8023L109.525 14.7893L109.418 14.7787L109.308 14.7707L109.197 14.7652L109.084 14.7622L108.968 14.7617L108.851 14.7637L108.731 14.7682L108.609 14.7752L108.486 14.7847L108.36 14.7967L108.232 14.8112L108.102 14.8281L107.971 14.8475L107.837 14.8694L107.701 14.8937L107.563 14.9205L107.422 14.9497L107.28 14.9814L107.136 15.0155L106.99 15.052L106.842 15.091L106.691 15.1324L106.539 15.1762L106.385 15.2224L106.228 15.271L106.07 15.322L105.91 15.3755L105.747 15.4312L105.583 15.4894L105.416 15.5499L105.248 15.6128L105.077 15.6781L104.905 15.7457L104.73 15.8156L104.554 15.8879L104.375 15.9625L104.195 16.0394L104.012 16.1186L103.828 16.2001L103.642 16.284L103.453 16.3701L103.263 16.4585L103.071 16.5491L102.876 16.6421L102.68 16.7372L102.482 16.8347L102.282 16.9343L102.08 17.0362L101.876 17.1403L101.67 17.2466L101.462 17.3552L101.252 17.4659L101.041 17.5788L100.827 17.6939L100.612 17.8111L100.394 17.9305L100.175 18.052L99.9541 18.1757L99.7311 18.3015L99.5062 18.4294L99.2795 18.5595L99.051 18.6916L98.8205 18.8258L98.5883 18.9621L98.3542 19.1005L98.1183 19.2409L97.8806 19.3834L97.641 19.5279L97.3997 19.6744L97.1565 19.8229L96.9116 19.9735L96.6649 20.126L96.4164 20.2805L96.1661 20.437L95.9141 20.5955L95.6604 20.7559L95.4049 20.9182L95.1476 21.0825L94.8887 21.2486L94.628 21.4167L94.3656 21.5867L94.1015 21.7586L93.8358 21.9323L93.5683 22.1079L93.2992 22.2853L93.0284 22.4646L92.756 22.6457L92.4819 22.8286L92.2062 23.0133L91.9289 23.1997L91.65 23.388L91.3694 23.578L91.0873 23.7698L90.8035 23.9633L90.5182 24.1585L90.2314 24.3554L89.9429 24.5541L89.653 24.7544L89.3615 24.9564L89.0685 25.1601L88.774 25.3654L88.4779 25.5723L88.1804 25.7809L87.8814 25.9911L87.581 26.2028L87.279 26.4162L86.9757 26.6311L86.6709 26.8476L86.3647 27.0656L86.0571 27.2852L85.748 27.5063L85.4376 27.7288L85.1259 27.9529L84.8127 28.1785L84.4982 28.4055L19.7655 80.0287L19.4743 80.2848L19.1847 80.5398L18.897 80.7939L18.6109 81.047L18.3267 81.299L18.0442 81.5501L17.7636 81.8001L17.4847 82.049L17.2077 82.2969L16.9326 82.5437L16.6593 82.7895L16.3879 83.0342L16.1185 83.2778L15.8509 83.5204L15.5852 83.7618L15.3215 84.0021L15.0598 84.2413L14.8 84.4794L14.5422 84.7163L14.2864 84.9522L14.0327 85.1868L13.7809 85.4204L13.5313 85.6527L13.2836 85.8839L13.0381 86.114L12.7946 86.3428L12.5533 86.5705L12.314 86.797L12.0769 87.0222L11.8419 87.2463L11.6091 87.4692L11.3785 87.6908L11.15 87.9112L10.9238 88.1304L10.6997 88.3483L10.4779 88.565L10.2583 88.7805L10.041 88.9947L9.82595 89.2076L9.61317 89.4193L9.40267 89.6297L9.19448 89.8388L8.9886 90.0467L8.78505 90.2532L8.58384 90.4585L8.38498 90.6624L8.18849 90.8651L7.99437 91.0664L7.80264 91.2665L7.61331 91.4652L7.42639 91.6626L7.2419 91.8587L7.05984 92.0534L6.88023 92.2468L6.70308 92.4388L6.52839 92.6296L6.35618 92.8189L6.18647 93.0069L6.01926 93.1936L5.85456 93.3789L5.69238 93.5628L5.53274 93.7454L5.37564 93.9265L5.2211 94.1063L5.06912 94.2848L4.91971 94.4618L4.77289 94.6375L4.62866 94.8117L4.48704 94.9846L4.34804 95.1561L4.21165 95.3261L4.0779 95.4948L3.94679 95.6621L3.81833 95.828L3.69253 95.9924L3.5694 96.1554L3.44895 96.3171L3.33118 96.4773L3.21611 96.6361L3.10374 96.7934L2.99408 96.9493L2.88714 97.1039L2.78293 97.2569L2.68145 97.4086L2.58272 97.5588L2.48673 97.7076L2.39351 97.855L2.30305 98.0009L2.21536 98.1454L2.13045 98.2884L2.04833 98.43L1.969 98.5701L1.89247 98.7088L1.81875 98.8461L1.74784 98.9819L1.67975 99.1163L1.61449 99.2492L1.55206 99.3807L1.49247 99.5107L1.43571 99.6393L1.38181 99.7664L1.33076 99.8921L1.28258 100.016L1.23725 100.139L1.1948 100.26L1.15522 100.38L1.11852 100.499L1.08471 100.616L1.05378 100.731L1.02575 100.845L1.00062 100.958L0.978382 101.069L0.959055 101.179L0.942636 101.287L0.929133 101.394L0.918543 101.499L0.910875 101.603L0.90613 101.706L0.904312 101.807L0.905423 101.906L0.909467 102.005L0.916446 102.101L0.926361 102.196L0.939217 102.29L0.955014 102.383L0.973756 102.474L0.995446 102.563L1.02008 102.651L1.04767 102.738L1.0782 102.823L1.1117 102.907L1.14814 102.989L1.18754 103.07L1.22989 103.15L1.2752 103.228L1.32347 103.305L1.3747 103.38L1.42889 103.454L1.48603 103.526L1.54613 103.597L1.60919 103.667L1.67521 103.735L1.74419 103.802L1.81613 103.867L1.89102 103.932L1.96887 103.994L2.04967 104.055L2.13343 104.115L2.22014 104.174L2.3098 104.231L2.40241 104.287L2.49796 104.341L2.59647 104.394L2.69792 104.446L2.80231 104.496L2.90964 104.545L3.01991 104.592L3.13311 104.638L3.24925 104.683L3.36831 104.727L3.4903 104.769L3.61522 104.81L3.74305 104.849L3.8738 104.887L4.00746 104.924L4.14403 104.96L4.28351 104.994L4.42588 105.027L4.57116 105.058L4.71932 105.089L4.87037 105.118L5.02431 105.145L5.18113 105.172L5.34081 105.197L5.50337 105.22L5.66879 105.243L5.83706 105.264L6.00819 105.284L6.18217 105.303L6.35898 105.32L6.53863 105.336L6.72111 105.351L6.90641 105.365L7.09453 105.377L7.28546 105.389L7.47918 105.399L7.67571 105.407L7.87502 105.415L8.07711 105.421L8.28199 105.426L8.48962 105.43L8.70002 105.433L8.91316 105.434L9.12905 105.435L9.34768 105.434L9.56903 105.432L9.79311 105.429L10.0199 105.424L10.2494 105.419L10.4816 105.412L10.7164 105.404L10.954 105.395L11.1942 105.385L11.437 105.374L11.6826 105.362L11.9307 105.348L12.1815 105.333L12.4349 105.318L12.6909 105.301L12.9495 105.283L13.2107 105.264L13.4745 105.244L13.7408 105.223L14.0097 105.201L14.2812 105.177L14.5552 105.153L14.8317 105.127L15.1107 105.101L15.3922 105.073L15.6762 105.045L15.9627 105.015L16.2517 104.985L16.5431 104.953L16.837 104.921L17.1332 104.887L17.432 104.852L17.7331 104.817L18.0366 104.78L18.3425 104.743L18.6507 104.704L18.9614 104.665L19.2743 104.624L19.5896 104.583L19.9072 104.54L20.2271 104.497L20.5493 104.453L20.8738 104.408L21.2006 104.362L21.5296 104.315L21.8608 104.267L22.1942 104.218L22.5299 104.168L22.8677 104.118L23.2078 104.066L23.5499 104.014L23.8943 103.961L24.2407 103.907L24.5893 103.852L24.94 103.796L25.2928 103.74L25.6477 103.683L26.0046 103.624L26.3635 103.565L26.7245 103.506L27.0875 103.445L27.4525 103.384L27.8194 103.321L28.1884 103.259L28.5592 103.195L28.9321 103.13L29.3068 103.065L29.6834 102.999L30.0619 102.932L30.4423 102.865L30.8245 102.797L110.791 84.574L111.168 84.4694L111.916 84.2606L112.288 84.1564L112.657 84.0524L113.024 83.9485L113.389 83.8448L113.752 83.7412L114.113 83.6378L114.472 83.5345L114.828 83.4314L115.183 83.3284L115.535 83.2255L115.885 83.1229L116.234 83.0203L116.579 82.9179L116.923 82.8157L117.264 82.7137L117.604 82.6117L117.941 82.51L118.275 82.4084L118.607 82.3069L118.937 82.2056L119.265 82.1045L119.59 82.0035L119.913 81.9026L120.234 81.802L120.552 81.7014L120.868 81.6011L121.181 81.5009L121.492 81.4008L121.8 81.3009L122.106 81.2012L122.41 81.1016L122.711 81.0021L123.009 80.9029L123.305 80.8037L123.599 80.7048L123.889 80.606L124.178 80.5073L124.463 80.4088L124.746 80.3104L125.027 80.2122L125.304 80.1142L125.58 80.0163L125.852 79.9185L126.122 79.8209L126.389 79.7235L126.653 79.6262L126.915 79.529L127.174 79.432L127.43 79.3352L127.684 79.2384L127.935 79.1419L128.182 79.0454L128.428 78.9491L128.67 78.853L128.91 78.757L129.146 78.6611L129.38 78.5654L129.611 78.4698L129.84 78.3744L130.065 78.279L130.287 78.1839L130.507 78.0888L130.724 77.9939L130.937 77.8991L131.148 77.8045L131.356 77.7099L131.561 77.6155L131.763 77.5212L131.962 77.4271L132.158 77.333L132.351 77.2391L132.541 77.1453L132.728 77.0517L132.913 76.9581L133.094 76.8647L133.272 76.7713L133.447 76.6781L133.619 76.585L133.788 76.492L133.953 76.3991L134.116 76.3063L134.276 76.2136L134.432 76.121L134.586 76.0286L134.736 75.9362L134.884 75.8439L135.028 75.7517L135.169 75.6596L135.307 75.5676L135.442 75.4756L135.573 75.3838L135.702 75.2921L135.827 75.2004L135.949 75.1088L136.068 75.0173L136.184 74.9259L136.297 74.8345L136.406 74.7432L136.513 74.652L136.616 74.5609L136.715 74.4698L136.812 74.3788L136.906 74.2879L136.996 74.197L137.083 74.1062L137.167 74.0154L137.247 73.9247L137.325 73.8341L137.399 73.7435L137.47 73.6529L137.537 73.5624L137.602 73.4719L137.663 73.3815L137.721 73.2911L137.775 73.2008L137.826 73.1105L137.875 73.0202L137.919 72.93L137.961 72.8398L137.999 72.7496L138.034 72.6594L138.066 72.5693L138.094 72.4792L138.12 72.3891L138.142 72.299L138.16 72.2089L138.176 72.1189L138.188 72.0288L138.196 71.9388L138.202 71.8488L138.204 71.7587" stroke="#FFC700" stroke-width="0.8"/>
</svg>
