<svg width="830" height="545" viewBox="0 0 830 545" fill="none" xmlns="http://www.w3.org/2000/svg">
<path d="M374.648 172.005V158.296H376.964C381.669 158.296 383.58 161.067 383.58 165.008V165.199C383.58 169.378 381.383 172.005 376.988 172.005H374.648ZM372.57 173.701H377.036C383.007 173.701 385.729 169.951 385.729 165.222V165.008C385.729 160.255 382.959 156.625 377.084 156.625H372.57V173.701ZM393.689 173.916C396.508 173.916 398.585 172.602 399.015 170.095H397.033C396.77 171.552 395.648 172.268 393.713 172.268C391.158 172.268 389.796 170.692 389.701 167.85H399.111V167.205C399.111 162.739 396.388 160.995 393.498 160.995C390.059 160.995 387.647 163.622 387.647 167.396V167.587C387.647 171.432 390.155 173.916 393.689 173.916ZM389.773 166.249C390.107 164.028 391.468 162.643 393.498 162.643C395.552 162.643 396.89 163.67 397.081 166.249H389.773ZM405.661 173.916C408.694 173.916 410.246 172.387 410.246 170.119C410.246 167.468 408.431 166.894 405.852 166.417C403.559 166.011 402.938 165.557 402.938 164.434C402.938 163.36 403.869 162.643 405.302 162.643C406.879 162.643 407.643 163.24 407.93 164.602H409.84C409.506 161.903 407.571 160.995 405.326 160.995C403.368 160.995 401.099 162.189 401.099 164.506C401.099 166.679 402.198 167.587 405.446 168.184C407.38 168.542 408.359 168.972 408.359 170.286C408.359 171.623 407.524 172.268 405.637 172.268C403.631 172.268 402.842 171.337 402.699 169.856H400.765C400.884 172.411 402.675 173.916 405.661 173.916ZM412.837 173.701H414.819V161.21H412.837V173.701ZM413.792 158.607C414.509 158.607 415.106 158.01 415.106 157.293C415.106 156.577 414.509 155.98 413.792 155.98C413.076 155.98 412.479 156.577 412.479 157.293C412.479 158.01 413.076 158.607 413.792 158.607ZM423.39 178.263C426.877 178.263 429.337 176.495 429.361 172.865V161.21H427.379V163.216C426.662 161.998 425.373 160.995 423.295 160.995C419.856 160.995 417.467 163.813 417.467 167.205V167.372C417.467 170.811 419.88 173.295 423.152 173.295C424.967 173.295 426.662 172.149 427.379 170.931V172.746C427.379 175.421 425.826 176.591 423.367 176.591C421.241 176.591 420.047 175.851 419.76 174.418H417.73C418.064 176.519 419.689 178.263 423.39 178.263ZM423.367 171.647C421.265 171.647 419.521 170.023 419.521 167.3V167.109C419.521 164.482 421.002 162.643 423.486 162.643C425.922 162.643 427.451 164.267 427.451 167.062V167.229C427.451 170.023 425.683 171.647 423.367 171.647ZM432.895 173.701H434.877V166.13C434.877 163.885 436.525 162.715 438.364 162.715C440.37 162.715 441.302 163.694 441.302 165.891V173.701H443.284V166.035C443.284 162.404 441.469 160.995 438.89 160.995C436.836 160.995 435.45 162.022 434.877 163.192V161.21H432.895V173.701Z" fill="white"/>
<path d="M251.849 383.997V370.288H254.165C258.87 370.288 260.781 373.059 260.781 377V377.191C260.781 381.37 258.584 383.997 254.189 383.997H251.849ZM249.771 385.693H254.237C260.208 385.693 262.931 381.943 262.931 377.215V377C262.931 372.247 260.16 368.617 254.285 368.617H249.771V385.693ZM270.891 385.908C273.709 385.908 275.787 384.594 276.216 382.087H274.234C273.971 383.544 272.849 384.26 270.914 384.26C268.359 384.26 266.998 382.684 266.902 379.842H276.312V379.197C276.312 374.731 273.589 372.987 270.699 372.987C267.26 372.987 264.848 375.614 264.848 379.388V379.579C264.848 383.424 267.356 385.908 270.891 385.908ZM266.974 378.242C267.308 376.02 268.669 374.635 270.699 374.635C272.753 374.635 274.091 375.662 274.282 378.242H266.974ZM281.888 385.693H284.42L288.91 373.202H286.856L283.202 383.687L279.5 373.202H277.35L281.888 385.693ZM295.801 385.908C298.619 385.908 300.697 384.594 301.127 382.087H299.145C298.882 383.544 297.759 384.26 295.825 384.26C293.269 384.26 291.908 382.684 291.812 379.842H301.222V379.197C301.222 374.731 298.5 372.987 295.61 372.987C292.171 372.987 289.758 375.614 289.758 379.388V379.579C289.758 383.424 292.266 385.908 295.801 385.908ZM291.884 378.242C292.218 376.02 293.58 374.635 295.61 374.635C297.664 374.635 299.001 375.662 299.192 378.242H291.884ZM303.834 385.693H305.84V367.231H303.834V385.693ZM314.626 384.26C312.095 384.26 310.542 382.397 310.542 379.555V379.364C310.542 376.498 312.118 374.635 314.626 374.635C317.11 374.635 318.71 376.498 318.71 379.388V379.555C318.71 382.373 317.134 384.26 314.626 384.26ZM314.602 385.908C318.161 385.908 320.764 383.305 320.764 379.531V379.34C320.764 375.591 318.161 372.987 314.626 372.987C311.091 372.987 308.488 375.614 308.488 379.364V379.555C308.488 383.209 311.044 385.908 314.602 385.908ZM323.356 390.04H325.338V383.639C326.055 384.881 327.512 385.908 329.566 385.908C333.005 385.908 335.25 383.281 335.25 379.46V379.269C335.25 375.376 332.838 372.987 329.566 372.987C327.75 372.987 326.055 374.086 325.338 375.304V373.202H323.356V390.04ZM329.374 384.26C326.938 384.26 325.267 382.755 325.267 379.555V379.364C325.267 376.164 327.034 374.635 329.351 374.635C331.452 374.635 333.196 376.211 333.196 379.364V379.555C333.196 382.588 331.858 384.26 329.374 384.26Z" fill="white"/>
<path d="M502.151 385.815H504.061V371.438L509.913 385.815H510.558L516.218 371.438V385.815H518.296V368.739H515.43L510.319 382.042L505.041 368.739H502.151V385.815ZM525.113 386.03C526.952 386.03 528.075 385.409 529.006 384.239V385.815H530.988V377.576C530.988 374.089 528.815 373.109 526.427 373.109C524.015 373.109 521.746 374.16 521.483 377.002H523.465C523.656 375.474 524.612 374.757 526.331 374.757C528.242 374.757 529.006 375.593 529.006 377.576V378.483H527.215C524.015 378.483 520.957 379.462 520.957 382.352C520.957 384.908 522.796 386.03 525.113 386.03ZM525.304 384.454C523.561 384.454 522.94 383.642 522.94 382.352C522.94 380.513 524.779 379.892 527.287 379.892H529.006V381.445C529.006 383.379 527.406 384.454 525.304 384.454ZM534.405 385.815H536.387V378.961C536.387 375.88 537.987 375.092 540.495 374.972V373.109C538.25 373.181 537.175 374.16 536.387 375.569V373.324H534.405V385.815ZM542.907 385.815H544.889V379.343L550.43 385.815H552.842L547.038 379.128L552.388 373.324H550.072L544.889 379.08V367.354H542.907V385.815ZM559.388 386.03C562.206 386.03 564.284 384.717 564.714 382.209H562.732C562.469 383.666 561.347 384.382 559.412 384.382C556.857 384.382 555.495 382.806 555.4 379.964H564.81V379.319C564.81 374.853 562.087 373.109 559.197 373.109C555.758 373.109 553.346 375.737 553.346 379.51V379.701C553.346 383.546 555.853 386.03 559.388 386.03ZM555.471 378.364C555.806 376.143 557.167 374.757 559.197 374.757C561.251 374.757 562.589 375.784 562.78 378.364H555.471ZM571.171 385.982C571.983 385.982 572.461 385.863 572.867 385.72V384.048C572.437 384.215 571.959 384.311 571.338 384.311C570.335 384.311 569.786 383.714 569.786 382.496V374.996H572.7V373.324H569.786V370.482H567.804V373.324H566.012V374.996H567.804V382.687C567.804 384.645 568.902 385.982 571.171 385.982Z" fill="white"/>
<circle cx="407.836" cy="166.42" r="165.946" stroke="white" stroke-width="0.796108"/>
<circle cx="292.204" cy="378.411" r="165.946" stroke="white" stroke-width="0.796108"/>
<circle cx="537.233" cy="378.411" r="165.946" stroke="white" stroke-width="0.796108"/>
<g filter="url(#filter0_d_455_1940)">
<path fill-rule="evenodd" clip-rule="evenodd" d="M377.784 330.097C385.117 305.902 397.813 284.038 414.489 265.89C430.506 283.32 442.851 304.177 450.298 327.236C436.676 330.842 422.368 332.763 407.612 332.763C397.43 332.763 387.461 331.849 377.784 330.097Z" fill="#FFCC00"/>
</g>
<path d="M472.492 270.374C472.492 263.945 476.004 254.831 479.628 249.757" stroke="#848484" stroke-width="1.59222" stroke-linecap="round"/>
<path d="M472.488 269.582C466.695 270.409 483.589 273.282 489.14 275.133" stroke="#848484" stroke-width="1.59222" stroke-linecap="round"/>
<path d="M474.073 267.996C474.86 264.452 485.397 259.319 487.906 257.687C518.24 237.957 552.929 222.78 586.85 210.55C636.793 192.543 689.305 182.111 741.302 172.047" stroke="#848484" stroke-width="1.59222" stroke-linecap="round"/>
<path d="M743.538 161.87C742.174 159.314 744.823 167.982 745.025 169.057C746.206 175.355 747.689 181.576 748.742 187.893" stroke="#848484" stroke-width="2.0787" stroke-linecap="round"/>
<path d="M741.304 161.87C747.454 153.67 755.078 169.525 745.022 171.536" stroke="#848484" stroke-width="2.0787" stroke-linecap="round"/>
<path d="M756.913 159.64C756.683 157.802 753.952 160.281 753.65 161.127C753.143 162.546 756.462 164.505 757.491 165.257C761.849 168.442 754.683 171.854 754.683 168.562" stroke="#848484" stroke-width="2.0787" stroke-linecap="round"/>
<path d="M764.353 156.665C762.93 154.136 756.483 159.101 763.568 162.2C766.378 163.43 765.842 164.646 763.651 166.29C761.538 167.874 760.801 166.414 759.148 165.587" stroke="#848484" stroke-width="2.0787" stroke-linecap="round"/>
<path d="M768.813 142.539C768.813 140.688 768.813 142.197 768.813 143.035C768.813 147.089 769.207 150.821 769.887 154.807C770.119 156.162 771.665 166.577 772.531 164.844" stroke="#848484" stroke-width="2.0787" stroke-linecap="round"/>
<path d="M763.606 152.948C760.494 151.781 773.552 146.116 774.758 145.513" stroke="#848484" stroke-width="2.0787" stroke-linecap="round"/>
<path d="M777.737 138.822C777.737 137.493 777.747 137.53 777.365 138.904C776.393 142.404 777.737 146.764 777.737 150.387C777.737 153.19 777.597 160.313 780.711 161.87" stroke="#848484" stroke-width="2.0787" stroke-linecap="round"/>
<path d="M779.965 169.305C780.912 170.523 779.512 170.696 780.13 169.305C780.538 168.388 781.133 167.978 779.965 168.562" stroke="#848484" stroke-width="2.0787" stroke-linecap="round"/>
<path d="M791.862 149.974C789.602 149.692 793.737 147.509 794.134 147.372C797.215 146.305 800.012 144.569 803.015 143.282" stroke="#848484" stroke-width="2.0787" stroke-linecap="round"/>
<path d="M799.297 144.77C796.769 147.929 796.861 158.82 797.81 162.614" stroke="#848484" stroke-width="2.0787" stroke-linecap="round"/>
<path d="M806.731 144.77C806.731 141.442 806.475 151.433 805.987 154.724C805.382 158.814 804.83 160.79 807.805 155.922C813.14 147.193 810.621 164.672 814.91 160.383" stroke="#848484" stroke-width="2.0787" stroke-linecap="round"/>
<path d="M818.631 152.948C818.631 154.377 818.119 159.152 817.144 159.64" stroke="#848484" stroke-width="2.0787" stroke-linecap="round"/>
<path d="M817.144 147.744C818.386 147.899 818.943 150.241 819.416 148.115C819.873 146.055 819.943 144.26 817.887 147" stroke="#848484" stroke-width="2.0787" stroke-linecap="round"/>
<path d="M828.295 152.948C828.295 148.279 821.755 152.356 824.949 155.55C825.873 156.475 828.325 157.726 827.097 159.227C825.35 161.363 821.726 161.519 819.373 161.127" stroke="#848484" stroke-width="2.0787" stroke-linecap="round"/>
<path d="M771.047 187.149C769.624 185.905 771.047 194.855 771.047 196.071" stroke="#848484" stroke-width="2.0787" stroke-linecap="round"/>
<path d="M768.815 181.945C770.03 183.16 766.936 178.93 768.071 181.201" stroke="#848484" stroke-width="2.0787" stroke-linecap="round"/>
<path d="M777.734 183.432C774.97 183.432 772.655 186.329 775.09 188.636C778.255 191.634 781.152 192.354 774.76 192.354" stroke="#848484" stroke-width="2.0787" stroke-linecap="round"/>
<path d="M788.889 181.945C788.507 180.61 786.219 185.501 786.823 187.315C787.786 190.204 791.387 190.055 792.441 187.315C793.19 185.367 794.837 181.532 794.837 181.532C794.837 181.532 794.284 185.314 795.415 186.571C797.515 188.905 798.645 187.168 800.206 184.919C801.425 183.163 801.535 181.391 801.858 179.343C802.04 178.192 800.785 176.805 800.785 178.227C800.785 180.709 805.096 182.718 805.824 185.084C806.492 187.256 802.624 191.181 801.528 187.893" stroke="#848484" stroke-width="2.0787" stroke-linecap="round"/>
<g opacity="0.01">
<path d="M2.33936 281.528C2.33936 275.099 5.85201 265.985 9.47604 260.911" stroke="#848484" stroke-width="1.59222" stroke-linecap="round"/>
<path d="M2.33523 280.736C-3.45697 281.563 13.4367 284.436 18.9875 286.286" stroke="#848484" stroke-width="1.59222" stroke-linecap="round"/>
<path d="M3.92065 279.15C4.7081 275.606 15.245 270.473 17.7535 268.841C48.0872 249.111 82.7768 233.934 116.698 221.704C166.641 203.697 219.153 193.265 271.15 183.201" stroke="#848484" stroke-width="1.59222" stroke-linecap="round"/>
<path d="M273.385 173.024C272.022 170.468 274.671 179.136 274.872 180.211C276.053 186.509 277.537 192.73 278.59 199.047" stroke="#848484" stroke-width="2.0787" stroke-linecap="round"/>
<path d="M271.152 173.024C277.302 164.824 284.925 180.678 274.869 182.69" stroke="#848484" stroke-width="2.0787" stroke-linecap="round"/>
<path d="M286.761 170.793C286.531 168.956 283.8 171.435 283.498 172.28C282.991 173.7 286.31 175.659 287.339 176.411C291.697 179.596 284.53 183.008 284.53 179.715" stroke="#848484" stroke-width="2.0787" stroke-linecap="round"/>
<path d="M294.2 167.819C292.777 165.29 286.33 170.254 293.416 173.354C296.225 174.583 295.69 175.799 293.498 177.443C291.385 179.028 290.648 177.568 288.996 176.741" stroke="#848484" stroke-width="2.0787" stroke-linecap="round"/>
<path d="M298.661 153.693C298.661 151.841 298.661 153.35 298.661 154.189C298.661 158.243 299.054 161.975 299.735 165.961C299.966 167.315 301.512 177.731 302.379 175.998" stroke="#848484" stroke-width="2.0787" stroke-linecap="round"/>
<path d="M293.453 164.102C290.342 162.935 303.399 157.27 304.606 156.667" stroke="#848484" stroke-width="2.0787" stroke-linecap="round"/>
<path d="M307.585 149.976C307.585 148.647 307.595 148.684 307.213 150.058C306.241 153.558 307.585 157.918 307.585 161.541C307.585 164.344 307.445 171.467 310.559 173.024" stroke="#848484" stroke-width="2.0787" stroke-linecap="round"/>
<path d="M309.812 180.459C310.759 181.677 309.359 181.85 309.977 180.459C310.385 179.541 310.98 179.132 309.812 179.716" stroke="#848484" stroke-width="2.0787" stroke-linecap="round"/>
<path d="M321.71 161.128C319.45 160.845 323.585 158.663 323.982 158.526C327.063 157.459 329.86 155.723 332.862 154.436" stroke="#848484" stroke-width="2.0787" stroke-linecap="round"/>
<path d="M329.144 155.924C326.617 159.083 326.709 169.973 327.657 173.768" stroke="#848484" stroke-width="2.0787" stroke-linecap="round"/>
<path d="M336.579 155.924C336.579 152.596 336.323 162.587 335.835 165.878C335.229 169.968 334.678 171.944 337.653 167.076C342.987 158.346 340.468 175.826 344.757 171.537" stroke="#848484" stroke-width="2.0787" stroke-linecap="round"/>
<path d="M348.478 164.102C348.478 165.531 347.967 170.306 346.991 170.793" stroke="#848484" stroke-width="2.0787" stroke-linecap="round"/>
<path d="M346.991 158.897C348.234 159.053 348.791 161.395 349.263 159.269C349.721 157.209 349.79 155.414 347.735 158.154" stroke="#848484" stroke-width="2.0787" stroke-linecap="round"/>
<path d="M358.143 164.102C358.143 159.433 351.602 163.51 354.797 166.704C355.721 167.628 358.173 168.879 356.945 170.38C355.197 172.516 351.574 172.673 349.221 172.281" stroke="#848484" stroke-width="2.0787" stroke-linecap="round"/>
<path d="M300.894 198.303C299.472 197.058 300.894 206.009 300.894 207.225" stroke="#848484" stroke-width="2.0787" stroke-linecap="round"/>
<path d="M298.662 193.099C299.877 194.314 296.783 190.084 297.919 192.355" stroke="#848484" stroke-width="2.0787" stroke-linecap="round"/>
<path d="M307.582 194.585C304.817 194.585 302.503 197.483 304.938 199.79C308.102 202.788 311 203.507 304.608 203.507" stroke="#848484" stroke-width="2.0787" stroke-linecap="round"/>
<path d="M318.736 193.099C318.355 191.763 316.066 196.655 316.671 198.468C317.634 201.358 321.235 201.208 322.288 198.468C323.037 196.521 324.684 192.686 324.684 192.686C324.684 192.686 324.131 196.468 325.262 197.725C327.363 200.059 328.492 198.321 330.054 196.073C331.273 194.317 331.383 192.544 331.706 190.496C331.888 189.346 330.632 187.959 330.632 189.381C330.632 191.863 334.943 193.872 335.671 196.238C336.34 198.41 332.472 202.335 331.376 199.047" stroke="#848484" stroke-width="2.0787" stroke-linecap="round"/>
</g>
<defs>
<filter id="filter0_d_455_1940" x="319.056" y="207.162" width="189.971" height="184.33" filterUnits="userSpaceOnUse" color-interpolation-filters="sRGB">
<feFlood flood-opacity="0" result="BackgroundImageFix"/>
<feColorMatrix in="SourceAlpha" type="matrix" values="0 0 0 0 0 0 0 0 0 0 0 0 0 0 0 0 0 0 127 0" result="hardAlpha"/>
<feMorphology radius="10.2137" operator="dilate" in="SourceAlpha" result="effect1_dropShadow_455_1940"/>
<feOffset/>
<feGaussianBlur stdDeviation="24.2575"/>
<feComposite in2="hardAlpha" operator="out"/>
<feColorMatrix type="matrix" values="0 0 0 0 1 0 0 0 0 0.882353 0 0 0 0 0.411765 0 0 0 0.28 0"/>
<feBlend mode="normal" in2="BackgroundImageFix" result="effect1_dropShadow_455_1940"/>
<feBlend mode="normal" in="SourceGraphic" in2="effect1_dropShadow_455_1940" result="shape"/>
</filter>
</defs>
</svg>
