<svg width="139" height="140" viewBox="0 0 139 140" fill="none" xmlns="http://www.w3.org/2000/svg">
<path d="M138.426 70.0891L138.368 70.7345L138.193 71.3812L137.902 72.0306L137.495 72.684L136.974 73.3426L136.339 74.0077L135.593 74.6806L134.735 75.3624L133.769 76.0542L132.696 76.7571L131.519 77.4721L130.24 78.2L128.862 78.9417L127.388 79.6979L125.821 80.4693L124.164 81.2563L122.421 82.0596L120.595 82.8793L118.691 83.7156L116.711 84.5688L114.662 85.4387L112.546 86.3252L110.368 87.2281L108.133 88.1468L105.845 89.0809L103.509 90.0298L58.7806 108.101L56.4491 109.037L54.1632 109.95L51.9266 110.836L49.743 111.694L47.616 112.52L45.5487 113.311L43.5445 114.065L41.6061 114.779L39.7364 115.449L37.9381 116.073L36.2133 116.649L34.5644 117.173L32.9933 117.643L31.5018 118.055L30.0915 118.409L28.7636 118.701L27.5193 118.928L26.3597 119.089L25.2853 119.181L24.2966 119.203L23.3941 119.151L22.5778 119.025L21.8476 118.823L21.2031 118.544L20.644 118.185L20.1695 117.746L19.7787 117.226L19.4706 116.624L19.2439 115.94L19.0973 115.172L19.0292 114.32L19.038 113.385L19.1216 112.367L19.2783 111.265L19.5057 110.081L19.8018 108.815L20.1641 107.468L20.5901 106.041L21.0774 104.536L21.6233 102.954L22.2251 101.296L22.88 99.5654L23.5851 97.7636L24.3376 95.8931L25.1346 93.9564L25.9731 91.9563L26.8501 89.8956L27.7628 87.7776L28.7081 85.6055L29.6831 83.3827L30.6848 81.1129L31.7103 78.7997L50.2923 37.0623L51.3319 34.7333L52.3557 32.4489L53.3627 30.2139L54.3523 28.0328L55.3237 25.9102L56.2765 23.8506L57.2103 21.8582L58.1248 19.9373L59.0199 18.092L59.8955 16.3262L60.7519 14.6437L61.5893 13.0481L62.408 11.5429L63.2084 10.1314L63.9912 8.81655L64.7571 7.60133L65.5067 6.48841L66.2409 5.48025L66.9608 4.57909L67.6672 3.78696L68.3612 3.10565L69.0441 2.53671L69.7169 2.08146L70.3809 1.74099L71.0374 1.5161L71.6876 1.40738L72.333 1.41517L72.9748 1.53954L73.6143 1.78032L74.253 2.13708L74.8921 2.60915L75.5329 3.1956L76.1768 3.89528L76.825 4.70675L77.4786 5.62839L78.1389 6.65828L78.8069 7.79433L79.4838 9.03417L80.1703 10.3753L80.8676 11.8148L81.5762 13.3498L82.2971 14.9771L83.0307 16.6933L83.7776 18.4949L84.5383 20.3782L85.313 22.3392L86.1018 24.3739L86.905 26.4781L87.7225 28.6475L88.554 30.8776L89.3993 33.164L90.2579 35.5019L91.1293 37.8867L106.756 80.8203L107.623 83.2101L108.469 85.556L109.293 87.8541L110.091 90.1005L110.861 92.2915L111.601 94.4237L112.307 96.4937L112.976 98.4983L113.607 100.434L114.195 102.299L114.739 104.091L115.237 105.806L115.684 107.442L116.078 108.999L116.418 110.473L116.701 111.863L116.923 113.168L117.083 114.388L117.179 115.519L117.209 116.564L117.17 117.519L117.061 118.386L116.879 119.165L116.624 119.854L116.294 120.456L115.888 120.969L115.403 121.396L114.841 121.736L114.198 121.991L113.476 122.163L112.674 122.252L111.79 122.26L110.826 122.189L109.781 122.042L108.655 121.819L107.45 121.523L106.166 121.157L104.803 120.723L103.363 120.223L101.848 119.66L100.258 119.037L98.5954 118.357L96.8625 117.622L95.0611 116.836L93.1935 116.001L91.2624 115.12L89.2703 114.196L87.2202 113.234L85.1152 112.234L82.9585 111.202L80.7534 110.139L78.5036 109.049L76.2128 107.934L35.1488 87.9054L32.8735 86.7916L30.6439 85.6955L28.4647 84.6181L26.3406 83.5605L24.276 82.5233L22.2752 81.5071L20.3426 80.5125L18.4823 79.5397L16.6983 78.5891L14.9946 77.6606L13.3748 76.7543L11.8425 75.8699L10.4012 75.0073L9.05394 74.166L7.80389 73.3455L6.65382 72.5452L5.60638 71.7643L4.66397 71.0022L3.8288 70.2579L3.10283 69.5305L2.48779 68.8189L1.98521 68.1219L1.59635 67.4386L1.32223 66.7676L1.16364 66.1076L1.12109 65.4575L1.19489 64.8158L1.38505 64.1812L1.69136 63.5525L2.11334 62.9282L2.65028 62.3069L3.3012 61.6874L4.0649 61.0684L4.93992 60.4485L5.92454 59.8265L7.01685 59.2011L8.21467 58.5714L9.51562 57.936L10.9171 57.2941L12.4162 56.6446L14.0101 55.9867L15.6953 55.3195L17.4686 54.6425L19.3262 53.9549L21.2645 53.2562L23.2796 52.5461L25.3672 51.8243L27.5232 51.0906L29.7432 50.3449L32.0227 49.5873L34.3572 48.818L36.7419 48.0372L39.172 47.2455L82.6204 33.1293L85.0228 32.3533L87.3791 31.5968L89.6854 30.8623L91.9377 30.1524L94.1323 29.4695L96.2658 28.8164L98.3346 28.1956L100.336 27.6098L102.266 27.0616L104.122 26.5537L105.903 26.0887L107.604 25.6691L109.225 25.2976L110.763 24.9765L112.216 24.7085L113.583 24.4958L114.863 24.3408L116.053 24.2457L117.154 24.2127L118.165 24.2438L119.085 24.341L119.913 24.506L120.651 24.7405L121.297 25.0462L121.853 25.4244L122.318 25.8764L122.694 26.4033L122.982 27.0061L123.182 27.6856L123.296 28.4423L123.326 29.2767L123.272 30.1891L123.138 31.1794L122.925 32.2477L122.634 33.3936L122.269 34.6166L121.832 35.9159L121.324 37.2907L120.75 38.7398L120.111 40.2619L119.41 41.8556L118.65 43.519L117.835 45.2504L116.967 47.0476L116.049 48.9083L115.084 50.8301L114.076 52.8102L113.027 54.8458L111.942 56.9339L110.822 59.0714L109.672 61.2548L108.494 63.4806L85.8457 106.075L84.6602 108.294L83.4945 110.466L82.3497 112.586L81.2269 114.65L80.1268 116.655L79.0503 118.594L77.9979 120.464L76.97 122.262L75.967 123.982L74.989 125.622L74.0361 127.177L73.1081 128.644L72.2049 130.02L71.3262 131.302L70.4715 132.486L69.6402 133.569L68.8318 134.55L68.0454 135.426L67.2802 136.194L66.5353 136.853L65.8098 137.401L65.1024 137.837L64.4121 138.159L63.7378 138.367L63.078 138.459L62.4316 138.436L61.7972 138.296L61.1736 138.041L60.5592 137.67L59.9528 137.183L59.353 136.582L58.7584 135.868L58.1676 135.041L57.5794 134.104L56.9925 133.058L56.4055 131.904L55.8173 130.647L55.2267 129.286L54.6327 127.826L54.0341 126.27L53.4301 124.619L52.8197 122.878L52.2022 121.05L51.5768 119.139L50.943 117.148L50.3003 115.082L49.6483 112.944L48.9866 110.739L48.3152 108.472L47.6339 106.146L46.9429 103.767L46.2423 101.339L33.6488 57.4229L32.9471 54.9678L32.2619 52.5568L31.5953 50.194L30.95 47.8836L30.3281 45.6293L29.7323 43.435L29.1649 41.3042L28.6286 39.2404L28.1259 37.2467L27.6592 35.3263L27.2311 33.4818L26.8441 31.716L26.5008 30.0313L26.2035 28.4299L25.9547 26.9138L25.7568 25.4849L25.6121 24.1446L25.5229 22.8943L25.4912 21.7353L25.5191 20.6683L25.6087 19.6941L25.7619 18.8132L25.9803 18.0258L26.2656 17.332L26.6194 16.7316L27.043 16.2243L27.5377 15.8094L28.1045 15.4861L28.7443 15.2535L29.458 15.1104L30.2461 15.0555L31.1091 15.0872L32.0471 15.2038L33.0603 15.4034L34.1485 15.684L35.3114 16.0434L36.5485 16.4793L37.8591 16.9892L39.2424 17.5706L40.6971 18.2208L42.2221 18.9369L43.8158 19.7161L45.4766 20.5554L47.2026 21.4517L48.9918 22.402L50.8418 23.403L52.7502 24.4515L54.7145 25.5444L56.7318 26.6782L58.7991 27.8498L60.9132 29.0557L63.071 30.2928L65.269 31.5578L104.837 54.4019L107.039 55.6768L109.199 56.9312L111.31 58.1636L113.369 59.3729L115.372 60.5579L117.313 61.7177L119.188 62.8514L120.995 63.9584L122.727 65.0381L124.382 66.0902L125.956 67.1144L127.445 68.1106L128.845 69.0787L130.154 70.019L131.368 70.9316L132.485 71.817L133.501 72.6756L134.414 73.5081L135.222 74.3152L135.923 75.0976L136.515 75.8562L136.996 76.5921L137.365 77.3062L137.62 77.9998L137.761 78.6739L137.788 79.3298L137.698 79.9688L137.494 80.5923L137.173 81.2015L136.738 81.7979L136.188 82.3829L135.524 82.9578L134.747 83.524L133.859 84.083L132.861 84.6361L131.755 85.1846L130.542 85.7299L129.226 86.2733L127.808 86.8159L126.292 87.3589L124.68 87.9035L122.975 88.4507L121.181 89.0013L119.301 89.5564L117.339 90.1167L115.298 90.6829L113.184 91.2556L110.999 91.8354L108.748 92.4225L106.436 93.0172L104.067 93.6199L101.646 94.2304L99.178 94.8487L54.8463 105.902L52.3844 106.512L49.9687 107.106L47.6034 107.683L45.2927 108.24L43.0404 108.774L40.8503 109.283L38.726 109.765L36.671 110.218L34.6885 110.639L32.7814 111.025L30.9528 111.374L29.2051 111.684L27.5409 111.953L25.9624 112.177L24.4715 112.356L23.0702 112.485L21.7598 112.564L20.5419 112.589L19.4175 112.559L18.3875 112.473L17.4527 112.327L16.6134 112.12L15.87 111.851L15.2223 111.517L14.6704 111.118L14.2136 110.652L13.8515 110.117L13.5831 109.514L13.4076 108.84L13.3235 108.095L13.3296 107.279L13.4243 106.39L13.6058 105.43L13.8721 104.397L14.2211 103.293L14.6507 102.116L15.1584 100.869L15.7417 99.5503L16.398 98.1622L17.1244 96.7055L17.9181 95.1814L18.7761 93.5914L19.6954 91.9371L20.6728 90.2203L21.705 88.4431L22.7889 86.6077L23.9211 84.7164L25.0982 82.7719L26.3169 80.7769L27.5737 78.7343L28.8653 76.6472L30.1883 74.5189L31.5392 72.3527L55.7498 33.6093L57.0927 31.4679L58.4131 29.3707L59.7093 27.3223L60.98 25.327L62.2241 23.3893L63.4404 21.5134L64.6281 19.7035L65.7864 17.9638L66.9146 16.2982L68.0124 14.7104L69.0793 13.2043L70.1152 11.7833L71.12 10.4509L72.0938 9.21031L73.0368 8.0645L73.9493 7.01635L74.8317 6.06853L75.6846 5.22351L76.5086 4.48353L77.3046 3.85062L78.0734 3.32661L78.8159 2.91307L79.5332 2.61136L80.2263 2.4226L80.8965 2.34767L81.545 2.38719L82.1731 2.54156L82.782 2.81091L83.3732 3.19515L83.9481 3.69391L84.5081 4.30659L85.0546 5.03233L85.5891 5.87003L86.1129 6.81835L86.6275 7.8757L87.1344 9.04025L87.6348 10.31L88.1301 11.6825L88.6217 13.1554L89.1107 14.7259L89.5983 16.391L90.0856 18.1477L90.5738 19.9925L91.0637 21.9219L91.5563 23.9322L92.0523 26.0195L92.5525 28.1797L93.0574 30.4087L93.5676 32.7021L94.0835 35.0553L94.6054 37.4638L95.1333 39.9229L105.163 87.1097L105.682 89.5745L106.186 91.9909L106.674 94.3547L107.142 96.6618L107.589 98.9083L108.013 101.09L108.41 103.204L108.78 105.247L109.12 107.214L109.427 109.104L109.699 110.914L109.934 112.64L110.129 114.28L110.282 115.832L110.392 117.295L110.454 118.665L110.469 119.942L110.433 121.125L110.344 122.212L110.201 123.202L110.001 124.094L109.743 124.889L109.426 125.586L109.047 126.185L108.605 126.687L108.099 127.091L107.527 127.398L106.89 127.609L106.185 127.726L105.412 127.749L104.571 127.68L103.661 127.521L102.681 127.273L101.633 126.939L100.515 126.52L99.329 126.02L98.0743 125.439L96.752 124.782L95.3628 124.05L93.9079 123.247L92.3885 122.375L90.806 121.438L89.162 120.439L87.4583 119.381L85.6968 118.266L83.8799 117.1L82.0097 115.885L80.0888 114.624L78.1199 113.321L76.1059 111.98L74.0499 110.603L71.9548 109.196L34.0807 83.6503L31.9625 82.2192L29.885 80.8112L27.8525 79.4279L25.8695 78.071L23.9405 76.742L22.0696 75.4421L20.2611 74.1725L18.5191 72.9341L16.8477 71.7279L15.2507 70.5546L13.7319 69.4146L12.2949 68.3084L10.9433 67.2363L9.68025 66.1984L8.50902 65.1947L7.43256 64.225L6.45367 63.2891L5.57495 62.3865L4.7988 61.5169L4.12742 60.6794L3.5628 59.8735L3.10666 59.0983L2.76057 58.3528L2.52582 57.6361L2.40348 56.9469L2.39437 56.2843L2.49908 55.6469L2.71796 55.0334L3.05109 54.4425L3.49833 53.8728L4.05927 53.3229L4.73327 52.7913L5.51944 52.2766L6.41661 51.7773L7.42343 51.2919L8.53824 50.8189L9.7592 50.357L11.0842 49.9045L12.5109 49.4603L14.0368 49.0229L15.6591 48.5909L17.3748 48.1631L19.1807 47.7383L21.0734 47.3154L23.0495 46.8933L25.105 46.471L27.2361 46.0477L29.4387 45.6224L31.7086 45.1945L34.0413 44.7633L36.4324 44.3284L38.8771 43.8894L41.3709 43.4459L86.3646 35.5117L88.8744 35.0719L91.338 34.6439L93.7512 34.2298L96.1096 33.8315L98.4092 33.4509L100.646 33.0903L102.816 32.7515L104.916 32.4369L106.942 32.1486L108.891 31.8887L110.761 31.6596L112.547 31.4635L114.248 31.3025L115.861 31.1789L117.384 31.0948L118.814 31.0526L120.151 31.0542L121.392 31.1017L122.536 31.1973L123.582 31.3428L124.53 31.5401L125.378 31.791L126.126 32.0974L126.774 32.4606L127.322 32.8824L127.77 33.364L128.119 33.9068L128.37 34.5119L128.522 35.1802L128.579 35.9128L128.539 36.7102L128.406 37.573L128.181 38.5017L127.866 39.4965L127.463 40.5574L126.973 41.6843L126.401 42.8771L125.747 44.1351L125.015 45.4577L124.207 46.8442L123.327 48.2935L122.377 49.8045L121.361 51.3757L120.282 53.0055L119.143 54.6923L117.947 56.4341L116.698 58.2288L115.401 60.074L114.057 61.9674L112.67 63.9063L111.246 65.8879L109.786 67.9092L108.294 69.9671L81.4389 106.93L79.9437 108.983L78.4736 110.994L77.0305 112.959L75.6162 114.875L74.2321 116.735L72.8797 118.537L71.5602 120.276L70.2746 121.949L69.024 123.55L67.809 125.077L66.6304 126.525L65.4885 127.892L64.3838 129.173L63.3164 130.365L62.2863 131.466L61.2936 132.472L60.3379 133.381L59.4189 134.19L58.5362 134.897L57.6891 135.5L56.8769 135.996L56.0989 136.384L55.3541 136.663L54.6415 136.831L53.96 136.888L53.3085 136.831L52.6857 136.662L52.0903 136.38L51.521 135.984L50.9763 135.475L50.4548 134.853L49.955 134.119L49.4754 133.274L49.0145 132.319L48.5708 131.255L48.1427 130.085L47.7287 128.81L47.3274 127.432L46.9372 125.953L46.5567 124.377L46.1846 122.705L45.8194 120.941L45.4599 119.089L45.1048 117.151L44.753 115.131L44.4034 113.034L44.055 110.862L43.7068 108.62L43.3581 106.313L43.008 103.944L42.6561 101.518L42.3016 99.0409L41.9443 96.5161L35.5865 51.2734L35.2381 48.7667L34.9008 46.3081L34.5761 43.9021L34.266 41.5529L33.9723 39.2647L33.697 37.0415L33.442 34.887L33.2095 32.8048L33.0014 30.7985L32.82 28.8713L32.6672 27.0262L32.5453 25.2662L32.4563 23.5937L32.4024 22.0114L32.3858 20.5214L32.4084 19.1256L32.4723 17.826L32.5796 16.624L32.7321 15.5208L32.9319 14.5177L33.1807 13.6155L33.4803 12.8147L33.8323 12.1158L34.2383 11.519L34.6999 11.0241L35.2182 10.6308L35.7947 10.3388L36.4304 10.1471L37.1263 10.0549L37.8832 10.061L38.7019 10.1641L39.5829 10.3625L40.5267 10.6546L41.5334 11.0383L42.6031 11.5117L43.7358 12.0723L44.9312 12.7178L46.1888 13.4455L47.5081 14.2527L48.8882 15.1366L50.3281 16.094L51.8268 17.1218L53.3828 18.217L54.9947 19.376L56.6607 20.5955L58.379 21.872L60.1475 23.2019L61.964 24.5817L63.8261 26.0076L65.7312 27.476L67.6765 28.9832L69.6593 30.5254L71.6764 32.099L107.674 60.2248L109.658 61.7811L111.601 63.31L113.497 64.8096L115.342 66.2781L117.132 67.7138L118.863 69.1154L120.531 70.4814L122.132 71.8106L123.662 73.1022L125.117 74.3552L126.493 75.569L127.788 76.7429L128.998 77.8766L130.119 78.9698L131.149 80.0225L132.084 81.0346L132.923 82.0064L133.662 82.9381L134.299 83.8303L134.833 84.6834L135.26 85.4981L135.581 86.2753L135.793 87.0158L135.895 87.7206L135.886 88.3908L135.765 89.0277L135.532 89.6323L135.187 90.2061L134.73 90.7504L134.16 91.2667L133.479 91.7565L132.687 92.2212L131.784 92.6624L130.773 93.0816L129.655 93.4806L128.431 93.8607L127.104 94.2237L125.675 94.571L124.147 94.9043L122.522 95.225L120.804 95.5346L118.995 95.8346L117.099 96.1263L115.119 96.4111L113.059 96.6902L110.922 96.9649L108.713 97.2361L106.435 97.5051L104.094 97.7727L101.693 98.0397L99.2362 98.307L96.7296 98.5752L51.2984 103.351L48.7531 103.617L46.2533 103.875L43.8038 104.122L41.4088 104.358L39.0727 104.581L36.7997 104.789L34.5937 104.98L32.4585 105.152L30.3977 105.304L28.4149 105.433L26.5132 105.538L24.6957 105.616L22.9653 105.666L21.3246 105.684L19.7761 105.671L18.3219 105.622L16.964 105.537L15.7042 105.413L14.5441 105.248L13.4848 105.041L12.5275 104.79L11.6729 104.492L10.9218 104.147L10.2744 103.752L9.73091 103.306L9.29116 102.808L8.95486 102.256L8.72143 101.649L8.59012 100.986L8.55991 100.266L8.62961 99.4877L8.7978 98.6511L9.06287 97.7554L9.42301 96.8001L9.87621 95.7851L10.4203 94.7101L11.0529 93.5754L11.7716 92.381L12.5735 91.1275L13.456 89.8154L14.4161 88.4455L15.4506 87.0187L16.5564 85.5361L17.7302 83.999L18.9685 82.409L20.2677 80.7675L21.6245 79.0765L23.035 77.338L24.4956 75.554L26.0025 73.7271L27.552 71.8596L29.1401 69.9541L30.7632 68.0137L60.1296 33.0151L61.7711 31.0625L63.3852 29.1484L64.9696 27.277L66.5224 25.4527L68.0417 23.6795L69.5256 21.9616L70.9728 20.3032L72.3817 18.7081L73.7512 17.1802L75.0801 15.7234L76.3675 14.3413L77.6127 13.0375L78.815 11.8154L79.974 10.6782L81.0894 9.6291L82.161 8.67107L83.1888 7.80687L84.173 7.0391L85.1138 6.37019L86.0116 5.80236L86.867 5.33764L87.6807 4.97782L88.4534 4.72451L89.1859 4.57909L89.8794 4.54269L90.5348 4.61624L91.1534 4.80042L91.7364 5.09568L92.2852 5.50221L92.8011 6.02L93.2857 6.64876L93.7403 7.38795L94.1667 8.23683L94.5664 9.19437L94.9409 10.2593L95.292 11.4302L95.6212 12.7053L95.9303 14.0826L96.2208 15.5599L96.4944 17.1348L96.7527 18.8047L96.9972 20.5667L97.2295 22.4177L97.451 24.3545L97.6632 26.3736L97.8674 28.4713L98.065 30.6438L98.2571 32.8872L98.4449 35.1972L98.6295 37.5695L98.8119 39.9997L98.9929 42.4832L99.1732 45.0152L102.36 90.593L102.535 93.1295L102.702 95.6184L102.86 98.0551L103.009 100.435L103.145 102.754L103.269 105.008L103.377 107.194L103.468 109.306L103.54 111.342L103.593 113.297L103.622 115.17L103.628 116.957L103.607 118.654L103.557 120.26L103.478 121.772L103.367 123.187L103.221 124.504L103.04 125.721L102.82 126.837L102.561 127.85L102.261 128.759L101.917 129.563L101.529 130.263L101.094 130.856L100.612 131.345L100.08 131.727L99.4973 132.005L98.8631 132.178L98.176 132.248L97.435 132.214L96.6394 132.08L95.7885 131.845L94.8816 131.513L93.9184 131.084L92.8986 130.56L91.8221 129.945L90.689 129.24L89.4994 128.448L88.2537 127.571L86.9526 126.614L85.5966 125.577L84.1868 124.466L82.7241 123.283L81.2098 122.031L79.6453 120.714L78.0323 119.336L76.3724 117.9L74.6676 116.409L72.92 114.869L71.1318 113.283L69.3056 111.653L67.4438 109.986L65.5492 108.284L31.5965 77.7118L29.7159 76.0136L27.8744 74.345L26.0762 72.7084L24.3253 71.1059L22.626 69.5394L20.9822 68.0107L19.3979 66.5214L17.8771 65.0732L16.4236 63.6671L15.041 62.3045L13.7329 60.9864L12.5029 59.7135L11.3543 58.4865L10.2902 57.3059L9.3138 56.1721L8.42789 55.0853L7.63524 54.0455L6.93836 53.0526L6.33963 52.1065L5.84121 51.2066L5.44504 50.3525L5.15291 49.5436L4.96633 48.7791L4.88664 48.058L4.91492 47.3795L5.05206 46.7423L5.2987 46.1454L5.65521 45.5875L6.12178 45.0671L6.69833 44.5829L7.38453 44.1334L8.17983 43.717L9.08342 43.3321L10.0943 42.977L11.2111 42.6502L12.4323 42.3499L13.7562 42.0745L15.1808 41.8221L16.7039 41.5911L18.323 41.3798L20.0354 41.1865L21.8383 41.0095L23.7286 40.8473L25.703 40.6983L27.7579 40.5608L29.8898 40.4336L32.0948 40.3151L34.3688 40.204L36.7076 40.099L39.1071 39.999L41.5626 39.9029L44.0695 39.8097L46.6233 39.7185L92.2799 38.1251L94.8036 38.0413L97.2777 37.9636L99.6977 37.8931L102.059 37.8314L104.358 37.7798L106.589 37.7399L108.75 37.7132L110.835 37.7015L112.843 37.7064L114.768 37.7297L116.609 37.7732L118.361 37.8387L120.023 37.928L121.591 38.043L123.062 38.1856L124.436 38.3576L125.71 38.561L126.882 38.7974L127.95 39.0687L128.914 39.3768L129.773 39.7233L130.525 40.1099L131.17 40.5381L131.708 41.0096L132.139 41.5259L132.463 42.0881L132.681 42.6978L132.792 43.356L132.798 44.0637L132.701 44.822L132.5 45.6317L132.199 46.4935L131.798 47.408L131.299 48.3755L130.705 49.3963L130.018 50.4707L129.24 51.5985L128.374 52.7796L127.424 54.0137L126.391 55.3001L125.279 56.6383L124.091 58.0274L122.83 59.4665L121.501 60.9542L120.106 62.4893L118.65 64.0702L117.136 65.6952L115.567 67.3626L113.949 69.0702L112.284 70.8158L110.577 72.5971L108.831 74.4117L75.3199 109.113L73.5684 110.92L71.8489 112.687L70.1636 114.41L68.5148 116.086L66.9046 117.709L65.3347 119.278L63.8071 120.786L62.3231 122.231L60.8842 123.609L59.4916 124.917L58.1464 126.15L56.8495 127.305L55.6015 128.38L54.4031 129.37L53.2546 130.274L52.1563 131.087L51.1083 131.808L50.1104 132.434L49.1626 132.963L48.2644 133.392L47.4153 133.72L46.6147 133.945L45.8618 134.066L45.1559 134.081L44.4957 133.989L43.8804 133.789L43.3086 133.482L42.779 133.065L42.2904 132.54L41.8411 131.906L41.4298 131.165L41.0548 130.315L40.7144 129.359L40.407 128.297L40.1308 127.131L39.8841 125.861L39.6652 124.491L39.4722 123.022L39.3033 121.456L39.1567 119.795L39.0308 118.043L38.9237 116.202L38.8338 114.276L38.7593 112.267L38.6987 110.18L38.6503 108.017L38.6127 105.783L38.5843 103.482L38.5638 101.118L38.55 98.695L38.5415 96.2179L38.5373 93.6912L38.5364 48.0059L38.5386 45.452L38.5444 42.945L38.5549 40.4894L38.5713 38.09L38.5948 35.7509L38.6268 33.4767L38.6686 31.2713L38.7218 29.1388L38.7879 27.083L38.8685 25.1074L38.9652 23.2155L39.0797 21.4105L39.2138 19.6954L39.3693 18.0731L39.5478 16.5461L39.7511 15.1169L39.9812 13.7876L40.2397 12.5601L40.5283 11.436L40.849 10.417L41.2033 9.5041L41.5929 8.69837L42.0195 8.00054L42.4846 7.4111L42.9897 6.93032L43.5363 6.55821L44.1257 6.29454L44.7592 6.13888L45.4378 6.09053L46.1628 6.14858L46.935 6.31188L47.7553 6.57909L48.6243 6.94862L49.5427 7.4187L50.5109 7.98733L51.5291 8.65234L52.5976 9.41135L53.7164 10.2618L54.8852 11.201L56.1039 12.2261L57.3719 13.3339L58.6886 14.5214L60.0532 15.7852L61.4648 17.1218L62.9222 18.5276L64.4241 19.9991L65.9692 21.5325L67.5557 23.1238L69.1819 24.7692L70.8458 26.4647L72.5453 28.2062L74.2782 29.9897L76.042 31.8111L107.78 64.6765L109.546 66.5095L111.277 68.3108L112.967 70.0779L114.614 71.8084L116.212 73.4998L117.759 75.1501L119.25 76.7574L120.682 78.3199L122.051 79.8358L123.352 81.3039L124.583 82.7227L125.741 84.0912L126.821 85.4084L127.821 86.6736L128.738 87.8861L129.568 89.0455L130.309 90.1516L130.958 91.2042L131.514 92.2033L131.973 93.1491L132.334 94.042L132.594 94.8825L132.753 95.6712L132.808 96.4088L132.759 97.0963L132.605 97.7346L132.344 98.3247L131.977 98.8681L131.502 99.3659L130.92 99.8197L130.231 100.231L129.436 100.601L128.534 100.931L127.527 101.224L126.417 101.481L125.203 101.704L123.889 101.894L122.475 102.054L120.963 102.185L119.357 102.29L117.658 102.369L115.87 102.425L113.994 102.46L112.035 102.476L109.995 102.474L107.878 102.456L105.688 102.424L103.429 102.379L101.104 102.323L98.7187 102.257L96.2761 102.184L93.7813 102.103L91.2387 102.018L45.5777 100.423L43.0424 100.331L40.5558 100.237L38.1226 100.139L35.7473 100.037L33.4344 99.9298L31.188 99.8158L29.0123 99.6939L26.9113 99.5627L24.8888 99.4207L22.9483 99.2665L21.0932 99.0985L19.3268 98.9151L17.6521 98.7146L16.0718 98.4955L14.5885 98.256L13.2047 97.9944L11.9223 97.709L10.7434 97.3981L9.66963 97.0601L8.70234 96.6931L7.84274 96.2955L7.0918 95.8658L6.45021 95.4023L5.91844 94.9036L5.4967 94.3681L5.18498 93.7944L4.98302 93.1813L4.89031 92.5274L4.90613 91.8317L5.0295 91.093L5.25925 90.3105L5.59396 89.4833L6.032 88.6106L6.57153 87.6919L7.21052 86.7268L7.9467 85.7148L8.77766 84.6559L9.70077 83.5499L10.7133 82.3971L11.8121 81.1975L12.9943 79.9517L14.2565 78.6603L15.5954 77.3239L17.0073 75.9435L18.4887 74.5201L20.0358 73.055L21.6448 71.5495L23.3117 70.0052L25.0325 68.4238L26.8032 66.8071L28.6196 65.1572L30.4775 63.4763L32.3728 61.7667L66.3247 31.1973L68.2063 29.5087L70.0539 27.8562L71.865 26.244L73.6369 24.6758L75.3673 23.1555L77.0541 21.687L78.6951 20.274L80.2886 18.9202L81.8328 17.6294L83.3262 16.405L84.7675 15.2506L86.1555 14.1694L87.4893 13.1647L88.7679 12.2397L89.9908 11.3973L91.1574 10.6403L92.2675 9.97151L93.3209 9.39333L94.3176 8.90815L95.2578 8.51814L96.1418 8.22527L96.9702 8.03135L97.7434 7.93795L98.4623 7.94645L99.1278 8.05804L99.7408 8.27366L100.302 8.59403L100.814 9.01968L101.277 9.55086L101.693 10.1876L102.063 10.9298L102.388 11.7769L102.672 12.7284L102.914 13.7833L103.118 14.9404L103.285 16.1985L103.416 17.5559L103.514 19.0107L103.581 20.5611L103.618 22.2045L103.628 23.9386L103.613 25.7606L103.574 27.6676L103.513 29.6564L103.433 31.7238L103.335 33.8662L103.22 36.0799L103.091 38.361L102.95 40.7055L102.797 43.1091L102.635 45.5676L102.465 48.0765L99.0998 96.2L98.9193 98.7128L98.7378 101.175L98.5547 103.582L98.3689 105.93L98.1794 108.213L97.9852 110.428L97.7851 112.571L97.5778 114.637L97.362 116.623L97.1362 118.525L96.8992 120.34L96.6492 122.065L96.3849 123.697L96.1046 125.232L95.8067 126.669L95.4897 128.005L95.1517 129.238L94.7913 130.366L94.4067 131.387L93.9964 132.3L93.5586 133.105L93.092 133.799L92.5948 134.383L92.0657 134.855L91.5031 135.216L90.9058 135.466L90.2723 135.605L89.6016 135.634L88.8923 135.553L88.1435 135.363L87.3542 135.067L86.5237 134.664L85.651 134.157L84.7358 133.548L83.7773 132.838L82.7754 132.031L81.7298 131.128L80.6403 130.133L79.5072 129.047L78.3305 127.875L77.1106 126.619L75.8482 125.283L74.5437 123.87L73.1982 122.384L71.8125 120.828L70.3878 119.207L68.9255 117.524L67.427 115.783L65.8938 113.988L64.3279 112.144L62.7312 110.255L61.1056 108.325L31.74 73.3299L30.0981 71.37L28.4888 69.4435L26.9159 67.5532L25.3833 65.7019L23.8948 63.8922L22.4542 62.1264L21.0651 60.407L19.7313 58.736L18.4565 57.1152L17.2441 55.5466L16.0976 54.0315L15.0204 52.5715L14.0159 51.1678L13.087 49.8213L12.237 48.533L11.4686 47.3035L10.7847 46.1334L10.1878 45.023L9.6805 43.9724L9.26495 42.9817L8.94331 42.0508L8.7175 41.1792L8.58925 40.3666L8.56009 39.6123L8.63134 38.9155L8.80415 38.2754L9.0794 37.691L9.45778 37.161L9.93977 36.6842L10.5256 36.2593L11.2153 35.8848L12.0086 35.5591L12.9051 35.2805L13.904 35.0474L15.0045 34.8578L16.2055 34.7101L17.5054 34.6021L18.9027 34.5321L20.3956 34.4979L21.982 34.4976L23.6595 34.5292L25.4257 34.5906L27.2779 34.6798L29.213 34.7947L31.228 34.9334L33.3195 35.0938L35.484 35.2741L37.7177 35.4722L40.0169 35.6863L42.3775 35.9148L44.7952 36.1556L47.2658 36.4074L49.7847 36.6683L95.2222 41.4435L97.7565 41.7124L100.243 41.9801L102.678 42.2472L105.055 42.5144L107.371 42.7824L109.621 43.0522L111.802 43.3248L113.908 43.6011L115.936 43.8824L117.882 44.1698L119.743 44.4647L121.515 44.7685L123.196 45.0824L124.781 45.4081L126.269 45.7469L127.657 46.1004L128.942 46.4702L130.124 46.8578L131.198 47.2648L132.165 47.6928L133.023 48.1434L133.77 48.6181L134.406 49.1185L134.93 49.646L135.342 50.2022L135.641 50.7884L135.828 51.406L135.903 52.0563L135.867 52.7405L135.72 53.4597L135.464 54.215L135.099 55.0074L134.628 55.8376L134.052 56.7066L133.373 57.6148L132.593 58.5628L131.715 59.551L130.74 60.5796L129.673 61.6488L128.515 62.7585L127.271 63.9087L125.942 65.0989L124.533 66.3287L123.047 67.5975L121.488 68.9045L119.859 70.2489L118.165 71.6295L116.41 73.0452L114.596 74.4945L112.73 75.9758L110.815 77.4876L108.855 79.0279L106.854 80.5947L70.8508 108.724L68.8473 110.285L66.8794 111.813L64.9501 113.305L63.0623 114.757L61.2185 116.164L59.4212 117.524L57.6729 118.833L55.9757 120.087L54.3315 121.282L52.7421 122.415L51.2093 123.483L49.7344 124.483L48.3187 125.411L46.9633 126.264L45.6691 127.039L44.4367 127.733L43.2668 128.345L42.1598 128.87L41.1157 129.307L40.1347 129.654L39.2165 129.908L38.3609 130.068L37.5675 130.131L36.8355 130.098L36.1642 129.965L35.5528 129.733L35.0001 129.399L34.5051 128.965L34.0663 128.428L33.6825 127.79L33.352 127.05L33.0733 126.207L32.8447 125.264L32.6644 124.22L32.5305 123.076L32.4411 121.835L32.3943 120.496L32.3879 119.061L32.42 117.533L32.4884 115.914L32.5911 114.206L32.7258 112.41L32.8906 110.532L33.0831 108.572L33.3014 106.534L33.5433 104.422L33.8068 102.239L34.0898 99.989L34.3904 97.6755L34.7067 95.3026L35.0368 92.8747L35.3788 90.396L35.7312 87.8709L42.0902 42.6282L42.4463 40.1221L42.7997 37.6652L43.1508 35.2623L43.5003 32.918L43.8487 30.6368L44.1968 28.423L44.5456 26.2809L44.896 24.2145L45.249 22.2277L45.6057 20.3242L45.9674 18.5075L46.3352 16.7811L46.7106 15.1479L47.0949 13.6109L47.4894 12.173L47.8957 10.8364L48.3153 9.60363L48.7495 8.47658L49.2001 7.45709L49.6684 6.54673L50.156 5.74683L50.6645 5.05846L51.1953 4.48246L51.7498 4.01942L52.3296 3.66969L52.936 3.43336L53.5703 3.31027L54.2339 3.30004L54.9279 3.40203L55.6535 3.61535L56.4118 3.93891L57.2036 4.37135L58.0299 4.9111L58.8914 5.55637L59.7889 6.30514L60.7227 7.15521L61.6935 8.10412L62.7014 9.14928L63.7467 10.2879L64.8293 11.5169L65.9492 12.8332L67.1061 14.2335L68.2996 15.7142L69.5292 17.2718L70.7941 18.9026L72.0937 20.6025L73.4267 22.3677L74.7922 24.1941L76.1888 26.0775L77.615 28.0136L79.0693 29.9981L80.5498 32.0266L82.0548 34.0948L108.905 71.0536L110.384 73.097L111.831 75.1025L113.24 77.067L114.609 78.9877L115.935 80.8618L117.213 82.6867L118.441 84.4601L119.614 86.1797L120.729 87.8435L121.783 89.4497L122.772 90.9965L123.694 92.4825L124.545 93.9064L125.322 95.267L126.023 96.5634L126.644 97.7949L127.183 98.9609L127.638 100.061L128.005 101.095L128.284 102.063L128.472 102.965L128.567 103.801L128.567 104.572L128.472 105.278L128.28 105.92L127.989 106.5L127.6 107.018L127.111 107.475L126.522 107.873L125.833 108.212L125.045 108.496L124.156 108.725L123.168 108.901L122.082 109.026L120.898 109.102L119.618 109.13L118.243 109.114L116.774 109.054L115.215 108.954L113.566 108.815L111.83 108.639L110.009 108.429L108.107 108.187L106.126 107.915L104.069 107.616L101.94 107.291L99.7426 106.944L97.4798 106.575L95.1558 106.186L92.7745 105.782L90.3403 105.362L87.8573 104.928L40.3495 96.5511L37.8751 96.1095L35.4516 95.6722L33.0838 95.2388L30.7761 94.8091L28.5331 94.3823L26.3591 93.9579L24.2583 93.535L22.2347 93.113L20.2922 92.6907L18.4344 92.2671L16.6648 91.8413L14.9868 91.4119L13.4034 90.9779L11.9176 90.5378L10.5321 90.0904L9.24917 89.6343L8.0712 89.168L7.00017 88.6902L6.03783 88.1993L5.18572 87.6939L4.44513 87.1725L3.81709 86.6336L3.3024 86.0758L2.9016 85.4977L2.61501 84.8977L2.44266 84.2747L2.38437 83.6271L2.43969 82.9538L2.60794 82.2536L2.88818 81.5253L3.27927 80.7678L3.7798 79.9802L4.38813 79.1615L5.10244 78.311L5.92065 77.428L6.84047 76.512L7.85943 75.5623L8.97484 74.5788L10.1838 73.5611L11.4834 72.5093L12.8702 71.4233L14.3409 70.3033L15.892 69.1497L17.5198 67.9629L19.2204 66.7435L20.99 65.4923L22.8244 64.2102L24.7195 62.8983L26.671 61.5577L28.6747 60.1899L30.7261 58.7964L32.8207 57.3787L70.6962 31.8305L72.8127 30.4057L74.8923 29.0103L76.9316 27.6478L78.9276 26.3217L80.8772 25.0355L82.7778 23.7928L84.6266 22.5969L86.4212 21.4514L88.1594 20.3596L89.839 19.3249L91.4581 18.3506L93.0151 17.4398L94.5084 16.5957L95.9367 15.8212L97.2987 15.1194L98.5936 14.4931L99.8205 13.9448L100.979 13.4772L102.068 13.0926L103.089 12.7933L104.04 12.5814L104.922 12.4589L105.735 12.4274L106.48 12.4885L107.158 12.6436L107.768 12.894L108.313 13.2405L108.792 13.684L109.208 14.225L109.562 14.8638L109.855 15.6007L110.089 16.4356L110.266 17.3681L110.387 18.3976L110.454 19.5235L110.469 20.7448L110.435 22.0602L110.353 23.4684L110.225 24.9676L110.054 26.556L109.843 28.2314L109.593 29.9916L109.306 31.8341L108.985 33.7561L108.633 35.7546L108.252 37.8266L107.843 39.9687L107.41 42.1774L106.954 44.4491L106.477 46.7798L105.983 49.1655L105.473 51.6022L104.948 54.0854L95.4491 98.776L94.9175 101.263L94.3921 103.702L93.8727 106.088L93.3591 108.418L92.8511 110.685L92.3482 112.887L91.8498 115.018L91.3552 117.074L90.8639 119.052L90.3748 120.948L89.8871 122.757L89.3997 124.477L88.9117 126.104L88.4218 127.635L87.9289 129.067L87.4317 130.398L86.9288 131.625L86.4189 132.746L85.9007 133.759L85.3727 134.663L84.8335 135.455L84.2817 136.135L83.7158 136.701L83.1344 137.153L82.5362 137.491L81.9196 137.713L81.2834 137.821L80.6262 137.814L79.9468 137.692L79.244 137.458L78.5166 137.11L77.7635 136.651L76.9837 136.083L76.1764 135.406L75.3407 134.623L74.4758 133.736L73.5812 132.747L72.6564 131.659L71.7009 130.474L70.7145 129.195L69.697 127.827L68.6484 126.37L67.5689 124.831L66.4587 123.211L65.3181 121.514L64.1478 119.746L62.9483 117.908L61.7206 116.007L60.4655 114.045L59.1843 112.028L57.8781 109.959L56.5483 107.843L55.1966 105.685L30.9858 66.9388L29.6458 64.7876L28.3352 62.6757L27.0574 60.6063L25.8156 58.5827L24.6135 56.608L23.4543 54.6848L22.3414 52.816L21.2781 51.004L20.2678 49.2512L19.3137 47.5596L18.4191 45.9312L17.5869 44.3679L16.8202 42.8711L16.122 41.4422L15.4952 40.0825L14.9424 38.7928L14.4662 37.574L14.0691 36.4268L13.7535 35.3515L13.5215 34.3483L13.3752 33.4174L13.3164 32.5585L13.3468 31.7713L13.4679 31.0555L13.6812 30.4103L13.9876 29.8349L14.3882 29.3284L14.8837 28.8896L15.4746 28.5173L16.1612 28.2101L16.9437 27.9664L17.822 27.7847L18.7956 27.6631L19.8642 27.5999L21.0268 27.593L22.2825 27.6403L23.6301 27.7399L25.0681 27.8895L26.5949 28.0867L28.2086 28.3294L29.9071 28.6152L31.688 28.9416L33.549 29.3063L35.4871 29.7069L37.4996 30.1408L39.5832 30.6058L41.7347 31.0994L43.9505 31.6191L46.2271 32.1626L48.5606 32.7277L50.9469 33.3119L53.3819 33.9132L55.8614 34.5292L100.189 45.5823L102.638 46.1975L105.039 46.8048L107.385 47.4042L109.673 47.9958L111.897 48.5799L114.054 49.1567L116.139 49.7267L118.148 50.2904L120.077 50.8485L121.922 51.4017L123.681 51.9508L125.348 52.4968L126.921 53.0406L128.398 53.5833L129.775 54.1261L131.049 54.6701L132.218 55.2166L133.281 55.7668L134.234 56.3221L135.077 56.8839L135.808 57.4535L136.426 58.0323L136.929 58.6218L137.318 59.2232L137.591 59.8381L137.749 60.4677L137.791 61.1135L137.718 61.7766L137.53 62.4585L137.228 63.1603L136.814 63.8832L136.287 64.6282L135.651 65.3964L134.906 66.1887L134.055 67.0061L133.099 67.8491L132.042 68.7186L130.885 69.615L129.632 70.5389L128.286 71.4905L126.849 72.47L125.325 73.4776L123.718 74.5132L122.03 75.5766L120.267 76.6675L118.433 77.7854L116.53 78.9298L114.563 80.1L112.537 81.295L110.456 82.5139L108.325 83.7554L106.147 85.0183L64.369 109.139L62.187 110.393L60.0466 111.618L57.9511 112.81L55.9038 113.967L53.9078 115.084L51.9659 116.159L50.081 117.189L48.2555 118.17L46.4918 119.098L44.7921 119.972L43.1584 120.787L41.5925 121.541L40.096 122.23L38.6702 122.853L37.3164 123.405L36.0356 123.886L34.8287 124.291L33.6962 124.618L32.6385 124.866L31.6559 125.032L30.7485 125.114L29.9161 125.111L29.1583 125.02L28.4748 124.841L27.8648 124.571L27.3275 124.211L26.862 123.758L26.467 123.213L26.1412 122.575L25.8833 121.843L25.6917 121.017L25.5647 120.098L25.5004 119.086L25.497 117.982L25.5524 116.786L25.6645 115.498L25.8312 114.122L26.0501 112.657L26.3189 111.106L26.6352 109.471L26.9966 107.753L27.4006 105.954L27.8448 104.079L28.3264 102.128L28.8432 100.105L29.3925 98.0139L29.9717 95.8568L30.5784 93.6377L31.2102 91.3601L31.8644 89.0278L32.5389 86.6449L33.2311 84.2154L45.8227 40.2998L46.5288 37.845L47.2255 35.4362L47.9126 33.0781L48.5899 30.7754L49.2573 28.5328L49.915 26.3548L50.5632 24.2456L51.2022 22.2096L51.8325 20.2507L52.4546 18.373L53.0691 16.5801L53.6768 14.8756L54.2785 13.263L54.8752 11.7453L55.4677 10.3256L56.0571 9.00676L56.6447 7.79121L57.2315 6.68134L57.8188 5.67927L58.4079 4.78687L59 4.00581L59.5966 3.33748L60.1989 2.78304L60.8084 2.3434L61.4264 2.01923L62.0543 1.81095L62.6934 1.71872L63.3451 1.74245L64.0106 1.8818L64.6913 2.1362L65.3884 2.50481L66.1031 2.98655L66.8364 3.58012L67.5894 4.28395L68.3631 5.09626L69.1584 6.01505L69.976 7.03808L70.8168 8.1629L71.6812 9.38685L72.5699 10.7071L73.4831 12.1205L74.4212 13.624L75.3844 15.214L76.3726 16.8871L77.3858 18.6394L78.4237 20.4671L79.486 22.3661L80.5721 24.3324L81.6815 26.3617L82.8134 28.4495L83.9668 30.5915L85.1408 32.783L86.334 35.0196L107.784 75.36L108.977 77.6092L110.144 79.8182L111.282 81.9832L112.388 84.101L113.459 86.1681L114.491 88.1815L115.482 90.1381L116.428 92.0353L117.326 93.8705L118.174 95.6411L118.967 97.3451L119.703 98.9804L120.379 100.545L120.992 102.038L121.539 103.457L122.018 104.801L122.427 106.069L122.762 107.261L123.021 108.375L123.203 109.412L123.304 110.37L123.324 111.251L123.26 112.054L123.111 112.779L122.875 113.427L122.552 113.999L122.139 114.495L121.637 114.917L121.045 115.265L120.361 115.542L119.587 115.748L118.721 115.885L117.764 115.955L116.717 115.96L115.579 115.901L114.352 115.781L113.037 115.603L111.635 115.367L110.147 115.077L108.575 114.735L106.921 114.344L105.187 113.905L103.375 113.423L101.488 112.898L99.5289 112.334L97.4998 111.734L95.4043 111.1L93.2455 110.434L91.027 109.74L88.7522 109.019L86.4251 108.276L84.0495 107.511L81.6296 106.728L38.1769 92.6089L35.7647 91.8216L33.3999 91.0455L31.0873 90.2809L28.8314 89.5281L26.637 88.7873L24.5083 88.0584L22.4498 87.3414L20.4655 86.636L18.5596 85.9419L16.7358 85.2587L14.998 84.5858L13.3496 83.9225L11.794 83.2681L10.3342 82.6218L8.9734 81.9827L7.71416 81.3497L6.55904 80.7219L5.51034 80.098L4.57015 79.477L3.74029 78.8576L3.02237 78.2385L2.41774 77.6185L1.92752 76.9962L1.55259 76.3702L1.29355 75.7393L1.15078 75.102L1.12439 74.457L1.21426 73.803L1.41999 73.1387L1.74096 72.4628L2.17628 71.7741L2.72483 71.0713L3.38525 70.3534L4.15593 69.6192L5.03504 68.8677L6.02051 68.0981L7.11005 67.3094L8.30118 66.501L9.59116 65.6721L10.9771 64.8221L12.4559 63.9507L14.0242 63.0574L15.6787 62.1421L17.4155 61.2046L19.2311 60.2449L21.1213 59.2632L23.0822 58.2597L25.1095 57.2349L27.1989 56.1893L29.346 55.1236L31.5463 54.0385L33.7951 52.935L36.0877 51.8142L77.1507 31.7873L79.4252 30.6824L81.6572 29.603L83.843 28.5521L85.9791 27.5327L88.0621 26.5479L90.0889 25.6007L92.0565 24.6944L93.9621 23.8318L95.803 23.0161L97.5768 22.2503L99.2812 21.5372L100.914 20.8799L102.474 20.2811L103.959 19.7437L105.367 19.2703L106.698 18.8635L107.951 18.5258L109.123 18.2596L110.216 18.0671L111.228 17.9506L112.16 17.9119L113.01 17.9529L113.78 18.0754L114.47 18.2808L115.079 18.5706L115.61 18.9459L116.063 19.4078L116.438 19.957L116.737 20.5943L116.962 21.32L117.114 22.1344L117.194 23.0376L117.205 24.0293L117.148 25.1092L117.026 26.2768L116.84 27.5311L116.593 28.8712L116.287 30.2959L115.924 31.8037L115.508 33.3929L115.04 35.0618L114.523 36.8081L113.961 38.6297L113.355 40.524L112.708 42.4884L112.023 44.52L111.303 46.6157L110.551 48.7723L109.769 50.9863L108.96 53.2542L108.127 55.5723L107.272 57.9365L90.7729 103.268L89.9066 105.635L89.0533 107.952L88.2136 110.216L87.3878 112.422L86.5761 114.565L85.7788 116.642L84.9957 118.647L84.2267 120.577L83.4717 122.427L82.7303 124.194L82.0019 125.875L81.2861 127.465L80.5822 128.961L79.8894 130.361L79.2069 131.661L78.5338 132.859L77.8691 133.952L77.2116 134.938L76.5603 135.815L75.9141 136.582L75.2716 137.235L74.6316 137.775L73.9929 138.2L73.354 138.51L72.7137 138.703L72.0706 138.78L71.4234 138.741L70.7708 138.585L70.1114 138.312L69.444 137.925L68.7672 137.423L68.0799 136.809L67.381 136.082L66.6692 135.245L65.9436 134.3L65.2032 133.249L64.4471 132.094L63.6744 130.838L62.8845 129.483L62.0767 128.033L61.2505 126.491L60.4054 124.859L59.5412 123.143L58.6576 121.344L57.7546 119.467L56.8323 117.517L55.8907 115.496L54.9303 113.411L53.9514 111.264L52.9546 109.06L51.9406 106.804L50.9103 104.501L32.3282 62.7682L31.2899 60.4312L30.2737 58.1353L29.2825 55.8842L28.3193 53.6816L27.3869 51.5311L26.4884 49.4361L25.6267 47.3997L24.8047 45.4251L24.0255 43.5151L23.292 41.6722L22.607 39.8991L21.9734 38.198L21.3941 36.5709L20.8717 35.0197L20.409 33.5462L20.0086 32.1517L19.673 30.8375L19.4046 29.6047L19.2058 28.4542L19.0786 27.3864L19.0252 26.402L19.0476 25.501L19.1475 24.6836L19.3265 23.9496L19.5862 23.2986L19.9278 22.73L20.3526 22.2432L20.8615 21.8372L21.4553 21.511L22.1347 21.2632L22.8999 21.0924L23.7514 20.9972L24.689 20.9757L25.7126 21.0262L26.8218 21.1466L28.016 21.3349L29.2945 21.5887L30.6561 21.9059L32.0997 22.2839L33.6238 22.7203L35.2268 23.2125L36.9069 23.7578L38.6619 24.3535L40.4896 24.9969L42.3875 25.6851L44.3531 26.4154L46.3834 27.1848L48.4754 27.9906L50.6259 28.8299L52.8315 29.6998L55.0886 30.5975L57.3936 31.5202L59.7425 32.4651L102.104 49.5795L104.466 50.5367L106.783 51.4796L109.05 52.4075L111.262 53.3199L113.416 54.2161L115.505 55.0959L117.526 55.9589L119.476 56.8053L121.348 57.6348L123.141 58.4478L124.849 59.2444L126.47 60.025L128 60.7902L129.435 61.5404L130.773 62.2763L132.011 62.9989L133.146 63.7088L134.176 64.407L135.098 65.0947L135.91 65.7727L136.612 66.4423L137.2 67.1046L137.675 67.7609L138.034 68.4125L138.278 69.0607L138.405 69.7067L138.416 70.3519L138.31 70.9977L138.088 71.6453L137.75 72.2962L137.297 72.9515L136.729 73.6127L136.049 74.2808L135.256 74.9572L134.355 75.643L133.345 76.3392L132.229 77.0469L131.01 77.767L129.691 78.5004L128.273 79.2479L126.761 80.0102L125.156 80.788L123.464 81.5816L121.687 82.3915L119.828 83.2179L117.893 84.0612L115.885 84.9212L113.808 85.7978L111.666 86.691L109.464 87.6004L107.207 88.5255L104.899 89.4657L102.545 90.4203L60.1823 107.536L57.8257 108.485L55.5122 109.412L53.246 110.314L51.0305 111.189L48.8696 112.035L46.7665 112.847L44.7245 113.623L42.7468 114.361L40.8361 115.057L38.9951 115.709L37.2265 116.314L35.5324 116.869L33.915 117.371L32.3761 117.818L30.9174 118.207L29.5405 118.535L28.2466 118.801L27.0367 119.002L25.9117 119.135L24.8722 119.199L23.9186 119.191L23.0512 119.109L22.27 118.952L21.5747 118.719L20.9651 118.407L20.4405 118.016L20.0002 117.545L19.6433 116.991L19.3685 116.355L19.1746 115.637L19.0602 114.835L19.0236 113.949L19.0631 112.98L19.1767 111.928L19.3625 110.793L19.6182 109.575L19.9415 108.276L20.3301 106.896L20.7814 105.437L21.2929 103.901L21.8619 102.287L22.4856 100.6L23.1613 98.8399L23.8861 97.0098L24.657 95.112L25.4713 93.1491L26.3258 91.124L27.2178 89.0396L28.1441 86.8992L29.1018 84.706L30.088 82.4636L31.0998 80.1756L32.1343 77.846L50.7176 36.1085L51.7509 33.7971L52.768 31.5323L53.768 29.3187L54.7502 27.1609L55.7142 25.0634L56.6592 23.0306L57.5852 21.0669L58.4917 19.1763L59.3789 17.3629L60.2467 15.6306L61.0953 13.9831L61.925 12.4239L62.7362 10.9565L63.5294 9.58394L64.3052 8.30935L65.0643 7.1355L65.8076 6.06496L66.5359 5.10013L67.2501 4.24315L67.9513 3.49596L68.6407 2.86025L69.3193 2.33748L69.9884 1.92886L70.6492 1.63538L71.3029 1.45777L71.951 1.39648L72.5948 1.45177L73.2355 1.62359L73.8745 1.91168L74.5132 2.3155L75.1528 2.83429L75.7948 3.46702L76.4402 4.21242L77.0905 5.06899L77.7467 6.03496L78.41 7.10837L79.0815 8.28699L79.7622 9.56839L80.453 10.9499L81.1548 12.4287L81.8684 14.0017L82.5943 15.6657L83.3333 17.4171L84.0858 19.2524L84.8521 21.1678L85.6326 23.1593L86.4273 25.2228L87.2363 27.3541L88.0595 29.5488L88.8967 31.8025L89.7475 34.1104L90.6114 36.468L91.4878 38.8704L107.111 81.7988L107.97 84.1712L108.807 86.4981L109.621 88.7756L110.408 90.9999L111.166 93.1674L111.892 95.2746L112.584 97.3183L113.238 99.2954L113.852 101.203L114.422 103.038L114.948 104.799L115.425 106.482L115.851 108.086L116.224 109.609L116.54 111.049L116.799 112.405L116.996 113.676L117.13 114.859L117.2 115.955L117.202 116.964L117.134 117.883L116.996 118.714L116.785 119.456L116.499 120.11L116.138 120.675L115.7 121.153L115.184 121.545L114.589 121.85L113.914 122.071L113.159 122.209L112.323 122.265L111.407 122.241L110.41 122.138L109.332 121.96L108.174 121.707L106.936 121.383L105.62 120.988L104.226 120.527L102.755 120.001L101.209 119.414L99.5893 118.767L97.8979 118.064L96.1368 117.308L94.3082 116.501L92.4144 115.647L90.4581 114.749L88.4421 113.809L86.3692 112.831L84.2427 111.818L82.0659 110.772L79.8422 109.698L77.5752 108.597L34.2167 87.4496L31.9595 86.3429L29.7499 85.2543L27.5926 84.1849L25.4922 83.1355L23.453 82.1068L21.4795 81.0993L19.5758 80.1136L17.7462 79.1498L15.9944 78.2082L14.3244 77.2887L12.7399 76.3914L11.2442 75.5159L9.84084 74.662L8.53285 73.8293L7.32319 73.0171L6.21462 72.2248L5.20969 71.4517L4.31071 70.697L3.51979 69.9596L2.83882 69.2388L2.26942 68.5333L1.81302 67.842L1.47079 67.1638L1.24365 66.4975L1.13227 65.8417L1.1371 65.1951L1.25831 64.5565L1.49582 63.9245L1.84932 63.2977L2.31823 62.6748L2.90173 62.0544L3.59876 61.4353L4.40799 60.816L5.32787 60.1954L6.35661 59.5722L7.49217 58.9452L8.7323 58.3133L10.0745 57.6754L11.5161 57.0305L13.0542 56.3777L14.6857 55.7161L16.4072 55.045L18.2153 54.3637L20.1063 53.6716L22.0763 52.9684L24.1214 52.2535L26.2374 51.5269L28.42 50.7883L30.6648 50.0377L32.9673 49.2753L35.3228 48.5013L37.7265 47.716L81.1766 33.5974L83.6043 32.811L85.9884 32.0427L88.3248 31.2948L90.6096 30.57L92.8388 29.8708L95.009 29.1997L97.1165 28.5595L99.158 27.9526L101.131 27.3818L103.031 26.8497L104.857 26.359L106.605 25.9121L108.274 25.5118L109.862 25.1605L111.365 24.8608L112.784 24.615L114.115 24.4256L115.359 24.2947L116.513 24.2247L117.577 24.2175L118.551 24.2753L119.433 24.3999L120.225 24.593L120.925 24.8564L121.534 25.1914L122.053 25.5996L122.482 26.082L122.822 26.6397L123.074 27.2736L123.239 27.9844L123.318 28.7728L123.314 29.6389L123.227 30.5831L123.061 31.6052L122.816 32.7052L122.494 33.8825L122.1 35.1367L121.633 36.4668L121.098 37.872L120.497 39.3511L119.833 40.9025L119.107 42.5248L118.325 44.2162L117.487 45.9747L116.598 47.798L115.661 49.6839L114.678 51.6298L113.653 53.6329L112.589 55.6903L111.489 57.7989L110.357 59.9554L109.195 62.1565L108.007 64.3986L86.5571 104.74L85.3605 106.984L84.1829 109.184L83.0256 111.336L81.8896 113.434L80.776 115.474L79.6855 117.453L78.6187 119.364L77.5762 121.206L76.5585 122.972L75.5656 124.66L74.5978 126.266L73.6551 127.786L72.7372 129.216L71.8441 130.554L70.9752 131.796L70.1301 132.939L69.3082 133.981L68.5088 134.92L67.7312 135.752L66.9744 136.476L66.2375 137.09L65.5195 137.593L64.8193 137.982L64.1356 138.258L63.4673 138.419L62.8132 138.464L62.1718 138.393L61.542 138.206L60.9223 137.904L60.3113 137.485L59.7077 136.952L59.1102 136.305L58.5173 135.545L57.9278 134.673L57.3403 133.691L56.7535 132.601L56.1661 131.405L55.5771 130.105L54.9852 128.703L54.3895 127.204L53.7888 125.608L53.1822 123.921L52.569 122.144L51.9484 120.282L51.3197 118.338L50.6823 116.316L50.0358 114.22L49.3799 112.054L48.7143 109.823L48.0388 107.531L47.3536 105.183L46.6586 102.783L45.9542 100.337L33.3611 56.4178L32.6659 53.9802L31.988 51.5883L31.3298 49.2463L30.6937 46.9583L30.0821 44.728L29.4976 42.5592L28.9426 40.4553L28.4196 38.4196L27.9313 36.4554L27.48 34.5656L27.0683 32.7529L26.6988 31.0198L26.374 29.3688L26.0962 27.8019L25.8679 26.3211L25.6914 24.9281L25.569 23.6244L25.5029 22.4111L25.4952 21.2895L25.5481 20.2602L25.6634 19.324L25.8429 18.4812L26.0884 17.7319L26.4014 17.0762L26.7835 16.5138L27.2359 16.0441L27.7598 15.6667L28.3563 15.3805L29.0261 15.1845L29.77 15.0775L30.5886 15.0581L31.4821 15.1245L32.4507 15.2752L33.4945 15.508L34.6132 15.821L35.8064 16.2118L37.0735 16.6782L38.4139 17.2176L39.8264 17.8273L41.3099 18.5047L42.8631 19.2468L44.4844 20.0509L46.172 20.9138L47.9239 21.8325L49.7382 22.8038L51.6123 23.8246L53.5438 24.8915L55.53 26.0015L57.568 27.1511L59.6548 28.3371L61.7871 29.5561L63.9617 30.8049L66.175 32.0803L105.739 54.9236L107.924 56.1903L110.065 57.4359L112.155 58.6591L114.192 59.8586L116.17 61.0335L118.085 62.1827L119.933 63.3056L121.709 64.4015L123.411 65.4701L125.033 66.5108L126.573 67.5236L128.026 68.5083L129.39 69.4651L130.66 70.394L131.835 71.2955L132.911 72.17L133.886 73.0179L134.756 73.8399L135.521 74.6368L136.178 75.4094L136.724 76.1587L137.16 76.8856L137.483 77.5912L137.692 78.2767L137.786 78.9432L137.765 79.5921L137.629 80.2246L137.377 80.8421L137.01 81.4459L136.528 82.0375L135.931 82.6182L135.221 83.1894L134.399 83.7525L133.466 84.3089L132.423 84.86L131.273 85.4071L130.018 85.9514L128.661 86.4943L127.202 87.037L125.647 87.5805L123.997 88.126L122.255 88.6745L120.425 89.2269L118.511 89.784L116.517 90.3466L114.446 90.9154L112.302 91.4909L110.09 92.0736L107.813 92.6638L105.478 93.2618L103.087 93.8676L100.646 94.4813L53.8382 106.152L51.3946 106.756L48.9989 107.344L46.6553 107.912L44.3679 108.46L42.1405 108.984L39.9769 109.483L37.8804 109.953L35.8545 110.393L33.9024 110.8L32.0269 111.172L30.231 111.506L28.517 111.799L26.8874 112.05L25.3444 112.256L23.8898 112.414L22.5253 112.523L21.2525 112.581L20.0725 112.584L18.9865 112.531L17.9952 112.421L17.0993 112.25L16.299 112.018L15.5946 111.723L14.986 111.363L14.4728 110.936L14.0547 110.442L13.7309 109.88L13.5005 109.248L13.3623 108.545L13.3152 107.771L13.3576 106.925L13.4878 106.008L13.7041 105.018L14.0044 103.956L14.3865 102.822L14.8483 101.617L15.3871 100.34L16.0004 98.9932L16.6856 97.5771L17.4398 96.0928L18.26 94.5416L19.1434 92.9252L20.0867 91.2452L21.0868 89.5035L22.1405 87.7023L23.2444 85.8439L24.3953 83.9306L25.5898 81.9652L26.8244 79.9504L28.0958 77.8893L29.4006 75.785L30.7354 73.6409L54.9438 34.8975L56.2994 32.732L57.6334 30.608L58.9441 28.5302L60.23 26.5028L61.49 24.5305L62.7229 22.6174L63.9277 20.768L65.1035 18.9862L66.2496 17.2761L67.3655 15.6418L68.4507 14.0868L69.505 12.615L70.5283 11.2297L71.5204 9.93432L72.4816 8.73196L73.4122 7.62559L74.3123 6.618L75.1826 5.71177L76.0237 4.90929L76.8362 4.21269L77.621 3.62393L78.379 3.14474L79.1111 2.77661L79.8184 2.52079L80.502 2.3783L81.1632 2.34993L81.8032 2.4362L82.4233 2.6374L83.0249 2.95358L83.6093 3.38452L84.1779 3.92977L84.7323 4.58863L85.2737 5.36012L85.8036 6.24306L86.3236 7.236L86.8349 8.33725L87.3389 9.54489L87.8371 10.8568L88.3308 12.2705L88.8211 13.7835L89.3094 15.3929L89.7968 17.0957L90.2843 18.8887L90.7731 20.7684L91.264 22.7312L91.7579 24.7734L92.2555 26.8909L92.7576 29.0796L93.2646 31.3354L93.7771 33.6537L94.2954 36.03L94.8197 38.4597L95.3501 40.938L104.85 85.6279L105.376 88.1193L105.89 90.5649L106.387 92.9604L106.867 95.3016L107.327 97.5844L107.764 99.8051L108.178 101.96L108.565 104.045L108.923 106.057L109.249 107.994L109.542 109.851L109.799 111.627L110.018 113.318L110.197 114.923L110.332 116.439L110.423 117.864L110.466 119.197L110.46 120.436L110.403 121.579L110.292 122.627L110.126 123.577L109.903 124.43L109.621 125.185L109.279 125.842L108.874 126.401L108.406 126.863L107.874 127.227L107.276 127.495L106.611 127.668L105.878 127.747L105.078 127.732L104.209 127.626L103.27 127.431L102.263 127.148L101.186 126.779L100.04 126.326L98.8261 125.793L97.5438 125.181L96.1941 124.493L94.778 123.731L93.2967 122.9L91.7514 122.001L90.1436 121.038L88.4751 120.015L86.7476 118.933L84.9633 117.797L83.1243 116.611L81.2332 115.376L79.2924 114.098L77.3048 112.779L75.2733 111.423L73.201 110.033L71.091 108.614L33.2132 83.0647L31.1111 81.6428L29.0514 80.2446L27.0385 78.8719L25.077 77.5262L23.1711 76.2089L21.3251 74.9212L19.5433 73.6642L17.8296 72.4389L16.188 71.246L14.6224 70.0861L13.1365 68.9599L11.7339 67.8676L10.4179 66.8094L9.1919 65.7854L8.05893 64.7956L7.02189 63.8397L6.0835 62.9174L5.24629 62.0283L4.51256 61.1719L3.88443 60.3474L3.3638 59.5541L2.95233 58.7911L2.65144 58.0574L2.46237 57.3521L2.38606 56.6739L2.42326 56.0217L2.57445 55.3941L2.83987 54.79L3.21952 54.2079L3.71314 53.6465L4.32023 53.1042L5.04003 52.5797L5.87157 52.0714L6.81359 51.5779L7.86461 51.0978L9.0229 50.6295L10.2865 50.1716L11.6532 49.7227L13.1207 49.2814L14.6862 48.8463L16.3469 48.4162L18.0997 47.9898L19.9414 47.5659L21.8685 47.1435L23.8774 46.7214L25.9642 46.2988L28.1249 45.8747L30.3555 45.4484L32.6515 45.0193L35.0085 44.5866L37.422 44.1501L39.8873 43.7093L42.3996 43.2639L87.3922 35.3312L89.8837 34.896L92.3273 34.4735L94.7187 34.0655L97.0537 33.6742L99.3281 33.3015L101.538 32.9495L103.68 32.6203L105.75 32.3161L107.746 32.0392L109.663 31.7916L111.499 31.5756L113.25 31.3935L114.916 31.2475L116.492 31.1397L117.978 31.0725L119.37 31.0478L120.668 31.0679L121.87 31.1348L122.974 31.2504L123.98 31.4168L124.887 31.6357L125.695 31.909L126.402 32.2384L127.009 32.6253L127.517 33.0713L127.925 33.5777L128.233 34.1457L128.444 34.7764L128.557 35.4708L128.574 36.2297L128.496 37.0537L128.326 37.9434L128.064 38.8989L127.712 39.9207L127.274 41.0085L126.75 42.1623L126.144 43.3817L125.458 44.6661L124.695 46.0149L123.857 47.4271L122.948 48.9017L121.971 50.4373L120.929 52.0326L119.825 53.6859L118.662 55.3953L117.445 57.1589L116.176 58.9745L114.858 60.8396L113.497 62.7519L112.095 64.7085L110.655 66.7066L109.182 68.7432L80.8269 107.771L79.3417 109.807L77.8824 111.8L76.4509 113.746L75.0487 115.639L73.6774 117.477L72.3382 119.253L71.0324 120.966L69.7609 122.61L68.5247 124.181L67.3245 125.676L66.1608 127.092L65.034 128.424L63.9445 129.669L62.8923 130.825L61.8775 131.888L60.8998 132.855L59.9592 133.723L59.055 134.491L58.1868 135.155L57.3541 135.715L56.5559 136.167L55.7915 136.511L55.06 136.745L54.3602 136.868L53.6911 136.878L53.0514 136.776L52.4399 136.561L51.8553 136.232L51.2962 135.79L50.7611 135.235L50.2486 134.567L49.7573 133.788L49.2855 132.898L48.8318 131.899L48.3946 130.791L47.9724 129.578L47.5638 128.261L47.1672 126.841L46.7811 125.322L46.4042 123.707L46.035 121.997L45.6723 120.197L45.3148 118.31L44.9612 116.338L44.6104 114.286L44.2614 112.158L43.9132 109.957L43.5649 107.688L43.2157 105.355L42.8649 102.962L42.512 100.515L42.1564 98.0179L35.7975 52.7799L35.4434 50.2468L35.0993 47.7591L34.7669 45.3215L34.4479 42.9381L34.1442 40.6133L33.8578 38.351L33.5905 36.1553L33.3445 34.0299L33.1217 31.9782L32.9242 30.0038L32.7542 28.1096L32.6137 26.2989L32.505 24.5742L32.43 22.9382L32.391 21.3932L32.3901 19.9413L32.4293 18.5845L32.5106 17.3245L32.6361 16.1626L32.8077 15.1001L33.0272 14.138L33.2965 13.277L33.6172 12.5177L33.9911 11.8604L34.4196 11.3051L34.9041 10.8516L35.446 10.4997L36.0464 10.2486L36.7065 10.0976L37.4272 10.0456L38.2092 10.0914L39.0533 10.2335L39.9598 10.4703L40.9292 10.7999L41.9615 11.2205L43.0569 11.7297L44.2152 12.3252L45.436 13.0045L46.7188 13.7649L48.063 14.6037L49.4676 15.5178L50.9316 16.5043L52.4538 17.56L54.0328 18.6815L55.6669 19.8656L57.3545 21.1088L59.0935 22.4075L60.8818 23.7581L62.7172 25.1572L64.5971 26.6008L66.5189 28.0855L68.4799 29.6074L70.477 31.1628L106.48 59.2904L108.487 60.8619L110.455 62.4073L112.379 63.9245L114.255 65.4116L116.078 66.8669L117.844 68.2889L119.55 69.6762L121.191 71.0273L122.764 72.3414L124.263 73.6173L125.687 74.8544L127.031 76.052L128.291 77.2096L129.465 78.3268L130.549 79.4035L131.541 80.4397L132.437 81.4353L133.236 82.3908L133.934 83.3063L134.529 84.1825L135.02 85.0199L135.404 85.8192L135.681 86.5813L135.848 87.3071L135.905 87.9977L135.85 88.6542L135.684 89.2778L135.405 89.8697L135.015 90.4313L134.511 90.964L133.896 91.4693L133.169 91.9487L132.332 92.4036L131.386 92.8357L130.331 93.2465L129.169 93.6376L127.903 94.0106L126.534 94.367L125.064 94.7084L123.497 95.0364L121.834 95.3524L120.078 95.6579L118.233 95.9543L116.303 96.2431L114.29 96.5254L112.198 96.8025L110.031 97.0757L107.793 97.3459L105.489 97.6142L103.123 97.8815L100.698 98.1485L98.221 98.4161L95.6952 98.6848L50.2564 103.461L47.729 103.723L45.2492 103.977L42.8213 104.22L40.4499 104.451L38.139 104.667L35.8928 104.869L33.7152 105.052L31.6099 105.217L29.5804 105.359L27.6303 105.479L25.7625 105.573L23.9802 105.64L22.286 105.677L20.6826 105.683L19.1722 105.655L17.757 105.592L16.4389 105.491L15.2195 105.351L14.1003 105.169L13.0825 104.944L12.1669 104.674L11.3545 104.357L10.6456 103.992L10.0405 103.577L9.53927 103.11L9.14171 102.59L8.84739 102.015L8.65567 101.386L8.56567 100.699L8.57632 99.9558L8.68632 99.154L8.89418 98.2934L9.19821 97.3735L9.5965 96.3939L10.087 95.3544L10.6674 94.2551L11.3354 93.096L12.0883 91.8775L12.9235 90.6001L13.8379 89.2643L14.8287 87.8711L15.8927 86.4214L17.0266 84.9165L18.227 83.3576L19.4906 81.7464L20.8137 80.0846L22.1928 78.374L23.6241 76.6166L25.104 74.8149L26.6287 72.9711L28.1944 71.0878L29.7973 69.1678L31.4335 67.2138L60.8014 32.2153L62.432 30.2779L64.0343 28.3807L65.6061 26.528L67.1454 24.724L68.6505 22.9728L70.1197 21.2787L71.5514 19.6455L72.9444 18.0774L74.2975 16.578L75.6096 15.1512L76.8799 13.8006L78.1077 12.5296L79.2924 11.3417L80.4336 10.24L81.5312 9.2277L82.5849 8.30756L83.595 7.48234L84.5614 6.75456L85.4847 6.12657L86.3652 5.6005L87.2035 5.17831L88.0003 4.8617L88.7565 4.65218L89.4731 4.55105L90.1509 4.55934L90.7912 4.67788L91.3951 4.90727L91.964 5.24784L92.4992 5.69972L93.0022 6.26276L93.4744 6.93657L93.9174 7.72056L94.3326 8.61383L94.7219 9.61529L95.0867 10.7236L95.4286 11.9371L95.7495 13.2541L96.0508 14.6724L96.3342 16.1898L96.6014 17.8037L96.8539 19.5115L97.0932 21.3101L97.3209 23.1965L97.5385 25.1672L97.7472 27.2188L97.9486 29.3475L98.1438 31.5493L98.3341 33.8203L98.5205 36.1562L98.704 38.5527L98.8857 41.0051L99.0664 43.509L99.2467 46.0595L102.432 91.6317L102.604 94.1493L102.768 96.6175L102.922 99.0317L103.066 101.387L103.197 103.681L103.314 105.907L103.416 108.063L103.5 110.145L103.564 112.148L103.607 114.071L103.627 115.909L103.622 117.659L103.59 119.32L103.529 120.887L103.437 122.36L103.311 123.736L103.152 125.012L102.955 126.188L102.72 127.262L102.444 128.233L102.126 129.099L101.765 129.861L101.358 130.517L100.904 131.068L100.401 131.513L99.8487 131.853L99.2453 132.088L98.5896 132.219L97.8807 132.246L97.1176 132.172L96.2995 131.996L95.4259 131.722L94.4961 131.35L93.5099 130.882L92.467 130.321L91.3674 129.669L90.2112 128.928L88.9987 128.101L87.7304 127.191L86.4068 126.201L85.0288 125.134L83.5973 123.992L82.1134 122.781L80.5785 121.502L78.994 120.16L77.3617 118.757L75.6832 117.299L73.9607 115.788L72.1963 114.228L70.3924 112.624L68.5513 110.979L66.6758 109.296L30.826 77.0166L28.9609 75.3302L27.1365 73.6744L25.357 72.0514L23.6267 70.4633L21.9495 68.912L20.3294 67.3992L18.7706 65.9265L17.2767 64.4952L15.8516 63.1068L14.4989 61.7622L13.2223 60.4624L12.025 59.2081L10.9105 57.9999L9.88173 56.8384L8.94184 55.7237L8.09361 54.656L7.33967 53.6354L6.6825 52.6616L6.12438 51.7343L5.66738 50.8532L5.3134 50.0176L5.06408 49.2269L4.9209 48.4801L4.88508 47.7765L4.95761 47.115L5.13928 46.4944L5.43064 45.9135L5.83198 45.371L6.34337 44.8656L6.96464 44.3957L7.69537 43.9598L8.53488 43.5565L9.48231 43.1839L10.5365 42.8406L11.696 42.5248L12.9593 42.2348L14.3245 41.969L15.7895 41.7255L17.352 41.5027L19.0095 41.299L20.7591 41.1125L22.598 40.9418L24.5229 40.7851L26.5305 40.641L28.6173 40.5079L30.7794 40.3843L33.013 40.269L35.3139 40.1605L37.678 40.0578L40.1008 39.9595L42.5778 39.8647L45.1044 39.7723L90.7627 38.1771L93.3136 38.0903L95.8176 38.0088L98.2702 37.9339L100.667 37.8668L103.003 37.809L105.275 37.762L107.478 37.7273L109.609 37.7066L111.663 37.7014L113.637 37.7136L115.529 37.7449L117.334 37.7971L119.049 37.8721L120.673 37.9716L122.202 38.0977L123.634 38.252L124.967 38.4366L126.2 38.6532L127.329 38.9036L128.356 39.1897L129.277 39.5132L130.092 39.8758L130.801 40.2792L131.402 40.7249L131.897 41.2145L132.284 41.7493L132.565 42.3307L132.739 42.96L132.807 43.6382L132.771 44.3665L132.631 45.1456L132.389 45.9765L132.047 46.8596L131.606 47.7956L131.068 48.7849L130.436 49.8275L129.712 50.9237L128.898 52.0732L127.997 53.2759L127.013 54.5314L125.947 55.839L124.804 57.1981L123.586 58.6077L122.297 60.0667L120.941 61.5739L119.52 63.1278L118.04 64.7269L116.503 66.3694L114.914 68.0534L113.276 69.7768L111.593 71.5372L109.87 73.3324L108.11 75.1597L76.372 108.026L74.6028 109.854L72.864 111.645L71.1581 113.394L69.4874 115.099L67.8541 116.753L66.2601 118.355L64.7073 119.899L63.1972 121.383L61.7314 122.801L60.3113 124.151L58.9379 125.428L57.6122 126.63L56.3352 127.753L55.1073 128.794L53.9292 129.749L52.8011 130.616L51.7233 131.392L50.6958 132.075L49.7183 132.662L48.7907 133.15L47.9126 133.538L47.0834 133.825L46.3023 134.007L45.5687 134.085L44.8815 134.056L44.2397 133.921L43.6423 133.677L43.0878 133.325L42.5751 132.864L42.1027 132.295L41.6691 131.617L41.2727 130.832L40.912 129.938L40.5853 128.939L40.2908 127.834L40.0269 126.626L39.7917 125.315L39.5835 123.904L39.4005 122.395L39.241 120.791L39.1031 119.092L38.985 117.304L38.8851 115.428L38.8017 113.467L38.7331 111.426L38.6776 109.308L38.6338 107.115L38.6001 104.854L38.5751 102.526L38.5574 100.138L38.5459 97.6923L38.5393 95.1944L38.5366 92.6489L38.5369 46.9602L38.5404 44.4249L38.548 41.9383L38.5608 39.505L38.5799 37.1296L38.6067 34.8165L38.6426 32.5698L38.6888 30.3937L38.7471 28.2919L38.8189 26.2683L38.9058 24.3264L39.0096 22.4695L39.1319 20.7008L39.2745 19.0232L39.4391 17.4394L39.6275 15.952L39.8415 14.5632L40.0829 13.2752L40.3535 12.0896L40.655 11.0082L40.9891 10.0322L41.3576 9.16291L41.7621 8.40106L42.2042 7.74733L42.6854 7.20214L43.2073 6.76563L43.7711 6.43773L44.3784 6.21813L45.0301 6.10628L45.7275 6.10139L46.4716 6.20247L47.2633 6.40827L48.1033 6.71736L48.9924 7.12808L49.931 7.63855L50.9196 8.24671L51.9583 8.95031L53.0473 9.7469L54.1865 10.6338L55.3757 11.6084L56.6145 12.6675L57.9024 13.8082L59.2387 15.0272L60.6226 16.321L62.053 17.6863L63.5287 19.1193L65.0484 20.6165L66.6106 22.1739L68.2134 23.7877L69.8552 25.454L71.5339 27.1687L73.2473 28.9279L74.9931 30.7273L76.7687 32.5629L108.504 65.4268L110.256 67.2473L111.97 69.0349L113.643 70.7874L115.271 72.5022L116.849 74.1771L118.374 75.8102L119.841 77.3994L121.247 78.9431L122.589 80.4397L123.862 81.8878L125.064 83.2863L126.19 84.634L127.238 85.9301L128.205 87.1739L129.086 88.3648L129.881 89.5025L130.585 90.5868L131.196 91.6176L131.712 92.595L132.132 93.5192L132.452 94.3907L132.671 95.21L132.788 95.9778L132.801 96.6949L132.709 97.3622L132.512 97.9807L132.207 98.5517L131.796 99.0763L131.278 99.556L130.653 99.9922L129.92 100.386L129.081 100.74L128.137 101.055L127.087 101.333L125.935 101.576L124.68 101.785L123.324 101.963L121.871 102.111L120.32 102.231L118.676 102.325L116.94 102.395L115.116 102.442L113.206 102.469L111.213 102.477L109.142 102.468L106.995 102.444L104.776 102.407L102.49 102.357L100.14 102.297L97.7303 102.228L95.2659 102.152L92.751 102.069L44.5394 100.386L42.0234 100.293L39.558 100.197L37.1478 100.098L34.7974 99.9941L32.5111 99.8843L30.293 99.7672L28.1473 99.6417L26.0778 99.5062L24.0882 99.3595L22.1821 99.1998L20.3628 99.0257L18.6334 98.8356L16.9968 98.6277L15.4557 98.4005L14.0127 98.1522L12.67 97.8811L11.4295 97.5856L10.2933 97.2638L9.26268 96.9141L8.33913 96.5349L7.52369 96.1244L6.81722 95.6812L6.22032 95.2035L5.73336 94.69L5.35645 94.1391L5.08949 93.5495L4.9321 92.9199L4.8837 92.2491L4.94346 91.536L5.11032 90.7796L5.38301 89.979L5.76002 89.1333L6.23964 88.242L6.81994 87.3044L7.4988 86.3202L8.27389 85.2892L9.14272 84.2111L10.1026 83.086L11.1506 81.914L12.2838 80.6956L13.499 79.4311L14.7928 78.1213L16.1619 76.7669L17.6026 75.3688L19.1112 73.9283L20.684 72.4465L22.3171 70.925L24.0064 69.3654L25.748 67.7694L27.5378 66.1389L29.3716 64.4761L31.2453 62.7832L65.1948 32.2136L67.0951 30.5053L68.9632 28.831L70.7962 27.1944L72.5916 25.5996L74.3469 24.0505L76.0598 22.5508L77.7282 21.1045L79.35 19.7152L80.9236 18.3866L82.4473 17.1224L83.9197 15.9261L85.3394 14.8011L86.7054 13.7507L88.0168 12.7781L89.2728 11.8864L90.4728 11.0785L91.6164 10.3571L92.7034 9.72491L93.7337 9.18434L94.7074 8.73767L95.6247 8.387L96.486 8.13424L97.2918 7.98108L98.0428 7.92904L98.7398 7.97941L99.3837 8.13327L99.9757 8.39148L100.517 8.75469L101.008 9.2233L101.452 9.7975L101.849 10.4772L102.201 11.2622L102.509 12.152L102.775 13.1457L103.002 14.2423L103.19 15.4408L103.342 16.7395L103.46 18.1369L103.545 19.6309L103.6 21.2194L103.626 22.9001L103.625 24.6703L103.6 26.5273L103.552 28.468L103.483 30.4893L103.395 32.5877L103.29 34.7595L103.169 37.0012L103.035 39.3086L102.889 41.6777L102.732 44.1042L102.566 46.5838L102.393 49.1118L99.2066 94.6888L99.0263 97.2294L98.8455 99.7222L98.6635 102.163L98.4793 104.546L98.2922 106.868L98.1009 109.124L97.9045 111.31L97.7016 113.422L97.491 115.456L97.2713 117.408L97.0411 119.275L96.799 121.054L96.5434 122.741L96.2728 124.334L95.9855 125.829L95.68 127.225L95.3546 128.52L95.0077 129.71L94.6376 130.795L94.2427 131.772L93.8214 132.641L93.3721 133.401L92.8932 134.05L92.3832 134.588L91.8407 135.016L91.2641 135.331L90.6522 135.536L90.0037 135.63L89.3173 135.614L88.5921 135.489L87.8269 135.255L87.0209 134.915L86.1733 134.47L85.2834 133.921L84.3506 133.271L83.3745 132.521L82.3548 131.674L81.2913 130.734L80.184 129.701L79.0331 128.58L77.8388 127.373L76.6015 126.085L75.3218 124.717L74.0006 123.273L72.6385 121.758L71.2368 120.176L69.7966 118.528L68.3194 116.821L66.8065 115.058L65.2598 113.243L63.6811 111.38L62.0724 109.473L60.4357 107.528L31.0675 72.5277L29.4384 70.5811L27.8434 68.669L26.2865 66.7942L24.7714 64.9595L23.302 63.1674L21.8819 61.4203L20.5149 59.7204L19.2047 58.0696L17.9549 56.4699L16.7689 54.9229L15.6503 53.4301L14.6023 51.9928L13.6282 50.6123L12.7311 49.2894L11.914 48.025L11.1797 46.8197L10.5309 45.6739L9.97023 44.5878L9.50003 43.5617L9.12249 42.5953L8.83966 41.6886L8.65339 40.8411L8.56533 40.0523L8.57692 39.3215L8.68942 38.648L8.90386 38.0307L9.22105 37.4686L9.6416 36.9604L10.1659 36.505L10.794 36.1008L11.5259 35.7463L12.3613 35.44L13.2997 35.1802L14.3401 34.965L15.4817 34.7927L16.7231 34.6614L18.0629 34.5691L19.4994 34.5139L21.0307 34.4938L22.6545 34.5068L24.3684 34.5508L26.17 34.6237L28.0563 34.7236L30.0243 34.8485L32.0709 34.9962L34.1926 35.165L36.3857 35.3527L38.6466 35.5576L40.9713 35.7778L43.3557 36.0115L45.7955 36.257L48.2863 36.5126L50.8235 36.7769L96.26 41.5532L98.7754 41.8216L101.241 42.089L103.653 42.356L106.006 42.6234L108.296 42.8921L110.518 43.1629L112.669 43.4368L114.743 43.715L116.739 43.9986L118.651 44.289L120.476 44.5873L122.211 44.895L123.853 45.2136L125.399 45.5444L126.847 45.889L128.193 46.249L129.436 46.6258L130.574 47.0212L131.605 47.4365L132.528 47.8736L133.34 48.3338L134.042 48.8188L134.633 49.33L135.111 49.869L135.477 50.4373L135.731 51.0361L135.872 51.6669L135.902 52.3308L135.82 53.0291L135.629 53.7629L135.328 54.5332L134.92 55.341L134.406 56.1869L133.787 57.0718L133.067 57.9961L132.247 58.9605L131.329 59.9651L130.317 61.0102L129.212 62.096L128.019 63.2222L126.739 64.3887L125.378 65.5951L123.937 66.8408L122.421 68.1253L120.833 69.4477L119.177 70.807L117.457 72.202L115.678 73.6316L113.842 75.0941L111.956 76.5881L110.022 78.1117L108.045 79.663L70.0306 109.363L68.0412 110.912L66.0887 112.426L64.176 113.902L62.3057 115.336L60.4806 116.724L58.703 118.064L56.9753 119.35L55.2994 120.581L53.6774 121.751L52.1108 122.858L50.6014 123.899L49.1505 124.87L47.7593 125.767L46.4287 126.589L45.1596 127.332L43.9526 127.993L42.8083 128.569L41.7269 129.059L40.7085 129.459L39.7531 129.769L38.8605 129.985L38.0302 130.105L37.2619 130.13L36.5548 130.056L35.908 129.883L35.3206 129.609L34.7916 129.235L34.3196 128.759L33.9034 128.181L33.5415 127.501L33.2323 126.719L32.9743 125.835L32.7655 124.851L32.6044 123.766L32.4888 122.582L32.417 121.301L32.3869 119.923L32.3965 118.45L32.4436 116.885L32.5263 115.229L32.6422 113.485L32.7894 111.655L32.9657 109.743L33.169 107.751L33.3972 105.683L33.6481 103.541L33.9198 101.33L34.2102 99.054L34.5175 96.7158L34.8396 94.32L35.1747 91.8709L35.5212 89.3727L41.8778 44.1347L42.2356 41.6017L42.5906 39.1151L42.943 36.6796L43.2933 34.3L43.6423 31.9809L43.9905 29.7266L44.3388 27.5415L44.6881 25.4298L45.0394 23.3954L45.3938 21.442L45.7524 19.5735L46.1164 17.7932L46.4872 16.1044L46.866 14.51L47.2543 13.0131L47.6534 11.6162L48.0649 10.3216L48.4903 9.13166L48.931 8.04821L49.3886 7.07301L49.8646 6.20749L50.3606 5.45291L50.8779 4.81022L51.4182 4.28018L51.9829 3.86327L52.5733 3.55973L53.191 3.36957L53.8371 3.29251L54.5129 3.32808L55.2196 3.47555L55.9584 3.73392L56.7302 4.102L57.536 4.57836L58.3765 5.16133L59.2526 5.84901L60.1648 6.63932L61.1137 7.52995L62.0996 8.51841L63.1227 9.60197L64.1832 10.7778L65.281 12.0427L66.416 13.3937L67.5879 14.8271L68.7961 16.3396L70.0402 17.9275L71.3194 19.5869L72.6327 21.3139L73.9791 23.1045L75.3574 24.9546L76.7662 26.86L78.2041 28.8163L79.6693 30.8193L81.16 32.8646L108.015 69.826L109.512 71.8903L110.978 73.9187L112.409 75.9078L113.803 77.8548L115.155 79.7568L116.462 81.6112L117.72 83.4155L118.925 85.1672L120.075 86.8643L121.166 88.5049L122.194 90.0871L123.156 91.6093L124.049 93.0701L124.871 94.4683L125.617 95.8029L126.286 97.0729L126.874 98.2778L127.379 99.417L127.798 100.49L128.13 101.497L128.372 102.438L128.522 103.313L128.578 104.123L128.54 104.867L128.405 105.547L128.173 106.164L127.843 106.718L127.413 107.211L126.883 107.644L126.254 108.018L125.524 108.335L124.695 108.596L123.766 108.803L122.737 108.958L121.611 109.062L120.388 109.119L119.069 109.129L117.656 109.094L116.15 109.018L114.554 108.902L112.869 108.747L111.098 108.557L109.244 108.334L107.309 108.08L105.297 107.797L103.211 107.487L101.053 107.152L98.8285 106.796L96.5403 106.419L94.1925 106.023L91.7891 105.612L89.3345 105.187L86.833 104.749L41.838 96.815L39.3357 96.3707L36.8815 95.9308L34.4801 95.4952L32.1362 95.0634L29.8544 94.6349L27.639 94.2092L25.4943 93.7855L23.4245 93.3631L21.4334 92.941L19.525 92.5183L17.7027 92.094L15.9701 91.6669L14.3302 91.2358L12.7863 90.7994L11.341 90.3565L9.99695 89.9058L8.75654 89.4457L7.6219 88.9749L6.59495 88.4919L5.67734 87.9953L4.87052 87.4835L4.17566 86.9552L3.59371 86.4088L3.12536 85.8429L2.77107 85.256L2.53102 84.6468L2.40517 84.0139L2.39322 83.356L2.49464 82.6719L2.70863 81.9604L3.03418 81.2203L3.47003 80.4506L4.01469 79.6505L4.66642 78.8189L5.42331 77.9553L6.2832 77.0589L7.24372 76.1292L8.3023 75.1658L9.45619 74.1684L10.7024 73.1368L12.0379 72.071L13.4593 70.9711L14.9632 69.8374L16.546 68.6702L18.204 67.47L19.9332 66.2376L21.7296 64.9737L23.5893 63.6793L25.5079 62.3556L27.4812 61.0038L29.5048 59.6253L31.5743 58.2217L33.6853 56.7947L71.5626 31.2467L73.6645 29.8335L75.728 28.4511L77.75 27.103L79.7275 25.7928L81.6575 24.5239L83.5373 23.2998L85.3643 22.124L87.1362 21L88.8507 19.9311L90.5059 18.9206L92.1 17.9717L93.6312 17.0877L95.0981 16.2716L96.4995 15.5264L97.8343 14.855L99.1016 14.2602L100.301 13.7444L101.431 13.3104L102.492 12.9603L103.485 12.6963L104.407 12.5206L105.261 12.4349L106.047 12.441L106.764 12.5403L107.414 12.734L107.998 13.0235L108.516 13.4094L108.969 13.8925L109.36 14.4734L109.689 15.1522L109.958 15.929L110.168 16.8037L110.322 17.7758L110.42 18.8447L110.466 20.0096L110.461 21.2694L110.407 22.6227L110.306 24.0682L110.161 25.6039L109.973 27.2281L109.745 28.9384L109.48 30.7324L109.179 32.6076L108.846 34.5611L108.481 36.59L108.088 38.6909L107.669 40.8606L107.226 43.0954L106.762 45.3916L106.278 47.7452L105.777 50.1522L105.261 52.6083L104.731 55.1092L95.2318 99.7945L94.7027 102.262L94.1798 104.681L93.6628 107.044L93.1516 109.349L92.6457 111.59L92.1446 113.764L91.6479 115.865L91.1547 117.89L90.6644 119.834L90.176 121.695L89.6886 123.468L89.2011 125.151L88.7124 126.739L88.2215 128.23L87.7269 129.622L87.2276 130.911L86.722 132.095L86.2089 133.172L85.6869 134.141L85.1545 134.999L84.6103 135.746L84.053 136.379L83.481 136.899L82.8929 137.305L82.2873 137.595L81.6629 137.771L81.0183 137.832L80.3522 137.778L79.6634 137.61L78.9507 137.33L78.213 136.937L77.4491 136.433L76.6583 135.82L75.8394 135.1L74.9919 134.274L74.115 133.345L73.2082 132.315L72.2709 131.187L71.3028 129.964L70.3038 128.649L69.2736 127.244L68.2124 125.753L67.1204 124.18L65.9977 122.529L64.845 120.802L63.6627 119.005L62.4516 117.141L61.2126 115.215L59.9467 113.23L58.6551 111.191L57.3391 109.102L56.0002 106.969L30.4366 66.058L29.1082 63.9224L27.8105 61.8274L26.547 59.7763L25.321 57.7723L24.1359 55.8182L22.9951 53.9169L21.9021 52.0709L20.86 50.2827L19.8722 48.5546L18.942 46.8885L18.0723 45.2865L17.2665 43.7501L16.5274 42.2808L15.8579 40.8799L15.2609 39.5486L14.739 38.2877L14.2947 37.0981L13.9306 35.9801L13.6488 34.9341L13.4514 33.9604L13.3405 33.0588L13.3179 32.2292L13.3851 31.4712L13.5436 30.7842L13.7947 30.1675L14.1394 29.6203L14.5785 29.1415L15.1128 28.73L15.7427 28.3844L16.4684 28.1032L17.2899 27.885L18.2071 27.728L19.2195 27.6304L20.3265 27.5904L21.5271 27.6058L22.8204 27.6747L24.205 27.7949L25.6794 27.9642L27.2419 28.1802L28.8904 28.4407L30.6227 28.7434L32.4366 29.0857L34.3293 29.4653L36.2981 29.8797L38.3399 30.3266L40.4516 30.8035L42.6297 31.308L44.8708 31.8378L47.171 32.3904L49.5265 32.9635L51.9331 33.5549L54.3868 34.1625L98.7158 45.2141L101.192 45.8338L103.622 46.4458L106.001 47.0499L108.324 47.6461L110.586 48.2346L112.784 48.8157L114.912 49.3896L116.967 49.957L118.944 50.5184L120.839 51.0744L122.649 51.6258L124.371 52.1735L126 52.7185L127.535 53.2618L128.971 53.8044L130.306 54.3475L131.538 54.8923L132.664 55.4402L133.682 55.9923L134.591 56.5501L135.388 57.1149L136.073 57.6881L136.645 58.2711L137.101 58.8652L137.443 59.472L137.669 60.0927L137.78 60.7287L137.775 61.3814L137.655 62.0521L137.421 62.7419L137.073 63.4522L136.613 64.1839L136.041 64.9383L135.361 65.7162L134.572 66.5186L133.678 67.3463L132.681 68.2001L131.583 69.0805L130.386 69.988L129.095 70.9232L127.711 71.8861L126.238 72.8771L124.68 73.8961L123.04 74.943L121.321 76.0176L119.529 77.1196L117.665 78.2484L115.736 79.4034L113.745 80.5838L111.696 81.7887L109.594 83.0169L107.443 84.2674L105.248 85.5386L65.6804 108.383L63.4754 109.653L61.3099 110.895L59.1874 112.107L57.1111 113.286L55.0844 114.427L53.1101 115.527L51.1911 116.584L49.3301 117.594L47.5295 118.554L45.7916 119.461L44.1186 120.311L42.5123 121.102L40.9744 121.83L39.5066 122.492L38.11 123.087L36.7858 123.61L35.535 124.06L34.3583 124.434L33.2563 124.729L32.2292 124.944L31.2772 125.076L30.4004 125.123L29.5984 125.085L28.871 124.958L28.2175 124.742L27.6372 124.436L27.1293 124.038L26.6926 123.548L26.326 122.964L26.0281 122.288L25.7974 121.518L25.6323 120.654L25.531 119.697L25.4918 118.648L25.5126 117.506L25.5913 116.272L25.7259 114.948L25.9142 113.536L26.1537 112.036L26.4421 110.45L26.7771 108.781L27.1562 107.03L27.5768 105.2L28.0366 103.293L28.5329 101.313L29.0632 99.2616L29.6249 97.143L30.2157 94.9602L30.8329 92.7167L31.4741 90.4164L32.1369 88.063L32.8188 85.6606L33.5176 83.2133L46.1114 39.2946L46.8138 36.858L47.5066 34.4692L48.1897 32.1331L48.8629 29.8544L49.5264 27.6376L50.1802 25.4871L50.8246 23.4072L51.46 21.4021L52.0869 19.4758L52.7058 17.6322L53.3175 15.8749L53.9226 14.2075L54.5221 12.6331L55.1169 11.155L55.7081 9.7761L56.2966 8.499L56.8837 7.32622L57.4706 6.26002L58.0585 5.30241L58.6486 4.45519L59.2424 3.71989L59.8412 3.09782L60.4463 2.59005L61.059 2.19738L61.6809 1.92038L62.3132 1.75937L62.9573 1.7144L63.6144 1.78528L64.286 1.97158L64.9733 2.27262L65.6774 2.68746L66.3995 3.21492L67.1407 3.85361L67.902 4.60185L68.6844 5.4578L69.4887 6.41933L70.3157 7.48412L71.166 8.64966L72.0403 9.91319L72.9389 11.2718L73.8623 12.7223L74.8106 14.2614L75.7839 15.8857L76.7823 17.5915L77.8056 19.375L78.8535 21.2323L79.9256 23.1592L81.0213 25.1517L82.1399 27.2053L83.2807 29.3157L84.4426 31.4785L85.6246 33.6889L86.8253 35.9424L108.273 76.2808L109.455 78.5141L110.611 80.7056L111.737 82.8518L112.829 84.9493L113.884 86.9949L114.9 88.9855L115.873 90.9183L116.8 92.7905L117.678 94.5996L118.503 96.3434L119.274 98.0196L119.985 99.6263L120.636 101.162L121.223 102.625L121.743 104.013L122.193 105.327L122.572 106.564L122.877 107.724L123.104 108.807L123.254 109.812L123.322 110.738L123.308 111.587L123.21 112.358L123.025 113.052L122.754 113.669L122.395 114.21L121.946 114.676L121.407 115.067L120.777 115.386L120.057 115.634L119.245 115.812L118.342 115.921L117.348 115.965L116.264 115.943L115.09 115.86L113.827 115.716L112.476 115.513L111.039 115.255L109.516 114.944L107.911 114.582L106.224 114.171L104.458 113.714L102.615 113.214L100.699 112.673L98.7106 112.094L96.6541 111.479L94.5324 110.832L92.3488 110.154L90.1069 109.449L87.8104 108.719L85.463 107.967L83.0689 107.194L37.1889 92.2869L34.7954 91.5041L32.4513 90.7326L30.1613 89.9728L27.9299 89.2249L25.7617 88.4889L23.6611 87.7649L21.6323 87.0527L19.6794 86.352L17.8065 85.6623L16.0174 84.9834L14.3155 84.3144L12.7045 83.6549L11.1876 83.0039L9.76782 82.3606L8.44804 81.7241L7.23092 81.0934L6.11889 80.4673L5.11415 79.8448L4.2187 79.2246L3.43425 78.6055L2.76233 77.9862L2.20418 77.3653L1.76084 76.7417L1.43305 76.1139L1.22134 75.4805L1.12598 74.8402L1.14698 74.1918L1.2841 73.5337L1.53687 72.8649L1.90454 72.1839L2.38614 71.4896L2.98044 70.7807L3.68598 70.0563L4.50106 69.3152L5.42375 68.5565L6.45191 67.7792L7.58314 66.9826L8.81488 66.1658L10.1443 65.3284L11.5685 64.4698L13.0841 63.5895L14.688 62.6872L16.3764 61.7629L18.1458 60.8163L19.9923 59.8476L21.9118 58.857L23.9003 57.8448L25.9534 56.8115L28.0668 55.7576L30.2361 54.6838L32.4567 53.5911L34.7239 52.4805L75.7841 32.4529L78.0821 31.3344L80.3398 30.2395L82.5534 29.1713L84.7193 28.1328L86.8342 27.1271L88.8947 26.1573L90.8977 25.2264L92.8404 24.3375L94.7199 23.4937L96.5338 22.6979L98.2796 21.9533L99.9552 21.2626L101.559 20.6288L103.088 20.0547L104.542 19.543L105.919 19.0964L107.218 18.7175L108.438 18.4086L109.578 18.1722L110.638 18.0104L111.617 17.9253L112.516 17.9189L113.334 17.9929L114.071 18.149L114.728 18.3886L115.305 18.7131L115.804 19.1236L116.225 19.6209L116.569 20.2059L116.838 20.8792L117.033 21.641L117.155 22.4916L117.207 23.4309L117.19 24.4586L117.106 25.5743L116.958 26.7773L116.746 28.0667L116.475 29.4414L116.146 30.9002L115.761 32.4413L115.323 34.0632L114.835 35.7639L114.3 37.5412L113.719 39.3927L113.096 41.3159L112.433 43.308L111.734 45.3661L111.001 47.487L110.236 49.6674L109.443 51.9039L108.623 54.1926L107.781 56.53L106.918 58.9119L91.2922 101.845L90.4184 104.238L89.5574 106.585L88.7096 108.881L87.8755 111.122L87.0554 113.303L86.2496 115.42L85.4581 117.467L84.6808 119.442L83.9175 121.34L83.1681 123.157L82.432 124.89L81.7089 126.534L80.998 128.086L80.2987 129.544L79.6102 130.903L78.9317 132.162L78.2621 133.317L77.6004 134.367L76.9456 135.309L76.2966 136.141L75.652 136.861L75.0107 137.469L74.3714 137.962L73.7327 138.341L73.0934 138.603L72.4522 138.749L71.8076 138.778L71.1583 138.691L70.5031 138.488L69.8406 138.169L69.1695 137.734L68.4886 137.187L67.7967 136.526L67.0927 135.754L66.3754 134.873L65.6439 133.885L64.8972 132.791L64.1344 131.594L63.3548 130.298L62.5576 128.904L61.7424 127.416L60.9085 125.837L60.0557 124.17L59.1836 122.42L58.2921 120.589L57.3812 118.681L56.451 116.702L55.5017 114.655L54.5337 112.543L53.5475 110.373L52.5436 108.147L51.5228 105.872L50.4861 103.551L31.9028 61.8116L30.8731 59.4908L29.8667 57.2127L28.8866 54.9809L27.9356 52.7991L27.0166 50.6708L26.1328 48.5993L25.2869 46.5878L24.482 44.6391L23.721 42.7561L23.0069 40.9414L22.3425 39.1974L21.7307 37.5261L21.1742 35.9298L20.6759 34.41L20.2383 32.9685L19.864 31.6066L19.5555 30.3255L19.3151 29.1261L19.1452 28.0092L19.0479 26.9753L19.0251 26.0249L19.0788 25.158L19.2107 24.3746L19.4225 23.6744L19.7154 23.0571L20.0908 22.5219L20.5497 22.0681L21.0931 21.6948L21.7217 21.4006L22.436 21.1844L23.2363 21.0446L24.1229 20.9796L25.0956 20.9877L26.1541 21.0669L27.298 21.2152L28.5267 21.4305L29.8391 21.7104L31.2343 22.0527L32.7109 22.4548L34.2674 22.9142L35.902 23.4283L37.6128 23.9945L39.3977 24.61L41.2544 25.2719L43.1802 25.9776L45.1725 26.7242L47.2283 27.5088L49.3445 28.3286L51.5179 29.1807L53.7449 30.0623L56.022 30.9705L58.3453 31.9026L60.711 32.8558L103.071 49.971L105.416 50.9225L107.713 51.8594L109.958 52.7811L112.147 53.6869L114.275 54.5764L116.337 55.4495L118.329 56.3057L120.248 57.1452L122.088 57.968L123.847 58.7742L125.52 59.5643L127.104 60.3385L128.596 61.0975L129.992 61.8418L131.29 62.5723L132.486 63.2895L133.578 63.9946L134.564 64.6884L135.442 65.3719L136.209 66.0464L136.865 66.7129L137.407 67.3726L137.835 68.0269L138.148 68.6769L138.344 69.324L138.424 69.9695" stroke="#FFC700" stroke-width="0.8"/>
</svg>
